<svg width="16" height="17" viewBox="0 0 16 17" fill="none" xmlns="http://www.w3.org/2000/svg">
  <path
    d="M3.0332 13.2578C3.07227 13.2578 3.11133 13.2539 3.15039 13.248L6.43555 12.6719C6.47461 12.6641 6.51172 12.6465 6.53906 12.6172L14.8184 4.33789C14.8365 4.31982 14.8508 4.29836 14.8606 4.27473C14.8704 4.2511 14.8755 4.22578 14.8755 4.2002C14.8755 4.17462 14.8704 4.14929 14.8606 4.12566C14.8508 4.10203 14.8365 4.08057 14.8184 4.0625L11.5723 0.814453C11.5352 0.777344 11.4863 0.757812 11.4336 0.757812C11.3809 0.757812 11.332 0.777344 11.2949 0.814453L3.01562 9.09375C2.98633 9.12305 2.96875 9.1582 2.96094 9.19727L2.38477 12.4824C2.36577 12.5871 2.37255 12.6947 2.40454 12.7962C2.43654 12.8976 2.49276 12.9897 2.56836 13.0645C2.69727 13.1895 2.85938 13.2578 3.0332 13.2578ZM4.34961 9.85156L11.4336 2.76953L12.8652 4.20117L5.78125 11.2832L4.04492 11.5898L4.34961 9.85156ZM15.1875 14.8984H0.8125C0.466797 14.8984 0.1875 15.1777 0.1875 15.5234V16.2266C0.1875 16.3125 0.257812 16.3828 0.34375 16.3828H15.6562C15.7422 16.3828 15.8125 16.3125 15.8125 16.2266V15.5234C15.8125 15.1777 15.5332 14.8984 15.1875 14.8984Z"
    fill="#3257FB" />
</svg>
