<svg width="51" height="53" viewBox="0 0 51 53" fill="none" xmlns="http://www.w3.org/2000/svg">
<path d="M15.4062 4.77H14.875C15.1672 4.77 15.4062 4.5315 15.4062 4.24V4.77H35.5938V4.24C35.5938 4.5315 35.8328 4.77 36.125 4.77H35.5938V9.54H40.375V4.24C40.375 1.90137 38.4691 0 36.125 0H14.875C12.5309 0 10.625 1.90137 10.625 4.24V9.54H15.4062V4.77ZM48.875 9.54H2.125C0.949609 9.54 0 10.4874 0 11.66V13.78C0 14.0715 0.239062 14.31 0.53125 14.31H4.54219L6.18242 48.9587C6.28867 51.2179 8.16133 53 10.4258 53H40.5742C42.8453 53 44.7113 51.2245 44.8176 48.9587L46.4578 14.31H50.4688C50.7609 14.31 51 14.0715 51 13.78V11.66C51 10.4874 50.0504 9.54 48.875 9.54ZM40.0629 48.23H10.9371L9.33008 14.31H41.6699L40.0629 48.23Z" fill="#3257FB"/>
</svg>
