<svg width="19" height="20" viewBox="0 0 19 20" fill="none" xmlns="http://www.w3.org/2000/svg">
<path d="M18.3704 9.79812C17.672 7.99173 16.4597 6.42955 14.8832 5.30468C13.3066 4.1798 11.4351 3.54153 9.49975 3.46875C7.56443 3.54153 5.69285 4.1798 4.11634 5.30468C2.53982 6.42955 1.32747 7.99173 0.629122 9.79812C0.581959 9.92858 0.581959 10.0714 0.629122 10.2019C1.32747 12.0083 2.53982 13.5704 4.11634 14.6953C5.69285 15.8202 7.56443 16.4585 9.49975 16.5312C11.4351 16.4585 13.3066 15.8202 14.8832 14.6953C16.4597 13.5704 17.672 12.0083 18.3704 10.2019C18.4175 10.0714 18.4175 9.92858 18.3704 9.79812ZM9.49975 15.3438C6.35287 15.3438 3.02787 13.0103 1.82256 10C3.02787 6.98969 6.35287 4.65625 9.49975 4.65625C12.6466 4.65625 15.9716 6.98969 17.1769 10C15.9716 13.0103 12.6466 15.3438 9.49975 15.3438Z" fill="#898796"/>
<path d="M9.5 6.4375C8.79541 6.4375 8.10663 6.64644 7.52078 7.03789C6.93493 7.42934 6.47832 7.98573 6.20868 8.63669C5.93904 9.28765 5.86849 10.004 6.00595 10.695C6.14341 11.3861 6.48271 12.0208 6.98093 12.5191C7.47916 13.0173 8.11393 13.3566 8.80499 13.494C9.49605 13.6315 10.2123 13.561 10.8633 13.2913C11.5143 13.0217 12.0707 12.5651 12.4621 11.9792C12.8536 11.3934 13.0625 10.7046 13.0625 10C13.0625 9.05517 12.6872 8.14903 12.0191 7.48093C11.351 6.81283 10.4448 6.4375 9.5 6.4375ZM9.5 12.375C9.03027 12.375 8.57109 12.2357 8.18052 11.9747C7.78996 11.7138 7.48555 11.3428 7.30579 10.9089C7.12603 10.4749 7.079 9.99736 7.17064 9.53666C7.26228 9.07596 7.48847 8.65277 7.82062 8.32062C8.15277 7.98847 8.57596 7.76227 9.03666 7.67063C9.49737 7.57899 9.9749 7.62603 10.4089 7.80579C10.8428 7.98554 11.2138 8.28995 11.4747 8.68052C11.7357 9.07109 11.875 9.53027 11.875 10C11.875 10.6299 11.6248 11.234 11.1794 11.6794C10.734 12.1248 10.1299 12.375 9.5 12.375Z" fill="#898796"/>
</svg>
