<svg width="16" height="17" viewBox="0 0 16 17" fill="none" xmlns="http://www.w3.org/2000/svg">
  <path
    d="M16 8.57031C16 10.692 15.1571 12.7269 13.6569 14.2272C12.1566 15.7275 10.1217 16.5703 8 16.5703C5.87827 16.5703 3.84344 15.7275 2.34315 14.2272C0.842855 12.7269 0 10.692 0 8.57031C0 6.44858 0.842855 4.41375 2.34315 2.91346C3.84344 1.41317 5.87827 0.570313 8 0.570312C10.1217 0.570313 12.1566 1.41317 13.6569 2.91346C15.1571 4.41375 16 6.44858 16 8.57031ZM8.5 5.07031C8.5 4.9377 8.44732 4.81053 8.35355 4.71676C8.25979 4.62299 8.13261 4.57031 8 4.57031C7.86739 4.57031 7.74021 4.62299 7.64645 4.71676C7.55268 4.81053 7.5 4.9377 7.5 5.07031V8.07031H4.5C4.36739 8.07031 4.24021 8.12299 4.14645 8.21676C4.05268 8.31053 4 8.4377 4 8.57031C4 8.70292 4.05268 8.8301 4.14645 8.92387C4.24021 9.01763 4.36739 9.07031 4.5 9.07031H7.5V12.0703C7.5 12.2029 7.55268 12.3301 7.64645 12.4239C7.74021 12.5176 7.86739 12.5703 8 12.5703C8.13261 12.5703 8.25979 12.5176 8.35355 12.4239C8.44732 12.3301 8.5 12.2029 8.5 12.0703V9.07031H11.5C11.6326 9.07031 11.7598 9.01763 11.8536 8.92387C11.9473 8.8301 12 8.70292 12 8.57031C12 8.4377 11.9473 8.31053 11.8536 8.21676C11.7598 8.12299 11.6326 8.07031 11.5 8.07031H8.5V5.07031Z"
    fill="#3257FB" />
</svg>
