<svg width="40" height="40" viewBox="0 0 40 40" fill="none" xmlns="http://www.w3.org/2000/svg">
<circle cx="20" cy="20" r="20" fill="#4579FF"/>
<path d="M27.669 13.2688C27.5206 13.1195 27.3441 13.0012 27.1496 12.9207C26.9552 12.8403 26.7467 12.7992 26.5362 12.8H20.8002V9.6H19.2002V12.8H12.8002C12.376 12.8004 11.9693 12.9691 11.6693 13.2691C11.3693 13.5691 11.2006 13.9758 11.2002 14.4V19.2C11.2006 19.6242 11.3693 20.0309 11.6693 20.3309C11.9693 20.6309 12.376 20.7996 12.8002 20.8H19.2002V32H20.8002V20.8H26.537C26.7473 20.8007 26.9557 20.7596 27.15 20.6791C27.3443 20.5986 27.5207 20.4804 27.669 20.3312L31.2002 16.8L27.669 13.2688ZM26.5362 19.2H12.8002V14.4H26.5378L28.9378 16.8L26.5362 19.2Z" fill="#E8ECF2"/>
</svg>
