<svg width="30" height="30" viewBox="0 0 30 30" fill="none" xmlns="http://www.w3.org/2000/svg">
<path
  fillRule="evenodd"
  clipRule="evenodd"
  d="M15 30C23.2843 30 30 23.2843 30 15C30 6.71573 23.2843 0 15 0C6.71573 0 0 6.71573 0 15C0 23.2843 6.71573 30 15 30ZM18.9431 9.65251C19.1096 9.54126 19.3054 9.48187 19.5056 9.48187C19.7742 9.48187 20.0317 9.58855 20.2216 9.77843C20.4115 9.96831 20.5181 10.2258 20.5181 10.4944C20.5181 10.6946 20.4587 10.8904 20.3475 11.0569C20.2362 11.2234 20.0781 11.3532 19.8931 11.4298C19.7081 11.5064 19.5045 11.5265 19.3081 11.4874C19.1117 11.4484 18.9313 11.3519 18.7897 11.2103C18.6481 11.0687 18.5516 10.8883 18.5126 10.6919C18.4735 10.4955 18.4936 10.2919 18.5702 10.1069C18.6468 9.9219 18.7766 9.76377 18.9431 9.65251ZM22.9987 9.47344C23.2394 10.1311 23.3705 10.8237 23.3869 11.5238C23.4375 12.4181 23.4375 12.705 23.4375 15C23.4375 16.4129 23.4183 17.0647 23.4036 17.5657C23.3944 17.8785 23.3869 18.1325 23.3869 18.4762C23.3705 19.1763 23.2394 19.8689 22.9987 20.5266C22.7864 21.0904 22.4522 21.6003 22.02 22.02C21.6022 22.4525 21.0915 22.7843 20.5266 22.9903C19.8707 23.2382 19.1773 23.3724 18.4762 23.3869C17.5819 23.4375 17.295 23.4375 15 23.4375C12.705 23.4375 12.4181 23.4375 11.5238 23.3869C10.8227 23.3724 10.1293 23.2382 9.47344 22.9903C8.90954 22.7822 8.39929 22.4507 7.98 22.02C7.54752 21.6022 7.21571 21.0915 7.00969 20.5266C6.76176 19.8707 6.62765 19.1773 6.61312 18.4762C6.5625 17.5819 6.5625 17.295 6.5625 15C6.5625 12.705 6.5625 12.4181 6.61312 11.5238C6.62765 10.8227 6.76176 10.1293 7.00969 9.47344C7.21571 8.9085 7.54752 8.39781 7.98 7.98C8.39929 7.54932 8.90954 7.2178 9.47344 7.00969C10.1293 6.76176 10.8227 6.62765 11.5238 6.61312C12.4181 6.5625 12.705 6.5625 15 6.5625C17.295 6.5625 17.5819 6.5625 18.4762 6.61312C19.1773 6.62765 19.8707 6.76176 20.5266 7.00969C21.0915 7.21571 21.6022 7.54752 22.02 7.98C22.4503 8.40127 22.7842 8.91077 22.9987 9.47344ZM21.5812 19.9444C21.765 19.4412 21.862 18.9106 21.8681 18.375C21.9103 17.5312 21.9188 17.2191 21.9188 15C21.9188 12.7809 21.9103 12.4688 21.8681 11.625C21.8658 11.0781 21.7688 10.5357 21.5812 10.0219C21.441 9.66981 21.2249 9.35293 20.9484 9.09375C20.6719 8.7924 20.3278 8.56105 19.9444 8.41875C19.4412 8.23502 18.9106 8.13802 18.375 8.13188C17.5312 8.08125 17.2191 8.08125 15 8.08125C13.6273 8.08125 12.9843 8.10062 12.4938 8.1154C12.1913 8.12451 11.9468 8.13188 11.625 8.13188C11.0782 8.13616 10.5362 8.23316 10.0219 8.41875C9.6669 8.57324 9.35009 8.80364 9.09375 9.09375C8.80372 9.34827 8.57573 9.66574 8.42719 10.0219C8.23561 10.5348 8.13566 11.0775 8.13188 11.625C8.08125 12.4688 8.08125 12.7809 8.08125 15C8.08125 16.3727 8.10062 17.0157 8.1154 17.5062C8.12451 17.8087 8.13188 18.0532 8.13188 18.375C8.14912 18.9251 8.26338 19.4678 8.46938 19.9781C8.60002 20.3453 8.8137 20.6774 9.09375 20.9484C9.35646 21.2208 9.67238 21.4362 10.0219 21.5812C10.5489 21.7592 11.1026 21.8448 11.6587 21.8344C12.5025 21.885 12.8147 21.885 15.0337 21.885C17.2528 21.885 17.565 21.8766 18.4088 21.8344C18.9443 21.8282 19.475 21.7312 19.9781 21.5475C20.3437 21.4095 20.6748 21.1936 20.9484 20.9147C21.2301 20.6434 21.4465 20.3116 21.5812 19.9444ZM12.5976 11.4051C13.3082 10.9285 14.1443 10.6732 15 10.6716C15.5694 10.6693 16.1337 10.7797 16.6603 10.9963C17.187 11.213 17.6656 11.5316 18.0686 11.9339C18.4717 12.3361 18.7912 12.8141 19.0089 13.3403C19.2265 13.8665 19.338 14.4306 19.3369 15C19.3369 15.8557 19.0832 16.6922 18.608 17.4039C18.1327 18.1155 17.4572 18.6703 16.6668 18.9981C15.8764 19.326 15.0065 19.4122 14.1671 19.2459C13.3277 19.0795 12.5564 18.6681 11.9508 18.0636C11.3451 17.4591 10.9322 16.6887 10.7642 15.8496C10.5962 15.0105 10.6807 14.1405 11.0071 13.3494C11.3334 12.5584 11.8869 11.8818 12.5976 11.4051ZM13.439 17.3362C13.9011 17.6449 14.4443 17.8097 15 17.8097C15.369 17.8097 15.7343 17.737 16.0752 17.5958C16.4161 17.4546 16.7258 17.2477 16.9867 16.9867C17.2477 16.7258 17.4546 16.4161 17.5958 16.0752C17.737 15.7343 17.8097 15.369 17.8097 15C17.8097 14.4443 17.6449 13.9011 17.3362 13.439C17.0274 12.977 16.5886 12.6168 16.0752 12.4042C15.5618 12.1915 14.9969 12.1359 14.4519 12.2443C13.9068 12.3527 13.4062 12.6203 13.0133 13.0133C12.6203 13.4062 12.3527 13.9068 12.2443 14.4519C12.1359 14.9969 12.1915 15.5618 12.4042 16.0752C12.6168 16.5886 12.977 17.0274 13.439 17.3362Z"
  fill="#262424"
/>
</svg>
