<svg width="21" height="17" viewBox="0 0 21 17" fill="none" xmlns="http://www.w3.org/2000/svg">
<path d="M9.1186 1.87304C9.1186 2.63255 9.73431 3.24826 10.4938 3.24826C11.2533 3.24826 11.869 2.63255 11.869 1.87304C11.869 1.11353 11.2533 0.49783 10.4938 0.49783C9.73431 0.49783 9.1186 1.11353 9.1186 1.87304Z" fill="#3257FB"/>
<path d="M13.6662 0.161869C13.6662 0.072471 13.7387 0 13.8281 0H20.8381C20.9275 0 20.9999 0.072471 20.9999 0.161869V3.64838C20.9999 3.73778 20.9275 3.81025 20.8381 3.81025H13.8281C13.7387 3.81025 13.6662 3.73778 13.6662 3.64838V2.517L12.7782 1.94242L13.6662 1.31561V0.161869Z" fill="#3257FB"/>
<path d="M9.1186 14.1751C9.1186 14.9346 9.73431 15.5503 10.4938 15.5503C11.2533 15.5503 11.869 14.9346 11.869 14.1751C11.869 13.4155 11.2533 12.7998 10.4938 12.7998C9.73431 12.7998 9.1186 13.4155 9.1186 14.1751Z" fill="#3257FB"/>
<path d="M13.6662 12.4639C13.6662 12.3745 13.7387 12.302 13.8281 12.302H20.8381C20.9275 12.302 20.9999 12.3745 20.9999 12.4639V15.9504C20.9999 16.0398 20.9275 16.1123 20.8381 16.1123H13.8281C13.7387 16.1123 13.6662 16.0398 13.6662 15.9504V14.819L12.7782 14.2444L13.6662 13.6176V12.4639Z" fill="#3257FB"/>
<path d="M11.8813 8.02405C11.8813 8.78356 11.2656 9.39927 10.5061 9.39927C9.7466 9.39927 9.13089 8.78356 9.13089 8.02405C9.13089 7.26454 9.7466 6.64884 10.5061 6.64884C11.2656 6.64884 11.8813 7.26454 11.8813 8.02405Z" fill="#3257FB"/>
<path d="M7.3337 6.31288C7.3337 6.22348 7.26123 6.15101 7.17183 6.15101H0.161869C0.0724715 6.15101 0 6.22348 0 6.31288V9.79939C0 9.88878 0.0724715 9.96126 0.161869 9.96126H7.17183C7.26123 9.96126 7.3337 9.88878 7.3337 9.79939V8.668L8.22168 8.09343L7.3337 7.46662V6.31288Z" fill="#3257FB"/>
<path d="M10.3656 0.807846H10.6406V14.2146H10.3656V0.807846Z" fill="#3257FB"/>
</svg>
