<svg width="25" height="25" viewBox="0 0 25 25" fill="none" xmlns="http://www.w3.org/2000/svg">
<circle cx="12.5" cy="12.5" r="12.5" fill="#DBD31B"/>
<path d="M8.75 9.875C8.75 9.77554 8.78951 9.68016 8.85984 9.60984C8.93016 9.53951 9.02554 9.5 9.125 9.5H14.375C14.4745 9.5 14.5698 9.53951 14.6402 9.60984C14.7105 9.68016 14.75 9.77554 14.75 9.875C14.75 9.97446 14.7105 10.0698 14.6402 10.1402C14.5698 10.2105 14.4745 10.25 14.375 10.25H9.125C9.02554 10.25 8.93016 10.2105 8.85984 10.1402C8.78951 10.0698 8.75 9.97446 8.75 9.875Z" fill="white"/>
<path d="M12.875 11.75C12.7755 11.75 12.6802 11.7895 12.6098 11.8598C12.5395 11.9302 12.5 12.0255 12.5 12.125C12.5 12.2245 12.5395 12.3198 12.6098 12.3902C12.6802 12.4605 12.7755 12.5 12.875 12.5H14.375C14.4745 12.5 14.5698 12.4605 14.6402 12.3902C14.7105 12.3198 14.75 12.2245 14.75 12.125C14.75 12.0255 14.7105 11.9302 14.6402 11.8598C14.5698 11.7895 14.4745 11.75 14.375 11.75H12.875Z" fill="white"/>
<path d="M12.5 14.375C12.5 14.2755 12.5395 14.1802 12.6098 14.1098C12.6802 14.0395 12.7755 14 12.875 14H14.375C14.4745 14 14.5698 14.0395 14.6402 14.1098C14.7105 14.1802 14.75 14.2755 14.75 14.375C14.75 14.4745 14.7105 14.5698 14.6402 14.6402C14.5698 14.7105 14.4745 14.75 14.375 14.75H12.875C12.7755 14.75 12.6802 14.7105 12.6098 14.6402C12.5395 14.5698 12.5 14.4745 12.5 14.375Z" fill="white"/>
<path d="M9.125 11.75C9.02554 11.75 8.93016 11.7895 8.85984 11.8598C8.78951 11.9302 8.75 12.0255 8.75 12.125V14.375C8.75 14.4745 8.78951 14.5698 8.85984 14.6402C8.93016 14.7105 9.02554 14.75 9.125 14.75H11.375C11.4745 14.75 11.5698 14.7105 11.6402 14.6402C11.7105 14.5698 11.75 14.4745 11.75 14.375V12.125C11.75 12.0255 11.7105 11.9302 11.6402 11.8598C11.5698 11.7895 11.4745 11.75 11.375 11.75H9.125ZM9.5 14V12.5H11V14H9.5Z" fill="white"/>
<path d="M6.5 8.75C6.5 8.35218 6.65804 7.97064 6.93934 7.68934C7.22064 7.40804 7.60218 7.25 8 7.25H15.5C15.8978 7.25 16.2794 7.40804 16.5607 7.68934C16.842 7.97064 17 8.35218 17 8.75V9.5C17.3978 9.5 17.7794 9.65804 18.0607 9.93934C18.342 10.2206 18.5 10.6022 18.5 11V15.125C18.5 15.6223 18.3025 16.0992 17.9508 16.4508C17.5992 16.8025 17.1223 17 16.625 17H8.375C7.87772 17 7.40081 16.8025 7.04917 16.4508C6.69754 16.0992 6.5 15.6223 6.5 15.125V8.75ZM16.25 8.75C16.25 8.55109 16.171 8.36032 16.0303 8.21967C15.8897 8.07902 15.6989 8 15.5 8H8C7.80109 8 7.61032 8.07902 7.46967 8.21967C7.32902 8.36032 7.25 8.55109 7.25 8.75V15.125C7.25 15.4234 7.36853 15.7095 7.5795 15.9205C7.79048 16.1315 8.07663 16.25 8.375 16.25H16.625C16.9234 16.25 17.2095 16.1315 17.4205 15.9205C17.6315 15.7095 17.75 15.4234 17.75 15.125V11C17.75 10.8011 17.671 10.6103 17.5303 10.4697C17.3897 10.329 17.1989 10.25 17 10.25V15.125C17 15.2245 16.9605 15.3198 16.8902 15.3902C16.8198 15.4605 16.7245 15.5 16.625 15.5C16.5255 15.5 16.4302 15.4605 16.3598 15.3902C16.2895 15.3198 16.25 15.2245 16.25 15.125V8.75Z" fill="white"/>
</svg>
