<svg width="25" height="25" viewBox="0 0 25 25" fill="none" xmlns="http://www.w3.org/2000/svg">
<circle cx="12.5" cy="12.5" r="12.5" fill="#4579FF"/>
<g clip-path="url(#clip0_70_2801)">
<path d="M18.5938 8.75V7.8125C18.5935 7.56395 18.4946 7.32565 18.3189 7.1499C18.1431 6.97414 17.9048 6.87528 17.6562 6.875H7.34375C7.0952 6.87528 6.8569 6.97414 6.68115 7.1499C6.50539 7.32565 6.40653 7.56395 6.40625 7.8125V8.75C6.40653 8.99855 6.50539 9.23685 6.68115 9.4126C6.8569 9.58836 7.0952 9.68722 7.34375 9.6875V15.3125H6.875C6.75068 15.3125 6.63145 15.3619 6.54354 15.4498C6.45564 15.5377 6.40625 15.6569 6.40625 15.7812C6.40625 15.9056 6.45564 16.0248 6.54354 16.1127C6.63145 16.2006 6.75068 16.25 6.875 16.25H12.0312V17.2681C11.7185 17.3787 11.4549 17.5963 11.287 17.8824C11.1192 18.1685 11.0579 18.5048 11.114 18.8317C11.1701 19.1587 11.34 19.4553 11.5936 19.6691C11.8472 19.8829 12.1683 20.0002 12.5 20.0002C12.8317 20.0002 13.1528 19.8829 13.4064 19.6691C13.66 19.4553 13.8299 19.1587 13.886 18.8317C13.9421 18.5048 13.8808 18.1685 13.713 17.8824C13.5451 17.5963 13.2815 17.3787 12.9688 17.2681V16.25H18.125C18.2493 16.25 18.3685 16.2006 18.4565 16.1127C18.5444 16.0248 18.5938 15.9056 18.5938 15.7812C18.5938 15.6569 18.5444 15.5377 18.4565 15.4498C18.3685 15.3619 18.2493 15.3125 18.125 15.3125H17.6562V9.6875C17.9048 9.68722 18.1431 9.58836 18.3189 9.4126C18.4946 9.23685 18.5935 8.99855 18.5938 8.75ZM12.5 19.0625C12.4073 19.0625 12.3167 19.035 12.2396 18.9835C12.1625 18.932 12.1024 18.8588 12.0669 18.7731C12.0315 18.6875 12.0222 18.5932 12.0403 18.5023C12.0583 18.4114 12.103 18.3278 12.1685 18.2623C12.2341 18.1967 12.3176 18.1521 12.4086 18.134C12.4995 18.1159 12.5937 18.1252 12.6794 18.1607C12.765 18.1962 12.8382 18.2562 12.8898 18.3333C12.9413 18.4104 12.9688 18.501 12.9688 18.5938C12.9686 18.718 12.9192 18.8372 12.8313 18.925C12.7434 19.0129 12.6243 19.0623 12.5 19.0625ZM7.34375 7.8125H17.6562L17.6568 8.75H7.34375V7.8125ZM16.7188 15.3125H8.28125V9.6875H16.7188V15.3125Z" fill="white"/>
</g>
<defs>
<clipPath id="clip0_70_2801">
<rect width="15" height="15" fill="white" transform="translate(5 5)"/>
</clipPath>
</defs>
</svg>
