<svg width="25" height="26" viewBox="0 0 25 26" fill="none" xmlns="http://www.w3.org/2000/svg">
<path d="M7.96875 13.3125V11.5C7.96875 11.2596 8.06423 11.0291 8.23418 10.8592C8.40414 10.6892 8.63465 10.5938 8.875 10.5938C9.11535 10.5938 9.34586 10.6892 9.51582 10.8592C9.68577 11.0291 9.78125 11.2596 9.78125 11.5V13.3125C9.78125 13.5529 9.68577 13.7834 9.51582 13.9533C9.34586 14.1233 9.11535 14.2188 8.875 14.2188C8.63465 14.2188 8.40414 14.1233 8.23418 13.9533C8.06423 13.7834 7.96875 13.5529 7.96875 13.3125ZM12.5 14.2188C12.7404 14.2188 12.9709 14.1233 13.1408 13.9533C13.3108 13.7834 13.4062 13.5529 13.4062 13.3125V10.5938C13.4062 10.3534 13.3108 10.1229 13.1408 9.95293C12.9709 9.78298 12.7404 9.6875 12.5 9.6875C12.2596 9.6875 12.0291 9.78298 11.8592 9.95293C11.6892 10.1229 11.5938 10.3534 11.5938 10.5938V13.3125C11.5938 13.5529 11.6892 13.7834 11.8592 13.9533C12.0291 14.1233 12.2596 14.2188 12.5 14.2188ZM16.125 14.2188C16.3654 14.2188 16.5959 14.1233 16.7658 13.9533C16.9358 13.7834 17.0312 13.5529 17.0312 13.3125V9.6875C17.0312 9.44715 16.9358 9.21664 16.7658 9.04668C16.5959 8.87673 16.3654 8.78125 16.125 8.78125C15.8846 8.78125 15.6541 8.87673 15.4842 9.04668C15.3142 9.21664 15.2188 9.44715 15.2188 9.6875V13.3125C15.2188 13.5529 15.3142 13.7834 15.4842 13.9533C15.6541 14.1233 15.8846 14.2188 16.125 14.2188ZM22.4688 6.0625V16.9375H23.375C23.6154 16.9375 23.8459 17.033 24.0158 17.2029C24.1858 17.3729 24.2812 17.6034 24.2812 17.8438C24.2812 18.0841 24.1858 18.3146 24.0158 18.4846C23.8459 18.6545 23.6154 18.75 23.375 18.75H13.4062V20.7184C14.0109 20.9322 14.5205 21.3528 14.845 21.906C15.1695 22.4592 15.288 23.1093 15.1796 23.7414C15.0711 24.3735 14.7427 24.9469 14.2524 25.3603C13.762 25.7737 13.1413 26.0004 12.5 26.0004C11.8587 26.0004 11.238 25.7737 10.7476 25.3603C10.2573 24.9469 9.92886 24.3735 9.8204 23.7414C9.71195 23.1093 9.83045 22.4592 10.155 21.906C10.4795 21.3528 10.9891 20.9322 11.5938 20.7184V18.75H1.625C1.38465 18.75 1.15414 18.6545 0.984184 18.4846C0.81423 18.3146 0.71875 18.0841 0.71875 17.8438C0.71875 17.6034 0.81423 17.3729 0.984184 17.2029C1.15414 17.033 1.38465 16.9375 1.625 16.9375H2.53125V6.0625C2.05071 6.06196 1.59001 5.87083 1.25021 5.53104C0.910422 5.19124 0.71929 4.73054 0.71875 4.25V2.4375C0.71929 1.95696 0.910422 1.49626 1.25021 1.15647C1.59001 0.816672 2.05071 0.62554 2.53125 0.625H22.4688C22.9493 0.62554 23.41 0.816672 23.7498 1.15647C24.0896 1.49626 24.2807 1.95696 24.2812 2.4375V4.25C24.2807 4.73054 24.0896 5.19124 23.7498 5.53104C23.41 5.87083 22.9493 6.06196 22.4688 6.0625ZM13.4062 23.2812C13.4062 23.102 13.3531 22.9268 13.2535 22.7778C13.1539 22.6287 13.0124 22.5126 12.8468 22.444C12.6812 22.3754 12.499 22.3574 12.3232 22.3924C12.1474 22.4274 11.9859 22.5137 11.8592 22.6404C11.7324 22.7672 11.6461 22.9287 11.6112 23.1044C11.5762 23.2802 11.5941 23.4625 11.6627 23.6281C11.7313 23.7937 11.8475 23.9352 11.9965 24.0348C12.1455 24.1344 12.3208 24.1875 12.5 24.1875C12.7403 24.1872 12.9706 24.0916 13.1405 23.9217C13.3104 23.7518 13.406 23.5215 13.4062 23.2812ZM2.53125 4.25H22.4699L22.4688 2.4375H2.53125V4.25ZM20.6562 6.0625H4.34375V16.9375H20.6562V6.0625Z" fill="#3257FB" fill-opacity="0.51"/>
</svg>
