<svg width="33" height="32" viewBox="0 0 33 32" fill="none" xmlns="http://www.w3.org/2000/svg">
<path d="M10.5 16C10.5 14.8954 9.60457 14 8.5 14C7.39543 14 6.5 14.8954 6.5 16C6.5 17.1046 7.39543 18 8.5 18C9.60457 18 10.5 17.1046 10.5 16Z" fill="#898796"/>
<path d="M18.5 16C18.5 14.8954 17.6046 14 16.5 14C15.3954 14 14.5 14.8954 14.5 16C14.5 17.1046 15.3954 18 16.5 18C17.6046 18 18.5 17.1046 18.5 16Z" fill="#898796"/>
<path d="M26.5 16C26.5 14.8954 25.6046 14 24.5 14C23.3954 14 22.5 14.8954 22.5 16C22.5 17.1046 23.3954 18 24.5 18C25.6046 18 26.5 17.1046 26.5 16Z" fill="#898796"/>
</svg>
