<svg width="25" height="25" viewBox="0 0 25 25" fill="none" xmlns="http://www.w3.org/2000/svg">
<circle cx="12.5" cy="12.5" r="12.5" fill="#18BD3D"/>
<path d="M17.0469 9.35938L13.7656 6.07812C13.6719 5.98437 13.5781 5.9375 13.4375 5.9375H8.75C8.23438 5.9375 7.8125 6.35938 7.8125 6.875V18.125C7.8125 18.6406 8.23438 19.0625 8.75 19.0625H16.25C16.7656 19.0625 17.1875 18.6406 17.1875 18.125V9.6875C17.1875 9.54688 17.1406 9.45312 17.0469 9.35938ZM13.4375 7.0625L16.0625 9.6875H13.4375V7.0625ZM16.25 18.125H8.75V6.875H12.5V9.6875C12.5 10.2031 12.9219 10.625 13.4375 10.625H16.25V18.125Z" fill="white"/>
<path d="M9.6875 15.3125H15.3125V16.25H9.6875V15.3125Z" fill="white"/>
<path d="M9.6875 12.5H15.3125V13.4375H9.6875V12.5Z" fill="white"/>
</svg>
