<svg
            width="30"
            height="31"
            viewBox="0 0 30 31"
            fill="none"
            xmlns="http://www.w3.org/2000/svg"
          >
            <path
              fillRule="evenodd"
              clipRule="evenodd"
              d="M8.81591 0.369922C10.4155 0.296174 10.9255 0.279785 15 0.279785C19.0745 0.279785 19.5845 0.297539 21.1827 0.369922C22.7809 0.442304 23.8718 0.697692 24.8264 1.0678C25.8259 1.4461 26.7327 2.03745 27.4827 2.80225C28.2464 3.55202 28.8355 4.45885 29.2118 5.46128C29.5827 6.41728 29.8364 7.50984 29.91 9.10772C29.9836 10.7124 30 11.2232 30 15.3026C30 19.3833 29.9823 19.8941 29.91 21.4961C29.8377 23.0939 29.5827 24.1865 29.2118 25.1425C28.8354 26.1451 28.2454 27.0534 27.4827 27.8043C26.7327 28.5691 25.8259 29.159 24.8264 29.536C23.8718 29.9075 22.7809 30.1615 21.1855 30.2352C19.5845 30.309 19.0745 30.3254 15 30.3254C10.9255 30.3254 10.4155 30.3076 8.81591 30.2352C7.22045 30.1628 6.12955 29.9075 5.175 29.536C4.17398 29.159 3.26703 28.568 2.51727 27.8043C1.75415 27.054 1.16361 26.1461 0.786818 25.1439C0.417273 24.1879 0.163636 23.0953 0.09 21.4974C0.0163636 19.8927 0 19.3819 0 15.3026C0 11.2218 0.0177273 10.7111 0.09 9.11045C0.162273 7.50984 0.417273 6.41728 0.786818 5.46128C1.16417 4.45896 1.75516 3.55108 2.51864 2.80088C3.26733 2.03677 4.17337 1.44534 5.17364 1.0678C6.12818 0.697692 7.21909 0.44367 8.81455 0.369922H8.81591ZM21.0614 3.07402C19.4795 3.00164 19.005 2.98662 15 2.98662C10.995 2.98662 10.5205 3.00164 8.93864 3.07402C7.47545 3.14094 6.68182 3.3854 6.15273 3.59163C5.45318 3.86477 4.95273 4.18844 4.42773 4.71424C3.93006 5.19914 3.54706 5.78944 3.30682 6.44186C3.10091 6.97175 2.85682 7.7666 2.79 9.232C2.71773 10.8162 2.70273 11.2915 2.70273 15.3026C2.70273 19.3137 2.71773 19.7889 2.79 21.3731C2.85682 22.8385 3.10091 23.6334 3.30682 24.1633C3.54682 24.8147 3.93 25.4061 4.42773 25.8909C4.91182 26.3894 5.50227 26.7732 6.15273 27.0135C6.68182 27.2197 7.47545 27.4642 8.93864 27.5311C10.5205 27.6035 10.9936 27.6185 15 27.6185C19.0064 27.6185 19.4795 27.6035 21.0614 27.5311C22.5245 27.4642 23.3182 27.2197 23.8473 27.0135C24.5468 26.7404 25.0473 26.4167 25.5723 25.8909C26.07 25.4061 26.4532 24.8147 26.6932 24.1633C26.8991 23.6334 27.1432 22.8385 27.21 21.3731C27.2823 19.7889 27.2973 19.3137 27.2973 15.3026C27.2973 11.2915 27.2823 10.8162 27.21 9.232C27.1432 7.7666 26.8991 6.97175 26.6932 6.44186C26.4205 5.74125 26.0973 5.24004 25.5723 4.71424C25.0881 4.21585 24.4987 3.83228 23.8473 3.59163C23.3182 3.3854 22.5245 3.14094 21.0614 3.07402ZM13.0841 19.9337C14.1541 20.3798 15.3455 20.44 16.4549 20.104C17.5643 19.7681 18.5228 19.0568 19.1667 18.0917C19.8107 17.1266 20.1001 15.9675 19.9855 14.8124C19.871 13.6574 19.3596 12.5779 18.5386 11.7586C18.0153 11.2348 17.3826 10.8337 16.6859 10.5843C15.9893 10.3348 15.246 10.2431 14.5098 10.3158C13.7735 10.3886 13.0625 10.6239 12.4279 11.0049C11.7933 11.3858 11.251 11.903 10.84 12.5191C10.4289 13.1351 10.1593 13.8348 10.0507 14.5678C9.94206 15.3007 9.99702 16.0486 10.2116 16.7578C10.4263 17.4669 10.7952 18.1195 11.2919 18.6687C11.7886 19.2178 12.4007 19.6499 13.0841 19.9337ZM9.54818 9.84247C10.2641 9.12544 11.1141 8.55666 12.0495 8.16861C12.9849 7.78055 13.9875 7.58082 15 7.58082C16.0125 7.58082 17.0151 7.78055 17.9505 8.16861C18.8859 8.55666 19.7359 9.12544 20.4518 9.84247C21.1678 10.5595 21.7357 11.4107 22.1231 12.3476C22.5106 13.2844 22.71 14.2885 22.71 15.3026C22.71 16.3166 22.5106 17.3207 22.1231 18.2576C21.7357 19.1944 21.1678 20.0456 20.4518 20.7627C19.0059 22.2108 17.0448 23.0243 15 23.0243C12.9552 23.0243 10.9941 22.2108 9.54818 20.7627C8.10227 19.3146 7.28997 17.3505 7.28997 15.3026C7.28997 13.2546 8.10227 11.2906 9.54818 9.84247ZM24.42 8.73079C24.5974 8.56317 24.7394 8.36161 24.8377 8.13803C24.9359 7.91446 24.9884 7.67341 24.9919 7.42917C24.9955 7.18493 24.9501 6.94246 24.8584 6.71611C24.7667 6.48976 24.6306 6.28413 24.4581 6.11141C24.2857 5.93869 24.0804 5.80238 23.8544 5.71055C23.6283 5.61872 23.3862 5.57324 23.1424 5.5768C22.8985 5.58036 22.6578 5.63289 22.4346 5.73128C22.2113 5.82967 22.0101 5.97191 21.8427 6.1496C21.5172 6.49516 21.339 6.95417 21.346 7.42917C21.3529 7.90418 21.5444 8.35778 21.8798 8.6937C22.2152 9.02961 22.6681 9.22139 23.1424 9.22831C23.6167 9.23524 24.075 9.05677 24.42 8.73079Z"
              fill="white"
            />
          </svg>