<svg width="25" height="26" viewBox="0 0 25 26" fill="none" xmlns="http://www.w3.org/2000/svg">
<path fill-rule="evenodd" clip-rule="evenodd" d="M7.34659 0.0751139C8.67955 0.0136571 9.10455 0 12.5 0C15.8955 0 16.3205 0.0147952 17.6523 0.0751139C18.9841 0.135433 19.8932 0.348256 20.6886 0.656678C21.5216 0.971929 22.2773 1.46472 22.9023 2.10205C23.5386 2.72686 24.0295 3.48256 24.3432 4.31791C24.6523 5.11458 24.8636 6.02505 24.925 7.35661C24.9864 8.69387 25 9.11951 25 12.519C25 15.9196 24.9852 16.3452 24.925 17.6802C24.8648 19.0118 24.6523 19.9223 24.3432 20.7189C24.0295 21.5544 23.5378 22.3113 22.9023 22.9371C22.2773 23.5744 21.5216 24.066 20.6886 24.3802C19.8932 24.6897 18.9841 24.9014 17.6545 24.9629C16.3205 25.0243 15.8955 25.038 12.5 25.038C9.10455 25.038 8.67955 25.0232 7.34659 24.9629C6.01705 24.9025 5.10795 24.6897 4.3125 24.3802C3.47832 24.066 2.72252 23.5735 2.09773 22.9371C1.4618 22.3119 0.969676 21.5553 0.655682 20.7201C0.347727 19.9234 0.136364 19.0129 0.075 17.6814C0.0136363 16.3441 0 15.9185 0 12.519C0 9.11838 0.0147727 8.69273 0.075 7.35889C0.135227 6.02505 0.347727 5.11458 0.655682 4.31791C0.97014 3.48265 1.46263 2.72608 2.09886 2.10091C2.72277 1.46415 3.47781 0.971295 4.31136 0.656678C5.10682 0.348256 6.01591 0.136571 7.34545 0.0751139H7.34659ZM17.5511 2.32853C16.233 2.26821 15.8375 2.25569 12.5 2.25569C9.1625 2.25569 8.76705 2.26821 7.44886 2.32853C6.22955 2.3843 5.56818 2.58802 5.12727 2.75987C4.54432 2.98749 4.12727 3.25721 3.68977 3.69538C3.27505 4.09946 2.95589 4.59138 2.75568 5.13506C2.58409 5.57664 2.38068 6.23901 2.325 7.46018C2.26477 8.78036 2.25227 9.17642 2.25227 12.519C2.25227 15.8616 2.26477 16.2576 2.325 17.5778C2.38068 18.799 2.58409 19.4613 2.75568 19.9029C2.95568 20.4458 3.275 20.9386 3.68977 21.3426C4.09318 21.758 4.58523 22.0778 5.12727 22.2781C5.56818 22.45 6.22955 22.6537 7.44886 22.7094C8.76705 22.7698 9.16136 22.7823 12.5 22.7823C15.8386 22.7823 16.233 22.7698 17.5511 22.7094C18.7705 22.6537 19.4318 22.45 19.8727 22.2781C20.4557 22.0505 20.8727 21.7808 21.3102 21.3426C21.725 20.9386 22.0443 20.4458 22.2443 19.9029C22.4159 19.4613 22.6193 18.799 22.675 17.5778C22.7352 16.2576 22.7477 15.8616 22.7477 12.519C22.7477 9.17642 22.7352 8.78036 22.675 7.46018C22.6193 6.23901 22.4159 5.57664 22.2443 5.13506C22.017 4.55122 21.7477 4.13354 21.3102 3.69538C20.9067 3.28006 20.4156 2.96041 19.8727 2.75987C19.4318 2.58802 18.7705 2.3843 17.5511 2.32853V2.32853ZM10.9034 16.3783C11.7951 16.75 12.7879 16.8002 13.7124 16.5202C14.6369 16.2402 15.4357 15.6475 15.9723 14.8432C16.5089 14.039 16.7501 13.0731 16.6546 12.1105C16.5591 11.148 16.133 10.2485 15.4489 9.56565C15.0128 9.12916 14.4855 8.79494 13.9049 8.58706C13.3244 8.37917 12.705 8.30278 12.0915 8.36339C11.4779 8.42399 10.8854 8.62009 10.3566 8.93757C9.82779 9.25504 9.37585 9.68599 9.0333 10.1994C8.69075 10.7128 8.46612 11.2959 8.37559 11.9067C8.28505 12.5174 8.33085 13.1407 8.5097 13.7316C8.68855 14.3226 8.996 14.8664 9.40991 15.3241C9.82382 15.7817 10.3339 16.1417 10.9034 16.3783ZM7.95682 7.96891C8.55344 7.37138 9.26173 6.8974 10.0412 6.57402C10.8208 6.25064 11.6563 6.0842 12.5 6.0842C13.3437 6.0842 14.1792 6.25064 14.9588 6.57402C15.7383 6.8974 16.4466 7.37138 17.0432 7.96891C17.6398 8.56643 18.1131 9.2758 18.436 10.0565C18.7588 10.8372 18.925 11.674 18.925 12.519C18.925 13.364 18.7588 14.2008 18.436 14.9815C18.1131 15.7622 17.6398 16.4715 17.0432 17.0691C15.8383 18.2758 14.204 18.9538 12.5 18.9538C10.796 18.9538 9.16174 18.2758 7.95682 17.0691C6.75189 15.8623 6.07497 14.2256 6.07497 12.519C6.07497 10.8124 6.75189 9.17566 7.95682 7.96891V7.96891ZM20.35 7.0425C20.4978 6.90282 20.6162 6.73485 20.6981 6.54854C20.7799 6.36223 20.8236 6.16136 20.8266 5.95782C20.8296 5.75429 20.7917 5.55223 20.7153 5.3636C20.6389 5.17498 20.5255 5.00362 20.3818 4.85969C20.2381 4.71575 20.067 4.60216 19.8786 4.52563C19.6903 4.44911 19.4885 4.41121 19.2853 4.41418C19.0821 4.41714 18.8815 4.46092 18.6955 4.54291C18.5095 4.6249 18.3417 4.74344 18.2023 4.89151C17.931 5.17948 17.7825 5.56198 17.7883 5.95782C17.7941 6.35366 17.9536 6.73166 18.2331 7.01159C18.5126 7.29152 18.8901 7.45133 19.2853 7.45711C19.6805 7.46288 20.0625 7.31415 20.35 7.0425V7.0425Z" fill="#2A2A2A"/>
</svg>
