<svg width="245" height="60" viewBox="0 0 245 60" fill="none" xmlns="http://www.w3.org/2000/svg">
<path d="M80.8487 17.451H85.9687L89.2087 26.851L92.4887 17.451H97.5687L92.6887 30.371L96.2887 39.411L104.329 17.371H110.329L98.9687 45.771H94.2087L89.2087 33.851L84.2487 45.771H79.4887L68.1687 17.371H74.0887L82.1687 39.411L85.6887 30.371L80.8487 17.451ZM132.198 45.771H126.838V34.011C126.838 32.3843 126.518 31.171 125.878 30.371C125.265 29.571 124.411 29.171 123.318 29.171C122.651 29.171 121.958 29.3577 121.238 29.731C120.545 30.1043 119.905 30.6243 119.318 31.291C118.758 31.931 118.345 32.6777 118.078 33.531V45.771H112.718V16.571H118.078V28.691C118.851 27.3577 119.905 26.3177 121.238 25.571C122.571 24.8243 124.025 24.451 125.598 24.451C127.385 24.451 128.758 24.851 129.718 25.651C130.678 26.451 131.331 27.4777 131.678 28.731C132.025 29.9843 132.198 31.3043 132.198 32.691V45.771ZM136.908 49.851C137.895 50.1177 138.695 50.251 139.308 50.251C140.028 50.251 140.601 49.9443 141.028 49.331C141.481 48.7443 141.988 47.5577 142.548 45.771L134.268 24.811H139.828L145.468 40.291L150.428 24.811H155.548L146.748 49.931C146.268 51.371 145.401 52.5577 144.148 53.491C142.921 54.451 141.401 54.931 139.588 54.931C138.708 54.931 137.815 54.7843 136.908 54.491V49.851Z" fill="white"/>
<path d="M163.94 17.371L169.5 36.771L174.98 17.371H183.18L173.38 45.771H165.62L155.7 17.371H163.94ZM192.402 46.171C189.895 46.171 187.788 45.6643 186.082 44.651C184.375 43.611 183.082 42.2643 182.202 40.611C181.322 38.9577 180.882 37.171 180.882 35.251C180.882 33.3043 181.322 31.5043 182.202 29.851C183.082 28.1977 184.375 26.8643 186.082 25.851C187.788 24.8377 189.895 24.331 192.402 24.331C194.908 24.331 197.015 24.8377 198.722 25.851C200.428 26.8643 201.722 28.1977 202.602 29.851C203.482 31.5043 203.922 33.3043 203.922 35.251C203.922 37.171 203.482 38.9577 202.602 40.611C201.722 42.2643 200.428 43.611 198.722 44.651C197.015 45.6643 194.908 46.171 192.402 46.171ZM188.682 35.251C188.682 36.6377 189.028 37.7443 189.722 38.571C190.442 39.371 191.335 39.771 192.402 39.771C193.495 39.771 194.388 39.371 195.082 38.571C195.775 37.7443 196.122 36.6377 196.122 35.251C196.122 33.8377 195.775 32.731 195.082 31.931C194.388 31.131 193.495 30.731 192.402 30.731C191.335 30.731 190.442 31.131 189.722 31.931C189.028 32.731 188.682 33.8377 188.682 35.251ZM221.06 44.611C219.993 45.0643 218.846 45.451 217.62 45.771C216.42 46.0643 215.233 46.211 214.06 46.211C212.913 46.211 211.86 46.0243 210.9 45.651C209.94 45.251 209.166 44.611 208.58 43.731C208.02 42.8243 207.74 41.611 207.74 40.091V30.451H205.14V24.731H207.74V18.131H215.34V24.731H219.46V30.451H215.34V37.411C215.34 38.1043 215.486 38.5977 215.78 38.891C216.073 39.1577 216.473 39.291 216.98 39.291C217.353 39.291 217.78 39.2243 218.26 39.091C218.74 38.9577 219.22 38.7977 219.7 38.611L221.06 44.611ZM233.339 46.171C230.886 46.171 228.793 45.6777 227.059 44.691C225.353 43.7043 224.046 42.3977 223.139 40.771C222.259 39.1443 221.819 37.3977 221.819 35.531C221.819 33.5043 222.259 31.651 223.139 29.971C224.019 28.2643 225.313 26.9043 227.019 25.891C228.726 24.851 230.833 24.331 233.339 24.331C235.846 24.331 237.953 24.8377 239.659 25.851C241.366 26.8643 242.659 28.1977 243.539 29.851C244.419 31.5043 244.859 33.3043 244.859 35.251C244.859 36.0777 244.793 36.851 244.659 37.571H229.899C229.979 38.691 230.393 39.5043 231.139 40.011C231.886 40.491 232.699 40.731 233.579 40.731C234.406 40.731 235.179 40.5443 235.899 40.171C236.646 39.7977 237.139 39.2777 237.379 38.611L243.819 40.451C242.966 42.131 241.646 43.5043 239.859 44.571C238.073 45.6377 235.899 46.171 233.339 46.171ZM229.739 33.011H236.699C236.593 31.9977 236.219 31.1977 235.579 30.611C234.966 30.0243 234.179 29.731 233.219 29.731C232.259 29.731 231.473 30.0243 230.859 30.611C230.246 31.1977 229.873 31.9977 229.739 33.011Z" fill="#1BBD90"/>
<rect y="0.361328" width="59.2771" height="59.2771" fill="#1BBD90"/>
<rect x="20.7651" y="45.542" width="30.3434" height="17.747" transform="rotate(-90 20.7651 45.542)" stroke="white" stroke-width="3"/>
</svg>
