<svg width="630" height="550" viewBox="0 0 630 550" fill="none" xmlns="http://www.w3.org/2000/svg">
<path d="M512.761 488.411H297.746C297.538 488.411 297.337 488.328 297.19 488.181C297.042 488.034 296.959 487.834 296.959 487.626C296.959 487.417 297.042 487.217 297.19 487.07C297.337 486.923 297.538 486.84 297.746 486.84H512.758C512.966 486.839 513.167 486.922 513.315 487.069C513.463 487.216 513.546 487.415 513.547 487.624C513.548 487.832 513.465 488.032 513.318 488.18C513.17 488.327 512.97 488.411 512.761 488.411Z" fill="#262424"/>
<path d="M283.277 488.411H250.426C250.217 488.411 250.017 488.328 249.869 488.181C249.722 488.034 249.639 487.834 249.639 487.626C249.639 487.417 249.722 487.217 249.869 487.07C250.017 486.923 250.217 486.84 250.426 486.84H283.285C283.494 486.841 283.693 486.925 283.84 487.073C283.987 487.221 284.069 487.421 284.068 487.629C284.067 487.838 283.983 488.037 283.835 488.184C283.686 488.331 283.486 488.412 283.277 488.411Z" fill="#262424"/>
<path d="M186.097 402.97C154.416 402.97 128.641 377.253 128.641 345.644C128.641 314.035 154.416 288.318 186.097 288.318C217.778 288.318 243.553 314.035 243.553 345.644C243.553 377.253 217.774 402.97 186.097 402.97ZM186.097 289.894C155.286 289.894 130.216 314.903 130.216 345.648C130.216 376.393 155.282 401.402 186.097 401.402C216.912 401.402 241.978 376.393 241.978 345.648C241.978 314.903 216.908 289.894 186.097 289.894Z" fill="#262424"/>
<path d="M305.612 452.54C300.282 452.54 295.071 450.963 290.639 448.008C286.206 445.053 282.752 440.853 280.712 435.94C278.672 431.026 278.138 425.619 279.178 420.403C280.218 415.186 282.785 410.395 286.554 406.634C290.324 402.873 295.126 400.312 300.354 399.275C305.582 398.237 311.002 398.769 315.926 400.805C320.851 402.84 325.061 406.287 328.022 410.709C330.984 415.131 332.565 420.33 332.565 425.649C332.556 432.778 329.714 439.613 324.661 444.655C319.608 449.696 312.758 452.532 305.612 452.54ZM305.612 400.329C300.593 400.329 295.687 401.814 291.514 404.596C287.34 407.379 284.088 411.333 282.167 415.959C280.246 420.586 279.744 425.677 280.723 430.588C281.702 435.5 284.119 440.012 287.668 443.553C291.217 447.094 295.739 449.505 300.661 450.482C305.584 451.459 310.687 450.958 315.324 449.041C319.961 447.125 323.924 443.879 326.713 439.716C329.501 435.552 330.99 430.657 330.99 425.649C330.984 418.935 328.309 412.497 323.551 407.748C318.794 403 312.342 400.329 305.612 400.321V400.329Z" fill="#262424"/>
<path d="M171.875 351.992V417.155L240.006 458.739V393.576L171.875 351.992Z" fill="black"/>
<path d="M308.138 351.992V417.155L240.008 458.739V393.576L308.138 351.992Z" fill="#3257FB"/>
<path d="M308.136 351.992L283.275 367.168L264.863 378.404L240.006 393.576L171.875 351.992L196.736 336.82L215.144 325.58L240.006 310.408L308.136 351.992Z" fill="white"/>
<path d="M240.006 394.36C239.867 394.358 239.731 394.318 239.612 394.246L171.493 352.662C171.378 352.592 171.283 352.494 171.218 352.376C171.152 352.259 171.117 352.127 171.117 351.993C171.117 351.858 171.152 351.726 171.218 351.609C171.283 351.491 171.378 351.393 171.493 351.323L239.612 309.743C239.736 309.667 239.878 309.627 240.023 309.627C240.169 309.627 240.311 309.667 240.435 309.743L308.553 351.323C308.668 351.393 308.763 351.491 308.829 351.609C308.895 351.726 308.929 351.858 308.929 351.993C308.929 352.127 308.895 352.259 308.829 352.376C308.763 352.494 308.668 352.592 308.553 352.662L240.435 394.246C240.306 394.325 240.157 394.364 240.006 394.36ZM173.383 351.998L240.006 392.659L306.628 351.998L240.006 311.338L173.383 351.998Z" fill="#262424"/>
<path d="M283.277 367.168L264.865 378.404L196.738 336.82L215.146 325.58L283.277 367.168Z" fill="black"/>
<path d="M264.863 379.19C264.724 379.187 264.588 379.148 264.469 379.076L196.35 337.492C196.236 337.422 196.141 337.323 196.075 337.206C196.009 337.089 195.975 336.957 195.975 336.822C195.975 336.688 196.009 336.556 196.075 336.438C196.141 336.321 196.236 336.223 196.35 336.152L214.735 324.893C214.858 324.817 215.001 324.777 215.146 324.777C215.291 324.777 215.434 324.817 215.558 324.893L283.676 366.477C283.791 366.547 283.886 366.646 283.952 366.763C284.018 366.88 284.052 367.013 284.052 367.147C284.052 367.281 284.018 367.413 283.952 367.531C283.886 367.648 283.791 367.746 283.676 367.817L265.265 379.052C265.146 379.134 265.007 379.182 264.863 379.19ZM198.244 336.82L264.863 377.481L281.767 367.169L215.144 326.504L198.244 336.82Z" fill="black"/>
<path d="M264.863 378.404L283.275 367.168V385.483L264.863 396.719V378.404Z" fill="black"/>
<path d="M264.862 397.504C264.653 397.504 264.453 397.421 264.305 397.274C264.157 397.127 264.074 396.927 264.074 396.718V378.403C264.076 378.267 264.113 378.133 264.182 378.015C264.251 377.898 264.35 377.8 264.468 377.732L282.88 366.496C282.999 366.427 283.134 366.391 283.271 366.391C283.409 366.39 283.544 366.426 283.663 366.494C283.783 366.562 283.883 366.66 283.952 366.778C284.022 366.896 284.059 367.031 284.061 367.168V385.483C284.059 385.619 284.022 385.753 283.953 385.871C283.884 385.988 283.786 386.086 283.667 386.154L265.255 397.39C265.137 397.462 265.001 397.501 264.862 397.504ZM265.649 378.843V395.316L282.486 385.043V368.566L265.649 378.843Z" fill="black"/>
<path d="M340.935 291.096H301.563C298.917 291.096 296.771 293.235 296.771 295.875C296.771 298.514 298.917 300.654 301.563 300.654H340.935C343.581 300.654 345.726 298.514 345.726 295.875C345.726 293.235 343.581 291.096 340.935 291.096Z" fill="#3257FB"/>
<path d="M315.672 310.346H301.563C298.917 310.346 296.771 312.485 296.771 315.125C296.771 317.764 298.917 319.904 301.563 319.904H315.672C318.318 319.904 320.463 317.764 320.463 315.125C320.463 312.485 318.318 310.346 315.672 310.346Z" fill="#3257FB"/>
<path d="M275.871 326.516C275.7 326.513 275.535 326.454 275.401 326.349C275.266 326.245 275.169 326.099 275.125 325.935C275.08 325.77 275.091 325.596 275.154 325.438C275.218 325.28 275.331 325.147 275.477 325.058L290.282 316.023C290.37 315.967 290.469 315.929 290.572 315.912C290.674 315.894 290.78 315.897 290.882 315.921C290.983 315.944 291.079 315.988 291.164 316.049C291.249 316.11 291.321 316.187 291.375 316.276C291.43 316.364 291.466 316.463 291.482 316.566C291.498 316.669 291.493 316.774 291.468 316.875C291.443 316.976 291.398 317.072 291.336 317.155C291.273 317.239 291.195 317.309 291.105 317.362L276.3 326.398C276.171 326.478 276.022 326.518 275.871 326.516Z" fill="#262424"/>
<path d="M139.859 450.688H158.755C161.401 450.688 163.547 448.548 163.547 445.908C163.547 443.269 161.401 441.129 158.755 441.129H139.859C137.212 441.129 135.067 443.269 135.067 445.908C135.067 448.548 137.212 450.688 139.859 450.688Z" fill="#3257FB"/>
<path d="M169.644 445.108C169.473 445.105 169.308 445.046 169.174 444.941C169.039 444.837 168.943 444.691 168.898 444.527C168.854 444.362 168.864 444.188 168.928 444.03C168.991 443.872 169.104 443.738 169.25 443.65L184.055 434.614C184.144 434.559 184.242 434.521 184.345 434.503C184.448 434.486 184.553 434.489 184.655 434.512C184.757 434.536 184.853 434.579 184.938 434.64C185.022 434.701 185.094 434.778 185.149 434.867C185.203 434.956 185.24 435.055 185.256 435.158C185.271 435.261 185.267 435.366 185.242 435.467C185.216 435.568 185.171 435.663 185.109 435.747C185.047 435.831 184.968 435.901 184.878 435.954L170.073 444.99C169.945 445.069 169.796 445.11 169.644 445.108Z" fill="#262424"/>
<path d="M357.924 116.74H237.582V170.192H357.924V116.74Z" fill="white"/>
<path d="M357.92 170.979H237.582C237.374 170.979 237.173 170.896 237.026 170.749C236.878 170.601 236.795 170.401 236.795 170.193V116.741C236.795 116.532 236.878 116.333 237.026 116.185C237.173 116.038 237.374 115.955 237.582 115.955H357.92C358.129 115.955 358.329 116.038 358.477 116.185C358.625 116.333 358.708 116.532 358.708 116.741V170.193C358.708 170.401 358.625 170.601 358.477 170.749C358.329 170.896 358.129 170.979 357.92 170.979ZM238.366 169.407H357.133V117.527H238.37V169.407H238.366Z" fill="#262424"/>
<path d="M237.582 62.375H134.298C129.773 62.375 125.433 64.1684 122.233 67.3608C119.034 70.5531 117.236 74.8829 117.236 79.3975V116.743H237.582V62.375Z" fill="white"/>
<path d="M237.582 117.527H117.237C117.028 117.527 116.828 117.444 116.68 117.297C116.532 117.149 116.449 116.95 116.449 116.741V79.3961C116.454 74.6747 118.337 70.1481 121.683 66.8095C125.029 63.471 129.566 61.5931 134.298 61.5879H237.582C237.791 61.5879 237.992 61.6707 238.139 61.818C238.287 61.9654 238.37 62.1652 238.37 62.3736V116.741C238.37 116.95 238.287 117.149 238.139 117.297C237.992 117.444 237.791 117.527 237.582 117.527ZM118.028 115.955H236.795V63.1593H134.298C129.983 63.1635 125.846 64.8755 122.795 67.9196C119.744 70.9636 118.028 75.0911 118.024 79.3961V115.955H118.028Z" fill="#262424"/>
<path d="M237.578 116.74H117.236V170.192H237.578V116.74Z" fill="black"/>
<path d="M237.582 170.979H117.237C117.028 170.979 116.828 170.896 116.68 170.749C116.532 170.601 116.449 170.401 116.449 170.193V116.741C116.449 116.532 116.532 116.333 116.68 116.185C116.828 116.038 117.028 115.955 117.237 115.955H237.582C237.791 115.955 237.992 116.038 238.139 116.185C238.287 116.333 238.37 116.532 238.37 116.741V170.193C238.37 170.401 238.287 170.601 238.139 170.749C237.992 170.896 237.791 170.979 237.582 170.979ZM118.028 169.407H236.795V117.527H118.024V169.407H118.028Z" fill="#262424"/>
<path d="M237.578 170.193H117.236V223.645H237.578V170.193Z" fill="white"/>
<path d="M237.582 224.432H117.237C117.028 224.432 116.828 224.349 116.68 224.202C116.532 224.054 116.449 223.854 116.449 223.646V170.194C116.449 169.986 116.532 169.786 116.68 169.638C116.828 169.491 117.028 169.408 117.237 169.408H237.582C237.791 169.408 237.992 169.491 238.139 169.638C238.287 169.786 238.37 169.986 238.37 170.194V223.646C238.37 223.854 238.287 224.054 238.139 224.202C237.992 224.349 237.791 224.432 237.582 224.432ZM118.028 222.86H236.795V170.98H118.024V222.86H118.028Z" fill="#262424"/>
<path d="M190.55 193.018H164.267C162.108 193.018 160.357 194.764 160.357 196.919C160.357 199.073 162.108 200.82 164.267 200.82H190.55C192.71 200.82 194.46 199.073 194.46 196.919C194.46 194.764 192.71 193.018 190.55 193.018Z" fill="#3257FB"/>
<path d="M190.55 84.3574H164.267C162.108 84.3574 160.357 86.104 160.357 88.2585C160.357 90.413 162.108 92.1596 164.267 92.1596H190.55C192.71 92.1596 194.46 90.413 194.46 88.2585C194.46 86.104 192.71 84.3574 190.55 84.3574Z" fill="#3257FB"/>
<path d="M310.894 139.566H284.611C282.452 139.566 280.701 141.313 280.701 143.467C280.701 145.622 282.452 147.369 284.611 147.369H310.894C313.053 147.369 314.804 145.622 314.804 143.467C314.804 141.313 313.053 139.566 310.894 139.566Z" fill="#3257FB"/>
<path d="M117.236 223.646V260.991C117.236 265.506 119.034 269.836 122.233 273.028C125.433 276.221 129.773 278.014 134.298 278.014H237.582V223.646H117.236Z" fill="black"/>
<path d="M237.582 278.798H134.298C129.566 278.793 125.029 276.915 121.683 273.577C118.337 270.238 116.454 265.712 116.449 260.99V223.645C116.449 223.437 116.532 223.237 116.68 223.089C116.828 222.942 117.028 222.859 117.237 222.859H237.582C237.791 222.859 237.992 222.942 238.139 223.089C238.287 223.237 238.37 223.437 238.37 223.645V278.013C238.37 278.221 238.287 278.421 238.139 278.568C237.992 278.715 237.791 278.798 237.582 278.798ZM118.024 224.431V260.99C118.028 265.295 119.744 269.423 122.795 272.467C125.846 275.511 129.983 277.223 134.298 277.227H236.795V224.431H118.024Z" fill="#262424"/>
<path d="M357.924 170.193H237.582V223.645H357.924V170.193Z" fill="black"/>
<path d="M357.92 224.432H237.582C237.374 224.432 237.173 224.349 237.026 224.202C236.878 224.054 236.795 223.854 236.795 223.646V170.194C236.795 169.986 236.878 169.786 237.026 169.638C237.173 169.491 237.374 169.408 237.582 169.408H357.92C358.129 169.408 358.329 169.491 358.477 169.638C358.625 169.786 358.708 169.986 358.708 170.194V223.646C358.708 223.854 358.625 224.054 358.477 224.202C358.329 224.349 358.129 224.432 357.92 224.432ZM238.366 222.86H357.133V170.98H238.37V222.86H238.366Z" fill="#262424"/>
<path d="M237.582 223.646V278.014H340.863C345.387 278.013 349.725 276.219 352.924 273.027C356.123 269.835 357.92 265.505 357.92 260.991V223.646H237.582Z" fill="white"/>
<path d="M340.863 278.798H237.582C237.374 278.798 237.173 278.715 237.026 278.568C236.878 278.421 236.795 278.221 236.795 278.013V223.645C236.795 223.437 236.878 223.237 237.026 223.089C237.173 222.942 237.374 222.859 237.582 222.859H357.92C358.129 222.859 358.329 222.942 358.477 223.089C358.625 223.237 358.708 223.437 358.708 223.645V260.99C358.703 265.711 356.821 270.237 353.476 273.575C350.13 276.914 345.595 278.792 340.863 278.798ZM238.366 277.227H340.863C345.177 277.222 349.313 275.509 352.363 272.465C355.413 269.421 357.129 265.294 357.133 260.99V224.431H238.37V277.227H238.366Z" fill="#262424"/>
<path d="M357.92 79.3975C357.92 74.8829 356.122 70.5531 352.923 67.3608C349.723 64.1684 345.384 62.375 340.859 62.375H237.582V116.743H357.92V79.3975Z" fill="black"/>
<path d="M357.92 117.527H237.582C237.374 117.527 237.173 117.444 237.026 117.297C236.878 117.149 236.795 116.95 236.795 116.741V62.3736C236.795 62.1652 236.878 61.9654 237.026 61.818C237.173 61.6707 237.374 61.5879 237.582 61.5879H340.863C345.595 61.5941 350.13 63.4725 353.476 66.8109C356.821 70.1494 358.703 74.6754 358.708 79.3961V116.741C358.708 116.95 358.625 117.149 358.477 117.297C358.329 117.444 358.129 117.527 357.92 117.527ZM238.366 115.955H357.133V79.3961C357.129 75.0911 355.413 70.9636 352.362 67.9196C349.311 64.8755 345.174 63.1635 340.859 63.1593H238.37V115.955H238.366Z" fill="#262424"/>
<path d="M437.939 422.808L456.741 437.006L461.927 429.427L444.251 413.348L437.939 422.808Z" fill="white"/>
<path d="M456.751 437.792C456.578 437.792 456.411 437.735 456.274 437.631L437.457 423.437C437.297 423.316 437.189 423.139 437.156 422.942C437.122 422.745 437.165 422.543 437.276 422.376L443.576 412.912C443.639 412.819 443.721 412.74 443.817 412.681C443.913 412.622 444.021 412.584 444.133 412.57C444.245 412.557 444.359 412.567 444.466 412.601C444.574 412.635 444.673 412.691 444.757 412.767L462.436 428.846C462.576 428.974 462.664 429.148 462.686 429.335C462.708 429.523 462.661 429.712 462.554 429.868L457.369 437.446C457.309 437.534 457.231 437.609 457.141 437.667C457.051 437.724 456.95 437.763 456.845 437.78L456.751 437.792ZM439.032 422.628L456.581 435.879L460.912 429.546L444.418 414.542L439.032 422.628Z" fill="#262424"/>
<path d="M462.613 485.427L466.062 487.627L493.298 445.081C493.298 445.081 491.585 443.796 488.644 441.733C479.922 435.547 470.85 429.866 461.475 424.719L450.6 436.897C450.6 436.897 455.293 456.297 458.116 472.698C458.408 474.399 458.64 476.144 458.782 477.915C459.046 481.325 460.372 484.001 462.613 485.427Z" fill="#3257FB"/>
<path d="M466.113 460.149C465.937 460.149 465.766 460.089 465.627 459.98C465.489 459.871 465.391 459.719 465.35 459.548C461.723 444.447 456.526 435.387 456.474 435.297C456.418 435.208 456.379 435.108 456.362 435.003C456.345 434.898 456.349 434.792 456.374 434.689C456.399 434.586 456.445 434.489 456.509 434.404C456.573 434.319 456.653 434.248 456.745 434.195C456.837 434.142 456.939 434.108 457.044 434.096C457.15 434.083 457.256 434.091 457.358 434.121C457.46 434.15 457.555 434.2 457.638 434.267C457.72 434.334 457.788 434.417 457.837 434.511C457.888 434.602 463.2 443.842 466.893 459.187C466.942 459.389 466.907 459.603 466.798 459.78C466.689 459.958 466.513 460.085 466.31 460.134C466.246 460.147 466.179 460.152 466.113 460.149Z" fill="#262424"/>
<path d="M477.415 444.471C478.751 442.385 477.947 439.491 475.62 438.008C473.292 436.524 470.323 437.013 468.987 439.099C467.651 441.186 468.455 444.079 470.783 445.563C473.11 447.046 476.08 446.557 477.415 444.471Z" fill="white"/>
<path d="M473.656 447.165C472.484 447.16 471.338 446.82 470.353 446.187C467.664 444.474 466.75 441.079 468.317 438.64C468.705 438.042 469.216 437.533 469.816 437.148C470.416 436.762 471.092 436.509 471.798 436.404C473.275 436.174 474.786 436.497 476.039 437.312C478.728 439.025 479.641 442.419 478.074 444.859C477.593 445.584 476.935 446.176 476.163 446.579C475.39 446.982 474.528 447.184 473.656 447.165ZM471.199 444.863C473.168 446.112 475.645 445.727 476.743 444.01C477.842 442.293 477.137 439.881 475.168 438.632C474.239 438.024 473.117 437.782 472.018 437.952C471.531 438.022 471.064 438.195 470.648 438.459C470.233 438.723 469.878 439.073 469.609 439.484C468.51 441.201 469.215 443.613 471.184 444.863H471.199Z" fill="#262424"/>
<path d="M462.612 485.426L466.061 487.626L493.297 445.08C493.297 445.08 491.584 443.795 488.643 441.732L474.263 464.192C474.263 464.192 463.317 459.238 458.119 472.705C458.411 474.406 458.643 476.151 458.785 477.922C459.044 481.325 460.371 484 462.612 485.426Z" fill="white"/>
<path d="M466.065 488.411C465.915 488.411 465.769 488.368 465.643 488.289L462.194 486.089C459.78 484.553 458.288 481.673 457.989 477.988C457.855 476.322 457.634 474.59 457.331 472.842C457.308 472.701 457.323 472.558 457.374 472.425C459.162 467.809 461.804 464.761 465.249 463.362C468.99 461.838 472.55 462.741 473.971 463.232L488.004 441.311C488.062 441.222 488.136 441.145 488.224 441.086C488.312 441.026 488.41 440.985 488.514 440.964C488.619 440.944 488.726 440.944 488.83 440.966C488.933 440.988 489.032 441.03 489.119 441.091C492.04 443.138 493.777 444.442 493.796 444.454C493.954 444.573 494.061 444.747 494.096 444.941C494.131 445.136 494.092 445.336 493.985 445.503L466.75 488.049C466.676 488.163 466.575 488.256 466.455 488.32C466.335 488.383 466.2 488.414 466.065 488.411ZM463.041 484.765L465.828 486.541L492.245 445.291C491.599 444.815 490.438 443.971 488.867 442.863L474.932 464.631C474.83 464.79 474.674 464.908 474.493 464.962C474.311 465.016 474.116 465.003 473.943 464.926C473.904 464.926 469.908 463.158 465.809 464.839C462.855 466.049 460.536 468.732 458.918 472.806C459.209 474.531 459.422 476.232 459.556 477.878C459.816 481.064 461.052 483.516 463.037 484.781L463.041 484.765Z" fill="#262424"/>
<path d="M447.3 292.208L412.973 369.495L450.6 413.35L437.953 430.341C437.953 430.341 403.697 405.198 386.738 389.161C380.898 383.642 377.103 379.198 377.445 377.222C377.65 376.044 378.477 371.974 379.753 365.943C386.809 332.72 407.673 239.648 414.907 236.941C417.226 236.073 425.246 235.959 429.452 236.253C443.674 237.247 453.935 250.29 451.71 264.343L447.3 292.208Z" fill="#3257FB"/>
<path d="M441.786 415.168C441.676 415.168 441.566 415.145 441.465 415.101C441.364 415.056 441.274 414.991 441.2 414.909L401.281 370.606C401.187 370.501 401.124 370.373 401.097 370.234C401.07 370.096 401.08 369.953 401.128 369.821L435.317 276.647C435.353 276.55 435.407 276.461 435.477 276.385C435.548 276.309 435.632 276.247 435.726 276.204C435.82 276.16 435.922 276.136 436.025 276.132C436.128 276.127 436.232 276.143 436.329 276.179C436.426 276.215 436.515 276.269 436.592 276.339C436.668 276.409 436.729 276.493 436.773 276.587C436.816 276.681 436.841 276.782 436.845 276.885C436.849 276.989 436.833 277.092 436.798 277.189L402.77 369.903L442.389 413.856C442.492 413.97 442.559 414.111 442.583 414.263C442.606 414.415 442.584 414.57 442.52 414.71C442.456 414.849 442.353 414.967 442.222 415.049C442.092 415.13 441.94 415.172 441.786 415.168Z" fill="#262424"/>
<path d="M434.755 424.407C434.609 424.407 434.465 424.366 434.341 424.289C434.216 424.212 434.116 424.102 434.051 423.97C433.985 423.839 433.958 423.693 433.972 423.547C433.986 423.402 434.041 423.263 434.129 423.146L444.406 409.679C444.536 409.524 444.721 409.424 444.923 409.401C445.124 409.379 445.327 409.434 445.488 409.557C445.649 409.68 445.757 409.859 445.789 410.059C445.821 410.259 445.774 410.464 445.658 410.63L435.381 424.097C435.308 424.193 435.213 424.272 435.105 424.325C434.996 424.379 434.877 424.407 434.755 424.407Z" fill="#262424"/>
<path d="M439.376 280.35C439.197 280.35 439.023 280.289 438.884 280.177L433.989 276.248C433.176 275.599 432.519 274.775 432.068 273.838C431.618 272.901 431.385 271.874 431.387 270.835V250.881C431.387 250.673 431.47 250.473 431.617 250.326C431.765 250.178 431.965 250.096 432.174 250.096C432.383 250.096 432.583 250.178 432.731 250.326C432.879 250.473 432.962 250.673 432.962 250.881V270.843C432.96 271.647 433.139 272.442 433.488 273.168C433.836 273.894 434.344 274.532 434.974 275.034L439.868 278.963C439.991 279.066 440.079 279.204 440.121 279.358C440.163 279.512 440.157 279.676 440.104 279.826C440.05 279.977 439.952 280.108 439.822 280.201C439.692 280.295 439.536 280.347 439.376 280.35Z" fill="#262424"/>
<path d="M386.728 389.159C380.889 383.64 377.093 379.196 377.435 377.22C377.64 376.042 378.467 371.972 379.743 365.941C382.948 367.639 385.822 370.994 387.409 375.37C389.276 380.481 388.874 385.694 386.728 389.159Z" fill="white"/>
<path d="M461.188 429.02L461.479 452.541L470.657 451.979L472.547 428.188L461.188 429.02Z" fill="white"/>
<path d="M461.473 453.325C461.265 453.325 461.064 453.242 460.917 453.095C460.769 452.948 460.686 452.748 460.686 452.54L460.395 429.015C460.394 428.817 460.469 428.625 460.604 428.479C460.739 428.334 460.925 428.244 461.123 428.229L472.483 427.397C472.596 427.388 472.709 427.405 472.816 427.444C472.922 427.484 473.018 427.546 473.098 427.626C473.178 427.706 473.24 427.803 473.279 427.909C473.318 428.015 473.334 428.128 473.325 428.241L471.439 452.033C471.424 452.222 471.342 452.399 471.207 452.531C471.071 452.664 470.892 452.744 470.703 452.756L461.525 453.317H461.473V453.325ZM461.977 429.754L462.249 451.711L469.919 451.239L471.679 429.039L461.977 429.754Z" fill="#262424"/>
<path d="M423.738 483.542V487.627H474.339C474.339 487.627 474.504 485.494 474.662 481.911C475.19 471.244 475.104 460.555 474.402 449.897L458.258 447.316C458.258 447.316 444.398 461.707 432.066 472.907C430.786 474.086 429.436 475.201 428.018 476.274C425.282 478.332 423.738 480.886 423.738 483.542Z" fill="#3257FB"/>
<path d="M447.634 473.244C447.479 473.244 447.328 473.199 447.199 473.114C447.07 473.029 446.969 472.908 446.908 472.766C446.848 472.624 446.831 472.467 446.859 472.315C446.887 472.164 446.959 472.023 447.067 471.913C457.887 460.72 462.727 451.484 462.774 451.394C462.873 451.214 463.039 451.081 463.235 451.022C463.431 450.963 463.643 450.982 463.825 451.076C464.007 451.171 464.145 451.332 464.21 451.526C464.275 451.72 464.261 451.932 464.172 452.116C464.124 452.211 459.179 461.647 448.197 473.005C448.124 473.08 448.037 473.14 447.94 473.181C447.843 473.222 447.739 473.244 447.634 473.244Z" fill="#262424"/>
<path d="M466.327 473.916C468.808 473.916 470.819 471.682 470.819 468.927C470.819 466.171 468.808 463.938 466.327 463.938C463.845 463.938 461.834 466.171 461.834 468.927C461.834 471.682 463.845 473.916 466.327 473.916Z" fill="white"/>
<path d="M466.325 474.702C463.415 474.702 461.045 472.109 461.045 468.927C461.045 465.745 463.407 463.152 466.325 463.152C469.243 463.152 471.605 465.741 471.605 468.927C471.605 472.113 469.235 474.702 466.325 474.702ZM466.325 464.724C464.282 464.724 462.62 466.609 462.62 468.927C462.62 471.245 464.282 473.131 466.325 473.131C468.369 473.131 470.03 471.245 470.03 468.927C470.03 466.609 468.369 464.724 466.325 464.724Z" fill="#262424"/>
<path d="M423.738 483.539V487.625H474.339C474.339 487.625 474.504 485.492 474.662 481.909H447.95C447.95 481.909 446.241 470.037 432.058 472.901C430.779 474.079 429.428 475.195 428.01 476.268C425.282 478.33 423.738 480.884 423.738 483.539Z" fill="white"/>
<path d="M474.337 488.412H423.737C423.528 488.412 423.328 488.329 423.18 488.181C423.032 488.034 422.949 487.834 422.949 487.626V483.54C422.949 480.684 424.575 477.879 427.529 475.644C428.863 474.634 430.21 473.514 431.521 472.32C431.632 472.221 431.768 472.156 431.915 472.132C436.774 471.149 440.774 471.739 443.802 473.86C447.106 476.186 448.255 479.667 448.606 481.124H474.676C474.783 481.124 474.888 481.145 474.986 481.187C475.084 481.229 475.172 481.29 475.246 481.367C475.319 481.443 475.377 481.534 475.414 481.634C475.452 481.733 475.468 481.839 475.464 481.945C475.306 485.501 475.141 487.665 475.141 487.689C475.125 487.889 475.032 488.075 474.883 488.21C474.734 488.344 474.539 488.416 474.337 488.412ZM424.524 486.84H473.601C473.656 486.054 473.743 484.613 473.833 482.696H447.944C447.753 482.697 447.568 482.63 447.423 482.506C447.278 482.381 447.184 482.209 447.157 482.02C447.157 481.977 446.476 477.671 442.849 475.133C440.235 473.302 436.723 472.795 432.411 473.628C431.116 474.807 429.789 475.895 428.473 476.893C425.922 478.826 424.516 481.183 424.516 483.536V486.836L424.524 486.84Z" fill="#262424"/>
<path d="M493.618 244.357C493.618 244.357 491.976 272.804 491.539 275.605C491.102 278.406 476.482 437.227 476.482 437.227L454.105 436.901L441.285 251.507C441.285 251.507 439.654 232.525 461.866 228.788C484.077 225.052 493.618 244.357 493.618 244.357Z" fill="#3257FB"/>
<path d="M444.859 304C444.659 304.001 444.467 303.926 444.321 303.79C444.174 303.654 444.085 303.468 444.071 303.27L440.469 252.866C440.461 252.763 440.475 252.659 440.508 252.561C440.54 252.463 440.592 252.372 440.66 252.294C440.728 252.216 440.811 252.152 440.904 252.106C440.997 252.06 441.098 252.033 441.201 252.025C441.304 252.018 441.408 252.031 441.507 252.064C441.605 252.097 441.696 252.149 441.774 252.217C441.852 252.284 441.916 252.367 441.963 252.46C442.009 252.552 442.036 252.653 442.044 252.756L445.646 303.16C445.654 303.263 445.641 303.366 445.608 303.464C445.576 303.562 445.524 303.652 445.457 303.731C445.389 303.809 445.307 303.873 445.214 303.919C445.122 303.965 445.021 303.993 444.918 304H444.863H444.859Z" fill="#262424"/>
<path d="M459.266 364.116C463.964 363.886 467.505 358.262 467.175 351.555C466.845 344.848 462.769 339.597 458.071 339.828C453.373 340.058 449.832 345.681 450.162 352.388C450.492 359.096 454.568 364.346 459.266 364.116Z" fill="white"/>
<path d="M479.27 268.42C479.113 268.42 478.96 268.374 478.829 268.286C476.988 267.047 475.473 265.385 474.411 263.439C473.35 261.493 472.773 259.321 472.73 257.106L472.545 247.261C472.543 247.157 472.561 247.055 472.599 246.959C472.637 246.863 472.693 246.775 472.765 246.7C472.836 246.626 472.922 246.566 473.017 246.525C473.111 246.484 473.213 246.461 473.317 246.459C473.42 246.457 473.523 246.475 473.619 246.513C473.716 246.551 473.804 246.607 473.878 246.678C473.953 246.75 474.013 246.835 474.054 246.93C474.096 247.024 474.118 247.126 474.12 247.229L474.305 257.074C474.343 259.037 474.854 260.962 475.795 262.687C476.736 264.411 478.08 265.885 479.711 266.982C479.852 267.076 479.958 267.212 480.014 267.371C480.071 267.53 480.075 267.703 480.025 267.864C479.976 268.025 479.876 268.166 479.74 268.266C479.604 268.366 479.439 268.42 479.27 268.42Z" fill="#262424"/>
<path d="M470.226 431.519H470.183C470.079 431.513 469.978 431.487 469.885 431.443C469.791 431.398 469.708 431.335 469.638 431.258C469.569 431.181 469.516 431.092 469.482 430.994C469.448 430.896 469.433 430.793 469.439 430.69L479.735 246.986C479.747 246.777 479.841 246.582 479.997 246.443C480.152 246.304 480.357 246.232 480.566 246.243C480.775 246.255 480.971 246.349 481.11 246.504C481.25 246.66 481.322 246.864 481.31 247.072L471.014 430.776C471.003 430.977 470.915 431.166 470.768 431.304C470.622 431.442 470.428 431.519 470.226 431.519Z" fill="#262424"/>
<path d="M456.686 431.781C456.477 431.781 456.277 431.698 456.129 431.551C455.981 431.404 455.898 431.204 455.898 430.995C455.898 430.787 455.981 430.587 456.129 430.44C456.277 430.292 456.477 430.21 456.686 430.21L475.44 430.111C475.649 430.111 475.849 430.194 475.997 430.341C476.145 430.489 476.228 430.689 476.228 430.897C476.228 431.105 476.145 431.305 475.997 431.453C475.849 431.6 475.649 431.683 475.44 431.683L456.686 431.781Z" fill="#262424"/>
<path d="M413.854 128.96C404.865 131.607 388.351 168.014 385.48 186.635C382.61 205.256 387.449 211.071 394.682 211.625C401.915 212.179 410.55 210.646 418.957 181.265C427.363 151.883 430.49 124.084 413.854 128.96Z" fill="black"/>
<path d="M501.611 257.202H492.713V246.885C492.713 246.132 492.413 245.41 491.879 244.877C491.345 244.344 490.621 244.045 489.866 244.045C489.111 244.045 488.387 244.344 487.853 244.877C487.319 245.41 487.019 246.132 487.019 246.885V257.202H402.182C402.182 257.202 406.651 206.464 403.883 173.975C401.126 141.706 413.852 128.961 413.852 128.961C461.665 118.091 486.322 131.609 486.322 131.609C502.537 200.481 501.611 257.202 501.611 257.202Z" fill="black"/>
<path d="M405.216 206.671C405.012 206.671 404.817 206.593 404.67 206.452C404.523 206.312 404.437 206.12 404.428 205.917C404.267 202.122 404.157 198.272 404.035 194.548C403.822 187.244 403.641 180.35 403.086 174.044C401.231 152.268 406.476 139.233 409.779 133.399C409.884 133.218 410.056 133.086 410.259 133.031C410.461 132.977 410.677 133.005 410.858 133.109C411.04 133.213 411.173 133.385 411.227 133.587C411.282 133.789 411.254 134.004 411.15 134.185C407.945 139.858 402.842 152.567 404.661 173.923C405.2 180.271 405.401 187.189 405.614 194.512C405.72 198.233 405.834 202.079 406.007 205.862C406.016 206.07 405.942 206.272 405.801 206.426C405.66 206.579 405.464 206.67 405.255 206.679H405.224L405.216 206.671Z" fill="#262424"/>
<path d="M408.248 252.213C408.04 252.213 407.839 252.13 407.692 251.983C407.544 251.836 407.461 251.636 407.461 251.428C407.461 251.219 407.544 251.019 407.692 250.872C407.839 250.725 408.04 250.642 408.248 250.642L483.526 250.096C483.734 250.096 483.935 250.178 484.082 250.326C484.23 250.473 484.313 250.673 484.313 250.881C484.313 251.09 484.23 251.29 484.082 251.437C483.935 251.584 483.734 251.667 483.526 251.667L408.252 252.213H408.248Z" fill="#262424"/>
<path d="M461.355 129.524C460.166 132.314 458.377 134.81 456.115 136.834C453.852 138.858 451.172 140.362 448.263 141.239C447.287 135.897 444.597 129.175 444.597 129.175C441.609 133.276 440.03 138.705 439.64 141.18C429.974 138.529 428.867 129.249 428.867 129.249C430.048 119.95 438.061 112.95 444.94 113.185C460.143 113.7 461.355 129.524 461.355 129.524Z" fill="white"/>
<path d="M448.264 142.026C448.077 142.029 447.896 141.966 447.752 141.848C447.607 141.73 447.51 141.565 447.476 141.381C446.791 137.626 445.22 133.131 444.389 130.876C442.449 134.087 441.101 137.618 440.409 141.303C440.391 141.412 440.351 141.517 440.291 141.61C440.23 141.703 440.151 141.782 440.057 141.842C439.964 141.902 439.859 141.942 439.749 141.959C439.639 141.976 439.527 141.969 439.42 141.939C429.352 139.189 428.084 129.443 428.072 129.344C428.064 129.28 428.064 129.216 428.072 129.152C429.344 119.158 437.719 112.393 444.61 112.393H444.96C460.683 112.927 462.12 129.285 462.132 129.458C462.141 129.585 462.119 129.711 462.069 129.828C460.828 132.72 458.969 135.306 456.622 137.407C454.275 139.508 451.496 141.072 448.48 141.99C448.41 142.012 448.337 142.024 448.264 142.026ZM444.598 128.39H444.696C444.836 128.407 444.969 128.461 445.08 128.547C445.192 128.633 445.278 128.747 445.33 128.877C445.437 129.14 447.78 135.029 448.874 140.203C451.461 139.297 453.833 137.869 455.844 136.009C457.854 134.149 459.46 131.897 460.561 129.391C460.372 127.569 458.521 114.424 444.921 113.964H444.622C438.44 113.964 430.84 120.383 429.659 129.246C429.797 130.197 431.124 137.551 439.026 140.171C439.59 137.484 441.121 132.605 443.96 128.712C444.033 128.612 444.129 128.53 444.24 128.474C444.351 128.418 444.474 128.389 444.598 128.39Z" fill="#262424"/>
<path d="M453.842 94.4434L453.598 103.766L453.177 119.716C447.798 123.468 442.569 123.86 437.525 120.081L438.242 112.672L439.36 101.448L453.842 94.4434Z" fill="white"/>
<path d="M444.824 123.515C442.141 123.515 439.549 122.58 437.047 120.71C436.939 120.629 436.853 120.521 436.799 120.397C436.744 120.273 436.723 120.138 436.736 120.003L438.595 101.37C438.608 101.236 438.656 101.108 438.733 100.998C438.81 100.888 438.915 100.8 439.036 100.741L453.502 93.7326C453.624 93.674 453.758 93.6475 453.893 93.6558C454.028 93.664 454.158 93.7066 454.272 93.7796C454.385 93.8526 454.478 93.9534 454.541 94.0725C454.604 94.1915 454.636 94.3248 454.632 94.4594L453.963 119.732C453.96 119.855 453.928 119.975 453.87 120.084C453.812 120.192 453.729 120.286 453.628 120.357C450.608 122.466 447.667 123.515 444.824 123.515ZM438.351 119.712C442.749 122.824 447.352 122.686 452.396 119.296L453.022 95.7244L440.119 101.975L438.351 119.712Z" fill="#262424"/>
<path d="M430.013 164.878C422.693 191.71 412.609 206.6 403.565 212.159C397.934 215.627 392.705 215.474 388.799 212.339C387.028 210.936 385.745 209.012 385.134 206.839C382.606 198.004 390.252 186.171 390.252 186.171L418.602 156.42L430.013 164.878Z" fill="black"/>
<path d="M407.9 209.612C407.741 209.613 407.586 209.565 407.455 209.476C407.324 209.387 407.223 209.261 407.165 209.113C407.107 208.966 407.095 208.805 407.131 208.651C407.166 208.496 407.248 208.357 407.364 208.249C415.909 200.365 423.622 185.071 429.111 165.184L418.708 157.453L392.449 184.996C392.305 185.147 392.106 185.235 391.898 185.24C391.689 185.245 391.486 185.167 391.335 185.024C391.183 184.88 391.095 184.682 391.09 184.473C391.085 184.265 391.163 184.063 391.307 183.912L418.047 155.866C418.179 155.727 418.358 155.641 418.549 155.624C418.741 155.607 418.932 155.661 419.086 155.775L430.481 164.241C430.609 164.335 430.705 164.466 430.757 164.615C430.809 164.764 430.814 164.926 430.773 165.078C423.63 191.262 414.68 203.633 408.435 209.4C408.29 209.536 408.099 209.612 407.9 209.612Z" fill="#262424"/>
<path d="M425.253 170.256C417.566 170.256 414.515 162.878 414.483 162.792C414.413 162.6 414.42 162.389 414.504 162.202C414.587 162.016 414.74 161.869 414.93 161.793C415.119 161.717 415.331 161.717 415.521 161.795C415.71 161.872 415.862 162.02 415.944 162.206C416.066 162.509 419.015 169.557 426.658 168.586C426.867 168.56 427.078 168.618 427.244 168.747C427.41 168.876 427.518 169.066 427.544 169.274C427.57 169.482 427.512 169.693 427.383 169.858C427.254 170.024 427.064 170.132 426.855 170.158C426.323 170.224 425.788 170.257 425.253 170.256Z" fill="#262424"/>
<path d="M403.564 212.144C397.934 215.613 392.705 215.46 388.799 212.325C387.027 210.922 385.744 208.997 385.133 206.825C385.451 205.315 386.095 203.893 387.019 202.656C390.374 198.139 396.548 197.031 400.8 200.178C404.486 202.912 405.525 207.933 403.564 212.144Z" fill="white"/>
<path d="M437.668 149.958C434.747 149.318 429.451 159.681 432.699 161.591C435.948 163.5 445.5 151.675 437.668 149.958Z" fill="white"/>
<path d="M433.522 162.58C433.098 162.585 432.68 162.477 432.313 162.266C430.667 161.299 430.458 158.73 431.758 155.446C432.821 152.743 435.415 148.661 437.849 149.191C440.357 149.741 441.16 151.199 441.393 152.334C442.046 155.513 438.947 159.665 436.459 161.441C435.38 162.191 434.376 162.58 433.522 162.58ZM437.392 150.712C436.419 150.712 434.419 152.967 433.222 156.019C432.273 158.428 432.23 160.396 433.112 160.91C433.573 161.181 434.506 160.891 435.545 160.148C437.955 158.431 440.306 154.853 439.849 152.637C439.648 151.651 438.88 151.026 437.51 150.724C437.469 150.716 437.426 150.713 437.384 150.716L437.392 150.712Z" fill="#262424"/>
<path d="M438.04 158.008V158.196V163.775L434.244 159.626L434.142 159.516C433.984 159.33 433.858 159.119 433.768 158.892L422.026 128.575C421.837 128.033 421.866 127.438 422.107 126.917C422.349 126.396 422.785 125.99 423.321 125.783C423.858 125.576 424.455 125.586 424.984 125.81C425.514 126.034 425.936 126.455 426.16 126.984L437.902 157.297C437.987 157.524 438.034 157.765 438.04 158.008Z" fill="white"/>
<path d="M438.032 164.561C437.922 164.561 437.814 164.539 437.713 164.495C437.613 164.451 437.523 164.386 437.449 164.306L433.555 160.055C433.332 159.797 433.154 159.503 433.027 159.187L421.282 128.858C421.024 128.123 421.063 127.317 421.391 126.611C421.718 125.904 422.308 125.352 423.036 125.072C423.764 124.792 424.573 124.805 425.291 125.109C426.009 125.413 426.581 125.984 426.885 126.701L438.638 157.01C438.758 157.321 438.824 157.649 438.835 157.981C438.835 157.981 438.835 157.981 438.835 158.004V163.771C438.836 163.876 438.815 163.98 438.775 164.077C438.735 164.174 438.675 164.262 438.6 164.335C438.525 164.409 438.437 164.467 438.339 164.506C438.241 164.544 438.137 164.563 438.032 164.561ZM424.069 126.356C423.838 126.356 423.609 126.412 423.404 126.52C423.199 126.627 423.023 126.783 422.891 126.974C422.76 127.164 422.677 127.384 422.65 127.614C422.623 127.844 422.652 128.076 422.735 128.293L434.476 158.609C434.535 158.752 434.616 158.885 434.717 159.002L434.795 159.085L437.229 161.744V158.016C437.221 157.864 437.19 157.714 437.134 157.572L425.392 127.263C425.288 126.997 425.107 126.768 424.871 126.607C424.635 126.445 424.356 126.357 424.069 126.356Z" fill="#262424"/>
<path d="M423.675 145.606C423.675 145.606 417.198 152.316 417.43 157.659C417.662 163.002 426.226 167.347 430.888 164.337C435.55 161.328 436.007 154.123 432.239 150.98C432.239 150.98 436.747 155.027 438.7 151.73C440.654 148.434 430.432 141.685 427.282 142.137C426.39 142.261 425.561 142.663 424.913 143.286C424.265 143.91 423.832 144.722 423.675 145.606Z" fill="white"/>
<path d="M427.245 166.111C425.418 166.081 423.625 165.618 422.012 164.759C418.819 163.113 416.764 160.403 416.646 157.688C416.417 152.502 421.898 146.358 422.946 145.23C423.173 144.235 423.699 143.333 424.454 142.644C425.209 141.956 426.157 141.513 427.171 141.377C429.927 140.984 436.569 144.971 438.845 148.369C440.062 150.184 439.806 151.43 439.381 152.153C439.147 152.584 438.817 152.957 438.416 153.241C438.015 153.526 437.555 153.715 437.069 153.795C436.349 153.884 435.618 153.797 434.939 153.543C435.694 155.585 435.748 157.819 435.092 159.895C434.437 161.97 433.109 163.77 431.317 165.011C430.094 165.761 428.68 166.143 427.245 166.111ZM427.639 142.932C427.556 142.926 427.474 142.926 427.391 142.932C426.668 143.029 425.995 143.352 425.467 143.853C424.938 144.355 424.583 145.01 424.45 145.725C424.424 145.885 424.35 146.034 424.237 146.15C424.174 146.217 417.996 152.683 418.213 157.621C418.307 159.774 420.04 161.978 422.729 163.365C425.485 164.795 428.533 164.936 430.454 163.683C431.482 162.986 432.333 162.059 432.939 160.976C433.544 159.893 433.888 158.683 433.943 157.444C434.089 155.146 433.313 153.025 431.864 151.72L431.703 151.583C431.567 151.441 431.49 151.254 431.486 151.058C431.481 150.862 431.551 150.672 431.68 150.524C431.809 150.377 431.989 150.283 432.184 150.261C432.379 150.238 432.575 150.29 432.734 150.404L432.896 150.542C433.656 151.178 435.494 152.447 436.833 152.243C437.086 152.198 437.325 152.094 437.53 151.94C437.735 151.785 437.901 151.585 438.014 151.355C438.373 150.75 437.947 149.874 437.526 149.245C435.565 146.303 429.852 142.917 427.639 142.917V142.932Z" fill="#262424"/>
<path d="M463.45 163.773H419.177C416.537 163.773 414.396 165.909 414.396 168.543V223.951C414.396 226.585 416.537 228.721 419.177 228.721H463.45C466.09 228.721 468.23 226.585 468.23 223.951V168.543C468.23 165.909 466.09 163.773 463.45 163.773Z" fill="white"/>
<path d="M463.446 229.503H419.177C417.701 229.502 416.285 228.916 415.241 227.875C414.197 226.833 413.61 225.421 413.609 223.948V168.535C413.61 167.063 414.197 165.65 415.241 164.609C416.285 163.567 417.701 162.982 419.177 162.98H463.446C464.178 162.98 464.903 163.123 465.579 163.402C466.255 163.681 466.869 164.09 467.387 164.606C467.905 165.122 468.316 165.734 468.596 166.408C468.877 167.083 469.021 167.805 469.022 168.535V223.928C469.024 224.66 468.881 225.385 468.602 226.061C468.323 226.738 467.912 227.353 467.394 227.871C466.876 228.389 466.261 228.799 465.583 229.079C464.906 229.36 464.18 229.503 463.446 229.503ZM419.177 164.56C418.12 164.562 417.108 164.981 416.36 165.726C415.613 166.471 415.191 167.481 415.188 168.535V223.928C415.189 224.984 415.61 225.997 416.359 226.744C417.107 227.491 418.122 227.911 419.181 227.912H463.446C464.505 227.911 465.52 227.491 466.268 226.744C467.017 225.997 467.438 224.984 467.439 223.928V168.535C467.436 167.481 467.014 166.47 466.266 165.725C465.517 164.98 464.504 164.561 463.446 164.56H419.177Z" fill="#262424"/>
<path d="M433.831 171.431C434.674 171.431 435.358 170.749 435.358 169.907C435.358 169.065 434.674 168.383 433.831 168.383C432.987 168.383 432.303 169.065 432.303 169.907C432.303 170.749 432.987 171.431 433.831 171.431Z" fill="#3257FB"/>
<path d="M448.799 171.431C449.643 171.431 450.327 170.749 450.327 169.907C450.327 169.065 449.643 168.383 448.799 168.383C447.955 168.383 447.271 169.065 447.271 169.907C447.271 170.749 447.955 171.431 448.799 171.431Z" fill="#3257FB"/>
<path d="M512.194 214.724C510.942 218.441 505.946 220.036 499.913 220.523C488.243 221.47 472.67 218.284 472.67 218.284V198.393L483.522 196.79C483.522 196.79 477.615 168.748 475.753 156.412C472.67 135.984 486.325 131.611 486.325 131.611C498.019 136.573 509.611 178.495 512.222 201.414C512.927 207.606 512.974 212.41 512.194 214.724Z" fill="black"/>
<path d="M512.193 214.724C510.941 218.44 505.945 220.035 499.912 220.522C496.416 216.264 496.794 209.691 500.995 205.201C504.058 201.94 508.37 200.628 512.221 201.398C512.926 207.605 512.973 212.41 512.193 214.724Z" fill="white"/>
<path d="M495.242 221.481C484.516 221.481 472.633 219.077 472.511 219.05C472.33 219.013 472.168 218.914 472.053 218.771C471.938 218.627 471.877 218.448 471.881 218.264V198.393C471.879 198.203 471.946 198.019 472.07 197.874C472.194 197.73 472.366 197.635 472.554 197.607L482.579 196.126C481.595 191.412 476.637 167.554 474.972 156.519C472.68 141.327 479.362 134.699 483.552 132.103C483.64 132.048 483.737 132.011 483.839 131.995C483.942 131.978 484.046 131.982 484.147 132.005C484.247 132.029 484.343 132.072 484.427 132.132C484.511 132.192 484.582 132.268 484.636 132.356C484.691 132.444 484.728 132.541 484.745 132.643C484.761 132.745 484.758 132.849 484.734 132.95C484.711 133.05 484.667 133.145 484.607 133.229C484.547 133.313 484.47 133.384 484.383 133.438C480.524 135.835 474.369 141.987 476.527 156.287C478.362 168.465 484.229 196.358 484.288 196.621C484.31 196.726 484.311 196.834 484.289 196.939C484.268 197.044 484.225 197.144 484.164 197.232C484.103 197.319 484.024 197.394 483.933 197.451C483.842 197.507 483.741 197.544 483.634 197.56L473.456 199.061V217.643C476.141 218.154 486.906 220.071 496.36 219.91C496.569 219.91 496.769 219.993 496.917 220.14C497.065 220.287 497.148 220.487 497.148 220.696C497.148 220.904 497.065 221.104 496.917 221.251C496.769 221.399 496.569 221.481 496.36 221.481H495.242Z" fill="#262424"/>
<path d="M479.196 216.951C479.067 216.951 478.94 216.92 478.827 216.86C478.713 216.8 478.616 216.713 478.544 216.607C478.471 216.5 478.426 216.378 478.412 216.251C478.398 216.123 478.416 215.994 478.463 215.875C481.401 208.477 476.605 200.746 476.558 200.667C476.446 200.491 476.409 200.278 476.455 200.075C476.5 199.871 476.625 199.694 476.802 199.583C476.978 199.471 477.192 199.434 477.396 199.48C477.6 199.526 477.777 199.65 477.889 199.826C478.105 200.168 483.165 208.296 479.928 216.448C479.871 216.596 479.771 216.723 479.64 216.813C479.509 216.902 479.354 216.951 479.196 216.951Z" fill="#262424"/>
<path d="M496.372 201.036C496.234 201.036 496.098 200.999 495.978 200.93C490.556 197.787 483.567 197.579 483.496 197.575C483.291 197.57 483.096 197.485 482.952 197.338C482.809 197.191 482.728 196.995 482.729 196.79C482.734 196.585 482.819 196.39 482.966 196.247C483.113 196.103 483.311 196.023 483.516 196.023C483.819 196.023 490.97 196.243 496.746 199.587C496.887 199.675 496.997 199.806 497.059 199.961C497.12 200.116 497.131 200.286 497.09 200.448C497.048 200.609 496.956 200.753 496.827 200.859C496.698 200.965 496.539 201.027 496.372 201.036Z" fill="#262424"/>
<path d="M474.619 202.507C474.619 202.507 477.139 212.152 474.119 217.011C471.099 221.871 460.826 221.45 458.054 216.225C455.282 211 458.641 204.047 463.795 203.073C463.795 203.073 457.463 204.495 457.373 200.397C457.282 196.3 470.367 195.345 473.064 197.415C475.761 199.486 474.619 202.507 474.619 202.507Z" fill="white"/>
<path d="M466.597 221.179H466.116C462.147 221.041 458.793 219.278 457.359 216.575C456.339 214.473 456.053 212.092 456.546 209.81C457.039 207.527 458.283 205.475 460.08 203.98C459.28 203.873 458.519 203.567 457.867 203.092C457.463 202.769 457.137 202.359 456.916 201.892C456.695 201.425 456.584 200.913 456.592 200.397C456.592 199.513 456.985 198.244 459.045 197.199C462.939 195.235 471.208 194.983 473.546 196.771C474.413 197.423 475.059 198.324 475.397 199.352C475.736 200.381 475.751 201.489 475.44 202.526C475.834 204.098 477.72 212.693 474.791 217.411C473.334 219.776 470.223 221.179 466.597 221.179ZM463.754 203.893C461.702 204.357 459.852 205.944 458.773 208.175C458.173 209.369 457.86 210.686 457.86 212.021C457.86 213.357 458.173 214.674 458.773 215.868C459.923 218.04 462.836 219.521 466.191 219.635C469.447 219.745 472.243 218.59 473.472 216.61C476.279 212.096 473.905 202.813 473.865 202.719C473.824 202.562 473.832 202.395 473.889 202.243C474.144 201.496 474.155 200.688 473.923 199.934C473.69 199.18 473.225 198.518 472.594 198.044C470.865 196.724 463.289 196.838 459.761 198.625C459.025 198.998 458.155 199.607 458.186 200.389C458.174 200.673 458.228 200.955 458.344 201.214C458.46 201.474 458.635 201.702 458.856 201.882C460.005 202.778 462.399 202.558 463.439 202.357L463.671 202.31C463.773 202.289 463.877 202.288 463.979 202.308C464.08 202.327 464.177 202.366 464.264 202.423C464.35 202.48 464.425 202.553 464.483 202.638C464.541 202.724 464.581 202.82 464.602 202.921C464.623 203.022 464.624 203.126 464.605 203.228C464.585 203.329 464.546 203.426 464.489 203.512C464.432 203.598 464.359 203.673 464.273 203.731C464.188 203.789 464.091 203.829 463.99 203.85L463.754 203.893Z" fill="#262424"/>
<path d="M425.151 100.783C427.097 108.248 430.711 116.969 439.606 114.14C450.182 110.785 455.998 102.056 454.498 91.7475C452.997 81.439 447.343 76.379 435.176 79.4668C434.141 79.7266 433.13 80.0723 432.152 80.5C425.344 83.5093 422.702 89.9286 424.199 96.7643C424.462 98.0097 424.777 99.3925 425.151 100.783Z" fill="white"/>
<path d="M436.353 115.473C434.901 115.485 433.47 115.123 432.199 114.424C427.686 111.941 425.58 105.561 424.387 100.981C423.993 99.5545 423.694 98.152 423.43 96.9499C421.756 89.4031 424.977 82.8306 431.832 79.7977C431.927 79.756 432.029 79.7332 432.132 79.7307C432.236 79.7282 432.339 79.7461 432.435 79.7833C432.532 79.8205 432.62 79.8763 432.695 79.9476C432.77 80.0188 432.83 80.104 432.872 80.1985C432.914 80.2929 432.937 80.3946 432.939 80.4978C432.942 80.601 432.924 80.7037 432.886 80.8C432.849 80.8963 432.793 80.9844 432.722 81.0591C432.65 81.1338 432.565 81.1938 432.47 81.2356C426.34 83.9463 423.461 89.8392 424.965 96.612C425.229 97.7906 425.54 99.1853 425.91 100.588C427.033 104.909 428.982 110.861 432.962 113.053C434.809 114.071 436.9 114.185 439.365 113.403C443.186 112.256 446.629 110.107 449.335 107.18C449.474 107.024 449.669 106.929 449.878 106.916C450.087 106.904 450.292 106.975 450.449 107.113C450.606 107.252 450.701 107.447 450.713 107.655C450.726 107.864 450.655 108.069 450.516 108.225C447.623 111.364 443.937 113.671 439.845 114.903C438.717 115.272 437.539 115.464 436.353 115.473Z" fill="#262424"/>
<path d="M458.021 93.194C457.213 94.863 456.26 96.4588 455.175 97.9632L449.76 99.1418L447.997 95.4607C447.997 95.4607 444.504 95.8536 443.425 93.6182C443.398 93.5674 443.374 93.5149 443.354 93.4611C443.051 92.7265 441.811 89.4225 441.504 84.0325C441.504 84.0325 433.739 88.9943 429.274 90.1729C427.667 90.5972 425.667 90.2672 423.761 89.6661C419.938 88.464 415.937 83.1682 415.949 79.169C415.949 79.1428 415.949 79.1166 415.949 79.0904C416.036 73.1975 419.639 76.7333 419.639 76.7333C419.639 76.7333 419.776 71.9954 422.619 71.2333C425.462 70.4711 427.966 74.4272 427.966 74.4272C433.319 72.2767 439.029 71.148 444.799 71.0997C456.246 71.0722 454.643 79.1886 454.643 79.1886C454.643 79.1886 463.282 80.5361 458.021 93.194Z" fill="#262424"/>
<path d="M450.844 98.3808C449.706 94.1536 452.116 89.6947 456.356 88.5358C457.252 88.2854 458.188 88.2081 459.113 88.3079C464.672 88.9208 465.2 101.532 451.994 102.608L450.844 98.3808Z" fill="white"/>
<path d="M451.993 103.389C451.784 103.397 451.581 103.323 451.427 103.181C451.273 103.04 451.182 102.843 451.174 102.635C451.166 102.426 451.241 102.223 451.383 102.07C451.524 101.917 451.721 101.826 451.93 101.818C459.301 101.216 461.975 96.9854 462.026 93.544C462.061 91.1554 460.797 89.2775 459.026 89.0811C458.2 88.9923 457.364 89.0616 456.565 89.2854C454.735 89.8214 453.191 91.0553 452.268 92.7196C451.344 94.3839 451.115 96.3443 451.631 98.1758C451.666 98.2782 451.68 98.3869 451.672 98.495C451.663 98.6031 451.632 98.7082 451.581 98.8038C451.529 98.8993 451.459 98.9833 451.373 99.0502C451.288 99.1172 451.189 99.1659 451.084 99.1931C450.979 99.2202 450.869 99.2254 450.762 99.2082C450.655 99.1911 450.552 99.1519 450.461 99.0933C450.369 99.0346 450.291 98.9577 450.231 98.8674C450.171 98.7771 450.13 98.6754 450.111 98.5686C448.847 93.8543 451.56 89.0222 456.163 87.7611C457.155 87.4847 458.191 87.3993 459.215 87.5097C461.809 87.7964 463.66 90.3382 463.617 93.5557C463.554 97.9793 459.959 102.733 452.076 103.377H452.009L451.993 103.389Z" fill="#262424"/>
<path d="M501.623 101.738C504.447 101.738 506.737 99.4529 506.737 96.6345C506.737 93.816 504.447 91.5312 501.623 91.5312C498.798 91.5312 496.508 93.816 496.508 96.6345C496.508 99.4529 498.798 101.738 501.623 101.738Z" fill="#3257FB"/>
<path d="M383.002 78.5704C382.793 78.5704 382.593 78.4876 382.445 78.3403C382.298 78.1929 382.215 77.993 382.215 77.7847V72.4732C382.215 72.2648 382.298 72.065 382.445 71.9176C382.593 71.7703 382.793 71.6875 383.002 71.6875C383.211 71.6875 383.412 71.7703 383.559 71.9176C383.707 72.065 383.79 72.2648 383.79 72.4732V77.7847C383.79 77.993 383.707 78.1929 383.559 78.3403C383.412 78.4876 383.211 78.5704 383.002 78.5704Z" fill="#262424"/>
<path d="M391.064 81.3019H385.721C385.512 81.3019 385.312 81.2191 385.164 81.0718C385.017 80.9244 384.934 80.7246 384.934 80.5162C384.934 80.3078 385.017 80.1079 385.164 79.9606C385.312 79.8132 385.512 79.7305 385.721 79.7305H391.064C391.168 79.7305 391.27 79.7508 391.366 79.7903C391.461 79.8298 391.548 79.8876 391.621 79.9606C391.694 80.0336 391.752 80.1202 391.792 80.2155C391.831 80.3108 391.852 80.413 391.852 80.5162C391.852 80.6194 391.831 80.7215 391.792 80.8169C391.752 80.9122 391.694 80.9988 391.621 81.0718C391.548 81.1447 391.461 81.2026 391.366 81.2421C391.27 81.2816 391.168 81.3019 391.064 81.3019Z" fill="#262424"/>
<path d="M383.002 89.34C382.793 89.34 382.593 89.2573 382.445 89.1099C382.298 88.9626 382.215 88.7627 382.215 88.5543V83.2232C382.215 83.0148 382.298 82.815 382.445 82.6676C382.593 82.5203 382.793 82.4375 383.002 82.4375C383.211 82.4375 383.412 82.5203 383.559 82.6676C383.707 82.815 383.79 83.0148 383.79 83.2232V88.5543C383.79 88.7627 383.707 88.9626 383.559 89.1099C383.412 89.2573 383.211 89.34 383.002 89.34Z" fill="#262424"/>
<path d="M380.291 81.3019H374.948C374.739 81.3019 374.539 81.2191 374.391 81.0718C374.243 80.9244 374.16 80.7246 374.16 80.5162C374.16 80.3078 374.243 80.1079 374.391 79.9606C374.539 79.8132 374.739 79.7305 374.948 79.7305H380.291C380.5 79.7305 380.7 79.8132 380.848 79.9606C380.995 80.1079 381.078 80.3078 381.078 80.5162C381.078 80.7246 380.995 80.9244 380.848 81.0718C380.7 81.2191 380.5 81.3019 380.291 81.3019Z" fill="#262424"/>
<path d="M361.571 454.646C361.362 454.646 361.162 454.563 361.014 454.416C360.866 454.269 360.783 454.069 360.783 453.861V449.311C360.783 449.103 360.866 448.903 361.014 448.756C361.162 448.608 361.362 448.525 361.571 448.525C361.78 448.525 361.98 448.608 362.127 448.756C362.275 448.903 362.358 449.103 362.358 449.311V453.861C362.358 454.069 362.275 454.269 362.127 454.416C361.98 454.563 361.78 454.646 361.571 454.646Z" fill="#262424"/>
<path d="M368.447 456.96H363.887C363.678 456.96 363.478 456.877 363.33 456.73C363.183 456.583 363.1 456.383 363.1 456.174C363.1 455.966 363.183 455.766 363.33 455.619C363.478 455.471 363.678 455.389 363.887 455.389H368.447C368.656 455.389 368.856 455.471 369.004 455.619C369.151 455.766 369.234 455.966 369.234 456.174C369.234 456.383 369.151 456.583 369.004 456.73C368.856 456.877 368.656 456.96 368.447 456.96Z" fill="#262424"/>
<path d="M361.571 463.818C361.362 463.818 361.162 463.735 361.014 463.588C360.866 463.441 360.783 463.241 360.783 463.032V458.463C360.783 458.255 360.866 458.055 361.014 457.908C361.162 457.761 361.362 457.678 361.571 457.678C361.78 457.678 361.98 457.761 362.128 457.908C362.275 458.055 362.358 458.255 362.358 458.463V463.013C362.361 463.118 362.342 463.222 362.304 463.319C362.266 463.417 362.208 463.506 362.135 463.581C362.061 463.656 361.974 463.716 361.877 463.756C361.78 463.797 361.676 463.818 361.571 463.818Z" fill="#262424"/>
<path d="M359.253 456.96H354.698C354.489 456.96 354.288 456.877 354.141 456.73C353.993 456.583 353.91 456.383 353.91 456.174C353.91 455.966 353.993 455.766 354.141 455.619C354.288 455.471 354.489 455.389 354.698 455.389H359.257C359.361 455.389 359.463 455.409 359.558 455.449C359.654 455.489 359.741 455.547 359.814 455.62C359.886 455.693 359.944 455.78 359.984 455.876C360.023 455.971 360.043 456.073 360.043 456.176C360.043 456.28 360.022 456.382 359.982 456.477C359.942 456.572 359.884 456.659 359.811 456.731C359.737 456.804 359.65 456.862 359.555 456.901C359.459 456.94 359.357 456.96 359.253 456.96Z" fill="#262424"/>
</svg>
