<svg
            width="30"
            height="25"
            viewBox="0 0 30 25"
            fill="none"
            xmlns="http://www.w3.org/2000/svg"
          >
            <path
              d="M30 3.17704C28.8968 3.66664 27.7116 3.99745 26.4657 4.14698C27.7513 3.37658 28.713 2.16406 29.1716 0.735665C27.9638 1.45417 26.6419 1.95992 25.2634 2.23093C24.3364 1.23964 23.1085 0.582601 21.7704 0.361816C20.4324 0.141031 19.059 0.368852 17.8634 1.00991C16.6679 1.65097 15.7171 2.6694 15.1588 3.90708C14.6004 5.14476 14.4656 6.53245 14.7754 7.85469C12.328 7.73163 9.93389 7.09456 7.74829 5.98483C5.5627 4.8751 3.63451 3.31752 2.08888 1.41316C1.56038 2.3262 1.2565 3.38479 1.2565 4.51219C1.25591 5.52711 1.50546 6.52648 1.98302 7.42164C2.46057 8.3168 3.15136 9.08006 3.9941 9.64371C3.01675 9.61257 2.06096 9.34808 1.20629 8.87226V8.95166C1.20619 10.3751 1.69783 11.7548 2.59779 12.8565C3.49775 13.9583 4.7506 14.7143 6.14375 14.9962C5.2371 15.242 4.28654 15.2782 3.36387 15.1021C3.75693 16.3269 4.52259 17.3979 5.55364 18.1653C6.5847 18.9326 7.82954 19.3579 9.11389 19.3814C6.93363 21.0956 4.24102 22.0254 1.46922 22.0213C0.978219 22.0214 0.487637 21.9927 0 21.9353C2.81354 23.747 6.08871 24.7086 9.43363 24.7048C20.7566 24.7048 26.9466 15.3125 26.9466 7.16661C26.9466 6.90196 26.94 6.63467 26.9281 6.37002C28.1322 5.49797 29.1715 4.4181 29.9974 3.18101L30 3.17704Z"
              fill="white"
            />
          </svg>