<svg width="25" height="21" viewBox="0 0 25 21" fill="none" xmlns="http://www.w3.org/2000/svg">
<path d="M25 2.41438C24.0806 2.82238 23.093 3.09805 22.0547 3.22266C23.126 2.58066 23.9275 1.57023 24.3097 0.3799C23.3031 0.978655 22.2016 1.40011 21.0528 1.62595C20.2803 0.79988 19.2571 0.252347 18.142 0.068359C17.027 -0.115629 15.8825 0.0742226 14.8862 0.608438C13.8899 1.14265 13.0976 1.99134 12.6323 3.02274C12.167 4.05415 12.0547 5.21055 12.3128 6.31242C10.2734 6.20987 8.27824 5.67898 6.45691 4.7542C4.63558 3.82943 3.02876 2.53144 1.74073 0.944483C1.30032 1.70535 1.04708 2.5875 1.04708 3.527C1.04659 4.37277 1.25455 5.20558 1.65251 5.95155C2.05048 6.69751 2.62614 7.33357 3.32842 7.80327C2.51396 7.77732 1.71747 7.55691 1.00524 7.1604V7.22656C1.00516 8.41278 1.41486 9.5625 2.16483 10.4806C2.91479 11.3988 3.95883 12.0287 5.11979 12.2637C4.36425 12.4685 3.57211 12.4986 2.80322 12.3519C3.13078 13.3726 3.76882 14.2651 4.62804 14.9046C5.48725 15.544 6.52462 15.8984 7.59491 15.918C5.77803 17.3465 3.53418 18.1213 1.22435 18.1179C0.815182 18.118 0.406364 18.0941 0 18.0462C2.34462 19.556 5.07392 20.3573 7.86136 20.3542C17.2972 20.3542 22.4555 12.5272 22.4555 5.73902C22.4555 5.51848 22.45 5.29573 22.4401 5.07519C23.4435 4.34849 24.3096 3.4486 24.9978 2.41769L25 2.41438V2.41438Z" fill="#2A2A2A"/>
</svg>
