<svg width="47" height="48" viewBox="0 0 47 48" fill="none" xmlns="http://www.w3.org/2000/svg">
<g filter="url(#filter0_d)">
<circle cx="21.5" cy="22" r="13.5" fill="#3257FB"/>
</g>
<path d="M18.1967 20.3204C18.0966 20.3204 18.0005 20.3602 17.9297 20.431C17.8589 20.5018 17.8191 20.5979 17.8191 20.698C17.8191 20.7982 17.8589 20.8942 17.9297 20.9651C18.0005 21.0359 18.0966 21.0757 18.1967 21.0757H23.4834C23.5836 21.0757 23.6796 21.0359 23.7504 20.9651C23.8213 20.8942 23.861 20.7982 23.861 20.698C23.861 20.5979 23.8213 20.5018 23.7504 20.431C23.6796 20.3602 23.5836 20.3204 23.4834 20.3204H18.1967ZM18.1967 21.8309C18.0966 21.8309 18.0005 21.8707 17.9297 21.9415C17.8589 22.0123 17.8191 22.1084 17.8191 22.2085V23.719C17.8191 23.8192 17.8589 23.9152 17.9297 23.986C18.0005 24.0569 18.0966 24.0966 18.1967 24.0966H19.7072C19.8073 24.0966 19.9034 24.0569 19.9742 23.986C20.045 23.9152 20.0848 23.8192 20.0848 23.719V22.2085C20.0848 22.1084 20.045 22.0123 19.9742 21.9415C19.9034 21.8707 19.8073 21.8309 19.7072 21.8309H18.1967ZM18.5743 23.3414V22.5862H19.3296V23.3414H18.5743ZM21.2177 21.8309C21.1175 21.8309 21.0215 21.8707 20.9507 21.9415C20.8798 22.0123 20.8401 22.1084 20.8401 22.2085C20.8401 22.3087 20.8798 22.4047 20.9507 22.4756C21.0215 22.5464 21.1175 22.5862 21.2177 22.5862H23.4834C23.5836 22.5862 23.6796 22.5464 23.7504 22.4756C23.8213 22.4047 23.861 22.3087 23.861 22.2085C23.861 22.1084 23.8213 22.0123 23.7504 21.9415C23.6796 21.8707 23.5836 21.8309 23.4834 21.8309H21.2177ZM21.2177 23.3414C21.1175 23.3414 21.0215 23.3812 20.9507 23.452C20.8798 23.5228 20.8401 23.6189 20.8401 23.719C20.8401 23.8192 20.8798 23.9152 20.9507 23.986C21.0215 24.0569 21.1175 24.0966 21.2177 24.0966H23.4834C23.5836 24.0966 23.6796 24.0569 23.7504 23.986C23.8213 23.9152 23.861 23.8192 23.861 23.719C23.861 23.6189 23.8213 23.5228 23.7504 23.452C23.6796 23.3812 23.5836 23.3414 23.4834 23.3414H21.2177ZM16.3086 19.5652C16.3086 19.1646 16.4677 18.7804 16.751 18.4971C17.0343 18.2138 17.4185 18.0547 17.8191 18.0547H23.861C24.2616 18.0547 24.6458 18.2138 24.9291 18.4971C25.2124 18.7804 25.3715 19.1646 25.3715 19.5652C25.7721 19.5652 26.1563 19.7243 26.4396 20.0076C26.7229 20.2909 26.882 20.6751 26.882 21.0757V24.4743C26.882 24.975 26.6831 25.4553 26.329 25.8094C25.9749 26.1635 25.4947 26.3624 24.9939 26.3624H18.1967C17.6959 26.3624 17.2157 26.1635 16.8616 25.8094C16.5075 25.4553 16.3086 24.975 16.3086 24.4743V19.5652ZM24.9939 24.4743C24.8938 24.4743 24.7977 24.4345 24.7269 24.3637C24.6561 24.2928 24.6163 24.1968 24.6163 24.0966V19.5652C24.6163 19.3649 24.5367 19.1728 24.3951 19.0311C24.2534 18.8895 24.0613 18.8099 23.861 18.8099H17.8191C17.6188 18.8099 17.4267 18.8895 17.285 19.0311C17.1434 19.1728 17.0638 19.3649 17.0638 19.5652V24.4743C17.0638 24.7747 17.1832 25.0629 17.3956 25.2753C17.6081 25.4878 17.8963 25.6071 18.1967 25.6071H24.9939C25.2944 25.6071 25.5825 25.4878 25.795 25.2753C26.0074 25.0629 26.1268 24.7747 26.1268 24.4743V21.0757C26.1268 20.8754 26.0472 20.6833 25.9056 20.5416C25.7639 20.4 25.5718 20.3204 25.3715 20.3204V24.0966C25.3715 24.1968 25.3317 24.2928 25.2609 24.3637C25.1901 24.4345 25.0941 24.4743 24.9939 24.4743Z" fill="white"/>
<defs>
<filter id="filter0_d" x="0" y="0.5" width="47" height="47" filterUnits="userSpaceOnUse" color-interpolation-filters="sRGB">
<feFlood flood-opacity="0" result="BackgroundImageFix"/>
<feColorMatrix in="SourceAlpha" type="matrix" values="0 0 0 0 0 0 0 0 0 0 0 0 0 0 0 0 0 0 127 0" result="hardAlpha"/>
<feOffset dx="2" dy="2"/>
<feGaussianBlur stdDeviation="5"/>
<feComposite in2="hardAlpha" operator="out"/>
<feColorMatrix type="matrix" values="0 0 0 0 0.323375 0 0 0 0 0.282344 0 0 0 0 0.4875 0 0 0 0.1 0"/>
<feBlend mode="normal" in2="BackgroundImageFix" result="effect1_dropShadow"/>
<feBlend mode="normal" in="SourceGraphic" in2="effect1_dropShadow" result="shape"/>
</filter>
</defs>
</svg>
