<svg width="89" height="89" fill="none" xmlns="http://www.w3.org/2000/svg"><g filter="url(#prefix__filter0_d)"><circle cx="42.5" cy="42.5" r="32.5" fill="#FE6A6A"/><circle cx="42.5" cy="42.5" r="32.5" stroke="#fff" stroke-width="4"/></g><path d="M38.262 57.488h9.479M43 57.49v-7.584M50.587 43.27c0-3-.005-7.975-.007-9.478a.948.948 0 00-.948-.948l-13.258.015a.948.948 0 00-.948.945c0 1.812-.008 7.653-.008 9.467 0 3.808 4.917 6.635 7.583 6.635 2.666 0 7.586-2.827 7.586-6.635zM35.415 35.688h-4.74v.947c0 3.272 1.988 6.636 4.74 6.636" stroke="#fff" stroke-width="2" stroke-linecap="round" stroke-linejoin="round"/><path d="M50.582 35.688h4.74v.947c0 3.272-1.988 6.636-4.74 6.636" stroke="#fff" stroke-width="2" stroke-linecap="round" stroke-linejoin="round"/><defs><filter id="prefix__filter0_d" x="0" y="0" width="89" height="89" filterUnits="userSpaceOnUse" color-interpolation-filters="sRGB"><feFlood flood-opacity="0" result="BackgroundImageFix"/><feColorMatrix in="SourceAlpha" values="0 0 0 0 0 0 0 0 0 0 0 0 0 0 0 0 0 0 127 0" result="hardAlpha"/><feOffset dx="2" dy="2"/><feGaussianBlur stdDeviation="5"/><feComposite in2="hardAlpha" operator="out"/><feColorMatrix values="0 0 0 0 0.323375 0 0 0 0 0.282344 0 0 0 0 0.4875 0 0 0 0.1 0"/><feBlend in2="BackgroundImageFix" result="effect1_dropShadow"/><feBlend in="SourceGraphic" in2="effect1_dropShadow" result="shape"/></filter></defs></svg>