<svg width="47" height="48" viewBox="0 0 47 48" fill="none" xmlns="http://www.w3.org/2000/svg">
<g filter="url(#filter0_d)">
<circle cx="21.5" cy="22" r="13.5" fill="#3257FB"/>
</g>
<path fill-rule="evenodd" clip-rule="evenodd" d="M21.0391 17.2754C21.1648 17.2754 21.2854 17.3254 21.3742 17.4144C21.4631 17.5034 21.5131 17.6241 21.5131 17.75V19.1738H23.8096C24.0712 19.1738 24.324 19.2669 24.5237 19.4358L25.8318 20.5432C25.9545 20.6472 26.0531 20.7767 26.1208 20.9227C26.1884 21.0687 26.2234 21.2277 26.2234 21.3887C26.2234 21.5496 26.1884 21.7086 26.1208 21.8547C26.0531 22.0007 25.9545 22.1302 25.8318 22.2341L24.5237 23.3415C24.3241 23.5106 24.0711 23.6035 23.8096 23.6035H21.5131V26.9258C21.5131 27.0517 21.4631 27.1724 21.3742 27.2614C21.2854 27.3504 21.1648 27.4004 21.0391 27.4004C20.9134 27.4004 20.7929 27.3504 20.704 27.2614C20.6151 27.1724 20.5651 27.0517 20.5651 26.9258V23.6035H17.8794C17.586 23.6035 17.3048 23.4868 17.0974 23.2792C16.89 23.0715 16.7734 22.7898 16.7734 22.4961V20.2812C16.7734 19.67 17.2689 19.1738 17.8794 19.1738H20.5651V17.75C20.5651 17.6241 20.6151 17.5034 20.704 17.4144C20.7929 17.3254 20.9134 17.2754 21.0391 17.2754ZM21.0391 22.6543H23.8096C23.8469 22.6541 23.883 22.6406 23.9113 22.6163L25.2195 21.5089C25.2368 21.4941 25.2507 21.4756 25.2603 21.4549C25.2698 21.4341 25.2748 21.4115 25.2748 21.3887C25.2748 21.3658 25.2698 21.3432 25.2603 21.3225C25.2507 21.3017 25.2368 21.2833 25.2195 21.2684L23.9113 20.161C23.883 20.1367 23.8469 20.1233 23.8096 20.123H17.8794C17.8375 20.123 17.7973 20.1397 17.7676 20.1694C17.738 20.1991 17.7214 20.2393 17.7214 20.2812V22.4961C17.7214 22.5834 17.7921 22.6543 17.8794 22.6543H21.0391Z" fill="white"/>
<defs>
<filter id="filter0_d" x="0" y="0.5" width="47" height="47" filterUnits="userSpaceOnUse" color-interpolation-filters="sRGB">
<feFlood flood-opacity="0" result="BackgroundImageFix"/>
<feColorMatrix in="SourceAlpha" type="matrix" values="0 0 0 0 0 0 0 0 0 0 0 0 0 0 0 0 0 0 127 0" result="hardAlpha"/>
<feOffset dx="2" dy="2"/>
<feGaussianBlur stdDeviation="5"/>
<feComposite in2="hardAlpha" operator="out"/>
<feColorMatrix type="matrix" values="0 0 0 0 0.323375 0 0 0 0 0.282344 0 0 0 0 0.4875 0 0 0 0.1 0"/>
<feBlend mode="normal" in2="BackgroundImageFix" result="effect1_dropShadow"/>
<feBlend mode="normal" in="SourceGraphic" in2="effect1_dropShadow" result="shape"/>
</filter>
</defs>
</svg>
