<svg width="222" height="208" viewBox="0 0 222 208" fill="none" xmlns="http://www.w3.org/2000/svg">
<path d="M153.374 39.5991H28.0172V205.889H153.374V39.5991Z" fill="white"/>
<path d="M187.669 65.9742C179.457 51.4175 181.798 24.76 166.371 15.6013C150.944 6.44257 128.674 21.2679 111.969 21.0249C94.7386 20.7946 72.6732 5.61112 57.656 14.0151C43.1121 22.061 44.5447 48.3987 35.4627 63.7229C26.3808 79.0471 2.57577 90.406 2.43507 107.061C2.29436 124.24 26.1889 136.353 34.6569 151.37C42.869 165.927 40.5282 192.585 55.9547 201.743C71.3813 210.902 93.6513 196.077 110.357 196.32C127.587 196.55 149.652 211.669 164.67 203.381C179.214 195.284 177.781 168.946 186.863 153.622C195.945 138.297 219.75 126.939 219.891 110.284C220.031 93.105 196.137 80.9914 187.669 65.9742Z" fill="white"/>
<path d="M179.437 63.5346C178.933 62.6592 178.668 61.6666 178.669 60.6566C178.673 59.1084 179.29 57.6248 180.386 56.5313C181.482 55.4378 182.967 54.8236 184.515 54.8236C185.964 54.8225 187.361 55.3657 188.429 56.3458C188.777 53.6966 190.119 51.2786 192.183 49.5823C194.248 47.8859 196.88 47.038 199.546 47.2104C202.213 47.3829 204.714 48.5628 206.543 50.5109C208.371 52.4591 209.391 55.0297 209.394 57.7017C209.39 58.3543 209.325 59.0051 209.203 59.646C209.803 59.5127 210.417 59.4441 211.032 59.4414C213.326 59.5285 215.498 60.5012 217.09 62.1553C218.683 63.8094 219.572 66.0162 219.572 68.3123C219.572 70.6083 218.683 72.8151 217.09 74.4692C215.498 76.1233 213.326 77.096 211.032 77.1832H180.741C179.023 77.1897 177.364 76.5529 176.092 75.3983C174.819 74.2436 174.024 72.6545 173.864 70.9436C173.703 69.2326 174.189 67.5235 175.225 66.1525C176.261 64.7814 177.773 63.8476 179.462 63.5346H179.437Z" fill="white"/>
<path d="M211.027 78.4604H180.736C178.834 78.4713 176.987 77.8172 175.516 76.6111C174.044 75.405 173.041 73.7227 172.678 71.855C172.316 69.9873 172.617 68.0516 173.53 66.3825C174.443 64.7134 175.911 63.4158 177.679 62.7141C177.475 62.0468 177.371 61.3526 177.372 60.6546C177.379 58.7682 178.132 56.9613 179.467 55.6286C180.802 54.2959 182.611 53.5459 184.497 53.5425C185.561 53.5412 186.61 53.7817 187.567 54.2461C188.435 51.5948 190.214 49.3366 192.589 47.8719C194.963 46.4073 197.78 45.8308 200.539 46.2446C203.298 46.6584 205.821 48.0359 207.661 50.1328C209.501 52.2297 210.54 54.9104 210.592 57.6998C210.592 57.8533 210.592 58.0196 210.592 58.1731H210.963C213.592 58.2664 216.083 59.3767 217.91 61.27C219.738 63.1633 220.759 65.6919 220.759 68.3231C220.759 70.9544 219.738 73.483 217.91 75.3763C216.083 77.2696 213.592 78.3798 210.963 78.4732L211.027 78.4604ZM184.51 56.1008C183.301 56.1008 182.141 56.5802 181.285 57.4338C180.429 58.2875 179.947 59.4457 179.943 60.6546C179.943 61.4448 180.15 62.2212 180.545 62.9059C180.643 63.0832 180.699 63.2814 180.706 63.4842C180.713 63.687 180.671 63.8886 180.585 64.0724C180.499 64.2561 180.37 64.4166 180.21 64.5408C180.049 64.6649 179.861 64.7491 179.662 64.7863C178.304 65.0652 177.097 65.8365 176.274 66.9518C175.451 68.067 175.069 69.4474 175.202 70.8272C175.336 72.207 175.975 73.4887 176.996 74.4256C178.018 75.3625 179.35 75.8884 180.736 75.9021H211.027C212.085 75.8961 213.131 75.6686 214.096 75.2342C215.062 74.7998 215.926 74.1681 216.632 73.3798C217.339 72.5915 217.873 71.664 218.199 70.657C218.526 69.65 218.638 68.5858 218.529 67.5328C218.419 66.4799 218.09 65.4614 217.564 64.5431C217.037 63.6248 216.324 62.8269 215.47 62.2007C214.617 61.5745 213.642 61.1339 212.608 60.9073C211.573 60.6807 210.503 60.6731 209.466 60.8849C209.26 60.9299 209.045 60.923 208.842 60.865C208.639 60.807 208.454 60.6995 208.302 60.5523C208.152 60.4046 208.041 60.2223 207.979 60.0215C207.916 59.8207 207.904 59.6076 207.944 59.4011C208.049 58.8399 208.104 58.2706 208.11 57.6998C208.11 55.3501 207.216 53.0884 205.609 51.3741C204.002 49.6599 201.803 48.6216 199.458 48.4701C197.113 48.3187 194.799 49.0655 192.984 50.5588C191.17 52.0521 189.993 54.18 189.69 56.5102C189.661 56.741 189.569 56.9595 189.425 57.142C189.281 57.3246 189.09 57.4644 188.872 57.5463C188.655 57.6223 188.422 57.6387 188.197 57.5937C187.972 57.5487 187.763 57.4439 187.593 57.2905C186.751 56.5209 185.65 56.0962 184.51 56.1008Z" fill="#898796"/>
<path d="M45.9265 16.2169C45.4657 15.4032 45.2263 14.4829 45.2322 13.5478C45.2382 12.6127 45.4893 11.6955 45.9605 10.8877C46.4317 10.08 47.1065 9.40995 47.9175 8.94448C48.7286 8.479 49.6475 8.23438 50.5826 8.23502C51.9139 8.22911 53.198 8.72723 54.1771 9.62929C54.5284 7.2282 55.7719 5.04778 57.6596 3.52292C59.5473 1.99805 61.9405 1.24082 64.3618 1.40224C66.7831 1.56365 69.0545 2.63187 70.7231 4.39382C72.3917 6.15577 73.3348 8.48196 73.3643 10.9084C73.3615 11.5049 73.3059 12.0999 73.198 12.6865C73.7445 12.5687 74.3019 12.5087 74.8609 12.5074C75.9556 12.4639 77.0477 12.642 78.0718 13.031C79.096 13.4199 80.031 14.0117 80.8209 14.7709C81.6107 15.53 82.2391 16.4408 82.6683 17.4487C83.0976 18.4566 83.3188 19.5409 83.3188 20.6364C83.3188 21.7319 83.0976 22.8161 82.6683 23.824C82.2391 24.8319 81.6107 25.7428 80.8209 26.5019C80.031 27.261 79.096 27.8528 78.0718 28.2418C77.0477 28.6307 75.9556 28.8088 74.8609 28.7654H47.1289C45.4947 28.8692 43.8842 28.3334 42.638 27.2711C41.3918 26.2088 40.6077 24.7034 40.4515 23.0734C40.2953 21.4433 40.7793 19.8165 41.8011 18.5369C42.8229 17.2572 44.3023 16.4253 45.9265 16.2169Z" fill="white"/>
<path d="M74.8925 30.0055H47.1349C45.3806 30.0019 43.6816 29.3914 42.3262 28.2776C40.9708 27.1638 40.0426 25.6153 39.6991 23.8949C39.3557 22.1746 39.6181 20.3883 40.4419 18.8395C41.2656 17.2906 42.6 16.0745 44.2185 15.3976C43.9369 14.4097 43.8888 13.3699 44.0781 12.3602C44.2674 11.3506 44.6888 10.3988 45.3091 9.57997C45.9294 8.76117 46.7316 8.09781 47.6523 7.64227C48.573 7.18674 49.587 6.95151 50.6142 6.95517C51.5598 6.97714 52.4894 7.20408 53.3388 7.62033C54.126 5.13937 55.7731 3.021 57.9836 1.64675C60.1941 0.2725 62.8226 -0.267319 65.3958 0.124519C67.9689 0.516358 70.3176 1.8141 72.0189 3.78402C73.7201 5.75394 74.662 8.26657 74.675 10.8694V11.1892C75.9377 11.1303 77.1994 11.3264 78.3847 11.7656C79.57 12.2049 80.6547 12.8783 81.5741 13.7458C82.4935 14.6133 83.2288 15.657 83.7362 16.8148C84.2435 17.9726 84.5125 19.2207 84.5272 20.4847C84.5418 21.7487 84.3017 23.0027 83.8212 24.1719C83.3408 25.3411 82.6298 26.4016 81.7306 27.2901C80.8315 28.1786 79.7626 28.8769 78.5878 29.3434C77.413 29.8099 76.1562 30.0351 74.8925 30.0055ZM50.5886 9.53905C49.8781 9.54184 49.1806 9.73013 48.5652 10.0853C47.9497 10.4404 47.4377 10.9501 47.0797 11.5639C46.7218 12.1777 46.5303 12.8744 46.5243 13.5849C46.5183 14.2954 46.6979 14.9952 47.0454 15.615C47.1375 15.7952 47.1855 15.9947 47.1855 16.197C47.1855 16.3994 47.1375 16.5989 47.0454 16.779C46.9597 16.9629 46.8315 17.1238 46.6713 17.2483C46.5112 17.3729 46.3237 17.4576 46.1244 17.4954C44.9051 17.7446 43.8211 18.4362 43.0812 19.4369C42.3413 20.4376 41.9978 21.6767 42.1169 22.9155C42.236 24.1543 42.8093 25.3053 43.7263 26.1467C44.6434 26.9881 45.8393 27.4604 47.0838 27.4727H74.8413C75.798 27.4708 76.7436 27.2684 77.6171 26.8784C78.4907 26.4885 79.2728 25.9197 79.9129 25.2088C80.5531 24.498 81.0371 23.6608 81.3337 22.7513C81.6304 21.8418 81.733 20.8802 81.6351 19.9286C81.5371 18.977 81.2408 18.0565 80.7651 17.2265C80.2894 16.3965 79.645 15.6755 78.8735 15.1099C78.1019 14.5443 77.2204 14.1468 76.2857 13.943C75.351 13.7392 74.384 13.7336 73.4471 13.9265C73.2406 13.9725 73.0259 13.9664 72.8223 13.909C72.6187 13.8516 72.4325 13.7446 72.2804 13.5976C72.1283 13.4505 72.015 13.2681 71.9508 13.0665C71.8865 12.865 71.8732 12.6507 71.9121 12.4427C72.0119 11.9328 72.0633 11.4146 72.0656 10.895C72.0125 8.80703 71.1802 6.81449 69.7325 5.30904C68.2848 3.80359 66.3263 2.89413 64.2421 2.75946C62.1578 2.62478 60.0986 3.27463 58.4691 4.58125C56.8397 5.88787 55.758 7.75674 55.4366 9.82047C55.4051 10.049 55.3124 10.2648 55.1683 10.4449C55.0242 10.6251 54.834 10.7629 54.618 10.8438C54.4025 10.9215 54.1702 10.9399 53.9451 10.8972C53.7201 10.8544 53.5107 10.7521 53.3388 10.6007C52.5923 9.90395 51.6098 9.5155 50.5886 9.51347V9.53905Z" fill="#898796"/>
<path d="M35.8434 126.415C36.2589 125.687 36.4751 124.862 36.4702 124.023C36.4689 123.09 36.1972 122.178 35.6878 121.397C35.1785 120.615 34.4534 119.998 33.6005 119.62C32.7476 119.243 31.8034 119.12 30.8824 119.268C29.9614 119.416 29.1031 119.828 28.4115 120.454C28.1434 118.252 27.0423 116.235 25.3342 114.818C23.626 113.402 21.4404 112.693 19.226 112.837C17.0116 112.981 14.9362 113.967 13.426 115.593C11.9157 117.219 11.0851 119.361 11.1046 121.58C11.1095 122.117 11.1609 122.652 11.2581 123.179C10.7664 123.072 10.2648 123.016 9.76152 123.013C8.77408 122.971 7.78849 123.13 6.86402 123.48C5.93955 123.829 5.09529 124.362 4.38201 125.046C3.66873 125.73 3.10117 126.551 2.71345 127.46C2.32572 128.37 2.12585 129.348 2.12585 130.336C2.12585 131.324 2.32572 132.302 2.71345 133.211C3.10117 134.12 3.66873 134.942 4.38201 135.626C5.09529 136.31 5.93955 136.843 6.86402 137.192C7.78849 137.541 8.77408 137.7 9.76152 137.659H34.7689C36.1943 137.677 37.5744 137.159 38.6352 136.207C39.696 135.254 40.3599 133.938 40.4952 132.519C40.6305 131.1 40.2273 129.682 39.3655 128.547C38.5038 127.411 37.2465 126.641 35.8434 126.39V126.415Z" fill="white"/>
<path d="M34.7729 138.964H9.76553C8.60796 139.008 7.45328 138.819 6.37065 138.407C5.28802 137.994 4.29973 137.368 3.46495 136.565C2.63018 135.762 1.9661 134.798 1.51249 133.732C1.05888 132.666 0.825073 131.52 0.825073 130.361C0.825073 129.203 1.05888 128.056 1.51249 126.99C1.9661 125.925 2.63018 124.961 3.46495 124.158C4.29973 123.355 5.28802 122.728 6.37065 122.316C7.45328 121.904 8.60796 121.714 9.76553 121.759V121.606C9.66652 119.171 10.463 116.784 12.0044 114.897C13.5459 113.01 15.7253 111.753 18.1307 111.364C20.5362 110.975 23.0008 111.481 25.0585 112.786C27.1163 114.091 28.6246 116.104 29.2982 118.446C30.0564 118.115 30.8754 117.945 31.703 117.947C33.3069 117.964 34.8399 118.61 35.9717 119.747C37.1035 120.883 37.7434 122.419 37.7533 124.023C37.7563 124.55 37.6874 125.075 37.5487 125.584C39.0244 126.216 40.236 127.34 40.978 128.763C41.7201 130.187 41.947 131.824 41.6203 133.396C41.2935 134.968 40.4333 136.378 39.1853 137.388C37.9373 138.398 36.3785 138.946 34.7729 138.938V138.964ZM9.76553 124.317C8.94843 124.28 8.1322 124.408 7.36615 124.695C6.60011 124.982 5.90017 125.421 5.30863 125.986C4.7171 126.551 4.24626 127.23 3.92457 127.982C3.60289 128.734 3.43703 129.543 3.43703 130.361C3.43703 131.179 3.60289 131.989 3.92457 132.741C4.24626 133.493 4.7171 134.172 5.30863 134.737C5.90017 135.302 6.60011 135.741 7.36615 136.028C8.1322 136.314 8.94843 136.443 9.76553 136.405H34.7729C35.87 136.409 36.9287 136.002 37.7415 135.265C38.5543 134.528 39.0626 133.515 39.1667 132.423C39.2707 131.33 38.9631 130.239 38.3041 129.362C37.6451 128.485 36.6823 127.886 35.6044 127.682C35.4038 127.642 35.2155 127.556 35.0552 127.429C34.895 127.302 34.7675 127.139 34.6834 126.952C34.5913 126.772 34.5433 126.573 34.5433 126.37C34.5433 126.168 34.5913 125.969 34.6834 125.788C35.0097 125.257 35.1864 124.647 35.195 124.023C35.178 123.348 34.9683 122.691 34.5906 122.131C34.2128 121.571 33.6829 121.131 33.0631 120.862C32.4434 120.593 31.7597 120.507 31.0926 120.614C30.4256 120.721 29.803 121.016 29.2982 121.465C29.1275 121.618 28.9187 121.723 28.6936 121.768C28.4686 121.813 28.2356 121.797 28.019 121.721C27.8012 121.639 27.6099 121.499 27.4656 121.316C27.3214 121.134 27.2297 120.915 27.2004 120.685C26.979 118.8 26.0427 117.072 24.5846 115.858C23.1266 114.643 21.2579 114.035 19.3643 114.158C17.4707 114.281 15.6965 115.126 14.4079 116.519C13.1193 117.912 12.4145 119.746 12.439 121.644C12.4447 122.103 12.4874 122.561 12.5669 123.013C12.6064 123.219 12.5944 123.432 12.5319 123.633C12.4695 123.834 12.3584 124.016 12.2087 124.164C12.0586 124.309 11.8751 124.415 11.6744 124.473C11.4738 124.531 11.2619 124.539 11.0575 124.496C10.6344 124.391 10.2013 124.331 9.76553 124.317Z" fill="#898796"/>
<path d="M175.817 20.1296C176.13 19.58 176.293 18.9582 176.29 18.326C176.292 17.8384 176.197 17.3555 176.01 16.9052C175.823 16.4549 175.548 16.0464 175.202 15.7035C174.855 15.3605 174.444 15.0901 173.992 14.9078C173.54 14.7256 173.056 14.6352 172.568 14.642C171.653 14.6372 170.771 14.9801 170.099 15.6014C169.89 13.9252 169.048 12.3922 167.747 11.3158C166.445 10.2394 164.781 9.70091 163.095 9.81035C161.41 9.91979 159.829 10.6689 158.678 11.9046C157.526 13.1403 156.889 14.7692 156.899 16.4584C156.898 16.8662 156.936 17.2732 157.014 17.6736C156.635 17.596 156.249 17.5575 155.862 17.5585C155.107 17.5223 154.352 17.6399 153.643 17.9042C152.934 18.1684 152.286 18.5739 151.738 19.0959C151.191 19.6179 150.755 20.2457 150.457 20.9412C150.159 21.6367 150.005 22.3854 150.005 23.142C150.005 23.8985 150.159 24.6472 150.457 25.3427C150.755 26.0382 151.191 26.666 151.738 27.188C152.286 27.71 152.934 28.1155 153.643 28.3797C154.352 28.644 155.107 28.7616 155.862 28.7254H174.999C176.079 28.727 177.12 28.3256 177.92 27.5996C178.719 26.8736 179.219 25.8754 179.322 24.8003C179.424 23.7251 179.122 22.6505 178.474 21.7866C177.825 20.9227 176.878 20.3318 175.817 20.1296Z" fill="white"/>
<path d="M174.995 30.0047H155.936C154.161 29.9662 152.47 29.2424 151.218 27.9848C149.965 26.7272 149.248 25.0336 149.216 23.2589C149.185 21.4841 149.842 19.7662 151.049 18.465C152.256 17.1639 153.92 16.3806 155.693 16.2794C155.698 14.4188 156.36 12.6197 157.561 11.1989C158.762 9.77807 160.426 8.82652 162.26 8.51172C164.094 8.19692 165.98 8.53904 167.586 9.47788C169.193 10.4167 170.417 11.8921 171.042 13.6443C171.573 13.4606 172.131 13.3655 172.692 13.3629C174.007 13.3663 175.266 13.8907 176.194 14.8211C177.122 15.7515 177.643 17.0119 177.643 18.326C177.64 18.6696 177.606 19.0121 177.54 19.3493C178.678 19.9084 179.593 20.836 180.137 21.9812C180.68 23.1263 180.821 24.4218 180.534 25.6567C180.248 26.8916 179.553 27.9934 178.561 28.7829C177.569 29.5723 176.339 30.0029 175.072 30.0047H174.995ZM155.936 18.8377C155.351 18.8058 154.765 18.8935 154.215 19.0954C153.665 19.2973 153.162 19.6092 152.737 20.012C152.311 20.4148 151.973 20.9001 151.741 21.4383C151.51 21.9765 151.39 22.5562 151.39 23.142C151.39 23.7279 151.51 24.3076 151.741 24.8458C151.973 25.3839 152.311 25.8692 152.737 26.2721C153.162 26.6749 153.665 26.9868 154.215 27.1887C154.765 27.3906 155.351 27.4783 155.936 27.4464H174.995C175.759 27.4511 176.497 27.1696 177.064 26.6572C177.631 26.1449 177.985 25.4388 178.057 24.6782C178.13 23.9176 177.914 23.1574 177.454 22.5476C176.994 21.9377 176.322 21.5223 175.571 21.3832C175.371 21.3454 175.184 21.2607 175.024 21.1362C174.864 21.0116 174.735 20.8508 174.65 20.6669C174.558 20.4867 174.51 20.2872 174.51 20.0849C174.51 19.8825 174.558 19.683 174.65 19.5028C174.854 19.1378 174.96 18.7256 174.957 18.307C174.954 17.8884 174.841 17.4779 174.631 17.1161C174.42 16.7544 174.119 16.4538 173.756 16.2443C173.394 16.0347 172.983 15.9233 172.565 15.9212C171.967 15.9193 171.392 16.1432 170.953 16.548C170.782 16.7015 170.573 16.8062 170.348 16.8512C170.123 16.8962 169.89 16.8799 169.674 16.8038C169.456 16.7219 169.265 16.5822 169.12 16.3996C168.976 16.217 168.884 15.9986 168.855 15.7677C168.745 15.074 168.499 14.4087 168.132 13.8098C167.765 13.211 167.284 12.6903 166.715 12.2776C166.147 11.8648 165.503 11.568 164.82 11.4042C164.137 11.2403 163.428 11.2126 162.734 11.3227C162.041 11.4327 161.375 11.6783 160.776 12.0454C160.178 12.4126 159.657 12.8941 159.244 13.4624C158.831 14.0308 158.535 14.6749 158.371 15.358C158.207 16.041 158.179 16.7497 158.289 17.4434C158.329 17.65 158.317 17.8631 158.254 18.0639C158.192 18.2647 158.081 18.447 157.931 18.5946C157.78 18.7419 157.594 18.8493 157.391 18.9074C157.188 18.9654 156.973 18.9722 156.767 18.9272C156.494 18.8699 156.215 18.8399 155.936 18.8377Z" fill="#898796"/>
<path d="M219.896 207.168H2.44016C2.10091 207.168 1.77555 207.033 1.53567 206.793C1.29578 206.553 1.16101 206.228 1.16101 205.889C1.16101 205.549 1.29578 205.224 1.53567 204.984C1.77555 204.744 2.10091 204.609 2.44016 204.609H219.896C220.235 204.609 220.56 204.744 220.8 204.984C221.04 205.224 221.175 205.549 221.175 205.889C221.175 206.228 221.04 206.553 220.8 206.793C220.56 207.033 220.235 207.168 219.896 207.168Z" fill="#898796"/>
<path d="M98.3705 205.889H28.0172V39.5991H143.141L98.3705 205.889Z" fill="white"/>
<path d="M143.142 207.167H28.0183C27.679 207.167 27.3537 207.032 27.1138 206.792C26.8739 206.553 26.7391 206.227 26.7391 205.888V132.976C26.7391 132.637 26.8739 132.312 27.1138 132.072C27.3537 131.832 27.679 131.697 28.0183 131.697C28.3575 131.697 28.6829 131.832 28.9228 132.072C29.1627 132.312 29.2974 132.637 29.2974 132.976V204.609H143.142C143.481 204.609 143.806 204.744 144.046 204.984C144.286 205.223 144.421 205.549 144.421 205.888C144.421 206.227 144.286 206.553 144.046 206.792C143.806 207.032 143.481 207.167 143.142 207.167Z" fill="#34234D"/>
<path d="M28.0183 127.863C27.679 127.863 27.3537 127.728 27.1138 127.488C26.8739 127.248 26.7391 126.923 26.7391 126.584V39.6014C26.7391 39.2622 26.8739 38.9368 27.1138 38.6969C27.3537 38.457 27.679 38.3223 28.0183 38.3223H153.375C153.714 38.3223 154.04 38.457 154.28 38.6969C154.519 38.9368 154.654 39.2622 154.654 39.6014V84.3717C154.654 84.7109 154.519 85.0363 154.28 85.2762C154.04 85.5161 153.714 85.6508 153.375 85.6508C153.036 85.6508 152.71 85.5161 152.471 85.2762C152.231 85.0363 152.096 84.7109 152.096 84.3717V40.8806H29.2974V126.584C29.2974 126.923 29.1627 127.248 28.9228 127.488C28.6829 127.728 28.3575 127.863 28.0183 127.863Z" fill="#34234D"/>
<path d="M65.118 90.7656L72.7929 84.3699L80.0201 90.7656L88.1427 84.3699L95.8177 90.7656L103.493 84.3699L111.167 90.7656V39.5996H65.118V90.7656Z" fill="#3257FB"/>
<path d="M95.8132 39.5996L82.5868 88.7446L88.1383 84.3699L95.8132 90.7656L103.488 84.3699L111.163 90.7656V39.5996H95.8132Z" fill="#8FBBFD"/>
<path d="M111.16 92.0466C110.861 92.0472 110.571 91.9431 110.341 91.7524L103.485 86.0346L96.6287 91.7524C96.3989 91.9438 96.1092 92.0487 95.8101 92.0487C95.5109 92.0487 95.2213 91.9438 94.9914 91.7524L88.1352 86.0218L80.8312 91.778C80.6004 91.9728 80.3082 92.0796 80.0062 92.0796C79.7042 92.0796 79.4119 91.9728 79.1811 91.778L72.7854 86.1113L65.9547 91.8035C65.7652 91.9709 65.5303 92.0783 65.2798 92.1122C65.0293 92.1461 64.7744 92.1051 64.5472 91.9942C64.32 91.8834 64.1307 91.7077 64.0033 91.4893C63.8759 91.271 63.8161 91.0198 63.8313 90.7674V45.9972C63.8313 45.6579 63.9661 45.3326 64.206 45.0927C64.4459 44.8528 64.7712 44.718 65.1105 44.718C65.4497 44.718 65.7751 44.8528 66.015 45.0927C66.2548 45.3326 66.3896 45.6579 66.3896 45.9972V88.0428L71.9667 83.3867C72.1984 83.1886 72.4933 83.0797 72.7982 83.0797C73.103 83.0797 73.3979 83.1886 73.6296 83.3867L80.0254 89.079L87.3037 83.3356C87.5316 83.1507 87.8161 83.0498 88.1096 83.0498C88.403 83.0498 88.6876 83.1507 88.9155 83.3356L95.8101 89.1045L102.666 83.3867C102.896 83.1953 103.186 83.0905 103.485 83.0905C103.784 83.0905 104.074 83.1953 104.304 83.3867L109.881 88.0428V40.8806H65.1105C64.7712 40.8806 64.4459 40.7458 64.206 40.5059C63.9661 40.266 63.8313 39.9407 63.8313 39.6014C63.8313 39.2622 63.9661 38.9368 64.206 38.6969C64.4459 38.457 64.7712 38.3223 65.1105 38.3223H111.16C111.499 38.3223 111.824 38.457 112.064 38.6969C112.304 38.9368 112.439 39.2622 112.439 39.6014V90.7674C112.44 91.0121 112.37 91.2518 112.239 91.4581C112.107 91.6644 111.919 91.8287 111.697 91.9315C111.528 92.0083 111.345 92.0476 111.16 92.0466Z" fill="#34234D"/>
<path d="M86.8628 162.398H43.3717C41.9587 162.398 40.8134 163.544 40.8134 164.957V190.54C40.8134 191.953 41.9587 193.098 43.3717 193.098H86.8628C88.2757 193.098 89.4211 191.953 89.4211 190.54V164.957C89.4211 163.544 88.2757 162.398 86.8628 162.398Z" fill="#898796"/>
<path d="M81.747 179.023H66.3972C66.0579 179.023 65.7326 178.888 65.4927 178.648C65.2528 178.409 65.118 178.083 65.118 177.744C65.118 177.405 65.2528 177.079 65.4927 176.839C65.7326 176.6 66.0579 176.465 66.3972 176.465H81.747C82.0863 176.465 82.4116 176.6 82.6515 176.839C82.8914 177.079 83.0261 177.405 83.0261 177.744C83.0261 178.083 82.8914 178.409 82.6515 178.648C82.4116 178.888 82.0863 179.023 81.747 179.023Z" fill="white"/>
<path d="M59.9955 179.023H48.4831C48.1439 179.023 47.8185 178.888 47.5786 178.648C47.3387 178.409 47.204 178.083 47.204 177.744C47.204 177.405 47.3387 177.079 47.5786 176.839C47.8185 176.6 48.1439 176.465 48.4831 176.465H59.9955C60.3347 176.465 60.6601 176.6 60.9 176.839C61.1399 177.079 61.2746 177.405 61.2746 177.744C61.2746 178.083 61.1399 178.409 60.9 178.648C60.6601 178.888 60.3347 179.023 59.9955 179.023Z" fill="white"/>
<path d="M71.5078 186.703H48.4831C48.1439 186.703 47.8185 186.568 47.5786 186.328C47.3387 186.088 47.204 185.763 47.204 185.424C47.204 185.084 47.3387 184.759 47.5786 184.519C47.8185 184.279 48.1439 184.145 48.4831 184.145H71.5078C71.8471 184.145 72.1725 184.279 72.4123 184.519C72.6522 184.759 72.787 185.084 72.787 185.424C72.787 185.763 72.6522 186.088 72.4123 186.328C72.1725 186.568 71.8471 186.703 71.5078 186.703Z" fill="white"/>
<path d="M81.7488 171.35H74.0739C73.7347 171.35 73.4093 171.215 73.1694 170.975C72.9295 170.735 72.7948 170.41 72.7948 170.071C72.7948 169.731 72.9295 169.406 73.1694 169.166C73.4093 168.926 73.7347 168.791 74.0739 168.791H81.7488C82.0881 168.791 82.4134 168.926 82.6533 169.166C82.8932 169.406 83.028 169.731 83.028 170.071C83.028 170.41 82.8932 170.735 82.6533 170.975C82.4134 171.215 82.0881 171.35 81.7488 171.35Z" fill="white"/>
<path d="M67.6704 171.349H48.4831C48.1439 171.349 47.8185 171.215 47.5786 170.975C47.3387 170.735 47.204 170.409 47.204 170.07C47.204 169.731 47.3387 169.406 47.5786 169.166C47.8185 168.926 48.1439 168.791 48.4831 168.791H67.6704C68.0096 168.791 68.335 168.926 68.5749 169.166C68.8148 169.406 68.9495 169.731 68.9495 170.07C68.9495 170.409 68.8148 170.735 68.5749 170.975C68.335 171.215 68.0096 171.349 67.6704 171.349Z" fill="white"/>
<path d="M178.054 90.7656H128.704C128.704 95.0775 126.991 99.2128 123.942 102.262C120.893 105.311 116.758 107.024 112.446 107.024V176.098L153.379 205.889L194.312 176.098V107.024C190 107.024 185.865 105.311 182.816 102.262C179.767 99.2128 178.054 95.0775 178.054 90.7656Z" fill="#FD6969"/>
<path d="M178.051 90.7656H153.376V205.889L194.309 176.098V107.024C189.997 107.024 185.862 105.311 182.813 102.262C179.764 99.2128 178.051 95.0775 178.051 90.7656Z" fill="#FE6A6A"/>
<path d="M153.373 207.166C153.102 207.167 152.838 207.082 152.618 206.923L111.685 177.119C111.524 177.001 111.393 176.847 111.302 176.67C111.211 176.492 111.162 176.295 111.161 176.096V107.022C111.161 106.682 111.296 106.357 111.536 106.117C111.776 105.877 112.101 105.742 112.44 105.742C116.412 105.739 120.22 104.16 123.028 101.351C125.836 98.5431 127.416 94.7351 127.419 90.7635C127.419 90.4243 127.554 90.0989 127.794 89.859C128.034 89.6191 128.359 89.4844 128.698 89.4844H178.048C178.387 89.4844 178.712 89.6191 178.952 89.859C179.192 90.0989 179.327 90.4243 179.327 90.7635C179.33 94.7351 180.91 98.5431 183.718 101.351C186.526 104.16 190.334 105.739 194.306 105.742C194.645 105.742 194.97 105.877 195.21 106.117C195.45 106.357 195.585 106.682 195.585 107.022V176.096C195.583 176.295 195.535 176.492 195.444 176.67C195.353 176.847 195.222 177.001 195.06 177.119L154.128 206.923C153.908 207.082 153.644 207.167 153.373 207.166ZM113.719 175.443L153.373 204.301L193.027 175.443V108.25C188.832 107.936 184.889 106.128 181.915 103.154C178.941 100.18 177.133 96.2372 176.82 92.0427H129.926C129.613 96.2372 127.805 100.18 124.831 103.154C121.857 106.128 117.914 107.936 113.719 108.25V175.443Z" fill="#34234D"/>
<path d="M182.798 170.242L153.377 191.655L123.957 170.242V116.031C130.042 113.246 134.923 108.366 137.708 102.281H169.047C171.832 108.366 176.713 113.246 182.798 116.031V170.242Z" fill="white"/>
<path d="M153.38 192.93C153.11 192.926 152.847 192.842 152.625 192.687L123.205 171.262C123.043 171.144 122.912 170.99 122.821 170.812C122.73 170.635 122.682 170.438 122.68 170.238V116.028C122.679 115.783 122.749 115.544 122.881 115.337C123.012 115.131 123.2 114.967 123.422 114.864C129.233 112.211 133.893 107.551 136.546 101.74C136.649 101.518 136.813 101.33 137.019 101.198C137.226 101.067 137.465 100.997 137.71 100.998H169.049C169.294 100.997 169.534 101.067 169.74 101.198C169.946 101.33 170.111 101.518 170.213 101.74C172.866 107.551 177.526 112.211 183.337 114.864C183.559 114.967 183.747 115.131 183.879 115.337C184.01 115.544 184.08 115.783 184.079 116.028V170.238C184.078 170.438 184.03 170.635 183.939 170.812C183.847 170.99 183.716 171.144 183.555 171.262L154.134 192.687C153.913 192.842 153.65 192.926 153.38 192.93ZM125.238 169.586L153.38 190.052L181.521 169.586V116.834C175.752 113.994 171.084 109.325 168.243 103.556H138.516C135.676 109.325 131.007 113.994 125.238 116.834V169.586Z" fill="#34234D"/>
<path d="M153.373 167.514C166.089 167.514 176.398 157.206 176.398 144.49C176.398 131.773 166.089 121.465 153.373 121.465C140.657 121.465 130.349 131.773 130.349 144.49C130.349 157.206 140.657 167.514 153.373 167.514Z" fill="#FD6969"/>
<path d="M153.376 121.465V167.514C159.482 167.514 165.339 165.088 169.657 160.77C173.975 156.453 176.401 150.596 176.401 144.49C176.401 138.383 173.975 132.527 169.657 128.209C165.339 123.891 159.482 121.465 153.376 121.465Z" fill="#FE6A6A"/>
<path d="M176.683 130.778C176.268 130.36 175.774 130.029 175.231 129.803C174.688 129.577 174.105 129.461 173.517 129.461C172.928 129.461 172.346 129.577 171.802 129.803C171.259 130.029 170.766 130.36 170.351 130.778L153.287 147.842L145.983 140.55C145.135 139.702 143.984 139.226 142.785 139.226C141.586 139.226 140.435 139.702 139.587 140.55C138.739 141.399 138.263 142.549 138.263 143.748C138.263 144.948 138.739 146.098 139.587 146.946L150.051 157.41C150.468 157.834 150.966 158.17 151.515 158.4C152.064 158.63 152.653 158.748 153.249 158.748C153.844 158.748 154.433 158.63 154.982 158.4C155.531 158.17 156.029 157.834 156.446 157.41L176.683 137.173C177.11 136.758 177.449 136.26 177.681 135.711C177.912 135.162 178.032 134.572 178.032 133.976C178.032 133.379 177.912 132.789 177.681 132.24C177.449 131.691 177.11 131.194 176.683 130.778Z" fill="#8FBBFD"/>
<path d="M153.288 159.927C152.529 159.933 151.778 159.786 151.077 159.496C150.376 159.206 149.74 158.778 149.207 158.239L138.757 147.788C137.676 146.709 137.068 145.245 137.067 143.719C137.066 142.192 137.671 140.727 138.75 139.646C139.829 138.566 141.293 137.958 142.82 137.957C144.347 137.956 145.812 138.561 146.892 139.64L153.288 146.036L169.456 129.867C169.983 129.302 170.619 128.848 171.325 128.533C172.031 128.219 172.793 128.05 173.566 128.036C174.339 128.022 175.107 128.165 175.823 128.454C176.54 128.744 177.191 129.175 177.738 129.721C178.284 130.268 178.715 130.919 179.005 131.636C179.294 132.352 179.437 133.12 179.423 133.893C179.409 134.666 179.24 135.428 178.925 136.134C178.611 136.84 178.157 137.476 177.592 138.003L157.356 158.239C156.825 158.777 156.191 159.204 155.492 159.494C154.794 159.784 154.044 159.932 153.288 159.927ZM142.824 140.523C142.194 140.524 141.577 140.712 141.053 141.062C140.529 141.413 140.12 141.911 139.878 142.493C139.636 143.076 139.572 143.717 139.693 144.336C139.815 144.955 140.116 145.524 140.56 145.972L151.024 156.435C151.63 157.021 152.439 157.348 153.281 157.348C154.124 157.348 154.933 157.021 155.539 156.435L175.788 136.199C176.386 135.597 176.722 134.783 176.722 133.935C176.722 133.086 176.386 132.272 175.788 131.671C175.185 131.076 174.371 130.742 173.524 130.742C172.677 130.742 171.863 131.076 171.26 131.671L154.183 148.747C153.944 148.986 153.619 149.119 153.281 149.119C152.944 149.119 152.619 148.986 152.38 148.747L145.088 141.456C144.791 141.159 144.438 140.923 144.05 140.763C143.661 140.603 143.245 140.521 142.824 140.523Z" fill="#34234D"/>
</svg>
