<svg width="24" height="24" viewBox="0 0 24 24" fill="none" xmlns="http://www.w3.org/2000/svg">
<rect x="2" y="3" width="20" height="18" rx="3" fill="#3257FB"/>
<path d="M18.8157 8.34372L18.7328 8.42897L14.059 12.2755C13.4799 12.7443 12.7639 13 12.0293 13C11.2927 13 10.5892 12.7443 10.009 12.2755L5.29481 8.4929L5.15908 8.35438C4.92182 8.03473 4.9529 7.57656 5.23264 7.28887C5.50099 7.00118 5.9465 6.96922 6.26872 7.21429L10.9311 11.0501C11.5413 11.5626 12.4023 11.5626 13.0033 11.0501L17.675 7.21429C17.8314 7.06511 18.0386 6.98946 18.2562 7.00118C18.4624 7.02249 18.6603 7.11945 18.8043 7.27822C19.0633 7.58721 19.0633 8.03473 18.8157 8.34372Z" fill="#F1F6FF"/>
</svg>
