<svg width="24" height="24" viewBox="0 0 24 24" fill="none" xmlns="http://www.w3.org/2000/svg">
<path d="M13.1642 19.4975V12.6675H15.4683L15.8108 9.99335H13.1642V8.29002C13.1642 7.51835 13.3792 6.99002 14.4867 6.99002H15.89V4.60585C15.2072 4.53268 14.5209 4.49735 13.8342 4.50002C11.7975 4.50002 10.3992 5.74335 10.3992 8.02585V9.98835H8.10999V12.6625H10.4042V19.4975H13.1642Z" fill="white"/>
<path opacity="0.1" fill-rule="evenodd" clip-rule="evenodd" d="M0 12C0 5.37258 5.37258 0 12 0C18.6274 0 24 5.37258 24 12C24 18.6274 18.6274 24 12 24C5.37258 24 0 18.6274 0 12Z" fill="#F1F6FF"/>
</svg>
