<svg width="180" height="25" viewBox="0 0 180 25" fill="none" xmlns="http://www.w3.org/2000/svg">
<path d="M11.9806 3.42578C11.9806 4.42367 12.7896 5.23263 13.7875 5.23263C14.7854 5.23263 15.5943 4.42367 15.5943 3.42578C15.5943 2.42788 14.7854 1.61893 13.7875 1.61893C12.7896 1.61893 11.9806 2.42788 11.9806 3.42578Z" fill="#3257FB"/>
<path d="M17.9556 1.17752C17.9556 1.06006 18.0508 0.964844 18.1683 0.964844H27.3785C27.4959 0.964844 27.5911 1.06006 27.5911 1.17752V5.75833C27.5911 5.87579 27.4959 5.97101 27.3785 5.97101H18.1683C18.0508 5.97101 17.9556 5.87579 17.9556 5.75833V4.27185L16.7889 3.51693L17.9556 2.69339V1.17752Z" fill="#3257FB"/>
<path d="M11.9806 19.589C11.9806 20.5869 12.7896 21.3959 13.7875 21.3959C14.7854 21.3959 15.5943 20.5869 15.5943 19.589C15.5943 18.5911 14.7854 17.7822 13.7875 17.7822C12.7896 17.7822 11.9806 18.5911 11.9806 19.589Z" fill="#3257FB"/>
<path d="M17.9556 17.3407C17.9556 17.2233 18.0508 17.1281 18.1683 17.1281H27.3785C27.4959 17.1281 27.5911 17.2233 27.5911 17.3407V21.9216C27.5911 22.039 27.4959 22.1342 27.3785 22.1342H18.1683C18.0508 22.1342 17.9556 22.039 17.9556 21.9216V20.4351L16.7889 19.6802L17.9556 18.8566V17.3407Z" fill="#3257FB"/>
<path d="M15.6105 11.5074C15.6105 12.5053 14.8015 13.3142 13.8036 13.3142C12.8057 13.3142 11.9968 12.5053 11.9968 11.5074C11.9968 10.5095 12.8057 9.70054 13.8036 9.70054C14.8015 9.70054 15.6105 10.5095 15.6105 11.5074Z" fill="#3257FB"/>
<path d="M9.63552 9.25913C9.63552 9.14168 9.5403 9.04646 9.42285 9.04646H0.212674C0.0952181 9.04646 0 9.14168 0 9.25913V13.8399C0 13.9574 0.0952181 14.0526 0.212674 14.0526H9.42285C9.5403 14.0526 9.63552 13.9574 9.63552 13.8399V12.3535L10.8022 11.5985L9.63552 10.775V9.25913Z" fill="#3257FB"/>
<path d="M13.619 2.02625H13.9804V19.641H13.619V2.02625Z" fill="#3257FB"/>
<path d="M48.491 18.071C47.2078 18.071 46.0277 17.7616 44.9507 17.1315C43.8622 16.5128 43.0143 15.6649 42.3842 14.5764C41.754 13.4994 41.4332 12.3193 41.4332 11.0246C41.4332 9.72989 41.754 8.54976 42.3842 7.47276C43.0143 6.39575 43.8622 5.54789 44.9507 4.91773C46.0277 4.29902 47.2078 3.98966 48.491 3.98966C49.6597 3.98966 50.7482 4.25319 51.7679 4.78023C52.7762 5.31874 53.6011 6.04056 54.2427 6.96862L55.4572 6.33846C54.701 5.20416 53.7157 4.29902 52.4897 3.64594C51.2638 2.99286 49.9232 2.67205 48.491 2.67205C47.3338 2.67205 46.2339 2.88974 45.1913 3.32513C44.1486 3.76051 43.2549 4.34485 42.5102 5.07813C41.754 5.82287 41.1582 6.7051 40.7228 7.74774C40.276 8.79037 40.0583 9.87884 40.0583 11.0246C40.0583 12.1818 40.276 13.2703 40.7228 14.3015C41.1582 15.3441 41.754 16.2263 42.5102 16.9711C44.0111 18.4491 46.1652 19.3771 48.491 19.3771C49.9232 19.3771 51.2638 19.0449 52.4897 18.3918C53.7157 17.7387 54.701 16.8565 55.4572 15.7222L54.2427 15.092C53.6011 16.0086 52.7762 16.7304 51.7679 17.269C50.7596 17.8075 49.6712 18.071 48.491 18.071Z" fill="#0A0627"/>
<path d="M71.3832 19.2396V12.7891C71.3832 8.38936 69.5844 6.18951 65.9752 6.18951C64.6576 6.18951 63.5119 6.48741 62.538 7.0832C61.5526 7.67899 60.8308 8.49248 60.384 9.5122V1.64087H59.0549V19.2396H60.384V12.7891C60.384 11.2308 60.8766 9.93613 61.862 8.90495C62.8473 7.87377 64.0962 7.35818 65.6086 7.35818C68.7136 7.35818 70.0427 9.27159 70.0427 12.7891V19.2396H71.3832Z" fill="#0A0627"/>
<path d="M80.8128 6.18951C79.6441 6.18951 78.5671 6.47595 77.5932 7.06029C76.6078 7.64462 75.8287 8.43519 75.2673 9.44345C74.6944 10.4632 74.408 11.5746 74.408 12.7891C74.408 14.0036 74.6944 15.1149 75.2673 16.1232C75.8287 17.1429 76.6078 17.9335 77.5932 18.5064C78.5671 19.0907 79.6441 19.3771 80.8128 19.3771C82.1418 19.3771 83.3105 19.0792 84.3188 18.4949C85.327 17.9106 86.0488 17.0971 86.4957 16.043L86.5415 19.2396H87.8248V6.33846H86.5415L86.4957 9.52366C86.0374 8.51539 85.3041 7.70191 84.2958 7.09466C83.2761 6.48741 82.1189 6.18951 80.8128 6.18951ZM81.1107 18.2085C78.2234 18.2772 75.6912 15.7566 75.7485 12.7891C75.6912 9.82155 78.2234 7.28944 81.1107 7.35818C82.5887 7.35818 83.8605 7.88523 84.9146 8.92786C85.9686 9.98196 86.4957 11.2652 86.4957 12.7891C86.4957 14.29 85.9686 15.5732 84.926 16.6273C83.8719 17.6814 82.6001 18.2085 81.1107 18.2085Z" fill="#0A0627"/>
<path d="M103.189 19.2396V12.7891C103.189 10.658 102.8 9.01952 102.021 7.88523C101.242 6.75093 99.9812 6.18951 98.2511 6.18951C95.6274 6.18951 93.8514 7.39255 93.038 9.45491L92.9921 6.33846H91.7089V19.2396H93.038V12.7891C92.9921 9.71843 94.8139 7.33527 97.8845 7.35818C100.715 7.35818 101.849 9.24868 101.849 12.7891V19.2396H103.189Z" fill="#0A0627"/>
<path d="M118.302 9.52366C117.844 8.51539 117.11 7.70191 116.102 7.09466C115.082 6.48741 113.925 6.18951 112.619 6.18951C111.45 6.18951 110.373 6.47595 109.399 7.06029C108.414 7.64462 107.635 8.43519 107.073 9.44345C106.501 10.4632 106.214 11.5746 106.214 12.7891C106.214 14.0036 106.501 15.1149 107.073 16.1232C107.635 17.1429 108.414 17.9335 109.399 18.5064C110.373 19.0907 111.45 19.3771 112.619 19.3771C113.948 19.3771 115.117 19.0792 116.125 18.4949C117.133 17.9106 117.855 17.0971 118.302 16.043V18.1741C118.302 19.7896 117.706 21.0614 116.709 21.7947C115.701 22.528 114.406 22.8946 112.882 22.8946C110.969 22.9061 109.422 22.1728 108.219 20.6948L107.44 21.5082C108.735 23.1238 110.74 24.0747 112.974 24.0747C114.865 24.0747 116.457 23.5935 117.683 22.6769C118.909 21.7488 119.631 20.1906 119.631 18.2199V6.33846H118.348L118.302 9.52366ZM112.917 18.2085C110.029 18.2772 107.497 15.7566 107.555 12.7891C107.497 9.82155 110.029 7.28944 112.917 7.35818C114.395 7.35818 115.667 7.88523 116.721 8.93932C117.775 9.99342 118.302 11.2767 118.302 12.7776C118.302 14.29 117.775 15.5732 116.732 16.6273C115.678 17.6814 114.406 18.2085 112.917 18.2085Z" fill="#0A0627"/>
<path d="M129.553 6.18951C127.731 6.18951 126.024 6.91134 124.821 8.06855C123.618 9.22576 122.85 10.9444 122.85 12.7891C122.85 14.6337 123.618 16.3523 124.821 17.4981C126.024 18.6553 127.731 19.3771 129.553 19.3771C130.905 19.3771 132.143 19.0105 133.265 18.2887C134.377 17.5668 135.19 16.593 135.706 15.3899L134.572 14.84C134.159 15.8826 133.506 16.7075 132.601 17.3262C131.696 17.9449 130.676 18.2543 129.553 18.2543C128.155 18.2543 126.952 17.7845 125.933 16.8565C124.913 15.9284 124.328 14.7598 124.202 13.3505H136.221C136.267 11.3339 135.545 9.46637 134.365 8.2175C133.174 6.98008 131.444 6.18951 129.553 6.18951ZM129.553 7.32381C130.962 7.32381 132.177 7.79357 133.197 8.72163C134.216 9.64969 134.789 10.8184 134.915 12.2276H124.202C124.328 10.8184 124.901 9.63823 125.921 8.71017C126.941 7.78211 128.144 7.32381 129.553 7.32381Z" fill="#0A0627"/>
<path d="M149.489 19.2396V17.4294H141.836V2.80954H139.601V19.2396H149.489Z" fill="#0A0627"/>
<path d="M157.2 19.4001C159.045 19.4001 160.775 18.7011 162.012 17.5554C163.25 16.4211 164.029 14.7025 164.029 12.7891C164.029 10.8756 163.25 9.15701 162.012 8.01126C160.775 6.86551 159.045 6.1666 157.2 6.1666C155.974 6.1666 154.84 6.44158 153.809 6.99154C152.766 7.55296 151.941 8.33207 151.322 9.35179C150.692 10.3715 150.383 11.5173 150.383 12.7891C150.383 14.0608 150.692 15.1951 151.322 16.2149C151.941 17.2346 152.766 18.0252 153.797 18.5751C154.828 19.1251 155.963 19.4001 157.2 19.4001ZM157.2 17.6012C155.883 17.6012 154.771 17.1429 153.855 16.2149C152.938 15.2868 152.48 14.1525 152.48 12.7891C152.48 11.4256 152.938 10.2913 153.855 9.36325C154.771 8.43519 155.883 7.97689 157.2 7.97689C158.518 7.97689 159.629 8.43519 160.557 9.36325C161.474 10.2913 161.932 11.4256 161.932 12.7891C161.932 14.1525 161.474 15.2868 160.546 16.2149C159.618 17.1429 158.506 17.6012 157.2 17.6012Z" fill="#0A0627"/>
<path d="M177.904 8.61851C177.022 7.09466 175.085 6.1666 172.645 6.1666C171.499 6.1666 170.445 6.45304 169.483 7.02591C168.52 7.59879 167.764 8.38936 167.203 9.40908C166.641 10.4288 166.355 11.5516 166.355 12.7891C166.355 14.0265 166.641 15.1493 167.203 16.169C167.764 17.1887 168.52 17.9793 169.483 18.5407C170.434 19.1136 171.488 19.4001 172.645 19.4001C175.337 19.4001 177.09 18.5866 177.904 16.9481V17.9679C177.892 19.3428 177.446 20.4083 176.54 21.1531C175.635 21.8978 174.49 22.2759 173.126 22.2759C171.304 22.2759 169.803 21.5884 168.635 20.2021L167.466 21.4968C168.852 23.1581 170.892 24.0976 173.287 24.0976C177.022 24.0976 180.001 21.978 180.001 18.0595V6.33846H177.984L177.904 8.61851ZM169.849 16.2149C168.933 15.2868 168.474 14.1525 168.474 12.7891C168.474 11.4256 168.933 10.2913 169.849 9.36325C170.754 8.43519 171.866 7.97689 173.172 7.97689C174.49 7.97689 175.601 8.43519 176.529 9.36325C177.446 10.2913 177.904 11.4256 177.904 12.7891C177.904 14.141 177.446 15.2753 176.518 16.2034C175.59 17.1315 174.478 17.6012 173.172 17.6012C171.866 17.6012 170.754 17.1429 169.849 16.2149Z" fill="#0A0627"/>
</svg>
