<svg width="222" height="208" viewBox="0 0 222 208" fill="none" xmlns="http://www.w3.org/2000/svg">
<path d="M193.313 76.1176C187.868 60.0273 194.812 34.5596 182.052 23.363C169.677 12.4611 145.503 22.3382 128.157 18.8408C110.812 15.3435 92.3642 -3.07836 76.7222 2.18686C60.5807 7.65704 57.1218 33.7397 45.8484 46.4736C34.9208 58.8103 9.19682 65.3054 5.69949 82.5743C2.20216 99.8431 23.4167 115.767 28.7588 131.358C34.2034 147.448 27.26 172.864 40.0195 184.112C52.3946 195.014 76.5685 185.137 93.9143 188.634C111.26 192.132 129.707 210.554 145.349 205.288C161.491 199.857 164.95 173.735 176.223 161.002C187.151 148.665 212.875 142.208 216.372 124.901C219.869 107.594 198.604 91.7083 193.313 76.1176Z" fill="white"/>
<path d="M164.703 113.984H57.1948V206.222H164.703V113.984Z" fill="#8FBBFD"/>
<path d="M57.1948 113.984H146.768L158.297 206.222H57.1948V113.984Z" fill="#3257FB"/>
<path d="M219.891 207.504H2.10871C1.76895 207.504 1.4431 207.369 1.20285 207.129C0.962607 206.889 0.827637 206.563 0.827637 206.223C0.827637 205.883 0.962607 205.557 1.20285 205.317C1.4431 205.077 1.76895 204.942 2.10871 204.942H219.891C220.231 204.942 220.557 205.077 220.797 205.317C221.037 205.557 221.172 205.883 221.172 206.223C221.172 206.563 221.037 206.889 220.797 207.129C220.557 207.369 220.231 207.504 219.891 207.504Z" fill="#A09CAD"/>
<path d="M194.27 96.0489L111 52.4924L27.73 96.0489V83.2382L111 39.6816L194.27 83.2382V96.0489Z" fill="#8FBBFD"/>
<path d="M194.27 96.0535L111 52.497L27.73 96.0535V89.6481L111 44.8105L194.27 83.2428V96.0535Z" fill="#3257FB"/>
<path d="M194.273 97.3329C194.068 97.3338 193.866 97.2854 193.684 97.192L111.004 53.9429L28.323 97.192C28.1275 97.2933 27.9093 97.3425 27.6892 97.3348C27.4692 97.3272 27.2549 97.263 27.0669 97.1484C26.8789 97.0338 26.7237 96.8727 26.6161 96.6806C26.5085 96.4886 26.4522 96.272 26.4526 96.0519V83.2411C26.4522 83.0059 26.5164 82.775 26.6385 82.5739C26.7605 82.3728 26.9355 82.2092 27.1444 82.101L51.6257 69.2902C51.9281 69.1322 52.2809 69.1008 52.6064 69.2029C52.932 69.305 53.2036 69.5323 53.3616 69.8347C53.5196 70.1371 53.551 70.4898 53.4489 70.8154C53.3468 71.1409 53.1195 71.4125 52.8171 71.5705L29.0148 84.0226V93.9381L110.414 51.3552C110.596 51.2608 110.798 51.2116 111.004 51.2116C111.209 51.2116 111.411 51.2608 111.593 51.3552L192.992 93.9381V84.0226L111.004 41.1322L60.3499 67.6248C60.1976 67.7022 60.0316 67.7488 59.8613 67.7621C59.6911 67.7753 59.5198 67.7549 59.3575 67.7019C59.1951 67.649 59.0447 67.5646 58.915 67.4536C58.7852 67.3425 58.6786 67.207 58.6012 67.0547C58.5238 66.9025 58.4772 66.7365 58.4639 66.5662C58.4507 66.3959 58.4711 66.2247 58.5241 66.0623C58.577 65.9 58.6614 65.7496 58.7725 65.6198C58.8835 65.4901 59.019 65.3835 59.1713 65.3061L110.414 38.4932C110.596 38.3989 110.798 38.3496 111.004 38.3496C111.209 38.3496 111.411 38.3989 111.593 38.4932L194.863 82.0497C195.079 82.1618 195.26 82.3334 195.382 82.5445C195.505 82.7556 195.565 82.9973 195.554 83.2411V96.0519C195.556 96.2729 195.5 96.4906 195.392 96.6837C195.284 96.8767 195.128 97.0386 194.939 97.1536C194.736 97.2692 194.507 97.3309 194.273 97.3329Z" fill="#34234D"/>
<path d="M149.816 16.1206C150.445 15.0226 150.661 13.7358 150.425 12.4924C150.188 11.2491 149.515 10.1313 148.527 9.34093C147.538 8.55052 146.3 8.1396 145.035 8.1824C143.77 8.2252 142.562 8.71888 141.63 9.57429C141.465 7.04137 140.301 4.67764 138.393 3.00312C136.486 1.32859 133.991 0.480422 131.458 0.645207C128.925 0.809991 126.561 1.97423 124.887 3.8818C123.212 5.78937 122.364 8.28401 122.529 10.8169C122.526 11.4103 122.582 12.0025 122.695 12.5848C122.148 12.4661 121.59 12.406 121.03 12.4055C118.947 12.4885 116.977 13.3745 115.532 14.8778C114.088 16.381 113.281 18.385 113.281 20.4698C113.281 22.5547 114.088 24.5586 115.532 26.0619C116.977 27.5652 118.947 28.4511 121.03 28.5342H148.586C150.142 28.5298 151.64 27.9466 152.79 26.8981C153.939 25.8496 154.658 24.4108 154.805 22.8619C154.952 21.3129 154.517 19.7647 153.586 18.5186C152.654 17.2725 151.292 16.4177 149.765 16.1206H149.816Z" fill="white"/>
<path d="M148.639 29.8193H121.083C119.828 29.8532 118.578 29.6338 117.408 29.174C116.239 28.7142 115.175 28.0235 114.278 27.1432C113.382 26.2629 112.672 25.211 112.191 24.0503C111.71 22.8896 111.468 21.6439 111.479 20.3875C111.491 19.1312 111.755 17.89 112.256 16.7381C112.758 15.5861 113.486 14.547 114.398 13.6828C115.31 12.8186 116.387 12.147 117.564 11.7082C118.741 11.2693 119.995 11.0721 121.25 11.1284V10.821C121.257 8.23831 122.185 5.74287 123.867 3.78319C125.55 1.82351 127.876 0.528104 130.427 0.129824C132.979 -0.268456 135.589 0.256507 137.789 1.61035C139.988 2.9642 141.632 5.05814 142.426 7.5158C143.575 6.97769 144.855 6.78286 146.112 6.95475C147.368 7.12663 148.549 7.65791 149.511 8.48471C150.473 9.3115 151.176 10.3986 151.535 11.6153C151.894 12.832 151.894 14.1265 151.535 15.3432C153.152 16.0066 154.488 17.2119 155.314 18.7524C156.14 20.2929 156.405 22.0728 156.063 23.7871C155.72 25.5013 154.793 27.0431 153.438 28.1484C152.084 29.2536 150.387 29.8534 148.639 29.8449V29.8193ZM121.083 13.6906C119.335 13.7666 117.684 14.5144 116.474 15.7782C115.264 17.042 114.589 18.7242 114.589 20.4739C114.589 22.2236 115.264 23.9057 116.474 25.1695C117.684 26.4333 119.335 27.1812 121.083 27.2571H148.639C149.879 27.2557 151.073 26.7925 151.989 25.9579C152.905 25.1233 153.478 23.9773 153.595 22.7435C153.711 21.5097 153.364 20.2766 152.621 19.2849C151.878 18.2933 150.792 17.6141 149.575 17.3801C149.375 17.3422 149.187 17.2574 149.027 17.1327C148.866 17.0079 148.738 16.8468 148.652 16.6627C148.56 16.4822 148.512 16.2824 148.512 16.0798C148.512 15.8771 148.56 15.6774 148.652 15.4969C149 14.8841 149.181 14.1907 149.176 13.4861C149.172 12.7815 148.983 12.0904 148.627 11.482C148.272 10.8737 147.763 10.3693 147.151 10.0195C146.539 9.66962 145.847 9.48658 145.142 9.48865C144.142 9.49299 143.179 9.86718 142.439 10.5391C142.267 10.6907 142.057 10.7932 141.832 10.836C141.606 10.8788 141.374 10.8604 141.158 10.7825C140.937 10.7024 140.743 10.5633 140.596 10.3803C140.449 10.1973 140.356 9.9775 140.325 9.74487C140.063 7.64778 139.01 5.72995 137.381 4.38351C135.752 3.03708 133.67 2.36374 131.562 2.50117C129.453 2.6386 127.476 3.57642 126.035 5.12288C124.595 6.66934 123.8 8.70762 123.812 10.821C123.809 11.3325 123.857 11.8431 123.953 12.3454C123.993 12.5523 123.981 12.7657 123.918 12.9668C123.856 13.1679 123.744 13.3505 123.594 13.4984C123.443 13.6459 123.257 13.7535 123.053 13.8116C122.85 13.8697 122.635 13.8766 122.429 13.8315C121.985 13.744 121.535 13.6968 121.083 13.6906Z" fill="#A09CAD"/>
<path d="M189.397 53.6364C189.023 52.9649 188.83 52.2074 188.838 51.4387C188.846 50.67 189.054 49.9166 189.442 49.253C189.83 48.5894 190.385 48.0385 191.051 47.6547C191.717 47.2709 192.472 47.0674 193.24 47.0645C194.337 47.0626 195.393 47.4744 196.2 48.2174C196.363 47.1904 196.727 46.2055 197.27 45.3191C197.814 44.4326 198.527 43.662 199.369 43.0511C200.211 42.4403 201.164 42.0012 202.176 41.7589C203.187 41.5166 204.236 41.4759 205.263 41.6391C206.29 41.8023 207.275 42.1662 208.162 42.71C209.048 43.2538 209.819 43.9669 210.429 44.8085C211.04 45.6501 211.479 46.6038 211.722 47.6152C211.964 48.6265 212.005 49.6757 211.842 50.7027C212.291 50.6003 212.751 50.5488 213.212 50.549C214.114 50.5095 215.015 50.653 215.86 50.9709C216.705 51.2889 217.477 51.7746 218.129 52.3989C218.781 53.0231 219.3 53.773 219.655 54.6033C220.009 55.4335 220.192 56.327 220.192 57.2298C220.192 58.1326 220.009 59.0261 219.655 59.8563C219.3 60.6866 218.781 61.4364 218.129 62.0607C217.477 62.685 216.705 63.1707 215.86 63.4886C215.015 63.8066 214.114 63.9501 213.212 63.9106H190.422C189.063 64.0414 187.708 63.627 186.654 62.7585C185.601 61.89 184.935 60.6386 184.804 59.2795C184.674 57.9205 185.088 56.5651 185.957 55.5116C186.825 54.4581 188.076 53.7928 189.436 53.662L189.397 53.6364Z" fill="white"/>
<path d="M213.206 65.1895H190.429C188.909 65.2684 187.411 64.8039 186.203 63.8791C184.995 62.9544 184.155 61.6297 183.835 60.1424C183.514 58.6551 183.733 57.1022 184.453 55.7619C185.173 54.4215 186.347 53.3812 187.764 52.8272C187.651 52.3834 187.595 51.9271 187.597 51.4692C187.598 50.5398 187.826 49.6246 188.262 48.8038C188.698 47.983 189.328 47.2815 190.098 46.7607C190.868 46.2399 191.754 45.9157 192.678 45.8164C193.602 45.7171 194.536 45.8458 195.399 46.1912C196.102 44.1152 197.522 42.3579 199.404 41.2348C201.286 40.1117 203.507 39.6966 205.667 40.0639C207.828 40.4312 209.787 41.5569 211.192 43.2388C212.597 44.9207 213.357 47.0486 213.334 49.2401C215.39 49.3226 217.335 50.1976 218.761 51.6817C220.187 53.1658 220.983 55.144 220.983 57.202C220.983 59.26 220.187 61.2382 218.761 62.7224C217.335 64.2065 215.39 65.0814 213.334 65.1639L213.206 65.1895ZM193.234 48.3434C192.824 48.3434 192.418 48.4243 192.04 48.5816C191.661 48.7388 191.318 48.9693 191.028 49.2597C190.739 49.5501 190.51 49.8948 190.354 50.274C190.199 50.6532 190.119 51.0593 190.121 51.4692C190.118 52.0034 190.255 52.5291 190.518 52.9937C190.62 53.1708 190.678 53.3695 190.687 53.5735C190.696 53.7774 190.656 53.9806 190.571 54.1661C190.486 54.3516 190.358 54.5141 190.197 54.64C190.036 54.7658 189.848 54.8514 189.647 54.8897C188.628 54.9882 187.689 55.4876 187.038 56.278C186.387 57.0684 186.077 58.0851 186.175 59.1044C186.274 60.1237 186.773 61.0621 187.564 61.7132C188.354 62.3642 189.371 62.6747 190.39 62.5761H213.206C213.956 62.5682 214.696 62.4039 215.379 62.0938C216.062 61.7836 216.673 61.3343 217.173 60.7747C217.672 60.2151 218.049 59.5575 218.28 58.8438C218.511 58.1301 218.591 57.3761 218.514 56.6299C218.437 55.8837 218.205 55.1618 217.834 54.5103C217.462 53.8587 216.958 53.2919 216.355 52.846C215.752 52.4001 215.062 52.085 214.33 51.9207C213.598 51.7564 212.84 51.7466 212.104 51.892C211.898 51.937 211.683 51.9302 211.479 51.8721C211.276 51.814 211.09 51.7064 210.938 51.5589C210.789 51.411 210.677 51.2284 210.615 51.0273C210.552 50.8262 210.54 50.6128 210.58 50.4059C210.655 50.0046 210.694 49.5972 210.695 49.1889C210.683 47.5095 210.036 45.897 208.883 44.6752C207.731 43.4535 206.159 42.7131 204.483 42.6028C202.807 42.4925 201.152 43.0204 199.849 44.0806C198.547 45.1407 197.694 46.6545 197.462 48.3178C197.431 48.5504 197.337 48.7702 197.191 48.9532C197.044 49.1362 196.849 49.2753 196.629 49.3554C196.413 49.4333 196.18 49.4517 195.955 49.4089C195.73 49.3661 195.52 49.2636 195.348 49.112C194.762 48.6035 194.009 48.3297 193.234 48.3434Z" fill="#A09CAD"/>
<path d="M28.0878 35.6997C27.7134 35.0282 27.5207 34.2707 27.5286 33.502C27.5365 32.7333 27.7448 31.9799 28.1328 31.3163C28.5209 30.6527 29.0754 30.1018 29.7415 29.718C30.4076 29.3342 31.1623 29.1307 31.931 29.1278C33.0274 29.1259 34.0841 29.5377 34.8903 30.2807C35.0224 29.2273 35.365 28.2113 35.8977 27.2929C36.4304 26.3746 37.1424 25.5728 37.9913 24.9353C38.8401 24.2977 39.8086 23.8374 40.839 23.5817C41.8694 23.326 42.9407 23.2801 43.9891 23.4468C45.0376 23.6136 46.0419 23.9895 46.9421 24.5522C47.8424 25.1149 48.6202 25.8529 49.2295 26.7223C49.8387 27.5918 50.2669 28.5749 50.4885 29.6131C50.7101 30.6514 50.7206 31.7236 50.5194 32.766C50.9691 32.6636 51.4289 32.6121 51.8901 32.6123C52.7921 32.5728 53.6927 32.7163 54.5377 33.0342C55.3827 33.3522 56.1545 33.8379 56.8067 34.4622C57.4589 35.0864 57.978 35.8363 58.3326 36.6666C58.6872 37.4968 58.87 38.3903 58.87 39.2931C58.87 40.1959 58.6872 41.0894 58.3326 41.9196C57.978 42.7499 57.4589 43.4998 56.8067 44.124C56.1545 44.7483 55.3827 45.234 54.5377 45.5519C53.6927 45.8699 52.7921 46.0134 51.8901 45.9739H29.0742C27.7152 46.1047 26.3598 45.6903 25.3063 44.8218C24.2528 43.9533 23.5875 42.7019 23.4567 41.3428C23.3259 39.9838 23.7403 38.6284 24.6088 37.5749C25.4773 36.5214 26.7287 35.8561 28.0878 35.7253V35.6997Z" fill="white"/>
<path d="M51.8881 47.254H29.0721C27.5565 47.3223 26.0658 46.8503 24.8656 45.9223C23.6653 44.9942 22.8335 43.6702 22.5182 42.1861C22.203 40.702 22.4247 39.1542 23.144 37.8184C23.8633 36.4825 25.0334 35.4454 26.4459 34.8916C26.3331 34.4478 26.2772 33.9915 26.2794 33.5337C26.2798 32.6042 26.508 31.6891 26.944 30.8682C27.3799 30.0474 28.0104 29.3459 28.7802 28.8251C29.55 28.3043 30.4357 27.9801 31.3598 27.8808C32.2839 27.7816 33.2183 27.9102 34.0811 28.2556C34.7839 26.1797 36.2038 24.4223 38.0859 23.2993C39.9679 22.1762 42.1888 21.761 44.3495 22.1283C46.5101 22.4957 48.469 23.6214 49.8743 25.3033C51.2795 26.9852 52.0389 29.113 52.0162 31.3046C54.0725 31.3871 56.0172 32.262 57.443 33.7461C58.8688 35.2303 59.665 37.2085 59.665 39.2665C59.665 41.3245 58.8688 43.3027 57.443 44.7868C56.0172 46.2709 54.0725 47.1458 52.0162 47.2283L51.8881 47.254ZM31.9161 30.4078C31.5062 30.4078 31.1004 30.4888 30.7219 30.646C30.3433 30.8033 29.9996 31.0337 29.7104 31.3241C29.4211 31.6146 29.1921 31.9593 29.0364 32.3384C28.8807 32.7176 28.8014 33.1238 28.8031 33.5337C28.7997 34.0678 28.9366 34.5935 29.2002 35.0581C29.3019 35.2352 29.3597 35.434 29.3689 35.6379C29.3781 35.8419 29.3384 36.0451 29.2532 36.2306C29.168 36.4161 29.0396 36.5786 28.8789 36.7044C28.7181 36.8303 28.5297 36.9159 28.3291 36.9541C27.3098 37.0527 26.3714 37.5521 25.7204 38.3425C25.0693 39.1329 24.7589 40.1496 24.8574 41.1689C24.9559 42.1882 25.4553 43.1266 26.2458 43.7776C27.0362 44.4287 28.0529 44.7391 29.0721 44.6406H51.8881C52.6569 44.6643 53.4218 44.5233 54.1316 44.227C54.8415 43.9308 55.4797 43.4861 56.0035 42.9229C56.5274 42.3597 56.9247 41.691 57.1688 40.9616C57.4129 40.2322 57.4982 39.459 57.4189 38.694C57.3396 37.9289 57.0976 37.1897 56.7092 36.5258C56.3207 35.862 55.7947 35.2889 55.1665 34.8451C54.5384 34.4012 53.8225 34.0969 53.0671 33.9524C52.3116 33.808 51.5339 33.8268 50.7863 34.0077C50.5816 34.0505 50.3694 34.0425 50.1684 33.9845C49.9675 33.9264 49.7838 33.82 49.6334 33.6746C49.4811 33.528 49.3676 33.346 49.3027 33.1448C49.2379 32.9436 49.2239 32.7295 49.2619 32.5216C49.3371 32.1203 49.3757 31.7129 49.3772 31.3046C49.365 29.6252 48.7177 28.0127 47.5654 26.7909C46.4131 25.5692 44.8411 24.8288 43.1653 24.7185C41.4895 24.6082 39.834 25.1361 38.5315 26.1963C37.229 27.2564 36.3759 28.7702 36.1437 30.4335C36.1132 30.6661 36.0194 30.8859 35.8726 31.0689C35.7258 31.2519 35.5315 31.391 35.311 31.4711C35.0952 31.549 34.8625 31.5674 34.6371 31.5246C34.4118 31.4818 34.2021 31.3793 34.0299 31.2277C33.4534 30.6985 32.6987 30.4057 31.9161 30.4078Z" fill="#A09CAD"/>
<path d="M17.4816 160.105H2.10871C1.76895 160.105 1.4431 159.97 1.20285 159.729C0.962607 159.489 0.827637 159.163 0.827637 158.824C0.827637 158.484 0.962607 158.158 1.20285 157.918C1.4431 157.678 1.76895 157.543 2.10871 157.543H17.4816C17.8214 157.543 18.1472 157.678 18.3875 157.918C18.6277 158.158 18.7627 158.484 18.7627 158.824C18.7627 159.163 18.6277 159.489 18.3875 159.729C18.1472 159.97 17.8214 160.105 17.4816 160.105Z" fill="#A09CAD"/>
<path d="M22.6067 167.79H12.3581C12.0184 167.79 11.6925 167.655 11.4523 167.415C11.212 167.175 11.0771 166.849 11.0771 166.509C11.0771 166.169 11.212 165.844 11.4523 165.603C11.6925 165.363 12.0184 165.228 12.3581 165.228H22.6067C22.9465 165.228 23.2723 165.363 23.5126 165.603C23.7528 165.844 23.8878 166.169 23.8878 166.509C23.8878 166.849 23.7528 167.175 23.5126 167.415C23.2723 167.655 22.9465 167.79 22.6067 167.79Z" fill="#A09CAD"/>
<path d="M203.24 176.761H190.429C190.09 176.761 189.764 176.626 189.523 176.386C189.283 176.146 189.148 175.82 189.148 175.48C189.148 175.141 189.283 174.815 189.523 174.574C189.764 174.334 190.09 174.199 190.429 174.199H203.24C203.58 174.199 203.906 174.334 204.146 174.574C204.386 174.815 204.521 175.141 204.521 175.48C204.521 175.82 204.386 176.146 204.146 176.386C203.906 176.626 203.58 176.761 203.24 176.761Z" fill="#A09CAD"/>
<path d="M208.365 184.444H200.679C200.339 184.444 200.013 184.309 199.773 184.069C199.533 183.829 199.398 183.503 199.398 183.163C199.398 182.823 199.533 182.498 199.773 182.257C200.013 182.017 200.339 181.882 200.679 181.882H208.365C208.705 181.882 209.031 182.017 209.271 182.257C209.511 182.498 209.646 182.823 209.646 183.163C209.646 183.503 209.511 183.829 209.271 184.069C209.031 184.309 208.705 184.444 208.365 184.444Z" fill="#A09CAD"/>
<path d="M26.4424 112.705H9.7884C9.44864 112.705 9.12279 112.57 8.88254 112.33C8.64229 112.089 8.50732 111.763 8.50732 111.424C8.50732 111.084 8.64229 110.758 8.88254 110.518C9.12279 110.278 9.44864 110.143 9.7884 110.143H26.4424C26.7821 110.143 27.108 110.278 27.3482 110.518C27.5885 110.758 27.7234 111.084 27.7234 111.424C27.7234 111.763 27.5885 112.089 27.3482 112.33C27.108 112.57 26.7821 112.705 26.4424 112.705Z" fill="#A09CAD"/>
<path d="M31.5747 120.391H17.4829C17.1431 120.391 16.8172 120.256 16.577 120.016C16.3368 119.776 16.2018 119.45 16.2018 119.11C16.2018 118.77 16.3368 118.444 16.577 118.204C16.8172 117.964 17.1431 117.829 17.4829 117.829H31.5747C31.9144 117.829 32.2403 117.964 32.4805 118.204C32.7208 118.444 32.8557 118.77 32.8557 119.11C32.8557 119.45 32.7208 119.776 32.4805 120.016C32.2403 120.256 31.9144 120.391 31.5747 120.391Z" fill="#A09CAD"/>
<path d="M207.083 133.203H191.71C191.371 133.203 191.045 133.068 190.804 132.828C190.564 132.587 190.429 132.261 190.429 131.922C190.429 131.582 190.564 131.256 190.804 131.016C191.045 130.776 191.371 130.641 191.71 130.641H207.083C207.423 130.641 207.749 130.776 207.989 131.016C208.229 131.256 208.364 131.582 208.364 131.922C208.364 132.261 208.229 132.587 207.989 132.828C207.749 133.068 207.423 133.203 207.083 133.203Z" fill="#A09CAD"/>
<path d="M219.888 140.89H199.39C199.051 140.89 198.725 140.755 198.485 140.515C198.244 140.274 198.109 139.949 198.109 139.609C198.109 139.269 198.244 138.943 198.485 138.703C198.725 138.463 199.051 138.328 199.39 138.328H219.888C220.227 138.328 220.553 138.463 220.793 138.703C221.034 138.943 221.169 139.269 221.169 139.609C221.169 139.949 221.034 140.274 220.793 140.515C220.553 140.755 220.227 140.89 219.888 140.89Z" fill="#A09CAD"/>
<path d="M185.303 91.36L111.001 52.4922L36.6987 91.36V206.221H57.1959V113.984H164.704V206.221H185.303V91.36Z" fill="white"/>
<path d="M177.617 100.329L106.235 54.9785L36.6987 91.361V206.222H57.1959V112.704H164.704V206.222H177.617V100.329Z" fill="white"/>
<path d="M185.3 207.503H164.701C164.361 207.503 164.035 207.368 163.795 207.127C163.555 206.887 163.42 206.561 163.42 206.222V115.265H130.214C129.874 115.265 129.549 115.13 129.308 114.89C129.068 114.65 128.933 114.324 128.933 113.984C128.933 113.644 129.068 113.319 129.308 113.078C129.549 112.838 129.874 112.703 130.214 112.703H164.803C165.143 112.703 165.469 112.838 165.709 113.078C165.949 113.319 166.084 113.644 166.084 113.984V204.94H184.019V166.508C184.019 166.168 184.154 165.843 184.395 165.602C184.635 165.362 184.961 165.227 185.3 165.227C185.64 165.227 185.966 165.362 186.206 165.602C186.446 165.843 186.581 166.168 186.581 166.508V206.222C186.581 206.561 186.446 206.887 186.206 207.127C185.966 207.368 185.64 207.503 185.3 207.503Z" fill="#34234D"/>
<path d="M57.1918 207.503H36.6947C36.3549 207.503 36.029 207.368 35.7888 207.127C35.5485 206.887 35.4136 206.561 35.4136 206.222V91.3605C35.4131 91.1253 35.4774 90.8944 35.5994 90.6933C35.7214 90.4922 35.8965 90.3286 36.1054 90.2204L110.408 51.3526C110.59 51.2582 110.792 51.209 110.997 51.209C111.202 51.209 111.404 51.2582 111.586 51.3526L185.889 90.2204C186.097 90.3286 186.272 90.4922 186.394 90.6933C186.516 90.8944 186.581 91.1253 186.58 91.3605V158.822C186.58 159.162 186.445 159.487 186.205 159.728C185.965 159.968 185.639 160.103 185.299 160.103C184.959 160.103 184.634 159.968 184.393 159.728C184.153 159.487 184.018 159.162 184.018 158.822V92.1292L110.997 53.9403L37.9757 92.1292V204.941H55.9108V113.984C55.9108 113.645 56.0457 113.319 56.286 113.078C56.5262 112.838 56.8521 112.703 57.1918 112.703H122.527C122.866 112.703 123.192 112.838 123.432 113.078C123.673 113.319 123.808 113.645 123.808 113.984C123.808 114.324 123.673 114.65 123.432 114.89C123.192 115.13 122.866 115.265 122.527 115.265H58.4729V206.222C58.4729 206.561 58.3379 206.887 58.0977 207.127C57.8574 207.368 57.5316 207.503 57.1918 207.503Z" fill="#34234D"/>
<path d="M80.2542 90.9277H59.757C58.3419 90.9277 57.1948 92.0748 57.1948 93.4899V101.176C57.1948 102.591 58.3419 103.738 59.757 103.738H80.2542C81.6692 103.738 82.8163 102.591 82.8163 101.176V93.4899C82.8163 92.0748 81.6692 90.9277 80.2542 90.9277Z" fill="#FF5067"/>
<path d="M71.9417 103.738L78.9748 90.9277H72.2748L65.2417 103.738H71.9417Z" fill="#FE6A6A"/>
<path d="M62.5757 103.738L69.6088 90.9277H66.7904L59.7573 103.738H62.5757Z" fill="#FE6A6A"/>
<path d="M80.2501 105.017H59.7529C58.7336 105.017 57.7561 104.613 57.0353 103.892C56.3146 103.171 55.9097 102.193 55.9097 101.174V93.4878C55.9097 92.4685 56.3146 91.4909 57.0353 90.7702C57.7561 90.0494 58.7336 89.6445 59.7529 89.6445H80.2501C81.2694 89.6445 82.2469 90.0494 82.9676 90.7702C83.6884 91.4909 84.0933 92.4685 84.0933 93.4878V101.174C84.0933 102.193 83.6884 103.171 82.9676 103.892C82.2469 104.613 81.2694 105.017 80.2501 105.017ZM59.7529 92.2067C59.4131 92.2067 59.0873 92.3416 58.847 92.5819C58.6068 92.8221 58.4718 93.148 58.4718 93.4878V101.174C58.4718 101.514 58.6068 101.84 58.847 102.08C59.0873 102.32 59.4131 102.455 59.7529 102.455H80.2501C80.5898 102.455 80.9157 102.32 81.1559 102.08C81.3962 101.84 81.5312 101.514 81.5312 101.174V93.4878C81.5312 93.148 81.3962 92.8221 81.1559 92.5819C80.9157 92.3416 80.5898 92.2067 80.2501 92.2067H59.7529Z" fill="#34234D"/>
<path d="M121.254 90.9269H100.757C99.3415 90.9269 98.1944 92.074 98.1944 93.489V101.175C98.1944 102.591 99.3415 103.738 100.757 103.738H121.254C122.669 103.738 123.816 102.591 123.816 101.175V93.489C123.816 92.074 122.669 90.9269 121.254 90.9269Z" fill="#FF5067"/>
<path d="M112.938 103.738L119.971 90.9269H113.271L106.238 103.738H112.938Z" fill="#FE6A6A"/>
<path d="M103.568 103.738L110.601 90.9277H107.783L100.75 103.738H103.568Z" fill="#FE6A6A"/>
<path d="M121.247 105.017H100.749C99.7301 105.017 98.7525 104.612 98.0318 103.892C97.311 103.171 96.9061 102.193 96.9061 101.174V93.4875C96.9061 92.4682 97.311 91.4907 98.0318 90.7699C98.7525 90.0492 99.7301 89.6443 100.749 89.6443H121.247C122.266 89.6443 123.243 90.0492 123.964 90.7699C124.685 91.4907 125.09 92.4682 125.09 93.4875V101.174C125.09 102.193 124.685 103.171 123.964 103.892C123.243 104.612 122.266 105.017 121.247 105.017ZM100.749 92.2064C100.41 92.2064 100.084 92.3414 99.8435 92.5817C99.6032 92.8219 99.4683 93.1477 99.4683 93.4875V101.174C99.4683 101.514 99.6032 101.84 99.8435 102.08C100.084 102.32 100.41 102.455 100.749 102.455H121.247C121.586 102.455 121.912 102.32 122.152 102.08C122.393 101.84 122.528 101.514 122.528 101.174V93.4875C122.528 93.1477 122.393 92.8219 122.152 92.5817C121.912 92.3414 121.586 92.2064 121.247 92.2064H100.749Z" fill="#34234D"/>
<path d="M162.239 90.9277H141.741C140.326 90.9277 139.179 92.0748 139.179 93.4899V101.176C139.179 102.591 140.326 103.738 141.741 103.738H162.239C163.654 103.738 164.801 102.591 164.801 101.176V93.4899C164.801 92.0748 163.654 90.9277 162.239 90.9277Z" fill="#FF5067"/>
<path d="M153.933 103.738L160.966 90.9269H154.266L147.233 103.738H153.933Z" fill="#FE6A6A"/>
<path d="M144.567 103.738L151.6 90.9269H148.782L141.749 103.738H144.567Z" fill="#FE6A6A"/>
<path d="M162.246 105.017H141.749C140.73 105.017 139.752 104.613 139.031 103.892C138.311 103.171 137.906 102.193 137.906 101.174V93.4878C137.906 92.4685 138.311 91.4909 139.031 90.7702C139.752 90.0494 140.73 89.6445 141.749 89.6445H162.246C163.265 89.6445 164.243 90.0494 164.964 90.7702C165.684 91.4909 166.089 92.4685 166.089 93.4878V101.174C166.089 102.193 165.684 103.171 164.964 103.892C164.243 104.613 163.265 105.017 162.246 105.017ZM141.749 92.2067C141.409 92.2067 141.083 92.3416 140.843 92.5819C140.603 92.8221 140.468 93.148 140.468 93.4878V101.174C140.468 101.514 140.603 101.84 140.843 102.08C141.083 102.32 141.409 102.455 141.749 102.455H162.246C162.586 102.455 162.912 102.32 163.152 102.08C163.392 101.84 163.527 101.514 163.527 101.174V93.4878C163.527 93.148 163.392 92.8221 163.152 92.5819C162.912 92.3416 162.586 92.2067 162.246 92.2067H141.749Z" fill="#34234D"/>
<path d="M87.9406 180.602H57.1948V206.223H87.9406V180.602Z" fill="#FF5067"/>
<path d="M57.1943 180.602H103.21V154.98H57.1943V180.602Z" fill="white"/>
<path d="M87.9406 129.357H57.1948V154.979H87.9406V129.357Z" fill="white"/>
<path d="M87.9365 207.504H57.1907C56.851 207.504 56.5251 207.369 56.2849 207.129C56.0446 206.888 55.9097 206.563 55.9097 206.223V180.601C55.9097 180.262 56.0446 179.936 56.2849 179.696C56.5251 179.455 56.851 179.32 57.1907 179.32H87.9365C88.2763 179.32 88.6021 179.455 88.8424 179.696C89.0826 179.936 89.2176 180.262 89.2176 180.601V206.223C89.2176 206.563 89.0826 206.888 88.8424 207.129C88.6021 207.369 88.2763 207.504 87.9365 207.504ZM58.4718 204.942H86.6554V181.882H58.4718V204.942Z" fill="#34234D"/>
<path d="M118.682 180.602H87.9365V206.224H118.682V180.602Z" fill="white"/>
<path d="M103.211 180.602H133.957V154.981H103.211V180.602Z" fill="#FF5067"/>
<path d="M118.682 129.357H87.9365V154.978H118.682V129.357Z" fill="white"/>
<path d="M149.429 180.602H118.683V206.223H149.429V180.602Z" fill="white"/>
<path d="M118.684 207.503H87.9378C87.598 207.503 87.2722 207.368 87.0319 207.128C86.7917 206.888 86.6567 206.562 86.6567 206.222V180.601C86.6567 180.261 86.7917 179.935 87.0319 179.695C87.2722 179.455 87.598 179.32 87.9378 179.32H118.684C119.023 179.32 119.349 179.455 119.589 179.695C119.83 179.935 119.965 180.261 119.965 180.601V206.222C119.965 206.562 119.83 206.888 119.589 207.128C119.349 207.368 119.023 207.503 118.684 207.503ZM89.2189 204.941H117.402V181.882H89.2189V204.941Z" fill="#34234D"/>
<path d="M133.96 181.885H103.214C102.874 181.885 102.549 181.75 102.308 181.51C102.068 181.269 101.933 180.943 101.933 180.604V154.982C101.933 154.642 102.068 154.317 102.308 154.076C102.549 153.836 102.874 153.701 103.214 153.701H133.96C134.3 153.701 134.626 153.836 134.866 154.076C135.106 154.317 135.241 154.642 135.241 154.982V180.604C135.241 180.943 135.106 181.269 134.866 181.51C134.626 181.75 134.3 181.885 133.96 181.885ZM104.495 179.323H132.679V156.263H104.495V179.323Z" fill="#34234D"/>
<path d="M103.207 181.885H57.1907C56.851 181.885 56.5251 181.75 56.2849 181.51C56.0446 181.269 55.9097 180.943 55.9097 180.604V154.982C55.9097 154.642 56.0446 154.317 56.2849 154.076C56.5251 153.836 56.851 153.701 57.1907 153.701H103.207C103.547 153.701 103.873 153.836 104.113 154.076C104.353 154.317 104.488 154.642 104.488 154.982V180.604C104.488 180.943 104.353 181.269 104.113 181.51C103.873 181.75 103.547 181.885 103.207 181.885ZM58.4718 179.323H101.926V156.263H58.4718V179.323Z" fill="#34234D"/>
<path d="M87.9365 156.262H57.1907C56.851 156.262 56.5251 156.127 56.2849 155.887C56.0446 155.646 55.9097 155.32 55.9097 154.981V129.359C55.9097 129.019 56.0446 128.694 56.2849 128.453C56.5251 128.213 56.851 128.078 57.1907 128.078H87.9365C88.2763 128.078 88.6021 128.213 88.8424 128.453C89.0826 128.694 89.2176 129.019 89.2176 129.359V154.981C89.2176 155.32 89.0826 155.646 88.8424 155.887C88.6021 156.127 88.2763 156.262 87.9365 156.262ZM58.4718 153.7H86.6554V130.64H58.4718V153.7Z" fill="#34234D"/>
<path d="M118.684 156.262H87.9378C87.598 156.262 87.2722 156.127 87.0319 155.887C86.7917 155.646 86.6567 155.321 86.6567 154.981V129.359C86.6567 129.02 86.7917 128.694 87.0319 128.453C87.2722 128.213 87.598 128.078 87.9378 128.078H118.684C119.023 128.078 119.349 128.213 119.589 128.453C119.83 128.694 119.965 129.02 119.965 129.359V154.981C119.965 155.321 119.83 155.646 119.589 155.887C119.349 156.127 119.023 156.262 118.684 156.262ZM89.2189 153.7H117.402V130.64H89.2189V153.7Z" fill="#34234D"/>
<path d="M149.432 207.503H118.686C118.346 207.503 118.02 207.368 117.78 207.128C117.54 206.888 117.405 206.562 117.405 206.222V180.601C117.405 180.261 117.54 179.935 117.78 179.695C118.02 179.455 118.346 179.32 118.686 179.32H149.432C149.772 179.32 150.097 179.455 150.338 179.695C150.578 179.935 150.713 180.261 150.713 180.601V206.222C150.713 206.562 150.578 206.888 150.338 207.128C150.097 207.368 149.772 207.503 149.432 207.503ZM119.967 204.941H148.151V181.882H119.967V204.941Z" fill="#34234D"/>
</svg>
