<svg width="24" height="24" viewBox="0 0 24 24" fill="none" xmlns="http://www.w3.org/2000/svg">
<path fill-rule="evenodd" clip-rule="evenodd" d="M12.03 2.00002C14.29 2.01002 16.45 2.91013 18.03 4.49033C19.62 6.08053 20.51 8.23079 20.5 10.4611V10.5111C20.44 13.5415 18.74 16.3318 16.62 18.5121C15.42 19.7422 14.09 20.8324 12.64 21.7525C12.25 22.0825 11.68 22.0825 11.29 21.7525C9.14 20.3523 7.24 18.5921 5.7 16.5418C4.35 14.7616 3.58 12.6213 3.5 10.3911C3.52 5.74048 7.34 1.99002 12.03 2.00002ZM12.0298 13.2607C12.7398 13.2607 13.4198 12.9907 13.9198 12.5006C14.4398 11.9905 14.7308 11.3115 14.7308 10.6004C14.7308 9.12019 13.5198 7.93004 12.0298 7.93004C10.5398 7.93004 9.33984 9.12019 9.33984 10.6004C9.33984 12.0616 10.5198 13.2407 11.9998 13.2607H12.0298Z" fill="#3257FB"/>
</svg>
