<svg width="390" height="342" viewBox="0 0 390 342" fill="none" xmlns="http://www.w3.org/2000/svg">
  <path
    d="M283.329 308.695C282.906 308.321 282.253 308.391 281.917 308.846L277.959 314.214L275.893 312.09C275.541 311.728 274.959 311.728 274.608 312.09V312.09C274.269 312.438 274.269 312.992 274.608 313.34L277.354 316.165C277.781 316.604 278.499 316.56 278.869 316.071L283.461 309.999C283.765 309.597 283.708 309.028 283.329 308.695V308.695Z"
    fill="white" />
  <path
    d="M320.737 314.808H97.7965C97.6484 314.808 97.5065 314.749 97.4018 314.644C97.2971 314.539 97.2383 314.397 97.2383 314.249C97.2383 314.1 97.2971 313.958 97.4018 313.853C97.5065 313.748 97.6484 313.689 97.7965 313.689H320.737C320.885 313.689 321.027 313.748 321.132 313.853C321.237 313.958 321.296 314.1 321.296 314.249C321.296 314.397 321.237 314.539 321.132 314.644C321.027 314.749 320.885 314.808 320.737 314.808V314.808Z"
    fill="#262424" />
  <path
    d="M250.895 325.863H167.644C167.571 325.863 167.498 325.848 167.431 325.82C167.363 325.792 167.301 325.751 167.249 325.699C167.198 325.647 167.156 325.586 167.128 325.518C167.1 325.45 167.086 325.377 167.086 325.304C167.086 325.23 167.1 325.157 167.128 325.089C167.156 325.022 167.198 324.96 167.249 324.908C167.301 324.856 167.363 324.815 167.431 324.787C167.498 324.759 167.571 324.744 167.644 324.744H250.895C251.043 324.744 251.185 324.803 251.289 324.908C251.394 325.013 251.453 325.155 251.453 325.304C251.453 325.452 251.394 325.594 251.289 325.699C251.185 325.804 251.043 325.863 250.895 325.863Z"
    fill="#262424" />
  <path
    d="M160.005 325.863H128.478C128.405 325.863 128.332 325.848 128.265 325.82C128.197 325.792 128.135 325.751 128.083 325.699C128.032 325.647 127.99 325.586 127.962 325.518C127.934 325.45 127.92 325.377 127.92 325.304C127.92 325.23 127.934 325.157 127.962 325.089C127.99 325.022 128.032 324.96 128.083 324.908C128.135 324.856 128.197 324.815 128.265 324.787C128.332 324.759 128.405 324.744 128.478 324.744H160.005C160.078 324.744 160.151 324.759 160.218 324.787C160.286 324.815 160.348 324.856 160.399 324.908C160.451 324.96 160.492 325.022 160.52 325.089C160.548 325.157 160.563 325.23 160.563 325.304C160.563 325.377 160.548 325.45 160.52 325.518C160.492 325.586 160.451 325.647 160.399 325.699C160.348 325.751 160.286 325.792 160.218 325.82C160.151 325.848 160.078 325.863 160.005 325.863V325.863Z"
    fill="#262424" />
  <path
    d="M284.825 325.863H277.095C277.022 325.863 276.949 325.848 276.882 325.82C276.814 325.792 276.752 325.751 276.701 325.699C276.649 325.647 276.608 325.586 276.58 325.518C276.552 325.45 276.537 325.377 276.537 325.304C276.537 325.23 276.552 325.157 276.58 325.089C276.608 325.022 276.649 324.96 276.701 324.908C276.752 324.856 276.814 324.815 276.882 324.787C276.949 324.759 277.022 324.744 277.095 324.744H284.827C284.9 324.744 284.973 324.759 285.041 324.787C285.108 324.815 285.17 324.857 285.221 324.909C285.273 324.961 285.314 325.023 285.342 325.091C285.37 325.159 285.384 325.231 285.384 325.305C285.384 325.378 285.369 325.451 285.341 325.519C285.313 325.587 285.272 325.648 285.22 325.7C285.168 325.752 285.106 325.793 285.038 325.821C284.971 325.849 284.898 325.863 284.825 325.863V325.863Z"
    fill="#262424" />
  <path
    d="M300.301 62.9434C301.114 62.9434 301.894 63.2671 302.469 63.8435C303.044 64.4198 303.367 65.2014 303.367 66.0165V101.216C303.367 102.031 303.044 102.812 302.469 103.389C301.894 103.965 301.114 104.289 300.301 104.289V104.289V62.9434Z"
    fill="#0A0627" />
  <path
    d="M300.301 111.383C301.114 111.383 301.894 111.707 302.469 112.283C303.044 112.859 303.367 113.641 303.367 114.456V122.361C303.367 123.176 303.044 123.958 302.469 124.534C301.894 125.11 301.114 125.434 300.301 125.434V125.434V111.383Z"
    fill="#0A0627" />
  <path
    d="M299.275 40.5742H172.206C171.645 40.5742 171.189 41.0303 171.189 41.5929V313.231C171.189 313.794 171.645 314.25 172.206 314.25H299.275C299.837 314.25 300.292 313.794 300.292 313.231V41.5929C300.292 41.0303 299.837 40.5742 299.275 40.5742Z"
    fill="white" />
  <path
    d="M297.195 314.808H174.281C173.312 314.808 172.382 314.422 171.696 313.735C171.01 313.048 170.625 312.116 170.625 311.144V43.678C170.625 42.7061 171.01 41.7741 171.696 41.0869C172.382 40.3997 173.312 40.0137 174.281 40.0137H297.187C298.157 40.0137 299.087 40.3997 299.773 41.0869C300.458 41.7741 300.844 42.7061 300.844 43.678V311.144C300.844 312.114 300.459 313.045 299.775 313.732C299.091 314.419 298.163 314.806 297.195 314.808ZM174.281 41.1325C173.609 41.1344 172.964 41.4034 172.489 41.8805C172.014 42.3576 171.747 43.0039 171.746 43.678V311.144C171.747 311.818 172.014 312.465 172.489 312.942C172.964 313.42 173.608 313.689 174.281 313.692H297.187C297.861 313.691 298.506 313.423 298.983 312.946C299.459 312.468 299.727 311.821 299.727 311.146V43.678C299.727 43.0031 299.459 42.356 298.983 41.8788C298.506 41.4015 297.861 41.1331 297.187 41.1325H174.281V41.1325Z"
    fill="#262424" />
  <path
    d="M292.855 50.6827V304.149C292.855 304.852 292.576 305.526 292.08 306.023C291.584 306.52 290.912 306.799 290.21 306.799H181.254C180.553 306.799 179.88 306.52 179.384 306.023C178.888 305.526 178.609 304.852 178.609 304.149V50.6754C178.609 49.9731 178.888 49.2995 179.383 48.8029C179.879 48.3063 180.551 48.0273 181.252 48.0273H212.864C213.704 48.0273 214.51 48.3619 215.104 48.9575C215.698 49.553 216.032 50.3608 216.032 51.2031V51.2031C216.032 52.0453 216.366 52.8531 216.96 53.4486C217.555 54.0442 218.361 54.3788 219.201 54.3788H252.28C253.121 54.3788 253.927 54.0442 254.521 53.4486C255.115 52.8531 255.449 52.0453 255.449 51.2031V51.2031C255.449 50.3608 255.783 49.553 256.377 48.9575C256.971 48.3619 257.777 48.0273 258.618 48.0273H290.215C290.915 48.0325 291.585 48.3142 292.08 48.8114C292.574 49.3085 292.852 49.981 292.855 50.6827V50.6827Z"
    fill="white" />
  <path
    d="M290.213 307.357H181.257C180.409 307.356 179.595 307.018 178.995 306.417C178.396 305.815 178.058 305 178.057 304.15V50.6743C178.058 49.824 178.396 49.0089 178.995 48.4077C179.595 47.8064 180.409 47.4681 181.257 47.4668H212.862C213.85 47.4674 214.797 47.8608 215.495 48.5606C216.194 49.2604 216.587 50.2095 216.589 51.1995C216.589 51.8932 216.865 52.5583 217.354 53.0488C217.843 53.5393 218.507 53.8151 219.199 53.8158H252.281C252.973 53.8151 253.637 53.5393 254.126 53.0488C254.616 52.5583 254.891 51.8932 254.892 51.1995C254.893 50.2095 255.286 49.2604 255.985 48.5606C256.683 47.8608 257.631 47.4674 258.618 47.4668H290.216C291.066 47.4681 291.881 47.8072 292.483 48.4098C293.084 49.0124 293.422 49.8294 293.424 50.6816V304.148C293.423 304.57 293.34 304.988 293.178 305.377C293.017 305.767 292.78 306.121 292.482 306.419C292.184 306.717 291.83 306.954 291.441 307.115C291.052 307.276 290.634 307.358 290.213 307.357ZM181.257 48.5856C180.704 48.5863 180.174 48.8068 179.782 49.1988C179.391 49.5908 179.171 50.1223 179.171 50.6767V304.148C179.171 304.702 179.391 305.233 179.782 305.625C180.174 306.017 180.704 306.238 181.257 306.239H290.213C290.767 306.238 291.297 306.017 291.688 305.625C292.079 305.233 292.299 304.702 292.3 304.148V50.6816C292.299 50.1253 292.078 49.5919 291.686 49.1985C291.293 48.8051 290.761 48.5838 290.206 48.5832H258.618C257.926 48.5838 257.263 48.8597 256.773 49.3502C256.284 49.8407 256.009 50.5058 256.008 51.1995C256.007 52.1895 255.613 53.1385 254.915 53.8383C254.216 54.5381 253.269 54.9315 252.281 54.9322H219.199C218.212 54.9309 217.265 54.5372 216.567 53.8375C215.869 53.1377 215.476 52.1891 215.475 51.1995C215.474 50.5058 215.199 49.8407 214.709 49.3502C214.22 48.8597 213.556 48.5838 212.864 48.5832H181.264L181.257 48.5856Z"
    fill="#262424" />
  <path
    d="M292.859 50.6862V67.752H178.623V50.6691C178.623 50.3216 178.691 49.9776 178.824 49.6566C178.957 49.3356 179.151 49.044 179.396 48.7983C179.641 48.5527 179.932 48.3578 180.253 48.2248C180.573 48.0919 180.916 48.0234 181.263 48.0234H212.865C213.705 48.0234 214.511 48.358 215.106 48.9536C215.7 49.5491 216.034 50.3569 216.034 51.1992C216.034 52.0414 216.368 52.8492 216.962 53.4447C217.556 54.0403 218.362 54.3749 219.203 54.3749H252.282C253.122 54.3749 253.928 54.0403 254.523 53.4447C255.117 52.8492 255.451 52.0414 255.451 51.1992C255.451 50.3569 255.784 49.5491 256.379 48.9536C256.973 48.358 257.779 48.0234 258.619 48.0234H290.214C290.916 48.0279 291.588 48.3103 292.084 48.809C292.579 49.3078 292.858 49.9825 292.859 50.6862V50.6862Z"
    fill="#0A0627" />
  <path
    d="M292.858 68.3097H178.623C178.475 68.3097 178.333 68.2508 178.228 68.1459C178.123 68.041 178.064 67.8987 178.064 67.7503V50.6699C178.065 49.82 178.402 49.0052 179.002 48.4043C179.601 47.8034 180.414 47.4655 181.262 47.4648H212.865C213.852 47.4655 214.8 47.8589 215.498 48.5587C216.197 49.2585 216.59 50.2075 216.592 51.1975C216.593 51.891 216.868 52.5557 217.358 53.0461C217.847 53.5365 218.51 53.8125 219.202 53.8138H252.281C252.974 53.8132 253.637 53.5373 254.127 53.0468C254.616 52.5563 254.891 51.8912 254.892 51.1975C254.895 50.2082 255.288 49.2601 255.987 48.561C256.685 47.8618 257.632 47.4686 258.619 47.4673H290.214C291.066 47.4679 291.882 47.8074 292.485 48.411C293.087 49.0147 293.426 49.8333 293.426 50.687V67.7528C293.426 67.8269 293.411 67.9001 293.382 67.9684C293.353 68.0366 293.311 68.0984 293.259 68.1502C293.206 68.2021 293.143 68.2428 293.074 68.2702C293.006 68.2976 292.932 68.311 292.858 68.3097ZM179.181 67.1909H292.3V50.687C292.3 50.13 292.079 49.596 291.686 49.2022C291.293 48.8083 290.76 48.5868 290.204 48.5861H258.619C257.927 48.5874 257.264 48.8635 256.774 49.3538C256.285 49.8442 256.01 50.5089 256.008 51.2024C256.006 52.192 255.613 53.1404 254.914 53.8397C254.216 54.539 253.269 54.932 252.281 54.9327H219.2C218.212 54.9307 217.266 54.5368 216.568 53.8372C215.87 53.1376 215.477 52.1893 215.475 51.2C215.475 50.5063 215.199 49.8412 214.71 49.3507C214.22 48.8602 213.557 48.5843 212.865 48.5837H181.262C180.711 48.5843 180.181 48.8043 179.791 49.1954C179.401 49.5865 179.181 50.1168 179.181 50.6699V67.1909V67.1909Z"
    fill="#262424" />
  <path
    d="M178.623 291.117H292.859V304.135C292.86 304.483 292.792 304.829 292.659 305.151C292.526 305.473 292.331 305.766 292.085 306.012C291.839 306.259 291.547 306.454 291.226 306.587C290.904 306.72 290.56 306.788 290.212 306.788H181.256C180.556 306.785 179.885 306.504 179.392 306.007C178.898 305.509 178.622 304.836 178.623 304.135V291.109V291.117Z"
    fill="#0A0627" />
  <path
    d="M290.211 307.358H181.255C180.406 307.354 179.593 307.012 178.995 306.408C178.396 305.804 178.062 304.987 178.064 304.135V291.11C178.064 290.962 178.123 290.82 178.228 290.715C178.333 290.61 178.475 290.551 178.623 290.551H292.859C293.007 290.551 293.149 290.61 293.253 290.715C293.358 290.82 293.417 290.962 293.417 291.11V304.135C293.418 304.558 293.336 304.977 293.175 305.367C293.014 305.758 292.778 306.113 292.481 306.413C292.183 306.712 291.829 306.949 291.44 307.112C291.051 307.274 290.633 307.357 290.211 307.358V307.358ZM179.181 291.677V304.135C179.181 304.689 179.4 305.221 179.79 305.613C180.18 306.006 180.71 306.227 181.262 306.229H290.219C290.773 306.228 291.304 306.008 291.695 305.615C292.087 305.223 292.307 304.691 292.308 304.135V291.677H179.181Z"
    fill="#262424" />
  <path
    d="M231.856 145.816L226.989 150.695C226.482 151.203 226.482 152.027 226.989 152.536C227.496 153.044 228.319 153.044 228.826 152.536L233.694 147.658C234.201 147.149 234.201 146.325 233.694 145.816C233.186 145.308 232.364 145.308 231.856 145.816Z"
    fill="white" />
  <path
    d="M237.01 140.649L234.969 142.695C234.462 143.203 234.462 144.027 234.969 144.536C235.477 145.044 236.299 145.044 236.807 144.536L238.847 142.491C239.355 141.982 239.355 141.158 238.847 140.649C238.34 140.141 237.518 140.141 237.01 140.649Z"
    fill="white" />
  <path
    d="M254.297 123.325L252.257 125.37C251.749 125.879 251.749 126.703 252.257 127.212C252.764 127.72 253.587 127.72 254.094 127.212L256.135 125.167C256.642 124.658 256.642 123.834 256.135 123.325C255.627 122.817 254.805 122.817 254.297 123.325Z"
    fill="white" />
  <path
    d="M216.716 238.555C218.222 238.555 219.443 237.331 219.443 235.821C219.443 234.312 218.222 233.088 216.716 233.088C215.209 233.088 213.988 234.312 213.988 235.821C213.988 237.331 215.209 238.555 216.716 238.555Z"
    fill="white" />
  <path
    d="M254.763 238.555C256.269 238.555 257.49 237.331 257.49 235.821C257.49 234.312 256.269 233.088 254.763 233.088C253.256 233.088 252.035 234.312 252.035 235.821C252.035 237.331 253.256 238.555 254.763 238.555Z"
    fill="white" />
  <path
    d="M265.029 255.205H206.449C201.13 255.205 196.818 259.526 196.818 264.857V264.859C196.818 270.19 201.13 274.511 206.449 274.511H265.029C270.348 274.511 274.66 270.19 274.66 264.859V264.857C274.66 259.526 270.348 255.205 265.029 255.205Z"
    fill="#0A0627" />
  <path
    d="M253.007 262.354H204.096C202.716 262.354 201.598 263.475 201.598 264.857C201.598 266.24 202.716 267.361 204.096 267.361H253.007C254.387 267.361 255.505 266.24 255.505 264.857C255.505 263.475 254.387 262.354 253.007 262.354Z"
    fill="white" />
  <path
    d="M267.385 262.354H262.344C260.964 262.354 259.846 263.475 259.846 264.857C259.846 266.24 260.964 267.361 262.344 267.361H267.385C268.765 267.361 269.883 266.24 269.883 264.857C269.883 263.475 268.765 262.354 267.385 262.354Z"
    fill="white" />
  <path
    d="M251.031 48.0234H220.45C219.525 48.0234 218.775 48.7748 218.775 49.7017V49.8996C218.775 50.8264 219.525 51.5778 220.45 51.5778H251.031C251.956 51.5778 252.705 50.8264 252.705 49.8996V49.7017C252.705 48.7748 251.956 48.0234 251.031 48.0234Z"
    fill="#0A0627" />
  <path d="M145.978 243.826L156.257 251.839L152.913 257.863L141.912 251.775L145.978 243.826Z" fill="white" />
  <path
    d="M152.909 258.423C152.816 258.422 152.723 258.398 152.641 258.352L141.641 252.264C141.517 252.194 141.425 252.079 141.382 251.943C141.34 251.807 141.352 251.66 141.414 251.532L145.48 243.583C145.517 243.509 145.57 243.445 145.635 243.395C145.7 243.345 145.775 243.31 145.855 243.292C145.936 243.275 146.018 243.275 146.098 243.293C146.178 243.311 146.254 243.347 146.318 243.397L156.6 251.409C156.705 251.492 156.777 251.609 156.803 251.739C156.83 251.87 156.809 252.006 156.744 252.123L153.397 258.147C153.347 258.232 153.276 258.302 153.19 258.351C153.105 258.399 153.008 258.424 152.909 258.423V258.423ZM142.652 251.551L152.693 257.106L155.535 251.976L146.162 244.672L142.652 251.551Z"
    fill="#262424" />
  <path
    d="M171.19 251.095V285.187C169.391 285.395 167.569 285.149 165.889 284.472C164.301 283.818 162.943 282.705 161.989 281.274C161.17 280.053 160.012 278.054 158.732 275.753C154.962 268.913 150.182 259.386 150.182 259.386L154.925 249.876C158.585 249.732 162.251 249.857 165.894 250.25C167.673 250.439 169.441 250.721 171.19 251.095V251.095Z"
    fill="#3257FB" />
  <path
    d="M159.431 259.151C161.818 259.151 163.753 257.754 163.753 256.032C163.753 254.309 161.818 252.912 159.431 252.912C157.044 252.912 155.109 254.309 155.109 256.032C155.109 257.754 157.044 259.151 159.431 259.151Z"
    fill="white" />
  <path
    d="M171.19 251.095V285.187C169.391 285.395 167.569 285.149 165.889 284.471V250.252C167.669 250.44 169.439 250.722 171.19 251.095V251.095Z"
    fill="white" />
  <path
    d="M169.986 285.815C168.508 285.82 167.043 285.537 165.674 284.982C165.572 284.939 165.485 284.868 165.424 284.776C165.363 284.684 165.33 284.576 165.33 284.466V250.251C165.33 250.173 165.346 250.095 165.378 250.024C165.41 249.952 165.456 249.888 165.515 249.835C165.573 249.783 165.641 249.743 165.716 249.719C165.79 249.695 165.869 249.686 165.947 249.694C167.748 249.885 169.538 250.17 171.309 250.547C171.434 250.574 171.546 250.643 171.626 250.742C171.707 250.842 171.75 250.966 171.75 251.094V285.187C171.75 285.32 171.703 285.449 171.617 285.55C171.531 285.651 171.411 285.718 171.28 285.739C170.851 285.795 170.418 285.82 169.986 285.815ZM166.446 284.085C167.787 284.565 169.211 284.766 170.632 284.676V251.549C169.298 251.275 167.894 251.06 166.446 250.879V284.102V284.085Z"
    fill="#262424" />
  <path
    d="M165.889 273.397L171.19 271.652V285.186C169.391 285.393 167.569 285.147 165.889 284.47C164.301 283.816 162.943 282.703 161.989 281.272C161.17 280.051 160.012 278.053 158.732 275.751L165.889 273.397Z"
    fill="white" />
  <path
    d="M169.987 285.814C168.509 285.82 167.044 285.537 165.675 284.981C163.987 284.285 162.545 283.101 161.531 281.581C160.783 280.464 159.678 278.593 158.25 276.018C158.21 275.946 158.186 275.866 158.181 275.784C158.175 275.701 158.188 275.619 158.218 275.542C158.248 275.465 158.295 275.396 158.355 275.34C158.415 275.283 158.486 275.24 158.565 275.215L165.719 272.86L171.02 271.115C171.104 271.088 171.193 271.081 171.281 271.095C171.368 271.108 171.451 271.142 171.522 271.194C171.594 271.245 171.652 271.313 171.692 271.392C171.732 271.47 171.754 271.557 171.754 271.646V285.179C171.754 285.312 171.706 285.441 171.62 285.542C171.534 285.643 171.415 285.71 171.283 285.731C170.854 285.79 170.42 285.818 169.987 285.814ZM159.554 276.067C160.809 278.31 161.784 279.954 162.457 280.953C163.352 282.292 164.625 283.334 166.113 283.945C167.55 284.525 169.097 284.776 170.642 284.678V272.422L159.554 276.067Z"
    fill="#262424" />
  <path
    d="M148.173 244.073L141.972 255.749C141.972 255.749 135.191 251.841 126.409 246.366C116.171 239.966 103.187 231.411 95.0672 224.347C90.9698 220.785 88.4348 217.914 88.5908 216.38C88.7249 215.098 89.8095 212.088 91.5158 207.989C99.4499 189.033 120.563 146.952 120.563 146.952C127.501 130.929 144.975 135.529 146.959 143.972C148.943 152.414 144.356 164.592 144.356 164.592L142.837 167.162L135.708 179.198L115.359 213.52L141.375 237.753L148.173 244.073Z"
    fill="#3257FB" />
  <path
    d="M148.173 244.074L141.972 255.75C141.972 255.75 135.191 251.842 126.408 246.367L141.374 237.754L148.173 244.074Z"
    fill="#262424" />
  <path d="M142.837 167.162L135.707 179.198L138.6 161.299C138.432 164.128 140.626 165.999 142.837 167.162Z"
    fill="#262424" />
  <path
    d="M95.0633 224.348C90.9659 220.786 88.4309 217.916 88.5869 216.381C88.721 215.099 89.8056 212.089 91.5119 207.99C93.9884 208.877 96.2114 211.322 97.201 214.586C98.4027 218.514 97.4423 222.425 95.0633 224.348Z"
    fill="white" />
  <path
    d="M141.354 245.567C141.226 245.567 141.102 245.523 141.003 245.442L103.916 215.199C103.819 215.12 103.751 215.009 103.724 214.886C103.697 214.763 103.712 214.634 103.768 214.52L129.978 160.68C130.048 160.556 130.163 160.464 130.298 160.422C130.434 160.379 130.58 160.391 130.708 160.453C130.835 160.515 130.935 160.624 130.985 160.757C131.036 160.89 131.034 161.037 130.98 161.168L104.964 214.613L141.705 244.575C141.794 244.648 141.858 244.746 141.888 244.857C141.919 244.968 141.915 245.086 141.877 245.194C141.838 245.303 141.768 245.397 141.674 245.463C141.58 245.53 141.469 245.566 141.354 245.567V245.567Z"
    fill="#262424" />
  <path
    d="M94.7864 217.062C94.6464 217.062 94.5117 217.008 94.409 216.913C94.3064 216.817 94.2433 216.687 94.2322 216.547C94.2212 216.407 94.263 216.268 94.3494 216.158C94.4358 216.047 94.5604 215.973 94.6986 215.951L113.041 212.97C113.114 212.957 113.189 212.958 113.262 212.974C113.335 212.99 113.404 213.02 113.465 213.063C113.526 213.106 113.577 213.16 113.617 213.224C113.656 213.287 113.683 213.357 113.695 213.431C113.706 213.505 113.704 213.58 113.686 213.653C113.668 213.725 113.636 213.793 113.592 213.853C113.548 213.913 113.492 213.964 113.428 214.002C113.364 214.04 113.293 214.065 113.219 214.075L94.8766 217.055C94.8468 217.06 94.8166 217.062 94.7864 217.062V217.062Z"
    fill="#262424" />
  <path
    d="M139.425 252.336C139.329 252.335 139.234 252.31 139.15 252.261C139.066 252.213 138.996 252.144 138.947 252.06C138.897 251.977 138.871 251.882 138.869 251.785C138.868 251.688 138.891 251.593 138.938 251.507L143.896 242.44C143.927 242.369 143.973 242.306 144.03 242.254C144.087 242.202 144.155 242.163 144.228 242.138C144.301 242.114 144.378 242.105 144.455 242.112C144.532 242.119 144.606 242.141 144.674 242.179C144.741 242.216 144.8 242.267 144.847 242.328C144.894 242.389 144.928 242.46 144.947 242.535C144.965 242.61 144.968 242.688 144.955 242.764C144.942 242.84 144.913 242.913 144.871 242.977L139.913 252.045C139.865 252.133 139.795 252.206 139.709 252.257C139.623 252.308 139.525 252.335 139.425 252.336Z"
    fill="#262424" />
  <path d="M136.74 280.592L135.129 295.246L142.193 297.919L145.786 280.592H136.74Z" fill="white" />
  <path
    d="M142.19 298.475C142.123 298.475 142.056 298.463 141.993 298.439L134.924 295.769C134.808 295.725 134.71 295.644 134.645 295.538C134.58 295.432 134.552 295.308 134.566 295.185L136.177 280.528C136.194 280.393 136.26 280.269 136.362 280.179C136.463 280.089 136.595 280.039 136.73 280.039H145.776C145.859 280.039 145.94 280.058 146.015 280.093C146.09 280.129 146.156 280.181 146.208 280.245C146.26 280.309 146.297 280.385 146.317 280.465C146.337 280.546 146.338 280.63 146.322 280.711L142.736 298.028C142.71 298.154 142.642 298.268 142.543 298.349C142.443 298.431 142.319 298.475 142.19 298.475ZM135.728 294.877L141.778 297.163L145.101 281.151H137.23L135.728 294.877Z"
    fill="#262424" />
  <path
    d="M143.182 167.756C143.098 167.758 143.014 167.74 142.938 167.705L141.232 166.918C140.278 166.477 139.47 165.772 138.902 164.885C138.335 163.999 138.033 162.968 138.031 161.915V151.05C138.031 150.901 138.09 150.759 138.195 150.654C138.299 150.549 138.441 150.49 138.589 150.49C138.737 150.49 138.879 150.549 138.984 150.654C139.089 150.759 139.148 150.901 139.148 151.05V161.913C139.149 162.752 139.389 163.573 139.841 164.28C140.293 164.986 140.937 165.548 141.697 165.9L143.403 166.686C143.52 166.739 143.615 166.829 143.672 166.942C143.73 167.056 143.748 167.186 143.722 167.311C143.696 167.436 143.628 167.548 143.53 167.629C143.432 167.71 143.309 167.755 143.182 167.756V167.756Z"
    fill="#262424" />
  <path
    d="M141.448 148.814L141.633 174.152L131.223 282.578L148.697 283.882C148.697 283.882 171.366 179.927 172.304 175.642C173.243 171.357 173.233 158.874 172.304 149.188C171.376 139.502 141.448 127.391 141.448 148.814Z"
    fill="#3257FB" />
  <path
    d="M134.369 250.379H134.306C134.233 250.372 134.162 250.35 134.097 250.316C134.032 250.281 133.975 250.235 133.928 250.178C133.882 250.121 133.847 250.056 133.825 249.985C133.804 249.915 133.796 249.841 133.803 249.768L135.312 234.043C135.335 233.903 135.41 233.776 135.522 233.689C135.634 233.602 135.776 233.561 135.917 233.575C136.059 233.589 136.189 233.656 136.283 233.763C136.377 233.87 136.426 234.009 136.421 234.151L134.912 249.876C134.899 250.012 134.836 250.138 134.736 250.231C134.636 250.323 134.505 250.376 134.369 250.379V250.379Z"
    fill="#262424" />
  <path
    d="M172.304 176.2C172.221 176.2 172.139 176.182 172.064 176.146C171.989 176.11 171.923 176.057 171.87 175.993C171.818 175.928 171.781 175.852 171.761 175.771C171.742 175.69 171.741 175.605 171.758 175.524C172.67 171.322 172.665 158.795 171.758 149.241C171.754 149.099 171.803 148.96 171.897 148.853C171.99 148.746 172.121 148.678 172.263 148.665C172.404 148.651 172.545 148.692 172.658 148.779C172.77 148.866 172.845 148.993 172.868 149.133C173.808 158.951 173.804 171.393 172.868 175.761C172.84 175.888 172.768 176.002 172.665 176.082C172.562 176.163 172.435 176.204 172.304 176.2V176.2Z"
    fill="#262424" />
  <path
    d="M153.444 262.685C153.36 262.685 153.278 262.666 153.202 262.63C153.127 262.594 153.061 262.541 153.008 262.476C152.956 262.411 152.919 262.335 152.9 262.253C152.88 262.172 152.88 262.087 152.898 262.006L155.36 250.724C155.376 250.653 155.405 250.585 155.448 250.525C155.49 250.465 155.543 250.414 155.605 250.374C155.667 250.335 155.736 250.308 155.808 250.295C155.881 250.283 155.955 250.285 156.026 250.301C156.098 250.317 156.165 250.347 156.225 250.389C156.285 250.431 156.336 250.485 156.376 250.547C156.415 250.609 156.442 250.678 156.454 250.751C156.467 250.823 156.465 250.897 156.449 250.969L153.987 262.25C153.959 262.373 153.89 262.483 153.791 262.562C153.693 262.641 153.57 262.684 153.444 262.685V262.685Z"
    fill="#262424" />
  <path
    d="M153.425 218.942C154.31 213.979 151.976 209.408 148.212 208.733C144.447 208.059 140.677 211.535 139.791 216.498C138.905 221.461 141.239 226.031 145.004 226.706C148.769 227.381 152.539 223.905 153.425 218.942Z"
    fill="white" />
  <path
    d="M168.31 170.798C168.267 170.798 168.225 170.793 168.183 170.783L165.926 170.268C164.725 169.995 163.653 169.32 162.887 168.355C162.12 167.389 161.705 166.191 161.709 164.957V156.651C161.709 156.503 161.768 156.361 161.873 156.256C161.977 156.151 162.119 156.092 162.267 156.092C162.415 156.092 162.557 156.151 162.662 156.256C162.767 156.361 162.825 156.503 162.825 156.651V164.957C162.822 165.938 163.152 166.89 163.762 167.657C164.371 168.425 165.223 168.961 166.177 169.178L168.434 169.701C168.561 169.737 168.672 169.817 168.745 169.928C168.819 170.038 168.851 170.17 168.836 170.302C168.821 170.434 168.76 170.556 168.664 170.647C168.567 170.738 168.442 170.791 168.31 170.798Z"
    fill="#262424" />
  <path
    d="M147.211 277.922C147.175 277.925 147.138 277.925 147.102 277.922C146.957 277.893 146.829 277.807 146.747 277.684C146.664 277.561 146.634 277.41 146.663 277.265L167.845 170.267V155.513C167.845 155.364 167.904 155.222 168.008 155.117C168.113 155.012 168.255 154.953 168.403 154.953C168.551 154.953 168.693 155.012 168.798 155.117C168.902 155.222 168.961 155.364 168.961 155.513V170.324C168.965 170.36 168.965 170.397 168.961 170.434L147.77 277.462C147.746 277.593 147.677 277.711 147.575 277.795C147.472 277.879 147.344 277.924 147.211 277.922V277.922Z"
    fill="#262424" />
  <path
    d="M147.768 280.84H147.712L133.331 279.597C133.256 279.593 133.182 279.574 133.115 279.542C133.047 279.509 132.987 279.463 132.937 279.406C132.888 279.35 132.85 279.284 132.827 279.212C132.803 279.141 132.794 279.065 132.801 278.99C132.807 278.915 132.829 278.842 132.864 278.776C132.899 278.709 132.947 278.651 133.006 278.603C133.064 278.556 133.131 278.521 133.203 278.5C133.276 278.479 133.351 278.474 133.426 278.483L147.807 279.726C147.946 279.743 148.073 279.812 148.164 279.918C148.254 280.025 148.302 280.161 148.297 280.301C148.292 280.441 148.235 280.574 148.137 280.674C148.039 280.774 147.908 280.833 147.768 280.84Z"
    fill="#262424" />
  <path
    d="M143.925 296.304L133.064 293.26C133.064 293.26 124.859 297.989 118.042 301.768C115.743 303.051 113.752 304.211 112.533 305.032C111.105 305.988 109.994 307.349 109.342 308.94C108.666 310.624 108.421 312.451 108.628 314.254H143.796C144.301 307.358 143.925 296.304 143.925 296.304Z"
    fill="#3257FB" />
  <path
    d="M137.718 306.799C139.437 306.799 140.831 304.86 140.831 302.468C140.831 300.076 139.437 298.137 137.718 298.137C135.999 298.137 134.605 300.076 134.605 302.468C134.605 304.86 135.999 306.799 137.718 306.799Z"
    fill="white" />
  <path
    d="M109.342 308.936C108.666 310.619 108.421 312.446 108.628 314.249H143.796C143.916 312.639 143.984 310.804 144.023 308.936H109.342Z"
    fill="white" />
  <path
    d="M143.795 314.81H108.627C108.494 314.809 108.365 314.762 108.264 314.675C108.163 314.589 108.097 314.469 108.076 314.338C107.849 312.432 108.108 310.499 108.826 308.719C108.869 308.618 108.94 308.531 109.032 308.469C109.123 308.408 109.231 308.375 109.341 308.375H144.021C144.096 308.375 144.169 308.39 144.238 308.419C144.306 308.448 144.369 308.49 144.421 308.543C144.473 308.596 144.513 308.66 144.541 308.729C144.568 308.798 144.581 308.872 144.58 308.947C144.538 311.011 144.46 312.809 144.353 314.289C144.343 314.431 144.28 314.563 144.176 314.66C144.073 314.756 143.936 314.81 143.795 314.81V314.81ZM109.134 313.691H143.276C143.354 312.469 143.415 311.072 143.451 309.496H109.721C109.246 310.841 109.046 312.269 109.134 313.693V313.691Z"
    fill="#262424" />
  <path
    d="M120.39 308.936L122.118 314.249H108.614C108.407 312.446 108.653 310.62 109.328 308.936C109.981 307.344 111.091 305.983 112.519 305.027C113.738 304.207 115.732 303.046 118.028 301.764L120.39 308.936Z"
    fill="white" />
  <path
    d="M122.119 314.809H108.615C108.482 314.809 108.354 314.761 108.253 314.675C108.152 314.588 108.085 314.469 108.064 314.337C107.838 312.431 108.096 310.498 108.815 308.719C109.509 307.028 110.69 305.582 112.208 304.566C113.329 303.814 115.196 302.707 117.758 301.278C117.83 301.238 117.909 301.214 117.991 301.208C118.073 301.203 118.156 301.215 118.232 301.245C118.309 301.275 118.378 301.321 118.435 301.381C118.491 301.441 118.534 301.512 118.56 301.591L120.91 308.76L122.65 314.074C122.678 314.158 122.685 314.247 122.672 314.335C122.658 314.423 122.624 314.506 122.572 314.578C122.52 314.649 122.452 314.708 122.373 314.748C122.294 314.788 122.207 314.809 122.119 314.809V314.809ZM109.122 313.69H121.348L117.731 302.587C115.498 303.843 113.858 304.82 112.856 305.497C111.519 306.393 110.48 307.669 109.87 309.161C109.294 310.598 109.042 312.146 109.134 313.692L109.122 313.69Z"
    fill="#262424" />
  <path
    d="M129.147 114.348C127.214 119.319 124.944 124.319 122.809 128.699C118.965 136.622 115.589 142.502 115.589 142.502L118.392 162.413L108.167 167.629C102.22 158.685 98.5 145.643 98.5 145.643C102.59 114.902 115.602 90.3123 115.602 90.3123C125.644 83.6091 134.568 100.377 129.147 114.348Z"
    fill="#0A0627" />
  <path d="M122.812 128.702C118.968 136.624 115.592 142.504 115.592 142.504L117.298 119.238L122.812 128.702Z"
    fill="#262424" />
  <path
    d="M104.325 143.799C104.209 143.799 104.095 143.763 104.001 143.696C103.906 143.628 103.835 143.533 103.797 143.423C103.758 143.313 103.755 143.194 103.788 143.082C103.821 142.97 103.887 142.872 103.979 142.8C104.123 142.687 107.564 140.056 113.972 141.962C114.044 141.981 114.112 142.015 114.171 142.061C114.23 142.107 114.279 142.164 114.315 142.229C114.351 142.294 114.374 142.366 114.383 142.44C114.391 142.514 114.384 142.589 114.363 142.661C114.342 142.733 114.307 142.799 114.26 142.857C114.212 142.915 114.154 142.963 114.088 142.997C114.022 143.032 113.95 143.053 113.876 143.06C113.801 143.066 113.726 143.057 113.656 143.034C107.806 141.295 104.71 143.657 104.678 143.679C104.578 143.759 104.453 143.801 104.325 143.799V143.799Z"
    fill="#262424" />
  <path
    d="M112.386 154.342C111.038 155.495 113.19 162.851 117.963 163.596C122.736 164.341 115.794 151.423 112.386 154.342Z"
    fill="white" />
  <path
    d="M118.344 164.184C118.188 164.183 118.032 164.17 117.878 164.145C114.77 163.656 112.562 160.549 111.753 157.684C111.248 155.903 111.35 154.493 112.026 153.914C112.586 153.426 113.8 152.827 115.631 154.159C118.188 156.015 120.864 160.981 119.969 163.153C119.843 163.476 119.617 163.749 119.324 163.934C119.032 164.12 118.689 164.207 118.344 164.184ZM113.532 154.474C113.244 154.472 112.966 154.576 112.75 154.767V154.767C112.535 154.952 112.408 155.91 112.825 157.381C113.539 159.904 115.431 162.633 118.051 163.041C118.763 163.151 118.882 162.867 118.938 162.728C119.514 161.328 117.393 156.821 114.975 155.065C114.431 154.672 113.949 154.474 113.532 154.474Z"
    fill="#262424" />
  <path
    d="M110.217 157.943C108.225 158.265 103.277 166.016 104.082 168.557C104.886 171.098 111.492 174.466 114.368 169.986C118.273 163.916 113.315 157.447 110.217 157.943Z"
    fill="white" />
  <path
    d="M110.321 172.744C110.016 172.743 109.712 172.721 109.409 172.68C106.801 172.333 104.118 170.523 103.559 168.73C102.931 166.742 105.076 163.023 105.753 161.932C106.189 161.221 108.459 157.661 110.141 157.39C111.708 157.146 113.57 158.279 114.886 160.295C115.856 161.782 116.369 163.522 116.362 165.298C116.356 167.075 115.83 168.811 114.85 170.291C114.375 171.061 113.707 171.693 112.912 172.123C112.117 172.553 111.224 172.767 110.321 172.744V172.744ZM110.565 158.475C110.477 158.474 110.39 158.481 110.304 158.494V158.494C109.69 158.592 108.215 160.036 106.687 162.518C105.134 165.044 104.3 167.404 104.612 168.381C105.005 169.624 107.203 171.249 109.556 171.556C110.872 171.732 112.695 171.556 113.897 169.671C114.767 168.374 115.236 166.849 115.243 165.287C115.25 163.725 114.796 162.195 113.938 160.891C112.98 159.432 111.637 158.475 110.565 158.475Z"
    fill="#262424" />
  <path
    d="M174.727 143.546L176.765 153.285C176.765 153.285 175.412 154.455 173.189 156.217C169.07 159.48 161.955 164.801 154.83 168.551L142.747 154.018L129.178 165.197C129.178 165.197 120.997 156.627 116.722 148.058L121.37 139.859C121.37 139.859 115.235 119.74 115.608 90.3035C115.608 90.3035 134.109 78.5778 145.536 77.0754C156.963 75.5731 178.722 86.6661 178.722 86.6661L174.347 141.735L174.727 143.546Z"
    fill="#0A0627" />
  <path
    d="M176.762 153.285C176.762 153.285 175.409 154.455 173.186 156.216L162.264 141.84L174.727 143.55L176.762 153.285Z"
    fill="#262424" />
  <path
    d="M119.328 131.932C119.2 131.931 119.075 131.887 118.976 131.805C118.876 131.724 118.808 131.611 118.782 131.485C117.076 123.123 115.041 109.658 115.033 92.995C115.033 92.8466 115.092 92.7043 115.197 92.5994C115.301 92.4945 115.443 92.4355 115.591 92.4355C115.739 92.4355 115.881 92.4945 115.986 92.5994C116.091 92.7043 116.15 92.8466 116.15 92.995C116.15 109.565 118.18 122.949 119.877 131.26C119.904 131.405 119.874 131.555 119.792 131.678C119.71 131.801 119.582 131.886 119.438 131.915C119.402 131.924 119.365 131.93 119.328 131.932V131.932Z"
    fill="#262424" />
  <path
    d="M142.623 150.433C142.475 150.433 142.333 150.374 142.228 150.269C142.123 150.164 142.064 150.022 142.064 149.874C142.064 117.384 144.183 89.987 144.205 89.7134C144.207 89.6376 144.224 89.5631 144.256 89.4943C144.288 89.4254 144.333 89.3638 144.39 89.3131C144.446 89.2625 144.512 89.2238 144.584 89.1995C144.655 89.1752 144.731 89.1657 144.806 89.1717C144.882 89.1776 144.955 89.1989 145.022 89.2342C145.089 89.2695 145.148 89.3181 145.196 89.377C145.244 89.4359 145.279 89.5039 145.3 89.5768C145.32 89.6498 145.326 89.7262 145.316 89.8014C145.294 90.075 143.178 117.428 143.178 149.874C143.178 150.022 143.12 150.164 143.016 150.268C142.912 150.373 142.77 150.432 142.623 150.433V150.433Z"
    fill="#262424" />
  <path
    d="M155.513 83.4833C154.843 85.1924 153.806 86.7331 152.477 87.9965C151.147 89.2599 149.556 90.2152 147.818 90.7948C147.14 87.5751 145.41 83.5517 145.41 83.5517C143.677 86.085 142.816 89.3975 142.621 90.9023C136.747 89.4561 135.928 83.8571 135.928 83.8571C136.486 78.2092 141.2 73.8414 145.349 73.8634C154.521 73.922 155.513 83.4833 155.513 83.4833Z"
    fill="white" />
  <path
    d="M142.624 91.4581C142.579 91.4577 142.534 91.452 142.49 91.441C136.323 89.924 135.387 83.9951 135.377 83.9341C135.372 83.8886 135.372 83.8427 135.377 83.7973C135.989 77.5973 141.098 73.293 145.317 73.293H145.359C154.919 73.354 156.064 83.3087 156.084 83.4137C156.093 83.5033 156.08 83.5938 156.047 83.6776C155.342 85.4602 154.257 87.0669 152.868 88.3851C151.478 89.7033 149.818 90.7013 148.003 91.3091C147.928 91.3354 147.849 91.3455 147.77 91.3385C147.69 91.3315 147.614 91.3077 147.544 91.2686C147.475 91.2296 147.415 91.1761 147.368 91.1119C147.321 91.0477 147.288 90.9741 147.272 90.8962C146.816 88.7221 145.856 86.1448 145.305 84.7573C144.241 86.6843 143.519 88.7823 143.172 90.9573C143.158 91.0936 143.094 91.2199 142.993 91.3122C142.892 91.4045 142.761 91.4564 142.624 91.4581V91.4581ZM136.501 83.8363C136.608 84.4422 137.529 88.7221 142.18 90.1878C142.492 88.5266 143.338 85.5977 144.959 83.2281C145.015 83.145 145.093 83.0788 145.184 83.0361C145.274 82.9935 145.375 82.9762 145.475 82.9859C145.574 82.9957 145.67 83.0322 145.75 83.0915C145.831 83.1509 145.895 83.231 145.934 83.3233C146.002 83.4797 147.487 86.9437 148.235 90.0412C149.746 89.4491 151.121 88.5552 152.277 87.4137C153.433 86.2723 154.345 84.9072 154.958 83.4015C154.799 82.2338 153.444 74.468 145.361 74.4142C141.605 74.3996 137.066 78.4156 136.501 83.8363Z"
    fill="#262424" />
  <path d="M148.698 134.188L138.01 104.287H117.469L128.157 134.188H148.698Z" fill="#3257FB" />
  <path d="M117.469 104.289L120.286 101.465H140.827L138.01 104.289H117.469Z" fill="white" />
  <path d="M148.698 134.189L151.516 131.365L140.828 101.465L138.01 104.289L148.698 134.189Z" fill="white" />
  <path
    d="M138.008 104.848H119.193C119.045 104.848 118.903 104.789 118.798 104.684C118.694 104.58 118.635 104.437 118.635 104.289C118.635 104.141 118.694 103.998 118.798 103.893C118.903 103.788 119.045 103.729 119.193 103.729H137.769L139.668 101.844C139.773 101.739 139.915 101.68 140.063 101.68C140.211 101.68 140.353 101.739 140.458 101.844C140.562 101.949 140.621 102.091 140.621 102.239C140.621 102.388 140.562 102.53 140.458 102.635L138.413 104.685C138.36 104.738 138.296 104.78 138.227 104.808C138.157 104.836 138.083 104.85 138.008 104.848V104.848Z"
    fill="#262424" />
  <path
    d="M143.693 120.748C143.579 120.747 143.467 120.712 143.373 120.645C143.279 120.579 143.208 120.485 143.169 120.377L137.475 104.476C137.448 104.406 137.434 104.331 137.436 104.256C137.437 104.181 137.454 104.107 137.485 104.038C137.516 103.97 137.56 103.908 137.615 103.857C137.67 103.806 137.735 103.767 137.806 103.742C137.877 103.716 137.952 103.706 138.027 103.71C138.101 103.714 138.175 103.734 138.242 103.767C138.309 103.801 138.369 103.847 138.418 103.905C138.467 103.962 138.503 104.028 138.526 104.1L144.21 120C144.24 120.084 144.25 120.174 144.238 120.262C144.226 120.35 144.194 120.434 144.143 120.507C144.093 120.58 144.026 120.64 143.947 120.682C143.869 120.724 143.782 120.746 143.693 120.748V120.748Z"
    fill="#262424" />
  <path
    d="M196.31 139.649C196.161 143.711 194.994 146.765 192.198 147.883C188.34 149.435 184.696 147.287 181.402 143.442C175.989 137.091 171.55 126.098 168.776 119.38C164.316 108.575 161.72 98.5133 164.776 91.2483C168.033 83.5215 178.726 86.6801 178.726 86.6801C178.726 86.6801 183.092 92.179 186.994 102.986C189.834 110.84 196.707 128.829 196.31 139.649Z"
    fill="#0A0627" />
  <path
    d="M181.399 144.002C181.318 144.002 181.238 143.984 181.165 143.95C181.092 143.917 181.027 143.867 180.974 143.806C175.663 137.572 171.356 127.114 168.504 120.189L168.26 119.59C162.776 106.303 161.543 97.4944 164.263 91.0282C165.757 87.4812 168.98 85.5635 173.582 85.4805C173.729 85.481 173.87 85.5385 173.976 85.6409C174.082 85.7433 174.144 85.8828 174.149 86.0301C174.151 86.1036 174.138 86.1766 174.111 86.2449C174.084 86.3133 174.044 86.3757 173.993 86.4286C173.942 86.4814 173.881 86.5237 173.814 86.553C173.747 86.5823 173.674 86.598 173.601 86.5993C169.416 86.6726 166.618 88.3093 165.289 91.463C162.73 97.5482 164.002 106.35 169.292 119.163L169.535 119.761C172.358 126.618 176.626 136.978 181.823 143.076C181.893 143.157 181.938 143.257 181.954 143.363C181.969 143.469 181.953 143.578 181.908 143.676C181.863 143.773 181.792 143.856 181.701 143.914C181.611 143.971 181.506 144.002 181.399 144.002V144.002Z"
    fill="#262424" />
  <path
    d="M196.308 139.648C196.159 143.711 194.992 146.764 192.196 147.883C188.338 149.434 184.693 147.287 181.4 143.442C181.726 141.868 182.486 140.417 183.595 139.256C184.704 138.094 186.116 137.269 187.671 136.873C189.225 136.477 190.859 136.528 192.387 137.019C193.914 137.509 195.273 138.42 196.308 139.648V139.648Z"
    fill="white" />
  <path
    d="M192.196 147.884C189.364 149.449 186.076 149.999 182.612 149.85C167.534 149.225 148.975 135.491 148.975 135.491L152.321 127.293C152.321 127.293 166.568 126.689 175.521 126.897C181.544 127.039 189.415 130.713 192.289 136.986C193.698 140.037 193.927 143.711 192.196 147.884Z"
    fill="#0A0627" />
  <path
    d="M175.831 149.373C175.786 149.373 175.741 149.368 175.697 149.356C162.408 146.046 148.785 136.038 148.641 135.938C148.541 135.864 148.468 135.759 148.435 135.639C148.401 135.519 148.409 135.391 148.456 135.276L151.802 127.078C151.842 126.979 151.91 126.895 151.996 126.833C152.082 126.772 152.184 126.736 152.29 126.731C152.434 126.731 166.659 126.132 175.526 126.335C180.282 126.447 185.657 128.646 189.218 131.939C189.316 132.042 189.372 132.178 189.373 132.321C189.375 132.463 189.322 132.601 189.226 132.706C189.129 132.81 188.996 132.874 188.855 132.884C188.713 132.894 188.572 132.85 188.462 132.76C185.089 129.643 180.002 127.559 175.5 127.454C167.456 127.263 154.959 127.742 152.694 127.835L149.662 135.295C151.868 136.869 164.073 145.311 175.965 148.274C176.095 148.309 176.208 148.39 176.283 148.502C176.358 148.613 176.39 148.748 176.374 148.882C176.357 149.016 176.293 149.139 176.194 149.229C176.094 149.319 175.965 149.371 175.831 149.373Z"
    fill="#262424" />
  <path
    d="M192.198 147.883C189.365 149.449 186.077 149.998 182.613 149.849C181.655 148.374 181.173 146.638 181.234 144.878C181.294 143.119 181.895 141.421 182.953 140.015C184.011 138.609 185.475 137.565 187.147 137.023C188.819 136.481 190.616 136.469 192.295 136.988C193.699 140.036 193.928 143.71 192.198 147.883Z"
    fill="white" />
  <path
    d="M156.274 138.941C156.161 138.94 156.051 138.905 155.958 138.84C155.866 138.776 155.795 138.685 155.755 138.579C155.715 138.473 155.708 138.358 155.735 138.248C155.762 138.138 155.821 138.039 155.906 137.964C159.842 134.49 157.636 128.681 157.612 128.62C157.565 128.483 157.573 128.334 157.633 128.203C157.694 128.072 157.802 127.97 157.936 127.918C158.07 127.865 158.219 127.866 158.352 127.921C158.485 127.976 158.592 128.08 158.65 128.212C158.755 128.48 161.156 134.807 156.639 138.801C156.538 138.891 156.408 138.94 156.274 138.941Z"
    fill="#262424" />
  <path
    d="M153.947 136.606C154.613 136.606 155.153 136.065 155.153 135.397C155.153 134.729 154.613 134.188 153.947 134.188C153.28 134.188 152.74 134.729 152.74 135.397C152.74 136.065 153.28 136.606 153.947 136.606Z"
    fill="white" />
  <path
    d="M153.948 137.166C153.599 137.166 153.258 137.062 152.968 136.868C152.678 136.674 152.451 136.398 152.318 136.074C152.184 135.751 152.149 135.396 152.218 135.052C152.286 134.709 152.454 134.394 152.7 134.147C152.947 133.9 153.262 133.731 153.604 133.663C153.946 133.595 154.301 133.63 154.624 133.764C154.946 133.897 155.222 134.124 155.416 134.415C155.61 134.706 155.713 135.048 155.713 135.398C155.712 135.866 155.526 136.316 155.195 136.647C154.865 136.979 154.416 137.166 153.948 137.166V137.166ZM153.948 134.748C153.82 134.748 153.695 134.786 153.588 134.857C153.481 134.929 153.398 135.03 153.349 135.149C153.3 135.268 153.287 135.398 153.312 135.524C153.337 135.65 153.399 135.766 153.49 135.857C153.581 135.948 153.696 136.01 153.822 136.035C153.948 136.06 154.078 136.047 154.196 135.998C154.315 135.949 154.416 135.865 154.487 135.759C154.559 135.652 154.597 135.526 154.597 135.398C154.596 135.225 154.528 135.061 154.406 134.939C154.285 134.817 154.12 134.748 153.948 134.748V134.748Z"
    fill="#262424" />
  <path
    d="M153.096 129.066C153.096 129.066 151.368 120.678 150.183 119.007C149.208 117.617 140.363 119.007 137.357 119.515C137.079 119.563 136.827 119.708 136.645 119.924C136.464 120.141 136.365 120.414 136.365 120.697V120.697C136.364 121.001 136.478 121.294 136.683 121.517C136.889 121.74 137.172 121.877 137.474 121.899L142.325 122.305L138.181 123.304C137.685 123.423 137.252 123.725 136.968 124.15C136.684 124.574 136.568 125.09 136.646 125.595C136.95 127.581 137.428 130.513 137.672 130.996C138.045 131.741 144.053 130.996 144.053 130.996C144.053 130.996 144.316 135.965 147.159 136.275C150.001 136.586 153.654 133.911 153.096 129.066Z"
    fill="white" />
  <path
    d="M147.619 136.853C147.444 136.853 147.269 136.843 147.095 136.824C144.435 136.533 143.728 133.04 143.548 131.614C137.698 132.29 137.313 131.53 137.167 131.24C137.079 131.061 136.842 130.59 136.089 125.673C135.991 125.028 136.137 124.37 136.497 123.828C136.858 123.286 137.408 122.898 138.039 122.741L138.814 122.553L137.41 122.436C136.985 122.4 136.587 122.211 136.291 121.902C135.995 121.594 135.821 121.188 135.802 120.76C135.784 120.333 135.921 119.913 136.189 119.58C136.456 119.247 136.836 119.023 137.257 118.95C145.301 117.572 149.795 117.484 150.631 118.671C151.85 120.381 153.454 128.069 153.634 128.931C153.634 128.948 153.634 128.963 153.634 128.98C153.907 131.362 153.235 133.504 151.74 135.014C150.662 136.147 149.181 136.808 147.619 136.853V136.853ZM144.055 130.431C144.198 130.431 144.336 130.486 144.44 130.585C144.544 130.683 144.606 130.818 144.613 130.961C144.613 131.005 144.923 135.463 147.221 135.715C148.501 135.854 149.934 135.292 150.97 134.249C152.218 132.991 152.779 131.184 152.552 129.156C152.065 126.835 150.644 120.621 149.734 119.328C149.366 118.84 145.795 118.637 137.459 120.061C137.31 120.087 137.176 120.164 137.079 120.28C136.982 120.396 136.929 120.543 136.93 120.694C136.931 120.855 136.991 121.01 137.1 121.128C137.209 121.247 137.358 121.32 137.518 121.334L142.368 121.74C142.499 121.752 142.622 121.81 142.714 121.904C142.807 121.998 142.863 122.122 142.873 122.253C142.883 122.385 142.847 122.516 142.77 122.623C142.693 122.73 142.581 122.806 142.454 122.839L138.31 123.838C137.951 123.926 137.637 124.146 137.431 124.453C137.224 124.761 137.14 125.135 137.193 125.502C137.778 129.32 138.042 130.368 138.134 130.651C138.766 130.878 141.6 130.729 143.984 130.436L144.055 130.431Z"
    fill="#262424" />
  <path
    d="M149.662 63.252L149.877 68.8339L150.242 78.383C147.188 80.8259 144.09 81.2705 140.943 79.2087L141.094 74.7505L141.326 68.0009L149.662 63.252Z"
    fill="white" />
  <path
    d="M144.978 81.081C143.516 81.081 142.069 80.6128 140.637 79.6764C140.558 79.6226 140.494 79.5495 140.452 79.464C140.409 79.3784 140.389 79.2834 140.393 79.1878L140.776 67.98C140.779 67.8844 140.807 67.7913 140.856 67.7096C140.906 67.6279 140.975 67.5603 141.059 67.5134L149.395 62.7645C149.478 62.7171 149.572 62.6919 149.668 62.6914C149.764 62.6909 149.858 62.7152 149.942 62.7618C150.026 62.8084 150.096 62.8759 150.146 62.9576C150.196 63.0394 150.225 63.1327 150.228 63.2286L150.809 78.3597C150.812 78.447 150.794 78.5337 150.758 78.613C150.721 78.6924 150.667 78.762 150.599 78.8165C148.71 80.3262 146.833 81.081 144.978 81.081ZM141.51 78.9045C144.191 80.5363 146.872 80.2773 149.673 78.1179L149.139 64.1936L141.863 68.3318L141.51 78.9045Z"
    fill="#262424" />
  <path d="M146.781 64.8926C146.9 67.4136 147.685 75.9709 141.004 77.3365L141.323 68.0023L146.781 64.8926Z"
    fill="#262424" />
  <path
    d="M132.845 65.0329C133.749 69.5595 135.604 74.8996 140.996 73.5145C147.404 71.868 151.165 66.8455 150.622 60.6333C150.078 54.4212 146.882 51.199 139.536 52.6354C138.911 52.7557 138.297 52.9281 137.7 53.1509C133.557 54.7192 131.743 58.4739 132.413 62.6072C132.53 63.3522 132.667 64.1779 132.845 65.0329Z"
    fill="white" />
  <path
    d="M139.341 74.297C138.314 74.3089 137.307 74.0147 136.448 73.4518C133.523 71.5268 132.548 66.8903 131.86 62.7032C131.002 57.4096 134.054 53.1444 139.416 52.0939C139.49 52.0761 139.566 52.0733 139.64 52.0858C139.715 52.0982 139.786 52.1257 139.849 52.1664C139.913 52.2072 139.967 52.2604 140.01 52.3229C140.052 52.3853 140.081 52.4558 140.096 52.5299C140.11 52.6041 140.11 52.6804 140.094 52.7543C140.078 52.8282 140.048 52.8982 140.004 52.9599C139.961 53.0217 139.905 53.074 139.841 53.1137C139.777 53.1533 139.706 53.1796 139.631 53.1908C134.807 54.1337 132.184 57.7956 132.952 62.5249C133.415 65.3855 134.278 70.7085 137.05 72.526C138.105 73.2197 139.348 73.3688 140.845 72.9828C143.234 72.3696 145.232 71.285 146.809 69.7631C146.917 69.6675 147.057 69.6173 147.201 69.6229C147.345 69.6285 147.481 69.6895 147.581 69.7931C147.681 69.8968 147.737 70.0351 147.738 70.1792C147.738 70.3234 147.683 70.4622 147.584 70.5668C145.77 72.2687 143.548 73.4712 141.132 74.0576C140.548 74.2125 139.946 74.2929 139.341 74.297V74.297Z"
    fill="#262424" />
  <path
    d="M153.173 61.255C152.63 62.2344 152.003 63.1646 151.298 64.035L148.373 64.5651L147.642 62.3006C147.642 62.3006 144.961 62.3983 144.393 61.0181C144.379 60.9863 144.367 60.9537 144.356 60.9204C144.2 60.466 143.569 58.4311 143.569 55.1748C143.569 55.1748 138.736 57.901 136.013 58.4604C135.038 58.6632 133.844 58.3944 132.717 57.9718C130.463 57.1168 128.24 53.7848 128.384 51.3761V51.3297C128.627 47.79 130.682 50.0252 130.682 50.0252C130.682 50.0252 130.926 47.172 132.659 46.7982C134.392 46.4245 135.769 48.8991 135.769 48.8991C139.057 47.7852 142.523 47.2996 145.99 47.4675C152.863 47.8437 151.632 52.683 151.632 52.683C151.632 52.683 156.766 53.8043 153.173 61.255Z"
    fill="#262424" />
  <path
    d="M147.424 61.6913C147.424 61.6913 149.969 58.1688 153.257 58.7233C156.545 59.2778 156.425 66.8385 148.535 67.029L147.424 61.6913Z"
    fill="white" />
  <path
    d="M148.534 67.5911C148.406 67.591 148.282 67.5468 148.182 67.4659C148.083 67.3849 148.014 67.2722 147.988 67.1465L146.879 61.804C146.863 61.7277 146.863 61.649 146.88 61.5728C146.896 61.4967 146.928 61.4248 146.974 61.3618C147.086 61.2055 149.757 57.5656 153.35 58.169C154.932 58.4353 155.978 60.0573 155.839 62.0263C155.649 64.7134 153.321 67.469 148.548 67.5887H148.534V67.5911ZM148.022 61.8333L148.982 66.4454C152.992 66.184 154.589 63.8877 154.723 61.9432C154.82 60.5606 154.164 59.4368 153.163 59.2561C150.681 58.853 148.585 61.1493 148.022 61.8333Z"
    fill="#262424" />
  <path
    d="M79.8838 48.1214C84.0933 48.1214 87.5058 44.7014 87.5058 40.4826C87.5058 36.2638 84.0933 32.8438 79.8838 32.8438C75.6742 32.8438 72.2617 36.2638 72.2617 40.4826C72.2617 44.7014 75.6742 48.1214 79.8838 48.1214Z"
    fill="#3257FB" />
  <path
    d="M76.1069 40.5872L79.1513 43.6384C79.5001 43.9879 79.9731 44.1842 80.4663 44.1842C80.9595 44.1842 81.4326 43.9879 81.7814 43.6384L92.2138 33.1829C92.5445 32.8301 92.7253 32.3621 92.7178 31.8781C92.7104 31.3941 92.5153 30.932 92.1739 30.5895C91.8325 30.247 91.3716 30.0511 90.8886 30.0432C90.4057 30.0353 89.9386 30.216 89.5862 30.5471L80.4675 39.6858L78.7369 37.9514C78.5663 37.7693 78.3609 37.6235 78.133 37.5226C77.905 37.4216 77.6592 37.3676 77.41 37.3638C77.1608 37.3599 76.9134 37.4063 76.6825 37.5001C76.4515 37.594 76.2417 37.7334 76.0656 37.9101C75.8895 38.0868 75.7506 38.2971 75.6571 38.5287C75.5637 38.7602 75.5177 39.0082 75.5217 39.2579C75.5258 39.5077 75.5799 39.754 75.6809 39.9824C75.7818 40.2107 75.9275 40.4164 76.1093 40.5872V40.5872H76.1069Z"
    fill="white" />
  <path
    d="M80.4634 44.7427C79.824 44.74 79.2112 44.4855 78.7572 44.0342L75.7127 40.9831C75.294 40.5229 75.0684 39.9188 75.0827 39.2962C75.097 38.6736 75.3501 38.0805 75.7895 37.6401C76.2289 37.1997 76.8208 36.946 77.442 36.9317C78.0632 36.9173 78.6661 37.1435 79.1252 37.5631L80.461 38.9018L89.1848 30.1588C89.4048 29.917 89.6715 29.7224 89.9688 29.5867C90.266 29.4511 90.5876 29.3773 90.9141 29.3698C91.2405 29.3622 91.5652 29.4211 91.8683 29.5429C92.1715 29.6647 92.4468 29.8468 92.6777 30.0782C92.9087 30.3096 93.0904 30.5856 93.2119 30.8894C93.3333 31.1932 93.3921 31.5185 93.3846 31.8457C93.3771 32.173 93.3034 32.4952 93.1681 32.7931C93.0328 33.091 92.8386 33.3583 92.5973 33.5788L82.1648 44.0342C81.712 44.4844 81.1012 44.7387 80.4634 44.7427V44.7427ZM77.419 37.9662C77.162 37.9668 76.9109 38.0436 76.6973 38.187C76.4838 38.3303 76.3174 38.5338 76.2192 38.7719C76.1209 39.0099 76.0951 39.2717 76.1451 39.5244C76.1951 39.777 76.3186 40.0092 76.5 40.1916L79.542 43.2379C79.7914 43.4721 80.1204 43.6025 80.4622 43.6025C80.804 43.6025 81.133 43.4721 81.3824 43.2379L91.8149 32.7824C91.9402 32.6624 92.0403 32.5184 92.1093 32.359C92.1784 32.1996 92.2149 32.028 92.2169 31.8542C92.2188 31.6804 92.1861 31.508 92.1207 31.3471C92.0552 31.1862 91.9583 31.04 91.8357 30.9172C91.7131 30.7943 91.5673 30.6972 91.4067 30.6316C91.2461 30.566 91.0741 30.5332 90.9007 30.5352C90.7274 30.5371 90.5561 30.5738 90.3971 30.643C90.238 30.7121 90.0944 30.8125 89.9745 30.9381L80.8558 40.0768C80.804 40.1287 80.7424 40.1699 80.6747 40.198C80.6069 40.2261 80.5343 40.2405 80.461 40.2405V40.2405C80.3877 40.2405 80.315 40.2261 80.2473 40.198C80.1795 40.1699 80.118 40.1287 80.0661 40.0768L78.3403 38.3522C78.2198 38.2301 78.0763 38.1331 77.9181 38.0669C77.76 38.0007 77.5904 37.9664 77.419 37.9662V37.9662Z"
    fill="#262424" />
  <path
    d="M116.52 37.8594H94.183C93.1478 37.8594 92.3086 38.7004 92.3086 39.7379C92.3086 40.7754 93.1478 41.6165 94.183 41.6165H116.52C117.556 41.6165 118.395 40.7754 118.395 39.7379C118.395 38.7004 117.556 37.8594 116.52 37.8594Z"
    fill="#0A0627" />
  <path
    d="M79.8838 67.0804C84.0933 67.0804 87.5058 63.6604 87.5058 59.4416C87.5058 55.2227 84.0933 51.8027 79.8838 51.8027C75.6742 51.8027 72.2617 55.2227 72.2617 59.4416C72.2617 63.6604 75.6742 67.0804 79.8838 67.0804Z"
    fill="#3257FB" />
  <path
    d="M76.1059 59.5482L79.1503 62.5993C79.4991 62.9488 79.9721 63.1452 80.4653 63.1452C80.9586 63.1452 81.4316 62.9488 81.7804 62.5993L92.2129 52.1439C92.5436 51.791 92.7243 51.3231 92.7168 50.8391C92.7094 50.355 92.5143 49.8929 92.1729 49.5504C91.8316 49.208 91.3706 49.0121 90.8877 49.0042C90.4047 48.9962 89.9376 49.1769 89.5852 49.508L80.4666 58.6468L78.7311 56.9197C78.5604 56.7376 78.3551 56.5918 78.1271 56.4908C77.8992 56.3899 77.6533 56.3359 77.4041 56.332C77.1549 56.3282 76.9075 56.3746 76.6766 56.4684C76.4456 56.5623 76.2359 56.7017 76.0597 56.8784C75.8836 57.055 75.7447 57.2654 75.6513 57.4969C75.5578 57.7285 75.5118 57.9765 75.5159 58.2262C75.5199 58.4759 75.5741 58.7223 75.675 58.9506C75.7759 59.179 75.9216 59.3847 76.1034 59.5555V59.5555L76.1059 59.5482Z"
    fill="white" />
  <path
    d="M80.4634 63.7011C79.824 63.6985 79.2112 63.444 78.7572 62.9927L75.7127 59.9416C75.294 59.4814 75.0684 58.8773 75.0827 58.2547C75.097 57.6321 75.3501 57.0389 75.7895 56.5986C76.2289 56.1582 76.8208 55.9045 77.442 55.8902C78.0632 55.8758 78.6661 56.102 79.1252 56.5216L80.461 57.8603L89.1872 49.1002C89.4073 48.8584 89.674 48.6638 89.9712 48.5281C90.2684 48.3925 90.59 48.3187 90.9165 48.3112C91.243 48.3037 91.5676 48.3625 91.8708 48.4843C92.1739 48.6061 92.4492 48.7882 92.6802 49.0196C92.9111 49.251 93.0928 49.527 93.2143 49.8308C93.3358 50.1346 93.3946 50.4599 93.387 50.7871C93.3795 51.1144 93.3059 51.4366 93.1705 51.7345C93.0352 52.0324 92.841 52.2997 92.5997 52.5202L82.1672 62.9756C81.7166 63.4326 81.1044 63.6933 80.4634 63.7011V63.7011ZM77.419 56.9173C77.162 56.9179 76.9109 56.9947 76.6973 57.1381C76.4838 57.2815 76.3174 57.485 76.2192 57.723C76.1209 57.961 76.0951 58.2229 76.1451 58.4755C76.1951 58.7282 76.3186 58.9604 76.5 59.1428V59.1428L79.5445 62.1939C79.7941 62.4276 80.123 62.5576 80.4646 62.5576C80.8063 62.5576 81.1351 62.4276 81.3848 62.1939L91.8173 51.7385C92.0524 51.4921 92.1818 51.1633 92.178 50.8224C92.1742 50.4815 92.0374 50.1557 91.7969 49.9146C91.5564 49.6735 91.2312 49.5364 90.8911 49.5326C90.551 49.5288 90.2228 49.6586 89.977 49.8941L80.8583 59.0329C80.8064 59.0848 80.7449 59.126 80.6771 59.1541C80.6093 59.1821 80.5367 59.1966 80.4634 59.1965V59.1965C80.3901 59.1966 80.3175 59.1821 80.2497 59.1541C80.182 59.126 80.1204 59.0848 80.0685 59.0329L78.3403 57.2984C78.2194 57.1773 78.0757 57.0812 77.9176 57.0158C77.7595 56.9504 77.59 56.917 77.419 56.9173V56.9173Z"
    fill="#262424" />
  <path
    d="M116.52 56.8184H94.183C93.1478 56.8184 92.3086 57.6594 92.3086 58.6969C92.3086 59.7344 93.1478 60.5755 94.183 60.5755H116.52C117.556 60.5755 118.395 59.7344 118.395 58.6969C118.395 57.6594 117.556 56.8184 116.52 56.8184Z"
    fill="#0A0627" />
  <path
    d="M88.2637 84.5392L89.4239 84.4586C90.0171 84.4166 90.5752 84.1614 90.9957 83.74C91.4162 83.3186 91.6708 82.7592 91.7127 82.1648L91.7932 81.002L91.8736 82.1648C91.9156 82.7592 92.1702 83.3186 92.5907 83.74C93.0111 84.1614 93.5692 84.4166 94.1624 84.4586L95.3227 84.5392L94.1624 84.6198C93.5692 84.6619 93.0111 84.9171 92.5907 85.3385C92.1702 85.7599 91.9156 86.3192 91.8736 86.9137L91.7932 88.0765L91.7127 86.9137C91.6708 86.3192 91.4162 85.7599 90.9957 85.3385C90.5752 84.9171 90.0171 84.6619 89.4239 84.6198L88.2637 84.5392Z"
    fill="#0A0627" />
  <path
    d="M206.975 22.5158L208.681 22.3961C209.557 22.3363 210.382 21.9607 211.003 21.3389C211.625 20.717 212.001 19.8907 212.062 19.0127L212.181 17.3027L212.301 19.0127C212.361 19.8899 212.737 20.7156 213.357 21.3373C213.977 21.9591 214.801 22.3351 215.676 22.3961L217.383 22.5158L215.676 22.6355C214.802 22.6976 213.979 23.0741 213.36 23.6958C212.741 24.3174 212.366 25.1424 212.305 26.0188L212.186 27.7288L212.067 26.0188C212.006 25.1416 211.631 24.316 211.01 23.6942C210.39 23.0725 209.566 22.6964 208.691 22.6355L206.975 22.5158Z"
    fill="#0A0627" />
  <path
    d="M68.8867 146.846L70.181 146.755C70.8425 146.709 71.465 146.424 71.9339 145.954C72.4028 145.484 72.6866 144.861 72.7331 144.198L72.8233 142.9L72.9135 144.198C72.96 144.861 73.2438 145.484 73.7127 145.954C74.1816 146.424 74.8041 146.709 75.4655 146.755L76.7599 146.846L75.4655 146.936C74.8029 146.983 74.1798 147.27 73.7112 147.741C73.2426 148.213 72.9601 148.839 72.9159 149.503L72.8257 150.801L72.7331 149.503C72.6866 148.841 72.4028 148.217 71.9339 147.747C71.465 147.277 70.8425 146.992 70.181 146.946L68.8867 146.846Z"
    fill="#0A0627" />
  <path
    d="M105.135 259.151L106.429 259.06C107.091 259.014 107.714 258.729 108.183 258.258C108.652 257.788 108.935 257.164 108.981 256.5L109.071 255.203L109.162 256.5C109.208 257.163 109.492 257.787 109.961 258.257C110.43 258.727 111.052 259.011 111.714 259.058L113.008 259.148L111.714 259.239C111.052 259.285 110.43 259.57 109.961 260.04C109.492 260.51 109.208 261.133 109.162 261.796L109.071 263.094L108.981 261.796C108.935 261.133 108.651 260.51 108.182 260.04C107.713 259.57 107.091 259.285 106.429 259.239L105.135 259.151Z"
    fill="#0A0627" />
  <path
    d="M87.8311 158.378C88.4854 158.378 89.0157 157.847 89.0157 157.191C89.0157 156.535 88.4854 156.004 87.8311 156.004C87.1769 156.004 86.6465 156.535 86.6465 157.191C86.6465 157.847 87.1769 158.378 87.8311 158.378Z"
    fill="#3257FB" />
  <path
    d="M74.7591 109.225C76.6841 109.225 78.2447 107.661 78.2447 105.732C78.2447 103.802 76.6841 102.238 74.7591 102.238C72.834 102.238 71.2734 103.802 71.2734 105.732C71.2734 107.661 72.834 109.225 74.7591 109.225Z"
    fill="#3257FB" />
  <path
    d="M99.1575 278.285C101.083 278.285 102.643 276.721 102.643 274.792C102.643 272.863 101.083 271.299 99.1575 271.299C97.2324 271.299 95.6719 272.863 95.6719 274.792C95.6719 276.721 97.2324 278.285 99.1575 278.285Z"
    fill="#3257FB" />
  <path
    d="M166.463 33.03C168.131 33.03 169.484 31.6749 169.484 30.0033C169.484 28.3317 168.131 26.9766 166.463 26.9766C164.795 26.9766 163.443 28.3317 163.443 30.0033C163.443 31.6749 164.795 33.03 166.463 33.03Z"
    fill="#3257FB" />
  <mask id="path-110-inside-1_0:1" fill="white">
    <path
      d="M209.339 148.621H261.53C264.725 148.621 267.788 149.903 270.047 152.184C272.305 154.466 273.574 157.56 273.574 160.786V197.281C273.574 200.508 272.305 203.602 270.047 205.884C267.788 208.165 264.725 209.447 261.53 209.447H209.339C206.145 209.447 203.081 208.165 200.823 205.884C198.564 203.602 197.295 200.508 197.295 197.281V160.786C197.295 157.56 198.564 154.466 200.823 152.184C203.081 149.903 206.145 148.621 209.339 148.621V148.621ZM209.339 152.676C207.38 152.676 205.581 153.386 204.188 154.566L235.435 175.06L266.681 154.566C265.238 153.343 263.414 152.674 261.53 152.676H209.339ZM235.435 179.894L201.848 157.867C201.491 158.798 201.309 159.788 201.31 160.786V197.281C201.31 199.432 202.156 201.495 203.661 203.016C205.167 204.537 207.21 205.392 209.339 205.392H261.53C263.66 205.392 265.702 204.537 267.208 203.016C268.714 201.495 269.56 199.432 269.56 197.281V160.786C269.56 159.756 269.371 158.771 269.022 157.867L235.435 179.889V179.894Z" />
  </mask>
  <path
    d="M209.339 148.621H261.53C264.725 148.621 267.788 149.903 270.047 152.184C272.305 154.466 273.574 157.56 273.574 160.786V197.281C273.574 200.508 272.305 203.602 270.047 205.884C267.788 208.165 264.725 209.447 261.53 209.447H209.339C206.145 209.447 203.081 208.165 200.823 205.884C198.564 203.602 197.295 200.508 197.295 197.281V160.786C197.295 157.56 198.564 154.466 200.823 152.184C203.081 149.903 206.145 148.621 209.339 148.621V148.621ZM209.339 152.676C207.38 152.676 205.581 153.386 204.188 154.566L235.435 175.06L266.681 154.566C265.238 153.343 263.414 152.674 261.53 152.676H209.339ZM235.435 179.894L201.848 157.867C201.491 158.798 201.309 159.788 201.31 160.786V197.281C201.31 199.432 202.156 201.495 203.661 203.016C205.167 204.537 207.21 205.392 209.339 205.392H261.53C263.66 205.392 265.702 204.537 267.208 203.016C268.714 201.495 269.56 199.432 269.56 197.281V160.786C269.56 159.756 269.371 158.771 269.022 157.867L235.435 179.889V179.894Z"
    fill="black" />
  <path
    d="M273.574 160.786L288.574 160.786L273.574 160.786ZM273.574 197.281H288.574H273.574ZM261.53 209.447V224.447V209.447ZM209.339 209.447V224.447V209.447ZM197.295 197.281H182.295H197.295ZM197.295 160.786H182.295H197.295ZM204.188 154.566L194.493 143.12L179.173 156.097L195.962 167.109L204.188 154.566ZM235.435 175.06L227.208 187.603L235.435 192.998L243.661 187.603L235.435 175.06ZM266.681 154.566L274.908 167.109L291.692 156.1L276.379 143.122L266.681 154.566ZM261.53 152.676V167.676H261.54L261.55 167.676L261.53 152.676ZM235.435 179.894L227.209 192.437L250.435 207.669V179.894H235.435ZM201.848 157.867L210.074 145.323L194.493 135.105L187.837 152.509L201.848 157.867ZM201.31 160.786H216.31L216.31 160.777L201.31 160.786ZM201.31 197.281H186.31H201.31ZM269.022 157.867L283.014 152.462L276.324 135.141L260.797 145.323L269.022 157.867ZM235.435 179.889L227.21 167.346L220.435 171.788V179.889H235.435ZM209.339 163.621H261.53V133.621H209.339V163.621ZM261.53 163.621C260.698 163.621 259.93 163.286 259.387 162.738L280.706 141.631C275.646 136.52 268.751 133.621 261.53 133.621V163.621ZM259.387 162.738C258.85 162.195 258.574 161.49 258.574 160.786L288.574 160.786C288.574 153.63 285.761 146.736 280.706 141.631L259.387 162.738ZM258.574 160.786V197.281H288.574V160.786H258.574ZM258.574 197.281C258.574 196.578 258.85 195.873 259.387 195.33L280.706 216.437C285.761 211.331 288.574 204.438 288.574 197.281L258.574 197.281ZM259.387 195.33C259.93 194.782 260.698 194.447 261.53 194.447V224.447C268.751 224.447 275.646 221.548 280.706 216.437L259.387 195.33ZM261.53 194.447H209.339V224.447H261.53V194.447ZM209.339 194.447C210.172 194.447 210.94 194.782 211.482 195.33L190.163 216.437C195.223 221.548 202.118 224.447 209.339 224.447L209.339 194.447ZM211.482 195.33C212.02 195.873 212.295 196.578 212.295 197.281L182.295 197.281C182.295 204.438 185.108 211.331 190.163 216.437L211.482 195.33ZM212.295 197.281V160.786H182.295V197.281H212.295ZM212.295 160.786C212.295 161.49 212.02 162.195 211.482 162.738L190.163 141.631C185.108 146.736 182.295 153.63 182.295 160.786L212.295 160.786ZM211.482 162.738C210.94 163.286 210.172 163.621 209.339 163.621L209.339 133.621C202.118 133.621 195.223 136.52 190.163 141.631L211.482 162.738ZM209.339 137.676C203.692 137.676 198.488 139.736 194.493 143.12L213.883 166.012C212.674 167.036 211.068 167.676 209.339 167.676V137.676ZM195.962 167.109L227.208 187.603L243.661 162.517L212.415 142.023L195.962 167.109ZM243.661 187.603L274.908 167.109L258.454 142.023L227.208 162.517L243.661 187.603ZM276.379 143.122C272.234 139.609 266.969 137.669 261.51 137.676L261.55 167.676C259.859 167.678 258.243 167.076 256.983 166.009L276.379 143.122ZM261.53 137.676H209.339V167.676H261.53V137.676ZM243.661 167.35L210.074 145.323L193.622 170.41L227.209 192.437L243.661 167.35ZM187.837 152.509C186.825 155.156 186.308 157.965 186.31 160.795L216.31 160.777C216.31 161.611 216.158 162.44 215.858 163.224L187.837 152.509ZM186.31 160.786V197.281H216.31V160.786H186.31ZM186.31 197.281C186.31 203.363 188.7 209.224 193.002 213.57L214.321 192.463C215.611 193.766 216.31 195.502 216.31 197.281L186.31 197.281ZM193.002 213.57C197.309 217.92 203.183 220.392 209.339 220.392V190.392C211.236 190.392 213.025 191.154 214.321 192.463L193.002 213.57ZM209.339 220.392H261.53V190.392H209.339V220.392ZM261.53 220.392C267.687 220.392 273.56 217.92 277.867 213.57L256.548 192.463C257.844 191.154 259.633 190.392 261.53 190.392V220.392ZM277.867 213.57C282.169 209.224 284.56 203.363 284.56 197.281H254.56C254.56 195.502 255.258 193.766 256.548 192.463L277.867 213.57ZM284.56 197.281V160.786H254.56V197.281H284.56ZM284.56 160.786C284.56 157.914 284.032 155.096 283.014 152.462L255.029 163.271C254.71 162.445 254.56 161.598 254.56 160.786H284.56ZM260.797 145.323L227.21 167.346L243.66 192.433L277.247 170.41L260.797 145.323ZM220.435 179.889V179.894H250.435V179.889H220.435Z"
    fill="black" mask="url(#path-110-inside-1_0:1)" />
  <path
    d="M270.458 163.101C277.11 163.101 282.502 157.706 282.502 151.05C282.502 144.395 277.11 139 270.458 139C263.806 139 258.414 144.395 258.414 151.05C258.414 157.706 263.806 163.101 270.458 163.101Z"
    fill="#3257FB" />
  <path d="M271.72 144V158H269.12V146.18H266.16V144H271.72Z" fill="white" />
</svg>
