<svg width="524" height="561" viewBox="0 0 524 561" fill="none" xmlns="http://www.w3.org/2000/svg">
<path d="M481.486 139.969C481.219 139.969 480.964 139.863 480.776 139.675C480.588 139.487 480.482 139.233 480.482 138.967V136.002C480.482 135.736 480.588 135.481 480.776 135.293C480.964 135.106 481.219 135 481.486 135C481.752 135 482.007 135.106 482.195 135.293C482.383 135.481 482.489 135.736 482.489 136.002V138.967C482.489 139.233 482.383 139.487 482.195 139.675C482.007 139.863 481.752 139.969 481.486 139.969Z" fill="#262424"/>
<path d="M485.963 141.476H482.993C482.727 141.476 482.472 141.371 482.284 141.183C482.096 140.995 481.99 140.74 481.99 140.474C481.99 140.209 482.096 139.954 482.284 139.766C482.472 139.578 482.727 139.473 482.993 139.473H485.963C486.229 139.473 486.484 139.578 486.672 139.766C486.86 139.954 486.966 140.209 486.966 140.474C486.966 140.74 486.86 140.995 486.672 141.183C486.484 141.371 486.229 141.476 485.963 141.476Z" fill="#262424"/>
<path d="M481.486 145.951C481.219 145.951 480.964 145.846 480.776 145.658C480.588 145.47 480.482 145.215 480.482 144.95V141.984C480.482 141.719 480.588 141.464 480.776 141.276C480.964 141.088 481.219 140.982 481.486 140.982C481.752 140.982 482.007 141.088 482.195 141.276C482.383 141.464 482.489 141.719 482.489 141.984V144.95C482.489 145.215 482.383 145.47 482.195 145.658C482.007 145.846 481.752 145.951 481.486 145.951Z" fill="#262424"/>
<path d="M479.972 141.476H477.003C476.737 141.476 476.482 141.371 476.294 141.183C476.106 140.995 476 140.74 476 140.474C476 140.209 476.106 139.954 476.294 139.766C476.482 139.578 476.737 139.473 477.003 139.473H479.972C480.238 139.473 480.494 139.578 480.682 139.766C480.87 139.954 480.976 140.209 480.976 140.474C480.976 140.74 480.87 140.995 480.682 141.183C480.494 141.371 480.238 141.476 479.972 141.476Z" fill="#262424"/>
<path d="M351.294 138.532C351.028 138.532 350.773 138.426 350.585 138.238C350.397 138.05 350.291 137.795 350.291 137.53V131.92C350.291 131.654 350.397 131.399 350.585 131.211C350.773 131.024 351.028 130.918 351.294 130.918C351.56 130.918 351.815 131.024 352.003 131.211C352.192 131.399 352.297 131.654 352.297 131.92V137.53C352.297 137.795 352.192 138.05 352.003 138.238C351.815 138.426 351.56 138.532 351.294 138.532Z" fill="#262424"/>
<path d="M359.796 141.392H354.179C353.913 141.392 353.658 141.287 353.47 141.099C353.281 140.911 353.176 140.656 353.176 140.39C353.176 140.125 353.281 139.87 353.47 139.682C353.658 139.494 353.913 139.389 354.179 139.389H359.796C360.062 139.389 360.318 139.494 360.506 139.682C360.694 139.87 360.8 140.125 360.8 140.39C360.8 140.656 360.694 140.911 360.506 141.099C360.318 141.287 360.062 141.392 359.796 141.392Z" fill="#262424"/>
<path d="M351.294 149.867C351.028 149.867 350.773 149.762 350.585 149.574C350.397 149.386 350.291 149.131 350.291 148.866V143.256C350.291 142.99 350.397 142.735 350.585 142.547C350.773 142.359 351.028 142.254 351.294 142.254C351.56 142.254 351.815 142.359 352.003 142.547C352.192 142.735 352.297 142.99 352.297 143.256V148.866C352.297 149.131 352.192 149.386 352.003 149.574C351.815 149.762 351.56 149.867 351.294 149.867Z" fill="#262424"/>
<path d="M348.429 141.392H342.812C342.546 141.392 342.291 141.287 342.102 141.099C341.914 140.911 341.809 140.656 341.809 140.39C341.809 140.125 341.914 139.87 342.102 139.682C342.291 139.494 342.546 139.389 342.812 139.389H348.429C348.695 139.389 348.95 139.494 349.139 139.682C349.327 139.87 349.432 140.125 349.432 140.39C349.432 140.656 349.327 140.911 349.139 141.099C348.95 141.287 348.695 141.392 348.429 141.392Z" fill="#262424"/>
<path d="M189.298 236.558C189.032 236.558 188.777 236.452 188.589 236.265C188.401 236.077 188.295 235.822 188.295 235.556V230.916C188.295 230.65 188.401 230.395 188.589 230.207C188.777 230.02 189.032 229.914 189.298 229.914C189.564 229.914 189.819 230.02 190.007 230.207C190.196 230.395 190.301 230.65 190.301 230.916V235.556C190.301 235.822 190.196 236.077 190.007 236.265C189.819 236.452 189.564 236.558 189.298 236.558Z" fill="#262424"/>
<path d="M196.304 238.914H191.661C191.395 238.914 191.14 238.808 190.952 238.62C190.764 238.432 190.658 238.178 190.658 237.912C190.658 237.646 190.764 237.391 190.952 237.204C191.14 237.016 191.395 236.91 191.661 236.91H196.308C196.44 236.91 196.57 236.937 196.692 236.987C196.813 237.038 196.924 237.112 197.017 237.205C197.109 237.298 197.183 237.409 197.233 237.53C197.283 237.652 197.309 237.782 197.309 237.914C197.309 238.046 197.282 238.176 197.232 238.297C197.181 238.419 197.107 238.529 197.014 238.622C196.92 238.715 196.81 238.788 196.688 238.838C196.566 238.888 196.436 238.914 196.304 238.914Z" fill="#262424"/>
<path d="M189.298 245.911C189.032 245.911 188.777 245.806 188.589 245.618C188.401 245.43 188.295 245.175 188.295 244.91V240.273C188.295 240.008 188.401 239.753 188.589 239.565C188.777 239.377 189.032 239.271 189.298 239.271C189.564 239.271 189.819 239.377 190.007 239.565C190.196 239.753 190.301 240.008 190.301 240.273V244.914C190.3 245.179 190.194 245.432 190.006 245.619C189.818 245.806 189.563 245.911 189.298 245.911Z" fill="#262424"/>
<path d="M186.939 238.914H182.292C182.026 238.914 181.771 238.808 181.583 238.62C181.395 238.432 181.289 238.178 181.289 237.912C181.289 237.646 181.395 237.391 181.583 237.204C181.771 237.016 182.026 236.91 182.292 236.91H186.939C187.205 236.91 187.46 237.016 187.648 237.204C187.836 237.391 187.942 237.646 187.942 237.912C187.942 238.178 187.836 238.432 187.648 238.62C187.46 238.808 187.205 238.914 186.939 238.914Z" fill="#262424"/>
<path d="M200.613 93.2226C202.521 93.2226 204.068 91.6779 204.068 89.7724C204.068 87.867 202.521 86.3223 200.613 86.3223C198.705 86.3223 197.158 87.867 197.158 89.7724C197.158 91.6779 198.705 93.2226 200.613 93.2226Z" fill="#3257FB"/>
<path d="M443.303 65.586C447.336 65.586 450.605 62.3208 450.605 58.293C450.605 54.2652 447.336 51 443.303 51C439.27 51 436 54.2652 436 58.293C436 62.3208 439.27 65.586 443.303 65.586Z" fill="#3257FB"/>
<path d="M439.968 490.926C442.16 490.926 443.937 489.152 443.937 486.963C443.937 484.774 442.16 483 439.968 483C437.777 483 436 484.774 436 486.963C436 489.152 437.777 490.926 439.968 490.926Z" fill="#0A0627"/>
<path d="M193.102 383.567C194.653 383.567 195.91 382.311 195.91 380.762C195.91 379.213 194.653 377.957 193.102 377.957C191.55 377.957 190.293 379.213 190.293 380.762C190.293 382.311 191.55 383.567 193.102 383.567Z" fill="#0A0627"/>
<path d="M163.617 411.458L168.954 441.368L179.41 440.454L176.602 407.996L163.617 411.458Z" fill="white"/>
<path d="M168.954 442.389C168.719 442.389 168.491 442.306 168.311 442.155C168.13 442.004 168.009 441.795 167.967 441.564L162.63 411.654C162.587 411.407 162.638 411.153 162.773 410.941C162.908 410.73 163.118 410.577 163.361 410.512L176.341 407.05C176.483 407.012 176.631 407.005 176.776 407.031C176.92 407.056 177.057 407.113 177.177 407.197C177.297 407.281 177.398 407.39 177.471 407.517C177.544 407.644 177.589 407.786 177.601 407.932L180.41 440.389C180.433 440.654 180.35 440.917 180.18 441.121C180.009 441.324 179.764 441.452 179.499 441.475L169.046 442.389H168.958H168.954ZM164.769 412.207L169.785 440.309L178.327 439.56L175.707 409.29L164.769 412.207Z" fill="#262424"/>
<path d="M208.863 469.173C208.582 468.496 208.162 467.886 207.631 467.382C202.334 462.285 189.775 449.205 184.278 435.04L167.221 434.691C167.221 434.691 161.672 456.226 162.089 474.362L208.064 474.971L209.035 472.791C209.419 471.604 209.358 470.318 208.863 469.173Z" fill="#0A0627"/>
<path d="M208.862 469.173L162.141 468.576C162.068 470.524 162.044 472.459 162.089 474.362L208.064 474.972L209.035 472.792C209.419 471.605 209.357 470.319 208.862 469.173Z" fill="white"/>
<path d="M208.064 475.973H208.032L162.057 475.364C161.8 475.356 161.557 475.25 161.376 475.068C161.196 474.886 161.092 474.642 161.086 474.386C161.041 472.531 161.062 470.564 161.138 468.54C161.147 468.281 161.257 468.035 161.444 467.855C161.631 467.675 161.881 467.574 162.141 467.574L208.862 468.171C209.057 468.174 209.247 468.232 209.409 468.341C209.57 468.449 209.697 468.602 209.773 468.78C210.361 470.148 210.434 471.683 209.978 473.1L209.007 475.28C208.942 475.48 208.816 475.654 208.647 475.778C208.478 475.903 208.274 475.971 208.064 475.973ZM163.076 473.393L207.346 473.95L208.084 472.487C208.33 471.738 208.353 470.933 208.152 470.171L163.116 469.598C163.072 470.892 163.06 472.162 163.076 473.393Z" fill="#262424"/>
<path d="M181.274 411.132C174.205 413.086 167.009 414.551 159.739 415.516C155.874 403.651 148.371 380.173 147.38 373.685C146.028 364.87 149.623 342.971 149.623 342.971C149.623 342.971 119.842 272.256 121.178 253.13C122.515 234.004 136.494 207.814 155.883 211.42C156.921 211.572 157.946 211.805 158.948 212.117C172.912 217.118 174.444 276.195 176.049 331.238C176.274 338.967 176.503 346.617 176.764 354.026C177.59 376.955 178.746 397.58 181.274 411.132Z" fill="#3257FB"/>
<path d="M164.914 404.522C164.69 404.522 164.471 404.446 164.294 404.308C164.118 404.169 163.993 403.975 163.939 403.756L157.118 375.911C156.561 373.633 156.31 371.291 156.372 368.946L156.994 345.416C157.055 343.096 156.785 340.78 156.191 338.536L136.297 263.422C136.258 263.293 136.245 263.158 136.26 263.024C136.274 262.89 136.315 262.761 136.381 262.643C136.446 262.526 136.535 262.422 136.641 262.34C136.748 262.257 136.87 262.197 137 262.162C137.13 262.128 137.266 262.12 137.4 262.139C137.533 262.158 137.661 262.204 137.777 262.274C137.892 262.343 137.992 262.436 138.071 262.545C138.15 262.654 138.206 262.778 138.235 262.909L158.129 338.031C158.773 340.459 159.066 342.966 159 345.476L158.382 369.002C158.325 371.169 158.557 373.333 159.072 375.438L165.894 403.283C165.929 403.431 165.931 403.585 165.899 403.734C165.866 403.882 165.8 404.021 165.706 404.141C165.612 404.26 165.491 404.356 165.354 404.422C165.217 404.488 165.067 404.522 164.914 404.522Z" fill="#262424"/>
<path d="M176.775 354.027C171.346 353.927 166.973 348.854 166.973 342.611C166.973 336.644 170.985 331.747 176.061 331.238C176.286 338.968 176.514 346.618 176.775 354.027Z" fill="white"/>
<path d="M180.743 416.133L156.969 417.142C156.161 417.201 155.363 416.94 154.747 416.415C154.131 415.89 153.747 415.143 153.679 414.337L152.992 400.06C152.987 399.661 153.061 399.265 153.21 398.895C153.358 398.524 153.579 398.187 153.858 397.902C154.138 397.617 154.471 397.39 154.839 397.234C155.207 397.079 155.602 396.997 156.002 396.995L179.76 395.981C180.568 395.922 181.366 396.183 181.982 396.709C182.598 397.234 182.982 397.98 183.05 398.786L183.736 413.063C183.742 413.461 183.669 413.856 183.522 414.226C183.374 414.596 183.155 414.933 182.877 415.218C182.599 415.503 182.268 415.731 181.901 415.888C181.535 416.045 181.141 416.128 180.743 416.133Z" fill="#0A0627"/>
<path d="M80.082 408.801L80.1984 439.123L90.8355 439.78L93.6964 407.326L80.082 408.801Z" fill="white"/>
<path d="M90.8347 440.786H90.7705L80.1333 440.124C79.8793 440.108 79.6409 439.996 79.4665 439.811C79.2922 439.625 79.1949 439.381 79.1944 439.127L79.082 408.805C79.0806 408.557 79.1713 408.317 79.3366 408.132C79.5019 407.947 79.73 407.83 79.9768 407.803L93.5913 406.328C93.7389 406.312 93.8882 406.329 94.0285 406.378C94.1688 406.426 94.2965 406.505 94.4024 406.609C94.5084 406.713 94.5899 406.839 94.6412 406.978C94.6924 407.118 94.7121 407.266 94.6987 407.414L91.8338 439.872C91.8117 440.121 91.6969 440.353 91.512 440.523C91.3271 440.692 91.0854 440.786 90.8347 440.786ZM81.2047 438.181L89.9278 438.722L92.6002 408.456L81.0963 409.702L81.2047 438.181Z" fill="#262424"/>
<path d="M119.288 469.173C119.002 468.495 118.577 467.885 118.04 467.382C112.663 462.285 99.9116 449.205 94.3302 435.04L77.0082 434.691C77.0082 434.691 71.3908 456.226 71.792 474.362L118.473 474.971L119.456 472.791C119.848 471.606 119.788 470.317 119.288 469.173Z" fill="#0A0627"/>
<path d="M119.287 469.173L71.8467 468.576C71.7705 470.524 71.7504 472.459 71.7946 474.362L118.476 474.972L119.459 472.792C119.85 471.605 119.788 470.317 119.287 469.173Z" fill="white"/>
<path d="M118.477 475.973H118.449L71.7676 475.364C71.5112 475.356 71.2677 475.25 71.0871 475.068C70.9066 474.886 70.8026 474.642 70.7965 474.386C70.7524 472.531 70.7725 470.563 70.8487 468.54C70.8621 468.28 70.9749 468.035 71.1639 467.856C71.3528 467.677 71.6034 467.578 71.8639 467.578L119.304 468.175C119.497 468.178 119.685 468.236 119.846 468.342C120.007 468.449 120.133 468.6 120.21 468.776C120.809 470.146 120.883 471.687 120.419 473.108L119.432 475.288C119.365 475.488 119.237 475.662 119.066 475.785C118.894 475.908 118.688 475.974 118.477 475.973ZM72.7827 473.388L117.759 473.945L118.509 472.479C118.759 471.732 118.783 470.927 118.577 470.167L72.8349 469.59C72.7827 470.892 72.7707 472.162 72.7827 473.388Z" fill="#262424"/>
<path d="M143.679 253.33L136.055 265.007C136.055 265.007 125.51 297.132 115.591 333.898C113.625 341.171 111.687 348.628 109.858 356.053C104.814 376.526 100.629 396.762 99.0719 412.302C91.6071 412.476 84.139 412.148 76.7183 411.32C76.289 398.926 75.5868 374.454 76.4535 367.931C77.6251 359.115 87.3554 338.819 87.3554 338.819C87.3554 338.819 78.1989 263.316 84.9479 245.176C91.697 227.035 112.803 205.128 130.807 213.307C131.786 213.75 132.722 214.223 133.616 214.726C147.956 222.764 152.322 240.087 143.679 253.33Z" fill="#3257FB"/>
<path d="M94.5796 267.572C94.3324 267.573 94.0937 267.482 93.9093 267.318C93.7248 267.153 93.6077 266.927 93.5804 266.681C93.553 266.436 93.6174 266.189 93.761 265.988C93.9047 265.787 94.1176 265.647 94.3589 265.593L97.0633 264.984C98.7135 264.614 100.233 263.805 101.46 262.643C102.688 261.481 103.578 260.01 104.037 258.384L107.7 245.429C107.778 245.179 107.95 244.969 108.18 244.844C108.41 244.719 108.68 244.689 108.932 244.76C109.184 244.832 109.398 244.998 109.529 245.225C109.659 245.452 109.696 245.721 109.63 245.974L105.967 258.929C105.411 260.903 104.33 262.69 102.84 264.101C101.349 265.512 99.5044 266.494 97.5007 266.943L94.7963 267.552C94.725 267.567 94.6523 267.574 94.5796 267.572Z" fill="#262424"/>
<path d="M85.466 400.314C85.2 400.314 84.9448 400.209 84.7567 400.021C84.5686 399.833 84.4629 399.578 84.4629 399.312V374.536C84.4577 368.235 85.474 361.975 87.4723 355.999L90.3653 347.356C92.2988 341.584 93.2839 335.538 93.2824 329.452V272.286C93.2836 268.22 93.7086 264.166 94.5503 260.188L98.5227 241.427C98.5887 241.18 98.7466 240.968 98.9641 240.833C99.1816 240.699 99.4423 240.653 99.6928 240.704C99.9434 240.755 100.165 240.9 100.312 241.109C100.459 241.318 100.521 241.575 100.485 241.828L96.5124 260.589C95.7067 264.43 95.3032 268.345 95.3087 272.27V329.452C95.3104 335.754 94.2901 342.016 92.2873 347.993L89.3862 356.636C87.4526 362.408 86.4675 368.454 86.4692 374.54V399.312C86.4692 399.578 86.3635 399.833 86.1753 400.021C85.9872 400.209 85.7321 400.314 85.466 400.314Z" fill="#262424"/>
<path d="M130.772 282.721C130.614 282.721 130.459 282.684 130.319 282.613C130.179 282.542 130.057 282.44 129.963 282.313C129.87 282.187 129.808 282.041 129.782 281.886C129.755 281.731 129.766 281.572 129.813 281.422C132.978 271.204 135.093 264.761 135.113 264.696C135.14 264.617 135.176 264.542 135.221 264.472L142.845 252.795C145.081 249.408 146.486 245.542 146.946 241.511C146.976 241.245 147.11 241.002 147.319 240.836C147.528 240.669 147.795 240.592 148.061 240.622C148.327 240.651 148.571 240.785 148.738 240.994C148.905 241.203 148.982 241.47 148.952 241.735C148.458 246.077 146.946 250.241 144.538 253.889L136.995 265.454C136.686 266.395 134.664 272.599 131.747 282.023C131.681 282.229 131.551 282.408 131.375 282.533C131.199 282.659 130.988 282.725 130.772 282.721Z" fill="#262424"/>
<path d="M115.6 333.9C113.634 341.173 111.696 348.63 109.866 356.055C109.642 356.027 109.417 355.991 109.192 355.943C103.747 354.793 100.581 348.874 102.122 342.719C103.663 336.564 109.345 332.521 114.782 333.675C115.062 333.747 115.331 333.819 115.6 333.9Z" fill="white"/>
<path d="M101.259 395.236H76.574C74.9496 395.236 73.6328 396.551 73.6328 398.174V412.467C73.6328 414.089 74.9496 415.404 76.574 415.404H101.259C102.883 415.404 104.2 414.089 104.2 412.467V398.174C104.2 396.551 102.883 395.236 101.259 395.236Z" fill="#0A0627"/>
<path d="M220.956 174.179C220.956 174.179 227.44 175.313 232.323 163.492L217.609 155.746L220.956 174.179Z" fill="white"/>
<path d="M221.429 175.209C221.212 175.212 220.996 175.197 220.783 175.165C220.583 175.128 220.4 175.032 220.257 174.888C220.114 174.745 220.017 174.562 219.98 174.364L216.634 155.931C216.6 155.746 216.619 155.555 216.688 155.38C216.758 155.205 216.875 155.053 217.027 154.942C217.179 154.831 217.36 154.764 217.548 154.751C217.736 154.737 217.924 154.777 218.09 154.865L232.804 162.611C233.025 162.727 233.194 162.921 233.28 163.155C233.365 163.389 233.36 163.646 233.265 163.877C228.956 174.267 223.326 175.209 221.429 175.209ZM218.965 157.578L221.798 173.185C223.403 173.061 227.504 171.915 231.027 163.937L218.965 157.578Z" fill="#262424"/>
<path d="M227.85 108.788L263.165 115.829C263.465 115.888 263.728 116.064 263.898 116.318C264.067 116.572 264.129 116.882 264.069 117.181L254.014 167.48C253.954 167.781 253.777 168.045 253.522 168.214C253.267 168.384 252.955 168.446 252.655 168.386L217.347 161.347C217.047 161.287 216.782 161.11 216.612 160.856C216.442 160.601 216.38 160.289 216.44 159.989L226.495 109.69C226.555 109.391 226.731 109.128 226.985 108.959C227.239 108.789 227.55 108.728 227.85 108.788Z" fill="#3257FB"/>
<path d="M260.009 121.016L259.05 125.824L251.727 162.434C251.666 162.732 251.49 162.995 251.236 163.164C250.981 163.333 250.671 163.394 250.371 163.335L221.409 157.561C221.109 157.501 220.845 157.325 220.675 157.071C220.505 156.817 220.443 156.506 220.502 156.207L227.821 119.597L228.784 114.789C228.845 114.49 229.022 114.228 229.276 114.059C229.53 113.89 229.841 113.828 230.14 113.887L259.102 119.661C259.402 119.721 259.666 119.898 259.836 120.152C260.006 120.405 260.068 120.716 260.009 121.016Z" fill="white"/>
<path d="M250.593 164.345C250.45 164.344 250.307 164.329 250.167 164.3L221.205 158.526C220.645 158.414 220.152 158.084 219.834 157.61C219.517 157.135 219.401 156.554 219.512 155.994L227.794 114.58C227.907 114.021 228.237 113.529 228.713 113.213C229.188 112.897 229.769 112.782 230.33 112.893L259.292 118.667C259.852 118.779 260.345 119.109 260.663 119.584C260.98 120.058 261.096 120.64 260.985 121.2L252.703 162.613C252.605 163.101 252.342 163.539 251.957 163.855C251.572 164.17 251.09 164.343 250.593 164.345ZM229.916 114.852C229.886 114.852 229.857 114.86 229.832 114.876C229.816 114.887 229.802 114.9 229.791 114.916C229.78 114.932 229.772 114.95 229.768 114.968L228.805 119.777L221.49 156.386C221.486 156.406 221.486 156.426 221.49 156.445C221.495 156.464 221.503 156.482 221.514 156.499C221.525 156.515 221.539 156.529 221.556 156.54C221.572 156.551 221.591 156.559 221.61 156.563L250.573 162.337C250.611 162.344 250.651 162.336 250.684 162.314C250.717 162.293 250.74 162.259 250.749 162.221L259.031 120.807C259.035 120.788 259.035 120.768 259.031 120.748C259.026 120.729 259.018 120.711 259.007 120.695C258.996 120.678 258.982 120.664 258.965 120.653C258.949 120.642 258.93 120.634 258.911 120.631L229.948 114.856H229.916V114.852Z" fill="#262424"/>
<path d="M260.01 121.016L259.051 125.824L227.822 119.597L228.785 114.789C228.846 114.49 229.023 114.228 229.277 114.059C229.531 113.89 229.842 113.828 230.141 113.887L259.104 119.661C259.403 119.721 259.667 119.898 259.837 120.152C260.007 120.405 260.07 120.716 260.01 121.016Z" fill="white"/>
<path d="M259.042 126.809C258.977 126.816 258.911 126.816 258.845 126.809L227.616 120.582C227.486 120.558 227.361 120.508 227.25 120.436C227.139 120.364 227.043 120.27 226.969 120.16C226.894 120.051 226.842 119.928 226.815 119.798C226.789 119.668 226.788 119.534 226.814 119.404L227.777 114.595C227.89 114.036 228.22 113.545 228.696 113.229C229.171 112.913 229.752 112.797 230.313 112.908L259.275 118.683C259.835 118.795 260.328 119.125 260.646 119.599C260.963 120.074 261.079 120.655 260.968 121.215L260.009 126.024C259.96 126.244 259.838 126.442 259.663 126.585C259.487 126.727 259.268 126.806 259.042 126.809ZM228.992 118.795L258.256 124.621L259.018 120.798C259.022 120.779 259.022 120.759 259.018 120.74C259.013 120.721 259.005 120.702 258.994 120.686C258.983 120.67 258.969 120.655 258.952 120.644C258.936 120.633 258.917 120.626 258.898 120.622L229.935 114.848C229.916 114.844 229.896 114.844 229.877 114.848C229.857 114.852 229.839 114.86 229.823 114.872C229.807 114.882 229.793 114.896 229.782 114.912C229.771 114.927 229.763 114.945 229.759 114.964L228.992 118.795Z" fill="#262424"/>
<path d="M219.216 153.873C219.216 153.873 227.309 167.698 220.957 174.177C220.957 174.177 212.684 193.76 203.302 203.429C202.318 204.433 201.141 205.228 199.843 205.769C198.544 206.309 197.15 206.583 195.743 206.574C194.337 206.566 192.946 206.275 191.654 205.719C190.362 205.162 189.195 204.353 188.223 203.337C183.36 198.292 177.879 191.544 172.575 184.183C158.426 164.496 149.743 148.447 153.812 141.054C159.353 130.996 165.284 129.71 171.214 133.268L200.626 174.029L210.657 166.696C210.657 166.696 210.926 153.472 212.395 151.2C213.863 148.928 223.63 143.454 224.432 143.186C225.235 142.917 226.174 143.723 225.636 146.259C225.098 148.796 219.216 153.873 219.216 153.873Z" fill="white"/>
<path d="M195.809 207.571C194.255 207.573 192.717 207.259 191.288 206.649C189.859 206.04 188.569 205.147 187.495 204.025C182.66 199.008 177.219 192.348 171.77 184.762C155.099 161.565 149.116 147.52 152.944 140.567C156.021 134.982 159.316 131.784 163.023 130.786C165.784 130.045 168.717 130.59 171.742 132.389C171.859 132.459 171.96 132.551 172.039 132.661L200.849 172.609L209.677 166.161C209.753 163.08 210.11 152.885 211.562 150.637C213.232 148.069 223.131 142.547 224.126 142.222C224.44 142.115 224.777 142.094 225.102 142.161C225.428 142.228 225.729 142.381 225.975 142.603C226.541 143.108 227.111 144.186 226.629 146.454C226.136 148.806 222.111 152.621 220.494 154.068C222.099 157.085 227.612 168.545 221.818 174.716C220.928 176.796 213.079 194.784 204.015 204.101C202.954 205.204 201.679 206.08 200.269 206.677C198.858 207.273 197.341 207.577 195.809 207.571ZM165.463 132.465C164.81 132.465 164.159 132.551 163.529 132.721C160.423 133.559 157.446 136.524 154.701 141.537C151.339 147.652 157.454 161.409 173.4 183.612C178.796 191.122 184.169 197.705 188.94 202.654C189.828 203.578 190.895 204.313 192.076 204.813C193.257 205.314 194.527 205.571 195.809 205.567C197.067 205.573 198.314 205.324 199.473 204.836C200.632 204.347 201.68 203.63 202.554 202.726C211.711 193.31 219.937 173.983 220.021 173.787C220.07 173.67 220.141 173.564 220.229 173.474C225.971 167.616 218.416 154.508 218.34 154.376C218.222 154.174 218.178 153.938 218.216 153.707C218.254 153.477 218.372 153.267 218.548 153.114C220.727 151.234 224.306 147.656 224.643 146.053C224.9 144.851 224.735 144.334 224.643 144.17C223.343 144.747 214.468 149.816 213.216 151.743C212.261 153.222 211.743 161.713 211.639 166.714C211.639 166.87 211.602 167.023 211.533 167.162C211.463 167.301 211.362 167.422 211.237 167.516L201.206 174.849C201.099 174.926 200.978 174.982 200.85 175.013C200.721 175.044 200.588 175.049 200.457 175.028C200.327 175.007 200.202 174.961 200.089 174.891C199.977 174.822 199.879 174.731 199.802 174.624L170.531 134.02C168.737 132.982 167.068 132.465 165.463 132.465Z" fill="#262424"/>
<path d="M195.911 192.745C195.757 192.745 195.605 192.71 195.467 192.642C195.329 192.574 195.209 192.476 195.115 192.354C195.021 192.233 194.956 192.091 194.926 191.941C194.896 191.79 194.9 191.635 194.94 191.486L199.642 173.775C199.718 173.527 199.887 173.317 200.114 173.191C200.341 173.065 200.608 173.031 200.859 173.098C201.11 173.164 201.326 173.325 201.46 173.547C201.595 173.769 201.638 174.035 201.58 174.288L196.878 191.999C196.821 192.212 196.696 192.401 196.521 192.536C196.346 192.671 196.132 192.744 195.911 192.745Z" fill="#262424"/>
<path d="M163.918 124.787C158.605 123.288 153.666 125.356 149.721 133.057C145.039 142.182 156.362 166 170.53 185.691L197.787 165.74C190.46 154.936 171.934 128.425 163.918 124.787Z" fill="#0A0627"/>
<path d="M169.327 182.589C169.116 182.589 168.91 182.523 168.738 182.399C168.567 182.276 168.439 182.101 168.373 181.901C168.307 181.701 168.305 181.485 168.369 181.284C168.433 181.083 168.559 180.907 168.729 180.781L193.081 162.749C193.186 162.67 193.306 162.613 193.434 162.58C193.561 162.548 193.694 162.54 193.825 162.559C193.955 162.578 194.08 162.622 194.194 162.689C194.307 162.756 194.406 162.844 194.485 162.95C194.564 163.055 194.622 163.175 194.654 163.302C194.687 163.429 194.694 163.562 194.676 163.692C194.657 163.823 194.613 163.948 194.546 164.061C194.479 164.174 194.39 164.273 194.285 164.352L169.933 182.384C169.759 182.517 169.546 182.589 169.327 182.589Z" fill="#262424"/>
<path d="M132.34 113.318C145.116 113.318 167.036 126.314 167.036 126.314L167.722 134.704C167.722 134.704 173.464 150.545 173.464 156.515C173.464 162.486 163.268 176.182 163.268 176.182C163.268 176.182 170.551 223.094 173.48 246.039C173.48 246.039 138.901 268.046 77.0117 248.147L99.0484 174.892L94.125 127.207C94.125 127.207 115.383 113.318 132.34 113.318Z" fill="#0A0627"/>
<path d="M165.819 173.569C165.637 173.569 165.458 173.52 165.302 173.426C165.146 173.332 165.019 173.198 164.933 173.037C164.848 172.876 164.808 172.696 164.818 172.514C164.828 172.333 164.886 172.157 164.988 172.006C169.747 164.942 172.48 159.292 172.48 156.511C172.48 150.785 166.862 135.197 166.798 135.041C166.768 134.958 166.749 134.872 166.742 134.784L166.341 130.004C166.33 129.872 166.345 129.74 166.385 129.614C166.425 129.488 166.49 129.371 166.575 129.271C166.66 129.17 166.765 129.087 166.882 129.026C167 128.965 167.128 128.929 167.26 128.918C167.391 128.907 167.524 128.922 167.65 128.962C167.776 129.002 167.893 129.066 167.994 129.152C168.094 129.237 168.178 129.341 168.238 129.458C168.299 129.576 168.336 129.704 168.347 129.835L168.748 134.484C169.33 136.086 174.506 150.652 174.506 156.523C174.506 160.646 170.245 167.835 166.674 173.136C166.579 173.274 166.451 173.386 166.301 173.461C166.152 173.537 165.986 173.574 165.819 173.569Z" fill="#262424"/>
<path d="M129.908 250.571C124.479 250.571 119.315 250.25 114.717 249.797C104.543 248.802 94.4698 246.967 84.5992 244.312C84.4727 244.275 84.3548 244.213 84.2521 244.131C84.1493 244.049 84.0639 243.947 84.0005 243.832C83.9372 243.716 83.8972 243.59 83.8829 243.459C83.8686 243.328 83.8802 243.196 83.9171 243.069C83.954 242.943 84.0154 242.825 84.0979 242.723C84.1803 242.62 84.2822 242.535 84.3977 242.471C84.5132 242.408 84.6401 242.368 84.7711 242.354C84.902 242.34 85.0345 242.351 85.161 242.388C94.9238 245.013 104.887 246.826 114.95 247.81C130.298 249.32 152.037 249.316 168.46 240.745C168.577 240.684 168.705 240.647 168.836 240.635C168.967 240.623 169.099 240.637 169.225 240.676C169.351 240.716 169.468 240.779 169.569 240.864C169.67 240.948 169.754 241.051 169.815 241.168C169.876 241.285 169.913 241.412 169.925 241.543C169.937 241.674 169.923 241.806 169.883 241.932C169.844 242.057 169.78 242.174 169.696 242.275C169.612 242.376 169.508 242.459 169.391 242.52C157.482 248.735 142.933 250.571 129.908 250.571Z" fill="#262424"/>
<path d="M131.48 108.637C138.655 109.105 142.715 113.846 143.201 117.769C143.686 121.692 140.858 125.262 138.201 126.04C138.201 126.04 135.545 118.626 133.515 118.626C131.484 118.626 130.004 127.21 130.004 127.21C130.004 127.21 120.374 127.21 117.814 119.015C116.024 113.365 123.118 108.092 131.48 108.637Z" fill="white"/>
<path d="M130.004 128.229C129.9 128.229 119.624 128.129 116.855 119.334C116.141 117.069 116.631 114.701 118.232 112.666C120.904 109.268 126.132 107.3 131.549 107.657C139.045 108.146 143.663 113.179 144.201 117.675C144.726 122.042 141.609 126.09 138.487 127.027C138.241 127.099 137.977 127.075 137.748 126.959C137.52 126.842 137.345 126.643 137.259 126.402C136.079 123.112 134.338 119.963 133.547 119.666C132.805 120.155 131.625 123.705 130.987 127.404C130.946 127.635 130.825 127.844 130.646 127.994C130.466 128.145 130.239 128.228 130.004 128.229ZM130.329 109.62C126.008 109.62 121.879 111.275 119.813 113.904C118.978 114.966 118.119 116.665 118.769 118.732C120.675 124.787 126.911 125.945 129.174 126.174C129.948 122.09 131.304 117.642 133.519 117.642C135.654 117.642 137.62 121.71 138.784 124.723C140.658 123.661 142.584 120.976 142.214 117.911C141.773 114.224 137.841 110.081 131.425 109.66C131.048 109.612 130.683 109.604 130.321 109.604L130.329 109.62Z" fill="#262424"/>
<path d="M136.167 113.318C136.167 113.318 135.919 115.778 132.849 116.948C131.267 116.942 129.702 116.617 128.248 115.994C126.794 115.37 125.481 114.46 124.387 113.318L125.241 97.7461L128.158 98.3592L135.261 99.8458L136.011 111.066L136.167 113.318Z" fill="white"/>
<path d="M132.677 117.954C130.987 117.925 129.319 117.561 127.77 116.883C126.222 116.205 124.824 115.226 123.657 114.003C123.564 113.904 123.493 113.788 123.447 113.66C123.4 113.533 123.381 113.397 123.388 113.262L124.243 97.6903C124.251 97.5466 124.29 97.4062 124.357 97.2788C124.424 97.1514 124.518 97.04 124.633 96.9522C124.747 96.8643 124.879 96.8021 125.019 96.7698C125.16 96.7374 125.306 96.7357 125.447 96.7647L135.478 98.8644C135.694 98.9078 135.889 99.0208 136.034 99.1858C136.179 99.3509 136.265 99.559 136.28 99.7781L137.183 113.25C137.188 113.306 137.188 113.362 137.183 113.418C137.183 113.543 136.83 116.508 133.223 117.882C133.124 117.92 133.02 117.941 132.914 117.946H132.693L132.677 117.954ZM125.415 112.934C127.361 114.803 129.937 115.879 132.637 115.951C134.675 115.109 135.081 113.619 135.145 113.274L134.302 100.672L126.185 98.9766L125.415 112.934Z" fill="#262424"/>
<path d="M136.024 111.046C127.509 110.196 126.795 99.3772 126.795 99.3772C127.229 99.009 127.686 98.669 128.163 98.3594L135.265 99.846L136.024 111.046Z" fill="#262424"/>
<path d="M114.911 61.8353C120.272 63.6906 116.48 74.8225 114.767 78.3808C113.053 81.9392 116.139 91.7006 109.603 95.343C103.066 98.9855 116.243 111.668 100.021 126.198C87.5218 137.394 64.6666 130.574 67.1864 118.985C69.7063 107.397 87.6823 101.218 89.8571 90.6026C91.2414 83.8466 87.927 74.3496 98.813 70.2984C106.946 67.289 110.678 60.3727 114.911 61.8353Z" fill="#262424"/>
<path d="M143.338 89.5635C143.338 89.5635 146.456 84.9513 149.794 86.5181C153.132 88.0849 152.013 99.2207 143.775 97.702L143.338 89.5635Z" fill="white"/>
<path d="M145.252 98.845C144.696 98.8434 144.142 98.7911 143.595 98.6887C143.377 98.6445 143.18 98.5293 143.035 98.361C142.889 98.1927 142.804 97.9809 142.793 97.759L142.347 89.6245C142.335 89.4073 142.394 89.1921 142.516 89.0115C142.66 88.7951 146.155 83.702 150.232 85.6174C152.607 86.7314 153.041 90.6263 152.09 93.5956C151.223 96.2564 149.004 98.845 145.252 98.845ZM144.735 96.8214C148.41 97.1139 149.75 94.2768 150.168 92.9785C150.97 90.446 150.404 87.9175 149.365 87.4286C147.25 86.4349 145.012 89.0315 144.357 89.877L144.735 96.8214Z" fill="#262424"/>
<path d="M120.15 68.4093L118.244 67.5077C117.946 67.3651 117.615 67.3047 117.285 67.3329C116.956 67.3611 116.64 67.4768 116.37 67.668C115.588 68.1988 114.936 68.9004 114.464 69.7197C114.042 70.6312 113.951 71.6616 114.208 72.6328C114.263 72.869 114.364 73.0919 114.506 73.2887C114.648 73.4854 114.827 73.652 115.034 73.7789L117.081 75.0532C117.314 75.1983 117.576 75.29 117.85 75.3217C118.123 75.3535 118.399 75.3244 118.66 75.2367C118.92 75.149 119.158 75.0047 119.356 74.8143C119.554 74.6239 119.707 74.3921 119.805 74.1355L121.089 70.7415C121.253 70.3059 121.248 69.8247 121.074 69.3929C120.9 68.9612 120.57 68.6102 120.15 68.4093Z" fill="white"/>
<path d="M145.434 91.3986C145.057 98.2869 141.991 106.225 133.649 106.009C127.518 105.844 120.733 98.4712 120.219 89.1786C119.706 79.8861 121.323 71.9159 132.534 72.4729C133.731 72.5502 134.921 72.7068 136.097 72.9417C142.597 74.3762 145.077 74.9453 145.562 87.728C145.599 88.85 145.51 90.1003 145.434 91.3986Z" fill="white"/>
<path d="M133.992 107.019H133.615C127.259 106.847 119.78 99.5018 119.21 89.2315C118.937 84.2827 119.086 78.1357 122.697 74.5052C124.916 72.2733 128.238 71.2514 132.572 71.4678C133.824 71.5491 135.069 71.7137 136.299 71.9607C143.522 73.5636 146.062 74.7657 146.551 87.6887C146.591 88.7226 146.527 89.8125 146.455 90.9706L146.427 91.4635C146.018 99.0209 142.523 107.019 133.992 107.019ZM131.424 73.4393C128.174 73.4393 125.779 74.2408 124.125 75.9158C121.774 78.28 120.847 82.4754 121.216 89.1193C121.71 98.0392 128.202 104.867 133.655 105.012C142.912 105.264 144.232 94.6171 144.413 91.3473L144.449 90.8424C144.513 89.7364 144.577 88.6945 144.541 87.7569C144.088 75.7354 142.182 75.3067 135.862 73.9122C134.742 73.6886 133.608 73.5387 132.467 73.4634C132.114 73.4474 131.767 73.4393 131.424 73.4393Z" fill="#262424"/>
<path d="M119.937 66.9188L118.051 66.0252C117.756 65.8839 117.427 65.8243 117.101 65.8525C116.774 65.8807 116.461 65.9957 116.194 66.1855C115.419 66.7125 114.774 67.4086 114.308 68.2211C113.889 69.1252 113.799 70.1472 114.055 71.1102C114.161 71.5795 114.45 71.9874 114.857 72.2442L116.884 73.5065C117.115 73.651 117.375 73.7424 117.646 73.7742C117.917 73.806 118.191 73.7774 118.45 73.6903C118.708 73.6033 118.944 73.4601 119.14 73.271C119.336 73.0819 119.488 72.8516 119.584 72.5969L120.856 69.2349C121.022 68.8041 121.019 68.3268 120.849 67.8978C120.679 67.4688 120.354 67.1193 119.937 66.9188Z" fill="white"/>
<path d="M122.923 88.386C124.035 87.9578 125.01 87.2377 125.746 86.3017C126.482 85.3657 126.951 84.2487 127.104 83.0685C127.224 82.2671 127.301 81.1932 127.533 80.2194C132.236 85.1362 141.112 88.1215 144.98 89.2435C145.585 89.4303 146.233 89.4221 146.833 89.22C147.433 89.0178 147.954 88.6321 148.322 88.1175C152.836 81.4576 147.455 68.7029 138.801 68.9473C128.978 62.1352 117.506 67.092 115.869 75.3588C114.059 84.5511 120.154 89.54 122.923 88.386Z" fill="#262424"/>
<path d="M132.26 62.0098C134.664 62.0098 137.044 62.4826 139.265 63.4013C141.486 64.32 143.504 65.6665 145.204 67.364C146.903 69.0615 148.252 71.0768 149.172 73.2947C150.092 75.5126 150.565 77.8897 150.565 80.2904V82.1096C150.565 82.4635 150.424 82.8029 150.174 83.0532C149.923 83.3034 149.583 83.444 149.229 83.444H115.291C114.937 83.444 114.597 83.3034 114.346 83.0532C114.096 82.8029 113.955 82.4635 113.955 82.1096V80.2904C113.955 75.442 115.884 70.7923 119.316 67.364C122.749 63.9358 127.405 62.0098 132.26 62.0098Z" fill="#0A0627"/>
<path d="M137.898 83.4482H157.026C157.026 83.4482 147.994 72.0599 137.898 83.4482Z" fill="#0A0627"/>
<path d="M138.921 83.3676C138.722 83.368 138.527 83.3091 138.362 83.1986C138.196 83.088 138.067 82.9308 137.991 82.7468C137.916 82.5629 137.896 82.3606 137.936 82.1657C137.976 81.9708 138.073 81.7922 138.215 81.6526C141.328 78.5791 144.667 77.1525 148.138 77.413C148.269 77.423 148.398 77.4588 148.516 77.5184C148.634 77.578 148.739 77.6601 148.825 77.7602C148.911 77.8603 148.976 77.9764 149.017 78.1018C149.059 78.2271 149.075 78.3594 149.065 78.4909C149.055 78.6225 149.019 78.7508 148.959 78.8685C148.899 78.9862 148.817 79.091 148.717 79.177C148.617 79.2629 148.5 79.3283 148.375 79.3694C148.249 79.4105 148.117 79.4266 147.985 79.4166C145.12 79.2002 142.308 80.4344 139.623 83.0831C139.436 83.2663 139.183 83.3685 138.921 83.3676Z" fill="#262424"/>
<path d="M144.45 79.8461C144.218 79.8462 143.994 79.7664 143.815 79.6204C143.636 79.4743 143.513 79.271 143.467 79.0447C140.838 65.8932 128.68 65.3162 128.167 65.3162C128.035 65.3121 127.905 65.282 127.785 65.2278C127.665 65.1736 127.557 65.0963 127.467 65.0003C127.377 64.9043 127.306 64.7914 127.26 64.6683C127.213 64.5451 127.192 64.4139 127.196 64.2824C127.207 64.0184 127.322 63.7693 127.514 63.5882C127.707 63.4071 127.963 63.3082 128.227 63.3126C128.367 63.3126 142.467 63.9137 145.413 78.648C145.438 78.778 145.438 78.9118 145.411 79.0417C145.384 79.1715 145.332 79.2948 145.258 79.4044C145.183 79.5139 145.087 79.6076 144.976 79.68C144.865 79.7524 144.741 79.802 144.61 79.8261C144.557 79.837 144.504 79.8437 144.45 79.8461Z" fill="#262424"/>
<path d="M123.078 89.5628C123.078 89.5628 118.552 84.8945 113.789 86.4132C109.027 87.9319 111.783 99.0157 123.556 97.6332L123.078 89.5628Z" fill="white"/>
<path d="M121.58 98.7477C115.252 98.7477 111.548 95.0851 110.746 91.3425C110.136 88.5375 111.243 86.1813 113.494 85.46C118.791 83.769 123.606 88.6657 123.807 88.8661C123.989 89.0573 124.089 89.3129 124.084 89.5772C124.079 89.8415 123.969 90.093 123.779 90.277C123.589 90.461 123.334 90.5625 123.069 90.5594C122.805 90.5564 122.552 90.4489 122.366 90.2605C122.306 90.2004 118.193 86.0611 114.104 87.3674C112.604 87.8442 112.411 89.5793 112.704 90.9137C113.418 94.1915 117.082 97.3812 123.449 96.6239C123.581 96.6084 123.715 96.6189 123.842 96.6549C123.97 96.6909 124.089 96.7517 124.193 96.8337C124.298 96.9158 124.385 97.0175 124.449 97.1331C124.514 97.2487 124.555 97.3759 124.571 97.5075C124.587 97.639 124.576 97.7723 124.54 97.8998C124.504 98.0273 124.443 98.1464 124.361 98.2504C124.279 98.3544 124.177 98.4413 124.061 98.506C123.945 98.5706 123.818 98.6119 123.686 98.6275C122.987 98.7091 122.284 98.7492 121.58 98.7477Z" fill="#262424"/>
<path d="M166.145 232.339C165.989 234.518 163.356 234.438 162.205 233.565C162.205 233.565 163.039 236.149 157.972 239.259C152.904 242.368 147.286 241.511 145.047 237.524C142.808 233.537 140.268 233.116 140.268 233.116C140.268 233.116 82.352 225.679 75.1937 216.454C71.8553 212.155 72.2284 195.765 74.8366 178.162C78.2833 154.92 85.6302 129.543 93.4586 127.139C119.54 119.125 111.037 158.711 104.24 183.019C101.291 193.561 99.6579 200.714 99.6579 200.714L145.152 223.639C145.152 223.639 156.238 218.858 157.923 218.794C159.609 218.73 166.301 230.163 166.145 232.339Z" fill="white"/>
<path d="M151.894 242.111C151.002 242.129 150.111 242.027 149.246 241.807C148.189 241.548 147.197 241.077 146.329 240.423C145.461 239.768 144.736 238.944 144.198 238C142.324 234.658 140.322 234.125 140.109 234.073C137.272 233.708 81.7153 226.459 74.4246 217.047C70.5044 211.994 71.5677 193.573 73.8749 178.017C76.5232 160.161 83.5651 129.158 93.175 126.205C99.4305 124.285 104.233 124.898 107.46 128.036C114.425 134.812 113.679 152.88 105.18 183.274C102.809 191.754 101.276 198.101 100.767 200.185L145.173 222.561C147.745 221.459 156.207 217.88 157.877 217.816C158.454 217.816 159.024 218.125 159.754 218.878C162.186 221.39 167.274 230.034 167.105 232.402C167.09 232.913 166.932 233.409 166.648 233.834C166.364 234.259 165.967 234.596 165.5 234.806C164.737 235.12 163.895 235.184 163.093 234.991C162.76 236.273 161.664 238.116 158.474 240.076C156.502 241.328 154.23 242.031 151.894 242.111ZM99.4065 127.066C97.4816 127.134 95.5758 127.471 93.7448 128.068C90.4947 129.066 86.8273 135.133 83.4247 145.147C80.3711 154.135 77.5905 166.22 75.8009 178.306C73.0243 197.063 73.0885 212.154 75.9654 215.861C81.4345 222.905 120.504 229.601 140.394 232.154C140.551 232.178 143.464 232.707 145.899 237.05C146.306 237.768 146.857 238.394 147.518 238.89C148.179 239.385 148.935 239.738 149.739 239.927C152.107 240.541 154.923 239.996 157.467 238.433C161.688 235.84 161.279 233.849 161.275 233.829C161.197 233.638 161.186 233.426 161.245 233.228C161.305 233.031 161.43 232.859 161.6 232.743C161.779 232.62 161.994 232.559 162.211 232.568C162.428 232.578 162.636 232.657 162.804 232.795C163.08 232.981 163.395 233.1 163.725 233.145C164.055 233.189 164.39 233.157 164.706 233.051C164.855 232.985 164.981 232.876 165.066 232.737C165.151 232.598 165.192 232.437 165.183 232.274C165.304 230.511 159.53 220.693 157.861 219.776C156.657 219.952 150.742 222.288 145.546 224.532C145.416 224.588 145.274 224.615 145.132 224.611C144.99 224.607 144.851 224.572 144.724 224.508L99.2179 201.559C99.0241 201.462 98.8686 201.302 98.7762 201.106C98.6839 200.91 98.6599 200.688 98.7083 200.477C98.7083 200.405 100.381 193.18 103.303 182.738C111.476 153.485 112.419 135.561 106.111 129.414C104.434 127.828 102.195 127.026 99.4065 127.066Z" fill="#262424"/>
<path d="M105.464 182.377L72.3809 177.821C75.8276 154.58 84.0171 130.345 93.4585 127.135C119.291 118.339 112.261 158.07 105.464 182.377Z" fill="#0A0627"/>
<path d="M105.481 183.35H105.333L72.2497 178.794C72.122 178.777 71.999 178.734 71.8879 178.669C71.7768 178.604 71.6797 178.518 71.6024 178.415C71.5251 178.312 71.4691 178.195 71.4376 178.07C71.4061 177.945 71.3999 177.815 71.4191 177.688C74.7334 155.336 82.947 129.698 93.1428 126.224C99.4344 124.08 104.318 124.593 107.656 127.747C117.358 136.907 111.035 166.075 106.4 182.645C106.343 182.845 106.222 183.022 106.057 183.149C105.892 183.276 105.69 183.346 105.481 183.35ZM73.4936 176.995L104.755 181.298C108.463 167.85 115.428 137.745 106.32 129.149C103.547 126.533 99.3261 126.164 93.7728 128.056C84.8971 131.081 76.9122 154.787 73.4936 176.995Z" fill="#0A0627"/>
<path d="M106.926 177.936C106.777 177.938 106.63 177.906 106.496 177.842C106.362 177.779 106.244 177.685 106.152 177.569C106.059 177.454 105.995 177.318 105.962 177.173C105.93 177.028 105.932 176.878 105.967 176.734C109.494 162.878 114.309 138.362 106.962 129.827C104.98 127.527 102.267 126.581 98.6638 126.937C98.4068 126.963 98.1502 126.885 97.9504 126.722C97.7507 126.559 97.6241 126.323 97.5985 126.066C97.573 125.809 97.6506 125.553 97.8142 125.353C97.9779 125.154 98.2142 125.028 98.4712 125.002C102.692 124.601 106.043 125.779 108.434 128.56C115.962 137.3 112.27 159.84 107.848 177.211C107.794 177.416 107.675 177.597 107.509 177.728C107.342 177.859 107.137 177.932 106.926 177.936Z" fill="#262424"/>
<path d="M103.923 175.693H103.779L74.632 171.842C74.5053 171.825 74.3831 171.784 74.2723 171.72C74.1616 171.656 74.0645 171.572 73.9867 171.47C73.9088 171.369 73.8516 171.254 73.8185 171.13C73.7853 171.007 73.7768 170.879 73.7934 170.752C73.81 170.625 73.8514 170.503 73.9152 170.393C73.9791 170.282 74.0641 170.185 74.1654 170.107C74.2668 170.03 74.3825 169.973 74.5059 169.94C74.6293 169.906 74.7581 169.898 74.8848 169.914L104.04 173.757C104.28 173.794 104.497 173.92 104.649 174.108C104.802 174.297 104.878 174.536 104.864 174.778C104.849 175.02 104.745 175.248 104.571 175.417C104.397 175.586 104.166 175.685 103.923 175.693Z" fill="#262424"/>
<path d="M465.883 259.785H265.84C264.061 259.785 262.619 261.228 262.619 263.009V407.665C262.619 409.445 264.061 410.889 265.84 410.889H465.883C467.662 410.889 469.104 409.445 469.104 407.665V263.009C469.104 261.228 467.662 259.785 465.883 259.785Z" fill="white"/>
<path d="M465.884 411.508H265.84C264.823 411.508 263.847 411.103 263.127 410.384C262.408 409.664 262.002 408.688 262 407.67V263.008C262.001 261.989 262.406 261.011 263.126 260.291C263.846 259.57 264.822 259.165 265.84 259.164H465.884C466.902 259.165 467.879 259.57 468.599 260.291C469.319 261.011 469.724 261.989 469.724 263.008V407.67C469.722 408.688 469.317 409.664 468.597 410.384C467.877 411.103 466.902 411.508 465.884 411.508ZM265.84 260.405C265.151 260.406 264.49 260.68 264.002 261.168C263.515 261.656 263.24 262.318 263.24 263.008V407.67C263.24 408.36 263.515 409.021 264.002 409.51C264.49 409.998 265.151 410.272 265.84 410.273H465.884C466.574 410.272 467.235 409.998 467.722 409.51C468.21 409.021 468.484 408.36 468.485 407.67V263.008C468.484 262.318 468.21 261.656 467.722 261.168C467.235 260.68 466.574 260.406 465.884 260.405H265.84Z" fill="#262424"/>
<path d="M342.21 305H290.79C289.801 305 289 305.801 289 306.79V358.21C289 359.199 289.801 360 290.79 360H342.21C343.199 360 344 359.199 344 358.21V306.79C344 305.801 343.199 305 342.21 305Z" fill="#3257FB"/>
<path d="M445.908 354.603C445.827 354.603 445.746 354.587 445.671 354.556C445.596 354.525 445.528 354.479 445.47 354.421L392.455 301.355C392.348 301.237 392.29 301.082 392.293 300.923C392.297 300.763 392.362 300.611 392.475 300.498C392.587 300.385 392.739 300.32 392.899 300.317C393.058 300.313 393.213 300.371 393.331 300.479L446.346 353.545C446.433 353.631 446.491 353.742 446.515 353.862C446.539 353.982 446.527 354.107 446.48 354.22C446.433 354.333 446.354 354.43 446.252 354.499C446.15 354.567 446.031 354.603 445.908 354.603Z" fill="white"/>
<path d="M392.89 354.604C392.768 354.603 392.649 354.567 392.548 354.499C392.446 354.431 392.368 354.334 392.321 354.221C392.274 354.109 392.262 353.985 392.285 353.865C392.308 353.745 392.366 353.635 392.452 353.548L416.369 329.608C416.487 329.5 416.642 329.442 416.801 329.445C416.961 329.449 417.113 329.514 417.226 329.627C417.338 329.74 417.403 329.892 417.407 330.052C417.411 330.211 417.353 330.366 417.245 330.484L393.328 354.425C393.27 354.482 393.202 354.527 393.127 354.558C393.051 354.589 392.971 354.604 392.89 354.604Z" fill="white"/>
<path d="M421.351 326.123C421.229 326.123 421.11 326.086 421.009 326.018C420.907 325.95 420.828 325.853 420.782 325.741C420.735 325.628 420.722 325.504 420.746 325.384C420.769 325.264 420.827 325.154 420.913 325.067L445.471 300.483C445.589 300.375 445.744 300.317 445.903 300.32C446.063 300.324 446.215 300.389 446.328 300.502C446.44 300.615 446.505 300.767 446.509 300.927C446.513 301.086 446.455 301.241 446.347 301.359L421.789 325.941C421.731 325.999 421.663 326.045 421.588 326.076C421.513 326.107 421.432 326.123 421.351 326.123Z" fill="white"/>
<path d="M406.836 382.936H288.014C286.583 382.936 285.424 384.096 285.424 385.528C285.424 386.96 286.583 388.121 288.014 388.121H406.836C408.267 388.121 409.427 386.96 409.427 385.528C409.427 384.096 408.267 382.936 406.836 382.936Z" fill="#0A0627"/>
<path d="M406.836 392.35H288.014C286.583 392.35 285.424 393.51 285.424 394.942C285.424 396.374 286.583 397.535 288.014 397.535H406.836C408.267 397.535 409.427 396.374 409.427 394.942C409.427 393.51 408.267 392.35 406.836 392.35Z" fill="#0A0627"/>
<path d="M443.709 382.936H419.401C417.97 382.936 416.811 384.096 416.811 385.528C416.811 386.96 417.97 388.121 419.401 388.121H443.709C445.139 388.121 446.299 386.96 446.299 385.528C446.299 384.096 445.139 382.936 443.709 382.936Z" fill="#3257FB"/>
<path d="M443.709 392.35H419.401C417.97 392.35 416.811 393.51 416.811 394.942C416.811 396.374 417.97 397.535 419.401 397.535H443.709C445.139 397.535 446.299 396.374 446.299 394.942C446.299 393.51 445.139 392.35 443.709 392.35Z" fill="#3257FB"/>
<path d="M465.72 249.613H266.003C264.134 249.613 262.619 251.13 262.619 253.001V267.344C262.619 269.215 264.134 270.731 266.003 270.731H465.72C467.589 270.731 469.104 269.215 469.104 267.344V253.001C469.104 251.13 467.589 249.613 465.72 249.613Z" fill="white"/>
<path d="M465.723 271.351H266.004C264.942 271.35 263.925 270.927 263.174 270.176C262.424 269.424 262.001 268.406 262 267.343V253C262.003 251.939 262.427 250.922 263.177 250.173C263.927 249.423 264.944 249.001 266.004 249H465.723C466.785 249.001 467.802 249.424 468.553 250.175C469.303 250.927 469.726 251.945 469.727 253.008V267.349C469.724 268.41 469.301 269.427 468.551 270.178C467.801 270.928 466.784 271.35 465.723 271.351ZM266.009 250.23C265.276 250.231 264.572 250.523 264.053 251.042C263.535 251.561 263.243 252.265 263.242 253V267.341C263.241 267.705 263.312 268.065 263.45 268.402C263.588 268.739 263.791 269.045 264.048 269.303C264.304 269.561 264.609 269.766 264.945 269.907C265.28 270.047 265.64 270.12 266.004 270.121H465.723C466.457 270.12 467.16 269.828 467.679 269.309C468.198 268.79 468.489 268.086 468.49 267.351V253C468.489 252.266 468.197 251.563 467.678 251.044C467.159 250.525 466.456 250.234 465.723 250.233H266.004L266.009 250.23Z" fill="#262424"/>
<path d="M277.925 264.671C280.408 264.671 282.422 262.655 282.422 260.169C282.422 257.683 280.408 255.668 277.925 255.668C275.441 255.668 273.428 257.683 273.428 260.169C273.428 262.655 275.441 264.671 277.925 264.671Z" fill="#3257FB"/>
<path d="M298.02 264.671C300.504 264.671 302.518 262.655 302.518 260.169C302.518 257.683 300.504 255.668 298.02 255.668C295.537 255.668 293.523 257.683 293.523 260.169C293.523 262.655 295.537 264.671 298.02 264.671Z" fill="#3257FB"/>
<path d="M318.116 264.671C320.6 264.671 322.613 262.655 322.613 260.169C322.613 257.683 320.6 255.668 318.116 255.668C315.633 255.668 313.619 257.683 313.619 260.169C313.619 262.655 315.633 264.671 318.116 264.671Z" fill="#0A0627"/>
<path d="M338.883 328.455L332.616 328.095C332.265 326.912 331.771 325.772 331.146 324.698L335.312 320.197C335.513 319.98 335.62 319.698 335.61 319.408C335.601 319.119 335.477 318.843 335.263 318.638L330.972 314.53C330.758 314.325 330.47 314.206 330.168 314.197C329.865 314.188 329.571 314.29 329.344 314.482L324.645 318.472C323.524 317.872 322.333 317.399 321.098 317.062L320.72 311.07C320.702 310.78 320.569 310.508 320.349 310.31C320.128 310.111 319.837 310 319.534 310H313.466C313.163 310 312.872 310.111 312.651 310.31C312.431 310.508 312.298 310.78 312.28 311.07L311.911 317.064C310.675 317.401 309.485 317.874 308.363 318.473L303.658 314.484C303.431 314.292 303.137 314.19 302.834 314.198C302.531 314.207 302.244 314.326 302.03 314.531L297.739 318.64C297.525 318.845 297.401 319.12 297.391 319.41C297.382 319.7 297.489 319.982 297.69 320.199L301.856 324.698C301.23 325.772 300.736 326.912 300.384 328.095L294.117 328.455C293.815 328.472 293.531 328.6 293.323 328.811C293.116 329.022 293 329.301 293 329.591V335.402C293 335.692 293.116 335.971 293.323 336.182C293.531 336.393 293.815 336.521 294.117 336.538L300.382 336.9C300.734 338.083 301.227 339.222 301.852 340.297L297.686 344.796C297.485 345.013 297.379 345.295 297.388 345.585C297.397 345.875 297.522 346.15 297.736 346.355L302.026 350.463C302.24 350.669 302.528 350.788 302.83 350.796C303.133 350.805 303.428 350.703 303.654 350.511L308.363 346.521C309.485 347.121 310.675 347.594 311.911 347.931L312.287 353.93C312.305 354.22 312.438 354.492 312.658 354.69C312.879 354.889 313.17 355 313.473 355H319.537C319.84 355 320.132 354.889 320.352 354.69C320.573 354.492 320.706 354.22 320.724 353.93L321.098 347.926C322.333 347.589 323.524 347.116 324.645 346.516L329.344 350.506C329.571 350.698 329.865 350.8 330.168 350.791C330.47 350.783 330.758 350.663 330.972 350.458L335.263 346.35C335.477 346.145 335.601 345.869 335.61 345.58C335.62 345.29 335.513 345.008 335.312 344.791L331.146 340.292C331.771 339.217 332.265 338.077 332.616 336.895L338.883 336.547C339.185 336.529 339.469 336.402 339.677 336.191C339.884 335.98 340 335.7 340 335.41V329.591C340 329.301 339.884 329.022 339.677 328.811C339.469 328.6 339.185 328.472 338.883 328.455ZM316.501 338.406C315.28 338.407 314.087 338.06 313.072 337.411C312.057 336.762 311.266 335.839 310.799 334.759C310.331 333.68 310.209 332.491 310.447 331.345C310.685 330.199 311.273 329.146 312.136 328.319C312.999 327.493 314.099 326.93 315.296 326.702C316.493 326.474 317.734 326.591 318.861 327.039C319.989 327.486 320.953 328.244 321.63 329.216C322.308 330.188 322.67 331.33 322.67 332.499C322.669 334.066 322.019 335.568 320.862 336.676C319.706 337.783 318.137 338.406 316.501 338.406Z" fill="white"/>
<rect x="374" y="306" width="68" height="51" rx="8" fill="#0A0627"/>
<path d="M384.211 304H432.789C435.763 304 438.614 305.18 440.717 307.28C442.819 309.381 444 312.23 444 315.2V348.8C444 351.77 442.819 354.619 440.717 356.72C438.614 358.82 435.763 360 432.789 360H384.211C381.237 360 378.386 358.82 376.283 356.72C374.181 354.619 373 351.77 373 348.8V315.2C373 312.23 374.181 309.381 376.283 307.28C378.386 305.18 381.237 304 384.211 304ZM384.211 307.733C382.387 307.733 380.713 308.387 379.416 309.473L408.5 328.341L437.584 309.473C436.241 308.347 434.543 307.731 432.789 307.733H384.211ZM408.5 332.791L377.238 312.512C376.906 313.369 376.736 314.281 376.737 315.2V348.8C376.737 350.78 377.524 352.679 378.926 354.08C380.327 355.48 382.228 356.267 384.211 356.267H432.789C434.772 356.267 436.673 355.48 438.074 354.08C439.476 352.679 440.263 350.78 440.263 348.8V315.2C440.263 314.252 440.088 313.345 439.762 312.512L408.5 332.788V332.791Z" fill="white"/>
</svg>
