<svg width="559" height="489" viewBox="0 0 559 489" fill="none" xmlns="http://www.w3.org/2000/svg">
<path d="M372.669 456.313C372.669 456.313 353.803 416.348 366.38 382.467C378.958 348.587 396.475 373.037 395.053 399.932C395.053 399.932 412.847 321.503 454.073 330.155C495.3 338.807 435.207 437.595 414.594 456.313H372.669Z" fill="#3257FB"/>
<path d="M388.914 456.985C388.769 456.985 388.627 456.94 388.509 456.855C388.39 456.77 388.301 456.651 388.254 456.514C379.82 431.952 377.93 393.324 377.909 392.944C377.9 392.759 377.965 392.578 378.09 392.441C378.214 392.305 378.388 392.223 378.573 392.214C378.758 392.205 378.938 392.27 379.075 392.395C379.212 392.519 379.294 392.693 379.303 392.877C379.32 393.262 381.204 431.697 389.571 456.067C389.606 456.171 389.615 456.282 389.599 456.391C389.582 456.5 389.54 456.603 389.476 456.693C389.412 456.782 389.328 456.856 389.23 456.906C389.133 456.957 389.024 456.984 388.914 456.985Z" fill="#0A0627"/>
<path d="M380.291 413.554C380.11 413.554 379.936 413.484 379.806 413.359C375.529 409.247 370.942 401.298 370.75 400.959C370.657 400.798 370.632 400.607 370.68 400.428C370.728 400.249 370.846 400.096 371.007 400.004C371.167 399.911 371.358 399.886 371.537 399.934C371.717 399.982 371.869 400.1 371.962 400.26C372.007 400.341 376.64 408.378 380.773 412.346C380.876 412.442 380.947 412.566 380.978 412.704C381.008 412.841 380.997 412.984 380.945 413.114C380.893 413.245 380.802 413.357 380.686 413.435C380.569 413.514 380.432 413.555 380.291 413.554Z" fill="#0A0627"/>
<path d="M382.269 428.337C382.147 428.335 382.028 428.302 381.923 428.24C381.817 428.178 381.73 428.09 381.67 427.984C381.609 427.878 381.578 427.758 381.578 427.636C381.578 427.514 381.611 427.394 381.672 427.289L389.837 413.803C389.936 413.651 390.09 413.544 390.266 413.504C390.443 413.464 390.629 413.493 390.784 413.587C390.939 413.681 391.051 413.831 391.097 414.006C391.144 414.182 391.12 414.368 391.032 414.526L382.867 428.012C382.803 428.112 382.715 428.195 382.61 428.252C382.506 428.309 382.388 428.338 382.269 428.337Z" fill="#0A0627"/>
<path d="M385.907 446.659C385.726 446.659 385.551 446.589 385.421 446.463C381.753 442.928 373.913 435.174 373.836 435.098C373.765 435.034 373.708 434.957 373.669 434.872C373.629 434.786 373.607 434.693 373.604 434.598C373.601 434.504 373.617 434.41 373.652 434.322C373.687 434.233 373.739 434.153 373.806 434.086C373.872 434.019 373.952 433.966 374.039 433.93C374.127 433.895 374.221 433.877 374.316 433.879C374.41 433.881 374.504 433.902 374.59 433.941C374.676 433.98 374.753 434.036 374.817 434.106C374.894 434.182 382.731 441.933 386.389 445.461C386.488 445.557 386.556 445.681 386.584 445.817C386.613 445.952 386.6 446.093 386.549 446.221C386.497 446.349 386.408 446.459 386.294 446.537C386.18 446.615 386.045 446.658 385.907 446.659Z" fill="#0A0627"/>
<path d="M398.636 457.013C398.527 457.013 398.419 456.987 398.321 456.938C398.223 456.888 398.139 456.817 398.074 456.729C398.009 456.641 397.966 456.539 397.947 456.431C397.929 456.323 397.936 456.213 397.969 456.108C398.178 455.409 419.28 387.054 447.213 347.602C447.266 347.527 447.333 347.464 447.411 347.415C447.489 347.366 447.575 347.332 447.666 347.317C447.756 347.301 447.849 347.304 447.938 347.324C448.028 347.344 448.113 347.382 448.188 347.435C448.263 347.488 448.327 347.555 448.376 347.633C448.425 347.71 448.458 347.797 448.473 347.887C448.489 347.978 448.487 348.07 448.466 348.16C448.446 348.25 448.408 348.334 448.355 348.409C420.556 387.679 399.516 455.818 399.307 456.517C399.263 456.661 399.174 456.786 399.053 456.876C398.933 456.965 398.786 457.013 398.636 457.013Z" fill="#0A0627"/>
<path d="M434.899 369.566C434.771 369.567 434.645 369.534 434.534 369.468C434.424 369.403 434.334 369.309 434.274 369.195C431.688 364.305 428.38 352.59 428.24 352.08C428.195 351.904 428.222 351.717 428.313 351.559C428.404 351.402 428.553 351.286 428.729 351.237C428.904 351.188 429.092 351.209 429.252 351.296C429.412 351.383 429.531 351.529 429.585 351.703C429.62 351.822 432.995 363.781 435.524 368.528C435.584 368.636 435.614 368.757 435.612 368.88C435.61 369.003 435.575 369.123 435.512 369.228C435.448 369.333 435.358 369.42 435.251 369.479C435.143 369.538 435.022 369.568 434.899 369.566Z" fill="#0A0627"/>
<path d="M428.916 381.007C428.749 381.008 428.587 380.949 428.459 380.84C428.332 380.731 428.248 380.58 428.223 380.415C428.198 380.249 428.232 380.08 428.321 379.939C428.41 379.797 428.547 379.691 428.706 379.642C428.818 379.607 440.113 376.013 446.654 373.431C446.739 373.397 446.831 373.38 446.923 373.381C447.015 373.382 447.106 373.401 447.191 373.438C447.275 373.474 447.352 373.527 447.416 373.593C447.48 373.659 447.531 373.737 447.565 373.823C447.598 373.908 447.615 374 447.613 374.092C447.612 374.184 447.592 374.275 447.555 374.359C447.518 374.444 447.465 374.52 447.398 374.584C447.332 374.648 447.253 374.698 447.167 374.731C440.582 377.329 429.244 380.938 429.129 380.973C429.06 380.995 428.988 381.007 428.916 381.007Z" fill="#0A0627"/>
<path d="M417.775 405.286C417.644 405.286 417.515 405.249 417.404 405.179C417.293 405.109 417.204 405.01 417.146 404.891C413.527 397.354 410.631 386.774 410.603 386.669C410.579 386.581 410.572 386.488 410.584 386.397C410.595 386.306 410.625 386.218 410.67 386.139C410.716 386.059 410.777 385.989 410.849 385.933C410.922 385.877 411.005 385.836 411.093 385.812C411.182 385.788 411.274 385.781 411.366 385.793C411.457 385.804 411.544 385.834 411.624 385.879C411.704 385.925 411.774 385.986 411.83 386.058C411.886 386.131 411.927 386.214 411.951 386.302C411.979 386.407 414.844 396.865 418.408 404.287C418.458 404.394 418.481 404.511 418.474 404.629C418.467 404.747 418.43 404.861 418.367 404.961C418.304 405.061 418.217 405.143 418.113 405.2C418.01 405.257 417.893 405.286 417.775 405.286Z" fill="#0A0627"/>
<path d="M408.007 429.859C407.844 429.86 407.687 429.803 407.561 429.7C407.435 429.596 407.35 429.452 407.319 429.292C407.288 429.132 407.315 428.967 407.393 428.824C407.471 428.682 407.597 428.571 407.749 428.511C407.885 428.455 421.577 423.003 428.652 420.069C428.737 420.034 428.827 420.016 428.919 420.016C429.011 420.016 429.102 420.034 429.187 420.069C429.272 420.104 429.349 420.156 429.414 420.221C429.479 420.286 429.53 420.363 429.565 420.448C429.6 420.533 429.618 420.623 429.618 420.715C429.618 420.807 429.6 420.898 429.565 420.983C429.53 421.068 429.478 421.145 429.413 421.21C429.348 421.274 429.271 421.326 429.186 421.361C422.101 424.299 408.402 429.744 408.266 429.81C408.183 429.843 408.096 429.859 408.007 429.859Z" fill="#0A0627"/>
<path d="M464.903 457.012H341.923C341.738 457.012 341.56 456.939 341.429 456.808C341.298 456.677 341.225 456.499 341.225 456.314C341.225 456.129 341.298 455.951 341.429 455.82C341.56 455.689 341.738 455.615 341.923 455.615H464.903C465.089 455.615 465.266 455.689 465.397 455.82C465.528 455.951 465.602 456.129 465.602 456.314C465.602 456.499 465.528 456.677 465.397 456.808C465.266 456.939 465.089 457.012 464.903 457.012Z" fill="#0A0627"/>
<path d="M246.89 381.759L244.172 410.767L231.199 411.284L232.978 379.594L246.89 381.759Z" fill="white"/>
<path d="M231.2 411.982C231.105 411.982 231.011 411.963 230.923 411.925C230.836 411.888 230.757 411.833 230.692 411.764C230.626 411.695 230.576 411.613 230.543 411.524C230.51 411.435 230.496 411.34 230.501 411.245L232.279 379.554C232.285 379.457 232.311 379.362 232.355 379.276C232.4 379.189 232.462 379.113 232.538 379.052C232.613 378.991 232.701 378.946 232.795 378.921C232.889 378.895 232.987 378.89 233.083 378.905L247.009 381.07C247.184 381.098 247.343 381.191 247.452 381.331C247.561 381.471 247.612 381.648 247.596 381.825L244.874 410.836C244.856 411.001 244.78 411.155 244.659 411.269C244.538 411.383 244.38 411.45 244.214 411.458L231.242 411.975H231.214L231.2 411.982ZM233.645 380.399L231.954 410.553L243.547 410.092L246.15 382.345L233.645 380.399Z" fill="#0A0627"/>
<path d="M271.073 330.155C267.003 355.709 258.887 395.74 258.887 395.74L229.888 393.645L234.43 321.692L177.482 252.533C177.482 252.533 164.905 232.973 170.495 209.222C176.085 185.47 200.192 182.676 215.215 208.523C215.215 208.523 253.719 273.319 268.005 299.449C270.982 304.902 272.896 308.67 273.211 309.816C273.718 311.737 272.729 319.743 271.073 330.155Z" fill="#3257FB"/>
<path d="M271.072 330.155C267.366 329.928 263.862 328.39 261.186 325.816C258.511 323.242 256.839 319.801 256.47 316.107C256.101 312.413 257.059 308.709 259.172 305.657C261.286 302.605 264.417 300.404 268.005 299.449C270.981 304.902 272.896 308.67 273.21 309.816C273.717 311.737 272.728 319.743 271.072 330.155Z" fill="white"/>
<path d="M240.409 386.822H240.336C240.244 386.813 240.156 386.785 240.075 386.741C239.994 386.698 239.923 386.638 239.865 386.567C239.808 386.495 239.765 386.413 239.739 386.325C239.713 386.237 239.704 386.145 239.714 386.054L246.52 321.195L188.635 244.569C188.576 244.496 188.533 244.412 188.507 244.322C188.482 244.232 188.474 244.138 188.486 244.045C188.497 243.952 188.527 243.862 188.574 243.781C188.621 243.7 188.683 243.629 188.758 243.573C188.833 243.516 188.918 243.476 189.009 243.453C189.1 243.43 189.194 243.426 189.286 243.44C189.379 243.454 189.468 243.487 189.547 243.536C189.627 243.586 189.696 243.65 189.75 243.727L247.798 320.57C247.904 320.711 247.953 320.887 247.935 321.062L241.104 386.197C241.086 386.369 241.005 386.528 240.877 386.643C240.748 386.758 240.582 386.822 240.409 386.822Z" fill="#0A0627"/>
<path d="M184.099 247.513C183.94 247.513 183.786 247.459 183.662 247.36C183.538 247.26 183.452 247.122 183.417 246.967C183.383 246.812 183.402 246.65 183.472 246.507C183.542 246.364 183.658 246.25 183.802 246.182C186.419 244.953 189.448 243.357 190.066 242.787C190.066 240.555 190.066 221.198 190.066 220.995C190.066 220.81 190.14 220.632 190.271 220.501C190.402 220.37 190.58 220.297 190.765 220.297C190.95 220.297 191.128 220.37 191.259 220.501C191.39 220.632 191.464 220.81 191.464 220.995C191.464 221.865 191.464 242.302 191.464 243C191.464 243.427 191.464 244.139 184.396 247.457C184.302 247.497 184.201 247.516 184.099 247.513Z" fill="#0A0627"/>
<path d="M256.909 388.173H256.85L232.628 386.192C232.536 386.185 232.447 386.159 232.365 386.117C232.283 386.075 232.21 386.017 232.151 385.947C232.091 385.877 232.046 385.796 232.018 385.708C231.99 385.62 231.979 385.528 231.987 385.436C231.994 385.345 232.02 385.255 232.062 385.173C232.104 385.091 232.162 385.019 232.232 384.959C232.302 384.9 232.384 384.855 232.471 384.826C232.559 384.798 232.651 384.788 232.743 384.795L256.965 386.776C257.151 386.783 257.325 386.864 257.451 387C257.577 387.136 257.644 387.317 257.636 387.502C257.629 387.688 257.548 387.862 257.412 387.988C257.275 388.114 257.095 388.18 256.909 388.173Z" fill="#0A0627"/>
<path d="M289.813 451.252V456.313H227.275C227.275 456.313 227.073 453.672 226.877 449.233C226.486 440.501 226.039 425.831 227.198 409.578L247.162 406.379C247.162 406.379 264.281 424.192 279.542 438.077C281.124 439.516 282.791 440.92 284.545 442.247C287.906 444.8 289.813 447.965 289.813 451.252Z" fill="#3257FB"/>
<path d="M260.284 438.22C260.19 438.221 260.098 438.202 260.011 438.165C259.925 438.129 259.846 438.075 259.781 438.007C246.236 423.97 240.143 412.317 240.084 412.202C240.004 412.038 239.992 411.85 240.049 411.677C240.107 411.505 240.229 411.361 240.391 411.278C240.552 411.194 240.74 411.176 240.915 411.229C241.089 411.282 241.236 411.4 241.324 411.56C241.383 411.675 247.396 423.159 260.787 437.036C260.883 437.135 260.947 437.26 260.972 437.395C260.997 437.529 260.982 437.669 260.928 437.795C260.875 437.921 260.785 438.029 260.67 438.105C260.556 438.18 260.422 438.221 260.284 438.22Z" fill="#0A0627"/>
<path d="M237.17 439.328C240.238 439.328 242.725 436.562 242.725 433.15C242.725 429.737 240.238 426.971 237.17 426.971C234.102 426.971 231.615 429.737 231.615 433.15C231.615 436.562 234.102 439.328 237.17 439.328Z" fill="white"/>
<path d="M237.17 440.03C233.722 440.03 230.916 436.946 230.916 433.149C230.916 429.352 233.711 426.271 237.17 426.271C240.629 426.271 243.424 429.356 243.424 433.149C243.424 436.942 240.615 440.03 237.17 440.03ZM237.17 427.669C234.494 427.669 232.314 430.114 232.314 433.149C232.314 436.184 234.49 438.633 237.17 438.633C239.85 438.633 242.026 436.188 242.026 433.149C242.026 430.11 239.846 427.669 237.17 427.669Z" fill="#0A0627"/>
<path d="M289.813 451.253V456.314H227.275C227.275 456.314 227.073 453.674 226.877 449.234H259.896C259.896 449.234 261.993 434.529 279.542 438.078C281.124 439.517 282.791 440.921 284.545 442.248C287.906 444.802 289.813 447.966 289.813 451.253Z" fill="white"/>
<path d="M289.814 457.012H227.275C227.099 457.012 226.929 456.946 226.799 456.826C226.669 456.706 226.59 456.541 226.577 456.365C226.577 456.337 226.371 453.662 226.178 449.261C226.174 449.167 226.189 449.072 226.222 448.984C226.256 448.896 226.306 448.815 226.372 448.746C226.437 448.678 226.515 448.624 226.602 448.587C226.689 448.55 226.783 448.531 226.877 448.531H259.32C259.67 446.917 261.018 442.436 265.2 439.484C268.876 436.893 273.749 436.187 279.682 437.389C279.806 437.414 279.92 437.472 280.014 437.556C281.645 439.041 283.312 440.431 284.971 441.688C288.552 444.406 290.523 447.801 290.523 451.252V456.313C290.523 456.406 290.504 456.497 290.469 456.583C290.433 456.668 290.381 456.746 290.315 456.811C290.249 456.876 290.17 456.927 290.084 456.961C289.998 456.996 289.906 457.013 289.814 457.012ZM227.915 455.614H289.115V451.252C289.115 448.248 287.34 445.248 284.115 442.803C282.473 441.559 280.824 440.187 279.224 438.723C273.777 437.654 269.34 438.293 266.028 440.62C261.448 443.837 260.606 449.278 260.595 449.334C260.571 449.501 260.487 449.654 260.358 449.764C260.23 449.874 260.066 449.933 259.897 449.932H227.6C227.726 452.673 227.852 454.657 227.918 455.614H227.915Z" fill="#0A0627"/>
<path d="M136.602 385.332L128.919 413.44L115.416 411.459L122.634 380.551L136.602 385.332Z" fill="white"/>
<path d="M128.919 414.138H128.818L115.315 412.157C115.219 412.143 115.127 412.11 115.045 412.058C114.964 412.007 114.893 411.94 114.839 411.86C114.784 411.78 114.747 411.69 114.729 411.595C114.711 411.5 114.713 411.402 114.735 411.308L121.953 380.397C121.975 380.301 122.017 380.212 122.076 380.133C122.135 380.055 122.209 379.99 122.295 379.943C122.381 379.896 122.475 379.867 122.573 379.858C122.67 379.85 122.769 379.862 122.861 379.894L136.836 384.675C137.004 384.733 137.144 384.852 137.227 385.009C137.31 385.167 137.33 385.349 137.283 385.521L129.597 413.628C129.556 413.775 129.467 413.905 129.345 413.997C129.222 414.089 129.073 414.139 128.919 414.138ZM116.269 410.879L128.409 412.657L135.746 385.762L123.13 381.441L116.269 410.879Z" fill="#0A0627"/>
<path d="M175.517 451.252V456.313H112.978C112.978 456.313 112.776 453.672 112.58 449.233C112.189 440.501 111.742 425.831 112.902 409.578L132.865 406.379C132.865 406.379 149.984 424.192 165.245 438.077C166.828 439.516 168.494 440.92 170.248 442.247C173.609 444.8 175.517 447.965 175.517 451.252Z" fill="#3257FB"/>
<path d="M145.976 438.22C145.882 438.221 145.789 438.202 145.703 438.165C145.616 438.129 145.538 438.075 145.473 438.007C131.927 423.97 125.834 412.317 125.775 412.202C125.696 412.038 125.683 411.85 125.741 411.677C125.798 411.505 125.921 411.361 126.082 411.278C126.244 411.194 126.432 411.176 126.606 411.229C126.78 411.282 126.927 411.4 127.015 411.56C127.075 411.675 133.087 423.159 146.479 437.036C146.574 437.135 146.638 437.26 146.664 437.395C146.689 437.529 146.673 437.669 146.62 437.795C146.566 437.921 146.476 438.029 146.362 438.105C146.247 438.18 146.113 438.221 145.976 438.22Z" fill="#0A0627"/>
<path d="M122.871 439.328C125.939 439.328 128.427 436.562 128.427 433.15C128.427 429.737 125.939 426.971 122.871 426.971C119.803 426.971 117.316 429.737 117.316 433.15C117.316 436.562 119.803 439.328 122.871 439.328Z" fill="white"/>
<path d="M122.873 440.03C119.425 440.03 116.619 436.946 116.619 433.149C116.619 429.352 119.414 426.271 122.873 426.271C126.332 426.271 129.127 429.356 129.127 433.149C129.127 436.942 126.318 440.03 122.873 440.03ZM122.873 427.669C120.197 427.669 118.017 430.114 118.017 433.149C118.017 436.184 120.193 438.633 122.873 438.633C125.553 438.633 127.729 436.188 127.729 433.149C127.729 430.11 125.549 427.669 122.873 427.669Z" fill="#0A0627"/>
<path d="M175.516 451.253V456.314H112.978C112.978 456.314 112.776 453.674 112.58 449.234H145.599C145.599 449.234 147.696 434.529 165.245 438.078C166.828 439.517 168.494 440.921 170.248 442.248C173.609 444.802 175.516 447.966 175.516 451.253Z" fill="white"/>
<path d="M175.515 457.012H112.977C112.8 457.012 112.63 456.946 112.5 456.826C112.371 456.706 112.291 456.541 112.278 456.365C112.278 456.337 112.072 453.662 111.88 449.261C111.875 449.167 111.89 449.072 111.923 448.984C111.957 448.896 112.007 448.815 112.073 448.747C112.138 448.678 112.217 448.624 112.303 448.587C112.39 448.55 112.484 448.531 112.578 448.531H145.021C145.371 446.917 146.719 442.436 150.901 439.484C154.577 436.893 159.451 436.187 165.383 437.389C165.507 437.414 165.621 437.472 165.715 437.556C167.346 439.041 169.013 440.431 170.669 441.688C174.25 444.406 176.221 447.801 176.221 451.252V456.313C176.221 456.405 176.202 456.497 176.167 456.582C176.131 456.667 176.079 456.745 176.013 456.81C175.948 456.874 175.87 456.926 175.784 456.96C175.699 456.995 175.607 457.013 175.515 457.012ZM113.616 455.615H174.816V451.252C174.816 448.248 173.041 445.248 169.816 442.803C168.174 441.559 166.525 440.187 164.925 438.723C159.471 437.654 155.027 438.293 151.715 440.63C147.132 443.861 146.307 449.278 146.297 449.331C146.273 449.499 146.189 449.652 146.06 449.763C145.932 449.873 145.767 449.933 145.598 449.932H113.302C113.427 452.674 113.546 454.657 113.619 455.615H113.616Z" fill="#0A0627"/>
<path d="M184.101 210.444V249.389C184.101 249.389 175.09 321.908 173.693 328.429C172.295 334.95 141.033 402.261 141.033 402.261L112.15 391.782L136.142 324.953C136.142 324.953 128.92 248.341 129.154 228.781C129.389 209.221 131.251 182.441 149.883 182.675C168.515 182.909 181.054 190.475 184.101 210.444Z" fill="#3257FB"/>
<path d="M184.099 250.087C183.914 250.087 183.736 250.014 183.605 249.883C183.474 249.752 183.4 249.574 183.4 249.389V216.441C183.4 216.255 183.474 216.078 183.605 215.947C183.736 215.816 183.914 215.742 184.099 215.742C184.284 215.742 184.462 215.816 184.593 215.947C184.724 216.078 184.798 216.255 184.798 216.441V249.389C184.798 249.574 184.724 249.752 184.593 249.883C184.462 250.014 184.284 250.087 184.099 250.087Z" fill="#0A0627"/>
<path d="M170.468 328.916C172.588 320.847 169.542 313.054 163.663 311.51C157.784 309.966 151.3 315.255 149.179 323.325C147.059 331.394 150.105 339.187 155.984 340.731C161.863 342.275 168.347 336.985 170.468 328.916Z" fill="white"/>
<path d="M123.021 387.687C122.909 387.687 122.798 387.66 122.699 387.608C122.599 387.556 122.513 387.481 122.449 387.39C122.385 387.298 122.343 387.192 122.328 387.081C122.314 386.969 122.326 386.856 122.364 386.751L144.989 324.386L138.47 216.715C138.468 216.685 138.468 216.655 138.47 216.624C138.498 216.202 139.214 206.17 142.38 199.604C142.418 199.518 142.473 199.442 142.541 199.378C142.61 199.315 142.69 199.265 142.778 199.234C142.866 199.202 142.959 199.188 143.052 199.192C143.146 199.197 143.237 199.22 143.321 199.261C143.405 199.302 143.48 199.359 143.542 199.429C143.603 199.499 143.65 199.581 143.68 199.669C143.709 199.758 143.721 199.852 143.714 199.945C143.706 200.038 143.68 200.128 143.637 200.211C140.689 206.324 139.92 215.95 139.864 216.677L146.387 324.445C146.392 324.54 146.378 324.635 146.345 324.725L123.678 387.226C123.629 387.361 123.539 387.478 123.422 387.56C123.304 387.643 123.164 387.687 123.021 387.687Z" fill="#0A0627"/>
<path d="M139.484 222.606C139.319 222.606 139.158 222.548 139.032 222.442C138.905 222.335 138.821 222.187 138.793 222.024C138.765 221.861 138.796 221.694 138.881 221.551C138.965 221.409 139.097 221.301 139.253 221.247L142.747 220.039C143.819 219.663 144.778 219.02 145.532 218.171C146.287 217.322 146.814 216.295 147.062 215.187L149.183 205.463C149.202 205.373 149.24 205.288 149.292 205.213C149.345 205.138 149.412 205.074 149.489 205.024C149.566 204.975 149.653 204.941 149.743 204.925C149.834 204.909 149.926 204.911 150.016 204.93C150.106 204.95 150.191 204.987 150.266 205.04C150.341 205.092 150.405 205.159 150.455 205.237C150.504 205.314 150.538 205.4 150.554 205.491C150.57 205.581 150.568 205.674 150.549 205.763L148.407 215.488C148.106 216.829 147.469 218.072 146.555 219.099C145.642 220.126 144.481 220.904 143.184 221.359L139.69 222.568C139.624 222.591 139.554 222.604 139.484 222.606Z" fill="#0A0627"/>
<path d="M140.913 393.993C140.833 393.993 140.754 393.979 140.679 393.952L118.553 386.152C118.464 386.124 118.381 386.078 118.31 386.017C118.238 385.956 118.18 385.882 118.138 385.798C118.096 385.714 118.072 385.623 118.066 385.529C118.06 385.435 118.073 385.342 118.104 385.253C118.135 385.165 118.184 385.084 118.247 385.015C118.311 384.945 118.387 384.89 118.472 384.851C118.558 384.812 118.65 384.79 118.743 384.787C118.837 384.785 118.93 384.801 119.018 384.835L141.147 392.635C141.304 392.689 141.436 392.797 141.52 392.94C141.605 393.082 141.635 393.25 141.607 393.413C141.579 393.577 141.494 393.725 141.367 393.831C141.24 393.937 141.079 393.995 140.913 393.993Z" fill="#0A0627"/>
<path d="M273.91 128.625L276.782 113.997C277.014 112.812 277.495 111.69 278.193 110.704C278.891 109.718 279.79 108.892 280.831 108.279L301.612 96.0545C302.06 95.7914 302.591 95.7065 303.099 95.8165C303.607 95.9265 304.055 96.2234 304.355 96.6483C304.655 97.0772 304.781 97.6039 304.709 98.1223C304.636 98.6407 304.37 99.1124 303.963 99.4425L293.241 108.122L296.123 112.635C297.114 114.186 297.658 115.98 297.694 117.819C297.73 119.659 297.258 121.473 296.33 123.061L294.174 126.764L283.693 134.099L273.91 128.625Z" fill="white"/>
<path d="M283.693 134.797C283.571 134.799 283.45 134.768 283.344 134.709L273.561 129.236C273.432 129.165 273.328 129.055 273.265 128.921C273.203 128.787 273.184 128.637 273.212 128.492L276.094 113.867C276.346 112.586 276.866 111.372 277.622 110.307C278.377 109.241 279.349 108.347 280.475 107.685L301.256 95.4601C301.859 95.1094 302.571 94.9987 303.252 95.1502C303.933 95.3016 304.531 95.7041 304.928 96.2772C305.325 96.8504 305.491 97.552 305.393 98.2422C305.296 98.9324 304.941 99.5604 304.401 100.001L294.174 108.279L296.721 112.268C297.785 113.925 298.369 115.844 298.408 117.813C298.447 119.782 297.939 121.723 296.941 123.42L294.786 127.109C294.735 127.196 294.666 127.271 294.583 127.329L284.102 134.664C283.983 134.75 283.84 134.796 283.693 134.797ZM274.693 128.265L283.651 133.277L293.647 126.292L295.743 122.732C296.61 121.256 297.052 119.569 297.018 117.857C296.984 116.146 296.476 114.477 295.551 113.036L292.669 108.523C292.576 108.379 292.541 108.205 292.568 108.035C292.596 107.866 292.685 107.713 292.819 107.605L303.541 98.925C303.807 98.7063 303.982 98.3954 304.029 98.0541C304.077 97.7128 303.995 97.3661 303.798 97.0828C303.602 96.7995 303.306 96.6004 302.97 96.5249C302.634 96.4495 302.281 96.5033 301.983 96.6756L281.202 108.901C280.248 109.462 279.423 110.219 278.782 111.122C278.142 112.025 277.699 113.054 277.485 114.14L274.693 128.265Z" fill="#0A0627"/>
<path d="M290.55 109.275L286.232 114.217C285.594 114.95 285.265 115.902 285.316 116.872C285.366 117.842 285.791 118.755 286.501 119.418L293.325 125.775C294.039 126.445 294.988 126.808 295.968 126.787C296.947 126.766 297.879 126.363 298.565 125.663L302.82 121.346C303.508 120.649 303.896 119.711 303.901 118.731C303.905 117.752 303.526 116.81 302.845 116.107L296.085 109.121C295.723 108.747 295.287 108.451 294.805 108.255C294.322 108.058 293.804 107.964 293.284 107.978C292.763 107.992 292.251 108.115 291.78 108.339C291.31 108.562 290.891 108.881 290.55 109.275Z" fill="white"/>
<path d="M295.882 127.489C294.755 127.488 293.671 127.059 292.85 126.287L286.026 119.93C285.178 119.147 284.67 118.063 284.61 116.91C284.549 115.757 284.943 114.626 285.705 113.759L290.023 108.806C290.428 108.342 290.925 107.967 291.482 107.706C292.039 107.444 292.645 107.3 293.26 107.285C293.875 107.269 294.487 107.381 295.057 107.614C295.627 107.847 296.142 108.196 296.57 108.638L303.331 115.624C304.144 116.454 304.598 117.572 304.592 118.735C304.587 119.897 304.124 121.011 303.303 121.834L299.048 126.162C298.635 126.582 298.142 126.916 297.599 127.144C297.055 127.372 296.472 127.489 295.882 127.489ZM293.381 108.68H293.297C292.874 108.689 292.458 108.788 292.076 108.968C291.694 109.149 291.354 109.407 291.078 109.728L286.76 114.681C286.237 115.276 285.967 116.051 286.008 116.842C286.05 117.633 286.398 118.377 286.98 118.914L293.803 125.271C294.382 125.815 295.152 126.111 295.946 126.094C296.741 126.077 297.497 125.749 298.052 125.18L302.307 120.853C302.87 120.288 303.189 119.525 303.193 118.728C303.196 117.931 302.886 117.164 302.328 116.595L295.568 109.609C295.284 109.315 294.944 109.082 294.567 108.923C294.191 108.765 293.786 108.684 293.377 108.687L293.381 108.68Z" fill="#0A0627"/>
<path d="M274.172 127.316L276.163 110.76C276.223 110.265 276.403 109.791 276.687 109.382C276.971 108.972 277.352 108.638 277.795 108.409L282.127 106.184C282.667 105.904 283.279 105.792 283.883 105.862C284.487 105.932 285.057 106.18 285.52 106.575L291.05 111.308C291.293 111.516 291.487 111.774 291.618 112.066C291.75 112.357 291.815 112.673 291.811 112.993C291.806 113.312 291.731 113.626 291.591 113.914C291.451 114.201 291.25 114.454 291.001 114.654C290.672 114.919 290.274 115.082 289.854 115.124C289.434 115.166 289.011 115.086 288.636 114.892L284.831 112.922L286.106 122.335C286.184 122.905 286.032 123.483 285.684 123.942L279.591 131.958L274.172 127.316Z" fill="white"/>
<path d="M279.588 132.641C279.422 132.641 279.261 132.582 279.134 132.473L273.719 127.838C273.631 127.764 273.563 127.669 273.521 127.561C273.479 127.454 273.464 127.338 273.478 127.224L275.469 110.667C275.542 110.06 275.763 109.479 276.111 108.976C276.46 108.473 276.927 108.064 277.471 107.782L281.807 105.54C282.47 105.195 283.222 105.056 283.965 105.142C284.708 105.228 285.408 105.534 285.975 106.022L291.505 110.755C292.04 111.214 292.387 111.853 292.481 112.551C292.575 113.248 292.41 113.957 292.017 114.541C291.623 115.125 291.029 115.544 290.347 115.72C289.665 115.895 288.942 115.813 288.316 115.491L285.702 114.139L286.799 122.218C286.851 122.592 286.828 122.972 286.732 123.336C286.636 123.701 286.469 124.042 286.24 124.342L280.144 132.379C280.086 132.455 280.014 132.518 279.931 132.565C279.848 132.612 279.756 132.641 279.662 132.652H279.588V132.641ZM274.91 127.028L279.48 130.933L285.126 123.507C285.243 123.353 285.329 123.178 285.378 122.991C285.427 122.804 285.439 122.609 285.412 122.417L284.137 113.004C284.123 112.879 284.143 112.752 284.196 112.637C284.248 112.522 284.331 112.424 284.435 112.352C284.539 112.281 284.66 112.238 284.786 112.23C284.912 112.222 285.038 112.248 285.15 112.306L288.955 114.276C289.279 114.453 289.657 114.502 290.015 114.415C290.374 114.327 290.686 114.108 290.892 113.802C291.097 113.495 291.181 113.123 291.125 112.758C291.07 112.394 290.88 112.063 290.593 111.831L285.063 107.091C284.707 106.784 284.268 106.592 283.801 106.537C283.335 106.483 282.863 106.57 282.446 106.787L278.103 109.029C277.761 109.206 277.468 109.463 277.249 109.779C277.03 110.095 276.891 110.46 276.846 110.842L274.91 127.028Z" fill="#0A0627"/>
<path d="M289.167 133.775C289.167 133.775 279.849 162.263 269.406 178.135C264.801 185.12 259.973 189.682 255.627 188.264C252.133 187.125 248.101 184.188 243.846 180.143C230.709 167.656 215.609 144.635 209.257 131.445C200.872 113.981 221.835 89.7652 233.948 101.641C243.587 111.096 259.103 146.584 259.103 146.584L272.379 124.694L289.167 133.775Z" fill="#0A0627"/>
<path d="M284.041 137.503C283.929 137.503 283.819 137.475 283.72 137.423L272.306 131.485C272.141 131.399 272.018 131.252 271.962 131.075C271.906 130.898 271.923 130.706 272.009 130.542C272.095 130.378 272.242 130.254 272.419 130.198C272.596 130.143 272.788 130.159 272.952 130.245L284.366 136.183C284.506 136.255 284.618 136.372 284.683 136.515C284.749 136.658 284.764 136.819 284.726 136.972C284.689 137.124 284.601 137.26 284.476 137.357C284.352 137.453 284.199 137.505 284.041 137.503Z" fill="#0A0627"/>
<path d="M258.537 168.88H258.513C258.328 168.874 258.153 168.794 258.027 168.66C257.9 168.525 257.833 168.345 257.838 168.161L258.422 150.057C258.428 149.872 258.507 149.697 258.642 149.57C258.778 149.443 258.958 149.375 259.143 149.381C259.328 149.387 259.504 149.467 259.631 149.602C259.757 149.737 259.825 149.917 259.819 150.103L259.236 168.203C259.23 168.384 259.154 168.556 259.024 168.683C258.893 168.809 258.719 168.88 258.537 168.88Z" fill="#0A0627"/>
<path d="M269.406 178.136C264.801 185.122 259.973 189.683 255.627 188.265C252.133 187.126 248.101 184.189 243.846 180.144C245.108 177.959 246.882 176.114 249.017 174.768C251.151 173.421 253.581 172.615 256.097 172.417C258.613 172.219 261.14 172.637 263.458 173.633C265.777 174.629 267.818 176.175 269.406 178.136Z" fill="white"/>
<path d="M232.334 130.285C226.978 145.653 213.933 178.486 223.016 212.251C223.016 212.251 209.74 221.099 186.451 221.099C172.776 221.099 157.205 219.534 145.043 216.027C144.292 209.468 142.58 198.745 139.484 198.745C136.462 198.745 136.151 207.323 136.263 212.856C131.854 210.851 128.385 208.448 126.299 205.615C126.299 205.615 126.065 138.203 154.948 91.7479C154.948 91.7479 186.217 83.7143 207.878 85.5934C207.878 85.5934 221.388 90.2494 233.966 101.661C233.966 101.643 237.69 114.916 232.334 130.285Z" fill="#0A0627"/>
<path d="M225.405 151.94C225.297 151.94 225.191 151.915 225.094 151.867C224.997 151.819 224.913 151.75 224.847 151.664C224.782 151.578 224.738 151.478 224.717 151.372C224.697 151.266 224.702 151.157 224.731 151.053C226.708 144.046 228.861 137.982 230.587 133.113C230.974 132.024 231.338 130.997 231.67 130.036C234.423 122 235.198 113.419 233.93 105.02C233.916 104.928 233.92 104.835 233.942 104.745C233.965 104.655 234.004 104.57 234.059 104.495C234.114 104.42 234.184 104.357 234.263 104.309C234.342 104.261 234.43 104.229 234.522 104.215C234.614 104.201 234.708 104.205 234.798 104.228C234.888 104.25 234.973 104.289 235.048 104.344C235.122 104.399 235.186 104.469 235.234 104.548C235.282 104.627 235.314 104.715 235.328 104.807C236.629 113.433 235.832 122.245 233.004 130.497C232.669 131.459 232.307 132.487 231.918 133.581C230.199 138.433 228.075 144.469 226.09 151.433C226.048 151.581 225.958 151.711 225.834 151.803C225.71 151.895 225.559 151.943 225.405 151.94Z" fill="#0A0627"/>
<path d="M183.072 214.286C179.191 214.286 175.533 214.136 172.242 213.912C164.076 213.381 155.959 212.274 147.95 210.601C147.86 210.58 147.776 210.543 147.701 210.49C147.626 210.436 147.562 210.369 147.513 210.291C147.465 210.214 147.432 210.127 147.416 210.037C147.401 209.946 147.403 209.854 147.424 209.764C147.444 209.675 147.482 209.59 147.535 209.516C147.588 209.441 147.656 209.377 147.733 209.328C147.811 209.279 147.897 209.246 147.988 209.231C148.078 209.216 148.171 209.218 148.261 209.239C148.669 209.333 189.511 218.488 217.94 207.349C218.026 207.311 218.119 207.29 218.213 207.289C218.308 207.288 218.401 207.306 218.489 207.341C218.576 207.377 218.655 207.43 218.721 207.498C218.787 207.565 218.839 207.645 218.873 207.732C218.908 207.82 218.924 207.914 218.922 208.008C218.919 208.102 218.897 208.195 218.857 208.281C218.818 208.366 218.761 208.443 218.691 208.506C218.621 208.569 218.539 208.618 218.45 208.648C207.273 213.035 194.252 214.286 183.072 214.286Z" fill="#0A0627"/>
<path d="M186.531 88.1774C186.695 96.3437 194.078 103.476 199.109 105.827C202.026 101.237 208.007 94.999 208.007 94.999C209.227 99.9309 208.643 105.558 208.07 107.999C214.866 104.929 216.717 100.14 216.717 100.14C219.128 91.059 214.349 81.562 207.892 79.1833C193.624 73.951 186.531 88.1774 186.531 88.1774Z" fill="white"/>
<path d="M208.077 108.687C207.971 108.687 207.867 108.663 207.772 108.617C207.677 108.572 207.594 108.505 207.528 108.422C207.462 108.34 207.416 108.243 207.394 108.14C207.371 108.037 207.371 107.93 207.396 107.828C208.159 104.077 208.231 100.218 207.609 96.4409C205.83 98.3689 201.879 102.784 199.706 106.2C199.615 106.343 199.475 106.448 199.312 106.495C199.15 106.543 198.976 106.53 198.822 106.458C193.532 103.992 186.003 96.6784 185.832 88.1907C185.83 88.0781 185.855 87.9667 185.906 87.8659C185.979 87.7192 193.445 73.1435 208.129 78.5365C214.614 80.9186 220.008 90.4506 217.388 100.321C217.381 100.346 217.373 100.371 217.363 100.395C217.286 100.594 215.333 105.484 208.367 108.627C208.276 108.668 208.177 108.688 208.077 108.687ZM208.014 94.2893C208.17 94.2894 208.322 94.3417 208.444 94.4379C208.567 94.5342 208.654 94.6687 208.692 94.8202C209.775 99.2002 209.471 103.951 209.041 106.748C214.24 103.992 215.91 100.29 216.064 99.9197C218.397 91.0514 213.562 82.0119 207.679 79.8463C202.026 77.7715 196.872 78.5714 192.365 82.2319C190.303 83.9374 188.573 86.0084 187.261 88.3409C187.513 95.7982 194.137 102.452 198.899 104.925C201.91 100.402 207.301 94.7503 207.539 94.5023C207.664 94.3706 207.836 94.293 208.017 94.2858L208.014 94.2893Z" fill="#0A0627"/>
<path d="M206.717 58.4531L203.43 67.1853L197.805 82.1417C201.372 87.6709 206.064 89.9901 212.161 88.3694L214.257 81.2161L217.454 70.3882L206.717 58.4531Z" fill="white"/>
<path d="M208.539 89.5773C204.053 89.5773 200.259 87.2196 197.223 82.5357C197.164 82.4439 197.127 82.3396 197.115 82.231C197.104 82.1224 197.118 82.0126 197.156 81.9105L206.065 58.208C206.108 58.0957 206.178 57.9962 206.27 57.9191C206.362 57.842 206.473 57.7899 206.59 57.7678C206.708 57.7457 206.83 57.7543 206.944 57.7929C207.057 57.8314 207.159 57.8986 207.239 57.9879L217.99 69.93C218.069 70.0186 218.125 70.1261 218.151 70.2423C218.177 70.3584 218.173 70.4794 218.14 70.5936L212.833 88.5783C212.799 88.6938 212.736 88.7985 212.649 88.8823C212.563 88.9661 212.457 89.0263 212.34 89.0569C211.101 89.3936 209.823 89.5685 208.539 89.5773ZM198.589 82.0816C202.02 87.2056 206.275 89.0848 211.606 87.8134L216.69 70.5866L206.97 59.7902L198.589 82.0816Z" fill="#0A0627"/>
<path d="M111.245 239.897C110.593 238.355 109.886 236.792 109.124 235.206C106.304 229.39 103.049 223.795 99.3874 218.468C95.751 213.124 91.7171 208.061 87.32 203.323C86.1205 202.038 84.9186 200.812 83.7144 199.645L68.1743 176.941L53.7835 186.777C51.827 188.115 50.5727 190.302 49.9718 193.155C47.8057 203.41 54.1294 222.244 66.7942 240.763C79.4591 259.282 94.7198 272.006 105.068 273.708C107.947 274.183 110.442 273.805 112.405 272.468L126.796 262.632L111.245 239.897Z" fill="white"/>
<path d="M107.35 274.587C106.546 274.584 105.743 274.515 104.95 274.381C94.1684 272.606 78.6002 259.25 66.2149 241.143C53.8295 223.036 47.0272 203.685 49.2842 192.994C49.9375 189.889 51.3175 187.597 53.3858 186.183L67.7801 176.347C67.933 176.242 68.1212 176.202 68.3033 176.237C68.4855 176.271 68.6466 176.376 68.7513 176.528L84.2531 199.19C85.4549 200.36 86.6568 201.59 87.8307 202.844C92.2526 207.606 96.3088 212.696 99.9645 218.069C103.644 223.425 106.914 229.05 109.747 234.898C110.491 236.445 111.2 238.01 111.843 239.557L127.345 262.219C127.45 262.372 127.489 262.56 127.455 262.742C127.421 262.924 127.316 263.085 127.163 263.19L112.773 273.026C111.167 274.087 109.275 274.632 107.35 274.587ZM67.9897 177.894L54.1754 187.325C52.4285 188.53 51.2302 190.528 50.6502 193.263C48.4631 203.602 55.1921 222.519 67.3678 240.332C79.5435 258.146 94.7483 271.286 105.163 273.001C107.927 273.459 110.222 273.078 111.983 271.876L125.797 262.446L110.652 240.301C110.626 240.263 110.603 240.222 110.585 240.179C109.932 238.635 109.223 237.067 108.489 235.519C105.684 229.735 102.447 224.17 98.8046 218.872C95.1888 213.557 91.1771 208.523 86.8035 203.811C85.6296 202.554 84.4243 201.324 83.2224 200.158C83.1886 200.125 83.1581 200.088 83.1316 200.049L67.9897 177.894Z" fill="#0A0627"/>
<path d="M126.784 262.618C124.828 263.955 122.333 264.333 119.448 263.858C109.103 262.157 93.8418 249.432 81.1735 230.913C68.5052 212.394 62.1885 193.56 64.3581 183.302C64.959 180.448 66.2168 178.258 68.1698 176.924C70.1228 175.59 72.6208 175.209 75.5066 175.684C75.6708 175.712 75.8351 175.74 76.0062 175.775C83.144 177.172 92.5002 183.616 101.713 193.487C106.11 198.225 110.144 203.288 113.781 208.632C117.442 213.959 120.697 219.554 123.518 225.37C129.373 237.532 131.994 248.59 130.701 255.758C130.673 255.929 130.638 256.107 130.603 256.254C129.995 259.093 128.737 261.266 126.784 262.618Z" fill="white"/>
<path d="M121.74 264.759C120.937 264.755 120.135 264.686 119.343 264.553C108.561 262.778 92.9932 249.421 80.6079 231.311C68.2225 213.201 61.4132 193.854 63.6737 183.158C64.327 180.053 65.7071 177.762 67.7754 176.347C69.8437 174.933 72.4814 174.479 75.6118 174.996C75.7865 175.024 75.9612 175.055 76.1394 175.09C83.3959 176.487 92.9094 183.036 102.213 193.008C106.635 197.771 110.691 202.861 114.347 208.234C118.027 213.589 121.297 219.215 124.13 225.062C130.048 237.354 132.689 248.58 131.372 255.862C131.344 256.03 131.309 256.212 131.274 256.369C130.617 259.484 129.237 261.779 127.169 263.19C125.562 264.256 123.667 264.803 121.74 264.759ZM73.2221 176.187C71.5719 176.138 69.9464 176.596 68.5649 177.5C66.8181 178.705 65.6197 180.703 65.0397 183.438C62.8562 193.787 69.5746 212.715 81.7538 230.529C93.9331 248.342 109.134 261.465 119.563 263.18C122.327 263.637 124.622 263.257 126.383 262.055C128.13 260.85 129.328 258.852 129.908 256.117C129.943 255.957 129.975 255.806 129.999 255.649C131.267 248.639 128.668 237.724 122.875 225.691C120.074 219.899 116.839 214.328 113.198 209.023C109.582 203.708 105.57 198.673 101.197 193.962C92.0814 184.182 82.8509 177.821 75.8669 176.459C75.6957 176.424 75.542 176.4 75.3882 176.372C74.6725 176.251 73.948 176.189 73.2221 176.187Z" fill="#0A0627"/>
<path d="M125.101 226.138C124.545 224.82 123.94 223.482 123.288 222.125C120.877 217.149 118.093 212.362 114.962 207.804C111.853 203.235 108.405 198.907 104.645 194.856C103.618 193.757 102.591 192.709 101.564 191.712L88.2876 172.285L75.9862 180.696C74.3162 181.838 73.2401 183.71 72.7265 186.148C70.8713 194.919 76.2796 211.021 87.1103 226.854C97.9409 242.687 110.976 253.581 119.836 255.034C122.282 255.44 124.43 255.118 126.104 253.987L138.391 245.548L125.101 226.138Z" fill="white"/>
<path d="M121.775 255.903C121.082 255.9 120.391 255.841 119.707 255.725C110.463 254.206 97.1235 242.767 86.5165 227.262C75.9095 211.757 70.0959 195.183 72.0244 186.018C72.5904 183.336 73.7713 181.355 75.5741 180.133L87.8756 171.722C88.0285 171.617 88.2167 171.577 88.3988 171.612C88.581 171.646 88.7421 171.751 88.8468 171.903L102.095 191.271C103.122 192.27 104.149 193.322 105.149 194.394C108.933 198.471 112.404 202.827 115.532 207.426C118.685 212.008 121.488 216.822 123.917 221.827C124.553 223.147 125.161 224.485 125.716 225.805L138.965 245.173C139.069 245.326 139.109 245.514 139.075 245.696C139.041 245.878 138.936 246.039 138.783 246.144L126.475 254.551C125.083 255.472 123.443 255.944 121.775 255.903ZM88.0922 173.266L76.3671 181.299C74.8823 182.312 73.8831 184.003 73.3975 186.322C71.5353 195.138 77.272 211.278 87.6764 226.49C98.0808 241.701 111.046 252.899 119.938 254.363C122.275 254.75 124.214 254.429 125.695 253.416L137.42 245.383L124.528 226.521C124.502 226.483 124.48 226.442 124.462 226.399C123.903 225.082 123.299 223.741 122.663 222.417C120.265 217.48 117.498 212.73 114.386 208.208C111.297 203.668 107.869 199.368 104.132 195.344C103.129 194.272 102.102 193.22 101.075 192.221C101.036 192.187 101.001 192.148 100.97 192.106L88.0922 173.266Z" fill="#0A0627"/>
<path d="M138.391 245.548C136.721 246.69 134.587 247.015 132.123 246.596C123.277 245.143 110.228 234.263 99.3975 218.426C88.5669 202.59 83.1515 186.519 85.0137 177.752C85.5273 175.307 86.6034 173.442 88.2734 172.3C89.9434 171.157 92.0781 170.833 94.5412 171.252C94.6809 171.276 94.8207 171.297 94.9674 171.329C101.071 172.516 109.072 178.035 116.947 186.47C124.456 194.595 130.738 203.773 135.593 213.714C140.599 224.113 142.839 233.568 141.735 239.684C141.71 239.83 141.682 239.97 141.651 240.11C141.148 242.551 140.061 244.424 138.391 245.548Z" fill="white"/>
<path d="M134.076 247.494C133.383 247.491 132.691 247.431 132.008 247.316C122.763 245.796 109.424 234.357 98.8173 218.853C88.2102 203.348 82.3966 186.774 84.3252 177.609C84.8912 174.926 86.0721 172.946 87.8748 171.723C89.6776 170.501 91.9451 170.106 94.6492 170.553C94.7995 170.578 94.9497 170.602 95.1034 170.637C101.326 171.849 109.477 177.445 117.463 185.988C125.019 194.168 131.339 203.407 136.221 213.414C141.291 223.942 143.558 233.564 142.423 239.813C142.398 239.96 142.367 240.11 142.335 240.257C141.769 242.939 140.589 244.92 138.786 246.142C137.392 247.065 135.748 247.537 134.076 247.494ZM92.5844 171.769C91.1945 171.727 89.8252 172.112 88.6609 172.873C87.1761 173.886 86.1769 175.576 85.6912 177.895C83.8291 186.711 89.5658 202.852 99.9702 218.063C110.375 233.275 123.34 244.473 132.231 245.936C134.569 246.324 136.508 246.003 137.989 244.99C139.474 243.977 140.473 242.286 140.959 239.967C140.987 239.838 141.015 239.708 141.036 239.572C142.115 233.599 139.897 224.287 134.953 214.018C130.133 204.137 123.895 195.013 116.436 186.935C108.659 178.604 100.784 173.159 94.8344 171.999C94.6911 171.968 94.5584 171.947 94.4291 171.926C93.8196 171.823 93.2026 171.771 92.5844 171.769Z" fill="#0A0627"/>
<path d="M134.426 237.703L208.183 174.154C209.119 173.515 209.72 172.471 210.006 171.105C210.006 171.028 210.038 170.948 210.052 170.868C210.67 167.448 209.416 162.16 206.618 156.344C203.903 150.786 200.391 145.655 196.192 141.112C191.787 136.393 187.315 133.309 183.901 132.645L183.664 132.603C182.287 132.376 181.096 132.558 180.17 133.197L94.1642 178.835C93.7954 178.979 93.4439 179.164 93.1161 179.387C91.7675 180.309 90.901 181.832 90.4888 183.784C88.9935 190.854 93.3537 203.84 102.088 216.617C110.822 229.394 121.342 238.158 128.473 239.321C130.457 239.649 132.176 239.387 133.525 238.468C133.853 238.248 134.155 237.991 134.426 237.703Z" fill="white"/>
<path d="M130.058 240.158C129.492 240.156 128.926 240.107 128.367 240.012C120.88 238.779 110.088 229.533 101.518 217.004C92.9478 204.475 88.2417 191.066 89.8139 183.644C90.275 181.447 91.2568 179.823 92.7312 178.813C93.087 178.571 93.4676 178.367 93.8666 178.206L179.795 132.582C180.844 131.883 182.199 131.639 183.775 131.883L184.044 131.932C187.583 132.631 192.198 135.774 196.702 140.608C200.949 145.206 204.502 150.4 207.246 156.026C210.107 161.964 211.382 167.42 210.74 170.975C210.74 171.052 210.708 171.136 210.691 171.22C210.359 172.795 209.643 173.958 208.594 174.692L134.908 238.213C134.612 238.526 134.284 238.807 133.929 239.051C132.783 239.808 131.432 240.194 130.058 240.158ZM182.573 133.193C181.857 133.17 181.15 133.367 180.55 133.759L180.484 133.801L94.492 179.459L94.4221 179.491C94.1051 179.617 93.8028 179.777 93.5207 179.969C92.3538 180.766 91.5677 182.1 91.1799 183.934C89.6846 191.007 94.3033 203.983 102.671 216.218C111.038 228.454 121.457 237.462 128.594 238.635C130.443 238.943 131.973 238.691 133.136 237.895C133.417 237.701 133.676 237.478 133.908 237.228L133.964 237.175L207.724 173.623L207.787 173.574C208.549 173.054 209.066 172.177 209.321 170.958C209.321 170.884 209.349 170.818 209.363 170.748C209.957 167.465 208.727 162.33 205.988 156.644C203.305 151.146 199.833 146.07 195.681 141.576C191.374 136.962 187.034 133.955 183.768 133.315L183.548 133.277C183.226 133.222 182.9 133.194 182.573 133.193Z" fill="#0A0627"/>
<path d="M230.916 174.681C229.48 175.663 227.65 175.939 225.539 175.59C217.947 174.339 206.75 165.003 197.457 151.416C188.163 137.828 183.527 123.997 185.113 116.487C185.557 114.391 186.476 112.788 187.908 111.81C189.341 110.832 191.175 110.553 193.285 110.902C198.9 111.821 206.481 117.165 213.818 125.394C219.266 131.541 223.921 138.347 227.674 145.652C232.67 155.457 234.903 164.458 233.725 170.022C233.275 172.093 232.352 173.7 230.916 174.681Z" fill="white"/>
<path d="M227.212 176.434C226.613 176.432 226.016 176.38 225.426 176.281C217.464 174.971 205.994 165.135 196.882 151.813C187.771 138.492 182.764 124.22 184.431 116.343C184.923 114.017 185.961 112.295 187.519 111.233C189.077 110.172 191.055 109.836 193.403 110.21C199.22 111.167 206.846 116.525 214.33 124.915C219.815 131.101 224.503 137.951 228.284 145.303C233.389 155.317 235.621 164.367 234.398 170.133C233.906 172.46 232.868 174.182 231.31 175.243C230.098 176.051 228.667 176.467 227.212 176.434ZM191.621 111.467C190.446 111.432 189.289 111.758 188.305 112.4C187.054 113.256 186.209 114.684 185.797 116.647C184.204 124.188 189.123 138.01 198.025 151.038C206.927 164.066 218.037 173.661 225.643 174.915C227.624 175.24 229.262 174.971 230.51 174.119C231.757 173.266 232.606 171.834 233.018 169.871C234.154 164.492 231.914 155.551 227.026 145.966C223.3 138.715 218.679 131.96 213.272 125.858C206.106 117.824 198.598 112.498 193.161 111.604C192.653 111.512 192.138 111.462 191.621 111.453V111.467Z" fill="#0A0627"/>
<path d="M222.821 162.844C221.927 163.455 220.784 163.63 219.467 163.409C214.733 162.631 207.753 156.811 201.96 148.338C196.167 139.864 193.271 131.251 194.274 126.56C194.55 125.254 195.123 124.255 196.021 123.643C196.918 123.032 198.057 122.857 199.375 123.077L199.602 123.119C202.868 123.755 207.148 126.707 211.362 131.219C215.38 135.568 218.74 140.481 221.336 145.802C224.016 151.366 225.214 156.424 224.624 159.697C224.624 159.773 224.596 159.85 224.579 159.924C224.299 161.233 223.716 162.232 222.821 162.844Z" fill="white"/>
<path d="M220.514 164.199C220.125 164.197 219.737 164.163 219.354 164.098C214.246 163.259 207.192 157.227 201.382 148.729C195.572 140.231 192.508 131.474 193.581 126.413C193.902 124.894 194.584 123.766 195.614 123.063C196.645 122.361 197.941 122.131 199.475 122.386L199.73 122.431C203.122 123.091 207.545 126.12 211.857 130.741C215.923 135.142 219.323 140.113 221.95 145.498C224.693 151.191 225.908 156.41 225.294 159.819C225.294 159.896 225.262 159.983 225.245 160.067C224.923 161.586 224.242 162.714 223.211 163.416C222.414 163.947 221.472 164.221 220.514 164.199ZM198.318 123.682C197.639 123.66 196.97 123.846 196.4 124.216C195.677 124.709 195.188 125.547 194.947 126.7C193.969 131.335 197.019 139.871 202.535 147.94C208.052 156.008 214.903 161.946 219.578 162.714C220.745 162.906 221.702 162.753 222.422 162.26C223.145 161.768 223.634 160.93 223.875 159.777C223.875 159.711 223.903 159.648 223.914 159.578C224.48 156.434 223.302 151.544 220.689 146.102C218.123 140.845 214.803 135.991 210.833 131.694C206.717 127.286 202.57 124.408 199.45 123.8L199.241 123.762C198.937 123.713 198.63 123.688 198.322 123.689L198.318 123.682Z" fill="#0A0627"/>
<path d="M204.633 103.164L193.299 110.911L200.992 122.162L205.541 119.05L210.911 115.379L204.633 103.164Z" fill="white"/>
<path d="M200.992 122.861C200.879 122.861 200.767 122.834 200.667 122.781C200.566 122.728 200.48 122.651 200.416 122.557L192.73 111.307C192.625 111.154 192.585 110.966 192.619 110.784C192.653 110.602 192.758 110.441 192.911 110.336L204.245 102.589C204.327 102.533 204.42 102.495 204.518 102.478C204.615 102.46 204.716 102.464 204.812 102.488C204.908 102.513 204.998 102.557 205.075 102.619C205.153 102.681 205.217 102.759 205.262 102.847L211.55 115.072C211.628 115.223 211.647 115.398 211.606 115.562C211.564 115.727 211.463 115.87 211.323 115.966L201.387 122.739C201.271 122.819 201.133 122.861 200.992 122.861ZM194.253 111.094L201.174 121.202L210.006 115.163L204.385 104.189L194.253 111.094Z" fill="#0A0627"/>
<path d="M222.668 123.483L211.348 131.223C207.134 126.711 202.855 123.759 199.588 123.123L210.908 115.387C214.167 116.022 218.458 118.97 222.668 123.483Z" fill="white"/>
<path d="M211.348 131.922C211.252 131.921 211.157 131.901 211.07 131.863C210.982 131.825 210.903 131.768 210.838 131.698C206.722 127.29 202.575 124.412 199.455 123.804C199.32 123.778 199.196 123.712 199.098 123.616C199 123.519 198.933 123.396 198.905 123.261C198.877 123.126 198.89 122.986 198.941 122.859C198.992 122.731 199.08 122.621 199.193 122.543L210.513 114.807C210.589 114.755 210.675 114.718 210.766 114.7C210.856 114.681 210.95 114.681 211.04 114.699C214.447 115.366 218.87 118.394 223.178 123.008C223.245 123.081 223.297 123.169 223.328 123.263C223.359 123.358 223.37 123.459 223.359 123.558C223.348 123.658 223.316 123.753 223.265 123.839C223.213 123.925 223.145 123.999 223.062 124.056L211.743 131.796C211.627 131.877 211.489 131.921 211.348 131.922ZM201.216 122.84C204.249 123.927 207.872 126.56 211.446 130.294L221.595 123.354C217.79 119.41 213.996 116.805 211.051 116.113L201.216 122.84Z" fill="#0A0627"/>
<path d="M210.908 115.383L204.619 103.158C210.188 104.087 217.661 109.327 224.914 117.402L222.668 123.483C218.458 118.97 214.168 116.022 210.908 115.383Z" fill="white"/>
<path d="M222.668 124.183C222.572 124.182 222.477 124.162 222.389 124.124C222.302 124.085 222.223 124.029 222.158 123.959C218.045 119.555 213.898 116.68 210.772 116.069C210.659 116.047 210.553 115.997 210.464 115.925C210.376 115.852 210.306 115.759 210.261 115.653L204.008 103.484C203.948 103.369 203.922 103.239 203.932 103.11C203.942 102.98 203.988 102.856 204.064 102.751C204.141 102.647 204.245 102.565 204.365 102.516C204.485 102.467 204.617 102.453 204.745 102.475C210.496 103.432 218.021 108.702 225.435 116.935C225.518 117.029 225.575 117.143 225.599 117.266C225.623 117.389 225.613 117.516 225.571 117.634L223.325 123.715C223.283 123.827 223.214 123.926 223.124 124.004C223.033 124.081 222.924 124.135 222.807 124.158C222.762 124.171 222.715 124.179 222.668 124.183ZM211.372 114.773C214.517 115.517 218.475 118.185 222.392 122.192L224.104 117.557C217.714 110.519 211.065 105.643 205.936 104.179L211.372 114.773Z" fill="#0A0627"/>
<path d="M208.829 132.946L197.509 140.686L191.021 140.571L202.345 132.834L208.829 132.946Z" fill="white"/>
<path d="M197.505 141.384L191.021 141.273C190.873 141.27 190.73 141.22 190.612 141.13C190.494 141.041 190.408 140.916 190.365 140.774C190.323 140.632 190.327 140.481 190.376 140.341C190.425 140.202 190.518 140.081 190.64 139.998L201.939 132.258C202.056 132.172 202.199 132.129 202.344 132.135L208.828 132.251C208.976 132.254 209.12 132.303 209.238 132.393C209.355 132.483 209.442 132.607 209.484 132.749C209.527 132.891 209.523 133.043 209.473 133.182C209.424 133.322 209.331 133.442 209.209 133.526L197.89 141.266C197.776 141.342 197.642 141.383 197.505 141.384ZM193.225 139.914L197.296 139.984L206.624 133.609L202.554 133.54L193.225 139.914Z" fill="#0A0627"/>
<path d="M245.042 162.244L233.708 169.991L226.012 158.741L230.561 155.632L235.93 151.961L245.042 162.244Z" fill="white"/>
<path d="M233.707 170.69C233.594 170.69 233.482 170.662 233.381 170.609C233.281 170.556 233.195 170.48 233.131 170.386L225.444 159.136C225.34 158.983 225.3 158.795 225.334 158.612C225.368 158.43 225.473 158.269 225.626 158.165L235.545 151.385C235.685 151.288 235.856 151.246 236.026 151.267C236.195 151.287 236.351 151.369 236.464 151.497L245.575 161.78C245.643 161.854 245.693 161.942 245.723 162.037C245.753 162.133 245.762 162.234 245.75 162.333C245.738 162.432 245.704 162.528 245.652 162.613C245.6 162.699 245.529 162.772 245.446 162.827L234.112 170.575C233.992 170.654 233.851 170.694 233.707 170.69ZM226.982 158.926L233.889 169.02L243.993 162.115L235.828 152.887L226.982 158.926Z" fill="#0A0627"/>
<path d="M232.646 138.066L221.326 145.807C224.006 151.371 225.204 156.428 224.614 159.701L235.934 151.964C236.527 148.685 235.322 143.627 232.646 138.066Z" fill="white"/>
<path d="M224.61 160.398C224.507 160.4 224.404 160.379 224.31 160.336C224.216 160.294 224.132 160.23 224.065 160.152C223.999 160.073 223.95 159.98 223.923 159.88C223.897 159.78 223.893 159.676 223.911 159.574C224.477 156.448 223.3 151.541 220.683 146.106C220.61 145.955 220.594 145.784 220.637 145.622C220.68 145.461 220.779 145.32 220.917 145.226L232.237 137.485C232.32 137.429 232.414 137.39 232.513 137.373C232.612 137.356 232.714 137.361 232.811 137.387C232.908 137.413 232.999 137.459 233.076 137.523C233.154 137.587 233.217 137.667 233.26 137.758C236 143.444 237.215 148.666 236.604 152.078C236.588 152.17 236.553 152.257 236.503 152.335C236.453 152.413 236.387 152.48 236.31 152.533L224.998 160.276C224.883 160.355 224.748 160.397 224.61 160.398ZM222.203 146.043C224.39 150.727 225.529 155.058 225.441 158.268L235.276 151.544C235.703 148.551 234.647 144.069 232.352 139.096L222.203 146.043Z" fill="#0A0627"/>
<path d="M235.927 151.961L245.038 162.244C246.191 156.732 244.015 147.86 239.127 138.182L232.643 138.066C235.322 143.627 236.528 148.685 235.927 151.961Z" fill="white"/>
<path d="M245.041 162.942C244.942 162.943 244.844 162.922 244.754 162.882C244.663 162.841 244.582 162.782 244.517 162.708L235.433 152.46C235.353 152.381 235.293 152.283 235.259 152.175C235.225 152.068 235.217 151.953 235.237 151.842C235.8 148.699 234.626 143.809 232.013 138.374C231.961 138.266 231.937 138.147 231.945 138.028C231.952 137.908 231.99 137.793 232.054 137.693C232.119 137.592 232.208 137.51 232.313 137.454C232.418 137.397 232.536 137.369 232.655 137.371L239.14 137.483C239.267 137.485 239.391 137.522 239.499 137.59C239.607 137.658 239.694 137.754 239.751 137.867C244.74 147.741 246.917 156.68 245.726 162.387C245.693 162.544 245.607 162.685 245.482 162.786C245.357 162.887 245.201 162.943 245.041 162.942ZM236.656 151.744L244.562 160.672C245.062 155.352 242.927 147.399 238.686 138.887L233.742 138.8C236.065 143.885 237.117 148.538 236.67 151.744H236.656Z" fill="#0A0627"/>
<path d="M218.799 147.527L207.482 155.268L205.232 161.349L216.556 153.612L218.799 147.527Z" fill="white"/>
<path d="M205.233 162.048C205.12 162.049 205.009 162.021 204.909 161.97C204.81 161.918 204.724 161.842 204.659 161.75C204.595 161.658 204.553 161.551 204.539 161.44C204.525 161.328 204.537 161.214 204.576 161.109L206.83 155.028C206.877 154.886 206.969 154.764 207.092 154.678L218.411 146.938C218.534 146.856 218.679 146.814 218.826 146.819C218.974 146.824 219.116 146.875 219.233 146.966C219.349 147.057 219.434 147.182 219.474 147.324C219.515 147.466 219.51 147.617 219.459 147.756L217.213 153.837C217.165 153.978 217.073 154.1 216.951 154.186L205.631 161.926C205.514 162.006 205.375 162.049 205.233 162.048ZM208.059 155.719L206.662 159.537L215.99 153.159L217.388 149.341L208.059 155.719Z" fill="#0A0627"/>
<path d="M230.915 174.682L217.597 183.788C210.994 188.3 196.016 177.885 184.141 160.525C172.266 143.166 167.99 125.429 174.593 120.916L187.911 111.81C186.475 112.792 185.556 114.398 185.116 116.487C185.115 116.501 185.115 116.515 185.116 116.529V116.501L196.422 108.771L202.333 132.834L191.013 140.574C194.839 148.082 199.616 155.065 205.226 161.353L216.546 153.613L236.83 167.85L225.525 175.579H225.493H225.535C227.649 175.939 229.483 175.663 230.915 174.682Z" fill="white"/>
<path d="M213.881 185.542C206.031 185.542 193.81 175.895 183.566 160.917C171.289 142.967 167.173 125.14 174.203 120.337L187.517 111.235C187.67 111.133 187.857 111.095 188.038 111.13C188.218 111.165 188.378 111.27 188.482 111.421C188.585 111.573 188.625 111.759 188.593 111.94C188.56 112.121 188.457 112.282 188.307 112.388C187.452 112.994 186.785 113.83 186.382 114.798L196.039 108.196C196.132 108.132 196.239 108.092 196.351 108.079C196.463 108.066 196.576 108.08 196.682 108.12C196.787 108.16 196.881 108.225 196.956 108.31C197.031 108.394 197.084 108.495 197.111 108.605L203.023 132.667C203.057 132.805 203.048 132.95 202.997 133.083C202.947 133.216 202.857 133.331 202.74 133.411L191.909 140.802C195.567 147.866 200.075 154.457 205.332 160.428L216.163 153.037C216.28 152.956 216.418 152.913 216.561 152.913C216.703 152.913 216.842 152.956 216.959 153.037L237.226 167.278C237.319 167.342 237.395 167.428 237.448 167.528C237.5 167.628 237.528 167.739 237.528 167.852C237.528 167.965 237.5 168.077 237.448 168.177C237.395 168.277 237.319 168.363 237.226 168.427L227.573 175.028C228.622 175.003 229.643 174.684 230.518 174.106C230.594 174.053 230.68 174.016 230.77 173.996C230.86 173.976 230.954 173.974 231.045 173.99C231.136 174.007 231.222 174.041 231.3 174.091C231.378 174.142 231.445 174.207 231.497 174.283C231.549 174.359 231.586 174.445 231.604 174.536C231.623 174.626 231.624 174.72 231.606 174.81C231.589 174.901 231.553 174.988 231.502 175.065C231.451 175.142 231.385 175.208 231.308 175.259L218.011 184.365C216.788 185.172 215.346 185.583 213.881 185.542ZM184.9 114.714L174.989 121.49C172.092 123.47 171.411 128.661 173.116 135.737C174.901 143.139 179.021 151.804 184.715 160.128C190.41 168.451 196.992 175.437 203.232 179.782C209.21 183.939 214.297 185.186 217.207 183.209L227.119 176.433C226.553 176.424 225.989 176.373 225.431 176.279C225.388 176.273 225.345 176.263 225.302 176.251C225.164 176.21 225.043 176.127 224.954 176.014C224.865 175.9 224.813 175.763 224.805 175.619C224.797 175.475 224.834 175.333 224.911 175.211C224.987 175.089 225.1 174.993 225.232 174.938L235.616 167.837L216.554 154.455L205.632 161.92C205.493 162.016 205.323 162.058 205.154 162.038C204.986 162.018 204.83 161.937 204.717 161.811C199.063 155.479 194.249 148.445 190.393 140.882C190.317 140.731 190.298 140.557 190.341 140.394C190.383 140.23 190.483 140.087 190.623 139.992L201.545 132.527L196 109.918L185.606 117.012C185.506 117.116 185.376 117.186 185.234 117.213C185.093 117.239 184.946 117.222 184.815 117.162C184.684 117.102 184.574 117.004 184.501 116.879C184.428 116.755 184.396 116.611 184.408 116.467C184.413 116.425 184.42 116.383 184.429 116.341C184.544 115.788 184.702 115.244 184.9 114.714Z" fill="#0A0627"/>
<path d="M205.541 119.051L196.43 108.768C195.277 114.279 197.453 123.151 202.341 132.83L208.826 132.945C206.149 127.385 204.951 122.327 205.541 119.051Z" fill="white"/>
<path d="M208.825 133.645L202.34 133.529C202.213 133.527 202.089 133.49 201.981 133.422C201.874 133.355 201.786 133.259 201.729 133.145C196.74 123.271 194.563 114.333 195.755 108.625C195.781 108.499 195.843 108.382 195.931 108.288C196.02 108.195 196.134 108.127 196.259 108.094C196.383 108.061 196.515 108.063 196.639 108.1C196.763 108.137 196.874 108.207 196.96 108.304L206.072 118.587C206.142 118.666 206.193 118.76 206.221 118.861C206.25 118.963 206.255 119.07 206.236 119.174C205.674 122.317 206.851 127.207 209.464 132.642C209.516 132.749 209.54 132.868 209.533 132.987C209.526 133.106 209.488 133.221 209.424 133.322C209.36 133.422 209.271 133.505 209.167 133.561C209.062 133.618 208.944 133.646 208.825 133.645ZM202.777 132.143L207.721 132.23C205.404 127.123 204.353 122.471 204.8 119.272L196.901 110.358C196.401 115.674 198.536 123.648 202.777 132.143Z" fill="#0A0627"/>
<path d="M218.803 147.527L216.557 153.608C223.806 161.677 231.286 166.92 236.841 167.845L230.553 155.62C227.293 154.992 223.013 152.04 218.803 147.527Z" fill="white"/>
<path d="M236.837 168.548H236.722C230.971 167.591 223.446 162.32 216.032 154.088C215.949 153.994 215.892 153.88 215.868 153.757C215.844 153.634 215.854 153.507 215.896 153.389L218.142 147.308C218.184 147.196 218.253 147.097 218.344 147.019C218.434 146.942 218.543 146.889 218.66 146.865C218.777 146.842 218.899 146.849 219.012 146.885C219.126 146.922 219.228 146.987 219.309 147.074C223.421 151.479 227.572 154.357 230.692 154.968C230.794 154.987 230.89 155.028 230.974 155.088C231.058 155.148 231.128 155.227 231.178 155.317L237.466 167.542C237.519 167.649 237.543 167.767 237.537 167.886C237.531 168.004 237.494 168.119 237.431 168.22C237.368 168.321 237.281 168.404 237.177 168.461C237.073 168.518 236.956 168.548 236.837 168.548ZM217.356 153.459C223.746 160.497 230.395 165.373 235.524 166.837L230.081 156.246C226.936 155.502 222.978 152.834 219.061 148.824L217.356 153.459Z" fill="#0A0627"/>
<path d="M149.763 184.424H162.491C162.699 184.423 162.905 184.466 163.096 184.55L171.481 188.255C171.834 188.411 172.113 188.697 172.26 189.054C172.408 189.411 172.411 189.81 172.27 190.17C172.154 190.465 171.948 190.715 171.68 190.886C171.413 191.056 171.098 191.136 170.782 191.116L163.399 190.641C163.187 190.629 162.975 190.678 162.789 190.783C162.603 190.887 162.451 191.043 162.351 191.231C162.273 191.38 162.228 191.544 162.222 191.711C162.215 191.879 162.247 192.046 162.314 192.2C162.381 192.354 162.482 192.49 162.61 192.6C162.737 192.709 162.888 192.788 163.05 192.831L176.012 196.432C176.304 196.513 176.577 196.654 176.812 196.845C177.047 197.037 177.24 197.275 177.378 197.545C177.516 197.815 177.597 198.11 177.615 198.413C177.633 198.716 177.588 199.019 177.483 199.303C177.305 199.787 176.962 200.192 176.514 200.447C176.067 200.703 175.544 200.792 175.037 200.701L167.036 199.234L172.71 202.485C173.123 202.722 173.424 203.112 173.549 203.57C173.673 204.029 173.61 204.518 173.374 204.93L169.88 210.997C169.685 211.338 169.382 211.605 169.02 211.757C168.658 211.909 168.255 211.938 167.875 211.839L154.193 207.508C152.854 207.083 151.625 206.368 150.595 205.412L139.67 195.301L149.763 184.424Z" fill="white"/>
<path d="M168.315 212.593C168.105 212.593 167.896 212.566 167.693 212.513H167.658L153.977 208.175C152.54 207.718 151.221 206.951 150.113 205.929L139.188 195.817C139.12 195.755 139.066 195.68 139.027 195.596C138.989 195.513 138.967 195.422 138.963 195.331C138.96 195.239 138.974 195.147 139.006 195.061C139.038 194.975 139.087 194.896 139.149 194.828L149.25 183.948C149.315 183.878 149.395 183.821 149.483 183.783C149.572 183.744 149.667 183.724 149.763 183.725H162.491C162.797 183.723 163.099 183.787 163.379 183.91L171.764 187.616C172.232 187.826 172.612 188.193 172.838 188.654C173.063 189.115 173.12 189.641 172.997 190.139C172.875 190.638 172.582 191.078 172.169 191.383C171.756 191.687 171.249 191.838 170.736 191.807L163.368 191.339C163.288 191.335 163.209 191.353 163.139 191.392C163.069 191.431 163.011 191.489 162.973 191.559C162.944 191.614 162.927 191.675 162.924 191.737C162.921 191.8 162.933 191.862 162.957 191.919C162.982 191.976 163.019 192.028 163.066 192.069C163.113 192.11 163.168 192.14 163.228 192.156L176.19 195.758C176.896 195.965 177.496 196.435 177.868 197.07C178.24 197.705 178.355 198.459 178.19 199.176C178.025 199.893 177.592 200.52 176.98 200.93C176.369 201.339 175.623 201.499 174.897 201.378L170.908 200.648L173.042 201.874C173.615 202.203 174.035 202.746 174.208 203.384C174.381 204.022 174.293 204.702 173.965 205.276L170.471 211.343C170.252 211.721 169.938 212.036 169.56 212.255C169.182 212.475 168.752 212.591 168.315 212.593ZM168.05 211.164C168.28 211.22 168.523 211.199 168.74 211.105C168.958 211.011 169.14 210.849 169.258 210.644L172.752 204.577C172.896 204.325 172.935 204.026 172.859 203.746C172.783 203.466 172.599 203.227 172.347 203.082L166.673 199.83C166.53 199.748 166.421 199.618 166.365 199.463C166.309 199.308 166.309 199.138 166.366 198.984C166.423 198.829 166.533 198.7 166.676 198.618C166.819 198.536 166.986 198.508 167.148 198.538L175.149 200.005C175.525 200.069 175.911 199.988 176.228 199.776C176.546 199.565 176.77 199.24 176.855 198.869C176.941 198.498 176.881 198.107 176.687 197.779C176.494 197.45 176.182 197.208 175.816 197.102L162.854 193.505C162.418 193.388 162.04 193.113 161.796 192.733C161.552 192.353 161.458 191.895 161.534 191.45C161.609 191.004 161.849 190.603 162.205 190.325C162.561 190.046 163.008 189.911 163.459 189.945L170.845 190.42C171.033 190.435 171.22 190.382 171.373 190.271C171.526 190.16 171.634 189.999 171.679 189.816C171.724 189.632 171.702 189.439 171.618 189.27C171.534 189.102 171.392 188.968 171.218 188.894L162.833 185.188C162.732 185.144 162.623 185.121 162.512 185.122H150.067L140.634 195.251L151.046 204.888C152.002 205.77 153.141 206.432 154.382 206.826L168.05 211.164Z" fill="#0A0627"/>
<path d="M175.037 115.613C168.248 127.283 130.841 159.127 130.841 159.127L151.454 183.843L139.484 198.743C139.484 198.743 117.739 185.848 104.659 174.244C100.767 170.793 97.6466 167.454 96.0954 164.604C95.9977 164.196 95.9764 163.773 96.0325 163.357C96.7313 159.941 98.7437 155.523 101.623 150.57C112.991 131.125 137.706 103.458 146.653 95.9765C161.533 83.5454 183.561 100.943 175.037 115.613Z" fill="#0A0627"/>
<path d="M134.356 156.794C134.214 156.794 134.075 156.75 133.958 156.669C133.841 156.588 133.752 156.473 133.702 156.34C133.653 156.206 133.645 156.061 133.68 155.923C133.715 155.785 133.791 155.661 133.899 155.568C142.008 148.519 168.892 124.789 174.426 115.26C176.68 111.383 176.823 106.972 174.832 102.833C172.278 97.527 166.702 93.5172 160.622 92.6195C160.437 92.5922 160.27 92.4924 160.159 92.3421C160.047 92.1917 159.999 92.0032 160.027 91.8179C160.054 91.6327 160.154 91.4658 160.304 91.3541C160.455 91.2425 160.643 91.1951 160.829 91.2224C167.351 92.2109 173.347 96.5176 176.086 102.228C178.287 106.797 178.126 111.659 175.632 115.966C170.136 125.397 145.236 147.548 134.804 156.626C134.679 156.733 134.521 156.792 134.356 156.794Z" fill="#0A0627"/>
<path d="M116.922 160.556C116.736 160.56 116.557 160.491 116.422 160.364C116.288 160.236 116.21 160.06 116.205 159.875C116.201 159.689 116.27 159.51 116.398 159.376C116.525 159.241 116.701 159.163 116.887 159.159L130.802 158.429C130.894 158.424 130.986 158.437 131.072 158.468C131.159 158.498 131.239 158.546 131.307 158.607C131.375 158.669 131.431 158.743 131.47 158.826C131.51 158.909 131.533 158.999 131.538 159.091C131.542 159.182 131.529 159.274 131.498 159.361C131.468 159.447 131.42 159.527 131.359 159.595C131.297 159.664 131.223 159.719 131.14 159.759C131.057 159.798 130.967 159.821 130.876 159.826L116.96 160.556H116.922Z" fill="#0A0627"/>
<path d="M111.685 162.932C111.685 165.285 111.027 167.591 109.786 169.59C108.544 171.589 106.768 173.202 104.659 174.245C100.767 170.794 97.6466 167.455 96.0954 164.605C95.9977 164.196 95.9764 163.774 96.0325 163.358C96.7313 159.942 98.7437 155.523 101.623 150.57C104.465 151.161 107.017 152.713 108.85 154.964C110.682 157.215 111.683 160.029 111.685 162.932Z" fill="white"/>
<path d="M136.467 194.088C136.334 194.088 136.205 194.05 136.093 193.979C135.982 193.908 135.892 193.807 135.836 193.687C135.78 193.567 135.759 193.434 135.775 193.303C135.791 193.172 135.845 193.048 135.928 192.946L145.711 181.112C145.831 180.975 145.999 180.89 146.181 180.875C146.363 180.861 146.543 180.917 146.683 181.034C146.823 181.15 146.913 181.316 146.932 181.497C146.952 181.678 146.899 181.86 146.787 182.003L137.005 193.837C136.939 193.915 136.857 193.979 136.764 194.022C136.671 194.066 136.569 194.088 136.467 194.088Z" fill="#0A0627"/>
<path d="M231.031 68.8094C229.72 76.4168 226.838 85.4249 217.754 83.3537C206.924 80.8912 200.415 72.669 201.044 62.2603C201.673 51.8516 206.882 46.3224 219.257 48.3902C220.31 48.5631 221.346 48.8236 222.356 49.1691C229.389 51.6141 232.578 57.7964 231.642 64.7332C231.471 65.9802 231.286 67.3669 231.031 68.8094Z" fill="white"/>
<path d="M220.274 84.3451C219.374 84.3393 218.477 84.2327 217.601 84.0273C213.217 83.0283 209.363 81.0409 206.456 78.2815C206.385 78.2196 206.327 78.144 206.286 78.0592C206.245 77.9744 206.222 77.8822 206.218 77.7881C206.213 77.6941 206.228 77.6001 206.261 77.5118C206.293 77.4235 206.344 77.3428 206.409 77.2744C206.473 77.2061 206.551 77.1516 206.638 77.1141C206.724 77.0767 206.817 77.0571 206.911 77.0566C207.006 77.056 207.099 77.0745 207.186 77.111C207.273 77.1474 207.351 77.201 207.417 77.2686C210.142 79.8568 213.769 81.722 217.898 82.6651C220.442 83.2449 222.538 82.9515 224.313 81.7674C228.121 79.2281 229.553 73.0841 230.325 68.6831C230.577 67.2581 230.762 65.8889 230.933 64.6314C231.866 57.7016 228.488 52.0292 222.112 49.8217C221.937 49.761 221.793 49.6333 221.712 49.4666C221.631 49.2999 221.62 49.1079 221.68 48.9328C221.741 48.7577 221.869 48.6139 222.035 48.533C222.202 48.4521 222.394 48.4407 222.569 48.5014C229.613 50.9464 233.348 57.1916 232.32 64.82C232.149 66.1019 231.971 67.4746 231.706 68.9241C230.902 73.5766 229.344 80.1013 225.088 82.934C223.661 83.8765 221.984 84.3682 220.274 84.3451Z" fill="#0A0627"/>
<path d="M197.655 63.9794C198.6 65.5781 199.683 67.0915 200.89 68.5027L206.379 69.2327L207.829 65.4115C207.829 65.4115 211.323 65.5023 212.227 63.19C212.249 63.1377 212.268 63.084 212.283 63.0294C212.521 62.2679 213.482 58.8694 213.331 53.4729C213.331 53.4729 221.482 57.7761 226.028 58.5795C227.663 58.8694 229.63 58.3734 231.481 57.6119C235.188 56.0926 238.731 50.476 238.382 46.4837V46.4069C237.802 40.5528 234.507 44.3496 234.507 44.3496C234.507 44.3496 233.973 39.6307 231.076 39.0928C228.18 38.5549 226.021 42.7254 226.021 42.7254C220.51 41.0278 214.729 40.3797 208.978 40.8148C197.578 41.7439 199.842 49.7111 199.842 49.7111C199.842 49.7111 191.356 51.7928 197.655 63.9794Z" fill="#0A0627"/>
<path d="M205.226 68.551C206.005 64.2408 203.231 59.99 198.937 59.1867C198.024 59.0107 197.086 59.0107 196.173 59.1867C190.688 60.2625 191.223 72.8926 204.461 72.8612L205.226 68.551Z" fill="white"/>
<path d="M204.384 73.5627C196.565 73.5627 192.634 69.1722 192.205 64.8096C191.894 61.666 193.494 58.9975 196.009 58.505C197.009 58.3134 198.035 58.3134 199.035 58.505C203.685 59.3782 206.77 63.9189 205.914 68.6762C205.881 68.8587 205.777 69.0206 205.625 69.1264C205.472 69.2322 205.284 69.2732 205.102 69.2403C204.919 69.2074 204.757 69.1034 204.651 68.9511C204.546 68.7988 204.505 68.6107 204.537 68.4282C205.257 64.4359 202.682 60.5972 198.794 59.8742C197.967 59.7157 197.119 59.7157 196.292 59.8742C194.5 60.2235 193.371 62.2423 193.609 64.6734C193.958 68.1313 196.98 72.1655 204.394 72.1655H204.447C204.632 72.1655 204.81 72.2391 204.941 72.3701C205.072 72.5012 205.145 72.6788 205.145 72.8641C205.145 73.0494 205.072 73.2271 204.941 73.3581C204.81 73.4891 204.632 73.5627 204.447 73.5627H204.384Z" fill="#0A0627"/>
<path d="M515.985 146.191L501.472 124.004L440.988 239.104L455.505 261.291L515.985 146.191Z" fill="#3257FB"/>
<path d="M285.311 223.574L299.824 245.764L455.505 261.29L440.989 239.103L285.311 223.574Z" fill="#0A0627"/>
<path d="M501.472 124.002L440.989 239.102L285.311 223.573L343.988 111.906L501.472 124.002Z" fill="white"/>
<path d="M440.992 239.803H440.912L285.23 224.274C285.116 224.262 285.007 224.223 284.912 224.159C284.817 224.096 284.739 224.01 284.685 223.909C284.631 223.809 284.602 223.696 284.602 223.582C284.601 223.468 284.629 223.355 284.682 223.254L343.377 111.587C343.44 111.467 343.538 111.368 343.657 111.302C343.776 111.236 343.912 111.207 344.048 111.217L501.525 123.299C501.64 123.307 501.751 123.345 501.849 123.407C501.946 123.47 502.026 123.555 502.082 123.656C502.139 123.757 502.169 123.871 502.17 123.986C502.172 124.102 502.144 124.216 502.091 124.319L441.61 239.429C441.551 239.542 441.462 239.636 441.353 239.702C441.244 239.768 441.119 239.803 440.992 239.803ZM286.411 222.985L440.59 238.353L500.358 124.612L344.393 112.642L286.411 222.985Z" fill="#0A0627"/>
<path d="M326.763 223.34C326.643 223.34 326.524 223.309 326.42 223.25C326.315 223.191 326.227 223.106 326.165 223.003C326.103 222.9 326.068 222.783 326.065 222.662C326.061 222.542 326.089 222.423 326.145 222.317L380.12 119.56C380.208 119.401 380.356 119.282 380.531 119.23C380.705 119.178 380.894 119.196 381.055 119.281C381.217 119.366 381.339 119.511 381.395 119.684C381.451 119.858 381.437 120.047 381.356 120.21L327.381 222.966C327.322 223.079 327.233 223.174 327.124 223.239C327.015 223.305 326.89 223.34 326.763 223.34Z" fill="#0A0627"/>
<path d="M365.681 227.221C365.561 227.221 365.442 227.19 365.338 227.131C365.233 227.072 365.145 226.986 365.083 226.884C365.021 226.781 364.986 226.663 364.983 226.543C364.979 226.423 365.007 226.304 365.063 226.197L419.509 122.582C419.598 122.422 419.745 122.304 419.92 122.252C420.095 122.2 420.283 122.218 420.445 122.303C420.607 122.388 420.728 122.532 420.785 122.706C420.841 122.879 420.827 123.068 420.746 123.232L366.299 226.847C366.24 226.96 366.151 227.054 366.042 227.12C365.933 227.186 365.808 227.221 365.681 227.221Z" fill="#0A0627"/>
<path d="M404.601 231.102C404.481 231.102 404.362 231.071 404.258 231.012C404.153 230.953 404.065 230.868 404.003 230.765C403.941 230.662 403.906 230.545 403.903 230.424C403.899 230.304 403.927 230.185 403.982 230.079L458.88 125.607C458.968 125.448 459.116 125.329 459.291 125.277C459.466 125.225 459.654 125.243 459.816 125.328C459.977 125.413 460.099 125.558 460.155 125.731C460.212 125.905 460.198 126.094 460.117 126.257L405.219 230.728C405.16 230.841 405.071 230.935 404.962 231.001C404.853 231.067 404.728 231.102 404.601 231.102Z" fill="#0A0627"/>
<path d="M479.657 152.931H479.597L336.099 141.087C336.007 141.079 335.917 141.054 335.836 141.012C335.754 140.97 335.681 140.912 335.621 140.842C335.562 140.771 335.517 140.69 335.489 140.603C335.46 140.515 335.45 140.423 335.457 140.331C335.465 140.239 335.491 140.15 335.533 140.068C335.575 139.986 335.633 139.913 335.703 139.854C335.773 139.794 335.854 139.749 335.942 139.721C336.03 139.693 336.122 139.682 336.214 139.69L479.716 151.531C479.902 151.539 480.077 151.62 480.203 151.757C480.329 151.894 480.395 152.075 480.387 152.261C480.379 152.446 480.298 152.621 480.161 152.747C480.024 152.873 479.843 152.939 479.657 152.931Z" fill="#0A0627"/>
<path d="M464.557 181.674H464.491L321.404 169.054C321.219 169.038 321.047 168.949 320.928 168.806C320.808 168.664 320.75 168.48 320.766 168.294C320.783 168.109 320.872 167.938 321.014 167.818C321.157 167.699 321.341 167.641 321.526 167.657L464.606 180.291C464.772 180.32 464.922 180.408 465.029 180.539C465.135 180.67 465.19 180.835 465.184 181.004C465.178 181.172 465.111 181.333 464.996 181.456C464.881 181.579 464.725 181.657 464.557 181.674Z" fill="#0A0627"/>
<path d="M449.458 210.407H449.391L306.714 196.998C306.528 196.98 306.358 196.89 306.239 196.746C306.12 196.603 306.064 196.418 306.081 196.233C306.099 196.048 306.189 195.877 306.333 195.758C306.476 195.64 306.661 195.583 306.846 195.601L449.524 209.01C449.71 209.019 449.884 209.101 450.009 209.238C450.133 209.375 450.199 209.556 450.19 209.742C450.181 209.927 450.099 210.101 449.962 210.226C449.824 210.351 449.643 210.416 449.458 210.407Z" fill="#0A0627"/>
<path d="M445.202 183.606C438.99 182.957 432.54 186.946 430.79 192.524C429.04 198.102 432.663 203.138 438.875 203.788C445.087 204.438 451.536 200.449 453.283 194.874C455.03 189.3 451.414 184.256 445.202 183.606ZM440.73 197.864C438.162 197.595 436.67 195.51 437.39 193.212C438.11 190.913 440.775 189.258 443.329 189.527C445.883 189.796 447.389 191.881 446.666 194.183C445.943 196.485 443.298 198.133 440.73 197.864Z" fill="#0A0627"/>
<path d="M406.146 136.643L397.88 140.667L393.01 135.794L385.844 139.28L380.223 133.66L387.388 130.174L382.518 125.305L390.784 121.285L395.655 126.154L402.82 122.668L408.442 128.288L401.276 131.774L406.146 136.643Z" fill="#3257FB"/>
<path d="M374.065 136.362C373.895 136.362 373.73 136.3 373.602 136.187C373.474 136.074 373.392 135.918 373.371 135.749C373.35 135.58 373.391 135.409 373.488 135.268C373.584 135.127 373.729 135.027 373.894 134.985C375.187 134.661 375.92 134.496 375.952 134.493C376.042 134.473 376.134 134.471 376.225 134.487C376.315 134.503 376.402 134.537 376.479 134.587C376.556 134.636 376.623 134.7 376.676 134.776C376.728 134.851 376.765 134.936 376.785 135.026C376.805 135.115 376.807 135.208 376.791 135.298C376.775 135.389 376.741 135.475 376.691 135.552C376.642 135.63 376.578 135.697 376.502 135.749C376.427 135.802 376.342 135.839 376.252 135.859C376.252 135.859 375.505 136.023 374.237 136.344C374.18 136.357 374.123 136.363 374.065 136.362Z" fill="#0A0627"/>
<path d="M348.421 185.781C347.347 185.782 346.274 185.726 345.207 185.613C345.115 185.603 345.026 185.575 344.945 185.531C344.864 185.487 344.793 185.427 344.735 185.355C344.677 185.283 344.634 185.201 344.608 185.112C344.582 185.024 344.573 184.931 344.583 184.839C344.593 184.748 344.621 184.659 344.665 184.578C344.709 184.497 344.769 184.425 344.841 184.367C344.913 184.309 344.995 184.266 345.084 184.24C345.172 184.214 345.265 184.206 345.357 184.216C346.71 184.358 348.071 184.406 349.431 184.359C349.616 184.353 349.796 184.421 349.931 184.548C350.067 184.674 350.146 184.85 350.152 185.035C350.158 185.22 350.09 185.4 349.964 185.535C349.837 185.671 349.661 185.75 349.476 185.756C349.12 185.772 348.768 185.781 348.421 185.781ZM353.606 185.368C353.514 185.375 353.422 185.364 353.334 185.335C353.247 185.307 353.166 185.261 353.096 185.201C352.955 185.08 352.868 184.907 352.855 184.722C352.841 184.537 352.901 184.354 353.022 184.213C353.143 184.072 353.316 183.985 353.501 183.971C354.853 183.759 356.193 183.476 357.515 183.123C357.692 183.084 357.876 183.115 358.03 183.21C358.184 183.305 358.295 183.455 358.341 183.63C358.386 183.805 358.362 183.991 358.273 184.148C358.184 184.306 358.038 184.422 357.865 184.474C356.495 184.841 355.107 185.135 353.707 185.354L353.606 185.368ZM341.178 184.851C341.116 184.852 341.054 184.843 340.993 184.827C339.607 184.453 338.258 183.953 336.961 183.336C336.794 183.255 336.666 183.112 336.604 182.937C336.542 182.762 336.553 182.57 336.633 182.403C336.713 182.236 336.857 182.107 337.031 182.046C337.206 181.984 337.399 181.995 337.566 182.075C338.786 182.654 340.056 183.122 341.36 183.472C341.53 183.51 341.68 183.61 341.78 183.753C341.88 183.896 341.923 184.072 341.9 184.245C341.877 184.418 341.791 184.576 341.657 184.688C341.524 184.8 341.353 184.859 341.178 184.851ZM361.673 183.238C361.508 183.239 361.348 183.182 361.221 183.077C361.094 182.972 361.008 182.825 360.979 182.663C360.95 182.501 360.979 182.334 361.061 182.191C361.143 182.048 361.273 181.939 361.428 181.883L361.533 181.844C362.749 181.394 363.979 180.922 365.327 180.405C365.499 180.345 365.687 180.353 365.852 180.429C366.017 180.505 366.146 180.643 366.212 180.812C366.277 180.982 366.274 181.17 366.203 181.337C366.132 181.505 365.998 181.638 365.83 181.708C364.492 182.225 363.245 182.696 362.019 183.154L361.914 183.192C361.837 183.222 361.755 183.237 361.673 183.238ZM333.723 181.229C333.57 181.229 333.421 181.179 333.3 181.086C332.148 180.21 331.101 179.203 330.18 178.086C330.063 177.943 330.008 177.759 330.027 177.575C330.045 177.391 330.135 177.222 330.278 177.105C330.421 176.988 330.604 176.932 330.788 176.949C330.972 176.967 331.142 177.056 331.26 177.199C332.11 178.238 333.079 179.176 334.145 179.993C334.256 180.084 334.335 180.207 334.373 180.345C334.411 180.482 334.406 180.629 334.359 180.763C334.311 180.898 334.223 181.015 334.107 181.099C333.991 181.182 333.852 181.228 333.709 181.229H333.723ZM369.471 180.23C369.308 180.231 369.15 180.174 369.025 180.071C368.899 179.967 368.814 179.823 368.783 179.663C368.752 179.504 368.778 179.338 368.857 179.195C368.935 179.053 369.061 178.942 369.212 178.882C370.505 178.368 371.796 177.848 373.087 177.324C373.172 177.29 373.263 177.273 373.355 177.273C373.447 177.274 373.537 177.293 373.622 177.329C373.706 177.365 373.783 177.417 373.847 177.482C373.912 177.548 373.963 177.625 373.997 177.71C374.031 177.795 374.049 177.886 374.048 177.978C374.047 178.07 374.028 178.161 373.992 178.245C373.957 178.33 373.904 178.406 373.839 178.471C373.774 178.535 373.696 178.586 373.611 178.62C372.318 179.144 371.024 179.663 369.729 180.178C369.647 180.212 369.56 180.23 369.471 180.23ZM455.452 178.554C455.281 178.555 455.115 178.494 454.986 178.381C454.858 178.268 454.775 178.112 454.753 177.943C454.586 176.628 454.226 175.345 453.684 174.135C453.647 174.052 453.626 173.961 453.623 173.87C453.62 173.778 453.636 173.687 453.668 173.601C453.701 173.515 453.75 173.436 453.813 173.37C453.876 173.303 453.952 173.249 454.035 173.212C454.119 173.174 454.209 173.153 454.301 173.15C454.393 173.148 454.484 173.163 454.57 173.196C454.656 173.228 454.734 173.277 454.801 173.34C454.868 173.403 454.922 173.479 454.959 173.563C455.557 174.894 455.955 176.306 456.14 177.754C456.152 177.845 456.146 177.938 456.122 178.026C456.098 178.115 456.056 178.198 456 178.27C455.944 178.343 455.874 178.404 455.795 178.45C455.715 178.495 455.627 178.525 455.536 178.536L455.452 178.554ZM377.22 177.087C377.058 177.087 376.901 177.031 376.776 176.928C376.651 176.825 376.566 176.682 376.534 176.524C376.503 176.365 376.528 176.2 376.604 176.058C376.681 175.915 376.805 175.804 376.954 175.742L380.826 174.16C380.995 174.099 381.181 174.106 381.346 174.179C381.51 174.253 381.64 174.387 381.708 174.553C381.776 174.72 381.777 174.907 381.711 175.074C381.645 175.242 381.517 175.377 381.353 175.452L377.482 177.034C377.399 177.069 377.31 177.086 377.22 177.087ZM328.489 174.803C328.355 174.803 328.224 174.764 328.111 174.692C327.998 174.619 327.909 174.516 327.853 174.394C327.244 173.07 326.82 171.669 326.592 170.23C326.563 170.045 326.609 169.856 326.72 169.705C326.831 169.553 326.997 169.452 327.182 169.424C327.368 169.395 327.557 169.441 327.708 169.552C327.86 169.662 327.961 169.829 327.989 170.014C328.187 171.329 328.564 172.612 329.111 173.825C329.159 173.93 329.18 174.045 329.173 174.16C329.165 174.276 329.129 174.387 329.068 174.485C329.007 174.583 328.922 174.664 328.822 174.721C328.721 174.779 328.608 174.81 328.493 174.813L328.489 174.803ZM384.962 173.929C384.801 173.929 384.644 173.872 384.52 173.769C384.395 173.666 384.311 173.523 384.28 173.364C384.249 173.206 384.274 173.041 384.35 172.899C384.427 172.757 384.551 172.646 384.7 172.585C386 172.061 387.295 171.544 388.585 171.034C388.757 170.967 388.949 170.971 389.118 171.045C389.287 171.119 389.42 171.257 389.487 171.428C389.555 171.6 389.552 171.791 389.48 171.961C389.407 172.13 389.27 172.264 389.099 172.333C387.811 172.841 386.519 173.356 385.224 173.88C385.142 173.918 385.053 173.94 384.962 173.943V173.929ZM452.091 171.037C451.99 171.037 451.89 171.015 451.799 170.973C451.707 170.931 451.626 170.869 451.56 170.793C450.685 169.781 449.691 168.878 448.601 168.103C448.455 167.993 448.358 167.831 448.33 167.651C448.303 167.47 448.347 167.286 448.453 167.138C448.559 166.99 448.72 166.889 448.899 166.857C449.079 166.825 449.264 166.865 449.415 166.968C450.595 167.808 451.671 168.786 452.619 169.881C452.706 169.982 452.763 170.106 452.782 170.239C452.801 170.372 452.782 170.507 452.726 170.629C452.671 170.75 452.581 170.854 452.469 170.926C452.356 170.999 452.225 171.037 452.091 171.037ZM392.739 170.88C392.576 170.88 392.417 170.823 392.292 170.718C392.166 170.614 392.081 170.468 392.052 170.308C392.022 170.147 392.05 169.981 392.13 169.838C392.211 169.696 392.338 169.586 392.491 169.528C393.847 169.011 395.167 168.519 396.418 168.065C396.504 168.033 396.596 168.019 396.688 168.023C396.779 168.027 396.869 168.049 396.953 168.088C397.036 168.127 397.111 168.181 397.173 168.249C397.235 168.317 397.283 168.396 397.314 168.482C397.346 168.568 397.36 168.66 397.356 168.752C397.352 168.843 397.33 168.933 397.291 169.017C397.252 169.1 397.198 169.175 397.13 169.237C397.062 169.299 396.983 169.347 396.897 169.378C395.653 169.829 394.339 170.318 392.991 170.831C392.911 170.863 392.825 170.879 392.739 170.88ZM400.597 168.037C400.432 168.036 400.273 167.976 400.147 167.869C400.022 167.762 399.939 167.614 399.912 167.452C399.885 167.289 399.917 167.122 400.001 166.981C400.086 166.839 400.217 166.732 400.373 166.678C401.739 166.214 403.081 165.777 404.363 165.379C404.451 165.351 404.543 165.342 404.634 165.35C404.726 165.358 404.814 165.385 404.896 165.427C404.977 165.47 405.049 165.528 405.108 165.599C405.167 165.669 405.211 165.75 405.238 165.838C405.265 165.926 405.275 166.018 405.267 166.109C405.259 166.201 405.232 166.289 405.19 166.371C405.147 166.452 405.089 166.524 405.018 166.583C404.948 166.641 404.866 166.686 404.779 166.713C403.507 167.108 402.176 167.541 400.824 167.998C400.751 168.024 400.674 168.037 400.597 168.037ZM327.228 166.671H327.141C327.049 166.66 326.961 166.631 326.882 166.586C326.802 166.54 326.732 166.48 326.675 166.408C326.619 166.335 326.577 166.252 326.553 166.164C326.528 166.076 326.521 165.983 326.533 165.892C326.714 164.454 327.079 163.046 327.619 161.701C327.688 161.529 327.822 161.39 327.992 161.317C328.163 161.244 328.355 161.241 328.528 161.31C328.7 161.378 328.838 161.512 328.911 161.683C328.985 161.853 328.987 162.045 328.919 162.218C328.422 163.456 328.088 164.753 327.923 166.077C327.897 166.245 327.811 166.396 327.681 166.505C327.551 166.614 327.387 166.671 327.217 166.668L327.228 166.671ZM445.418 166.144C445.315 166.144 445.214 166.121 445.121 166.077C443.888 165.503 442.618 165.011 441.32 164.607C441.232 164.579 441.151 164.535 441.08 164.476C441.01 164.417 440.952 164.345 440.909 164.263C440.867 164.182 440.841 164.093 440.833 164.001C440.825 163.91 440.835 163.818 440.862 163.73C440.89 163.643 440.934 163.561 440.993 163.491C441.052 163.42 441.124 163.362 441.206 163.32C441.287 163.277 441.376 163.251 441.468 163.243C441.559 163.235 441.651 163.245 441.739 163.273C443.099 163.696 444.428 164.211 445.718 164.813C445.861 164.882 445.976 164.998 446.045 165.141C446.113 165.284 446.13 165.446 446.094 165.601C446.058 165.755 445.97 165.893 445.846 165.991C445.721 166.089 445.566 166.142 445.407 166.14L445.418 166.144ZM408.583 165.56C408.414 165.561 408.25 165.5 408.122 165.388C407.995 165.277 407.912 165.123 407.889 164.955C407.866 164.787 407.905 164.617 407.999 164.476C408.093 164.334 408.235 164.232 408.398 164.188C409.796 163.807 411.158 163.458 412.475 163.14C412.656 163.098 412.846 163.13 413.003 163.228C413.16 163.326 413.272 163.483 413.314 163.664C413.356 163.844 413.324 164.034 413.226 164.191C413.127 164.349 412.971 164.46 412.79 164.502C411.494 164.802 410.138 165.148 408.769 165.522C408.709 165.543 408.647 165.556 408.583 165.56ZM416.724 163.685C416.632 163.693 416.54 163.683 416.452 163.656C416.364 163.628 416.282 163.584 416.211 163.525C416.141 163.466 416.082 163.393 416.039 163.312C415.997 163.23 415.97 163.141 415.962 163.049C415.954 162.957 415.964 162.865 415.991 162.777C416.019 162.689 416.063 162.607 416.122 162.537C416.181 162.466 416.254 162.408 416.335 162.365C416.417 162.322 416.506 162.296 416.598 162.288C418.013 162.029 419.417 161.816 420.766 161.648C420.858 161.637 420.951 161.644 421.04 161.669C421.129 161.694 421.212 161.736 421.285 161.793C421.358 161.849 421.419 161.92 421.464 162.001C421.51 162.081 421.539 162.17 421.55 162.261C421.562 162.353 421.555 162.446 421.53 162.535C421.505 162.624 421.463 162.708 421.406 162.78C421.349 162.853 421.279 162.914 421.198 162.96C421.118 163.005 421.029 163.034 420.937 163.046C419.613 163.206 418.24 163.419 416.85 163.671C416.807 163.682 416.764 163.689 416.72 163.692L416.724 163.685ZM437.477 163.583C437.429 163.588 437.381 163.588 437.333 163.583C436.484 163.409 435.587 163.234 434.692 163.112C434.224 163.042 433.745 162.976 433.274 162.92C433.182 162.909 433.093 162.88 433.013 162.835C432.932 162.79 432.861 162.73 432.804 162.657C432.746 162.585 432.704 162.502 432.679 162.413C432.654 162.324 432.646 162.231 432.657 162.139C432.668 162.047 432.697 161.959 432.742 161.878C432.787 161.797 432.847 161.726 432.92 161.669C432.992 161.612 433.075 161.57 433.164 161.544C433.253 161.519 433.346 161.512 433.438 161.523C433.927 161.579 434.42 161.645 434.902 161.718C435.831 161.858 436.743 162.022 437.616 162.204C437.801 162.222 437.97 162.313 438.088 162.457C438.205 162.6 438.26 162.784 438.242 162.969C438.223 163.153 438.132 163.322 437.989 163.44C437.845 163.557 437.661 163.612 437.477 163.594V163.583ZM425.011 162.679C424.826 162.684 424.646 162.615 424.511 162.488C424.377 162.36 424.298 162.185 424.293 161.999C424.288 161.814 424.357 161.634 424.484 161.5C424.612 161.365 424.787 161.287 424.973 161.282C425.958 161.229 426.94 161.201 427.89 161.201C428.323 161.201 428.767 161.201 429.207 161.201C429.392 161.206 429.568 161.284 429.696 161.418C429.824 161.553 429.893 161.732 429.888 161.917C429.884 162.103 429.806 162.278 429.671 162.406C429.537 162.534 429.357 162.603 429.172 162.598C428.746 162.598 428.32 162.598 427.893 162.598C426.967 162.598 426.014 162.626 425.053 162.675H425.014L425.011 162.679ZM330.233 158.966C330.105 158.966 329.981 158.931 329.872 158.865C329.763 158.8 329.674 158.706 329.614 158.593C329.555 158.481 329.528 158.354 329.535 158.227C329.542 158.1 329.584 157.978 329.656 157.873C329.749 157.738 329.844 157.603 329.939 157.467C330.683 156.442 331.5 155.472 332.385 154.565C332.449 154.499 332.525 154.447 332.609 154.41C332.694 154.374 332.784 154.354 332.876 154.353C332.968 154.352 333.059 154.369 333.144 154.403C333.23 154.437 333.308 154.487 333.373 154.551C333.439 154.615 333.492 154.691 333.528 154.776C333.564 154.86 333.584 154.95 333.585 155.042C333.586 155.134 333.57 155.225 333.536 155.311C333.502 155.396 333.451 155.474 333.387 155.539C332.548 156.397 331.773 157.315 331.067 158.285L330.802 158.662C330.738 158.755 330.654 158.831 330.554 158.884C330.455 158.937 330.345 158.965 330.233 158.966ZM335.99 152.951C335.845 152.952 335.704 152.907 335.585 152.824C335.467 152.741 335.377 152.622 335.329 152.486C335.28 152.349 335.276 152.201 335.315 152.061C335.355 151.922 335.437 151.798 335.55 151.708C336.598 150.866 337.744 150.021 338.97 149.2C339.124 149.1 339.311 149.065 339.491 149.102C339.67 149.139 339.828 149.245 339.93 149.397C340.032 149.549 340.071 149.735 340.037 149.915C340.003 150.095 339.9 150.255 339.749 150.36C338.558 151.159 337.44 151.977 336.43 152.805C336.304 152.901 336.149 152.951 335.99 152.948V152.951ZM342.911 148.278C342.758 148.277 342.609 148.227 342.487 148.133C342.365 148.039 342.277 147.908 342.238 147.76C342.198 147.612 342.208 147.454 342.267 147.313C342.325 147.171 342.429 147.052 342.562 146.975C343.732 146.301 344.98 145.627 346.272 144.97C346.354 144.929 346.443 144.904 346.535 144.897C346.627 144.889 346.719 144.901 346.806 144.929C346.893 144.958 346.974 145.003 347.044 145.063C347.113 145.123 347.171 145.196 347.212 145.277C347.254 145.359 347.279 145.449 347.286 145.54C347.293 145.632 347.282 145.724 347.253 145.811C347.224 145.898 347.179 145.979 347.119 146.049C347.059 146.118 346.987 146.175 346.905 146.217C345.633 146.86 344.407 147.523 343.261 148.183C343.154 148.244 343.034 148.275 342.911 148.274V148.278ZM350.363 144.488C350.204 144.488 350.049 144.434 349.925 144.333C349.801 144.233 349.714 144.094 349.68 143.938C349.647 143.782 349.667 143.619 349.739 143.476C349.81 143.334 349.928 143.22 350.074 143.154C351.314 142.591 352.613 142.033 353.938 141.495C354.023 141.455 354.116 141.434 354.21 141.431C354.305 141.429 354.398 141.445 354.486 141.48C354.574 141.514 354.654 141.566 354.721 141.633C354.788 141.699 354.841 141.778 354.876 141.865C354.912 141.953 354.93 142.046 354.928 142.141C354.926 142.235 354.906 142.328 354.867 142.414C354.829 142.5 354.774 142.578 354.704 142.642C354.635 142.706 354.554 142.755 354.465 142.787C353.158 143.321 351.873 143.873 350.65 144.429C350.559 144.467 350.462 144.486 350.363 144.485V144.488ZM358.099 141.32C357.935 141.319 357.778 141.261 357.653 141.157C357.528 141.052 357.443 140.906 357.414 140.746C357.385 140.585 357.413 140.42 357.494 140.278C357.574 140.136 357.702 140.026 357.854 139.968C359.136 139.49 360.471 139.018 361.812 138.571C361.988 138.511 362.18 138.524 362.347 138.606C362.513 138.688 362.64 138.832 362.7 139.008C362.76 139.183 362.747 139.375 362.665 139.542C362.583 139.708 362.439 139.835 362.263 139.895C360.932 140.345 359.611 140.814 358.343 141.292C358.267 141.313 358.188 141.322 358.109 141.316L358.099 141.32ZM366.019 138.63C365.852 138.632 365.691 138.574 365.563 138.466C365.436 138.359 365.351 138.209 365.324 138.045C365.297 137.881 365.33 137.712 365.416 137.57C365.503 137.427 365.637 137.32 365.795 137.268C367.13 136.856 368.486 136.454 369.824 136.077C370.002 136.027 370.193 136.049 370.355 136.14C370.517 136.23 370.636 136.381 370.687 136.559C370.737 136.738 370.715 136.929 370.624 137.09C370.534 137.252 370.383 137.371 370.204 137.422C368.877 137.796 367.532 138.194 366.211 138.603C366.149 138.62 366.084 138.628 366.019 138.627V138.63Z" fill="#0A0627"/>
<path d="M454.886 184.772C454.775 184.772 454.665 184.746 454.566 184.695C454.467 184.644 454.382 184.57 454.317 184.48C454.253 184.389 454.211 184.284 454.195 184.174C454.179 184.064 454.189 183.952 454.225 183.847C454.437 183.223 454.595 182.583 454.697 181.933C454.712 181.842 454.744 181.755 454.792 181.677C454.841 181.599 454.904 181.531 454.978 181.478C455.053 181.424 455.137 181.386 455.226 181.364C455.316 181.343 455.408 181.34 455.499 181.355C455.59 181.369 455.676 181.402 455.755 181.45C455.833 181.498 455.9 181.561 455.954 181.636C456.008 181.71 456.046 181.795 456.067 181.884C456.089 181.973 456.092 182.066 456.077 182.156C455.962 182.886 455.784 183.605 455.546 184.304C455.498 184.441 455.409 184.56 455.291 184.644C455.172 184.728 455.031 184.773 454.886 184.772Z" fill="#0A0627"/>
<path d="M330.477 305.014C328.089 305.013 325.799 305.96 324.109 307.646C322.419 309.332 321.467 311.621 321.464 314.008C321.464 312.825 321.231 311.653 320.779 310.56C320.326 309.467 319.662 308.474 318.825 307.637C317.989 306.801 316.995 306.137 315.902 305.685C314.808 305.232 313.637 304.999 312.453 305C313.637 305 314.809 304.767 315.902 304.314C316.995 303.861 317.989 303.197 318.826 302.36C319.662 301.523 320.326 300.53 320.779 299.437C321.231 298.343 321.464 297.172 321.464 295.988C321.462 297.173 321.693 298.346 322.146 299.441C322.598 300.536 323.261 301.531 324.099 302.369C324.936 303.208 325.93 303.873 327.025 304.327C328.119 304.78 329.292 305.014 330.477 305.014Z" fill="#3257FB"/>
<path d="M83.0221 300.595C82.2827 300.595 81.5504 300.74 80.8671 301.023C80.1838 301.305 79.5629 301.72 79.0399 302.242C78.5169 302.765 78.102 303.385 77.8189 304.068C77.5359 304.751 77.3902 305.483 77.3902 306.222C77.3902 304.73 76.7972 303.299 75.7416 302.243C74.6861 301.188 73.2545 300.595 71.7617 300.595C72.5011 300.595 73.2333 300.45 73.9164 300.167C74.5995 299.884 75.2202 299.469 75.7429 298.946C76.2656 298.423 76.6801 297.802 76.9627 297.119C77.2454 296.436 77.3906 295.704 77.3902 294.965C77.3902 296.458 77.9835 297.89 79.0397 298.946C80.0959 300.002 81.5284 300.595 83.0221 300.595Z" fill="#0A0627"/>
<path d="M297.161 54.1401C295.042 54.1401 293.009 54.9816 291.51 56.4796C290.011 57.9775 289.168 60.0093 289.168 62.1283C289.168 61.0789 288.961 60.0399 288.559 59.0705C288.157 58.1011 287.568 57.2204 286.826 56.4785C286.084 55.7367 285.202 55.1484 284.233 54.7472C283.263 54.3459 282.223 54.1396 281.174 54.1401C283.293 54.1392 285.326 53.2968 286.824 51.7982C288.322 50.2995 289.164 48.2674 289.164 46.1484C289.165 48.2683 290.008 50.301 291.508 51.7996C293.007 53.2982 295.041 54.1401 297.161 54.1401Z" fill="#0A0627"/>
<path d="M95.9978 111.855C98.429 111.855 100.4 109.884 100.4 107.454C100.4 105.023 98.429 103.053 95.9978 103.053C93.5666 103.053 91.5957 105.023 91.5957 107.454C91.5957 109.884 93.5666 111.855 95.9978 111.855Z" fill="#3257FB"/>
</svg>
