<svg width="511" height="521" viewBox="0 0 511 521" fill="none" xmlns="http://www.w3.org/2000/svg">
<path d="M410.299 353.109L420.755 256.305H408.156L397.699 353.109H410.299Z" fill="white"/>
<path d="M410.297 354.069H397.698C397.563 354.069 397.43 354.042 397.306 353.987C397.183 353.933 397.072 353.853 396.982 353.754C396.891 353.654 396.823 353.536 396.781 353.408C396.74 353.28 396.725 353.145 396.74 353.011L407.203 256.203C407.228 255.968 407.34 255.75 407.517 255.593C407.694 255.435 407.923 255.348 408.161 255.35H420.76C420.895 255.349 421.028 255.377 421.152 255.431C421.275 255.485 421.386 255.565 421.476 255.665C421.567 255.764 421.635 255.882 421.677 256.01C421.718 256.138 421.732 256.273 421.718 256.407L411.262 353.212C411.237 353.449 411.125 353.668 410.946 353.827C410.768 353.985 410.536 354.071 410.297 354.069ZM398.765 352.157H409.438L419.687 257.264H409.013L398.765 352.157Z" fill="#262424"/>
<path d="M404.713 353.109L415.169 256.305H402.566L392.113 353.109H404.713Z" fill="white"/>
<path d="M404.711 354.069H392.112C391.977 354.069 391.844 354.042 391.72 353.987C391.597 353.933 391.486 353.853 391.396 353.754C391.305 353.654 391.237 353.536 391.195 353.408C391.154 353.28 391.14 353.145 391.154 353.011L401.613 256.203C401.639 255.968 401.751 255.75 401.928 255.593C402.105 255.435 402.334 255.348 402.572 255.35H415.171C415.306 255.349 415.439 255.377 415.563 255.431C415.686 255.485 415.797 255.565 415.887 255.665C415.978 255.764 416.046 255.882 416.088 256.01C416.129 256.138 416.143 256.273 416.129 256.407L405.673 353.212C405.648 353.448 405.536 353.667 405.358 353.826C405.18 353.984 404.95 354.071 404.711 354.069ZM393.179 352.157H403.852L414.101 257.264H403.427L393.179 352.157Z" fill="#262424"/>
<path d="M447.781 265.506H378.141C374.5 265.506 371.869 262.563 372.261 258.931L378.33 202.862C378.722 199.231 381.99 196.287 385.631 196.287H455.254C458.895 196.287 461.527 199.231 461.134 202.862L455.066 258.931C454.692 262.563 451.422 265.506 447.781 265.506Z" fill="white"/>
<path d="M447.781 266.461H378.141C377.166 266.48 376.198 266.288 375.304 265.899C374.41 265.509 373.611 264.932 372.962 264.205C372.312 263.479 371.828 262.621 371.543 261.691C371.257 260.761 371.176 259.78 371.306 258.815L377.375 202.747C377.819 198.65 381.526 195.318 385.627 195.318H455.251C456.226 195.299 457.194 195.491 458.088 195.88C458.982 196.269 459.781 196.847 460.43 197.573C461.08 198.3 461.564 199.157 461.849 200.088C462.135 201.018 462.216 201.999 462.086 202.963L456.018 259.032C455.593 263.129 451.891 266.461 447.781 266.461ZM385.624 197.248C384.052 197.285 382.546 197.885 381.38 198.938C380.215 199.99 379.468 201.426 379.275 202.982L373.207 259.051C373.116 259.752 373.177 260.465 373.384 261.141C373.591 261.817 373.94 262.442 374.408 262.973C374.88 263.487 375.457 263.895 376.099 264.169C376.742 264.444 377.436 264.579 378.135 264.566H447.758C449.33 264.528 450.837 263.929 452.002 262.876C453.168 261.823 453.915 260.388 454.108 258.831L460.176 202.763C460.266 202.061 460.206 201.349 459.999 200.673C459.792 199.997 459.443 199.372 458.975 198.841C458.503 198.327 457.926 197.919 457.283 197.644C456.641 197.37 455.947 197.235 455.248 197.248H385.624Z" fill="#262424"/>
<path d="M432.831 265.506H363.208C359.567 265.506 356.935 262.563 357.328 258.931L363.396 202.862C363.789 199.231 367.056 196.287 370.697 196.287H440.321C443.962 196.287 446.593 199.231 446.2 202.862L440.132 258.931C439.739 262.563 436.472 265.506 432.831 265.506Z" fill="#3257FB"/>
<path d="M432.831 266.461H363.208C362.232 266.48 361.264 266.288 360.37 265.899C359.476 265.509 358.677 264.932 358.028 264.205C357.379 263.479 356.895 262.621 356.609 261.691C356.323 260.761 356.243 259.78 356.373 258.815L362.441 202.747C362.885 198.65 366.593 195.318 370.694 195.318H440.318C441.293 195.299 442.261 195.491 443.155 195.88C444.049 196.269 444.848 196.847 445.497 197.573C446.146 198.3 446.63 199.157 446.916 200.088C447.202 201.018 447.282 201.999 447.152 202.963L441.084 259.032C440.643 263.129 436.942 266.461 432.831 266.461ZM370.675 197.248C369.103 197.285 367.596 197.885 366.431 198.938C365.265 199.99 364.518 201.426 364.325 202.982L358.257 259.051C358.167 259.752 358.227 260.465 358.434 261.141C358.641 261.817 358.99 262.442 359.458 262.973C359.93 263.487 360.507 263.895 361.15 264.169C361.792 264.444 362.486 264.579 363.185 264.566H432.809C434.381 264.528 435.887 263.929 437.053 262.876C438.218 261.823 438.966 260.388 439.158 258.831L445.226 202.763C445.317 202.061 445.256 201.349 445.049 200.673C444.842 199.997 444.493 199.372 444.025 198.841C443.553 198.327 442.976 197.919 442.334 197.644C441.691 197.37 440.997 197.235 440.298 197.248H370.675Z" fill="#3257FB"/>
<path d="M373.99 375.412H359.746V407.269H373.99V375.412Z" fill="white"/>
<path d="M373.987 408.226H359.743C359.489 408.226 359.245 408.125 359.066 407.946C358.886 407.766 358.785 407.523 358.785 407.27V375.413C358.785 375.159 358.886 374.916 359.066 374.737C359.245 374.558 359.489 374.457 359.743 374.457H373.987C374.242 374.457 374.485 374.558 374.665 374.737C374.845 374.916 374.946 375.159 374.946 375.413V407.27C374.946 407.523 374.845 407.766 374.665 407.946C374.485 408.125 374.242 408.226 373.987 408.226ZM360.701 406.314H373.029V376.368H360.701V406.314Z" fill="#262424"/>
<path d="M344.285 365.855H389.438C389.438 369.066 388.16 372.145 385.884 374.416C383.608 376.686 380.521 377.961 377.302 377.961H356.421C353.203 377.961 350.116 376.686 347.84 374.416C345.564 372.145 344.285 369.066 344.285 365.855Z" fill="#3257FB"/>
<path d="M359.771 403.176H373.964C375.129 403.176 376.247 403.638 377.071 404.46C377.895 405.282 378.358 406.397 378.358 407.559V421.443H355.363V407.559C355.363 406.397 355.826 405.282 356.65 404.46C357.475 403.638 358.592 403.176 359.758 403.176H359.771Z" fill="#3257FB"/>
<path d="M366.866 421.445V436.896L312.611 461.082H302.129C302.129 459.143 302.623 457.236 303.564 455.54C304.506 453.844 305.863 452.414 307.51 451.385L355.375 421.458H366.873L366.866 421.445Z" fill="white"/>
<path d="M312.612 462.026H302.13C301.876 462.026 301.632 461.926 301.453 461.747C301.273 461.567 301.172 461.324 301.172 461.071C301.165 458.968 301.696 456.899 302.716 455.059C303.737 453.219 305.211 451.669 307.001 450.558L354.865 420.65C355.017 420.555 355.193 420.504 355.373 420.504H366.871C367.125 420.504 367.368 420.605 367.548 420.784C367.728 420.963 367.829 421.206 367.829 421.46V436.898C367.829 437.082 367.775 437.263 367.674 437.418C367.573 437.573 367.429 437.695 367.26 437.77L312.989 461.944C312.87 461.996 312.742 462.025 312.612 462.026ZM303.13 460.115H312.392L365.909 436.26V422.403H355.651L308.019 452.189C306.645 453.042 305.487 454.202 304.639 455.578C303.79 456.953 303.274 458.506 303.13 460.115Z" fill="#262424"/>
<path d="M306.813 483.411C311.782 483.411 315.81 479.393 315.81 474.437C315.81 469.481 311.782 465.463 306.813 465.463C301.844 465.463 297.816 469.481 297.816 474.437C297.816 479.393 301.844 483.411 306.813 483.411Z" fill="#262424"/>
<path d="M306.811 477.36C308.429 477.36 309.74 476.052 309.74 474.439C309.74 472.825 308.429 471.518 306.811 471.518C305.194 471.518 303.883 472.825 303.883 474.439C303.883 476.052 305.194 477.36 306.811 477.36Z" fill="white"/>
<path d="M366.866 421.445V436.896L421.121 461.082H431.603C431.603 459.143 431.109 457.236 430.168 455.54C429.226 453.844 427.868 452.414 426.222 451.385L378.357 421.458H366.859L366.866 421.445Z" fill="white"/>
<path d="M431.606 462.026H421.124C420.989 462.025 420.857 461.997 420.734 461.943L366.479 437.757C366.309 437.682 366.166 437.559 366.065 437.404C365.964 437.249 365.91 437.069 365.91 436.884V421.446C365.91 421.192 366.011 420.949 366.191 420.77C366.371 420.591 366.614 420.49 366.868 420.49H378.366C378.545 420.491 378.721 420.541 378.874 420.637L426.738 450.563C428.528 451.675 430.002 453.224 431.022 455.064C432.042 456.904 432.574 458.974 432.567 461.076C432.565 461.329 432.463 461.571 432.283 461.749C432.103 461.927 431.859 462.026 431.606 462.026ZM421.328 460.114H430.59C430.449 458.508 429.937 456.956 429.094 455.581C428.25 454.206 427.098 453.044 425.729 452.188L378.098 422.408H367.826V436.26L421.328 460.114Z" fill="#262424"/>
<path d="M426.919 483.411C431.887 483.411 435.915 479.393 435.915 474.437C435.915 469.481 431.887 465.463 426.919 465.463C421.95 465.463 417.922 469.481 417.922 474.437C417.922 479.393 421.95 483.411 426.919 483.411Z" fill="#262424"/>
<path d="M426.917 477.36C428.534 477.36 429.846 476.052 429.846 474.439C429.846 472.825 428.534 471.518 426.917 471.518C425.299 471.518 423.988 472.825 423.988 474.439C423.988 476.052 425.299 477.36 426.917 477.36Z" fill="white"/>
<path d="M372.835 461.069H360.894L355.375 421.445H378.357L372.835 461.069Z" fill="white"/>
<path d="M372.837 462.026H360.892C360.659 462.028 360.433 461.945 360.257 461.793C360.081 461.641 359.966 461.431 359.934 461.2L354.415 421.577C354.396 421.441 354.407 421.302 354.447 421.171C354.487 421.039 354.554 420.918 354.645 420.815C354.736 420.712 354.848 420.629 354.974 420.573C355.099 420.517 355.236 420.489 355.373 420.49H378.368C378.506 420.489 378.642 420.517 378.768 420.573C378.894 420.629 379.006 420.712 379.097 420.815C379.188 420.918 379.255 421.039 379.295 421.171C379.335 421.302 379.345 421.441 379.326 421.577L373.808 461.2C373.776 461.433 373.659 461.645 373.48 461.798C373.301 461.95 373.072 462.031 372.837 462.026ZM361.729 460.114H372.003L377.257 422.402H356.475L361.729 460.114Z" fill="#262424"/>
<path d="M370.899 465.463H363.502C361.797 465.463 360.414 466.842 360.414 468.543V480.331C360.414 482.032 361.797 483.411 363.502 483.411H370.899C372.605 483.411 373.987 482.032 373.987 480.331V468.543C373.987 466.842 372.605 465.463 370.899 465.463Z" fill="#262424"/>
<path d="M370.05 348.016H314.798C309.859 348.016 305.855 352.009 305.855 356.936C305.855 361.862 309.859 365.856 314.798 365.856H370.05C374.989 365.856 378.992 361.862 378.992 356.936C378.992 352.009 374.989 348.016 370.05 348.016Z" fill="white"/>
<path d="M370.051 366.812H314.799C312.173 366.812 309.655 365.771 307.798 363.919C305.942 362.067 304.898 359.555 304.898 356.936C304.898 354.317 305.942 351.805 307.798 349.953C309.655 348.101 312.173 347.061 314.799 347.061H370.051C372.677 347.061 375.195 348.101 377.052 349.953C378.909 351.805 379.952 354.317 379.952 356.936C379.952 359.555 378.909 362.067 377.052 363.919C375.195 365.771 372.677 366.812 370.051 366.812ZM314.799 348.972C312.681 348.972 310.651 349.811 309.153 351.305C307.656 352.798 306.815 354.824 306.815 356.936C306.815 359.049 307.656 361.074 309.153 362.568C310.651 364.061 312.681 364.901 314.799 364.901H370.051C372.169 364.901 374.199 364.061 375.697 362.568C377.194 361.074 378.035 359.049 378.035 356.936C378.035 354.824 377.194 352.798 375.697 351.305C374.199 349.811 372.169 348.972 370.051 348.972H314.799Z" fill="#262424"/>
<path d="M418.934 348.016H371.114C366.176 348.016 362.172 352.009 362.172 356.936C362.172 361.862 366.176 365.856 371.114 365.856H418.934C423.873 365.856 427.877 361.862 427.877 356.936C427.877 352.009 423.873 348.016 418.934 348.016Z" fill="white"/>
<path d="M418.932 366.812H371.112C368.486 366.812 365.967 365.771 364.111 363.919C362.254 362.067 361.211 359.555 361.211 356.936C361.211 354.317 362.254 351.805 364.111 349.953C365.967 348.101 368.486 347.061 371.112 347.061H418.932C421.557 347.061 424.076 348.101 425.932 349.953C427.789 351.805 428.832 354.317 428.832 356.936C428.832 359.555 427.789 362.067 425.932 363.919C424.076 365.771 421.557 366.812 418.932 366.812ZM371.112 348.972C368.994 348.972 366.963 349.811 365.466 351.305C363.968 352.798 363.127 354.824 363.127 356.936C363.127 359.049 363.968 361.074 365.466 362.568C366.963 364.061 368.994 364.901 371.112 364.901H418.932C421.049 364.901 423.08 364.061 424.577 362.568C426.075 361.074 426.916 359.049 426.916 356.936C426.916 354.824 426.075 352.798 424.577 351.305C423.08 349.811 421.049 348.972 418.932 348.972H371.112Z" fill="#262424"/>
<path d="M206.599 256.267V261.364H164.527V256.267L172.352 238.061H203.031L195.207 256.267H206.599Z" fill="white"/>
<path d="M206.6 262.32H164.528C164.274 262.32 164.031 262.22 163.851 262.04C163.671 261.861 163.57 261.618 163.57 261.365V256.268C163.57 256.138 163.596 256.01 163.647 255.892L171.472 237.685C171.546 237.513 171.668 237.366 171.825 237.263C171.982 237.16 172.165 237.105 172.353 237.105H203.032C203.191 237.105 203.347 237.145 203.487 237.219C203.626 237.294 203.745 237.403 203.832 237.535C203.92 237.667 203.973 237.818 203.987 237.976C204.001 238.133 203.976 238.292 203.914 238.437L196.661 255.321H206.6C206.854 255.321 207.098 255.422 207.277 255.601C207.457 255.781 207.558 256.024 207.558 256.277V261.374C207.555 261.626 207.453 261.867 207.274 262.044C207.094 262.221 206.852 262.32 206.6 262.32ZM165.487 260.409H205.642V257.223H195.208C195.049 257.223 194.893 257.184 194.753 257.109C194.614 257.034 194.495 256.926 194.407 256.794C194.32 256.662 194.267 256.511 194.253 256.353C194.239 256.196 194.264 256.037 194.326 255.892L201.579 239.007H172.986L165.487 256.455V260.409Z" fill="#262424"/>
<path d="M206.603 256.268H181.219V261.365H206.603V256.268Z" fill="white"/>
<path d="M206.6 262.319H181.216C180.962 262.319 180.718 262.218 180.538 262.039C180.359 261.86 180.258 261.617 180.258 261.363V256.266C180.258 256.013 180.359 255.77 180.538 255.59C180.718 255.411 180.962 255.311 181.216 255.311H206.6C206.854 255.311 207.098 255.411 207.277 255.59C207.457 255.77 207.558 256.013 207.558 256.266V261.363C207.558 261.617 207.457 261.86 207.277 262.039C207.098 262.218 206.854 262.319 206.6 262.319ZM182.174 260.408H205.642V257.222H182.174V260.408Z" fill="#262424"/>
<path d="M181.215 256.267V261.364H164.527V256.267L172.352 238.061H177.647L169.823 256.267H181.215Z" fill="white"/>
<path d="M181.216 262.32H164.528C164.274 262.32 164.031 262.22 163.851 262.04C163.671 261.861 163.57 261.618 163.57 261.365V256.268C163.57 256.138 163.596 256.01 163.647 255.892L171.472 237.685C171.545 237.513 171.668 237.366 171.825 237.263C171.982 237.16 172.165 237.105 172.353 237.105H177.648C177.806 237.106 177.96 237.145 178.099 237.22C178.238 237.294 178.356 237.401 178.443 237.532C178.53 237.663 178.583 237.813 178.599 237.969C178.614 238.125 178.59 238.283 178.53 238.428L171.277 255.312H181.216C181.47 255.312 181.714 255.412 181.893 255.592C182.073 255.771 182.174 256.014 182.174 256.268V261.365C182.174 261.618 182.073 261.861 181.893 262.04C181.714 262.22 181.47 262.32 181.216 262.32ZM165.487 260.409H180.258V257.223H169.824C169.665 257.223 169.509 257.184 169.369 257.109C169.23 257.034 169.111 256.926 169.024 256.794C168.936 256.662 168.883 256.511 168.869 256.353C168.855 256.196 168.88 256.037 168.942 255.892L176.195 239.007H172.986L165.487 256.455V260.409Z" fill="#262424"/>
<path d="M245.783 244.161H120.051C119.12 244.142 118.227 243.788 117.536 243.164C116.845 242.54 116.404 241.688 116.292 240.765L108.12 162.397C108.063 161.967 108.1 161.531 108.228 161.117C108.356 160.703 108.573 160.322 108.862 160C109.152 159.677 109.508 159.421 109.906 159.248C110.305 159.076 110.736 158.991 111.17 159.001H236.901C237.833 159.02 238.726 159.374 239.417 159.998C240.107 160.622 240.549 161.474 240.66 162.397L248.833 240.765C248.89 241.195 248.853 241.631 248.725 242.045C248.596 242.459 248.38 242.84 248.09 243.162C247.801 243.485 247.444 243.741 247.046 243.914C246.648 244.086 246.217 244.17 245.783 244.161Z" fill="#0A0627"/>
<path d="M251.267 244.161H125.536C124.604 244.142 123.711 243.788 123.02 243.164C122.33 242.54 121.888 241.688 121.777 240.765L113.604 162.397C113.547 161.967 113.584 161.531 113.712 161.117C113.841 160.703 114.057 160.322 114.347 160C114.636 159.677 114.993 159.421 115.391 159.248C115.789 159.076 116.22 158.991 116.654 159.001H242.386C243.317 159.02 244.21 159.374 244.901 159.998C245.592 160.622 246.033 161.474 246.145 162.397L254.317 240.765C254.374 241.195 254.337 241.631 254.209 242.045C254.081 242.459 253.864 242.84 253.575 243.162C253.285 243.485 252.929 243.741 252.531 243.914C252.132 244.086 251.701 244.17 251.267 244.161Z" fill="#3257FB"/>
<path d="M247.251 238.06H128.283C127.796 238.05 127.328 237.864 126.967 237.538C126.606 237.211 126.374 236.765 126.316 236.282L119.076 166.881C119.046 166.657 119.066 166.428 119.133 166.212C119.2 165.995 119.314 165.796 119.465 165.627C119.617 165.458 119.803 165.324 120.012 165.234C120.22 165.144 120.446 165.099 120.673 165.104H239.64C240.127 165.114 240.595 165.3 240.956 165.626C241.318 165.953 241.549 166.399 241.607 166.881L248.847 236.282C248.877 236.507 248.857 236.735 248.79 236.952C248.723 237.168 248.61 237.368 248.458 237.537C248.306 237.705 248.12 237.84 247.912 237.93C247.703 238.02 247.478 238.065 247.251 238.06Z" fill="white"/>
<circle cx="183.5" cy="202.5" r="34.5" fill="#F1F6FF"/>
<path d="M187.795 188L188.357 193.374L187.105 194.77L185.562 193.374L185 188H187.795Z" fill="white"/>
<path d="M198.195 196.344C198.195 196.344 206.585 199.478 211.542 237.812H201.322L198.195 196.344Z" fill="#3257FB"/>
<path d="M178.825 177.393C178.825 177.393 176.992 183.321 180.451 190.053H192.708C192.708 190.053 192.871 183.602 191.549 178.941C190.227 174.28 178.825 177.393 178.825 177.393Z" fill="#262424"/>
<path d="M163.042 207.914L156.447 196.216C156.353 196.055 156.207 195.93 156.033 195.862C155.859 195.794 155.667 195.786 155.489 195.84C155.403 195.872 155.325 195.92 155.258 195.983C155.192 196.045 155.139 196.12 155.102 196.203C155.064 196.286 155.044 196.375 155.042 196.466C155.04 196.557 155.056 196.648 155.089 196.732L156.214 200.045L154.556 201.957C153.598 203.043 153.793 204.77 154.962 205.856L160.832 210.157L163.042 207.914Z" fill="white"/>
<path d="M160.844 211.116C160.641 211.116 160.443 211.051 160.279 210.931L154.405 206.64L154.319 206.57C152.764 205.124 152.556 202.83 153.843 201.345L155.14 199.848L154.182 197.054C154.108 196.852 154.074 196.637 154.083 196.421C154.093 196.206 154.145 195.995 154.236 195.799C154.327 195.604 154.457 195.428 154.616 195.283C154.776 195.138 154.962 195.025 155.166 194.952C155.552 194.822 155.972 194.829 156.354 194.97C156.736 195.112 157.058 195.38 157.267 195.729L157.283 195.758L163.878 207.446C163.979 207.626 164.019 207.834 163.992 208.038C163.965 208.242 163.872 208.433 163.728 208.58L161.534 210.826C161.444 210.918 161.337 210.991 161.219 211.041C161.1 211.091 160.973 211.116 160.844 211.116ZM155.574 205.127L160.726 208.899L161.841 207.758L156.807 198.838L157.127 199.74C157.181 199.898 157.193 200.068 157.161 200.232C157.129 200.397 157.054 200.55 156.944 200.676L155.287 202.588C154.702 203.263 154.837 204.41 155.574 205.127Z" fill="#262424"/>
<path d="M175.917 196.344C173.681 198.36 171.037 203.053 167.932 210.839L163.266 205.901L158.734 209.963C158.734 209.963 164.905 227.006 170.174 227.006C175.444 227.006 181.442 214.951 181.442 214.951L175.917 196.344Z" fill="#3257FB"/>
<path d="M168.775 222.888C168.565 222.888 168.361 222.819 168.195 222.693C168.028 222.566 167.907 222.388 167.852 222.187C166.967 218.913 166.702 215.503 167.072 212.133C167.09 212.009 167.132 211.889 167.196 211.781C167.261 211.673 167.345 211.579 167.446 211.504C167.547 211.428 167.661 211.373 167.783 211.342C167.905 211.311 168.032 211.304 168.157 211.322C168.281 211.34 168.401 211.382 168.509 211.446C168.618 211.51 168.712 211.595 168.788 211.695C168.863 211.795 168.918 211.91 168.949 212.031C168.98 212.153 168.987 212.279 168.969 212.404C168.644 215.513 168.888 218.655 169.691 221.677C169.73 221.819 169.737 221.967 169.709 222.111C169.681 222.255 169.621 222.391 169.532 222.508C169.444 222.625 169.329 222.72 169.198 222.786C169.066 222.852 168.922 222.887 168.775 222.888Z" fill="#262424"/>
<path d="M203.743 237.813H179.02C175.53 217.634 175.919 196.344 175.919 196.344C179.915 193.318 186.615 192.098 186.615 192.098C186.615 192.098 193.568 193.318 198.196 196.344C198.192 196.344 203.025 217.634 203.743 237.813Z" fill="#3257FB"/>
<path d="M176.804 220.821C176.563 220.822 176.33 220.731 176.152 220.568C175.975 220.405 175.865 220.182 175.846 219.942C175.092 210.738 174.958 202.869 174.945 198.999C174.945 198.745 175.046 198.502 175.226 198.323C175.406 198.144 175.649 198.043 175.903 198.043C176.158 198.043 176.401 198.144 176.581 198.323C176.761 198.502 176.862 198.745 176.862 198.999C176.862 202.841 177.008 210.652 177.756 219.792C177.776 220.044 177.695 220.295 177.53 220.488C177.366 220.681 177.131 220.801 176.878 220.821H176.798H176.804Z" fill="#262424"/>
<path d="M203.588 235.426C203.343 235.426 203.107 235.333 202.929 235.165C202.751 234.997 202.644 234.768 202.63 234.524C201.79 219.701 198.986 204.875 197.82 199.188C197.795 199.065 197.794 198.938 197.818 198.815C197.842 198.692 197.89 198.575 197.96 198.47C198.029 198.365 198.118 198.275 198.223 198.205C198.327 198.135 198.444 198.085 198.567 198.06C198.691 198.035 198.818 198.035 198.941 198.058C199.065 198.082 199.183 198.13 199.288 198.199C199.393 198.269 199.483 198.358 199.553 198.462C199.624 198.566 199.673 198.683 199.698 198.806C200.873 204.54 203.7 219.468 204.546 234.419C204.56 234.672 204.473 234.92 204.303 235.109C204.134 235.298 203.896 235.412 203.642 235.426H203.588Z" fill="#262424"/>
<path d="M187.04 196.207C190.03 196.207 191.336 197.8 191.336 197.8C191.882 193.519 188.982 190.699 186.465 190.699C183.949 190.699 181.636 193.519 183.077 197.8C183.077 197.791 184.051 196.207 187.04 196.207Z" fill="#0A0627"/>
<path d="M186.808 194.91C186.572 194.909 186.345 194.82 186.17 194.662L184.637 193.26C184.458 193.104 184.344 192.887 184.317 192.651L183.755 187.277C183.741 187.144 183.756 187.009 183.798 186.881C183.839 186.753 183.908 186.636 183.998 186.537C184.089 186.437 184.199 186.358 184.322 186.304C184.445 186.25 184.579 186.222 184.713 186.223H187.511C187.749 186.221 187.979 186.308 188.156 186.467C188.333 186.625 188.445 186.844 188.469 187.08L189.031 192.454C189.045 192.586 189.031 192.72 188.989 192.847C188.948 192.974 188.881 193.091 188.792 193.19L187.511 194.592C187.427 194.686 187.325 194.762 187.211 194.817C187.097 194.872 186.973 194.903 186.847 194.91H186.808ZM186.17 192.097L186.729 192.6L187.048 192.237L186.62 188.14H185.751L186.17 192.097Z" fill="#262424"/>
<path d="M186.257 188.699C185.045 188.674 183.883 188.213 182.984 187.401C182.085 186.589 181.51 185.481 181.365 184.281L181.064 181.414C180.991 180.855 181.04 180.287 181.207 179.749C181.374 179.211 181.656 178.715 182.032 178.295C182.409 177.876 182.873 177.542 183.391 177.318C183.909 177.094 184.469 176.983 185.034 176.995C186.246 177.021 187.409 177.482 188.307 178.293C189.206 179.105 189.781 180.213 189.927 181.414L190.227 184.281C190.3 184.839 190.252 185.407 190.085 185.945C189.918 186.484 189.636 186.979 189.259 187.399C188.882 187.819 188.419 188.152 187.901 188.376C187.383 188.601 186.822 188.711 186.257 188.699Z" fill="white"/>
<path d="M186.258 189.655C184.811 189.623 183.424 189.072 182.35 188.103C181.277 187.134 180.589 185.812 180.413 184.379L180.113 181.512C180.025 180.82 180.087 180.117 180.296 179.451C180.504 178.785 180.854 178.171 181.321 177.651C181.788 177.132 182.362 176.719 183.003 176.44C183.644 176.161 184.338 176.024 185.038 176.036C186.485 176.068 187.872 176.619 188.945 177.588C190.019 178.556 190.706 179.878 190.882 181.311L191.183 184.179C191.271 184.871 191.208 185.574 191 186.24C190.792 186.906 190.442 187.52 189.975 188.039C189.508 188.559 188.934 188.972 188.293 189.251C187.651 189.529 186.957 189.667 186.258 189.655ZM185.038 177.947C184.612 177.937 184.188 178.016 183.795 178.181C183.402 178.346 183.048 178.592 182.757 178.903C182.471 179.227 182.258 179.609 182.13 180.022C182.003 180.435 181.965 180.87 182.02 181.299L182.32 184.166C182.437 185.133 182.9 186.026 183.623 186.68C184.346 187.335 185.281 187.708 186.258 187.731C186.684 187.741 187.108 187.662 187.501 187.497C187.894 187.332 188.247 187.086 188.538 186.775C188.824 186.451 189.038 186.069 189.165 185.656C189.292 185.243 189.33 184.808 189.276 184.379L188.976 181.512C188.858 180.545 188.396 179.652 187.673 178.998C186.95 178.343 186.014 177.97 185.038 177.947Z" fill="#262424"/>
<path d="M179.926 181.928C179.926 181.928 186.712 183.703 188.629 178.606C188.629 178.606 187.99 183.088 190.107 183.088C190.107 183.088 191.784 181.935 191.551 178.947C191.318 175.958 187.511 171.339 182.251 173.604C176.138 176.232 179.926 181.928 179.926 181.928Z" fill="#262424"/>
<path d="M242.909 290.943H235.184V483.408H242.909V290.943Z" fill="#0A0627"/>
<path d="M176 236L189 234.5L201.5 231L213.5 218.5L214.5 237.5H167L176 236Z" fill="white"/>
<circle cx="183.5" cy="202.5" r="33" stroke="white" stroke-width="3"/>
<path d="M284.566 290.943H276.84V483.408H284.566V290.943Z" fill="#0A0627"/>
<path d="M276.838 290.943V483.408H261.383V455.046H235.185V483.408H219.73V290.943H235.185V439.63H261.383V290.943H276.838Z" fill="#0A0627"/>
<path d="M235.185 482.772C234.973 482.772 234.77 482.688 234.621 482.539C234.471 482.389 234.387 482.187 234.387 481.976V455.056C234.387 454.845 234.471 454.642 234.621 454.493C234.77 454.344 234.973 454.26 235.185 454.26C235.397 454.26 235.6 454.344 235.75 454.493C235.899 454.642 235.984 454.845 235.984 455.056V481.985C235.981 482.195 235.896 482.395 235.746 482.542C235.597 482.689 235.395 482.772 235.185 482.772Z" fill="#262424"/>
<path d="M276.837 482.134C276.626 482.134 276.423 482.05 276.273 481.9C276.123 481.751 276.039 481.548 276.039 481.337V290.943C276.039 290.732 276.123 290.529 276.273 290.38C276.423 290.23 276.626 290.146 276.837 290.146C277.049 290.146 277.252 290.23 277.402 290.38C277.552 290.529 277.636 290.732 277.636 290.943V481.337C277.636 481.548 277.552 481.751 277.402 481.9C277.252 482.05 277.049 482.134 276.837 482.134Z" fill="#262424"/>
<path d="M235.185 440.426C234.973 440.426 234.77 440.342 234.621 440.193C234.471 440.044 234.387 439.841 234.387 439.63V290.943C234.387 290.732 234.471 290.529 234.621 290.38C234.77 290.23 234.973 290.146 235.185 290.146C235.397 290.146 235.6 290.23 235.75 290.38C235.899 290.529 235.984 290.732 235.984 290.943V439.63C235.984 439.841 235.899 440.044 235.75 440.193C235.6 440.342 235.397 440.426 235.185 440.426Z" fill="#262424"/>
<path d="M261.382 439.631H157.461V455.047H261.382V439.631Z" fill="#0A0627"/>
<path d="M241.514 455.843H221.646C221.434 455.843 221.231 455.759 221.082 455.61C220.932 455.46 220.848 455.258 220.848 455.046C220.848 454.835 220.932 454.633 221.082 454.483C221.231 454.334 221.434 454.25 221.646 454.25H241.514C241.726 454.25 241.929 454.334 242.079 454.483C242.229 454.633 242.313 454.835 242.313 455.046C242.313 455.258 242.229 455.46 242.079 455.61C241.929 455.759 241.726 455.843 241.514 455.843Z" fill="#262424"/>
<path d="M261.38 454.472C261.169 454.472 260.966 454.388 260.816 454.239C260.666 454.09 260.582 453.887 260.582 453.676V441.252C260.582 441.04 260.666 440.838 260.816 440.688C260.966 440.539 261.169 440.455 261.38 440.455C261.592 440.455 261.795 440.539 261.945 440.688C262.095 440.838 262.179 441.04 262.179 441.252V453.676C262.179 453.887 262.095 454.09 261.945 454.239C261.795 454.388 261.592 454.472 261.38 454.472Z" fill="#262424"/>
<path d="M241.596 440.427H221.795C221.583 440.427 221.38 440.343 221.23 440.194C221.08 440.044 220.996 439.842 220.996 439.63C220.996 439.419 221.08 439.217 221.23 439.067C221.38 438.918 221.583 438.834 221.795 438.834H241.596C241.808 438.834 242.011 438.918 242.16 439.067C242.31 439.217 242.394 439.419 242.394 439.63C242.394 439.842 242.31 440.044 242.16 440.194C242.011 440.343 241.808 440.427 241.596 440.427Z" fill="#262424"/>
<path d="M138.987 290.943H131.262V483.408H138.987V290.943Z" fill="#0A0627"/>
<path d="M180.64 290.943H172.914V483.408H180.64V290.943Z" fill="#0A0627"/>
<path d="M180.642 454.472C180.43 454.472 180.227 454.388 180.078 454.239C179.928 454.089 179.844 453.887 179.844 453.676V441.277C179.844 441.066 179.928 440.863 180.078 440.714C180.227 440.564 180.43 440.48 180.642 440.48C180.854 440.48 181.057 440.564 181.207 440.714C181.356 440.863 181.441 441.066 181.441 441.277V453.676C181.441 453.887 181.356 454.089 181.207 454.239C181.057 454.388 180.854 454.472 180.642 454.472Z" fill="#262424"/>
<path d="M172.916 290.943V483.408H157.461V455.046H131.263V483.408H115.809V290.943H131.263V439.63H157.461V290.943H172.916Z" fill="#0A0627"/>
<path d="M131.263 482.135C131.052 482.135 130.848 482.051 130.699 481.902C130.549 481.752 130.465 481.55 130.465 481.338V455.056C130.465 454.845 130.549 454.642 130.699 454.493C130.848 454.344 131.052 454.26 131.263 454.26H137.81C138.022 454.26 138.225 454.344 138.375 454.493C138.525 454.642 138.609 454.845 138.609 455.056C138.609 455.267 138.525 455.47 138.375 455.619C138.225 455.769 138.022 455.853 137.81 455.853H132.062V481.338C132.062 481.55 131.978 481.752 131.828 481.902C131.678 482.051 131.475 482.135 131.263 482.135Z" fill="#262424"/>
<path d="M172.915 482.771C172.703 482.771 172.5 482.687 172.35 482.537C172.201 482.388 172.116 482.186 172.116 481.974V291.739H157.451C157.239 291.739 157.036 291.655 156.886 291.506C156.736 291.357 156.652 291.154 156.652 290.943C156.652 290.732 156.736 290.529 156.886 290.38C157.036 290.23 157.239 290.146 157.451 290.146H172.905C173.117 290.146 173.32 290.23 173.47 290.38C173.62 290.529 173.704 290.732 173.704 290.943V481.974C173.704 482.184 173.621 482.385 173.473 482.534C173.326 482.683 173.125 482.768 172.915 482.771Z" fill="#262424"/>
<path d="M137.81 440.426H131.263C131.052 440.426 130.848 440.342 130.699 440.193C130.549 440.044 130.465 439.841 130.465 439.63V290.943C130.465 290.732 130.549 290.529 130.699 290.38C130.848 290.23 131.052 290.146 131.263 290.146C131.475 290.146 131.678 290.23 131.828 290.38C131.978 290.529 132.062 290.732 132.062 290.943V438.833H137.81C138.022 438.833 138.225 438.917 138.375 439.067C138.525 439.216 138.609 439.419 138.609 439.63C138.609 439.841 138.525 440.044 138.375 440.193C138.225 440.342 138.022 440.426 137.81 440.426Z" fill="#262424"/>
<path d="M169.612 261.363H105.59V278.544H169.612V261.363Z" fill="#3257FB"/>
<path d="M169.609 278.545H294.781V261.364H169.609V278.545Z" fill="#3257FB"/>
<path d="M169.611 279.34C169.399 279.34 169.196 279.256 169.046 279.107C168.897 278.958 168.812 278.755 168.812 278.544V262.791C168.812 262.579 168.897 262.377 169.046 262.227C169.196 262.078 169.399 261.994 169.611 261.994C169.823 261.994 170.026 262.078 170.176 262.227C170.325 262.377 170.409 262.579 170.409 262.791V278.544C170.409 278.755 170.325 278.958 170.176 279.107C170.026 279.256 169.823 279.34 169.611 279.34Z" fill="#262424"/>
<path d="M172.913 278.545H115.809V290.947H172.913V278.545Z" fill="white"/>
<path d="M172.917 291.9H115.81C115.556 291.9 115.312 291.799 115.132 291.62C114.953 291.441 114.852 291.198 114.852 290.944V278.546C114.852 278.292 114.953 278.049 115.132 277.87C115.312 277.691 115.556 277.59 115.81 277.59H172.914C173.168 277.59 173.412 277.691 173.591 277.87C173.771 278.049 173.872 278.292 173.872 278.546V290.948C173.871 291.2 173.77 291.442 173.591 291.62C173.413 291.799 173.17 291.899 172.917 291.9ZM116.771 289.989H171.959V279.501H116.768V289.992L116.771 289.989Z" fill="#262424"/>
<path d="M172.915 290.943H284.562V278.541H172.915V290.943Z" fill="white"/>
<path d="M284.562 291.9H172.915C172.661 291.9 172.417 291.799 172.238 291.62C172.058 291.441 171.957 291.198 171.957 290.944V278.546C171.957 278.292 172.058 278.049 172.238 277.87C172.417 277.691 172.661 277.59 172.915 277.59H284.562C284.816 277.59 285.06 277.691 285.24 277.87C285.419 278.049 285.52 278.292 285.52 278.546V290.948C285.52 291.2 285.418 291.443 285.239 291.621C285.059 291.8 284.816 291.9 284.562 291.9ZM173.873 289.989H283.604V279.501H173.873V289.992V289.989Z" fill="#262424"/>
<path d="M239.812 423.467L237.48 448.341L247.241 448.771L251.907 423.855L239.812 423.467Z" fill="white"/>
<path d="M247.239 449.727H247.194L237.434 449.294C237.304 449.288 237.177 449.256 237.06 449.199C236.944 449.143 236.84 449.064 236.754 448.966C236.669 448.868 236.605 448.754 236.565 448.631C236.526 448.508 236.512 448.378 236.524 448.249L238.855 423.375C238.878 423.133 238.992 422.908 239.175 422.747C239.358 422.586 239.595 422.501 239.839 422.508L251.93 422.897C252.068 422.901 252.204 422.936 252.327 422.997C252.451 423.059 252.56 423.146 252.646 423.254C252.732 423.361 252.795 423.486 252.828 423.62C252.862 423.753 252.866 423.892 252.841 424.028L248.175 448.943C248.134 449.162 248.019 449.36 247.848 449.503C247.677 449.646 247.462 449.726 247.239 449.727ZM238.526 447.43L246.45 447.781L250.758 424.777L240.682 424.458L238.526 447.43Z" fill="#262424"/>
<path d="M198.598 479.073V483.409H252.345C252.345 483.409 252.521 481.143 252.687 477.337C253.006 469.847 253.409 457.267 252.409 443.339L235.256 440.596C235.256 440.596 220.532 455.887 207.432 467.77C206.071 469.006 204.64 470.207 203.133 471.347C200.249 473.533 198.598 476.253 198.598 479.073Z" fill="#3257FB"/>
<path d="M223.985 468.258C223.797 468.258 223.613 468.203 223.457 468.1C223.3 467.996 223.177 467.849 223.104 467.677C223.03 467.504 223.009 467.314 223.043 467.13C223.077 466.945 223.165 466.775 223.295 466.64C234.757 454.786 239.903 444.977 239.96 444.879C240.081 444.661 240.282 444.498 240.52 444.426C240.759 444.354 241.016 444.377 241.238 444.491C241.46 444.605 241.628 444.801 241.707 445.037C241.787 445.273 241.77 445.53 241.662 445.755C241.452 446.162 236.351 455.891 224.675 467.965C224.585 468.058 224.478 468.132 224.36 468.182C224.241 468.232 224.114 468.258 223.985 468.258Z" fill="#262424"/>
<path d="M243.838 468.85C246.473 468.85 248.609 466.478 248.609 463.552C248.609 460.626 246.473 458.254 243.838 458.254C241.203 458.254 239.066 460.626 239.066 463.552C239.066 466.478 241.203 468.85 243.838 468.85Z" fill="white"/>
<path d="M243.835 469.806C240.676 469.806 238.105 466.999 238.105 463.552C238.105 460.105 240.66 457.299 243.835 457.299C247.01 457.299 249.565 460.105 249.565 463.552C249.565 466.999 246.994 469.806 243.835 469.806ZM243.835 459.207C241.734 459.207 240.022 461.157 240.022 463.549C240.022 465.942 241.734 467.891 243.835 467.891C245.937 467.891 247.648 465.942 247.648 463.549C247.648 461.157 245.94 459.197 243.835 459.197V459.207Z" fill="#262424"/>
<path d="M198.598 479.073V483.408H252.345C252.345 483.408 252.521 481.143 252.687 477.336H224.314C224.314 477.336 222.5 464.727 207.432 467.779C206.071 469.015 204.64 470.216 203.133 471.357C200.249 473.533 198.598 476.253 198.598 479.073Z" fill="white"/>
<path d="M252.35 484.364H198.599C198.345 484.364 198.101 484.263 197.921 484.084C197.742 483.905 197.641 483.662 197.641 483.408V479.069C197.641 475.998 199.384 472.985 202.553 470.586C203.967 469.516 205.392 468.33 206.788 467.063C206.915 466.947 207.072 466.867 207.241 466.833C212.437 465.782 216.717 466.406 219.962 468.687C223.433 471.127 224.688 474.762 225.091 476.378H252.688C252.817 476.377 252.946 476.403 253.065 476.454C253.184 476.505 253.291 476.579 253.381 476.672C253.47 476.765 253.54 476.875 253.586 476.996C253.631 477.117 253.652 477.246 253.646 477.375C253.48 481.153 253.304 483.453 253.301 483.475C253.284 483.716 253.177 483.941 253 484.106C252.824 484.271 252.591 484.363 252.35 484.364ZM199.56 482.453H251.455C251.513 481.605 251.599 480.178 251.688 478.292H224.318C224.086 478.295 223.861 478.213 223.685 478.062C223.509 477.912 223.393 477.702 223.36 477.473C223.36 477.432 222.641 472.905 218.834 470.239C216.094 468.327 212.409 467.789 207.873 468.646C206.5 469.882 205.098 471.045 203.722 472.099C201.042 474.125 199.57 476.597 199.57 479.06V482.453H199.56Z" fill="#262424"/>
<path d="M352.625 302.386C352.625 302.386 347.081 333.963 344.903 337.184C338.033 347.343 268.48 365.343 268.48 365.343L259.077 433.581L230.972 430.525C230.972 430.525 230.081 388.321 231.41 362.695C231.927 352.721 232.777 345.253 234.15 343.769C235.281 342.542 239.733 339.627 245.938 335.865C267.017 323.074 308.274 300.414 308.274 300.414C308.274 300.414 316.82 277.856 332.026 284.397C346.164 290.478 354.382 291.858 352.625 302.386Z" fill="#3257FB"/>
<path d="M248.254 353.081C245.031 360.465 237.715 364.524 231.41 362.695C231.928 352.721 232.777 345.254 234.15 343.769C235.281 342.542 239.733 339.628 245.939 335.865C249.924 339.796 251.029 346.703 248.254 353.081Z" fill="white"/>
<path d="M246.194 421.233H246.082C245.873 421.204 245.683 421.093 245.556 420.925C245.428 420.756 245.373 420.544 245.402 420.335L253.901 359.72C253.918 359.581 253.972 359.449 254.057 359.337C254.143 359.225 254.256 359.137 254.386 359.083L329.324 328.134L332.991 305.974C333.032 305.773 333.15 305.595 333.32 305.478C333.49 305.362 333.699 305.315 333.902 305.348C334.106 305.382 334.289 305.492 334.412 305.657C334.536 305.822 334.591 306.028 334.565 306.232L330.825 328.829C330.803 328.962 330.747 329.088 330.663 329.194C330.578 329.299 330.468 329.382 330.343 329.434L255.418 360.377L246.98 420.533C246.957 420.725 246.864 420.902 246.719 421.031C246.575 421.16 246.388 421.232 246.194 421.233Z" fill="#262424"/>
<path d="M254.926 427.407H254.84L235.179 425.324C234.967 425.301 234.773 425.196 234.639 425.031C234.506 424.866 234.443 424.654 234.465 424.443C234.488 424.232 234.594 424.038 234.759 423.905C234.925 423.771 235.137 423.709 235.348 423.731L255.009 425.814C255.221 425.825 255.42 425.92 255.562 426.077C255.704 426.234 255.777 426.441 255.766 426.652C255.755 426.864 255.66 427.062 255.503 427.203C255.345 427.345 255.138 427.418 254.926 427.407Z" fill="#262424"/>
<path d="M304.508 425.518L307.331 450.341L316.973 448.771L316.424 423.432L304.508 425.518Z" fill="white"/>
<path d="M307.33 451.296C307.094 451.298 306.865 451.212 306.689 451.056C306.512 450.899 306.399 450.683 306.372 450.449L303.549 425.626C303.522 425.384 303.588 425.141 303.734 424.947C303.88 424.752 304.095 424.62 304.335 424.578L316.251 422.491C316.387 422.467 316.526 422.473 316.66 422.508C316.794 422.543 316.918 422.606 317.025 422.694C317.132 422.781 317.218 422.891 317.279 423.014C317.339 423.138 317.372 423.274 317.375 423.412L317.924 448.751C317.927 448.98 317.847 449.203 317.7 449.378C317.552 449.553 317.346 449.67 317.119 449.707L307.477 451.277C307.429 451.287 307.38 451.294 307.33 451.296ZM305.561 426.304L308.17 449.242L315.998 447.967L315.49 424.571L305.561 426.304Z" fill="#262424"/>
<path d="M268.328 479.073V483.409H322.076C322.076 483.409 322.251 481.144 322.418 477.337C322.737 469.848 323.139 457.267 322.14 443.339L305.002 440.6C305.002 440.6 290.279 455.891 277.178 467.774C275.817 469.01 274.387 470.211 272.879 471.351C269.97 473.534 268.328 476.254 268.328 479.073Z" fill="#3257FB"/>
<path d="M293.715 468.258C293.527 468.258 293.344 468.203 293.187 468.099C293.03 467.996 292.908 467.849 292.834 467.677C292.761 467.504 292.74 467.314 292.774 467.13C292.808 466.945 292.895 466.775 293.025 466.64C304.523 454.767 309.633 444.977 309.69 444.881C309.746 444.766 309.824 444.663 309.92 444.579C310.016 444.494 310.128 444.43 310.25 444.389C310.371 444.349 310.5 444.333 310.627 444.343C310.755 444.352 310.879 444.388 310.993 444.446C311.107 444.505 311.208 444.586 311.29 444.684C311.372 444.782 311.433 444.895 311.471 445.018C311.508 445.14 311.52 445.268 311.507 445.396C311.493 445.523 311.455 445.646 311.393 445.758C311.182 446.165 306.082 455.894 294.405 467.968C294.316 468.06 294.208 468.133 294.09 468.183C293.971 468.233 293.844 468.259 293.715 468.258Z" fill="#262424"/>
<path d="M313.568 468.85C316.204 468.85 318.34 466.478 318.34 463.552C318.34 460.626 316.204 458.254 313.568 458.254C310.933 458.254 308.797 460.626 308.797 463.552C308.797 466.478 310.933 468.85 313.568 468.85Z" fill="white"/>
<path d="M313.569 469.806C310.411 469.806 307.84 466.999 307.84 463.552C307.84 460.105 310.395 457.299 313.569 457.299C316.744 457.299 319.299 460.105 319.299 463.552C319.299 466.999 316.728 469.806 313.569 469.806ZM313.569 459.207C311.468 459.207 309.756 461.157 309.756 463.549C309.756 465.942 311.468 467.891 313.569 467.891C315.671 467.891 317.383 465.942 317.383 463.549C317.383 461.157 315.674 459.197 313.569 459.197V459.207Z" fill="#262424"/>
<path d="M268.328 479.073V483.408H322.076C322.076 483.408 322.251 481.143 322.418 477.336H294.044C294.044 477.336 292.23 464.727 277.162 467.779C275.802 469.015 274.371 470.216 272.863 471.357C269.97 473.533 268.328 476.253 268.328 479.073Z" fill="white"/>
<path d="M322.08 484.364H268.329C268.075 484.364 267.831 484.263 267.652 484.084C267.472 483.905 267.371 483.662 267.371 483.408V479.069C267.371 475.998 269.115 472.985 272.283 470.586C273.698 469.516 275.122 468.33 276.518 467.063C276.646 466.947 276.802 466.867 276.971 466.833C282.171 465.782 286.447 466.406 289.692 468.687C293.164 471.127 294.419 474.762 294.821 476.378H322.419C322.548 476.377 322.676 476.403 322.795 476.454C322.914 476.505 323.022 476.579 323.111 476.672C323.201 476.765 323.27 476.875 323.316 476.996C323.362 477.117 323.382 477.246 323.377 477.375C323.211 481.153 323.035 483.453 323.032 483.475C323.015 483.716 322.907 483.941 322.731 484.106C322.554 484.271 322.322 484.363 322.08 484.364ZM269.291 482.453H321.186C321.24 481.605 321.329 480.178 321.419 478.292H294.048C293.816 478.295 293.591 478.213 293.415 478.062C293.239 477.912 293.124 477.702 293.09 477.473C293.09 477.429 292.372 472.905 288.565 470.239C285.825 468.327 282.136 467.789 277.604 468.646C276.231 469.885 274.829 471.045 273.452 472.099C270.772 474.125 269.3 476.597 269.3 479.06V482.453H269.291Z" fill="#262424"/>
<path d="M395.952 302.386C395.952 302.386 394.511 333.963 392.333 337.184C385.464 347.343 315.91 365.342 315.91 365.342L322.7 432.755L294.678 432.606C294.678 432.606 285.522 389.079 282.05 363.393C280.657 353.068 280.178 345.291 281.584 343.769C282.765 342.494 287.594 339.353 294.263 335.323C315.575 322.447 355.704 300.414 355.704 300.414C355.704 300.414 364.059 284.396 379.456 284.396C394.853 284.396 397.712 291.857 395.952 302.386Z" fill="#3257FB"/>
<path d="M297.692 353.504C294.67 360.427 288.062 364.425 282.042 363.38C280.65 353.055 280.171 345.279 281.576 343.756C282.758 342.482 287.586 339.34 294.255 335.311C299.138 339.003 300.719 346.569 297.692 353.504Z" fill="white"/>
<path d="M281.495 359.787C281.3 359.786 281.111 359.715 280.965 359.585C280.819 359.455 280.726 359.276 280.703 359.083C279.282 346.853 280.112 344.186 280.997 343.231C285.903 337.91 350.19 302.536 355.114 299.832C356.792 296.909 358.853 294.224 361.243 291.845C366.647 286.455 372.945 283.604 379.448 283.604C379.659 283.604 379.862 283.687 380.012 283.837C380.162 283.986 380.246 284.189 380.246 284.4C380.246 284.611 380.162 284.814 380.012 284.963C379.862 285.112 379.659 285.196 379.448 285.196C364.705 285.196 356.485 300.628 356.402 300.784C356.328 300.919 356.217 301.029 356.082 301.103C355.399 301.504 286.989 339.095 282.172 344.307C281.751 344.763 280.92 347.098 282.291 358.898C282.303 359.002 282.294 359.107 282.265 359.208C282.236 359.308 282.188 359.402 282.123 359.484C282.057 359.566 281.977 359.635 281.885 359.685C281.793 359.736 281.692 359.768 281.588 359.78L281.495 359.787Z" fill="#262424"/>
<path d="M378.357 324.024C378.296 324.024 378.235 324.016 378.175 324.002C375.457 323.365 373.557 321.963 372.528 319.829C370.079 314.754 373.528 307.404 373.678 307.086C373.769 306.895 373.933 306.748 374.132 306.677C374.332 306.606 374.552 306.617 374.743 306.708C374.935 306.799 375.082 306.962 375.153 307.161C375.224 307.36 375.213 307.58 375.122 307.771C375.09 307.841 371.851 314.754 373.969 319.14C374.78 320.816 376.316 321.931 378.539 322.45C378.732 322.493 378.902 322.606 379.016 322.766C379.13 322.926 379.181 323.123 379.159 323.319C379.136 323.515 379.041 323.695 378.893 323.825C378.745 323.955 378.554 324.026 378.357 324.024Z" fill="#262424"/>
<path d="M309.897 421.234C309.703 421.234 309.516 421.163 309.37 421.035C309.224 420.907 309.13 420.731 309.105 420.539L301.335 359.931C301.312 359.757 301.348 359.581 301.435 359.43C301.523 359.279 301.658 359.16 301.82 359.093L376.758 328.144L380.425 305.984C380.466 305.782 380.584 305.605 380.754 305.488C380.924 305.371 381.133 305.325 381.336 305.358C381.54 305.392 381.723 305.502 381.846 305.667C381.97 305.832 382.025 306.038 381.999 306.242L378.26 328.838C378.237 328.972 378.181 329.097 378.097 329.203C378.013 329.309 377.903 329.392 377.777 329.444L302.995 360.335L310.689 420.332C310.703 420.436 310.696 420.541 310.668 420.642C310.641 420.743 310.594 420.838 310.53 420.921C310.466 421.003 310.386 421.073 310.295 421.125C310.204 421.177 310.103 421.211 309.999 421.224L309.897 421.234Z" fill="#262424"/>
<path d="M318.627 427.407H298.966C298.755 427.407 298.552 427.323 298.402 427.174C298.252 427.025 298.168 426.822 298.168 426.611C298.168 426.4 298.252 426.197 298.402 426.048C298.552 425.898 298.755 425.814 298.966 425.814H318.627C318.732 425.814 318.836 425.835 318.933 425.875C319.03 425.915 319.118 425.974 319.192 426.048C319.266 426.122 319.325 426.209 319.365 426.306C319.405 426.403 319.426 426.506 319.426 426.611C319.426 426.715 319.405 426.819 319.365 426.916C319.325 427.012 319.266 427.1 319.192 427.174C319.118 427.248 319.03 427.307 318.933 427.347C318.836 427.387 318.732 427.407 318.627 427.407Z" fill="#262424"/>
<path d="M214.26 259.742C214.475 260.064 214.796 260.301 215.167 260.412C215.538 260.524 215.937 260.503 216.294 260.354L232.825 253.447C233.145 253.314 233.504 253.305 233.831 253.423C234.157 253.541 234.428 253.777 234.588 254.084C234.679 254.256 234.733 254.444 234.746 254.638C234.759 254.832 234.731 255.026 234.663 255.208C234.596 255.39 234.491 255.556 234.356 255.695C234.22 255.834 234.056 255.943 233.876 256.015L228.475 258.165C228.027 258.344 227.651 258.665 227.405 259.08C227.16 259.494 227.059 259.978 227.118 260.456C227.18 260.965 227.421 261.436 227.798 261.786C228.175 262.136 228.664 262.342 229.178 262.367L237.481 262.784C240.073 262.915 242.622 262.09 244.642 260.465L247.146 258.455L253.239 258.206L256.778 248.277L248.51 247.445L236.658 243.164C235.759 242.839 234.792 242.751 233.85 242.908C232.908 243.065 232.022 243.463 231.279 244.062L214.586 257.518C214.263 257.782 214.05 258.156 213.99 258.567C213.93 258.979 214.026 259.398 214.26 259.742Z" fill="white"/>
<path d="M247.249 239.016H128.282C127.557 239.009 126.859 238.737 126.32 238.252C125.782 237.766 125.44 237.101 125.36 236.382L118.12 166.981C118.076 166.623 118.111 166.259 118.22 165.915C118.329 165.571 118.51 165.254 118.752 164.986C118.994 164.718 119.291 164.504 119.623 164.36C119.954 164.215 120.313 164.143 120.675 164.149H239.642C240.368 164.156 241.066 164.428 241.604 164.913C242.142 165.399 242.484 166.064 242.564 166.783L249.798 236.197C249.839 236.554 249.804 236.915 249.694 237.257C249.585 237.599 249.403 237.914 249.162 238.181C248.921 238.447 248.626 238.66 248.296 238.804C247.966 238.948 247.61 239.02 247.249 239.016ZM120.672 166.063C120.58 166.06 120.489 166.076 120.404 166.11C120.319 166.145 120.243 166.197 120.18 166.264C120.119 166.335 120.073 166.419 120.047 166.509C120.02 166.599 120.013 166.694 120.026 166.786L127.267 236.197C127.302 236.444 127.423 236.671 127.608 236.84C127.794 237.008 128.032 237.106 128.282 237.117H247.249C247.341 237.121 247.432 237.105 247.517 237.071C247.602 237.036 247.679 236.983 247.741 236.917C247.803 236.845 247.848 236.762 247.874 236.672C247.901 236.582 247.908 236.487 247.895 236.394L240.654 166.981C240.619 166.733 240.498 166.506 240.313 166.338C240.127 166.17 239.889 166.072 239.639 166.06H120.672V166.063Z" fill="#262424"/>
<path d="M238.015 263.747C237.821 263.747 237.627 263.747 237.433 263.747L229.13 263.33C228.409 263.3 227.72 263.023 227.18 262.547C226.639 262.07 226.28 261.422 226.161 260.712C226.043 260.002 226.173 259.273 226.53 258.648C226.886 258.022 227.448 257.538 228.12 257.277L233.521 255.127C233.573 255.106 233.621 255.075 233.661 255.036C233.701 254.996 233.733 254.95 233.755 254.898C233.777 254.846 233.789 254.791 233.79 254.735C233.79 254.679 233.78 254.623 233.759 254.571C233.738 254.519 233.707 254.471 233.668 254.431C233.628 254.391 233.581 254.359 233.53 254.337C233.478 254.315 233.422 254.303 233.366 254.303C233.31 254.302 233.254 254.313 233.202 254.334L216.664 261.234C216.103 261.466 215.479 261.498 214.897 261.324C214.315 261.15 213.811 260.78 213.471 260.278C213.101 259.734 212.95 259.071 213.049 258.422C213.148 257.772 213.489 257.184 214.004 256.774L230.698 243.317C231.571 242.618 232.609 242.153 233.714 241.969C234.818 241.784 235.951 241.885 237.005 242.263L248.73 246.503L256.88 247.322C257.025 247.336 257.165 247.383 257.289 247.459C257.413 247.536 257.518 247.639 257.596 247.762C257.674 247.885 257.723 248.024 257.739 248.168C257.755 248.313 257.737 248.459 257.688 248.596L254.13 258.529C254.067 258.709 253.951 258.866 253.797 258.979C253.643 259.093 253.459 259.158 253.268 259.166L247.487 259.402L245.232 261.215C243.187 262.856 240.64 263.75 238.015 263.747ZM233.368 252.381C233.916 252.378 234.448 252.567 234.871 252.915C235.295 253.263 235.583 253.747 235.685 254.285C235.788 254.822 235.698 255.378 235.432 255.857C235.167 256.336 234.741 256.706 234.23 256.904L228.829 259.055C228.57 259.158 228.353 259.347 228.216 259.59C228.079 259.833 228.029 260.116 228.075 260.391C228.121 260.666 228.26 260.917 228.468 261.103C228.677 261.289 228.943 261.398 229.222 261.412L237.526 261.83C239.879 261.948 242.193 261.199 244.028 259.727L246.532 257.717C246.692 257.588 246.889 257.515 247.094 257.506L252.543 257.283L255.465 249.112L248.413 248.405C248.335 248.397 248.258 248.38 248.183 248.354L236.338 244.063C235.596 243.797 234.798 243.725 234.021 243.854C233.243 243.982 232.511 244.308 231.895 244.799L215.202 258.255C215.064 258.362 214.971 258.514 214.939 258.685C214.907 258.855 214.938 259.031 215.028 259.18C215.117 259.329 215.257 259.44 215.423 259.493C215.588 259.545 215.768 259.536 215.927 259.466L232.457 252.562C232.746 252.442 233.055 252.381 233.368 252.381Z" fill="#262424"/>
<path d="M345.292 223.921C345.292 223.921 326.305 240.847 311.642 253.373C310.463 254.38 309.316 255.355 308.203 256.298C304.339 259.569 299.435 261.364 294.367 261.363H253.487C248.697 257.116 247.295 251.739 250.399 244.861L287.331 234.603L329.144 188.557L345.292 223.921Z" fill="#0A0627"/>
<path d="M311.644 253.375C310.465 254.382 309.318 255.357 308.205 256.3C304.341 259.571 299.437 261.366 294.369 261.365H291.814C291.662 260.914 291.545 260.452 291.466 259.982C290.591 254.732 294.66 249.683 300.533 248.705C305.183 247.937 309.568 249.928 311.644 253.375Z" fill="white"/>
<path d="M256.464 259.64C257.521 259.11 257.948 257.826 257.417 256.771C256.886 255.716 255.598 255.29 254.54 255.82C253.482 256.35 253.056 257.635 253.587 258.689C254.118 259.744 255.406 260.17 256.464 259.64Z" fill="white"/>
<path d="M255.501 260.826C254.739 260.822 254.005 260.539 253.438 260.03C252.872 259.522 252.513 258.823 252.429 258.068C252.345 257.312 252.543 256.552 252.984 255.932C253.425 255.313 254.079 254.876 254.821 254.706C255.564 254.535 256.344 254.643 257.012 255.009C257.68 255.374 258.19 255.972 258.446 256.688C258.701 257.404 258.684 258.189 258.397 258.893C258.11 259.598 257.574 260.172 256.89 260.508C256.458 260.72 255.982 260.829 255.501 260.826ZM255.501 256.548C255.243 256.55 254.992 256.636 254.787 256.793C254.583 256.95 254.435 257.169 254.367 257.417C254.298 257.666 254.313 257.93 254.409 258.169C254.505 258.408 254.677 258.609 254.898 258.742C255.119 258.875 255.378 258.932 255.635 258.905C255.891 258.878 256.132 258.768 256.32 258.591C256.509 258.415 256.634 258.182 256.678 257.929C256.721 257.675 256.68 257.414 256.561 257.185C256.461 256.991 256.309 256.829 256.121 256.716C255.934 256.604 255.719 256.546 255.501 256.548Z" fill="#262424"/>
<path d="M261.995 260.831C261.838 260.831 261.684 260.793 261.545 260.72C261.406 260.647 261.288 260.54 261.2 260.411C256.138 252.943 257.789 244.336 257.859 243.972C257.917 243.732 258.066 243.524 258.274 243.391C258.483 243.258 258.735 243.21 258.978 243.259C259.221 243.307 259.435 243.447 259.577 243.649C259.718 243.852 259.776 244.101 259.737 244.345C259.715 244.457 258.188 252.564 262.784 259.34C262.881 259.484 262.937 259.651 262.947 259.824C262.956 259.996 262.919 260.168 262.838 260.322C262.757 260.475 262.635 260.603 262.487 260.693C262.339 260.782 262.169 260.83 261.995 260.831Z" fill="#262424"/>
<path d="M409.148 196.293C409.148 196.293 384.074 179.674 365.601 180.005C347.128 180.336 329.147 188.562 329.147 188.562C314.137 219.823 305.855 299.81 305.855 299.81C305.855 299.81 325.657 307.437 381.078 310.536L383.425 296.605C383.512 296.091 383.794 295.629 384.214 295.318C384.634 295.006 385.158 294.868 385.677 294.933C385.943 294.966 386.199 295.051 386.432 295.183C386.664 295.316 386.868 295.493 387.032 295.704C387.195 295.916 387.315 296.157 387.385 296.415C387.454 296.673 387.472 296.943 387.437 297.207L385.594 311.103C390.506 311.647 395.45 311.86 400.39 311.741C408.621 253.082 409.148 196.293 409.148 196.293Z" fill="#0A0627"/>
<path d="M312.892 250.695C312.773 250.695 312.656 250.669 312.548 250.619C312.441 250.569 312.346 250.495 312.271 250.403C312.196 250.312 312.142 250.205 312.113 250.09C312.085 249.975 312.082 249.855 312.106 249.739L316.481 227.277C319.311 213.036 323.211 199.911 327.462 190.322C327.499 190.22 327.556 190.126 327.631 190.046C327.706 189.966 327.797 189.903 327.897 189.86C327.998 189.817 328.106 189.795 328.215 189.795C328.325 189.795 328.433 189.818 328.533 189.862C328.633 189.905 328.724 189.969 328.798 190.049C328.873 190.129 328.93 190.224 328.966 190.327C329.002 190.429 329.017 190.539 329.01 190.648C329.002 190.757 328.972 190.863 328.921 190.959C324.715 200.45 320.854 213.454 318.062 227.595L313.687 250.077C313.646 250.255 313.544 250.414 313.399 250.527C313.255 250.639 313.075 250.699 312.892 250.695Z" fill="#262424"/>
<path d="M385.077 188.915C381.513 196.503 375.177 199.428 371.242 200.511C370.418 194.99 367.879 188 367.879 188C364.685 192.113 362.871 197.634 362.389 200.163C352.543 197.118 351.719 187.554 351.719 187.554C353.242 178.048 361.706 171.122 368.761 171.591C384.359 172.626 385.077 188.915 385.077 188.915Z" fill="white"/>
<path d="M371.241 201.473C371.01 201.476 370.785 201.394 370.609 201.245C370.433 201.095 370.317 200.886 370.283 200.658C369.727 196.943 368.367 192.489 367.565 190.084C365.565 193.234 364.128 196.708 363.321 200.349C363.296 200.481 363.243 200.607 363.166 200.718C363.089 200.828 362.989 200.921 362.873 200.991C362.757 201.06 362.628 201.105 362.494 201.121C362.359 201.137 362.223 201.125 362.094 201.085C351.753 197.899 350.763 187.749 350.753 187.647C350.744 187.57 350.744 187.492 350.753 187.415C352.43 176.94 361.612 170.177 368.804 170.648C377.309 171.212 381.547 176.163 383.601 180.205C384.957 182.91 385.776 185.852 386.012 188.867C386.019 189.022 385.989 189.176 385.923 189.316C384.544 192.261 382.536 194.871 380.041 196.962C377.546 199.052 374.624 200.575 371.478 201.422C371.401 201.449 371.322 201.466 371.241 201.473ZM367.878 187.051C368.076 187.052 368.268 187.114 368.43 187.228C368.591 187.342 368.713 187.503 368.779 187.689C368.878 187.959 371.05 193.971 372.008 199.291C374.635 198.442 377.061 197.07 379.14 195.257C381.219 193.445 382.908 191.229 384.102 188.746C383.84 186.061 383.088 183.446 381.883 181.03C379.216 175.812 374.78 172.964 368.699 172.563C362.366 172.139 354.212 178.479 352.685 187.599C352.807 188.632 353.934 195.981 361.689 198.928C362.388 196.143 364.125 191.282 367.118 187.431C367.207 187.313 367.321 187.217 367.453 187.151C367.585 187.084 367.73 187.049 367.878 187.048V187.051Z" fill="#262424"/>
<path d="M424.868 344.192H365.177V332.405C365.185 325.395 367.98 318.674 372.95 313.716C377.919 308.759 384.657 305.971 391.685 305.964H424.868V344.192ZM428.382 356.935C430.838 356.935 433.194 355.962 434.931 354.229C436.668 352.497 437.643 350.147 437.643 347.696V302.459C437.643 300.009 436.668 297.659 434.931 295.927C433.194 294.194 430.838 293.221 428.382 293.221H391.685C381.267 293.221 371.275 297.349 363.908 304.698C356.541 312.046 352.402 322.013 352.402 332.405V347.696C352.402 350.147 353.378 352.497 355.115 354.229C356.852 355.962 359.208 356.935 361.664 356.935H428.382Z" fill="#0A0627"/>
<path d="M422.803 278.12C421.525 285.683 419.609 291.59 416.735 293.093C415.716 294.444 413.509 296.126 410.612 297.971C398.39 305.741 373.833 316.314 373.833 316.314C362.115 313.765 362.176 301.182 362.176 301.182L393.526 269.006C393.526 269.006 400.322 217.264 401.437 209.51C402.551 201.756 409.153 196.289 409.153 196.289C419.609 202.903 423.065 215.531 424.572 237.477C425.16 246.072 425.042 264.709 422.803 278.12Z" fill="#0A0627"/>
<path d="M373.831 317.114C373.774 317.114 373.717 317.107 373.661 317.095C361.455 314.441 361.375 301.313 361.375 301.166C361.376 300.96 361.458 300.763 361.602 300.615L392.766 268.627C393.29 264.629 399.582 216.77 400.645 209.373C401.342 204.524 404.066 200.555 406.228 198.08C406.369 197.929 406.564 197.838 406.77 197.827C406.977 197.816 407.18 197.886 407.336 198.022C407.493 198.157 407.59 198.348 407.608 198.554C407.626 198.76 407.563 198.964 407.432 199.125C405.41 201.438 402.868 205.133 402.226 209.599C401.124 217.245 394.386 268.57 394.315 269.086C394.293 269.257 394.215 269.415 394.095 269.539L362.978 301.504C363.052 303.415 363.917 313.189 373.751 315.486C375.549 314.706 387.19 309.618 397.841 304.183C398.03 304.087 398.249 304.069 398.45 304.134C398.652 304.199 398.819 304.341 398.916 304.529C399.013 304.717 399.03 304.935 398.965 305.136C398.9 305.337 398.758 305.505 398.569 305.601C387.002 311.504 374.275 316.996 374.147 317.05C374.047 317.093 373.939 317.114 373.831 317.114Z" fill="#262424"/>
<path d="M364.511 302.674C364.511 302.674 372.93 305.818 373.987 313.77L366.961 324.123L365.07 332.511C364.973 332.941 364.747 333.331 364.423 333.629C364.098 333.927 363.69 334.119 363.253 334.181L353.624 335.522C353.316 335.565 353.003 335.541 352.706 335.453C352.408 335.365 352.133 335.214 351.898 335.011C351.664 334.808 351.476 334.557 351.348 334.275C351.219 333.993 351.152 333.687 351.152 333.378V322.69L348.597 332.744C348.518 333.056 348.37 333.346 348.164 333.594C347.959 333.842 347.7 334.041 347.408 334.176C347.115 334.312 346.796 334.381 346.474 334.379C346.152 334.376 345.834 334.302 345.543 334.161C345.178 333.985 344.87 333.709 344.654 333.366C344.437 333.023 344.322 332.626 344.32 332.221L344.285 318.096C344.283 317.25 344.496 316.417 344.906 315.677C345.316 314.936 345.908 314.311 346.626 313.862L364.511 302.674Z" fill="white"/>
<path d="M353.325 336.497C352.495 336.497 351.699 336.168 351.112 335.582C350.525 334.997 350.195 334.203 350.195 333.375V330.39L349.556 332.977C349.442 333.426 349.23 333.845 348.933 334.202C348.637 334.56 348.265 334.847 347.843 335.043C347.422 335.239 346.962 335.338 346.497 335.335C346.032 335.331 345.573 335.224 345.155 335.022C344.63 334.765 344.187 334.367 343.875 333.873C343.564 333.379 343.396 332.808 343.392 332.225L343.328 318.099C343.321 317.09 343.574 316.096 344.062 315.212C344.55 314.328 345.258 313.583 346.116 313.05L364.001 301.862C364.126 301.783 364.268 301.735 364.415 301.72C364.561 301.705 364.71 301.724 364.848 301.776C365.215 301.913 373.816 305.219 374.937 313.642C374.968 313.875 374.912 314.111 374.78 314.305L367.856 324.499L366.004 332.725C365.862 333.343 365.536 333.904 365.069 334.333C364.601 334.762 364.014 335.04 363.385 335.13L353.756 336.471C353.613 336.49 353.469 336.498 353.325 336.497ZM351.153 321.734H351.271C351.504 321.763 351.719 321.876 351.873 322.053C352.028 322.229 352.113 322.456 352.111 322.69V333.362C352.111 333.535 352.149 333.706 352.22 333.863C352.292 334.02 352.397 334.16 352.528 334.274C352.659 334.387 352.812 334.471 352.978 334.521C353.144 334.57 353.319 334.583 353.491 334.56L363.13 333.235C363.374 333.2 363.601 333.092 363.782 332.925C363.964 332.758 364.09 332.541 364.145 332.301L366.036 323.913C366.063 323.799 366.11 323.691 366.176 323.595L372.992 313.55C371.983 307.478 366.224 304.483 364.605 303.754L347.145 314.678C346.563 315.039 346.083 315.544 345.752 316.143C345.421 316.742 345.25 317.415 345.254 318.099L345.299 332.225C345.3 332.428 345.352 332.627 345.45 332.805C345.548 332.982 345.69 333.132 345.862 333.241C346.033 333.35 346.23 333.414 346.433 333.427C346.636 333.441 346.839 333.403 347.023 333.317C347.187 333.242 347.332 333.131 347.446 332.993C347.561 332.854 347.644 332.692 347.688 332.518L350.243 322.464C350.293 322.259 350.409 322.077 350.574 321.945C350.738 321.813 350.942 321.739 351.153 321.734Z" fill="#262424"/>
<path d="M422.801 278.12C421.523 285.683 419.607 291.59 416.732 293.093C415.714 294.444 413.507 296.126 410.61 297.971C410.345 297.748 410.086 297.505 409.837 297.251C405.542 292.829 405.887 285.546 410.607 281.003C414.021 277.69 418.796 276.722 422.801 278.12Z" fill="white"/>
<path d="M381.919 309.628C381.722 309.627 381.532 309.554 381.386 309.423C381.24 309.291 381.147 309.11 381.127 308.914C380.134 299.596 371.702 297.411 371.616 297.392C371.418 297.334 371.249 297.203 371.146 297.025C371.043 296.846 371.013 296.635 371.062 296.435C371.112 296.235 371.237 296.062 371.412 295.953C371.587 295.843 371.797 295.805 371.999 295.847C372.095 295.869 381.603 298.331 382.714 308.749C382.736 308.959 382.674 309.169 382.541 309.333C382.408 309.497 382.216 309.602 382.005 309.625H381.919V309.628Z" fill="#262424"/>
<path d="M377.42 311.62C378.478 311.62 379.336 310.764 379.336 309.708C379.336 308.653 378.478 307.797 377.42 307.797C376.362 307.797 375.504 308.653 375.504 309.708C375.504 310.764 376.362 311.62 377.42 311.62Z" fill="white"/>
<path d="M377.421 312.574C376.853 312.574 376.297 312.406 375.824 312.091C375.352 311.776 374.983 311.328 374.766 310.804C374.548 310.28 374.491 309.704 374.602 309.148C374.713 308.591 374.987 308.081 375.389 307.68C375.791 307.279 376.303 307.006 376.86 306.895C377.418 306.784 377.996 306.841 378.521 307.058C379.046 307.275 379.495 307.643 379.811 308.114C380.127 308.586 380.296 309.14 380.296 309.707C380.296 310.467 379.993 311.197 379.454 311.734C378.915 312.272 378.184 312.574 377.421 312.574ZM377.421 308.751C377.232 308.751 377.046 308.807 376.889 308.912C376.731 309.017 376.609 309.167 376.536 309.341C376.464 309.516 376.445 309.708 376.482 309.893C376.518 310.079 376.61 310.249 376.744 310.383C376.878 310.516 377.048 310.607 377.234 310.644C377.42 310.681 377.613 310.662 377.788 310.59C377.963 310.518 378.113 310.395 378.218 310.238C378.323 310.081 378.379 309.896 378.379 309.707C378.379 309.454 378.278 309.21 378.099 309.031C377.919 308.852 377.675 308.751 377.421 308.751Z" fill="#262424"/>
<path d="M378.528 152.645L377.963 162.202L377.005 178.567C371.358 182.24 365.974 182.472 360.918 178.423L361.924 170.841L363.447 159.357L378.528 152.645Z" fill="white"/>
<path d="M368.68 182.36C365.755 182.36 362.957 181.299 360.313 179.174C360.184 179.071 360.084 178.937 360.023 178.785C359.961 178.633 359.94 178.467 359.961 178.304L362.487 159.234C362.509 159.072 362.571 158.919 362.669 158.787C362.767 158.656 362.897 158.553 363.046 158.486L378.14 151.777C378.29 151.71 378.456 151.682 378.62 151.697C378.784 151.713 378.941 151.77 379.077 151.863C379.212 151.957 379.321 152.083 379.393 152.231C379.465 152.379 379.498 152.543 379.488 152.707L377.958 178.635C377.949 178.785 377.905 178.93 377.83 179.06C377.754 179.189 377.649 179.299 377.524 179.381C374.466 181.367 371.518 182.36 368.68 182.36ZM361.935 178.017C366.256 181.251 370.877 181.257 376.074 178.033L377.482 154.16L364.321 160.018L361.935 178.017Z" fill="#262424"/>
<path d="M373.319 154.961C373.102 159.284 373.025 174.024 361.336 175.241L363.441 159.36L373.319 154.961Z" fill="#262424"/>
<path d="M349.377 152.882C350.173 160.763 352.466 170.187 361.945 168.721C373.212 166.975 380.497 159.03 380.603 148.333C380.708 137.635 375.764 131.604 362.922 132.831C361.829 132.933 360.747 133.126 359.687 133.408C352.3 135.392 348.582 141.502 349.042 148.667C349.125 149.964 349.221 151.397 349.377 152.882Z" fill="white"/>
<path d="M360.055 169.83C357.919 169.878 355.834 169.179 354.16 167.855C349.446 164.079 348.552 156.004 348.092 148.74C347.811 144.36 348.983 140.457 351.48 137.437C354.109 134.252 358.037 132.34 362.837 131.891C363.091 131.867 363.345 131.945 363.541 132.107C363.738 132.269 363.862 132.502 363.886 132.756C363.91 133.009 363.833 133.262 363.67 133.458C363.507 133.655 363.273 133.778 363.019 133.802C354.588 134.608 349.478 140.426 350.005 148.626C350.324 153.586 350.915 162.818 355.367 166.383C357.063 167.74 359.168 168.205 361.802 167.797C366.002 167.16 369.624 165.631 372.572 163.296C372.771 163.138 373.024 163.066 373.277 163.095C373.529 163.124 373.76 163.252 373.918 163.45C374.076 163.649 374.148 163.902 374.119 164.154C374.09 164.406 373.962 164.636 373.763 164.793C370.598 167.303 366.564 168.998 362.096 169.69C361.421 169.789 360.738 169.835 360.055 169.83Z" fill="#262424"/>
<path d="M383.953 150.345C382.868 151.912 381.647 153.382 380.306 154.738L374.624 155.089L373.414 151.075C373.414 151.075 369.808 150.916 369.061 148.488C369.041 148.433 369.025 148.376 369.013 148.319C368.821 147.523 368.084 143.977 368.623 138.466C368.623 138.466 359.956 142.289 355.235 142.779C353.539 142.958 351.556 142.308 349.71 141.397C346.018 139.574 342.789 133.573 343.434 129.514V129.438C344.45 123.49 347.557 127.609 347.557 127.609C347.557 127.609 348.445 122.83 351.454 122.474C354.462 122.117 356.378 126.554 356.378 126.554C362.153 125.213 368.129 124.964 373.995 125.822C385.624 127.593 382.73 135.583 382.73 135.583C382.73 135.583 391.293 138.326 383.953 150.345Z" fill="#262424"/>
<path d="M375.859 154.481C375.37 150.021 378.519 145.863 382.997 145.35C383.946 145.237 384.909 145.305 385.833 145.551C391.38 147.045 389.924 159.931 376.347 158.95L375.859 154.481Z" fill="white"/>
<path d="M377.767 159.957C377.284 159.957 376.789 159.938 376.278 159.903C376.024 159.884 375.788 159.765 375.621 159.573C375.455 159.381 375.372 159.13 375.391 158.877C375.409 158.623 375.528 158.388 375.721 158.221C375.914 158.055 376.165 157.973 376.419 157.991C383.895 158.533 387.236 154.726 387.817 151.301C388.217 148.956 387.278 146.924 385.582 146.468C384.775 146.254 383.935 146.194 383.107 146.293C379.197 146.742 376.374 150.364 376.812 154.372C376.839 154.626 376.765 154.88 376.605 155.078C376.444 155.277 376.212 155.404 375.957 155.431C375.703 155.459 375.449 155.384 375.25 155.225C375.05 155.065 374.923 154.833 374.895 154.579C374.346 149.53 377.926 144.962 382.88 144.385C383.949 144.259 385.033 144.336 386.074 144.614C388.74 145.331 390.264 148.275 389.695 151.623C388.98 155.889 385.02 159.957 377.767 159.957Z" fill="#262424"/>
<path d="M133.462 484.365H426.418C426.672 484.365 426.916 484.264 427.096 484.085C427.275 483.905 427.376 483.662 427.376 483.409C427.376 483.155 427.275 482.912 427.096 482.733C426.916 482.554 426.672 482.453 426.418 482.453H133.462C133.208 482.453 132.964 482.554 132.785 482.733C132.605 482.912 132.504 483.155 132.504 483.409C132.504 483.662 132.605 483.905 132.785 484.085C132.964 484.264 133.208 484.365 133.462 484.365Z" fill="#262424"/>
<path d="M124.585 482.453H109.06C108.806 482.453 108.562 482.554 108.382 482.733C108.203 482.912 108.102 483.155 108.102 483.409C108.102 483.662 108.203 483.905 108.382 484.085C108.562 484.264 108.806 484.365 109.06 484.365H124.585C124.839 484.365 125.082 484.264 125.262 484.085C125.442 483.905 125.543 483.662 125.543 483.409C125.543 483.155 125.442 482.912 125.262 482.733C125.082 482.554 124.839 482.453 124.585 482.453Z" fill="#262424"/>
<path d="M440.804 482.453H433.04C432.786 482.453 432.542 482.554 432.363 482.733C432.183 482.912 432.082 483.155 432.082 483.409C432.082 483.662 432.183 483.905 432.363 484.085C432.542 484.264 432.786 484.365 433.04 484.365H440.804C441.058 484.365 441.302 484.264 441.482 484.085C441.661 483.905 441.762 483.662 441.762 483.409C441.762 483.155 441.661 482.912 441.482 482.733C441.302 482.554 441.058 482.453 440.804 482.453Z" fill="#262424"/>
<path d="M214.075 496.98H345.814C346.068 496.98 346.312 496.879 346.492 496.7C346.672 496.521 346.773 496.278 346.773 496.024C346.773 495.771 346.672 495.528 346.492 495.348C346.312 495.169 346.068 495.068 345.814 495.068H214.075C213.821 495.068 213.578 495.169 213.398 495.348C213.218 495.528 213.117 495.771 213.117 496.024C213.117 496.278 213.218 496.521 213.398 496.7C213.578 496.879 213.821 496.98 214.075 496.98Z" fill="#262424"/>
<path d="M169.61 496.98H197.319C197.574 496.98 197.817 496.879 197.997 496.7C198.177 496.521 198.278 496.278 198.278 496.024C198.278 495.771 198.177 495.528 197.997 495.348C197.817 495.169 197.574 495.068 197.319 495.068H169.61C169.356 495.068 169.113 495.169 168.933 495.348C168.753 495.528 168.652 495.771 168.652 496.024C168.652 496.278 168.753 496.521 168.933 496.7C169.113 496.879 169.356 496.98 169.61 496.98Z" fill="#262424"/>
<path d="M365.504 496.98H374.629C374.883 496.98 375.126 496.879 375.306 496.7C375.486 496.521 375.587 496.278 375.587 496.024C375.587 495.771 375.486 495.528 375.306 495.348C375.126 495.169 374.883 495.068 374.629 495.068H365.517C365.263 495.068 365.019 495.169 364.839 495.348C364.66 495.528 364.559 495.771 364.559 496.024C364.559 496.278 364.66 496.521 364.839 496.7C365.019 496.879 365.263 496.98 365.517 496.98" fill="#262424"/>
<path d="M282.244 122.051C282.11 122.051 281.978 122.017 281.86 121.952C281.742 121.888 281.642 121.794 281.57 121.681L279.514 118.454C279.405 118.276 279.371 118.062 279.418 117.859C279.466 117.656 279.591 117.48 279.768 117.368C279.944 117.256 280.158 117.218 280.362 117.261C280.567 117.305 280.746 117.426 280.861 117.6L282.918 120.827C282.995 120.948 283.038 121.087 283.042 121.229C283.047 121.372 283.013 121.513 282.944 121.638C282.875 121.763 282.774 121.867 282.651 121.94C282.528 122.012 282.387 122.051 282.244 122.051ZM285.438 120.139C285.265 120.139 285.097 120.083 284.959 119.98C284.821 119.876 284.72 119.731 284.672 119.565C284.623 119.4 284.63 119.223 284.691 119.062C284.752 118.9 284.864 118.763 285.01 118.671L288.245 116.619C288.334 116.561 288.433 116.52 288.537 116.501C288.642 116.481 288.749 116.482 288.853 116.504C288.956 116.526 289.055 116.569 289.142 116.629C289.229 116.69 289.303 116.767 289.36 116.856C289.417 116.945 289.456 117.045 289.473 117.15C289.491 117.254 289.488 117.361 289.464 117.464C289.44 117.567 289.395 117.664 289.333 117.75C289.271 117.836 289.192 117.908 289.101 117.963L285.866 120.015C285.741 120.092 285.597 120.133 285.451 120.133L285.438 120.139ZM291.909 116.033C291.736 116.033 291.568 115.977 291.429 115.873C291.291 115.77 291.19 115.624 291.142 115.459C291.094 115.293 291.101 115.117 291.162 114.955C291.223 114.794 291.335 114.657 291.481 114.564L294.716 112.513C294.804 112.454 294.904 112.414 295.008 112.394C295.112 112.374 295.219 112.376 295.323 112.398C295.427 112.42 295.525 112.462 295.613 112.523C295.7 112.583 295.774 112.66 295.831 112.75C295.888 112.839 295.926 112.939 295.944 113.043C295.962 113.148 295.958 113.255 295.934 113.358C295.91 113.461 295.866 113.558 295.803 113.644C295.741 113.73 295.662 113.802 295.572 113.857L292.337 115.909C292.209 115.99 292.06 116.033 291.909 116.033ZM278.124 115.6C277.99 115.6 277.858 115.566 277.74 115.501C277.622 115.437 277.523 115.343 277.45 115.23L275.394 112.003C275.285 111.825 275.251 111.611 275.298 111.408C275.346 111.205 275.471 111.029 275.648 110.917C275.824 110.805 276.038 110.767 276.242 110.81C276.447 110.854 276.626 110.975 276.741 111.149L278.814 114.373C278.891 114.494 278.934 114.633 278.938 114.776C278.943 114.92 278.908 115.061 278.838 115.186C278.769 115.312 278.667 115.416 278.543 115.488C278.419 115.56 278.277 115.598 278.134 115.596L278.124 115.6ZM298.379 111.933C298.206 111.933 298.038 111.877 297.9 111.773C297.762 111.67 297.661 111.524 297.613 111.359C297.564 111.193 297.571 111.017 297.632 110.855C297.693 110.694 297.805 110.557 297.951 110.464L301.186 108.413C301.275 108.354 301.374 108.314 301.478 108.294C301.583 108.274 301.69 108.276 301.794 108.298C301.898 108.32 301.996 108.362 302.083 108.423C302.17 108.483 302.244 108.56 302.301 108.65C302.358 108.739 302.397 108.839 302.414 108.943C302.432 109.048 302.429 109.154 302.405 109.258C302.381 109.361 302.336 109.458 302.274 109.544C302.212 109.63 302.133 109.702 302.042 109.757L298.807 111.809C298.682 111.887 298.537 111.929 298.389 111.93L298.379 111.933ZM274.024 109.145C273.889 109.145 273.757 109.111 273.639 109.047C273.521 108.982 273.422 108.889 273.35 108.776L271.293 105.549C271.234 105.46 271.194 105.361 271.174 105.257C271.154 105.153 271.156 105.046 271.178 104.943C271.2 104.839 271.242 104.741 271.303 104.654C271.364 104.567 271.441 104.493 271.531 104.437C271.62 104.38 271.72 104.341 271.825 104.324C271.929 104.306 272.037 104.309 272.14 104.333C272.243 104.357 272.341 104.402 272.427 104.464C272.513 104.526 272.586 104.604 272.641 104.695L274.694 107.919C274.772 108.039 274.815 108.178 274.82 108.321C274.825 108.463 274.792 108.605 274.723 108.73C274.655 108.856 274.553 108.96 274.43 109.033C274.307 109.106 274.167 109.145 274.024 109.145Z" fill="#262424"/>
<path d="M301.622 109.882C301.487 109.883 301.355 109.849 301.236 109.784C301.118 109.72 301.018 109.626 300.945 109.513L289.09 90.908L270.439 102.733C270.35 102.792 270.251 102.832 270.146 102.852C270.042 102.872 269.935 102.87 269.831 102.848C269.727 102.826 269.629 102.784 269.542 102.723C269.455 102.663 269.381 102.586 269.324 102.496C269.267 102.407 269.228 102.307 269.21 102.203C269.193 102.098 269.196 101.992 269.22 101.888C269.244 101.785 269.289 101.688 269.351 101.602C269.413 101.517 269.492 101.444 269.583 101.389L288.908 89.124C289.087 89.0109 289.303 88.9731 289.51 89.0191C289.717 89.0651 289.896 89.1911 290.01 89.3693L302.293 108.646C302.373 108.766 302.419 108.906 302.425 109.05C302.431 109.195 302.398 109.338 302.329 109.465C302.261 109.592 302.158 109.698 302.034 109.771C301.909 109.845 301.767 109.883 301.622 109.882Z" fill="#262424"/>
<path d="M279.597 134.218C279.463 134.218 279.33 134.184 279.213 134.119C279.095 134.054 278.995 133.961 278.923 133.848L266.64 114.571C266.527 114.393 266.489 114.177 266.535 113.971C266.581 113.765 266.707 113.585 266.886 113.472L286.211 101.23C286.39 101.116 286.606 101.079 286.813 101.125C287.02 101.171 287.2 101.297 287.313 101.475L299.596 120.752C299.71 120.93 299.748 121.146 299.701 121.352C299.655 121.558 299.529 121.737 299.35 121.851L280.025 134.103C279.896 134.181 279.748 134.22 279.597 134.218ZM268.419 114.39L279.846 132.322L297.824 120.924L286.397 102.991L268.419 114.39Z" fill="#262424"/>
<path d="M267.319 114.927C267.201 114.926 267.084 114.9 266.978 114.849C266.871 114.798 266.777 114.724 266.702 114.633C266.628 114.542 266.575 114.435 266.546 114.32C266.518 114.206 266.516 114.087 266.54 113.971L269.235 101.885C269.281 101.678 269.408 101.499 269.586 101.386C269.765 101.273 269.982 101.235 270.188 101.281C270.395 101.327 270.575 101.453 270.688 101.631C270.802 101.81 270.84 102.026 270.794 102.232L268.095 114.318C268.053 114.492 267.953 114.646 267.812 114.757C267.672 114.867 267.498 114.927 267.319 114.927Z" fill="#262424"/>
<path d="M286.639 102.689C286.521 102.688 286.404 102.662 286.298 102.611C286.191 102.56 286.097 102.486 286.023 102.395C285.948 102.303 285.895 102.196 285.867 102.082C285.839 101.968 285.836 101.848 285.86 101.733L288.559 89.6463C288.605 89.4401 288.731 89.2607 288.91 89.1475C289.089 89.0343 289.305 88.9965 289.512 89.0426C289.719 89.0886 289.899 89.2147 290.012 89.393C290.126 89.5714 290.163 89.7874 290.117 89.9935L287.418 102.08C287.376 102.254 287.276 102.409 287.135 102.519C286.993 102.63 286.819 102.689 286.639 102.689Z" fill="#262424"/>
<path d="M298.936 121.965C298.818 121.965 298.701 121.938 298.595 121.887C298.488 121.836 298.394 121.763 298.32 121.671C298.245 121.58 298.192 121.473 298.164 121.358C298.135 121.244 298.133 121.125 298.157 121.009L300.852 108.91C300.898 108.704 301.025 108.524 301.204 108.411C301.382 108.298 301.599 108.26 301.806 108.306C302.012 108.352 302.192 108.478 302.306 108.657C302.419 108.835 302.457 109.051 302.411 109.257L299.712 121.344C299.672 121.52 299.574 121.677 299.433 121.79C299.292 121.903 299.117 121.964 298.936 121.965Z" fill="#262424"/>
<path d="M279.799 133.326C279.681 133.325 279.565 133.299 279.458 133.248C279.351 133.197 279.257 133.123 279.183 133.032C279.108 132.941 279.055 132.834 279.027 132.719C278.999 132.605 278.996 132.486 279.02 132.37L279.85 128.627C279.897 128.421 280.023 128.241 280.202 128.128C280.381 128.015 280.597 127.977 280.804 128.023C281.01 128.069 281.19 128.195 281.304 128.374C281.417 128.552 281.455 128.768 281.409 128.974L280.575 132.705C280.536 132.881 280.437 133.038 280.296 133.151C280.155 133.263 279.98 133.325 279.799 133.326ZM281.466 125.862C281.348 125.861 281.232 125.835 281.125 125.784C281.019 125.733 280.925 125.659 280.85 125.568C280.776 125.476 280.722 125.37 280.694 125.255C280.666 125.141 280.664 125.022 280.687 124.906L281.521 121.176C281.567 120.969 281.693 120.79 281.872 120.677C282.051 120.564 282.267 120.526 282.474 120.572C282.681 120.618 282.861 120.744 282.974 120.922C283.088 121.101 283.125 121.317 283.079 121.523L282.246 125.253C282.204 125.428 282.104 125.583 281.963 125.694C281.821 125.805 281.646 125.866 281.466 125.865V125.862Z" fill="#262424"/>
<g clip-path="url(#clip0_1622:680)">
<path d="M46.9432 206.419C43.7342 208.268 42.6273 212.39 44.4801 215.592C46.3328 218.794 50.4637 219.898 53.6727 218.05C56.8818 216.201 57.9887 212.079 56.1359 208.877C54.2832 205.675 50.1523 204.57 46.9432 206.419ZM67.7874 202.164C66.394 199.756 65.0352 197.357 63.5088 195.031C61.7578 192.317 59.6857 190.207 56.4583 189.344C53.2239 188.48 50.379 189.275 47.5026 190.752C45.011 192.007 42.6321 193.407 40.2232 194.794C37.8098 196.185 35.4057 197.541 33.0749 199.064C30.3551 200.811 28.2403 202.879 27.3755 206.099C26.5089 209.326 27.3062 212.165 28.7861 215.035C30.0439 217.522 31.4465 219.895 32.8373 222.299C34.2282 224.703 35.5896 227.106 37.1159 229.432C38.867 232.146 40.939 234.256 44.1665 235.119C47.4008 235.984 50.2457 235.189 53.1221 233.712C55.6137 232.457 57.9926 231.057 60.4016 229.669C62.8149 228.279 65.2191 226.923 67.5498 225.4C70.2696 223.653 72.3844 221.585 73.2492 218.364C74.1159 215.137 73.3186 212.298 71.8386 209.428C70.5877 206.944 69.1807 204.572 67.7874 202.164ZM55.4851 221.182C50.5229 224.041 44.2059 222.352 41.341 217.4C38.476 212.449 40.1686 206.145 45.1309 203.287C50.0931 200.428 56.4101 202.117 59.275 207.068C62.14 212.02 60.4474 218.323 55.4851 221.182ZM55.4622 199.632C54.3036 200.3 52.8278 199.905 52.1589 198.749C51.49 197.593 51.8854 196.12 53.044 195.453C54.2026 194.785 55.6784 195.18 56.3473 196.336C56.5065 196.61 56.6099 196.913 56.6516 197.228C56.6932 197.542 56.6723 197.861 56.5901 198.167C56.5079 198.474 56.366 198.761 56.1724 199.012C55.9789 199.263 55.7375 199.474 55.4622 199.632Z" fill="black"/>
</g>
<path d="M194.392 97.4593C194.412 97.8711 194.419 98.2879 194.419 98.6996C194.419 111.381 185.133 126 168.153 126C162.936 126 158.087 124.412 154 121.687C156.417 121.991 158.868 121.797 161.213 121.115C163.558 120.434 165.751 119.28 167.666 117.717C165.74 117.68 163.874 117.017 162.327 115.823C160.781 114.629 159.633 112.962 159.043 111.056C160.427 111.325 161.852 111.269 163.213 110.891C161.123 110.451 159.244 109.273 157.895 107.558C156.545 105.843 155.808 103.696 155.807 101.48V101.36C157.089 102.102 158.523 102.514 159.989 102.563C158.033 101.207 156.647 99.1263 156.117 96.7455C155.586 94.3646 155.949 91.8629 157.133 89.7511C159.451 92.7156 162.343 95.1403 165.621 96.8676C168.9 98.5949 172.491 99.5862 176.162 99.7772C176.004 99.0595 175.924 98.3254 175.925 97.589C175.925 96.3295 176.164 95.0824 176.628 93.9188C177.092 92.7553 177.772 91.6981 178.629 90.8077C179.486 89.9172 180.503 89.2109 181.623 88.7292C182.743 88.2475 183.943 87.9997 185.155 88C186.418 87.9979 187.668 88.2654 188.828 88.7861C189.987 89.3068 191.031 90.0695 191.895 91.0269C193.962 90.6017 195.945 89.8145 197.758 88.6989C197.068 90.9207 195.625 92.8065 193.698 94.0055C195.528 93.7801 197.315 93.2712 199 92.4959C197.762 94.4234 196.202 96.1045 194.392 97.4593Z" fill="black"/>
<path fill-rule="evenodd" clip-rule="evenodd" d="M216 30.1563C216 44.077 226.11 55.6527 239.333 58V37.777H232.333V30H239.333V23.777C239.333 16.777 243.844 12.8897 250.223 12.8897C252.244 12.8897 254.423 13.2 256.444 13.5103V20.6667H252.867C249.444 20.6667 248.667 22.377 248.667 24.5563V30H256.133L254.89 37.777H248.667V58C261.89 55.6527 272 44.0793 272 30.1563C272 14.67 259.4 2 244 2C228.6 2 216 14.67 216 30.1563Z" fill="black"/>
<g clip-path="url(#clip1_1622:680)">
<path fill-rule="evenodd" clip-rule="evenodd" d="M37.2729 53.0768C36.6038 51.9178 36.4224 50.5406 36.7688 49.248C37.1151 47.9554 37.9608 46.8533 39.1197 46.1842L82.679 21.0352C83.2527 20.7027 83.8865 20.4866 84.5439 20.3994C85.2013 20.3121 85.8695 20.3553 86.5101 20.5266C87.1508 20.6979 87.7514 20.9939 88.2775 21.3976C88.8037 21.8013 89.245 22.3048 89.5763 22.8794L114.725 66.4386C115.057 67.0127 115.273 67.6466 115.36 68.3042C115.447 68.9618 115.404 69.6301 115.232 70.2708C115.061 70.9116 114.765 71.5122 114.361 72.0384C113.957 72.5646 113.453 73.006 112.879 73.3373L69.3171 98.4876C68.7431 98.819 68.1094 99.0341 67.4522 99.1205C66.795 99.207 66.1272 99.1631 65.487 98.9913C64.8468 98.8196 64.2467 98.5234 63.721 98.1197C63.1953 97.7159 62.7543 97.2126 62.4232 96.6384L37.2729 53.0768ZM66.9661 56.6962L74.0485 52.6072L76.1019 56.1639C75.9437 53.5291 77.4965 50.1791 81.4264 47.9101C88.9605 43.5603 93.0972 46.602 97.4113 54.0743L105.403 67.9157L97.7782 72.3176L90.7697 60.1785C88.3127 55.9229 85.9041 54.1119 83.3079 55.6108C79.7061 57.6903 79.7031 61.1441 82.0516 65.2118L89.0602 77.351L81.4334 81.7543L66.9661 56.6962ZM68.1695 88.978L75.7963 84.5746L61.3276 59.5142L53.7008 63.9175L68.1681 88.9756L68.1695 88.978ZM57.6998 50.7105C58.0912 51.3552 58.3499 52.0716 58.4607 52.8177C58.5715 53.5637 58.5321 54.3244 58.3449 55.055C58.1578 55.7856 57.8265 56.4715 57.3707 57.0724C56.9148 57.6733 56.3436 58.177 55.6904 58.5542C55.0372 58.9313 54.3153 59.1741 53.567 59.2684C52.8187 59.3628 52.0591 59.3067 51.3328 59.1035C50.6065 58.9002 49.928 58.554 49.3373 58.085C48.7466 57.6161 48.2556 57.0339 47.8929 56.3725C47.1811 55.0745 47.0059 53.5493 47.4048 52.1236C47.8037 50.6979 48.7449 49.4851 50.027 48.7449C51.3091 48.0047 52.8301 47.7959 54.2642 48.1633C55.6983 48.5307 56.9316 49.4451 57.6998 50.7105Z" fill="black"/>
</g>
<defs>
<clipPath id="clip0_1622:680">
<rect width="51.6677" height="51.6121" fill="white" transform="matrix(0.866491 -0.499193 0.500808 0.865558 15 202.793)"/>
</clipPath>
<clipPath id="clip1_1622:680">
<rect x="35" y="47.7578" width="59.5141" height="60.9186" rx="9" transform="rotate(-30 35 47.7578)" fill="white"/>
</clipPath>
</defs>
</svg>
