<svg width="472" height="587" viewBox="0 0 472 587" fill="none" xmlns="http://www.w3.org/2000/svg">
<g clip-path="url(#clip0_1497:1763)">
<path d="M463.532 43.9277H168.438V253.975H463.532V43.9277Z" fill="white"/>
<path d="M464.764 262.411H167.2C165.293 262.405 163.465 261.644 162.116 260.295C160.767 258.946 160.007 257.119 160 255.211V42.6944C160.007 40.7868 160.767 38.9592 162.116 37.6104C163.465 36.2615 165.293 35.5008 167.2 35.4941H464.764C466.672 35.5008 468.5 36.2615 469.849 37.6104C471.197 38.9592 471.958 40.7868 471.965 42.6944V255.211C471.958 257.119 471.197 258.946 469.849 260.295C468.5 261.644 466.672 262.405 464.764 262.411ZM167.2 37.0617C165.708 37.0634 164.277 37.657 163.222 38.7124C162.166 39.7678 161.572 41.1987 161.571 42.6912V255.211C161.572 256.704 162.166 258.135 163.222 259.19C164.277 260.245 165.708 260.839 167.2 260.841H464.764C466.257 260.839 467.688 260.245 468.743 259.19C469.799 258.135 470.392 256.704 470.394 255.211V42.6944C470.392 41.2018 469.799 39.7709 468.743 38.7155C467.688 37.6602 466.257 37.0665 464.764 37.0649H167.2V37.0617Z" fill="#0A0627"/>
<path d="M463.535 254.763H168.438C168.229 254.763 168.03 254.68 167.882 254.533C167.735 254.386 167.652 254.186 167.652 253.977V43.9299C167.652 43.7216 167.735 43.5218 167.882 43.3746C168.03 43.2273 168.229 43.1445 168.438 43.1445H463.532C463.741 43.1445 463.94 43.2273 464.088 43.3746C464.235 43.5218 464.318 43.7216 464.318 43.9299V253.977C464.318 254.185 464.235 254.385 464.089 254.532C463.942 254.679 463.743 254.762 463.535 254.763ZM169.226 253.192H462.734V44.7153H169.223V253.192H169.226Z" fill="#0A0627"/>
<path d="M463.532 68.6626H168.438C168.229 68.6626 168.03 68.5799 167.882 68.4326C167.735 68.2853 167.652 68.0856 167.652 67.8773V43.9299C167.652 43.7216 167.735 43.5218 167.882 43.3746C168.03 43.2273 168.229 43.1445 168.438 43.1445H463.532C463.741 43.1445 463.94 43.2273 464.088 43.3746C464.235 43.5218 464.318 43.7216 464.318 43.9299V67.8773C464.318 68.0856 464.235 68.2853 464.088 68.4326C463.94 68.5799 463.741 68.6626 463.532 68.6626ZM169.223 67.0919H462.734V44.7153H169.223V67.0919Z" fill="#0A0627"/>
<path d="M221.81 50.209C220.3 50.209 218.852 50.8087 217.785 51.8762C216.717 52.9437 216.117 54.3916 216.117 55.9013C216.117 57.411 216.717 58.8589 217.785 59.9264C218.852 60.9939 220.3 61.5936 221.81 61.5936H409.952C411.462 61.5936 412.91 60.9939 413.978 59.9264C415.045 58.8589 415.645 57.411 415.645 55.9013C415.645 54.3916 415.045 52.9437 413.978 51.8762C412.91 50.8087 411.462 50.209 409.952 50.209H221.81Z" fill="#3257FB"/>
<path d="M182.552 60.1552L188.134 51.3591C188.265 51.1528 188.446 50.9828 188.659 50.8651C188.873 50.7473 189.114 50.6855 189.358 50.6855C189.602 50.6855 189.842 50.7473 190.056 50.8651C190.27 50.9828 190.451 51.1528 190.582 51.3591L196.164 60.1552C196.304 60.3744 196.382 60.6272 196.391 60.8871C196.399 61.147 196.338 61.4044 196.212 61.6323C196.087 61.8601 195.903 62.05 195.678 62.182C195.454 62.314 195.199 62.3833 194.939 62.3825H183.777C183.517 62.3833 183.261 62.314 183.037 62.182C182.813 62.05 182.629 61.8601 182.504 61.6323C182.378 61.4044 182.317 61.147 182.325 60.8871C182.333 60.6272 182.412 60.3744 182.552 60.1552Z" fill="#0A0627"/>
<path d="M452.414 49.9414H440.69C439.649 49.9414 438.805 50.7853 438.805 51.8263V52.2284C438.805 53.2694 439.649 54.1133 440.69 54.1133H452.414C453.455 54.1133 454.299 53.2694 454.299 52.2284V51.8263C454.299 50.7853 453.455 49.9414 452.414 49.9414Z" fill="#0A0627"/>
<path d="M452.414 57.6914H440.69C439.649 57.6914 438.805 58.5353 438.805 59.5763V59.9784C438.805 61.0194 439.649 61.8633 440.69 61.8633H452.414C453.455 61.8633 454.299 61.0194 454.299 59.9784V59.5763C454.299 58.5353 453.455 57.6914 452.414 57.6914Z" fill="#0A0627"/>
<path d="M382.53 348.889H314.872C312.25 348.889 310.125 351.014 310.125 353.635V422.074C310.125 424.695 312.25 426.821 314.872 426.821H382.53C385.152 426.821 387.277 424.695 387.277 422.074V353.635C387.277 351.014 385.152 348.889 382.53 348.889Z" fill="#0A0627"/>
<path d="M401.323 162H218.28C215.916 162 214 163.916 214 166.28V453.206C214 455.569 215.916 457.485 218.28 457.485H401.323C403.687 457.485 405.603 455.569 405.603 453.206V166.28C405.603 163.916 403.687 162 401.323 162Z" fill="#3257FB"/>
<path d="M382.08 194.16H299.271C296.817 194.16 294.828 196.149 294.828 198.603V199.555C294.828 202.009 296.817 203.998 299.271 203.998H382.08C384.534 203.998 386.523 202.009 386.523 199.555V198.603C386.523 196.149 384.534 194.16 382.08 194.16Z" fill="#0A0627"/>
<path d="M382.08 220.154H299.271C296.817 220.154 294.828 222.144 294.828 224.597V225.549C294.828 228.003 296.817 229.992 299.271 229.992H382.08C384.534 229.992 386.523 228.003 386.523 225.549V224.597C386.523 222.144 384.534 220.154 382.08 220.154Z" fill="#0A0627"/>
<path d="M303.785 366.756H241.01C238.556 366.756 236.566 368.745 236.566 371.199V372.15C236.566 374.604 238.556 376.594 241.01 376.594H303.785C306.239 376.594 308.229 374.604 308.229 372.15V371.199C308.229 368.745 306.239 366.756 303.785 366.756Z" fill="white"/>
<path d="M303.785 392.754H241.01C238.556 392.754 236.566 394.743 236.566 397.197V398.149C236.566 400.602 238.556 402.592 241.01 402.592H303.785C306.239 402.592 308.229 400.602 308.229 398.149V397.197C308.229 394.743 306.239 392.754 303.785 392.754Z" fill="white"/>
<path d="M303.785 418.75H241.01C238.556 418.75 236.566 420.739 236.566 423.193V424.145C236.566 426.599 238.556 428.588 241.01 428.588H303.785C306.239 428.588 308.229 426.599 308.229 424.145V423.193C308.229 420.739 306.239 418.75 303.785 418.75Z" fill="white"/>
<path d="M272.195 235.617H254.719L250.423 245.932H240.18L263.959 191.143H264.531L288.311 245.932H276.279L272.195 235.617ZM268.756 226.878L263.671 214.068L258.372 226.887H268.756V226.878Z" fill="white"/>
<path d="M383.036 256.402H240.052C238.127 256.402 236.566 257.963 236.566 259.888V350.677C236.566 352.602 238.127 354.162 240.052 354.162H383.036C384.961 354.162 386.522 352.602 386.522 350.677V259.888C386.522 257.963 384.961 256.402 383.036 256.402Z" fill="white"/>
<path d="M382.18 370.914V429.512C382.18 429.565 382.159 429.616 382.121 429.653C382.084 429.691 382.033 429.712 381.98 429.712H324.057C324.003 429.712 323.951 429.691 323.913 429.653C323.875 429.614 323.854 429.563 323.854 429.509V370.914C323.854 370.861 323.875 370.811 323.912 370.773C323.95 370.736 324.001 370.715 324.053 370.715H381.977C382.03 370.715 382.081 370.736 382.119 370.773C382.157 370.81 382.179 370.861 382.18 370.914Z" fill="white"/>
<path d="M324.076 429.717H381.947C381.976 429.717 382.005 429.711 382.032 429.7C382.059 429.689 382.084 429.672 382.104 429.652C382.125 429.631 382.141 429.606 382.153 429.579C382.164 429.552 382.169 429.524 382.169 429.494V419.062L369.137 406.03C368.693 405.585 368.165 405.232 367.585 404.992C367.004 404.751 366.382 404.627 365.753 404.627C365.124 404.627 364.502 404.751 363.921 404.992C363.341 405.232 362.813 405.585 362.369 406.03L355.941 412.477L339.767 396.303C339.322 395.858 338.795 395.506 338.214 395.265C337.633 395.024 337.011 394.9 336.383 394.9C335.754 394.9 335.132 395.024 334.551 395.265C333.97 395.506 333.443 395.858 332.999 396.303L323.844 405.457V429.501C323.845 429.53 323.851 429.559 323.863 429.586C323.876 429.613 323.893 429.637 323.915 429.657C323.936 429.678 323.962 429.693 323.989 429.703C324.017 429.713 324.046 429.718 324.076 429.717Z" fill="#0A0627"/>
<path d="M357.757 398.041C361.448 398.041 364.44 395.049 364.44 391.359C364.44 387.668 361.448 384.676 357.757 384.676C354.066 384.676 351.074 387.668 351.074 391.359C351.074 395.049 354.066 398.041 357.757 398.041Z" fill="#0A0627"/>
<path d="M30.5166 403.045L23.6992 431.334L33.419 433.362L43.5754 407.833L30.5166 403.045Z" fill="white"/>
<path d="M33.4196 434.305C33.3552 434.305 33.2908 434.299 33.2276 434.286L23.5079 432.253C23.3858 432.227 23.2701 432.177 23.1675 432.106C23.0649 432.035 22.9774 431.945 22.9102 431.84C22.8429 431.735 22.7972 431.617 22.7757 431.494C22.7543 431.371 22.7575 431.245 22.7851 431.124L29.6025 402.835C29.6337 402.706 29.6917 402.585 29.7729 402.481C29.854 402.376 29.9564 402.289 30.0733 402.227C30.1903 402.164 30.3191 402.127 30.4514 402.118C30.5837 402.108 30.7165 402.127 30.841 402.173L43.896 406.961C44.0139 407.004 44.122 407.071 44.2138 407.157C44.3056 407.242 44.3792 407.346 44.4305 407.46C44.4817 407.575 44.5094 407.699 44.512 407.825C44.5146 407.95 44.4921 408.075 44.4456 408.192L34.2817 433.721C34.2113 433.892 34.092 434.039 33.9387 434.143C33.7853 434.247 33.6048 434.303 33.4196 434.305ZM24.8405 430.608L32.8361 432.279L42.3413 408.384L31.1873 404.284L24.8405 430.608Z" fill="#0A0627"/>
<path d="M64.03 457.88V461.942H14.125C14.125 461.942 14.125 460.026 14.2869 457.007C14.6633 449.791 16.0034 436.254 20.5095 427.559H38.9326C38.9326 427.559 43.8263 441.976 59.5428 450.4C60.7658 451.056 61.81 452 62.5842 453.152C63.3585 454.303 63.8393 455.627 63.9848 457.007C64.0146 457.297 64.0296 457.588 64.03 457.88Z" fill="#3257FB"/>
<path d="M64.03 457.879V461.941H14.125C14.125 461.941 14.125 460.025 14.2869 457.006H63.9773C64.0095 457.296 64.0271 457.587 64.03 457.879Z" fill="white"/>
<path d="M64.0296 462.888H14.1247C13.8751 462.888 13.6357 462.788 13.4592 462.612C13.2827 462.435 13.1836 462.196 13.1836 461.946C13.1836 461.867 13.1836 459.97 13.3492 456.962C13.3618 456.721 13.4664 456.495 13.6416 456.328C13.8167 456.162 14.049 456.07 14.2903 456.07H63.9807C64.2142 456.07 64.4394 456.157 64.6126 456.313C64.7858 456.47 64.8947 456.685 64.9181 456.917C64.9506 457.239 64.9669 457.562 64.967 457.885V461.946C64.967 462.195 64.8684 462.434 64.6927 462.611C64.517 462.787 64.2786 462.887 64.0296 462.888ZM15.0922 461.005H63.0885V457.952H15.1825C15.1223 459.244 15.0922 460.309 15.0809 461.005H15.0922Z" fill="#0A0627"/>
<path d="M71.9272 357.559C71.7691 358.767 70.1467 363.081 67.8428 368.788C61.3831 384.816 49.5402 411.836 49.5402 411.836L25.926 403.254L40.9536 349.586C40.9536 349.586 27.1532 306.651 25.6173 294.692C24.0814 282.733 29.6076 264.028 29.6076 264.028C39.4214 235.796 61.1949 240.414 64.2591 255.746C66.7436 268.169 70.6323 324.162 71.6976 347.501C71.9498 353 72.0439 356.686 71.9272 357.559Z" fill="#3257FB"/>
<path d="M54.6452 353.843C54.5704 353.843 54.4958 353.834 54.4231 353.816L43.1975 351.095C43.0751 351.068 42.9593 351.017 42.8568 350.945C42.7543 350.873 42.6673 350.781 42.6007 350.675C42.5342 350.569 42.4895 350.451 42.4693 350.327C42.4491 350.203 42.4539 350.077 42.4832 349.955C42.5125 349.833 42.5658 349.719 42.6401 349.618C42.7143 349.517 42.808 349.432 42.9156 349.368C43.0231 349.303 43.1424 349.261 43.2665 349.244C43.3905 349.226 43.5168 349.234 43.638 349.265L54.8635 351.961C55.1131 351.99 55.341 352.117 55.497 352.314C55.653 352.51 55.7244 352.761 55.6954 353.011C55.6665 353.261 55.5396 353.488 55.3426 353.644C55.1456 353.8 54.8948 353.872 54.6452 353.843Z" fill="#0A0627"/>
<path d="M43.7581 404.201C43.6049 404.201 43.454 404.164 43.3184 404.092C43.1829 404.021 43.0669 403.917 42.9805 403.791C42.894 403.664 42.8398 403.519 42.8225 403.366C42.8051 403.214 42.8252 403.06 42.881 402.917L61.5412 355.22L57.9123 306.013C57.8938 305.764 57.9753 305.517 58.1387 305.327C58.3021 305.138 58.5342 305.021 58.7838 305.003C59.0334 304.984 59.2801 305.066 59.4696 305.229C59.6592 305.392 59.776 305.624 59.7945 305.874L63.4385 355.295C63.448 355.435 63.4261 355.575 63.3745 355.706L44.6352 403.602C44.5662 403.779 44.4456 403.93 44.2891 404.037C44.1326 404.144 43.9475 404.201 43.7581 404.201Z" fill="#0A0627"/>
<path d="M31.8744 279.48C31.8744 279.48 31.0575 283.071 30.4062 292.045C32.5313 295.213 35.3151 297.885 38.5675 299.878C38.5675 299.878 42.332 298.244 48.5244 294.491L50.3201 281.271C50.3201 281.271 38.0781 278.828 31.8744 279.48Z" fill="#0A0627"/>
<path d="M71.9259 357.558C71.7678 358.766 70.1454 363.08 67.8415 368.787C65.1236 366.66 63.3242 363.099 63.3242 359.064C63.3242 353.335 66.9192 348.558 71.6775 347.5C71.9485 353 72.0426 356.685 71.9259 357.558Z" fill="white"/>
<path d="M26.6048 394.053L54.8907 405.221L48.3632 419.149L23.2695 409.14L26.6048 394.053Z" fill="white"/>
<path d="M48.3623 420.094C48.2424 420.094 48.1235 420.071 48.0122 420.026L22.9148 410.017C22.7079 409.934 22.5372 409.78 22.4331 409.583C22.329 409.386 22.2983 409.158 22.3464 408.94L25.6817 393.853C25.7109 393.72 25.7686 393.595 25.851 393.486C25.9333 393.377 26.0382 393.288 26.1585 393.224C26.2788 393.16 26.4115 393.123 26.5476 393.115C26.6837 393.107 26.8198 393.129 26.9465 393.179L55.2362 404.348C55.356 404.395 55.465 404.466 55.5562 404.557C55.6475 404.647 55.7192 404.756 55.7668 404.876C55.8145 404.995 55.837 405.123 55.8332 405.252C55.8293 405.381 55.7991 405.507 55.7444 405.624L49.2169 419.552C49.1408 419.714 49.02 419.851 48.8687 419.947C48.7173 420.043 48.5416 420.094 48.3623 420.094ZM24.3566 408.564L47.9031 417.944L53.6288 405.729L27.2966 395.332L24.3566 408.564Z" fill="#0A0627"/>
<path d="M94.2021 403.588L91.168 432.528L101.068 433.262L107.777 406.618L94.2021 403.588Z" fill="white"/>
<path d="M101.069 434.201H100.998L91.0935 433.449C90.968 433.439 90.8457 433.405 90.7338 433.347C90.6218 433.29 90.5226 433.21 90.4419 433.114C90.3611 433.017 90.3006 432.906 90.2638 432.785C90.227 432.665 90.2147 432.539 90.2276 432.413L93.2655 403.474C93.2796 403.343 93.3208 403.216 93.3867 403.103C93.4526 402.989 93.5416 402.89 93.648 402.813C93.7545 402.735 93.8759 402.681 94.0045 402.654C94.1332 402.626 94.2661 402.626 94.3949 402.653L107.966 405.664C108.088 405.692 108.204 405.743 108.307 405.816C108.409 405.889 108.496 405.982 108.562 406.089C108.628 406.196 108.672 406.315 108.691 406.439C108.71 406.564 108.704 406.691 108.673 406.812L101.965 433.456C101.921 433.663 101.809 433.849 101.646 433.984C101.484 434.119 101.281 434.196 101.069 434.201ZM92.204 431.661L100.35 432.267L106.625 407.324L95.0273 404.738L92.204 431.661Z" fill="#0A0627"/>
<path d="M131.616 457.88V461.942H81.7109C81.7109 461.942 81.7109 460.026 81.8728 457.007C82.2492 449.791 83.5894 436.254 88.0954 427.559H106.518C106.518 427.559 111.412 441.976 127.129 450.4C128.352 451.056 129.396 452 130.17 453.152C130.944 454.303 131.425 455.627 131.571 457.007C131.6 457.297 131.616 457.588 131.616 457.88Z" fill="#3257FB"/>
<path d="M131.616 457.879V461.941H81.7109C81.7109 461.941 81.7109 460.025 81.8728 457.006H131.563C131.595 457.296 131.613 457.587 131.616 457.879Z" fill="white"/>
<path d="M131.616 462.888H81.7106C81.461 462.888 81.2217 462.788 81.0452 462.612C80.8687 462.435 80.7695 462.196 80.7695 461.946C80.7695 461.867 80.7695 459.97 80.9352 456.962C80.9477 456.721 81.0524 456.495 81.2275 456.328C81.4027 456.162 81.6349 456.07 81.8763 456.07H131.567C131.8 456.07 132.025 456.157 132.199 456.313C132.372 456.47 132.481 456.685 132.504 456.917C132.536 457.237 132.553 457.559 132.553 457.881V461.943C132.553 462.066 132.53 462.189 132.483 462.303C132.436 462.417 132.367 462.521 132.28 462.609C132.193 462.697 132.089 462.767 131.975 462.814C131.861 462.862 131.739 462.887 131.616 462.888ZM82.6781 461.005H130.674V457.952H82.7684C82.7044 459.244 82.6781 460.309 82.663 461.005H82.6781Z" fill="#0A0627"/>
<path d="M123.032 354.634C123.066 355.853 122.136 360.367 120.773 366.363C116.9 383.204 109.427 411.745 109.427 411.745L84.7592 406.961L91.1926 351.584C91.1926 351.584 64.6157 307.659 61.2278 296.088C57.8398 284.516 60.8099 264.302 60.8099 264.302C66.0801 234.899 94.1062 240.61 99.5345 255.268C103.931 267.144 116.527 321.847 121.233 344.737C122.339 350.128 123.009 353.749 123.032 354.634Z" fill="#3257FB"/>
<path d="M67.9755 311.812C67.8033 311.813 67.6344 311.766 67.4871 311.677C67.3397 311.588 67.2196 311.46 67.1398 311.308C63.4544 304.25 61.1618 299.217 60.3224 296.352C56.9344 284.717 59.754 265 59.8782 264.168C59.9146 263.921 60.0477 263.698 60.2482 263.549C60.4487 263.4 60.7002 263.337 60.9473 263.373C61.1944 263.41 61.4169 263.543 61.5658 263.743C61.7148 263.944 61.778 264.195 61.7416 264.442C61.7115 264.642 58.843 284.589 62.118 295.825C62.9236 298.573 65.1672 303.489 68.7961 310.438C68.8699 310.581 68.9061 310.739 68.9012 310.9C68.8964 311.06 68.8507 311.216 68.7685 311.354C68.6863 311.491 68.5703 311.606 68.4315 311.686C68.2927 311.766 68.1357 311.81 67.9755 311.812Z" fill="#0A0627"/>
<path d="M105.229 353.661H105.154L93.6423 352.743C93.3927 352.723 93.1612 352.604 92.9989 352.414C92.8365 352.223 92.7565 351.976 92.7764 351.726C92.7964 351.477 92.9147 351.245 93.1053 351.083C93.2959 350.92 93.5432 350.84 93.7928 350.86L105.304 351.779C105.554 351.789 105.789 351.898 105.959 352.081C106.128 352.265 106.218 352.508 106.208 352.758C106.198 353.007 106.089 353.243 105.906 353.412C105.722 353.581 105.479 353.671 105.229 353.661Z" fill="#0A0627"/>
<path d="M102.358 405.115C102.29 405.115 102.222 405.107 102.155 405.092C102.033 405.066 101.918 405.016 101.816 404.945C101.713 404.874 101.626 404.783 101.56 404.678C101.493 404.573 101.447 404.455 101.426 404.333C101.405 404.21 101.408 404.084 101.436 403.963L112.405 353.936L92.7966 273.568C92.7372 273.325 92.7766 273.069 92.9061 272.856C93.0357 272.642 93.2447 272.489 93.4873 272.429C93.7299 272.37 93.9862 272.409 94.1998 272.539C94.4133 272.668 94.5667 272.878 94.6261 273.12L114.284 353.698C114.316 353.838 114.316 353.984 114.284 354.124L103.265 404.362C103.223 404.572 103.109 404.761 102.944 404.898C102.779 405.035 102.573 405.111 102.358 405.115Z" fill="#0A0627"/>
<path d="M97.6842 290.565C97.4931 290.564 97.3066 290.506 97.1497 290.396C96.9928 290.287 96.8729 290.133 96.8058 289.954C96.7388 289.775 96.7279 289.58 96.7745 289.394C96.8211 289.209 96.9231 289.042 97.0669 288.916L98.9265 287.297C99.3581 286.922 99.6741 286.432 99.8374 285.884C100.001 285.336 100.005 284.753 99.8488 284.203L97.3379 275.572C97.268 275.332 97.2962 275.075 97.4162 274.856C97.5362 274.637 97.7382 274.475 97.9779 274.405C98.2175 274.335 98.475 274.363 98.6939 274.483C98.9127 274.603 99.0749 274.805 99.1448 275.045L101.656 283.676C101.913 284.572 101.909 285.523 101.644 286.416C101.379 287.31 100.865 288.109 100.161 288.72L98.3016 290.339C98.1298 290.486 97.9105 290.567 97.6842 290.565Z" fill="#0A0627"/>
<path d="M70.5508 283.168C70.5508 283.168 71.0176 287.452 71.778 296.419C74.3724 299.216 77.5401 301.421 81.0648 302.882C81.0648 302.882 84.5168 300.684 90.0542 296.005L89.7945 284.268C89.7945 284.268 78.6895 281.945 70.5508 283.168Z" fill="#0A0627"/>
<path d="M123.028 354.633C123.062 355.852 122.132 360.366 120.77 366.362C117.758 364.687 115.436 361.45 114.803 357.463C113.907 351.817 116.712 346.524 121.248 344.736C122.336 350.127 123.006 353.748 123.028 354.633Z" fill="white"/>
<path d="M83.9725 397.766L113.659 404.376L109.386 419.15L83.0352 413.188L83.9725 397.766Z" fill="white"/>
<path d="M109.392 420.095C109.322 420.096 109.253 420.088 109.185 420.073L82.8336 414.11C82.6161 414.061 82.4232 413.935 82.2894 413.757C82.1557 413.578 82.0897 413.358 82.1033 413.135L83.0407 397.702C83.0492 397.567 83.0865 397.436 83.15 397.318C83.2135 397.199 83.3018 397.095 83.4088 397.013C83.5159 396.932 83.6393 396.874 83.7706 396.844C83.9019 396.814 84.0381 396.813 84.17 396.84L113.856 403.45C113.982 403.478 114.1 403.531 114.204 403.606C114.308 403.682 114.395 403.777 114.461 403.888C114.526 403.998 114.569 404.121 114.585 404.248C114.602 404.375 114.592 404.505 114.556 404.628L110.288 419.403C110.234 419.6 110.117 419.774 109.955 419.899C109.794 420.024 109.596 420.093 109.392 420.095ZM84.042 412.446L108.748 418.036L112.512 405.076L84.8815 398.925L84.042 412.446Z" fill="#0A0627"/>
<path d="M59.9748 191.762L42.8918 196.554L48.7191 181.207L36.1573 180.078C36.1573 180.078 18.1144 200.176 19.255 211.371C20.3956 222.566 39.3194 222.663 61.0175 219.697C82.7156 216.731 59.9748 191.762 59.9748 191.762Z" fill="white"/>
<path d="M40.5881 222.278C31.625 222.278 25.5642 220.881 21.9805 218.066C20.9436 217.279 20.0823 216.285 19.4516 215.147C18.8209 214.009 18.4347 212.752 18.3177 211.456C17.147 199.982 34.708 180.276 35.4572 179.459C35.5551 179.35 35.6773 179.265 35.8139 179.211C35.9505 179.158 36.0978 179.137 36.2439 179.15L48.8058 180.28C48.9505 180.293 49.0902 180.339 49.2139 180.415C49.3376 180.492 49.4421 180.595 49.519 180.719C49.5959 180.842 49.6433 180.981 49.6574 181.126C49.6714 181.27 49.6518 181.416 49.6001 181.552L44.4353 195.149L59.7226 190.85C59.8903 190.803 60.0678 190.803 60.2353 190.851C60.4028 190.899 60.5537 190.992 60.6713 191.121C61.2171 191.719 73.9823 205.866 70.8352 214.546C69.6381 217.851 66.3781 219.891 61.1456 220.607C53.0671 221.717 46.2498 222.278 40.5881 222.278ZM36.5488 181.063C34.1848 183.773 19.1873 201.416 20.1924 211.279C20.2815 212.324 20.5908 213.339 21.1001 214.256C21.6094 215.174 22.3072 215.973 23.1475 216.601C28.4892 220.802 40.8403 221.495 60.8934 218.766C65.3768 218.152 68.1286 216.507 69.0697 213.929C71.5542 207.074 61.7479 195.247 59.6586 192.849L43.1441 197.483C42.9769 197.528 42.8003 197.527 42.6337 197.479C42.4672 197.43 42.3173 197.337 42.2005 197.209C42.0836 197.081 42.0045 196.923 41.9717 196.753C41.9389 196.582 41.9539 196.406 42.0148 196.244L47.4017 182.056L36.5488 181.063Z" fill="#0A0627"/>
<path d="M218.395 299.855L225.382 309.887L213.84 305.747C214.875 305.095 217.555 303.119 218.395 299.855Z" fill="#0A0627"/>
<path d="M178.695 292.551L188.396 281.635L188.445 281.571L196.46 269.359L217.778 299.971C216.987 302.673 214.864 304.397 213.765 305.135L178.695 292.551Z" fill="white"/>
<path d="M213.764 306.066C213.656 306.065 213.549 306.046 213.448 306.01L178.378 293.437C178.235 293.384 178.107 293.296 178.005 293.182C177.903 293.068 177.831 292.931 177.794 292.783C177.757 292.635 177.756 292.48 177.793 292.331C177.829 292.183 177.901 292.046 178.002 291.931L187.684 281.015L195.684 268.826C195.768 268.697 195.883 268.591 196.018 268.517C196.153 268.442 196.305 268.403 196.459 268.401C196.613 268.397 196.766 268.432 196.903 268.503C197.041 268.573 197.158 268.676 197.246 268.803L218.564 299.415C218.644 299.53 218.698 299.662 218.721 299.801C218.743 299.939 218.735 300.081 218.695 300.216C217.83 303.175 215.571 305.046 214.302 305.897C214.144 306.007 213.957 306.066 213.764 306.066ZM180.325 292.138L213.625 304.075C215.024 303.083 216.107 301.708 216.742 300.115L196.485 271.028L189.235 282.076C189.195 282.137 189.151 282.195 189.103 282.249L180.325 292.138Z" fill="#0A0627"/>
<path d="M196.476 270.356L217.158 300.052C216.405 302.288 214.647 303.816 213.68 304.49L179.657 292.305L188.804 282.002C188.84 281.961 188.873 281.917 188.902 281.871L196.457 270.356H196.476ZM196.431 268.338L187.957 281.249L177.703 292.802L213.823 305.751C214.858 305.096 217.538 303.116 218.378 299.856L196.431 268.342V268.338Z" fill="#0A0627"/>
<path d="M48.277 154.645L195.526 267.381C198.075 269.335 198.124 273.841 196.046 278.745C194.181 283.026 191.301 286.787 187.655 289.703C183.461 292.99 179.098 294.119 176.55 292.165L29.293 179.429C30.539 180.381 33.6484 178.002 37.0213 174.381C40.144 170.989 42.9524 167.322 45.4122 163.423C48.0285 159.229 49.5154 155.597 48.277 154.645Z" fill="#3257FB"/>
<path d="M186.19 289.52C185.984 289.521 185.782 289.454 185.618 289.328L39.8257 177.713C39.7268 177.639 39.6435 177.546 39.5805 177.44C39.5176 177.334 39.4762 177.216 39.4587 177.094C39.4234 176.847 39.4877 176.596 39.6374 176.396C39.7872 176.196 40.0101 176.064 40.2572 176.029C40.5043 175.994 40.7553 176.058 40.955 176.208L186.747 287.819C186.908 287.936 187.027 288.101 187.088 288.29C187.15 288.479 187.149 288.683 187.087 288.872C187.025 289.061 186.905 289.226 186.744 289.342C186.583 289.458 186.389 289.521 186.19 289.52Z" fill="#0A0627"/>
<path d="M194.915 278.817C194.708 278.818 194.507 278.751 194.343 278.625L48.0874 166.657C47.9885 166.583 47.9052 166.49 47.8422 166.383C47.7793 166.277 47.7379 166.159 47.7204 166.037C47.7029 165.915 47.7097 165.79 47.7404 165.67C47.7711 165.551 47.825 165.438 47.8992 165.339C47.9733 165.24 48.0662 165.157 48.1726 165.094C48.2789 165.031 48.3966 164.99 48.519 164.972C48.6413 164.955 48.7659 164.962 48.8856 164.992C49.0053 165.023 49.1178 165.077 49.2167 165.151L195.487 277.131C195.643 277.251 195.757 277.416 195.813 277.604C195.87 277.792 195.867 277.993 195.804 278.179C195.741 278.365 195.621 278.526 195.462 278.641C195.302 278.755 195.111 278.817 194.915 278.817Z" fill="#0A0627"/>
<path d="M35.3085 144.721L48.2769 154.643C51.8569 157.384 50.5092 165.153 45.2654 171.997C40.0216 178.84 32.8767 182.16 29.2967 179.427L16.332 169.505C19.912 172.245 27.0606 168.918 32.3007 162.074C37.5408 155.231 38.8885 147.461 35.3085 144.721Z" fill="#0A0627"/>
<path d="M22.3474 134.805L35.3046 144.724C38.8845 147.464 37.5369 155.233 32.293 162.077C27.0492 168.92 19.9081 172.241 16.3243 169.508L3.36719 159.589C6.94715 162.329 14.0958 159.002 19.3359 152.158C24.5759 145.315 25.9236 137.541 22.3474 134.805Z" fill="white"/>
<path d="M19.4261 171.41C18.1104 171.444 16.821 171.037 15.7633 170.254L2.80613 160.331C2.60645 160.181 2.47445 159.959 2.43915 159.711C2.40385 159.464 2.46815 159.213 2.61791 159.014C2.76767 158.814 2.99062 158.682 3.23771 158.647C3.48479 158.611 3.73578 158.676 3.93546 158.826C5.37347 159.928 7.64341 159.846 10.335 158.6C13.2148 157.26 16.1472 154.764 18.5904 151.572C23.4239 145.259 24.8807 137.919 21.7788 135.54C21.68 135.465 21.5966 135.373 21.5337 135.266C21.4707 135.16 21.4293 135.042 21.4118 134.92C21.3765 134.673 21.4408 134.422 21.5906 134.222C21.7404 134.022 21.9633 133.89 22.2104 133.855C22.4575 133.82 22.7085 133.884 22.9081 134.034L35.8615 143.953C37.8868 145.5 38.651 148.361 38.0223 152.001C37.4275 155.426 35.6545 159.198 33.0307 162.627C28.8371 168.153 23.5293 171.41 19.4261 171.41ZM7.34979 161.442L16.9077 168.759C20.0171 171.139 26.7215 167.815 31.555 161.506C33.9981 158.314 35.6432 154.832 36.189 151.719C36.6935 148.801 36.189 146.592 34.7397 145.489L25.1819 138.148C25.8105 142.082 24.0111 147.604 20.0924 152.724C17.4573 156.153 14.2876 158.848 11.1368 160.312C9.94439 160.893 8.66521 161.274 7.34979 161.442Z" fill="#0A0627"/>
<path d="M19.3387 152.162C24.5789 145.318 25.9257 137.549 22.3469 134.809C18.7681 132.069 11.6189 135.396 6.37877 142.239C1.13861 149.083 -0.208198 156.852 3.37059 159.592C6.94938 162.332 14.0985 159.006 19.3387 152.162Z" fill="white"/>
<path d="M6.45412 161.487C5.14205 161.52 3.85657 161.113 2.80263 160.331C0.781134 158.784 0.0131935 155.927 0.645617 152.287C1.2404 148.861 3.00967 145.089 5.63724 141.66C11.2839 134.29 18.873 130.947 22.9272 134.053C26.9815 137.154 25.7355 145.345 20.0926 152.727C17.4575 156.156 14.2879 158.852 11.1371 160.316C9.6792 161.041 8.08143 161.44 6.45412 161.487ZM19.2532 134.76C15.8012 134.76 10.8886 137.866 7.12042 142.789C4.67731 145.982 3.03226 149.464 2.49018 152.577C1.98575 155.494 2.49018 157.704 3.93949 158.807C5.38879 159.909 7.64744 159.827 10.339 158.581C13.2188 157.241 16.1513 154.745 18.5944 151.553C23.4279 145.24 24.8847 137.896 21.7791 135.517C21.0471 134.992 20.1609 134.725 19.2607 134.76H19.2532Z" fill="#0A0627"/>
<path d="M92.7779 180.613C81.4056 182.082 48.7342 193.314 48.7342 193.314C48.7342 193.314 41.6533 211.816 57.6408 221.862C57.6408 221.862 85.0496 215.237 95.1006 210.442C105.152 205.646 113.309 177.967 92.7779 180.613Z" fill="#0A0627"/>
<path d="M107.184 180.897L114.065 170.812L120.886 172.597L116.557 185.286L107.184 180.897Z" fill="white"/>
<path d="M116.559 186.226C116.421 186.226 116.284 186.195 116.16 186.136L106.786 181.747C106.663 181.689 106.554 181.605 106.466 181.501C106.379 181.396 106.315 181.274 106.279 181.143C106.243 181.012 106.237 180.874 106.259 180.74C106.282 180.606 106.333 180.478 106.41 180.365L113.291 170.281C113.401 170.121 113.558 169.999 113.74 169.932C113.922 169.864 114.12 169.855 114.307 169.904L121.129 171.692C121.254 171.725 121.371 171.784 121.473 171.864C121.574 171.944 121.658 172.044 121.719 172.158C121.78 172.273 121.817 172.398 121.828 172.527C121.838 172.656 121.822 172.786 121.78 172.908L117.451 185.579C117.389 185.767 117.27 185.931 117.109 186.047C116.949 186.163 116.756 186.226 116.559 186.226ZM108.586 180.512L116.009 183.987L119.676 173.247L114.473 171.884L108.586 180.512Z" fill="#0A0627"/>
<path d="M117.144 170.484C117.02 171.922 120.231 183.418 127.944 181.995C135.658 180.572 139.456 164.435 135.895 160.4C132.334 156.364 118.808 151.023 117.144 170.484Z" fill="white"/>
<path d="M126.625 183.057C124.617 183.033 122.694 182.239 121.253 180.84C117.696 177.614 116.092 171.757 116.209 170.402L117.146 170.481L116.209 170.402C117.06 160.43 120.997 157.095 124.152 156.056C128.997 154.456 134.444 157.329 136.601 159.775C138.991 162.482 138.378 168.64 136.797 173.218C134.915 178.713 131.734 182.252 128.116 182.918C127.624 183.01 127.125 183.057 126.625 183.057ZM118.084 170.56C118.042 171.369 119.439 176.741 122.62 179.538C124.167 180.897 125.902 181.42 127.773 181.066C130.661 180.532 133.367 177.37 135.016 172.6C136.665 167.831 136.733 162.764 135.189 161.018C133.307 158.868 128.605 156.568 124.743 157.84C120.99 159.083 118.671 163.479 118.08 170.564L118.084 170.56Z" fill="#0A0627"/>
<path d="M112.752 171.196C114.738 172.88 117.17 173.952 119.753 174.282L122.84 171.674C122.84 171.674 120.958 164.318 124.722 163.249C128.487 162.18 129.944 166.81 128.863 170.13C127.783 173.451 138.357 173.571 140.492 168.35C142.626 163.129 137.762 159.094 137.762 159.094C137.762 159.094 136.102 151.738 125.539 151.855C114.976 151.972 111.329 161.111 112.752 171.196Z" fill="#0A0627"/>
<path d="M100.059 180.659C100.059 180.659 106.835 176.386 113.467 179.59C120.1 182.793 119.637 189.2 119.637 189.2L100.059 180.659Z" fill="white"/>
<path d="M119.642 190.145C119.512 190.145 119.384 190.118 119.265 190.066L99.6903 181.521C99.5333 181.453 99.3979 181.343 99.2987 181.203C99.1996 181.064 99.1404 180.899 99.1276 180.729C99.1148 180.558 99.1489 180.387 99.2262 180.234C99.3034 180.081 99.421 179.952 99.5661 179.861C99.8597 179.677 106.85 175.344 113.871 178.732C121.023 182.176 120.59 188.974 120.572 189.272C120.555 189.508 120.449 189.728 120.277 189.89C120.105 190.052 119.878 190.143 119.642 190.145ZM102.28 180.603L118.622 187.732C118.351 185.85 117.259 182.462 113.062 180.441C108.864 178.419 104.584 179.628 102.28 180.599V180.603Z" fill="#0A0627"/>
<path d="M26.5352 265.868C26.5352 265.868 65.4819 264.336 108.415 284.268C108.415 284.268 109.947 254.828 110.561 244.4C110.561 244.4 125.893 236.428 127.429 233.973C128.965 231.519 125.284 196.56 123.748 190.428C122.212 184.296 104.429 178.16 92.774 180.615C81.1193 183.069 50.4581 203.001 26.5352 265.868Z" fill="#0A0627"/>
<path d="M53.5466 214.752C53.3718 214.752 53.2005 214.703 53.0518 214.611C52.9031 214.52 52.783 214.388 52.7048 214.232C52.6267 214.075 52.5936 213.9 52.6093 213.726C52.625 213.552 52.6888 213.386 52.7937 213.246C68.5139 191.342 84.0572 181.472 92.5912 179.676C92.7151 179.643 92.8445 179.636 92.9714 179.655C93.0983 179.673 93.2201 179.718 93.3292 179.785C93.4383 179.853 93.5324 179.942 93.6059 180.047C93.6793 180.152 93.7304 180.271 93.7561 180.397C93.7818 180.523 93.7815 180.652 93.7553 180.778C93.7291 180.903 93.6775 181.022 93.6036 181.127C93.5298 181.232 93.4353 181.321 93.3259 181.388C93.2165 181.455 93.0946 181.499 92.9676 181.517C84.7687 183.264 69.7336 192.897 54.2995 214.361C54.2134 214.48 54.1004 214.578 53.9696 214.646C53.8389 214.714 53.694 214.75 53.5466 214.752Z" fill="#0A0627"/>
<path d="M105.875 280.214C105.71 280.213 105.548 280.169 105.405 280.086C75.8203 262.909 31.5845 262.435 31.1403 262.435C30.8907 262.435 30.6514 262.336 30.4749 262.159C30.2984 261.983 30.1992 261.743 30.1992 261.494C30.1992 261.244 30.2984 261.005 30.4749 260.828C30.6514 260.652 30.8907 260.553 31.1403 260.553C31.5883 260.553 76.3134 261.035 106.335 278.459C106.512 278.563 106.651 278.722 106.73 278.912C106.809 279.102 106.824 279.312 106.771 279.511C106.719 279.71 106.604 279.886 106.442 280.013C106.28 280.14 106.081 280.21 105.875 280.214Z" fill="#0A0627"/>
<path d="M112.453 153.585C112.453 153.585 109.261 141.26 98.3444 142.804C87.4276 144.347 84.9356 157.518 85.5454 166.297C86.1552 175.075 77.8321 176.502 72.6109 176.739C67.3896 176.976 65.1347 195.842 84.3596 194.299C103.585 192.756 103.106 175.67 103.701 167.008C104.296 158.346 107.737 156.208 112.009 157.514C116.282 158.821 112.453 153.585 112.453 153.585Z" fill="#0A0627"/>
<path d="M112.369 154.094L110.234 157.083C110.072 157.309 110.005 157.59 110.047 157.865C110.09 158.14 110.238 158.388 110.46 158.555L112.79 160.309C112.907 160.397 113.04 160.46 113.182 160.494C113.324 160.528 113.471 160.533 113.614 160.508C113.758 160.482 113.895 160.428 114.017 160.348C114.139 160.268 114.243 160.164 114.323 160.042L116.412 156.853C116.565 156.62 116.62 156.336 116.566 156.062C116.512 155.788 116.353 155.547 116.122 155.389L113.837 153.834C113.607 153.677 113.324 153.616 113.05 153.665C112.775 153.713 112.531 153.867 112.369 154.094Z" fill="white"/>
<path d="M113.433 161.466C112.997 161.466 112.573 161.325 112.224 161.063L109.894 159.309C109.473 158.996 109.193 158.53 109.113 158.011C109.033 157.493 109.161 156.964 109.469 156.539L111.603 153.55C111.91 153.125 112.369 152.836 112.885 152.744C113.401 152.652 113.932 152.764 114.366 153.057L116.651 154.612C117.084 154.909 117.384 155.364 117.486 155.88C117.589 156.395 117.487 156.93 117.201 157.371L115.112 160.559C114.961 160.788 114.765 160.984 114.536 161.135C114.307 161.286 114.049 161.388 113.779 161.436C113.665 161.456 113.549 161.466 113.433 161.466ZM113.233 154.589C113.213 154.589 113.194 154.594 113.176 154.603C113.158 154.612 113.143 154.625 113.132 154.642L110.997 157.63C110.978 157.657 110.97 157.69 110.975 157.722C110.98 157.755 110.997 157.784 111.023 157.804L113.354 159.558C113.367 159.568 113.383 159.576 113.4 159.58C113.416 159.585 113.434 159.585 113.451 159.582C113.468 159.58 113.484 159.573 113.498 159.564C113.513 159.554 113.525 159.542 113.534 159.528L115.624 156.339C115.633 156.326 115.639 156.31 115.643 156.294C115.646 156.278 115.646 156.262 115.643 156.246C115.64 156.23 115.633 156.214 115.624 156.201C115.615 156.187 115.603 156.175 115.59 156.166L113.305 154.612C113.285 154.598 113.261 154.59 113.237 154.589H113.233Z" fill="#0A0627"/>
<path d="M187.372 278.655C187.134 278.875 186.832 279.015 186.51 279.056C186.188 279.096 185.862 279.035 185.576 278.881L183.043 277.495C183.649 279.543 184.059 281.165 184.172 281.741C184.47 283.526 184.955 295.251 183.182 296.046C181.409 296.84 178.119 286.462 178.119 286.462C178.119 286.462 178.91 293.174 178.119 293.768C177.329 294.363 166.449 290.004 165.083 288.239C163.716 286.473 161.729 278.165 161.729 276.788C161.729 275.41 162.056 266.827 162.056 266.827C162.056 266.827 136.981 254.006 134.61 251.83C132.238 249.655 116.443 224.976 110.518 212.14C104.592 199.304 107.721 180.268 121.058 186.328C133.142 191.816 151.975 237.146 151.975 237.146C151.975 237.146 175.16 261.52 177.837 264.791C178.383 265.457 187.459 276.46 187.459 276.46C187.738 276.763 187.885 277.164 187.869 277.575C187.853 277.987 187.674 278.375 187.372 278.655Z" fill="white"/>
<path d="M182.963 297.025C182.738 297.024 182.516 296.975 182.312 296.882C181.326 296.438 180.287 294.623 179.383 292.598C179.259 294.104 178.894 294.382 178.687 294.537C178.348 294.793 177.636 295.323 171.47 292.779C169.675 292.026 165.383 290.166 164.344 288.834C162.839 286.876 160.791 278.358 160.791 276.788C160.791 275.602 161.024 269.38 161.099 267.377C156.831 265.186 136.254 254.579 133.996 252.501C131.421 250.141 115.493 225.097 109.685 212.513C105.416 203.268 105.853 191.391 110.637 186.581C112.52 184.68 115.945 182.941 121.475 185.451C133.521 190.917 151.365 233.175 152.803 236.615C154.801 238.716 175.995 261.012 178.589 264.185C179.12 264.833 187.812 275.369 188.196 275.836C188.627 276.323 188.851 276.959 188.82 277.609C188.79 278.259 188.508 278.872 188.034 279.318C187.65 279.666 187.169 279.888 186.655 279.956C186.141 280.023 185.618 279.932 185.158 279.694L184.578 279.378C184.842 280.36 185.034 281.158 185.105 281.572C185.366 284.128 185.464 286.698 185.399 289.267C185.282 295.289 184.45 296.494 183.569 296.885C183.38 296.976 183.173 297.023 182.963 297.025ZM178.126 285.532C178.326 285.533 178.52 285.597 178.682 285.715C178.843 285.834 178.962 286 179.022 286.191C180.309 290.279 181.973 294.062 182.858 294.981C183.727 293.099 183.611 284.268 183.234 281.892C183.148 281.377 182.749 279.788 182.146 277.752C182.094 277.573 182.096 277.384 182.151 277.206C182.207 277.029 182.314 276.872 182.458 276.755C182.603 276.639 182.778 276.567 182.963 276.55C183.148 276.533 183.334 276.572 183.498 276.66L186.035 278.041C186.148 278.099 186.276 278.121 186.403 278.105C186.529 278.089 186.647 278.035 186.743 277.951C186.858 277.841 186.927 277.69 186.933 277.531C186.939 277.371 186.883 277.215 186.777 277.097L186.746 277.063C186.656 276.954 177.663 266.052 177.121 265.393C174.486 262.186 151.523 238.046 151.308 237.801C151.228 237.718 151.165 237.621 151.12 237.515C150.932 237.063 132.298 192.457 120.685 187.183C117.033 185.523 114.097 185.775 111.962 187.936C107.754 192.171 107.483 203.302 111.383 211.752C117.379 224.75 133.216 249.263 135.253 251.142C136.924 252.67 152.46 260.869 162.496 266.003C162.656 266.085 162.789 266.211 162.879 266.365C162.97 266.52 163.015 266.697 163.008 266.877C163.008 266.963 162.68 275.452 162.68 276.799C162.68 278.015 164.627 286.116 165.839 287.671C166.821 288.935 175.205 292.462 177.486 292.858C177.633 291.781 177.486 288.954 177.196 286.583C177.181 286.451 177.193 286.319 177.233 286.192C177.272 286.066 177.338 285.95 177.425 285.851C177.512 285.752 177.619 285.672 177.74 285.618C177.86 285.563 177.99 285.534 178.122 285.532H178.126Z" fill="#0A0627"/>
<path d="M123.129 238.986C123.129 238.986 131.2 243.375 139.41 238.135C147.62 232.895 146.63 223.552 146.63 223.552C146.63 223.552 133.455 192.407 123.693 186.884C113.932 181.362 106.309 185.988 105.884 197.597C105.327 212.903 123.129 238.986 123.129 238.986Z" fill="#0A0627"/>
<path d="M128.695 236.306C126.879 236.314 125.073 236.053 123.334 235.531C123.124 235.432 122.958 235.259 122.867 235.045C122.777 234.831 122.769 234.592 122.844 234.372C122.92 234.153 123.074 233.969 123.277 233.856C123.48 233.743 123.718 233.71 123.944 233.761C124.049 233.795 130.983 236.02 136.472 232.128C142.262 228.002 141.637 221.305 141.637 221.241C141.611 220.992 141.685 220.742 141.843 220.547C142.001 220.352 142.23 220.228 142.48 220.202C142.729 220.176 142.979 220.251 143.174 220.409C143.369 220.567 143.493 220.796 143.519 221.046C143.553 221.366 144.272 228.913 137.571 233.648C134.962 235.44 131.858 236.369 128.695 236.306Z" fill="#0A0627"/>
<path d="M120.848 236.396C120.689 236.396 120.532 236.356 120.392 236.279C120.252 236.202 120.135 236.09 120.05 235.955C115.359 228.468 104.499 209.733 104.947 197.56C105.116 192.896 106.426 189.139 108.711 186.692C108.796 186.602 108.898 186.53 109.011 186.479C109.123 186.429 109.245 186.401 109.369 186.397C109.492 186.393 109.615 186.414 109.731 186.458C109.846 186.502 109.952 186.568 110.042 186.653C110.132 186.738 110.205 186.839 110.255 186.952C110.306 187.065 110.334 187.186 110.338 187.31C110.341 187.433 110.321 187.557 110.277 187.672C110.233 187.788 110.166 187.893 110.082 187.983C108.094 190.095 106.965 193.43 106.81 197.631C106.385 209.301 117.031 227.618 121.627 234.958C121.715 235.099 121.764 235.261 121.769 235.427C121.774 235.593 121.735 235.757 121.656 235.903C121.576 236.049 121.46 236.172 121.318 236.258C121.176 236.345 121.014 236.392 120.848 236.396Z" fill="#0A0627"/>
<path d="M50.6013 83.9759C50.3517 83.9759 50.1123 83.8768 49.9358 83.7003C49.7593 83.5238 49.6602 83.2844 49.6602 83.0348V78.7887C49.6602 78.5391 49.7593 78.2998 49.9358 78.1233C50.1123 77.9468 50.3517 77.8477 50.6013 77.8477C50.8509 77.8477 51.0902 77.9468 51.2667 78.1233C51.4432 78.2998 51.5424 78.5391 51.5424 78.7887V83.0348C51.5424 83.2844 51.4432 83.5238 51.2667 83.7003C51.0902 83.8768 50.8509 83.9759 50.6013 83.9759Z" fill="#0A0627"/>
<path d="M57.0076 86.138H52.7575C52.5079 86.138 52.2685 86.0388 52.0921 85.8624C51.9156 85.6859 51.8164 85.4465 51.8164 85.1969C51.8164 84.9473 51.9156 84.708 52.0921 84.5315C52.2685 84.355 52.5079 84.2559 52.7575 84.2559H57.0076C57.2572 84.2559 57.4965 84.355 57.673 84.5315C57.8495 84.708 57.9487 84.9473 57.9487 85.1969C57.9487 85.4465 57.8495 85.6859 57.673 85.8624C57.4965 86.0388 57.2572 86.138 57.0076 86.138Z" fill="#0A0627"/>
<path d="M50.6013 92.5442C50.3517 92.5442 50.1123 92.445 49.9358 92.2685C49.7593 92.092 49.6602 91.8527 49.6602 91.6031V87.3532C49.6602 87.1036 49.7593 86.8642 49.9358 86.6877C50.1123 86.5113 50.3517 86.4121 50.6013 86.4121C50.8509 86.4121 51.0902 86.5113 51.2667 86.6877C51.4432 86.8642 51.5424 87.1036 51.5424 87.3532V91.5993C51.5429 91.7232 51.5189 91.846 51.4718 91.9606C51.4247 92.0752 51.3555 92.1794 51.2681 92.2672C51.1806 92.355 51.0767 92.4246 50.9623 92.4722C50.8479 92.5197 50.7252 92.5442 50.6013 92.5442Z" fill="#0A0627"/>
<path d="M48.4413 86.138H44.195C43.9454 86.138 43.706 86.0388 43.5296 85.8624C43.3531 85.6859 43.2539 85.4465 43.2539 85.1969C43.2539 84.9473 43.3531 84.708 43.5296 84.5315C43.706 84.355 43.9454 84.2559 44.195 84.2559H48.4413C48.6909 84.2559 48.9302 84.355 49.1067 84.5315C49.2832 84.708 49.3824 84.9473 49.3824 85.1969C49.3824 85.4465 49.2832 85.6859 49.1067 85.8624C48.9302 86.0388 48.6909 86.138 48.4413 86.138Z" fill="#0A0627"/>
<path d="M448.058 397.704C447.809 397.704 447.569 397.605 447.393 397.429C447.216 397.252 447.117 397.013 447.117 396.763V392.517C447.117 392.268 447.216 392.028 447.393 391.852C447.569 391.675 447.809 391.576 448.058 391.576C448.308 391.576 448.547 391.675 448.724 391.852C448.9 392.028 448.999 392.268 448.999 392.517V396.756C449 396.88 448.977 397.003 448.93 397.118C448.883 397.233 448.814 397.338 448.726 397.426C448.639 397.514 448.535 397.584 448.42 397.632C448.305 397.68 448.182 397.704 448.058 397.704Z" fill="#0A0627"/>
<path d="M454.461 399.865H450.207C449.957 399.865 449.718 399.765 449.541 399.589C449.365 399.412 449.266 399.173 449.266 398.923C449.266 398.674 449.365 398.435 449.541 398.258C449.718 398.082 449.957 397.982 450.207 397.982H454.461C454.71 397.982 454.95 398.082 455.126 398.258C455.303 398.435 455.402 398.674 455.402 398.923C455.402 399.173 455.303 399.412 455.126 399.589C454.95 399.765 454.71 399.865 454.461 399.865Z" fill="#0A0627"/>
<path d="M448.058 406.271C447.809 406.271 447.569 406.172 447.393 405.995C447.216 405.819 447.117 405.579 447.117 405.33V401.084C447.117 400.834 447.216 400.595 447.393 400.418C447.569 400.242 447.809 400.143 448.058 400.143C448.308 400.143 448.547 400.242 448.724 400.418C448.9 400.595 448.999 400.834 448.999 401.084V405.33C448.999 405.579 448.9 405.819 448.724 405.995C448.547 406.172 448.308 406.271 448.058 406.271Z" fill="#0A0627"/>
<path d="M445.887 399.865H441.64C441.391 399.865 441.151 399.765 440.975 399.589C440.798 399.412 440.699 399.173 440.699 398.923C440.699 398.674 440.798 398.435 440.975 398.258C441.151 398.082 441.391 397.982 441.64 397.982H445.887C446.136 397.982 446.376 398.082 446.552 398.258C446.729 398.435 446.828 398.674 446.828 398.923C446.828 399.173 446.729 399.412 446.552 399.589C446.376 399.765 446.136 399.865 445.887 399.865Z" fill="#0A0627"/>
<path d="M58.8936 136.373C59.9373 136.373 60.7834 135.527 60.7834 134.483C60.7834 133.44 59.9373 132.594 58.8936 132.594C57.85 132.594 57.0039 133.44 57.0039 134.483C57.0039 135.527 57.85 136.373 58.8936 136.373Z" fill="#3257FB"/>
<path d="M427.484 375.073C429.326 375.073 430.819 373.579 430.819 371.737C430.819 369.896 429.326 368.402 427.484 368.402C425.642 368.402 424.148 369.896 424.148 371.737C424.148 373.579 425.642 375.073 427.484 375.073Z" fill="#0A0627"/>
</g>
<defs>
<clipPath id="clip0_1497:1763">
<rect width="472" height="587" fill="white"/>
</clipPath>
</defs>
</svg>
