<svg width="480" height="550" viewBox="0 0 480 550" fill="none" xmlns="http://www.w3.org/2000/svg">
<path d="M452.761 488.411H237.746C237.538 488.411 237.337 488.328 237.19 488.181C237.042 488.034 236.959 487.834 236.959 487.626C236.959 487.417 237.042 487.217 237.19 487.07C237.337 486.923 237.538 486.84 237.746 486.84H452.758C452.966 486.839 453.167 486.922 453.315 487.069C453.463 487.216 453.546 487.415 453.547 487.624C453.548 487.832 453.465 488.032 453.318 488.18C453.17 488.327 452.97 488.411 452.761 488.411Z" fill="#262424"/>
<path d="M223.277 488.411H190.426C190.217 488.411 190.017 488.328 189.869 488.181C189.722 488.034 189.639 487.834 189.639 487.626C189.639 487.417 189.722 487.217 189.869 487.07C190.017 486.923 190.217 486.84 190.426 486.84H223.285C223.494 486.841 223.693 486.925 223.84 487.073C223.987 487.221 224.069 487.421 224.068 487.629C224.067 487.838 223.983 488.037 223.835 488.184C223.686 488.331 223.486 488.412 223.277 488.411Z" fill="#262424"/>
<path d="M126.097 402.97C94.4155 402.97 68.6406 377.253 68.6406 345.644C68.6406 314.035 94.4155 288.318 126.097 288.318C157.778 288.318 183.553 314.035 183.553 345.644C183.553 377.253 157.774 402.97 126.097 402.97ZM126.097 289.894C95.2857 289.894 70.2156 314.903 70.2156 345.648C70.2156 376.393 95.2818 401.402 126.097 401.402C156.912 401.402 181.978 376.393 181.978 345.648C181.978 314.903 156.908 289.894 126.097 289.894Z" fill="#262424"/>
<path d="M245.612 452.54C240.282 452.54 235.071 450.963 230.639 448.008C226.206 445.053 222.752 440.853 220.712 435.94C218.672 431.026 218.138 425.619 219.178 420.403C220.218 415.186 222.785 410.395 226.554 406.634C230.324 402.873 235.126 400.312 240.354 399.275C245.582 398.237 251.002 398.769 255.926 400.805C260.851 402.84 265.061 406.287 268.022 410.709C270.984 415.131 272.565 420.33 272.565 425.649C272.556 432.778 269.714 439.613 264.661 444.655C259.608 449.696 252.758 452.532 245.612 452.54ZM245.612 400.329C240.593 400.329 235.687 401.814 231.514 404.596C227.34 407.379 224.088 411.333 222.167 415.959C220.246 420.586 219.744 425.677 220.723 430.588C221.702 435.5 224.119 440.012 227.668 443.553C231.217 447.094 235.739 449.505 240.661 450.482C245.584 451.459 250.687 450.958 255.324 449.041C259.961 447.125 263.924 443.879 266.713 439.716C269.501 435.552 270.99 430.657 270.99 425.649C270.984 418.935 268.309 412.497 263.551 407.748C258.794 403 252.342 400.329 245.612 400.321V400.329Z" fill="#262424"/>
<path d="M111.875 351.992V417.155L180.006 458.739V393.576L111.875 351.992Z" fill="black"/>
<path d="M248.138 351.992V417.155L180.008 458.739V393.576L248.138 351.992Z" fill="#3257FB"/>
<path d="M248.136 351.992L223.275 367.168L204.863 378.404L180.006 393.576L111.875 351.992L136.736 336.82L155.144 325.58L180.006 310.408L248.136 351.992Z" fill="white"/>
<path d="M180.006 394.36C179.867 394.358 179.731 394.318 179.612 394.246L111.493 352.662C111.378 352.592 111.283 352.494 111.218 352.376C111.152 352.259 111.117 352.127 111.117 351.993C111.117 351.858 111.152 351.726 111.218 351.609C111.283 351.491 111.378 351.393 111.493 351.323L179.612 309.743C179.736 309.667 179.878 309.627 180.023 309.627C180.169 309.627 180.311 309.667 180.435 309.743L248.553 351.323C248.668 351.393 248.763 351.491 248.829 351.609C248.895 351.726 248.929 351.858 248.929 351.993C248.929 352.127 248.895 352.259 248.829 352.376C248.763 352.494 248.668 352.592 248.553 352.662L180.435 394.246C180.306 394.325 180.157 394.364 180.006 394.36ZM113.383 351.998L180.006 392.659L246.628 351.998L180.006 311.338L113.383 351.998Z" fill="#262424"/>
<path d="M223.277 367.168L204.865 378.404L136.738 336.82L155.146 325.58L223.277 367.168Z" fill="black"/>
<path d="M204.863 379.19C204.724 379.187 204.588 379.148 204.469 379.076L136.35 337.492C136.236 337.422 136.141 337.323 136.075 337.206C136.009 337.089 135.975 336.957 135.975 336.822C135.975 336.688 136.009 336.556 136.075 336.438C136.141 336.321 136.236 336.223 136.35 336.152L154.735 324.893C154.858 324.817 155.001 324.777 155.146 324.777C155.291 324.777 155.434 324.817 155.558 324.893L223.676 366.477C223.791 366.547 223.886 366.646 223.952 366.763C224.018 366.88 224.052 367.013 224.052 367.147C224.052 367.281 224.018 367.413 223.952 367.531C223.886 367.648 223.791 367.746 223.676 367.817L205.265 379.052C205.146 379.134 205.007 379.182 204.863 379.19ZM138.244 336.82L204.863 377.481L221.767 367.169L155.144 326.504L138.244 336.82Z" fill="black"/>
<path d="M204.863 378.404L223.275 367.168V385.483L204.863 396.719V378.404Z" fill="black"/>
<path d="M204.862 397.504C204.653 397.504 204.453 397.421 204.305 397.274C204.157 397.127 204.074 396.927 204.074 396.718V378.403C204.076 378.267 204.113 378.133 204.182 378.015C204.251 377.898 204.35 377.8 204.468 377.732L222.88 366.496C222.999 366.427 223.134 366.391 223.271 366.391C223.409 366.39 223.544 366.426 223.663 366.494C223.783 366.562 223.883 366.66 223.952 366.778C224.022 366.896 224.059 367.031 224.061 367.168V385.483C224.059 385.619 224.022 385.753 223.953 385.871C223.884 385.988 223.786 386.086 223.667 386.154L205.255 397.39C205.137 397.462 205.001 397.501 204.862 397.504ZM205.649 378.843V395.316L222.486 385.043V368.566L205.649 378.843Z" fill="black"/>
<path d="M280.935 291.096H241.563C238.917 291.096 236.771 293.235 236.771 295.875C236.771 298.514 238.917 300.654 241.563 300.654H280.935C283.581 300.654 285.726 298.514 285.726 295.875C285.726 293.235 283.581 291.096 280.935 291.096Z" fill="#3257FB"/>
<path d="M255.672 310.346H241.563C238.917 310.346 236.771 312.485 236.771 315.125C236.771 317.764 238.917 319.904 241.563 319.904H255.672C258.318 319.904 260.463 317.764 260.463 315.125C260.463 312.485 258.318 310.346 255.672 310.346Z" fill="#3257FB"/>
<path d="M215.871 326.516C215.7 326.513 215.535 326.454 215.401 326.349C215.266 326.245 215.169 326.099 215.125 325.935C215.08 325.77 215.091 325.596 215.154 325.438C215.218 325.28 215.331 325.147 215.477 325.058L230.282 316.023C230.37 315.967 230.469 315.929 230.572 315.912C230.674 315.894 230.78 315.897 230.882 315.921C230.983 315.944 231.079 315.988 231.164 316.049C231.249 316.11 231.321 316.187 231.375 316.276C231.43 316.364 231.466 316.463 231.482 316.566C231.498 316.669 231.493 316.774 231.468 316.875C231.443 316.976 231.398 317.072 231.336 317.155C231.273 317.239 231.195 317.309 231.105 317.362L216.3 326.398C216.171 326.478 216.022 326.518 215.871 326.516Z" fill="#262424"/>
<path d="M79.8588 450.688H98.7549C101.401 450.688 103.547 448.548 103.547 445.908C103.547 443.269 101.401 441.129 98.7549 441.129H79.8588C77.2123 441.129 75.0669 443.269 75.0669 445.908C75.0669 448.548 77.2123 450.688 79.8588 450.688Z" fill="#3257FB"/>
<path d="M109.644 445.108C109.473 445.105 109.308 445.046 109.174 444.941C109.039 444.837 108.943 444.691 108.898 444.527C108.854 444.362 108.864 444.188 108.928 444.03C108.991 443.872 109.104 443.738 109.25 443.65L124.055 434.614C124.144 434.559 124.242 434.521 124.345 434.503C124.448 434.486 124.553 434.489 124.655 434.512C124.757 434.536 124.853 434.579 124.938 434.64C125.022 434.701 125.094 434.778 125.149 434.867C125.203 434.956 125.24 435.055 125.256 435.158C125.271 435.261 125.267 435.366 125.242 435.467C125.216 435.568 125.171 435.663 125.109 435.747C125.047 435.831 124.968 435.901 124.878 435.954L110.073 444.99C109.945 445.069 109.796 445.11 109.644 445.108Z" fill="#262424"/>
<path d="M297.924 116.74H177.582V170.192H297.924V116.74Z" fill="white"/>
<path d="M297.92 170.979H177.582C177.374 170.979 177.173 170.896 177.026 170.749C176.878 170.601 176.795 170.401 176.795 170.193V116.741C176.795 116.532 176.878 116.333 177.026 116.185C177.173 116.038 177.374 115.955 177.582 115.955H297.92C298.129 115.955 298.329 116.038 298.477 116.185C298.625 116.333 298.708 116.532 298.708 116.741V170.193C298.708 170.401 298.625 170.601 298.477 170.749C298.329 170.896 298.129 170.979 297.92 170.979ZM178.366 169.407H297.133V117.527H178.37V169.407H178.366Z" fill="#262424"/>
<path d="M177.582 62.375H74.2975C69.7726 62.375 65.433 64.1684 62.2334 67.3608C59.0338 70.5531 57.2363 74.8829 57.2363 79.3975V116.743H177.582V62.375Z" fill="white"/>
<path d="M177.582 117.527H57.2367C57.0279 117.527 56.8276 117.444 56.6799 117.297C56.5322 117.149 56.4492 116.95 56.4492 116.741V79.3961C56.4544 74.6747 58.3366 70.1481 61.6827 66.8095C65.0289 63.471 69.5657 61.5931 74.2979 61.5879H177.582C177.791 61.5879 177.992 61.6707 178.139 61.818C178.287 61.9654 178.37 62.1652 178.37 62.3736V116.741C178.37 116.95 178.287 117.149 178.139 117.297C177.992 117.444 177.791 117.527 177.582 117.527ZM58.0282 115.955H176.795V63.1593H74.2979C69.9831 63.1635 65.8463 64.8755 62.7953 67.9196C59.7443 70.9636 58.0284 75.0911 58.0242 79.3961V115.955H58.0282Z" fill="#262424"/>
<path d="M177.578 116.74H57.2363V170.192H177.578V116.74Z" fill="black"/>
<path d="M177.582 170.979H57.2367C57.0279 170.979 56.8276 170.896 56.6799 170.749C56.5322 170.601 56.4492 170.401 56.4492 170.193V116.741C56.4492 116.532 56.5322 116.333 56.6799 116.185C56.8276 116.038 57.0279 115.955 57.2367 115.955H177.582C177.791 115.955 177.992 116.038 178.139 116.185C178.287 116.333 178.37 116.532 178.37 116.741V170.193C178.37 170.401 178.287 170.601 178.139 170.749C177.992 170.896 177.791 170.979 177.582 170.979ZM58.0282 169.407H176.795V117.527H58.0242V169.407H58.0282Z" fill="#262424"/>
<path d="M177.578 170.193H57.2363V223.645H177.578V170.193Z" fill="white"/>
<path d="M177.582 224.432H57.2367C57.0279 224.432 56.8276 224.349 56.6799 224.202C56.5322 224.054 56.4492 223.854 56.4492 223.646V170.194C56.4492 169.986 56.5322 169.786 56.6799 169.638C56.8276 169.491 57.0279 169.408 57.2367 169.408H177.582C177.791 169.408 177.992 169.491 178.139 169.638C178.287 169.786 178.37 169.986 178.37 170.194V223.646C178.37 223.854 178.287 224.054 178.139 224.202C177.992 224.349 177.791 224.432 177.582 224.432ZM58.0282 222.86H176.795V170.98H58.0242V222.86H58.0282Z" fill="#262424"/>
<path d="M130.55 193.018H104.267C102.108 193.018 100.357 194.764 100.357 196.919C100.357 199.073 102.108 200.82 104.267 200.82H130.55C132.71 200.82 134.46 199.073 134.46 196.919C134.46 194.764 132.71 193.018 130.55 193.018Z" fill="#3257FB"/>
<path d="M130.55 84.3574H104.267C102.108 84.3574 100.357 86.104 100.357 88.2585C100.357 90.413 102.108 92.1596 104.267 92.1596H130.55C132.71 92.1596 134.46 90.413 134.46 88.2585C134.46 86.104 132.71 84.3574 130.55 84.3574Z" fill="#3257FB"/>
<path d="M250.894 139.566H224.611C222.452 139.566 220.701 141.313 220.701 143.467C220.701 145.622 222.452 147.369 224.611 147.369H250.894C253.053 147.369 254.804 145.622 254.804 143.467C254.804 141.313 253.053 139.566 250.894 139.566Z" fill="#3257FB"/>
<path d="M57.2363 223.646V260.991C57.2363 265.506 59.0338 269.836 62.2334 273.028C65.433 276.221 69.7726 278.014 74.2975 278.014H177.582V223.646H57.2363Z" fill="black"/>
<path d="M177.582 278.798H74.2979C69.5657 278.793 65.0289 276.915 61.6827 273.577C58.3366 270.238 56.4544 265.712 56.4492 260.99V223.645C56.4492 223.437 56.5322 223.237 56.6799 223.089C56.8276 222.942 57.0279 222.859 57.2367 222.859H177.582C177.791 222.859 177.992 222.942 178.139 223.089C178.287 223.237 178.37 223.437 178.37 223.645V278.013C178.37 278.221 178.287 278.421 178.139 278.568C177.992 278.715 177.791 278.798 177.582 278.798ZM58.0242 224.431V260.99C58.0284 265.295 59.7443 269.423 62.7953 272.467C65.8463 275.511 69.9831 277.223 74.2979 277.227H176.795V224.431H58.0242Z" fill="#262424"/>
<path d="M297.924 170.193H177.582V223.645H297.924V170.193Z" fill="black"/>
<path d="M297.92 224.432H177.582C177.374 224.432 177.173 224.349 177.026 224.202C176.878 224.054 176.795 223.854 176.795 223.646V170.194C176.795 169.986 176.878 169.786 177.026 169.638C177.173 169.491 177.374 169.408 177.582 169.408H297.92C298.129 169.408 298.329 169.491 298.477 169.638C298.625 169.786 298.708 169.986 298.708 170.194V223.646C298.708 223.854 298.625 224.054 298.477 224.202C298.329 224.349 298.129 224.432 297.92 224.432ZM178.366 222.86H297.133V170.98H178.37V222.86H178.366Z" fill="#262424"/>
<path d="M177.582 223.646V278.014H280.863C285.387 278.013 289.725 276.219 292.924 273.027C296.123 269.835 297.92 265.505 297.92 260.991V223.646H177.582Z" fill="white"/>
<path d="M280.863 278.798H177.582C177.374 278.798 177.173 278.715 177.026 278.568C176.878 278.421 176.795 278.221 176.795 278.013V223.645C176.795 223.437 176.878 223.237 177.026 223.089C177.173 222.942 177.374 222.859 177.582 222.859H297.92C298.129 222.859 298.329 222.942 298.477 223.089C298.625 223.237 298.708 223.437 298.708 223.645V260.99C298.703 265.711 296.821 270.237 293.476 273.575C290.13 276.914 285.595 278.792 280.863 278.798ZM178.366 277.227H280.863C285.177 277.222 289.313 275.509 292.363 272.465C295.413 269.421 297.129 265.294 297.133 260.99V224.431H178.37V277.227H178.366Z" fill="#262424"/>
<path d="M297.92 79.3975C297.92 74.8829 296.122 70.5531 292.923 67.3608C289.723 64.1684 285.384 62.375 280.859 62.375H177.582V116.743H297.92V79.3975Z" fill="black"/>
<path d="M297.92 117.527H177.582C177.374 117.527 177.173 117.444 177.026 117.297C176.878 117.149 176.795 116.95 176.795 116.741V62.3736C176.795 62.1652 176.878 61.9654 177.026 61.818C177.173 61.6707 177.374 61.5879 177.582 61.5879H280.863C285.595 61.5941 290.13 63.4725 293.476 66.8109C296.821 70.1494 298.703 74.6754 298.708 79.3961V116.741C298.708 116.95 298.625 117.149 298.477 117.297C298.329 117.444 298.129 117.527 297.92 117.527ZM178.366 115.955H297.133V79.3961C297.129 75.0911 295.413 70.9636 292.362 67.9196C289.311 64.8755 285.174 63.1635 280.859 63.1593H178.37V115.955H178.366Z" fill="#262424"/>
<path d="M377.939 422.808L396.741 437.006L401.927 429.427L384.251 413.348L377.939 422.808Z" fill="white"/>
<path d="M396.751 437.792C396.578 437.792 396.411 437.735 396.274 437.631L377.457 423.437C377.297 423.316 377.189 423.139 377.156 422.942C377.122 422.745 377.165 422.543 377.276 422.376L383.576 412.912C383.639 412.819 383.721 412.74 383.817 412.681C383.913 412.622 384.021 412.584 384.133 412.57C384.245 412.557 384.359 412.567 384.466 412.601C384.574 412.635 384.673 412.691 384.757 412.767L402.436 428.846C402.576 428.974 402.664 429.148 402.686 429.335C402.708 429.523 402.661 429.712 402.554 429.868L397.369 437.446C397.309 437.534 397.231 437.609 397.141 437.667C397.051 437.724 396.95 437.763 396.845 437.78L396.751 437.792ZM379.032 422.628L396.581 435.879L400.912 429.546L384.418 414.542L379.032 422.628Z" fill="#262424"/>
<path d="M402.613 485.427L406.062 487.627L433.298 445.081C433.298 445.081 431.585 443.796 428.644 441.733C419.922 435.547 410.85 429.866 401.475 424.719L390.6 436.897C390.6 436.897 395.293 456.297 398.116 472.698C398.408 474.399 398.64 476.144 398.782 477.915C399.046 481.325 400.372 484.001 402.613 485.427Z" fill="#3257FB"/>
<path d="M406.113 460.149C405.937 460.149 405.766 460.089 405.627 459.98C405.489 459.871 405.391 459.719 405.35 459.548C401.723 444.447 396.526 435.387 396.474 435.297C396.418 435.208 396.379 435.108 396.362 435.003C396.345 434.898 396.349 434.792 396.374 434.689C396.399 434.586 396.445 434.489 396.509 434.404C396.573 434.319 396.653 434.248 396.745 434.195C396.837 434.142 396.939 434.108 397.044 434.096C397.15 434.083 397.256 434.091 397.358 434.121C397.46 434.15 397.555 434.2 397.638 434.267C397.72 434.334 397.788 434.417 397.837 434.511C397.888 434.602 403.2 443.842 406.893 459.187C406.942 459.389 406.907 459.603 406.798 459.78C406.689 459.958 406.513 460.085 406.31 460.134C406.246 460.147 406.179 460.152 406.113 460.149Z" fill="#262424"/>
<path d="M417.415 444.471C418.751 442.385 417.947 439.491 415.62 438.008C413.292 436.524 410.323 437.013 408.987 439.099C407.651 441.186 408.455 444.079 410.783 445.563C413.11 447.046 416.08 446.557 417.415 444.471Z" fill="white"/>
<path d="M413.656 447.165C412.484 447.16 411.338 446.82 410.353 446.187C407.664 444.474 406.75 441.079 408.317 438.64C408.705 438.042 409.216 437.533 409.816 437.148C410.416 436.762 411.092 436.509 411.798 436.404C413.275 436.174 414.786 436.497 416.039 437.312C418.728 439.025 419.641 442.419 418.074 444.859C417.593 445.584 416.935 446.176 416.163 446.579C415.39 446.982 414.528 447.184 413.656 447.165ZM411.199 444.863C413.168 446.112 415.645 445.727 416.743 444.01C417.842 442.293 417.137 439.881 415.168 438.632C414.239 438.024 413.117 437.782 412.018 437.952C411.531 438.022 411.064 438.195 410.648 438.459C410.233 438.723 409.878 439.073 409.609 439.484C408.51 441.201 409.215 443.613 411.184 444.863H411.199Z" fill="#262424"/>
<path d="M402.612 485.426L406.061 487.626L433.297 445.08C433.297 445.08 431.584 443.795 428.643 441.732L414.263 464.192C414.263 464.192 403.317 459.238 398.119 472.705C398.411 474.406 398.643 476.151 398.785 477.922C399.044 481.325 400.371 484 402.612 485.426Z" fill="white"/>
<path d="M406.065 488.411C405.915 488.411 405.769 488.368 405.643 488.289L402.194 486.089C399.78 484.553 398.288 481.673 397.989 477.988C397.855 476.322 397.634 474.59 397.331 472.842C397.308 472.701 397.323 472.558 397.374 472.425C399.162 467.809 401.804 464.761 405.249 463.362C408.99 461.838 412.55 462.741 413.971 463.232L428.004 441.311C428.062 441.222 428.136 441.145 428.224 441.086C428.312 441.026 428.41 440.985 428.514 440.964C428.619 440.944 428.726 440.944 428.83 440.966C428.933 440.988 429.032 441.03 429.119 441.091C432.04 443.138 433.777 444.442 433.796 444.454C433.954 444.573 434.061 444.747 434.096 444.941C434.131 445.136 434.092 445.336 433.985 445.503L406.75 488.049C406.676 488.163 406.575 488.256 406.455 488.32C406.335 488.383 406.2 488.414 406.065 488.411ZM403.041 484.765L405.828 486.541L432.245 445.291C431.599 444.815 430.438 443.971 428.867 442.863L414.932 464.631C414.83 464.79 414.674 464.908 414.493 464.962C414.311 465.016 414.116 465.003 413.943 464.926C413.904 464.926 409.908 463.158 405.809 464.839C402.855 466.049 400.536 468.732 398.918 472.806C399.209 474.531 399.422 476.232 399.556 477.878C399.816 481.064 401.052 483.516 403.037 484.781L403.041 484.765Z" fill="#262424"/>
<path d="M387.3 292.208L352.973 369.495L390.6 413.35L377.953 430.341C377.953 430.341 343.697 405.198 326.738 389.161C320.898 383.642 317.103 379.198 317.445 377.222C317.65 376.044 318.477 371.974 319.753 365.943C326.809 332.72 347.673 239.648 354.907 236.941C357.226 236.073 365.246 235.959 369.452 236.253C383.674 237.247 393.935 250.29 391.71 264.343L387.3 292.208Z" fill="#3257FB"/>
<path d="M381.786 415.168C381.676 415.168 381.566 415.145 381.465 415.101C381.364 415.056 381.274 414.991 381.2 414.909L341.281 370.606C341.187 370.501 341.124 370.373 341.097 370.234C341.07 370.096 341.08 369.953 341.128 369.821L375.317 276.647C375.353 276.55 375.407 276.461 375.477 276.385C375.548 276.309 375.632 276.247 375.726 276.204C375.82 276.16 375.922 276.136 376.025 276.132C376.128 276.127 376.232 276.143 376.329 276.179C376.426 276.215 376.515 276.269 376.592 276.339C376.668 276.409 376.729 276.493 376.773 276.587C376.816 276.681 376.841 276.782 376.845 276.885C376.849 276.989 376.833 277.092 376.798 277.189L342.77 369.903L382.389 413.856C382.492 413.97 382.559 414.111 382.583 414.263C382.606 414.415 382.584 414.57 382.52 414.71C382.456 414.849 382.353 414.967 382.222 415.049C382.092 415.13 381.94 415.172 381.786 415.168Z" fill="#262424"/>
<path d="M374.755 424.407C374.609 424.407 374.465 424.366 374.341 424.289C374.216 424.212 374.116 424.102 374.051 423.97C373.985 423.839 373.958 423.693 373.972 423.547C373.986 423.402 374.041 423.263 374.129 423.146L384.406 409.679C384.536 409.524 384.721 409.424 384.923 409.401C385.124 409.379 385.327 409.434 385.488 409.557C385.649 409.68 385.757 409.859 385.789 410.059C385.821 410.259 385.774 410.464 385.658 410.63L375.381 424.097C375.308 424.193 375.213 424.272 375.105 424.325C374.996 424.379 374.877 424.407 374.755 424.407Z" fill="#262424"/>
<path d="M379.376 280.35C379.197 280.35 379.023 280.289 378.884 280.177L373.989 276.248C373.176 275.599 372.519 274.775 372.068 273.838C371.618 272.901 371.385 271.874 371.387 270.835V250.881C371.387 250.673 371.47 250.473 371.617 250.326C371.765 250.178 371.965 250.096 372.174 250.096C372.383 250.096 372.583 250.178 372.731 250.326C372.879 250.473 372.962 250.673 372.962 250.881V270.843C372.96 271.647 373.139 272.442 373.488 273.168C373.836 273.894 374.344 274.532 374.974 275.034L379.868 278.963C379.991 279.066 380.079 279.204 380.121 279.358C380.163 279.512 380.157 279.676 380.104 279.826C380.05 279.977 379.952 280.108 379.822 280.201C379.692 280.295 379.536 280.347 379.376 280.35Z" fill="#262424"/>
<path d="M326.728 389.159C320.889 383.64 317.093 379.196 317.435 377.22C317.64 376.042 318.467 371.972 319.743 365.941C322.948 367.639 325.822 370.994 327.409 375.37C329.276 380.481 328.874 385.694 326.728 389.159Z" fill="white"/>
<path d="M401.188 429.02L401.479 452.541L410.657 451.979L412.547 428.188L401.188 429.02Z" fill="white"/>
<path d="M401.473 453.325C401.265 453.325 401.064 453.242 400.917 453.095C400.769 452.948 400.686 452.748 400.686 452.54L400.395 429.015C400.394 428.817 400.469 428.625 400.604 428.479C400.739 428.334 400.925 428.244 401.123 428.229L412.483 427.397C412.596 427.388 412.709 427.405 412.816 427.444C412.922 427.484 413.018 427.546 413.098 427.626C413.178 427.706 413.24 427.803 413.279 427.909C413.318 428.015 413.334 428.128 413.325 428.241L411.439 452.033C411.424 452.222 411.342 452.399 411.207 452.531C411.071 452.664 410.892 452.744 410.703 452.756L401.525 453.317H401.473V453.325ZM401.977 429.754L402.249 451.711L409.919 451.239L411.679 429.039L401.977 429.754Z" fill="#262424"/>
<path d="M363.738 483.542V487.627H414.339C414.339 487.627 414.504 485.494 414.662 481.911C415.19 471.244 415.104 460.555 414.402 449.897L398.258 447.316C398.258 447.316 384.398 461.707 372.066 472.907C370.786 474.086 369.436 475.201 368.018 476.274C365.282 478.332 363.738 480.886 363.738 483.542Z" fill="#3257FB"/>
<path d="M387.634 473.244C387.479 473.244 387.328 473.199 387.199 473.114C387.07 473.029 386.969 472.908 386.908 472.766C386.848 472.624 386.831 472.467 386.859 472.315C386.887 472.164 386.959 472.023 387.067 471.913C397.887 460.72 402.727 451.484 402.774 451.394C402.873 451.214 403.039 451.081 403.235 451.022C403.431 450.963 403.643 450.982 403.825 451.076C404.007 451.171 404.145 451.332 404.21 451.526C404.275 451.72 404.261 451.932 404.172 452.116C404.124 452.211 399.179 461.647 388.197 473.005C388.124 473.08 388.037 473.14 387.94 473.181C387.843 473.222 387.739 473.244 387.634 473.244Z" fill="#262424"/>
<path d="M406.327 473.916C408.808 473.916 410.819 471.682 410.819 468.927C410.819 466.171 408.808 463.938 406.327 463.938C403.845 463.938 401.834 466.171 401.834 468.927C401.834 471.682 403.845 473.916 406.327 473.916Z" fill="white"/>
<path d="M406.325 474.702C403.415 474.702 401.045 472.109 401.045 468.927C401.045 465.745 403.407 463.152 406.325 463.152C409.243 463.152 411.605 465.741 411.605 468.927C411.605 472.113 409.235 474.702 406.325 474.702ZM406.325 464.724C404.282 464.724 402.62 466.609 402.62 468.927C402.62 471.245 404.282 473.131 406.325 473.131C408.369 473.131 410.03 471.245 410.03 468.927C410.03 466.609 408.369 464.724 406.325 464.724Z" fill="#262424"/>
<path d="M363.738 483.539V487.625H414.339C414.339 487.625 414.504 485.492 414.662 481.909H387.95C387.95 481.909 386.241 470.037 372.058 472.901C370.779 474.079 369.428 475.195 368.01 476.268C365.282 478.33 363.738 480.884 363.738 483.539Z" fill="white"/>
<path d="M414.337 488.412H363.737C363.528 488.412 363.328 488.329 363.18 488.181C363.032 488.034 362.949 487.834 362.949 487.626V483.54C362.949 480.684 364.575 477.879 367.529 475.644C368.863 474.634 370.21 473.514 371.521 472.32C371.632 472.221 371.768 472.156 371.915 472.132C376.774 471.149 380.774 471.739 383.802 473.86C387.106 476.186 388.255 479.667 388.606 481.124H414.676C414.783 481.124 414.888 481.145 414.986 481.187C415.084 481.229 415.172 481.29 415.246 481.367C415.319 481.443 415.377 481.534 415.414 481.634C415.452 481.733 415.468 481.839 415.464 481.945C415.306 485.501 415.141 487.665 415.141 487.689C415.125 487.889 415.032 488.075 414.883 488.21C414.734 488.344 414.539 488.416 414.337 488.412ZM364.524 486.84H413.601C413.656 486.054 413.743 484.613 413.833 482.696H387.944C387.753 482.697 387.568 482.63 387.423 482.506C387.278 482.381 387.184 482.209 387.157 482.02C387.157 481.977 386.476 477.671 382.849 475.133C380.235 473.302 376.723 472.795 372.411 473.628C371.116 474.807 369.789 475.895 368.473 476.893C365.922 478.826 364.516 481.183 364.516 483.536V486.836L364.524 486.84Z" fill="#262424"/>
<path d="M433.618 244.357C433.618 244.357 431.976 272.804 431.539 275.605C431.102 278.406 416.482 437.227 416.482 437.227L394.105 436.901L381.285 251.507C381.285 251.507 379.654 232.525 401.866 228.788C424.077 225.052 433.618 244.357 433.618 244.357Z" fill="#3257FB"/>
<path d="M384.859 304C384.659 304.001 384.467 303.926 384.321 303.79C384.174 303.654 384.085 303.468 384.071 303.27L380.469 252.866C380.461 252.763 380.475 252.659 380.508 252.561C380.54 252.463 380.592 252.372 380.66 252.294C380.728 252.216 380.811 252.152 380.904 252.106C380.997 252.06 381.098 252.033 381.201 252.025C381.304 252.018 381.408 252.031 381.507 252.064C381.605 252.097 381.696 252.149 381.774 252.217C381.852 252.284 381.916 252.367 381.963 252.46C382.009 252.552 382.036 252.653 382.044 252.756L385.646 303.16C385.654 303.263 385.641 303.366 385.608 303.464C385.576 303.562 385.524 303.652 385.457 303.731C385.389 303.809 385.307 303.873 385.214 303.919C385.122 303.965 385.021 303.993 384.918 304H384.863H384.859Z" fill="#262424"/>
<path d="M399.266 364.116C403.964 363.886 407.505 358.262 407.175 351.555C406.845 344.848 402.769 339.597 398.071 339.828C393.373 340.058 389.832 345.681 390.162 352.388C390.492 359.096 394.568 364.346 399.266 364.116Z" fill="white"/>
<path d="M419.27 268.42C419.113 268.42 418.96 268.374 418.829 268.286C416.988 267.047 415.473 265.385 414.411 263.439C413.35 261.493 412.773 259.321 412.73 257.106L412.545 247.261C412.543 247.157 412.561 247.055 412.599 246.959C412.637 246.863 412.693 246.775 412.765 246.7C412.836 246.626 412.922 246.566 413.017 246.525C413.111 246.484 413.213 246.461 413.317 246.459C413.42 246.457 413.523 246.475 413.619 246.513C413.716 246.551 413.804 246.607 413.878 246.678C413.953 246.75 414.013 246.835 414.054 246.93C414.096 247.024 414.118 247.126 414.12 247.229L414.305 257.074C414.343 259.037 414.854 260.962 415.795 262.687C416.736 264.411 418.08 265.885 419.711 266.982C419.852 267.076 419.958 267.212 420.014 267.371C420.071 267.53 420.075 267.703 420.025 267.864C419.976 268.025 419.876 268.166 419.74 268.266C419.604 268.366 419.439 268.42 419.27 268.42Z" fill="#262424"/>
<path d="M410.226 431.519H410.183C410.079 431.513 409.978 431.487 409.885 431.443C409.791 431.398 409.708 431.335 409.638 431.258C409.569 431.181 409.516 431.092 409.482 430.994C409.448 430.896 409.433 430.793 409.439 430.69L419.735 246.986C419.747 246.777 419.841 246.582 419.997 246.443C420.152 246.304 420.357 246.232 420.566 246.243C420.775 246.255 420.971 246.349 421.11 246.504C421.25 246.66 421.322 246.864 421.31 247.072L411.014 430.776C411.003 430.977 410.915 431.166 410.768 431.304C410.622 431.442 410.428 431.519 410.226 431.519Z" fill="#262424"/>
<path d="M396.686 431.781C396.477 431.781 396.277 431.698 396.129 431.551C395.981 431.404 395.898 431.204 395.898 430.995C395.898 430.787 395.981 430.587 396.129 430.44C396.277 430.292 396.477 430.21 396.686 430.21L415.44 430.111C415.649 430.111 415.849 430.194 415.997 430.341C416.145 430.489 416.228 430.689 416.228 430.897C416.228 431.105 416.145 431.305 415.997 431.453C415.849 431.6 415.649 431.683 415.44 431.683L396.686 431.781Z" fill="#262424"/>
<path d="M353.854 128.96C344.865 131.607 328.351 168.014 325.48 186.635C322.61 205.256 327.449 211.071 334.682 211.625C341.915 212.179 350.55 210.646 358.957 181.265C367.363 151.883 370.49 124.084 353.854 128.96Z" fill="black"/>
<path d="M441.611 257.202H432.713V246.885C432.713 246.132 432.413 245.41 431.879 244.877C431.345 244.344 430.621 244.045 429.866 244.045C429.111 244.045 428.387 244.344 427.853 244.877C427.319 245.41 427.019 246.132 427.019 246.885V257.202H342.182C342.182 257.202 346.651 206.464 343.883 173.975C341.126 141.706 353.852 128.961 353.852 128.961C401.665 118.091 426.322 131.609 426.322 131.609C442.537 200.481 441.611 257.202 441.611 257.202Z" fill="black"/>
<path d="M345.216 206.671C345.012 206.671 344.817 206.593 344.67 206.452C344.523 206.312 344.437 206.12 344.428 205.917C344.267 202.122 344.157 198.272 344.035 194.548C343.822 187.244 343.641 180.35 343.086 174.044C341.231 152.268 346.476 139.233 349.779 133.399C349.884 133.218 350.056 133.086 350.259 133.031C350.461 132.977 350.677 133.005 350.858 133.109C351.04 133.213 351.173 133.385 351.227 133.587C351.282 133.789 351.254 134.004 351.15 134.185C347.945 139.858 342.842 152.567 344.661 173.923C345.2 180.271 345.401 187.189 345.614 194.512C345.72 198.233 345.834 202.079 346.007 205.862C346.016 206.07 345.942 206.272 345.801 206.426C345.66 206.579 345.464 206.67 345.255 206.679H345.224L345.216 206.671Z" fill="#262424"/>
<path d="M348.248 252.213C348.04 252.213 347.839 252.13 347.692 251.983C347.544 251.836 347.461 251.636 347.461 251.428C347.461 251.219 347.544 251.019 347.692 250.872C347.839 250.725 348.04 250.642 348.248 250.642L423.526 250.096C423.734 250.096 423.935 250.178 424.082 250.326C424.23 250.473 424.313 250.673 424.313 250.881C424.313 251.09 424.23 251.29 424.082 251.437C423.935 251.584 423.734 251.667 423.526 251.667L348.252 252.213H348.248Z" fill="#262424"/>
<path d="M401.355 129.524C400.166 132.314 398.377 134.81 396.115 136.834C393.852 138.858 391.172 140.362 388.263 141.239C387.287 135.897 384.597 129.175 384.597 129.175C381.609 133.276 380.03 138.705 379.64 141.18C369.974 138.529 368.867 129.249 368.867 129.249C370.048 119.95 378.061 112.95 384.94 113.185C400.143 113.7 401.355 129.524 401.355 129.524Z" fill="white"/>
<path d="M388.264 142.026C388.077 142.029 387.896 141.966 387.752 141.848C387.607 141.73 387.51 141.565 387.476 141.381C386.791 137.626 385.22 133.131 384.389 130.876C382.449 134.087 381.101 137.618 380.409 141.303C380.391 141.412 380.351 141.517 380.291 141.61C380.23 141.703 380.151 141.782 380.057 141.842C379.964 141.902 379.859 141.942 379.749 141.959C379.639 141.976 379.527 141.969 379.42 141.939C369.352 139.189 368.084 129.443 368.072 129.344C368.064 129.28 368.064 129.216 368.072 129.152C369.344 119.158 377.719 112.393 384.61 112.393H384.96C400.683 112.927 402.12 129.285 402.132 129.458C402.141 129.585 402.119 129.711 402.069 129.828C400.828 132.72 398.969 135.306 396.622 137.407C394.275 139.508 391.496 141.072 388.48 141.99C388.41 142.012 388.337 142.024 388.264 142.026ZM384.598 128.39H384.696C384.836 128.407 384.969 128.461 385.08 128.547C385.192 128.633 385.278 128.747 385.33 128.877C385.437 129.14 387.78 135.029 388.874 140.203C391.461 139.297 393.833 137.869 395.844 136.009C397.854 134.149 399.46 131.897 400.561 129.391C400.372 127.569 398.521 114.424 384.921 113.964H384.622C378.44 113.964 370.84 120.383 369.659 129.246C369.797 130.197 371.124 137.551 379.026 140.171C379.59 137.484 381.121 132.605 383.96 128.712C384.033 128.612 384.129 128.53 384.24 128.474C384.351 128.418 384.474 128.389 384.598 128.39Z" fill="#262424"/>
<path d="M393.842 94.4434L393.598 103.766L393.177 119.716C387.798 123.468 382.569 123.86 377.525 120.081L378.242 112.672L379.36 101.448L393.842 94.4434Z" fill="white"/>
<path d="M384.824 123.515C382.141 123.515 379.549 122.58 377.047 120.71C376.939 120.629 376.853 120.521 376.799 120.397C376.744 120.273 376.723 120.138 376.736 120.003L378.595 101.37C378.608 101.236 378.656 101.108 378.733 100.998C378.81 100.888 378.915 100.8 379.036 100.741L393.502 93.7326C393.624 93.674 393.758 93.6475 393.893 93.6558C394.028 93.664 394.158 93.7066 394.272 93.7796C394.385 93.8526 394.478 93.9534 394.541 94.0725C394.604 94.1915 394.636 94.3248 394.632 94.4594L393.963 119.732C393.96 119.855 393.928 119.975 393.87 120.084C393.812 120.192 393.729 120.286 393.628 120.357C390.608 122.466 387.667 123.515 384.824 123.515ZM378.351 119.712C382.749 122.824 387.352 122.686 392.396 119.296L393.022 95.7244L380.119 101.975L378.351 119.712Z" fill="#262424"/>
<path d="M370.013 164.878C362.693 191.71 352.609 206.6 343.565 212.159C337.934 215.627 332.705 215.474 328.799 212.339C327.028 210.936 325.745 209.012 325.134 206.839C322.606 198.004 330.252 186.171 330.252 186.171L358.602 156.42L370.013 164.878Z" fill="black"/>
<path d="M347.9 209.612C347.741 209.613 347.586 209.565 347.455 209.476C347.324 209.387 347.223 209.261 347.165 209.113C347.107 208.966 347.095 208.805 347.131 208.651C347.166 208.496 347.248 208.357 347.364 208.249C355.909 200.365 363.622 185.071 369.111 165.184L358.708 157.453L332.449 184.996C332.305 185.147 332.106 185.235 331.898 185.24C331.689 185.245 331.486 185.167 331.335 185.024C331.183 184.88 331.095 184.682 331.09 184.473C331.085 184.265 331.163 184.063 331.307 183.912L358.047 155.866C358.179 155.727 358.358 155.641 358.549 155.624C358.741 155.607 358.932 155.661 359.086 155.775L370.481 164.241C370.609 164.335 370.705 164.466 370.757 164.615C370.809 164.764 370.814 164.926 370.773 165.078C363.63 191.262 354.68 203.633 348.435 209.4C348.29 209.536 348.099 209.612 347.9 209.612Z" fill="#262424"/>
<path d="M365.253 170.256C357.566 170.256 354.515 162.878 354.483 162.792C354.413 162.6 354.42 162.389 354.504 162.202C354.587 162.016 354.74 161.869 354.93 161.793C355.119 161.717 355.331 161.717 355.521 161.795C355.71 161.872 355.862 162.02 355.944 162.206C356.066 162.509 359.015 169.557 366.658 168.586C366.867 168.56 367.078 168.618 367.244 168.747C367.41 168.876 367.518 169.066 367.544 169.274C367.57 169.482 367.512 169.693 367.383 169.858C367.254 170.024 367.064 170.132 366.855 170.158C366.323 170.224 365.788 170.257 365.253 170.256Z" fill="#262424"/>
<path d="M343.564 212.144C337.934 215.613 332.705 215.46 328.799 212.325C327.027 210.922 325.744 208.997 325.133 206.825C325.451 205.315 326.095 203.893 327.019 202.656C330.374 198.139 336.548 197.031 340.8 200.178C344.486 202.912 345.525 207.933 343.564 212.144Z" fill="white"/>
<path d="M377.668 149.958C374.747 149.318 369.451 159.681 372.699 161.591C375.948 163.5 385.5 151.675 377.668 149.958Z" fill="white"/>
<path d="M373.522 162.58C373.098 162.585 372.68 162.477 372.313 162.266C370.667 161.299 370.458 158.73 371.758 155.446C372.821 152.743 375.415 148.661 377.849 149.191C380.357 149.741 381.16 151.199 381.393 152.334C382.046 155.513 378.947 159.665 376.459 161.441C375.38 162.191 374.376 162.58 373.522 162.58ZM377.392 150.712C376.419 150.712 374.419 152.967 373.222 156.019C372.273 158.428 372.23 160.396 373.112 160.91C373.573 161.181 374.506 160.891 375.545 160.148C377.955 158.431 380.306 154.853 379.849 152.637C379.648 151.651 378.88 151.026 377.51 150.724C377.469 150.716 377.426 150.713 377.384 150.716L377.392 150.712Z" fill="#262424"/>
<path d="M378.04 158.008V158.196V163.775L374.244 159.626L374.142 159.516C373.984 159.33 373.858 159.119 373.768 158.892L362.026 128.575C361.837 128.033 361.866 127.438 362.107 126.917C362.349 126.396 362.785 125.99 363.321 125.783C363.858 125.576 364.455 125.586 364.984 125.81C365.514 126.034 365.936 126.455 366.16 126.984L377.902 157.297C377.987 157.524 378.034 157.765 378.04 158.008Z" fill="white"/>
<path d="M378.032 164.561C377.922 164.561 377.814 164.539 377.713 164.495C377.613 164.451 377.523 164.386 377.449 164.306L373.555 160.055C373.332 159.797 373.154 159.503 373.027 159.187L361.282 128.858C361.024 128.123 361.063 127.317 361.391 126.611C361.718 125.904 362.308 125.352 363.036 125.072C363.764 124.792 364.573 124.805 365.291 125.109C366.009 125.413 366.581 125.984 366.885 126.701L378.638 157.01C378.758 157.321 378.824 157.649 378.835 157.981C378.835 157.981 378.835 157.981 378.835 158.004V163.771C378.836 163.876 378.815 163.98 378.775 164.077C378.735 164.174 378.675 164.262 378.6 164.335C378.525 164.409 378.437 164.467 378.339 164.506C378.241 164.544 378.137 164.563 378.032 164.561ZM364.069 126.356C363.838 126.356 363.609 126.412 363.404 126.52C363.199 126.627 363.023 126.783 362.891 126.974C362.76 127.164 362.677 127.384 362.65 127.614C362.623 127.844 362.652 128.076 362.735 128.293L374.476 158.609C374.535 158.752 374.616 158.885 374.717 159.002L374.795 159.085L377.229 161.744V158.016C377.221 157.864 377.19 157.714 377.134 157.572L365.392 127.263C365.288 126.997 365.107 126.768 364.871 126.607C364.635 126.445 364.356 126.357 364.069 126.356Z" fill="#262424"/>
<path d="M363.675 145.606C363.675 145.606 357.198 152.316 357.43 157.659C357.662 163.002 366.226 167.347 370.888 164.337C375.55 161.328 376.007 154.123 372.239 150.98C372.239 150.98 376.747 155.027 378.7 151.73C380.654 148.434 370.432 141.685 367.282 142.137C366.39 142.261 365.561 142.663 364.913 143.286C364.265 143.91 363.832 144.722 363.675 145.606Z" fill="white"/>
<path d="M367.245 166.111C365.418 166.081 363.625 165.618 362.012 164.759C358.819 163.113 356.764 160.403 356.646 157.688C356.417 152.502 361.898 146.358 362.946 145.23C363.173 144.235 363.699 143.333 364.454 142.644C365.209 141.956 366.157 141.513 367.171 141.377C369.927 140.984 376.569 144.971 378.845 148.369C380.062 150.184 379.806 151.43 379.381 152.153C379.147 152.584 378.817 152.957 378.416 153.241C378.015 153.526 377.555 153.715 377.069 153.795C376.349 153.884 375.618 153.797 374.939 153.543C375.694 155.585 375.748 157.819 375.092 159.895C374.437 161.97 373.109 163.77 371.317 165.011C370.094 165.761 368.68 166.143 367.245 166.111ZM367.639 142.932C367.556 142.926 367.474 142.926 367.391 142.932C366.668 143.029 365.995 143.352 365.467 143.853C364.938 144.355 364.583 145.01 364.45 145.725C364.424 145.885 364.35 146.034 364.237 146.15C364.174 146.217 357.996 152.683 358.213 157.621C358.307 159.774 360.04 161.978 362.729 163.365C365.485 164.795 368.533 164.936 370.454 163.683C371.482 162.986 372.333 162.059 372.939 160.976C373.544 159.893 373.888 158.683 373.943 157.444C374.089 155.146 373.313 153.025 371.864 151.72L371.703 151.583C371.567 151.441 371.49 151.254 371.486 151.058C371.481 150.862 371.551 150.672 371.68 150.524C371.809 150.377 371.989 150.283 372.184 150.261C372.379 150.238 372.575 150.29 372.734 150.404L372.896 150.542C373.656 151.178 375.494 152.447 376.833 152.243C377.086 152.198 377.325 152.094 377.53 151.94C377.735 151.785 377.901 151.585 378.014 151.355C378.373 150.75 377.947 149.874 377.526 149.245C375.565 146.303 369.852 142.917 367.639 142.917V142.932Z" fill="#262424"/>
<path d="M403.45 163.773H359.177C356.537 163.773 354.396 165.909 354.396 168.543V223.951C354.396 226.585 356.537 228.721 359.177 228.721H403.45C406.09 228.721 408.23 226.585 408.23 223.951V168.543C408.23 165.909 406.09 163.773 403.45 163.773Z" fill="white"/>
<path d="M403.446 229.503H359.177C357.701 229.502 356.285 228.916 355.241 227.875C354.197 226.833 353.61 225.421 353.609 223.948V168.535C353.61 167.063 354.197 165.65 355.241 164.609C356.285 163.567 357.701 162.982 359.177 162.98H403.446C404.178 162.98 404.903 163.123 405.579 163.402C406.255 163.681 406.869 164.09 407.387 164.606C407.905 165.122 408.316 165.734 408.596 166.408C408.877 167.083 409.021 167.805 409.022 168.535V223.928C409.024 224.66 408.881 225.385 408.602 226.061C408.323 226.738 407.912 227.353 407.394 227.871C406.876 228.389 406.261 228.799 405.583 229.079C404.906 229.36 404.18 229.503 403.446 229.503ZM359.177 164.56C358.12 164.562 357.108 164.981 356.36 165.726C355.613 166.471 355.191 167.481 355.188 168.535V223.928C355.189 224.984 355.61 225.997 356.359 226.744C357.107 227.491 358.122 227.911 359.181 227.912H403.446C404.505 227.911 405.52 227.491 406.268 226.744C407.017 225.997 407.438 224.984 407.439 223.928V168.535C407.436 167.481 407.014 166.47 406.266 165.725C405.517 164.98 404.504 164.561 403.446 164.56H359.177Z" fill="#262424"/>
<path d="M373.831 171.431C374.674 171.431 375.358 170.749 375.358 169.907C375.358 169.065 374.674 168.383 373.831 168.383C372.987 168.383 372.303 169.065 372.303 169.907C372.303 170.749 372.987 171.431 373.831 171.431Z" fill="#3257FB"/>
<path d="M388.799 171.431C389.643 171.431 390.327 170.749 390.327 169.907C390.327 169.065 389.643 168.383 388.799 168.383C387.955 168.383 387.271 169.065 387.271 169.907C387.271 170.749 387.955 171.431 388.799 171.431Z" fill="#3257FB"/>
<path d="M452.194 214.724C450.942 218.441 445.946 220.036 439.913 220.523C428.243 221.47 412.67 218.284 412.67 218.284V198.393L423.522 196.79C423.522 196.79 417.615 168.748 415.753 156.412C412.67 135.984 426.325 131.611 426.325 131.611C438.019 136.573 449.611 178.495 452.222 201.414C452.927 207.606 452.974 212.41 452.194 214.724Z" fill="black"/>
<path d="M452.193 214.724C450.941 218.44 445.945 220.035 439.912 220.522C436.416 216.264 436.794 209.691 440.995 205.201C444.058 201.94 448.37 200.628 452.221 201.398C452.926 207.605 452.973 212.41 452.193 214.724Z" fill="white"/>
<path d="M435.242 221.481C424.516 221.481 412.633 219.077 412.511 219.05C412.33 219.013 412.168 218.914 412.053 218.771C411.938 218.627 411.877 218.448 411.881 218.264V198.393C411.879 198.203 411.946 198.019 412.07 197.874C412.194 197.73 412.366 197.635 412.554 197.607L422.579 196.126C421.595 191.412 416.637 167.554 414.972 156.519C412.68 141.327 419.362 134.699 423.552 132.103C423.64 132.048 423.737 132.011 423.839 131.995C423.942 131.978 424.046 131.982 424.147 132.005C424.247 132.029 424.343 132.072 424.427 132.132C424.511 132.192 424.582 132.268 424.636 132.356C424.691 132.444 424.728 132.541 424.745 132.643C424.761 132.745 424.758 132.849 424.734 132.95C424.711 133.05 424.667 133.145 424.607 133.229C424.547 133.313 424.47 133.384 424.383 133.438C420.524 135.835 414.369 141.987 416.527 156.287C418.362 168.465 424.229 196.358 424.288 196.621C424.31 196.726 424.311 196.834 424.289 196.939C424.268 197.044 424.225 197.144 424.164 197.232C424.103 197.319 424.024 197.394 423.933 197.451C423.842 197.507 423.741 197.544 423.634 197.56L413.456 199.061V217.643C416.141 218.154 426.906 220.071 436.36 219.91C436.569 219.91 436.769 219.993 436.917 220.14C437.065 220.287 437.148 220.487 437.148 220.696C437.148 220.904 437.065 221.104 436.917 221.251C436.769 221.399 436.569 221.481 436.36 221.481H435.242Z" fill="#262424"/>
<path d="M419.196 216.951C419.067 216.951 418.94 216.92 418.827 216.86C418.713 216.8 418.616 216.713 418.544 216.607C418.471 216.5 418.426 216.378 418.412 216.251C418.398 216.123 418.416 215.994 418.463 215.875C421.401 208.477 416.605 200.746 416.558 200.667C416.446 200.491 416.409 200.278 416.455 200.075C416.5 199.871 416.625 199.694 416.802 199.583C416.978 199.471 417.192 199.434 417.396 199.48C417.6 199.526 417.777 199.65 417.889 199.826C418.105 200.168 423.165 208.296 419.928 216.448C419.871 216.596 419.771 216.723 419.64 216.813C419.509 216.902 419.354 216.951 419.196 216.951Z" fill="#262424"/>
<path d="M436.372 201.036C436.234 201.036 436.098 200.999 435.978 200.93C430.556 197.787 423.567 197.579 423.496 197.575C423.291 197.57 423.096 197.485 422.952 197.338C422.809 197.191 422.728 196.995 422.729 196.79C422.734 196.585 422.819 196.39 422.966 196.247C423.113 196.103 423.311 196.023 423.516 196.023C423.819 196.023 430.97 196.243 436.746 199.587C436.887 199.675 436.997 199.806 437.059 199.961C437.12 200.116 437.131 200.286 437.09 200.448C437.048 200.609 436.956 200.753 436.827 200.859C436.698 200.965 436.539 201.027 436.372 201.036Z" fill="#262424"/>
<path d="M414.619 202.507C414.619 202.507 417.139 212.152 414.119 217.011C411.099 221.871 400.826 221.45 398.054 216.225C395.282 211 398.641 204.047 403.795 203.073C403.795 203.073 397.463 204.495 397.373 200.397C397.282 196.3 410.367 195.345 413.064 197.415C415.761 199.486 414.619 202.507 414.619 202.507Z" fill="white"/>
<path d="M406.597 221.179H406.116C402.147 221.041 398.793 219.278 397.359 216.575C396.339 214.473 396.053 212.092 396.546 209.81C397.039 207.527 398.283 205.475 400.08 203.98C399.28 203.873 398.519 203.567 397.867 203.092C397.463 202.769 397.137 202.359 396.916 201.892C396.695 201.425 396.584 200.913 396.592 200.397C396.592 199.513 396.985 198.244 399.045 197.199C402.939 195.235 411.208 194.983 413.546 196.771C414.413 197.423 415.059 198.324 415.397 199.352C415.736 200.381 415.751 201.489 415.44 202.526C415.834 204.098 417.72 212.693 414.791 217.411C413.334 219.776 410.223 221.179 406.597 221.179ZM403.754 203.893C401.702 204.357 399.852 205.944 398.773 208.175C398.173 209.369 397.86 210.686 397.86 212.021C397.86 213.357 398.173 214.674 398.773 215.868C399.923 218.04 402.836 219.521 406.191 219.635C409.447 219.745 412.243 218.59 413.472 216.61C416.279 212.096 413.905 202.813 413.865 202.719C413.824 202.562 413.832 202.395 413.889 202.243C414.144 201.496 414.155 200.688 413.923 199.934C413.69 199.18 413.225 198.518 412.594 198.044C410.865 196.724 403.289 196.838 399.761 198.625C399.025 198.998 398.155 199.607 398.186 200.389C398.174 200.673 398.228 200.955 398.344 201.214C398.46 201.474 398.635 201.702 398.856 201.882C400.005 202.778 402.399 202.558 403.439 202.357L403.671 202.31C403.773 202.289 403.877 202.288 403.979 202.308C404.08 202.327 404.177 202.366 404.264 202.423C404.35 202.48 404.425 202.553 404.483 202.638C404.541 202.724 404.581 202.82 404.602 202.921C404.623 203.022 404.624 203.126 404.605 203.228C404.585 203.329 404.546 203.426 404.489 203.512C404.432 203.598 404.359 203.673 404.273 203.731C404.188 203.789 404.091 203.829 403.99 203.85L403.754 203.893Z" fill="#262424"/>
<path d="M365.151 100.783C367.097 108.248 370.711 116.969 379.606 114.14C390.182 110.785 395.998 102.056 394.498 91.7475C392.997 81.439 387.343 76.379 375.176 79.4668C374.141 79.7266 373.13 80.0723 372.152 80.5C365.344 83.5093 362.702 89.9286 364.199 96.7643C364.462 98.0097 364.777 99.3925 365.151 100.783Z" fill="white"/>
<path d="M376.353 115.473C374.901 115.485 373.47 115.123 372.199 114.424C367.686 111.941 365.58 105.561 364.387 100.981C363.993 99.5545 363.694 98.152 363.43 96.9499C361.756 89.4031 364.977 82.8306 371.832 79.7977C371.927 79.756 372.029 79.7332 372.132 79.7307C372.236 79.7282 372.339 79.7461 372.435 79.7833C372.532 79.8205 372.62 79.8763 372.695 79.9476C372.77 80.0188 372.83 80.104 372.872 80.1985C372.914 80.2929 372.937 80.3946 372.939 80.4978C372.942 80.601 372.924 80.7037 372.886 80.8C372.849 80.8963 372.793 80.9844 372.722 81.0591C372.65 81.1338 372.565 81.1938 372.47 81.2356C366.34 83.9463 363.461 89.8392 364.965 96.612C365.229 97.7906 365.54 99.1853 365.91 100.588C367.033 104.909 368.982 110.861 372.962 113.053C374.809 114.071 376.9 114.185 379.365 113.403C383.186 112.256 386.629 110.107 389.335 107.18C389.474 107.024 389.669 106.929 389.878 106.916C390.087 106.904 390.292 106.975 390.449 107.113C390.606 107.252 390.701 107.447 390.713 107.655C390.726 107.864 390.655 108.069 390.516 108.225C387.623 111.364 383.937 113.671 379.845 114.903C378.717 115.272 377.539 115.464 376.353 115.473Z" fill="#262424"/>
<path d="M398.021 93.194C397.213 94.863 396.26 96.4588 395.175 97.9632L389.76 99.1418L387.997 95.4607C387.997 95.4607 384.504 95.8536 383.425 93.6182C383.398 93.5674 383.374 93.5149 383.354 93.4611C383.051 92.7265 381.811 89.4225 381.504 84.0325C381.504 84.0325 373.739 88.9943 369.274 90.1729C367.667 90.5972 365.667 90.2672 363.761 89.6661C359.938 88.464 355.937 83.1682 355.949 79.169C355.949 79.1428 355.949 79.1166 355.949 79.0904C356.036 73.1975 359.639 76.7333 359.639 76.7333C359.639 76.7333 359.776 71.9954 362.619 71.2333C365.462 70.4711 367.966 74.4272 367.966 74.4272C373.319 72.2767 379.029 71.148 384.799 71.0997C396.246 71.0722 394.643 79.1886 394.643 79.1886C394.643 79.1886 403.282 80.5361 398.021 93.194Z" fill="#262424"/>
<path d="M390.844 98.3808C389.706 94.1536 392.116 89.6947 396.356 88.5358C397.252 88.2854 398.188 88.2081 399.113 88.3079C404.672 88.9208 405.2 101.532 391.994 102.608L390.844 98.3808Z" fill="white"/>
<path d="M391.993 103.389C391.784 103.397 391.581 103.323 391.427 103.181C391.273 103.04 391.182 102.843 391.174 102.635C391.166 102.426 391.241 102.223 391.383 102.07C391.524 101.917 391.721 101.826 391.93 101.818C399.301 101.216 401.975 96.9854 402.026 93.544C402.061 91.1554 400.797 89.2775 399.026 89.0811C398.2 88.9923 397.364 89.0616 396.565 89.2854C394.735 89.8214 393.191 91.0553 392.268 92.7196C391.344 94.3839 391.115 96.3443 391.631 98.1758C391.666 98.2782 391.68 98.3869 391.672 98.495C391.663 98.6031 391.632 98.7082 391.581 98.8038C391.529 98.8993 391.459 98.9833 391.373 99.0502C391.288 99.1172 391.189 99.1659 391.084 99.1931C390.979 99.2202 390.869 99.2254 390.762 99.2082C390.655 99.1911 390.552 99.1519 390.461 99.0933C390.369 99.0346 390.291 98.9577 390.231 98.8674C390.171 98.7771 390.13 98.6754 390.111 98.5686C388.847 93.8543 391.56 89.0222 396.163 87.7611C397.155 87.4847 398.191 87.3993 399.215 87.5097C401.809 87.7964 403.66 90.3382 403.617 93.5557C403.554 97.9793 399.959 102.733 392.076 103.377H392.009L391.993 103.389Z" fill="#262424"/>
<path d="M441.623 101.738C444.447 101.738 446.737 99.4529 446.737 96.6345C446.737 93.816 444.447 91.5312 441.623 91.5312C438.798 91.5312 436.508 93.816 436.508 96.6345C436.508 99.4529 438.798 101.738 441.623 101.738Z" fill="#3257FB"/>
<path d="M323.002 78.5704C322.793 78.5704 322.593 78.4876 322.445 78.3403C322.298 78.1929 322.215 77.993 322.215 77.7847V72.4732C322.215 72.2648 322.298 72.065 322.445 71.9176C322.593 71.7703 322.793 71.6875 323.002 71.6875C323.211 71.6875 323.412 71.7703 323.559 71.9176C323.707 72.065 323.79 72.2648 323.79 72.4732V77.7847C323.79 77.993 323.707 78.1929 323.559 78.3403C323.412 78.4876 323.211 78.5704 323.002 78.5704Z" fill="#262424"/>
<path d="M331.064 81.3019H325.721C325.512 81.3019 325.312 81.2191 325.164 81.0718C325.017 80.9244 324.934 80.7246 324.934 80.5162C324.934 80.3078 325.017 80.1079 325.164 79.9606C325.312 79.8132 325.512 79.7305 325.721 79.7305H331.064C331.168 79.7305 331.27 79.7508 331.366 79.7903C331.461 79.8298 331.548 79.8876 331.621 79.9606C331.694 80.0336 331.752 80.1202 331.792 80.2155C331.831 80.3108 331.852 80.413 331.852 80.5162C331.852 80.6194 331.831 80.7215 331.792 80.8169C331.752 80.9122 331.694 80.9988 331.621 81.0718C331.548 81.1447 331.461 81.2026 331.366 81.2421C331.27 81.2816 331.168 81.3019 331.064 81.3019Z" fill="#262424"/>
<path d="M323.002 89.34C322.793 89.34 322.593 89.2573 322.445 89.1099C322.298 88.9626 322.215 88.7627 322.215 88.5543V83.2232C322.215 83.0148 322.298 82.815 322.445 82.6676C322.593 82.5203 322.793 82.4375 323.002 82.4375C323.211 82.4375 323.412 82.5203 323.559 82.6676C323.707 82.815 323.79 83.0148 323.79 83.2232V88.5543C323.79 88.7627 323.707 88.9626 323.559 89.1099C323.412 89.2573 323.211 89.34 323.002 89.34Z" fill="#262424"/>
<path d="M320.291 81.3019H314.948C314.739 81.3019 314.539 81.2191 314.391 81.0718C314.243 80.9244 314.16 80.7246 314.16 80.5162C314.16 80.3078 314.243 80.1079 314.391 79.9606C314.539 79.8132 314.739 79.7305 314.948 79.7305H320.291C320.5 79.7305 320.7 79.8132 320.848 79.9606C320.995 80.1079 321.078 80.3078 321.078 80.5162C321.078 80.7246 320.995 80.9244 320.848 81.0718C320.7 81.2191 320.5 81.3019 320.291 81.3019Z" fill="#262424"/>
<path d="M301.571 454.646C301.362 454.646 301.162 454.563 301.014 454.416C300.866 454.269 300.783 454.069 300.783 453.861V449.311C300.783 449.103 300.866 448.903 301.014 448.756C301.162 448.608 301.362 448.525 301.571 448.525C301.78 448.525 301.98 448.608 302.127 448.756C302.275 448.903 302.358 449.103 302.358 449.311V453.861C302.358 454.069 302.275 454.269 302.127 454.416C301.98 454.563 301.78 454.646 301.571 454.646Z" fill="#262424"/>
<path d="M308.447 456.96H303.887C303.678 456.96 303.478 456.877 303.33 456.73C303.183 456.583 303.1 456.383 303.1 456.174C303.1 455.966 303.183 455.766 303.33 455.619C303.478 455.471 303.678 455.389 303.887 455.389H308.447C308.656 455.389 308.856 455.471 309.004 455.619C309.151 455.766 309.234 455.966 309.234 456.174C309.234 456.383 309.151 456.583 309.004 456.73C308.856 456.877 308.656 456.96 308.447 456.96Z" fill="#262424"/>
<path d="M301.571 463.818C301.362 463.818 301.162 463.735 301.014 463.588C300.866 463.441 300.783 463.241 300.783 463.032V458.463C300.783 458.255 300.866 458.055 301.014 457.908C301.162 457.761 301.362 457.678 301.571 457.678C301.78 457.678 301.98 457.761 302.128 457.908C302.275 458.055 302.358 458.255 302.358 458.463V463.013C302.361 463.118 302.342 463.222 302.304 463.319C302.266 463.417 302.208 463.506 302.135 463.581C302.061 463.656 301.974 463.716 301.877 463.756C301.78 463.797 301.676 463.818 301.571 463.818Z" fill="#262424"/>
<path d="M299.253 456.96H294.698C294.489 456.96 294.288 456.877 294.141 456.73C293.993 456.583 293.91 456.383 293.91 456.174C293.91 455.966 293.993 455.766 294.141 455.619C294.288 455.471 294.489 455.389 294.698 455.389H299.257C299.361 455.389 299.463 455.409 299.558 455.449C299.654 455.489 299.741 455.547 299.814 455.62C299.886 455.693 299.944 455.78 299.984 455.876C300.023 455.971 300.043 456.073 300.043 456.176C300.043 456.28 300.022 456.382 299.982 456.477C299.942 456.572 299.884 456.659 299.811 456.731C299.737 456.804 299.65 456.862 299.555 456.901C299.459 456.94 299.357 456.96 299.253 456.96Z" fill="#262424"/>
</svg>
