<?xml version="1.0" encoding="UTF-8" standalone="no"?>
<svg
   xmlns:dc="http://purl.org/dc/elements/1.1/"
   xmlns:cc="http://creativecommons.org/ns#"
   xmlns:rdf="http://www.w3.org/1999/02/22-rdf-syntax-ns#"
   xmlns:svg="http://www.w3.org/2000/svg"
   xmlns="http://www.w3.org/2000/svg"
   xmlns:sodipodi="http://sodipodi.sourceforge.net/DTD/sodipodi-0.dtd"
   xmlns:inkscape="http://www.inkscape.org/namespaces/inkscape"
   version="1.1"
   id="svg2"
   xml:space="preserve"
   width="368"
   height="640"
   viewBox="0 0 368 640"
   sodipodi:docname="shutterstock_150996725.eps"><metadata
     id="metadata8"><rdf:RDF><cc:Work
         rdf:about=""><dc:format>image/svg+xml</dc:format><dc:type
           rdf:resource="http://purl.org/dc/dcmitype/StillImage" /></cc:Work></rdf:RDF></metadata><defs
     id="defs6" /><sodipodi:namedview
     pagecolor="#ffffff"
     bordercolor="#666666"
     borderopacity="1"
     objecttolerance="10"
     gridtolerance="10"
     guidetolerance="10"
     inkscape:pageopacity="0"
     inkscape:pageshadow="2"
     inkscape:window-width="640"
     inkscape:window-height="480"
     id="namedview4" /><g
     id="g10"
     inkscape:groupmode="layer"
     inkscape:label="ink_ext_XXXXXX"
     transform="matrix(1.3333333,0,0,-1.3333333,0,640)"><g
       id="g12"
       transform="scale(0.1)"><path
         d="m 1408.23,4800 c 3.54,-3.55 7.06,-7.09 10.59,-10.64 -4.74,-14.99 -3.75,-21.48 -17.64,-28.42 -5.96,-3.82 -0.46,-2.49 -7.07,0 -1.37,3.28 -0.03,4.39 0,3.56 -0.96,12.63 7.39,20.91 14.12,24.86 0,3.55 0,7.09 0,10.64"
         style="fill:#000000;fill-opacity:1;fill-rule:evenodd;stroke:none"
         id="path14" /><path
         d="m 1450.59,4693.49 c 2.35,0 4.71,0 7.06,0 -7.06,-15.38 -14.12,-30.76 -21.19,-46.15 -3.52,0 -7.05,0 -10.58,0 0,5.91 0,11.83 0,17.75 3.67,0.18 20.74,17.13 24.71,28.4"
         style="fill:#000000;fill-opacity:1;fill-rule:evenodd;stroke:none"
         id="path16" /><path
         d="m 1404.71,4650.89 c 3.52,-3.55 7.06,-7.1 10.58,-10.65 1.18,-2.37 2.36,-4.74 3.53,-7.1 -1.17,-1.19 -2.35,-2.37 -3.53,-3.55 -3.52,2.36 -7.06,4.73 -10.58,7.1 0,4.73 0,9.47 0,14.2"
         style="fill:#000000;fill-opacity:1;fill-rule:evenodd;stroke:none"
         id="path18" /><path
         d="m 1408.23,4629.59 c 1.18,-2.37 2.36,-4.74 3.54,-7.1 -1.18,2.36 -2.36,4.73 -3.54,7.1"
         style="fill:#000000;fill-opacity:1;fill-rule:evenodd;stroke:none"
         id="path20" /><path
         d="m 1440,4413.02 c 3.53,-7.1 7.05,-14.21 10.59,-21.3 -7.21,-10.56 -10.04,1.17 -7.06,-10.66 -4.7,2.37 -9.41,4.74 -14.12,7.12 -2.35,5.9 -4.7,11.82 -7.07,17.74 13.4,1.77 11.64,-3.88 17.66,7.1"
         style="fill:#000000;fill-opacity:1;fill-rule:evenodd;stroke:none"
         id="path22" /><path
         d="m 1284.71,4359.77 c 11.76,-5.92 23.52,-11.84 35.29,-17.75 -10.42,-5.09 -1.64,-13.94 -7.06,-24.86 -3.53,-1.19 -7.06,-2.36 -10.59,-3.55 -1.07,1.89 -23.99,24.57 -31.77,28.41 4.71,5.91 9.42,11.83 14.13,17.75"
         style="fill:#000000;fill-opacity:1;fill-rule:evenodd;stroke:none"
         id="path24" /><path
         d="m 1309.41,4356.21 c 2.35,-2.36 4.7,-4.73 7.06,-7.1 -2.36,2.37 -4.71,4.74 -7.06,7.1"
         style="fill:#000000;fill-opacity:1;fill-rule:evenodd;stroke:none"
         id="path26" /><path
         d="m 1224.71,4288.76 c 10.92,-5.62 7.96,-14.99 14.11,-31.95 -1.17,-3.55 -2.35,-7.1 -3.53,-10.65 -4.69,9.47 -9.41,18.93 -14.11,28.39 7.52,8.64 2.07,-0.35 3.53,14.21"
         style="fill:#000000;fill-opacity:1;fill-rule:evenodd;stroke:none"
         id="path28" /><path
         d="m 1422.34,4242.6 c 8.25,-3.54 16.49,-7.09 24.71,-10.65 0,-3.55 0,-7.09 0,-10.65 -8.31,-11.58 -50.89,-42 -38.82,-28.4 -1.36,3.27 -0.02,4.38 0,3.55 3.46,19.35 15.1,43.82 14.11,46.15"
         style="fill:#000000;fill-opacity:1;fill-rule:evenodd;stroke:none"
         id="path30" /><path
         d="m 1270.58,4210.65 c 10.6,-1.18 21.19,-2.37 31.77,-3.54 -7.73,-15.47 -39.27,-23.81 -67.06,-10.66 1.18,2.37 2.36,4.74 3.53,7.1 19.43,-3.88 25.14,-1.93 31.76,7.1"
         style="fill:#000000;fill-opacity:1;fill-rule:evenodd;stroke:none"
         id="path32" /><path
         d="m 1323.53,3266.27 c 8.24,-1.18 16.47,-2.36 24.7,-3.55 0,-1.18 0,-2.36 0,-3.55 -20.7,-31.05 -48.24,-71.34 -56.46,-106.5 -5.89,1.19 -11.77,2.36 -17.65,3.55 1.17,-9.47 2.35,-18.94 3.52,-28.41 2.36,-9.47 4.71,-18.93 7.07,-28.41 15.63,2.19 8.58,0.71 14.11,-7.09 10.48,-1.87 3.75,-1.64 7.06,-10.65 19.48,-53.07 41.52,-82.34 70.59,-131.36 -32.51,-0.97 -14.12,-7.8 -38.83,-14.2 20.67,-67.73 35.25,-88.05 42.36,-152.67 43.41,-11.3 54.17,-50.27 134.11,-60.35 0,3.55 0,7.1 0,10.65 -6.4,1.68 -10.06,-2.58 -14.11,10.64 10.59,0 21.18,0 31.76,0 1.18,2.37 2.36,4.74 3.53,7.11 -1.17,2.36 -2.35,4.74 -3.53,7.1 -13.74,2 -31,17.64 -31.76,42.61 7.06,5.91 14.11,11.83 21.18,17.75 3.53,-1.19 7.05,-2.37 10.58,-3.55 -1.16,-8.29 -2.36,-16.58 -3.53,-24.85 4.7,0 9.43,0 14.11,0 8.66,133.3 168.66,19.44 211.78,-14.21 -6.53,-11.88 -0.02,-96.82 14.11,-106.51 17.65,3.55 35.3,7.1 52.94,10.65 -1.37,35.88 -11.31,30.45 -21.17,67.46 6.47,1.67 9.62,17.29 17.65,24.85 2.35,-2.37 4.7,-4.73 7.06,-7.1 -1.18,4.73 -2.36,9.47 -3.54,14.21 28.74,-13.84 21.73,-33.95 42.37,-46.16 -0.15,3.55 0.08,0.78 3.52,0 8.23,-3.55 16.47,-7.1 24.71,-10.65 -1.18,7.1 -2.35,14.2 -3.53,21.29 4.7,0 9.42,0 14.11,0 4.19,-13.7 -2.56,-4.85 14.11,-10.64 -1.17,3.55 -2.34,7.1 -3.52,10.64 14.17,-7.12 4.15,-3.92 10.6,-14.19 -7.53,-8.64 -2.08,0.37 -3.54,-14.2 24.4,3.63 13.01,12.31 45.88,0 2.25,25.96 -0.87,17.78 14.13,24.85 0,-3.55 0,-7.1 0,-10.65 -10.45,-4.83 -0.87,-28.68 7.05,-42.6 7.06,-1.19 14.11,-2.37 21.18,-3.56 1.17,-7.1 2.34,-14.2 3.53,-21.3 -24.65,10.24 -35.89,-6.13 -45.89,-3.55 -31.04,0.01 -44.28,10.46 -70.59,7.11 -5.38,-21.07 0.96,-23.69 -7.05,-46.15 29,1.38 60.14,-60.78 63.53,-74.57 8.23,-1.18 16.47,-2.37 24.69,-3.55 0,4.74 0,9.47 0,14.2 -10.06,2.56 -5.6,-1.33 -14.12,10.66 3.54,1.18 7.07,2.36 10.6,3.55 1.6,-14.61 39.13,-29.37 70.6,-39.06 -2.36,-4.73 -4.72,-9.47 -7.08,-14.21 -1.17,0 -2.35,0 -3.51,0 -32.86,3.51 -30.48,13.27 -42.36,3.56 -15.3,-2.37 -30.59,-4.72 -45.88,-7.09 6.53,-19.04 10.14,-37.22 21.17,-46.16 7.94,20.06 11.24,24.3 28.24,28.39 9.56,-19.82 37.54,-27.17 56.47,-35.49 1.32,9.17 -1.67,9.61 7.06,17.75 11.19,-5.63 8.71,-2.82 21.18,-14.2 -8.23,-9.47 -16.48,-18.93 -24.72,-28.4 19.62,-27.74 -2.8,-117.48 -17.65,-117.16 -39.44,-6.65 -83.26,72.26 -63.52,92.3 10.16,-0.51 33.57,2.18 52.94,14.19 0,5.93 0,11.85 0,17.77 -14.11,-1.19 -28.23,-2.37 -42.34,-3.56 -6.18,-10 -7.66,-9.11 -10.6,-24.85 -18.83,0 -37.65,0 -56.48,0 -39.11,19.76 -48.69,62.85 -91.75,42.61 -5.95,11.09 -1.7,9.7 -10.59,14.19 3.53,18.94 7.05,37.88 10.59,56.82 -35.91,7.45 -19.35,45.03 -45.88,63.89 -25.4,18.08 -67.88,16.8 -91.77,46.16 2.58,8.26 -0.58,19.49 3.54,31.95 -20.07,4.94 -5.99,10.18 -35.31,10.65 1.12,4.38 5.19,17.67 -3.52,10.66 -14.27,30.97 -59.7,34.95 -84.72,42.6 3.16,-6.39 44.88,-74.81 24.71,-63.91 1.85,-26.73 0.34,-35.89 17.65,-39.05 11.46,-41.44 32.6,-60.91 42.36,-113.62 -18.3,-1.76 -18,-14.4 -38.82,-17.74 -4.36,26.31 -44.04,88.03 -45.9,102.96 1.18,1.17 2.35,2.37 3.54,3.55 -23.31,29.15 -60.99,13.52 -67.06,46.16 l -17.65,28.39 c 0,0 -104.4,36.74 -102.35,39.06 -10.95,9.49 -4.04,11.98 -21.18,17.75 0,-5.92 0,-11.83 0,-17.75 -44.79,0.09 -42.74,-7.04 -74.12,-31.95 5.84,-20.37 0.79,-13.95 10.59,-28.41 -4.7,-4.72 -9.41,-9.47 -14.11,-14.2 -11.88,15.43 -30.53,-9.01 -38.84,-14.2 -30.22,12.33 -56.65,1.32 -70.58,14.2 7.92,6.35 5.6,19.41 7.06,31.95 -3.53,3.55 -7.06,7.1 -10.59,10.66 -3.53,0 -7.05,0 -10.59,0 -5.88,-9.47 -11.77,-18.94 -17.64,-28.41 -8.49,6.22 -5.9,3.65 -10.59,14.2 21.42,8.86 1.64,21.2 7.05,46.16 -19.99,2.37 -39.99,4.73 -60,7.1 1.19,-9.47 2.36,-18.93 3.53,-28.4 -6.8,10.52 -0.89,0.06 -10.59,7.1 -1.17,-8.29 -2.34,-16.57 -3.52,-24.86 -6.9,8.72 -2,1.43 -3.53,10.66 -16.99,6.53 -11.84,102.03 -17.65,124.26 26.11,10.34 80.38,37.4 88.23,81.65 14.49,-12.37 13.18,-10.19 17.66,-7.1 15.32,7.25 -1.18,41.96 0,53.25 -34.48,16.28 -72.41,39.31 -112.95,31.96 0,-1.19 0,-2.37 0,-3.55 4.71,-29.57 9.42,-59.18 14.12,-88.76 -16.78,-6.43 -1.96,-10.08 -21.17,-7.1 -12.13,-2.01 -14.99,-3.96 -21.18,3.55 -9.4,2 -15.295,9.91 -28.245,17.75 5.172,13.15 7.61,24.05 3.528,39.06 -17.125,-1.84 -35.039,7.77 -31.746,24.84 -2.313,15.34 5.324,21.65 -3.539,35.52 -7.086,14.24 -3.907,4.16 -14.114,10.64 4.082,-18.71 3.887,-23.58 -7.062,-39.05 -5.887,0 -11.766,0 -17.653,0 -6.554,55.57 -23.859,194.82 -63.527,195.27 2.785,20.91 2.547,8.89 0,28.39 22.191,-0.18 12.953,0.83 21.18,14.21 -10.61,1.8 -14.274,1.32 -17.641,21.3 10.945,6.2 3.555,8.03 10.574,17.76 -3.511,3.54 -7.05,7.09 -10.574,10.65 -8.254,35.27 -3.258,40.59 -14.125,74.55 -4.703,0 -9.414,0 -14.117,0 -0.981,-8.4 0.785,-4.43 -3.524,-14.2 -4.703,2.36 -9.417,4.73 -14.128,7.1 18.039,33.66 7.238,82.9 10.586,117.15 26.261,12.69 30.207,12.31 42.371,31.96 1.164,0 2.339,0 3.511,0 7.618,-21.24 10.895,-17.77 28.235,-35.51 -7.168,-10.56 -2.516,-4.25 -10.586,-7.09 4.41,-14.45 4.574,-23.88 10.586,-31.95 6.664,-15.65 16.226,-21.66 24.715,-49.71 31.769,6.67 68.964,-0.08 81.168,28.4 -1.168,1.18 -2.336,2.37 -3.524,3.55 5.091,12.69 -20.773,84.14 -28.234,106.51 -8.985,26.95 11.347,59.44 7.066,102.96 77.369,36.81 -16.527,130.64 38.819,181.07 -10.44,14.79 -30.057,16.22 -35.303,49.7 8.004,6.1 7.07,10.05 3.535,24.86 7.051,1.18 14.117,2.36 21.178,3.54 -2.35,10.65 -4.705,21.3 -7.061,31.96 14.601,2.63 6.541,-0.86 17.651,10.65 -3.54,8.27 -7.06,16.56 -10.59,24.85 15.73,3.85 50.23,125.3 38.82,173.96 15.16,2.02 9.46,3.04 24.71,10.66 1.65,-6.02 22.55,-11.4 31.77,0 12.02,11.62 4.49,14.93 14.11,21.29 7.32,8.48 12.54,3.9 10.59,3.56 7.82,-2.59 12.79,-12.79 24.72,-21.31 3.51,0 7.05,0 10.58,0 3.32,15.95 27.67,22.44 56.47,24.86 20.89,-42.05 291.86,-198.86 268.23,-17.75 8.34,0.98 4.4,-0.79 14.12,3.55 1.18,-3.55 2.35,-7.11 3.53,-10.66 -2.35,-3.54 -4.72,-7.09 -7.05,-10.66 14.33,2.41 17.9,-1.09 21.16,-3.54 21.75,-18.88 17.19,-39.17 35.3,-49.7 -7.6,-31.9 -19.59,-52.14 -49.41,-67.46 3.27,-21.09 -10.59,-110.06 -10.59,-110.06 12.4,-18.74 6,-68.26 17.65,-85.21 8.98,-13.08 15.12,-12.74 24.7,-28.4 -1.16,-2.37 -2.36,-4.74 -3.53,-7.1 15.32,0.67 27.18,3.08 42.36,-3.54 3.52,-19.39 -10.68,-41.71 0,-63.92 10.58,1.18 21.17,2.37 31.76,3.56 0,-3.56 0,-7.1 0,-10.65 -9.43,-6 1.05,-0.41 -3.52,-10.66 -17.09,-38.29 -20.84,-87.18 -38.83,-106.51 -21.68,-23.27 -37.76,-49.04 -52.94,-92.31 4.71,3.56 9.4,7.11 14.12,10.66 0,-3.55 0,-7.1 0,-10.66 -5.89,-7.09 -11.77,-14.2 -17.65,-21.3 8.08,-9.89 7.36,-4.96 7.06,-10.64 -5.31,-20.61 -29.96,-41.77 -38.82,-56.81 -2.36,2.37 -4.72,4.74 -7.06,7.1 3.52,5.92 7.06,11.83 10.58,17.76 -7.06,0 -14.11,0 -21.18,0 -44.13,-32.11 -82.7,-43.83 -130.58,-78.11 0,-16.57 0,-33.15 0,-49.71"
         style="fill:#000000;fill-opacity:1;fill-rule:evenodd;stroke:none"
         id="path34" /><path
         d="m 1471.77,3415.39 c -1.18,-5.93 -2.36,-11.84 -3.54,-17.75 10.24,1.88 17.29,-2.82 10.59,7.1 2.35,1.18 4.72,2.36 7.06,3.55 -8.67,6.93 -1.44,2.01 -10.59,3.54 -1.18,1.19 -2.35,2.38 -3.52,3.56"
         style="fill:#000000;fill-opacity:1;fill-rule:evenodd;stroke:none"
         id="path36" /><path
         d="m 1457.65,3372.78 c 3.53,-1.18 7.06,-2.36 10.58,-3.55 -2.35,-3.55 -4.71,-7.1 -7.05,-10.65 -2.35,2.37 -4.72,4.73 -7.07,7.1 2.35,0 4.72,0 7.07,0 -1.19,2.37 -2.35,4.74 -3.53,7.1"
         style="fill:#000000;fill-opacity:1;fill-rule:evenodd;stroke:none"
         id="path38" /><path
         d="m 1447.05,3355.03 c 2.36,0 4.72,0 7.06,0 -2.34,0 -4.7,0 -7.06,0"
         style="fill:#000000;fill-opacity:1;fill-rule:evenodd;stroke:none"
         id="path40" /><path
         d="m 843.531,3266.27 c 1.176,-2.36 2.348,-4.74 3.524,-7.1 -1.176,2.36 -2.348,4.74 -3.524,7.1"
         style="fill:#000000;fill-opacity:1;fill-rule:evenodd;stroke:none"
         id="path42" /><path
         d="m 1429.41,3063.91 c 21.7,-9.82 33.22,-33.62 31.77,-31.96 0,-7.09 0,-14.2 0,-21.3 14.16,-7.13 4.14,-3.92 10.59,-14.19 13.02,4.67 14.6,1.87 21.18,14.19 -3.02,4.53 -8.07,6.52 3.52,17.76 10.57,-23.79 27.45,-42.1 38.82,-39.06 -4.61,-16.81 -1.92,-19.78 -21.18,-24.85 -7.06,14.21 -30.86,26.49 -56.46,28.4 1.18,-2.36 2.34,-4.73 3.53,-7.1 -0.38,-19.69 0.71,-25.78 -14.13,-46.15 -10.85,-5.26 -14.18,-2.35 -10.59,-10.66 -14.89,8.15 -28.33,80.19 -24.69,92.31 -5.89,1.19 -11.78,2.37 -17.66,3.56 0,7.09 0,14.19 0,21.3 6.23,0.41 7.04,13.57 21.18,7.09 11.4,5.47 18.14,1.97 14.12,10.66"
         style="fill:#000000;fill-opacity:1;fill-rule:evenodd;stroke:none"
         id="path44" /><path
         d="m 1556.47,2964.5 c 4.7,-2.37 9.42,-4.73 14.12,-7.1 -2.36,-3.55 -4.71,-7.1 -7.05,-10.66 -1.19,0 -2.36,0 -3.54,0 -12.38,7 -9.36,1.21 -17.66,14.2 4.71,1.19 9.42,2.38 14.13,3.56"
         style="fill:#000000;fill-opacity:1;fill-rule:evenodd;stroke:none"
         id="path46" /><path
         d="m 1715.29,2893.49 c 11.62,-6.28 10.21,-8.67 17.66,-10.65 -1.19,-4.73 -2.36,-9.47 -3.55,-14.2 -4.69,0 -9.41,0 -14.11,0 -1.89,7.05 -8.61,9.74 -7.06,17.76 9.93,0.99 2.61,-1.89 7.06,7.09"
         style="fill:#000000;fill-opacity:1;fill-rule:evenodd;stroke:none"
         id="path48" /><path
         d="m 1394.11,2840.24 c 18.56,-5.83 7.07,-3.25 14.12,-14.2 -4.71,0 -9.41,0 -14.12,0 1.18,2.37 2.35,4.73 3.55,7.09 -6.26,4.86 -4.32,-0.79 -3.55,7.11"
         style="fill:#000000;fill-opacity:1;fill-rule:evenodd;stroke:none"
         id="path50" /><path
         d="m 1429.41,2811.84 c 35.08,-16.8 70.5,-37.93 77.65,-67.47 -30.87,13.16 -80.45,41.52 -77.65,67.47"
         style="fill:#000000;fill-opacity:1;fill-rule:evenodd;stroke:none"
         id="path52" /><path
         d="m 2071.78,2772.78 c 21.52,-5.9 52.61,-67.94 67.05,-63.9 -3.56,-39.89 -6.6,-78.94 -35.29,-88.75 -6.3,8.14 -3.78,4.75 -21.19,7.09 0,-7.09 0,-14.2 0,-21.3 -3.52,0 -7.06,0 -10.57,0 -18.18,13.97 -38.28,22.64 -45.9,46.16 56.72,13.19 6.89,110.43 45.9,110.05 0,3.55 0,7.1 0,10.65"
         style="fill:#000000;fill-opacity:1;fill-rule:evenodd;stroke:none"
         id="path54" /><path
         d="m 1365.88,2723.08 c 1.18,-2.37 2.36,-4.74 3.53,-7.1 -1.17,2.36 -2.35,4.73 -3.53,7.1"
         style="fill:#000000;fill-opacity:1;fill-rule:evenodd;stroke:none"
         id="path56" /><path
         d="m 892.93,2715.98 c 1.187,-2.37 2.363,-4.73 3.535,-7.1 -1.172,2.37 -2.348,4.73 -3.535,7.1"
         style="fill:#000000;fill-opacity:1;fill-rule:evenodd;stroke:none"
         id="path58" /><path
         d="m 907.055,2712.43 c 2.355,0 4.715,0 7.054,0 -2.339,0 -4.699,0 -7.054,0"
         style="fill:#000000;fill-opacity:1;fill-rule:evenodd;stroke:none"
         id="path60" /><path
         d="m 903.52,2708.88 c 12.804,-3.79 46.738,-14.98 45.882,-24.86 9.453,-5.17 8.7,-11.99 14.129,-28.4 -29.437,15.52 -49.527,12.05 -60.011,53.26"
         style="fill:#000000;fill-opacity:1;fill-rule:evenodd;stroke:none"
         id="path62" /><path
         d="m 970.582,2698.23 c 2.352,-2.37 4.711,-4.74 7.055,-7.1 -3.516,-3.55 -7.055,-7.11 -10.582,-10.66 0,2.37 0,4.74 0,7.11 -2.348,0 -4.7,0 -7.059,0 1.18,2.36 2.359,4.72 3.535,7.09 2.336,1.18 4.699,2.37 7.051,3.56"
         style="fill:#000000;fill-opacity:1;fill-rule:evenodd;stroke:none"
         id="path64" /><path
         d="m 970.582,2655.62 c 8.234,-2.36 16.481,-4.73 24.707,-7.1 -1.18,-2.37 -2.355,-4.74 -3.527,-7.09 -9.172,4.36 -15.117,6.53 -21.18,14.19"
         style="fill:#000000;fill-opacity:1;fill-rule:evenodd;stroke:none"
         id="path66" /><path
         d="m 1118.82,2655.62 c 1.18,-2.36 2.35,-4.73 3.53,-7.1 -1.18,2.37 -2.35,4.74 -3.53,7.1"
         style="fill:#000000;fill-opacity:1;fill-rule:evenodd;stroke:none"
         id="path68" /><path
         d="m 1125.88,2652.08 c 13.06,-4.22 17.67,-3.35 24.7,-14.21 -18,4.95 -16.36,-1.3 -28.23,10.65 1.18,1.18 2.35,2.37 3.53,3.56"
         style="fill:#000000;fill-opacity:1;fill-rule:evenodd;stroke:none"
         id="path70" /><path
         d="m 995.289,2644.97 c 2.356,0 4.711,0 7.061,0 -2.35,-2.36 -4.705,-4.74 -7.061,-7.1 0,2.36 0,4.74 0,7.1"
         style="fill:#000000;fill-opacity:1;fill-rule:evenodd;stroke:none"
         id="path72" /><path
         d="m 1182.35,2623.66 c 14.83,-5.44 8.64,0.67 14.11,-14.19 -4.7,2.36 -9.41,4.73 -14.11,7.1 -4.54,5.43 -0.79,0.05 0,7.09"
         style="fill:#000000;fill-opacity:1;fill-rule:evenodd;stroke:none"
         id="path74" /><path
         d="m 1408.23,2620.13 c 18.06,-8.25 75.14,-5.6 67.06,-24.86 12.16,-16.1 13.67,-8.5 17.66,-35.5 -16.52,-7.06 -26.11,-23.69 -31.77,-31.95 3.01,-4.53 8.05,-6.52 -3.53,-17.76 -25.46,14.91 -38.98,21.5 -59.99,46.15 4.89,25.96 -4.04,33.27 14.11,49.71 -1.18,4.73 -2.36,9.47 -3.54,14.21"
         style="fill:#000000;fill-opacity:1;fill-rule:evenodd;stroke:none"
         id="path76" /><path
         d="m 1482.35,2616.57 c 7.81,-9.08 4.23,-2.06 3.53,-14.2 -2.34,3.55 -4.71,7.1 -7.06,10.65 2.35,-1.19 4.72,-2.37 7.06,-3.55 -1.18,2.36 -2.34,4.73 -3.53,7.1"
         style="fill:#000000;fill-opacity:1;fill-rule:evenodd;stroke:none"
         id="path78" /><path
         d="m 988.223,2609.47 c 39.547,-7.11 164.157,-4.82 169.427,-7.1 8.23,-10.65 16.47,-21.3 24.7,-31.95 9.66,3.67 36.88,14.38 45.88,3.55 19.95,-7.57 63.95,-44.3 63.54,-78.12 15.85,1.46 15.07,5.37 24.7,-3.54 2.34,0 4.71,0 7.06,0 -35.42,-81.56 -3.53,-68.78 0,-152.66 -10.88,-1.79 -30.21,-34.69 -42.35,-49.7 3.53,-9.47 7.05,-18.94 10.59,-28.41 -27.27,-4.23 -6.71,-8.51 -21.19,-21.3 -5.73,12.43 -3.49,7.83 -14.12,14.19 -8.22,-10.64 -16.46,-21.3 -24.7,-31.94 -7.75,14.07 -19.93,4.84 -35.3,7.1 4.03,-14.85 5.06,-7.84 0,-21.3 -2.34,1.17 -4.7,2.35 -7.05,3.55 -1.5,9.23 3.45,1.95 -3.54,10.65 -9.41,-3.49 -15.83,2.51 -10.58,-7.11 -7.29,6.97 -3.65,1.33 -7.06,14.21 11.34,16.13 17.5,16.85 21.18,35.51 -48.69,9.41 -33.4,80.72 -74.11,110.05 -3.26,-1.38 -4.36,-0.02 -3.54,0 l -42.35,138.47 c -23.94,-2.55 -19.54,10.58 -38.82,3.53 -2.67,25.27 -19.43,32.79 -14.13,60.36 -8.22,0 -16.472,0 -24.698,0 0,-4.73 0,-9.46 0,-14.2 -8.239,7.11 -16.469,14.2 -24.707,21.3 7.066,8.29 14.117,16.58 21.168,24.86"
         style="fill:#000000;fill-opacity:1;fill-rule:evenodd;stroke:none"
         id="path80" /><path
         d="m 1951.77,2577.51 c 10.9,-2.45 -0.56,-4.09 10.57,-3.54 -1.16,-3.55 -2.34,-7.1 -3.52,-10.66 -2.35,1.19 -4.71,2.37 -7.05,3.56 0,3.55 0,7.1 0,10.64"
         style="fill:#000000;fill-opacity:1;fill-rule:evenodd;stroke:none"
         id="path82" /><path
         d="m 2050.59,2524.26 c 9.41,-2.37 18.82,-4.74 28.24,-7.11 0,-4.72 0,-9.46 0,-14.19 -28.24,3.83 -28.31,1.68 -38.83,17.75 3.54,-1.19 7.06,-2.37 10.59,-3.56 0,2.37 0,4.74 0,7.11"
         style="fill:#000000;fill-opacity:1;fill-rule:evenodd;stroke:none"
         id="path84" /><path
         d="m 1718.82,2499.41 c 9.42,0 18.83,0 28.24,0 3.42,-19.32 21.07,-49.48 38.82,-74.57 13.41,4.48 9.38,2.77 14.12,0 15.21,-3.14 16.84,-19.08 24.71,-39.04 -29.81,17.74 -86.73,60.32 -105.89,85.2 3.15,12.95 -4.73,12.74 3.53,21.31 -1.18,2.37 -2.35,4.74 -3.53,7.1"
         style="fill:#000000;fill-opacity:1;fill-rule:evenodd;stroke:none"
         id="path86" /><path
         d="m 1461.18,2442.61 c 7.05,-1.19 14.11,-2.37 21.17,-3.56 -2.35,0 -4.7,0 -7.06,0 1.17,-2.36 2.36,-4.73 3.53,-7.1 -3.53,-1.18 -7.05,-2.37 -10.59,-3.55 -1.18,0 -2.35,0 -3.52,0 -1.69,13.8 2.86,3.4 -3.53,14.21"
         style="fill:#000000;fill-opacity:1;fill-rule:evenodd;stroke:none"
         id="path88" /><path
         d="m 1358.82,2439.05 c 4.71,-1.18 9.42,-2.37 14.12,-3.54 -2.35,-3.56 -4.7,-7.11 -7.06,-10.67 -2.35,1.2 -4.7,2.38 -7.06,3.56 0,3.55 0,7.11 0,10.65"
         style="fill:#000000;fill-opacity:1;fill-rule:evenodd;stroke:none"
         id="path90" /><path
         d="m 1471.77,2407.1 c 7.49,-8.32 1.55,0.4 3.52,-10.65 -2.35,1.18 -4.7,2.37 -7.06,3.55 0,1.19 0,2.37 0,3.55 1.18,1.18 2.36,2.37 3.54,3.55"
         style="fill:#000000;fill-opacity:1;fill-rule:evenodd;stroke:none"
         id="path92" /><path
         d="m 1457.65,2396.45 c 3.53,-1.19 7.06,-2.37 10.58,-3.55 0,-1.18 0,-2.36 0,-3.55 -10.66,4.47 -4.23,-0.06 -10.58,7.1"
         style="fill:#000000;fill-opacity:1;fill-rule:evenodd;stroke:none"
         id="path94" /><path
         d="m 1824.71,2385.8 c -1.51,-3.3 2.83,-2.4 -3.54,-7.1 1.18,2.36 2.36,4.74 3.54,7.1"
         style="fill:#000000;fill-opacity:1;fill-rule:evenodd;stroke:none"
         id="path96" /><path
         d="m 1831.77,2382.25 c 8.98,-10.83 5.79,-4.09 7.06,-17.75 -1.18,2.37 -2.36,4.74 -3.53,7.09 -6.9,8.74 -2,1.45 -3.53,10.66"
         style="fill:#000000;fill-opacity:1;fill-rule:evenodd;stroke:none"
         id="path98" /><path
         d="m 2121.18,2364.5 c 8.23,-5.91 16.47,-11.83 24.7,-17.76 0,-3.54 0,-7.09 0,-10.65 -12.23,-2.91 -4.46,4.12 -10.58,-7.09 l 127.05,-14.21 c 0,5.91 0,11.83 0,17.76 24.33,-6.54 23.35,5.35 42.35,0 -2.35,7.1 -4.7,14.19 -7.04,21.31 10.86,2.86 6.45,4.23 14.11,3.53 4.7,0 9.4,0 14.11,0 0,-10.65 0,-21.3 0,-31.95 2.35,1.18 4.71,2.37 7.06,3.56 9.02,2.35 6.99,3.64 10.59,3.55 26.92,-13.57 38.35,-35.37 52.93,-53.26 -8.69,-14.51 -7.42,-5.16 -7.05,-24.86 37.28,-5.07 40.06,-26.26 63.54,-35.49 -1.17,-3.56 -2.36,-7.1 -3.54,-10.65 -13.98,-2.04 -5.66,1.23 -17.65,-7.11 0,-3.53 0,-7.11 0,-10.65 19.73,-13.76 1.61,-33.01 -10.59,-63.91 10.04,0 8.11,2.21 17.67,-3.54 -16.74,-20.63 2.56,-32.6 3.52,-67.46 -3.52,1.2 -7.07,2.36 -10.6,3.55 12.86,-45.75 21.89,-51.75 49.42,-78.12 10.92,-10.45 -15.51,-28.62 -17.65,-42.59 32.68,-11.18 33.61,-24.18 60,-56.8 -3.53,-3.54 -7.07,-7.11 -10.59,-10.65 -6.01,8.7 -13.12,-1.25 -10.59,10.65 -13.54,2.61 -10.41,5.93 -14.12,21.29 -28.02,1.58 -19.42,0.82 -38.82,10.65 -1.19,-5.9 -2.35,-11.82 -3.52,-17.74 -9.88,8.64 -8.26,5.5 -17.66,10.65 -1.54,-7.58 1.21,-6 -7.06,-14.2 -10.64,8.84 -19.84,16.61 -45.88,17.76 -1.46,-9.65 -1.22,-13.9 -14.11,-17.76 -0.11,23.64 -2.21,42.16 -14.12,53.26 -11.71,-2.36 -47.34,2.14 -42.36,7.1 -3.53,-1.2 -7.04,-2.37 -10.58,-3.56 32.44,-43.89 7.57,-90.55 7.05,-145.56 2.36,-1.19 4.72,-2.36 7.06,-3.54 2.88,-12 45.73,-47.76 49.42,-46.16 -13.04,-39.13 17.22,-52.45 21.18,-95.86 -2.36,0 -4.71,0 -7.06,0 1.18,-2.37 2.35,-4.73 3.52,-7.11 -11.76,1.19 -23.53,2.38 -35.29,3.56 0,-8.28 0,-16.57 0,-24.86 3.92,-10.06 3.06,-5.16 3.53,-14.2 7.07,0 14.12,0 21.18,0 1.47,-30.44 25.23,-41.28 17.64,-56.81 0,-2.36 0,-4.73 0,-7.1 -9.38,8.73 -5.39,4.85 -7.06,14.21 -40.06,18.53 -44.9,79.47 -67.06,124.25 -4.69,0 -9.4,0 -14.11,0 9.82,-39.23 15.52,-59.32 17.65,-110.05 -31.52,23.68 -67.24,33.69 -77.65,56.8 27.53,26.02 -9.23,50.76 -10.58,81.67 55.06,72.88 -8.15,109.25 -31.77,152.66 -23.14,-4.87 -24.1,-29.88 -28.23,-42.61 -20.87,11.75 -15.65,12.16 -38.83,17.75 -1.18,4.74 -2.36,9.47 -3.53,14.2 36.23,33.7 -20.37,141.95 -21.18,170.42 12.94,-5.91 25.89,-11.83 38.83,-17.74 0,4.72 0,9.46 0,14.2 -6.99,1.02 -21.8,39.88 -21.18,42.59 32.06,2.08 74.41,-6.49 74.12,-46.15 1.17,-1.18 2.34,-2.37 3.53,-3.55 -11.76,-5.91 -23.53,-11.83 -35.31,-17.75 9.1,-15.61 11.01,-31.03 28.24,-39.05 9.98,-13.05 27.49,-9.52 42.37,0 8.19,17.23 19.38,27.05 21.16,42.59 -0.1,1.93 3.17,40.96 -17.64,31.96 2.35,5.91 4.7,11.83 7.05,17.75 11.93,-8.57 2.55,-5.5 17.66,-7.1 -3.6,-13.86 -3.34,-4.23 -3.53,-21.29 11.88,6.45 7.99,2.56 17.64,17.74 5.88,-3.54 11.78,-7.1 17.65,-10.65 -0.5,28.17 7.96,36.82 21.18,56.81 -5.88,0 -11.77,0 -17.65,0 -8.86,-1.33 -7.34,-0.8 -17.66,-7.12 -8.13,17.15 -79.66,61.37 -70.57,92.32 -79.65,-6.93 -77.95,93.44 -105.89,106.5 0,-3.54 0,-7.08 0,-10.64 -10.52,7.22 -4.24,2.54 -7.06,10.64 -7.3,6.98 -3.65,1.34 -7.05,14.21 15.49,2.2 12.59,-3.43 10.58,14.2 3.71,12.16 -6.69,4.27 3.53,14.2 6.35,7.26 0.05,2.52 10.59,7.11 -1.18,-4.74 -2.36,-9.46 -3.53,-14.2 3.53,1.18 7.06,2.35 10.59,3.54 1.17,14.2 2.35,28.4 3.53,42.61"
         style="fill:#000000;fill-opacity:1;fill-rule:evenodd;stroke:none"
         id="path100" /><path
         d="m 1902.35,2360.94 c 20.06,-3.94 30.29,-11.05 38.83,-24.85 22.83,-19.32 5.89,-69.47 24.7,-63.9 -6.82,-10.74 -0.72,-5.74 -14.11,-10.65 1.18,2.37 2.34,4.75 3.53,7.09 -24.66,8.71 -62.29,77.15 -52.95,92.31"
         style="fill:#000000;fill-opacity:1;fill-rule:evenodd;stroke:none"
         id="path102" /><path
         d="m 1485.88,2357.39 c 14.18,-7.12 4.15,-3.92 10.59,-14.19 -14.67,-2.98 -3.52,2.62 -10.59,-10.65 10.33,-11.33 -30.32,-140.78 -31.77,-142.02 0,2.38 0,4.73 0,7.12 -17.65,10.13 -10.96,53.44 -28.23,49.68 10.84,32.41 28.23,81.67 28.23,81.67 3.56,18.77 21.32,10 31.77,28.39"
         style="fill:#000000;fill-opacity:1;fill-rule:evenodd;stroke:none"
         id="path104" /><path
         d="m 1517.64,2346.74 c 17.28,-4.59 19.73,-23.02 28.24,-31.95 -8.88,-12.09 -10.43,-6.68 -21.17,-10.65 -1.18,4.74 -2.35,9.47 -3.53,14.21 -1.18,9.46 -2.35,18.93 -3.54,28.39"
         style="fill:#000000;fill-opacity:1;fill-rule:evenodd;stroke:none"
         id="path106" /><path
         d="m 1800,2336.09 c 11.76,-3.54 23.53,-7.09 35.3,-10.65 -1.88,-13.11 -10.76,-8.08 0,-14.2 3.53,-2.36 7.05,-4.73 10.58,-7.1 8,15.09 1.97,0.1 17.66,7.1 18.31,-34.41 70.13,-48.71 84.69,-85.2 25.44,5.58 30.47,-1.72 38.83,-10.66 51.2,-27.52 29.63,-67.56 52.94,-127.81 -3.54,-2.36 -7.05,-4.73 -10.59,-7.09 -4.76,23.15 -49.7,67.03 -84.7,56.8 -7.84,3.77 -6.43,3.89 -3.53,10.65 -5.97,6.55 0.22,21.06 -7.07,14.2 -2.65,5.97 -56.15,48.51 -49.41,63.91 -52.63,-15.58 -69.49,-64.13 -102.35,-92.31 -3.52,3.55 -7.06,7.1 -10.58,10.65 22.82,11.63 33.11,68.08 42.35,81.66 -16.97,4.19 -17.39,3.33 -21.19,21.29 18.03,9.6 12.64,61.24 7.07,88.76"
         style="fill:#000000;fill-opacity:1;fill-rule:evenodd;stroke:none"
         id="path108" /><path
         d="m 1588.24,2307.7 c 15.3,0 30.58,0 45.87,0 5.26,-11.35 10.94,-16.79 10.6,-31.95 0.5,-13.89 -7.67,-31.03 -17.65,-39.06 -8.47,35.28 -48.93,19.28 -49.42,63.91 9.49,1.73 2.94,-3.13 10.6,7.1"
         style="fill:#000000;fill-opacity:1;fill-rule:evenodd;stroke:none"
         id="path110" /><path
         d="m 2054.11,2300.6 c 3.54,0 7.06,0 10.59,0 3.63,-14.69 11.28,-17.62 3.53,-28.41 -6.85,10.78 -1.15,3.72 -10.58,7.1 -1.18,7.11 -2.36,14.2 -3.54,21.31"
         style="fill:#000000;fill-opacity:1;fill-rule:evenodd;stroke:none"
         id="path112" /><path
         d="m 2092.94,2272.19 c 1.18,-2.37 2.35,-4.74 3.53,-7.09 -1.18,2.35 -2.35,4.72 -3.53,7.09"
         style="fill:#000000;fill-opacity:1;fill-rule:evenodd;stroke:none"
         id="path114" /><path
         d="m 847.055,2257.99 c 24.699,-18.94 49.41,-37.87 74.117,-56.81 11.891,1.79 24.641,7.86 35.305,10.66 3.558,-23.52 18.836,-20.65 24.695,-49.71 -27.445,-4.56 -11.301,-9.04 -28.234,-39.05 -10.579,8.77 -9.083,7.91 -10.59,17.75 -10.141,7.23 -1.758,5.97 -10.586,14.21 -7.625,-4.08 -44.426,-2.59 -52.938,10.64 -19.527,9.89 -12.59,21.9 -21.179,46.16 -1.176,-1.2 -2.352,-2.38 -3.524,-3.55 -2.363,1.17 -4.711,2.35 -7.066,3.55 -3.145,-9.42 0.293,-9.19 -7.059,-17.77 2.348,21.31 4.711,42.62 7.059,63.92"
         style="fill:#000000;fill-opacity:1;fill-rule:evenodd;stroke:none"
         id="path116" /><path
         d="m 1274.12,2240.24 c 1.17,-2.36 2.35,-4.74 3.52,-7.11 -1.17,2.37 -2.35,4.75 -3.52,7.11"
         style="fill:#000000;fill-opacity:1;fill-rule:evenodd;stroke:none"
         id="path118" /><path
         d="m 938.824,2222.49 c 2.352,0 4.699,0 7.055,0 -2.356,0 -4.703,0 -7.055,0"
         style="fill:#000000;fill-opacity:1;fill-rule:evenodd;stroke:none"
         id="path120" /><path
         d="m 1200,2211.84 c 1.17,-2.38 2.34,-4.73 3.53,-7.11 -1.19,2.38 -2.36,4.73 -3.53,7.11"
         style="fill:#000000;fill-opacity:1;fill-rule:evenodd;stroke:none"
         id="path122" /><path
         d="m 1267.06,2194.07 c 15.91,-5.12 19.83,-17.09 21.17,-28.39 -7.27,-7.86 -4.87,-6.68 -17.65,-10.64 -1.18,13.01 -2.35,26.02 -3.52,39.03"
         style="fill:#000000;fill-opacity:1;fill-rule:evenodd;stroke:none"
         id="path124" /><path
         d="m 1429.41,2190.53 c 3.53,-2.37 7.05,-4.73 10.59,-7.09 0,-3.56 0,-7.11 0,-10.66 -3.54,-1.18 -7.06,-2.36 -10.59,-3.54 0,7.09 0,14.2 0,21.29"
         style="fill:#000000;fill-opacity:1;fill-rule:evenodd;stroke:none"
         id="path126" /><path
         d="m 2068.23,2186.98 c 4.71,0 9.42,0 14.12,0 -2.35,-2.36 -4.71,-4.72 -7.06,-7.1 -7.92,-9.23 -4.01,-2.32 -14.12,-7.1 2.36,2.37 4.72,4.74 7.06,7.1 0,2.38 0,4.74 0,7.1"
         style="fill:#000000;fill-opacity:1;fill-rule:evenodd;stroke:none"
         id="path128" /><path
         d="m 836.469,2162.13 c 2.347,0 4.703,0 7.062,0 0.551,-2.84 0.02,-7.13 3.524,-3.55 19.16,-20.73 41.484,-18.89 63.527,-46.16 -7.738,-7.2 -35.273,-40.28 -31.758,-53.25 -33.691,10.57 -13.426,84.4 -38.828,85.21 -7.203,-6.62 -4.574,15.75 -3.527,17.75"
         style="fill:#000000;fill-opacity:1;fill-rule:evenodd;stroke:none"
         id="path130" /><path
         d="m 1323.53,2158.58 c 6.31,-9.91 6.35,-12.5 3.53,-24.85 -7.81,7.32 -6.65,4.9 -10.59,17.75 9.82,1.78 0.24,-0.22 7.06,7.1"
         style="fill:#000000;fill-opacity:1;fill-rule:evenodd;stroke:none"
         id="path132" /><path
         d="m 1425.88,2151.48 c 2.35,-2.36 4.72,-4.74 7.06,-7.1 -2.34,2.36 -4.71,4.74 -7.06,7.1"
         style="fill:#000000;fill-opacity:1;fill-rule:evenodd;stroke:none"
         id="path134" /><path
         d="m 2107.06,2147.93 c 2.35,0 4.71,0 7.06,0 -2.35,-2.35 -4.71,-4.74 -7.06,-7.1 -1.18,-2.36 -2.35,-4.74 -3.52,-7.1 1.17,4.74 2.34,9.46 3.52,14.2"
         style="fill:#000000;fill-opacity:1;fill-rule:evenodd;stroke:none"
         id="path136" /><path
         d="m 1436.46,2144.38 c 21.37,-17.47 114.78,-53.11 123.54,-67.45 8.06,-3.77 5.93,-5.98 7.05,-21.31 7.03,1.16 45.02,-8.57 49.41,-31.95 20.63,2.56 34.05,8.18 31.78,24.85 14.11,0 28.23,0 42.36,0 1.91,-7.36 17.94,-49.34 38.8,-35.49 16.91,3.53 32.25,15.83 49.43,28.4 1.93,-27.43 14.35,-19.07 17.64,-35.52 -22.28,-1.39 -35.55,-43.02 -35.3,-49.69 4.72,-16.57 9.42,-33.15 14.12,-49.71 -2.35,-2.37 -4.7,-4.73 -7.06,-7.11 -1.18,0 -2.34,0 -3.52,0 -2.28,17.79 0.99,14.46 -21.17,17.76 -4.08,-27.39 -36.61,-52.98 -70.6,-49.7 0.6,-20.79 3.01,-53.06 -7.06,-46.16 -4.6,-23.85 -33.01,-7.35 -42.35,-31.94 3.53,0 7.06,0 10.58,0 5.01,6.92 -0.29,5.64 14.13,3.54 2.35,-14.2 4.7,-28.4 7.05,-42.61 -19.41,-21.05 -16,-29.34 -28.23,-49.69 -21.9,-1.01 -22.65,-5.91 -28.23,0 -9.14,8.77 -10.54,25.75 -7.07,17.75 0.53,4.28 5.96,12.62 3.53,14.2 -1.17,5.91 -2.35,11.82 -3.53,17.74 18.53,8.59 17.2,15.24 24.7,28.41 -62.21,-17.59 -105.42,2.61 -137.64,-35.51 -8.59,-4.8 -29.61,-34.85 -31.77,-46.15 -15.01,3.35 -11.82,4.1 -21.17,10.65 1.18,2.37 2.35,4.73 3.53,7.1 -3.18,9.4 12.84,36.12 17.64,42.6 -3.53,16.82 -25.15,35.24 -17.64,53.26 7.17,17.19 19.14,40.87 35.3,60.36 -26.3,82.44 21.53,141.61 10.58,213 -19.17,-4.13 -53.46,6.63 -63.52,17.76 3.45,3.61 7.4,30.56 7.05,35.51 12.83,2.29 10.69,1.43 17.64,7.1"
         style="fill:#000000;fill-opacity:1;fill-rule:evenodd;stroke:none"
         id="path138" /><path
         d="m 2096.47,2140.83 c 1.18,-2.36 2.35,-4.74 3.53,-7.1 -1.18,2.36 -2.35,4.74 -3.53,7.1"
         style="fill:#000000;fill-opacity:1;fill-rule:evenodd;stroke:none"
         id="path140" /><path
         d="m 2142.35,2137.28 c 2.36,-2.36 4.71,-4.74 7.05,-7.09 0,-1.2 0,-2.39 0,-3.57 -4.68,2.37 -9.4,4.75 -14.1,7.11 2.35,1.19 4.7,2.36 7.05,3.55"
         style="fill:#000000;fill-opacity:1;fill-rule:evenodd;stroke:none"
         id="path142" /><path
         d="m 1288.23,2126.62 c 14.73,-3.76 8.01,-3.59 24.71,-3.54 -6.18,-10.14 -26.55,-16.27 -17.65,-7.1 -9.04,1.69 -1.18,-2.39 -10.58,3.55 1.17,2.35 2.35,4.74 3.52,7.09"
         style="fill:#000000;fill-opacity:1;fill-rule:evenodd;stroke:none"
         id="path144" /><path
         d="m 952.938,2119.53 c 1.179,-2.36 2.343,-4.73 3.539,-7.11 -1.196,2.38 -2.36,4.75 -3.539,7.11"
         style="fill:#000000;fill-opacity:1;fill-rule:evenodd;stroke:none"
         id="path146" /><path
         d="m 1312.94,2119.53 c 1.17,-2.36 2.35,-4.73 3.53,-7.11 -1.18,2.38 -2.36,4.75 -3.53,7.11"
         style="fill:#000000;fill-opacity:1;fill-rule:evenodd;stroke:none"
         id="path148" /><path
         d="m 907.055,2108.88 c 2.355,0 4.715,0 7.054,0 -2.339,0 -4.699,0 -7.054,0"
         style="fill:#000000;fill-opacity:1;fill-rule:evenodd;stroke:none"
         id="path150" /><path
         d="m 2107.06,2108.88 c 3.53,0 7.06,0 10.59,0 0,-4.74 0,-9.47 0,-14.2 -2.36,1.18 -4.71,2.36 -7.06,3.54 -1.18,-2.36 -2.36,-4.72 -3.53,-7.09 -1.18,3.55 -2.35,7.09 -3.52,10.64 1.17,2.37 2.34,4.74 3.52,7.11"
         style="fill:#000000;fill-opacity:1;fill-rule:evenodd;stroke:none"
         id="path152" /><path
         d="m 924.695,2098.22 c 4.715,-1.18 9.426,-2.36 14.129,-3.54 0,-2.37 0,-4.74 0,-7.11 -3.535,1.18 -7.062,2.37 -10.586,3.56 -9.195,1.51 -1.925,-3.46 -10.593,3.55 2.351,1.18 4.703,2.36 7.05,3.54"
         style="fill:#000000;fill-opacity:1;fill-rule:evenodd;stroke:none"
         id="path154" /><path
         d="m 2230.6,2080.48 c 0,-4.74 0,-9.46 0,-14.2 -2.36,2.35 -4.72,4.74 -7.06,7.09 2.34,2.37 4.7,4.75 7.06,7.11"
         style="fill:#000000;fill-opacity:1;fill-rule:evenodd;stroke:none"
         id="path156" /><path
         d="m 2237.65,2080.48 c 1.17,-2.36 2.35,-4.74 3.52,-7.11 -1.17,2.37 -2.35,4.75 -3.52,7.11"
         style="fill:#000000;fill-opacity:1;fill-rule:evenodd;stroke:none"
         id="path158" /><path
         d="m 2251.76,2073.37 c 2.36,0 4.71,0 7.07,0 -6.16,-3.47 -0.78,-3.23 -7.07,0"
         style="fill:#000000;fill-opacity:1;fill-rule:evenodd;stroke:none"
         id="path160" /><path
         d="m 2258.83,2069.82 c 4.7,-2.36 9.41,-4.73 14.11,-7.09 -7.6,-6.53 -1.26,-4.09 -7.05,-14.21 0,2.37 0,4.74 0,7.1 -2.36,-1.19 -4.72,-2.36 -7.06,-3.54 0,5.9 0,11.82 0,17.74"
         style="fill:#000000;fill-opacity:1;fill-rule:evenodd;stroke:none"
         id="path162" /><path
         d="m 2237.65,2066.28 c 0,-4.74 0,-9.46 0,-14.2 -2.35,1.18 -4.71,2.35 -7.05,3.54 2.34,3.55 4.7,7.11 7.05,10.66"
         style="fill:#000000;fill-opacity:1;fill-rule:evenodd;stroke:none"
         id="path164" /><path
         d="m 1778.83,2048.52 c 1.16,-2.36 2.35,-4.74 3.52,-7.09 -1.17,2.35 -2.36,4.73 -3.52,7.09"
         style="fill:#000000;fill-opacity:1;fill-rule:evenodd;stroke:none"
         id="path166" /><path
         d="m 1630.59,2037.87 c 2.35,0 4.7,0 7.06,0 -6.16,-3.47 -0.78,-3.24 -7.06,0"
         style="fill:#000000;fill-opacity:1;fill-rule:evenodd;stroke:none"
         id="path168" /><path
         d="m 1792.93,2023.67 c 2.36,-2.37 4.73,-4.73 7.07,-7.11 -2.34,2.38 -4.71,4.74 -7.07,7.11"
         style="fill:#000000;fill-opacity:1;fill-rule:evenodd;stroke:none"
         id="path170" /><path
         d="m 832.938,2020.12 c 13.125,-7.61 11.011,0.76 14.117,-17.75 -7.469,-1.76 -9.492,-5.72 -10.586,-21.32 -11.766,5.93 -23.531,11.85 -35.297,17.78 0,1.17 0,2.34 0,3.54 11.766,0 23.531,0 35.297,0 -1.176,5.92 -2.352,11.84 -3.531,17.75"
         style="fill:#000000;fill-opacity:1;fill-rule:evenodd;stroke:none"
         id="path172" /><path
         d="m 2269.41,2005.91 c -1.17,-1.17 -2.36,-2.36 -3.52,-3.54 2.35,-2.37 4.7,-4.73 7.05,-7.12 3.52,3.58 7.06,7.12 10.59,10.66 -4.7,0 -9.41,0 -14.12,0"
         style="fill:#000000;fill-opacity:1;fill-rule:evenodd;stroke:none"
         id="path174" /><path
         d="m 1803.53,2002.37 c 10.45,-6.85 0.06,-0.91 7.06,-10.66 -7.2,6.41 -2.5,0.07 -7.06,10.66"
         style="fill:#000000;fill-opacity:1;fill-rule:evenodd;stroke:none"
         id="path176" /><path
         d="m 1814.12,2002.37 c 1.18,-2.37 2.35,-4.73 3.53,-7.12 -2.35,0 -4.71,0 -7.06,0 1.18,2.39 2.35,4.75 3.53,7.12"
         style="fill:#000000;fill-opacity:1;fill-rule:evenodd;stroke:none"
         id="path178" /><path
         d="m 730.586,1995.25 c 4.703,0 9.414,0 14.117,0 -1.18,-10.63 -2.355,-21.29 -3.531,-31.93 5.879,1.18 11.766,2.35 17.656,3.55 -1.187,-15.39 -2.363,-30.77 -3.539,-46.16 17.609,1.09 4.723,6.2 17.649,0 0,-1.18 0,-2.36 0,-3.55 -3.536,-3.56 -7.059,-7.09 -10.583,-10.65 -7.066,3.56 -14.117,7.09 -21.183,10.65 0,-4.73 0,-9.47 0,-14.21 2.351,0 4.703,0 7.066,0 -1.187,-2.36 -2.363,-4.73 -3.535,-7.09 16.996,0.46 26.043,-2.17 21.176,7.09 10.73,-9.47 8.676,-21.86 10.59,-35.49 -14.555,4.01 -25.895,8.46 -42.36,-7.11 11.735,-5.93 2.192,-26.3 10.594,-31.95 8.602,-9.1 11.496,-7.32 21.176,-7.1 -0.176,-42.45 11.125,-59.68 35.293,-85.21 -1.172,-4.72 -2.348,-9.46 -3.535,-14.2 -19.321,-0.67 -39.129,-31 -38.809,-39.05 -64.652,7.19 -94.633,-19.76 -91.765,-81.65 -30.215,-2.66 -95.645,-34.14 -137.653,-46.16 4.281,-27.64 12.442,-39.51 0,-56.81 -5.199,12.7 -7.476,9.28 -21.183,14.21 1.187,-2.36 2.363,-4.73 3.535,-7.11 -1.172,-1.18 -2.348,-2.36 -3.535,-3.54 9.121,-10.54 16.582,-5.71 21.183,-21.3 -17.867,-1.56 -36.426,-38.03 -35.301,-67.46 -5.879,2.36 -11.761,4.74 -17.64,7.1 -3.141,-24.18 -23.578,-36.29 -38.828,-71 -107.481,7.48 -157.508,-185.72 -250.59,-156.22 4.957,-22.65 -11.762,-41.74 -21.176,-49.72 -35.461,8.09 -64.977,-22.53 -77.6445,-42.59 -5.3789,8.11 -6.4375,4.32 -3.5235,14.2 -13.4765,65.18 119.043,167.73 155.293,198.82 74.961,52.12 256.477,202.81 282.344,294.67 3.535,0 7.066,0 10.59,0 0,-4.74 0,-9.46 0,-14.2 4.711,0 9.425,0 14.129,0 -5.723,18.47 -1.829,32.62 0,35.5 6.378,7.64 32.902,7.49 28.242,14.21 9.836,7.91 1.883,21.68 21.164,21.31 -2.352,8.28 -4.711,16.56 -7.067,24.83 8.68,6.96 1.434,2.01 10.594,3.57 5.809,6.17 1.012,5.91 17.641,0 1.187,9.46 2.363,18.92 3.539,28.39 10.301,-8.79 9.722,-11.67 7.051,-24.85 7.062,0 14.117,0 21.175,0 3.633,23.83 36.036,29.71 31.77,46.15 7.922,7.44 14.105,33.28 7.066,56.82 -25.633,5.3 -4.984,12.12 -28.242,24.84 9.043,12.73 6.074,2.59 7.067,21.3 -9.497,1.75 -2.926,-3.12 -10.594,7.11 5.879,0 11.754,0 17.64,0 -3.543,30.33 11.067,31.82 38.821,31.95 -1.172,2.36 -2.34,4.73 -3.516,7.1 3.906,17.95 10.582,81.65 10.582,81.65 4.699,0 9.414,0 14.113,0 -1.164,7.09 -2.351,14.21 -3.523,21.29"
         style="fill:#000000;fill-opacity:1;fill-rule:evenodd;stroke:none"
         id="path180" /><path
         d="m 794.109,1963.32 c -1.488,-3.3 2.84,-2.4 -3.523,-7.1 1.172,2.35 2.348,4.73 3.523,7.1"
         style="fill:#000000;fill-opacity:1;fill-rule:evenodd;stroke:none"
         id="path182" /><path
         d="m 1778.83,1959.77 c 3.52,-1.2 7.05,-2.38 10.57,-3.55 -2.33,-1.19 -4.69,-2.37 -7.05,-3.55 -6.27,-11.16 -3.55,-5.24 -10.58,-7.1 2.35,4.73 4.7,9.46 7.06,14.2"
         style="fill:#000000;fill-opacity:1;fill-rule:evenodd;stroke:none"
         id="path184" /><path
         d="m 783.531,1956.22 c 2.344,0 4.699,0 7.055,0 -1.176,-3.55 -2.356,-7.11 -3.539,-10.65 -1.172,3.54 -2.34,7.1 -3.516,10.65"
         style="fill:#000000;fill-opacity:1;fill-rule:evenodd;stroke:none"
         id="path186" /><path
         d="m 1941.18,1952.67 c 15.17,-6.12 16.45,-27.82 24.7,-31.96 -11.01,-15.69 -37.96,-28.95 -56.48,-42.59 3.21,19.12 8.14,25.07 7.06,39.04 14.63,0.23 9.4,-1.93 21.19,10.64 -8.68,6.97 -1.43,2.02 -10.59,3.57 4.7,7.09 9.41,14.2 14.12,21.3"
         style="fill:#000000;fill-opacity:1;fill-rule:evenodd;stroke:none"
         id="path188" /><path
         d="m 2018.83,1952.67 c 17.55,-1.97 13.67,0.66 21.17,-10.66 -3.55,-0.68 -24.27,-221.9 -21.17,-241.41 0,-2.38 0,-4.74 0,-7.1 1.17,-1.2 2.34,-2.37 3.52,-3.57 -5.09,-9.95 -9.19,-1.95 -7.06,-14.19 12.89,-3.24 7.22,0.12 14.12,-7.1 -2.35,1.19 -4.7,2.36 -7.06,3.55 -7.06,-9.47 -14.11,-18.93 -21.18,-28.4 -11.03,6 -8.92,8.81 -21.16,14.2 -5.09,-15.94 -33.22,-19.28 -52.95,-39.05 -10.67,-10.71 -6.46,-59.05 -17.66,-78.11 -20.78,-35.4 -47.36,-99.63 -88.23,-134.91 0,2.36 0,4.72 0,7.1 -17.91,30.9 29.47,153.93 31.77,177.52 0,0 52.26,65.78 52.94,85.2 -4.88,7.57 19.38,18.72 14.12,24.86 27.1,48.22 44.53,111.48 77.65,152.66 -5.61,36.56 8.66,68.14 21.18,99.41"
         style="fill:#000000;fill-opacity:1;fill-rule:evenodd;stroke:none"
         id="path190" /><path
         d="m 698.816,1938.46 c 1.184,-2.36 2.352,-4.74 3.528,-7.09 -1.176,2.35 -2.344,4.73 -3.528,7.09"
         style="fill:#000000;fill-opacity:1;fill-rule:evenodd;stroke:none"
         id="path192" /><path
         d="m 1778.83,1934.91 c 2.35,-2.36 4.71,-4.72 7.05,-7.11 -1.17,-1.17 -2.34,-2.35 -3.53,-3.54 -1.17,3.54 -2.36,7.11 -3.52,10.65"
         style="fill:#000000;fill-opacity:1;fill-rule:evenodd;stroke:none"
         id="path194" /><path
         d="m 1150.58,1920.71 c 4.71,-1.18 9.42,-2.36 14.13,-3.55 -4.71,-3.56 -9.42,-7.09 -14.13,-10.65 0,4.74 0,9.48 0,14.2"
         style="fill:#000000;fill-opacity:1;fill-rule:evenodd;stroke:none"
         id="path196" /><path
         d="m 1147.07,1917.16 c 1.17,-2.37 2.33,-4.74 3.51,-7.09 -1.18,2.35 -2.34,4.72 -3.51,7.09"
         style="fill:#000000;fill-opacity:1;fill-rule:evenodd;stroke:none"
         id="path198" /><path
         d="m 688.238,1899.4 c 2.336,-2.36 4.7,-4.72 7.051,-7.09 -2.351,2.37 -4.715,4.73 -7.051,7.09"
         style="fill:#000000;fill-opacity:1;fill-rule:evenodd;stroke:none"
         id="path200" /><path
         d="m 787.047,1888.75 c 2.363,-2.35 4.711,-4.73 7.062,-7.09 -2.351,-1.19 -4.699,-2.35 -7.062,-3.54 0,3.54 0,7.09 0,10.63"
         style="fill:#000000;fill-opacity:1;fill-rule:evenodd;stroke:none"
         id="path202" /><path
         d="m 797.637,1878.12 c 2.363,0 4.711,0 7.07,0 -2.359,0 -4.707,0 -7.07,0"
         style="fill:#000000;fill-opacity:1;fill-rule:evenodd;stroke:none"
         id="path204" /><path
         d="m 2477.65,1874.55 c 4.69,-1.18 9.42,-2.35 14.12,-3.54 -2.36,-2.37 -4.71,-4.73 -7.06,-7.1 -2.36,3.55 -4.71,7.1 -7.06,10.64"
         style="fill:#000000;fill-opacity:1;fill-rule:evenodd;stroke:none"
         id="path206" /><path
         d="m 2520,1874.55 c 3.53,-2.35 7.06,-4.74 10.59,-7.09 -3.53,0 -7.06,0 -10.59,0 0,2.35 0,4.74 0,7.09"
         style="fill:#000000;fill-opacity:1;fill-rule:evenodd;stroke:none"
         id="path208" /><path
         d="m 1800,1871.01 c 15.94,-13.06 66.83,-10.49 77.65,-24.86 7.67,-10.55 4.01,-11.68 17.64,-17.75 -9.1,-39.83 -85.73,-166.17 -77.64,-198.82 4.97,-20.02 -42.36,-74.55 -42.36,-74.55 -14.19,-33.03 13.67,-77.24 0,-102.97 5.76,-27.72 45.02,-47.27 49.42,-81.65 -32.57,-28.47 -16.9,-59.73 -70.59,-63.91 -11.8,-0.9 -13.97,-9.14 -17.65,0 -42.9,8.79 -34.05,87.07 -49.41,78.11 -14.77,17.48 -50.26,9.73 -63.53,24.85 -32.9,37.53 -24.7,40.03 -67.06,85.22 6.94,15.89 23.49,62.05 21.17,74.55 10.61,4.22 45.01,11.68 56.47,0 12.94,9.46 25.88,18.94 38.83,28.4 0,0 12.82,6.08 17.66,3.56 -0.15,57.61 -5.13,102.34 -14.13,138.45 4.1,0.6 29.2,-4.15 21.17,7.11 36.33,23.56 13.27,79.21 24.71,88.75 12.03,20.29 60.18,24 77.65,35.51"
         style="fill:#000000;fill-opacity:1;fill-rule:evenodd;stroke:none"
         id="path210" /><path
         d="m 2530.59,1867.46 c 2.35,-2.38 4.71,-4.74 7.07,-7.11 -3.54,0 -7.07,0 -10.6,0 1.18,2.37 2.35,4.73 3.53,7.11"
         style="fill:#000000;fill-opacity:1;fill-rule:evenodd;stroke:none"
         id="path212" /><path
         d="m 1895.29,1860.35 c 1.17,-2.35 2.36,-4.73 3.54,-7.09 -1.18,2.36 -2.37,4.74 -3.54,7.09"
         style="fill:#000000;fill-opacity:1;fill-rule:evenodd;stroke:none"
         id="path214" /><path
         d="m 2530.59,1856.81 c 3.53,0 7.07,0 10.59,0 0,-3.55 0,-7.11 0,-10.66 -3.52,3.55 -7.06,7.11 -10.59,10.66"
         style="fill:#000000;fill-opacity:1;fill-rule:evenodd;stroke:none"
         id="path216" /><path
         d="m 1182.35,1846.15 c 8.46,-9.34 5.14,-16.46 3.52,-35.5 -3.52,-1.18 -7.05,-2.37 -10.58,-3.56 -3.53,2.38 -7.06,4.75 -10.58,7.12 0,2.36 0,4.73 0,7.09 5.88,8.29 11.76,16.57 17.64,24.85"
         style="fill:#000000;fill-opacity:1;fill-rule:evenodd;stroke:none"
         id="path218" /><path
         d="m 2502.35,1817.75 c 2.36,-8.28 4.72,-16.58 7.06,-24.85 9.42,0 18.83,0 28.25,0 0,-4.74 0,-9.46 0,-14.2 -8.25,0 -16.48,0 -24.72,0 -7.34,14.38 -18.08,10.05 -24.71,31.95 4.71,2.37 9.42,4.74 14.12,7.1"
         style="fill:#000000;fill-opacity:1;fill-rule:evenodd;stroke:none"
         id="path220" /><path
         d="m 2174.12,1814.21 c 2.35,0 4.71,0 7.06,0 -2.35,-2.37 -4.71,-4.74 -7.06,-7.12 0,2.38 0,4.75 0,7.12"
         style="fill:#000000;fill-opacity:1;fill-rule:evenodd;stroke:none"
         id="path222" /><path
         d="m 2167.06,1810.65 c 2.34,-3.56 4.71,-7.1 7.06,-10.64 -7.2,-10.56 -10.05,1.16 -7.06,-10.65 -7.28,6.95 -3.65,1.32 -7.07,14.19 2.36,2.37 4.72,4.73 7.07,7.1"
         style="fill:#000000;fill-opacity:1;fill-rule:evenodd;stroke:none"
         id="path224" /><path
         d="m 2138.83,1789.36 c 9.4,-5.92 18.83,-11.85 28.23,-17.76 -1.18,-2.36 -2.36,-4.74 -3.52,-7.1 -27.4,-3.01 -61.04,-20.43 -67.07,-7.11 20.04,11.69 7.66,30.84 45.88,21.31 -1.18,3.54 -2.35,7.1 -3.52,10.66"
         style="fill:#000000;fill-opacity:1;fill-rule:evenodd;stroke:none"
         id="path226" /><path
         d="m 832.938,1768.05 c 13.207,-7.5 16.996,-13.02 42.351,-10.66 -0.246,-12.95 6.254,-7.13 0,-17.75 -8.473,-20.22 -37.375,-39.39 -56.476,-24.85 -2.336,0 -4.704,0 -7.051,0 0,9.47 0,18.94 0,28.4 5.89,-1.19 11.761,-2.36 17.64,-3.55 1.18,9.48 2.356,18.94 3.536,28.41"
         style="fill:#000000;fill-opacity:1;fill-rule:evenodd;stroke:none"
         id="path228" /><path
         d="m 667.063,1739.64 c 1.16,-2.35 2.347,-4.73 3.523,-7.09 -1.176,2.36 -2.363,4.74 -3.523,7.09"
         style="fill:#000000;fill-opacity:1;fill-rule:evenodd;stroke:none"
         id="path230" /><path
         d="m 2481.18,1714.79 c 14.15,-9.42 19.34,-137.91 24.71,-177.51 -12.74,-0.26 0.35,-0.55 -10.6,-7.1 -12.11,-0.65 -20.36,-4.4 -28.23,-7.1 -6.34,18.94 -30.29,28.38 -7.06,24.85 10.08,5.69 4.47,-3.19 10.6,7.1 2.34,0 4.69,0 7.05,0 -4.29,19.27 -12.18,37.2 -28.24,46.16 -2.35,-2.37 -4.71,-4.74 -7.05,-7.11 -2.36,8.28 -4.7,16.57 -7.07,24.86 20.72,13.39 20.27,39.06 10.6,53.25 23.95,4.87 23.41,19.71 35.29,31.94 0,3.56 0,7.12 0,10.66"
         style="fill:#000000;fill-opacity:1;fill-rule:evenodd;stroke:none"
         id="path232" /><path
         d="m 2442.36,1711.25 c 0,-3.56 0,-7.12 0,-10.65 -2.36,2.36 -4.7,4.72 -7.07,7.09 2.37,1.19 4.71,2.37 7.07,3.56"
         style="fill:#000000;fill-opacity:1;fill-rule:evenodd;stroke:none"
         id="path234" /><path
         d="m 2025.88,1654.44 c 7.21,-6.39 2.5,-0.06 7.07,-10.65 -2.35,3.54 -4.72,7.09 -7.07,10.65"
         style="fill:#000000;fill-opacity:1;fill-rule:evenodd;stroke:none"
         id="path236" /><path
         d="m 2061.17,1643.79 c 42.37,-12.81 76.86,-50.87 102.37,-46.16 12.87,2.38 12.06,-9.35 10.58,-14.2 10.74,-6.71 20.92,-85.1 -10.58,-88.75 -1.73,9.54 3.09,2.94 -7.08,10.64 -13.79,-8.47 -29.8,-34.62 -31.75,-35.5 -36.63,-16.47 -162.33,16.22 -169.41,-24.85 -5.89,1.18 -11.77,2.36 -17.65,3.56 5.8,14.43 23.41,21.31 38.81,39.05 -12.05,24.13 -12.23,19.78 -17.64,49.7 9.14,-0.23 21.64,-7.29 14.12,3.55 1.18,2.35 2.35,4.73 3.52,7.1 -3.52,-1.18 -7.05,-2.37 -10.58,-3.56 16.31,20.65 46.22,18.97 70.58,31.96 -3.26,27.41 18.09,42.21 24.71,67.46"
         style="fill:#000000;fill-opacity:1;fill-rule:evenodd;stroke:none"
         id="path238" /><path
         d="m 2181.18,1622.49 c 3.53,0 7.05,0 10.59,0 -8.44,-19.99 -10.85,-15.59 -24.71,-21.3 0,4.73 0,9.46 0,14.19 13.41,1.99 18.98,-2.2 14.12,7.11"
         style="fill:#000000;fill-opacity:1;fill-rule:evenodd;stroke:none"
         id="path240" /><path
         d="m 529.41,1618.94 c 1.18,-2.37 2.36,-4.74 3.524,-7.11 -1.164,2.37 -2.344,4.74 -3.524,7.11"
         style="fill:#000000;fill-opacity:1;fill-rule:evenodd;stroke:none"
         id="path242" /><path
         d="m 2604.71,1601.19 c 1.17,-2.37 2.34,-4.74 3.52,-7.11 -1.18,2.37 -2.35,4.74 -3.52,7.11"
         style="fill:#000000;fill-opacity:1;fill-rule:evenodd;stroke:none"
         id="path244" /><path
         d="m 2601.18,1594.08 c 12.95,-12.59 33.86,-73.85 28.24,-81.65 -5.21,-9.52 -19.71,-8.35 -24.71,-17.75 -15.33,7.83 -46.3,46.23 -49.43,63.89 35.55,-3.02 32.94,17.4 45.9,35.51"
         style="fill:#000000;fill-opacity:1;fill-rule:evenodd;stroke:none"
         id="path246" /><path
         d="m 2431.76,1526.63 c 5.9,-4.74 11.78,-9.47 17.65,-14.2 14.12,0 28.24,0 42.36,0 0,-9.47 0,-18.94 0,-28.41 -5.88,-1.19 -11.77,-2.35 -17.65,-3.54 14.82,-22.7 86.55,-51 102.35,-49.72 -3.39,-17.05 -7.13,-19.29 -3.52,-31.95 5.88,2.37 11.76,4.75 17.64,7.11 -3.53,-8.27 -7.05,-16.57 -10.6,-24.86 15.28,-6.07 8.25,-11.36 17.67,-21.29 5.88,-1.19 11.74,-2.38 17.63,-3.56 9.42,8.28 18.83,16.57 28.24,24.85 0,-2.36 0,-4.73 0,-7.1 -3.52,-17.75 -7.06,-35.5 -10.59,-53.25 15.3,-15.38 30.6,-30.77 45.89,-46.16 1.17,-11.82 2.35,-23.66 3.51,-35.5 -3.02,-0.91 -66.94,-48.28 -70.57,-63.89 11.49,-5.69 15.31,-7.58 10.58,-17.77 25.22,4.72 38.38,-5.73 70.6,3.55 2.34,-14.19 4.7,-28.4 7.05,-42.6 -5.88,-3.55 -11.77,-7.09 -17.66,-10.65 5.89,-7.1 11.78,-14.2 17.66,-21.29 -7.05,-8.28 -14.11,-16.59 -21.17,-24.86 9.24,-5.78 8.55,-3.42 17.64,-7.11 0.48,12.84 12.22,5.43 7.07,17.77 4.7,-3.57 9.41,-7.12 14.12,-10.66 -6.45,-24.74 -6.43,-71.61 -14.12,-67.45 -2.37,-3.551 -4.72,-7.121 -7.07,-10.649 -2.35,-5.929 -4.7,-11.851 -7.05,-17.761 18.75,-21.93 36.7,-42.231 59.99,-42.61 -4.67,-23.761 -4.41,-59.949 10.59,-78.101 -7,-5.688 -4.88,-4.61 -17.64,-7.098 8.91,-17.25 2.57,-22.883 7.05,-42.609 9.19,-1.512 1.94,3.468 10.59,-3.543 -2.34,-1.18 -4.71,-2.367 -7.06,-3.571 -12.81,-22.738 -34.06,-40.718 -35.28,-78.097 -12.93,1.187 -25.89,2.379 -38.83,3.558 -0.38,-9.879 -3.84,-21.828 -10.59,-35.5 -6.89,8.723 -2.01,1.43 -3.52,10.653 -3.55,3.547 -7.07,7.09 -10.59,10.648 -37.5,-21.039 7.17,-34.5 3.52,-56.808 0.65,-0.813 -5.36,-117.032 -17.64,-145.563 -1.36,43.301 -19.35,65.93 -31.78,78.113 0,0 1.98,75.227 0,99.407 -42.75,-0.18 -41.58,115.562 -81.17,142 0,-2.36 0,-4.727 0,-7.09 -12.92,-1.739 -30.76,-13.949 -38.83,-28.399 2.76,-10.16 4.06,-21.968 10.6,-28.398 1.78,11.078 14.63,6.867 10.58,3.539 10.59,-0.762 15.04,4.09 21.18,-14.199 -19.92,-13.153 4.57,-41.703 -14.13,-63.903 -6.47,7.34 -9.95,7.571 -21.17,10.653 1.17,2.359 2.36,4.73 3.54,7.09 3.52,11.847 7.06,23.679 10.58,35.507 -10.58,1.192 -21.18,2.36 -31.76,3.539 -2.01,-8.91 3.91,-11.519 -14.12,-14.199 1.18,2.383 2.35,4.742 3.53,7.11 -20.65,-10.09 -81.8,-91.618 -45.89,-131.348 9.04,7.84 2.05,4.238 14.12,3.539 3.41,-14.238 32.03,-26.418 35.31,-31.949 15.64,-26.61 23.93,-58.403 35.29,-85.211 25.37,-59.899 -81.47,-160.418 -95.3,-188.16 -8.24,2.351 -16.47,4.718 -24.7,7.101 8.06,34.891 -21.93,53.598 -35.29,74.551 26.06,8.098 18.99,24.938 35.29,31.957 -2.35,14.199 -4.72,28.391 -7.06,42.602 -1.18,0 -2.37,0 -3.54,0 -9.41,0 -18.83,0 -28.23,0 0,0 -17.82,-67.879 -28.23,-63.911 -3.41,-8.761 1.26,-5.14 -17.66,-7.109 -14.16,20.731 -58.6,8.539 -77.63,21.309 -2.69,12.441 -2.65,0.73 -14.13,10.652 -58.86,50.918 -111.59,43.969 -162.35,106.508 -2.35,3.539 -4.71,7.09 -7.06,10.648 -9.43,5.153 -1.75,1.774 -10.59,3.551 -1.23,51.18 -8.43,85.531 0,117.172 -13.26,4.328 -13.71,-3.012 -24.7,10.648 13.33,27.473 25.29,80.051 28.24,95.852 9.4,0 18.82,0 28.22,0 2.55,27.019 18.05,45.078 31.77,71.008 -14.67,0.222 -26.23,-2.899 -28.24,10.652 -2.34,0 -4.7,0 -7.05,0 1.17,2.348 2.35,4.738 3.52,7.098 -8.49,23.769 -39.82,60.301 -60,71.011 -8.29,4.391 -35.01,-9.539 -49.4,3.54 -5.63,3.449 -17.42,10.57 -10.59,24.851 -16.69,1.848 -43.23,20.899 -56.48,7.109 -9.41,-0.91 -19.33,-1.57 -31.76,-17.761 7.06,-4.739 14.12,-9.469 21.18,-14.199 -2.33,-12.219 -48.77,-80.981 -17.66,-70.989 4.06,-10.539 5.75,-12.011 7.08,-28.41 -2.36,-2.371 -4.72,-4.75 -7.08,-7.109 -24.34,11.617 -39.14,25.968 -42.34,53.258 -8.23,0 -16.47,0 -24.72,0 0,-5.911 0,-11.84 0,-17.739 -19.53,10.27 -27.61,8.758 -24.69,39.051 16.75,-8.383 10.69,-6.453 21.17,3.547 -23.52,11.652 -8.47,12.621 -28.23,21.293 -9.42,-23.66 -18.83,-47.332 -28.25,-71 -10.71,6.898 -3.68,1.168 -7.05,10.648 -8.68,5.321 -3.2,4.192 -10.58,14.2 -4.72,-1.18 -9.42,-2.36 -14.13,-3.551 0.77,-4.668 -3.39,-19.457 3.53,-10.649 -8.31,-11.011 -0.9,-8.711 -14.11,-7.101 3.73,-12.957 2.86,-10.449 10.58,-17.75 20.4,6.543 22.76,-1.149 31.76,-14.207 -25.59,-0.172 -20.88,-18.563 -45.87,-28.391 -2.35,2.348 -4.71,4.731 -7.06,7.098 -2.49,54.711 -7.84,85.062 10.59,124.261 -17.66,8.27 -35.29,16.571 -52.95,24.852 -14.8,-26.773 -37.38,-23.152 -49.39,-49.703 1.1,-12.43 1.41,-4.777 7.04,-17.75 -4.71,-3.57 -9.41,-7.109 -14.12,-10.66 -8.55,-8.84 -11.73,-4.231 -21.17,-7.11 7.87,-57.449 -47.24,-84.5 -49.41,-145.558 3.53,-1.18 7.05,-2.352 10.58,-3.539 9.12,10.136 4.56,5.578 14.12,0 -2.36,-1.192 -4.71,-2.371 -7.05,-3.551 -12.64,-29.02 -58.83,-12.313 -88.25,-10.652 -16.85,97.511 -8.7,51.679 35.31,110.05 -18.28,30.68 -1.04,53.321 17.64,71.02 -3.18,6.82 -9.04,52.5 -7.06,53.25 29.36,127.881 144.53,68.973 240,120.711 0,2.36 0,4.74 0,7.09 2.36,-1.18 4.71,-2.35 7.05,-3.54 -2.33,19.49 -8.9,77.23 10.6,70.99 -0.72,16.64 9.55,18.86 7.06,28.42 42.76,1.02 45.83,6.83 70.59,-3.55 20.45,26.6 20.92,44.8 42.35,60.35 9.94,-23.65 33.21,-16.26 49.4,-14.2 83.33,-57.37 45.19,-116.71 70.61,-142.01 -12.82,-15.2 -32.94,-24.38 -42.36,-56.8 1.18,0 2.35,0 3.53,0 33.23,36.53 73.51,69.54 116.47,63.91 7.59,-1.01 13.99,-5.9 17.64,3.54 23.69,17.91 5.73,63.66 28.25,78.11 2.9,22.4 42.25,37.54 45.86,35.51 2.11,-0.99 92.12,-62.58 77.66,-17.77 9,10.95 11.16,11.65 7.06,28.4 -1.94,3.42 0.69,5.04 -7.06,3.57 8.68,35.14 21.88,53.4 10.59,95.85 13.71,5.45 24.26,9.65 38.81,3.54 5.27,-11.98 37.65,-39.48 52.95,-49.7 13.3,5.09 9.73,-2.33 17.65,10.65 12.38,16.33 -3.39,35.58 10.59,53.26 3.53,2.35 7.06,4.74 10.58,7.1 -1.18,-2.36 -2.35,-4.75 -3.52,-7.1 6.05,-1.97 8.45,-2.94 14.12,-17.75 25.27,2.24 74.65,-9.85 70.58,14.2 23.19,20.84 -35.93,145.39 -35.28,209.47 5.87,5.91 11.75,11.83 17.63,17.75"
         style="fill:#000000;fill-opacity:1;fill-rule:evenodd;stroke:none"
         id="path248" /><path
         d="m 2502.35,1519.53 c 9.36,-5.01 3.08,-1.86 0,-10.65 0,3.55 0,7.1 0,10.65"
         style="fill:#000000;fill-opacity:1;fill-rule:evenodd;stroke:none"
         id="path250" /><path
         d="m 2562.36,1508.88 c 16.66,-4.58 21.42,-9.31 35.3,-14.2 -8.25,-15.39 -16.49,-30.77 -24.71,-46.15 -1.18,2.35 -2.36,4.72 -3.55,7.09 -15.27,6.75 -3.51,46.16 -3.51,46.16 -1.19,2.36 -2.35,4.73 -3.53,7.1"
         style="fill:#000000;fill-opacity:1;fill-rule:evenodd;stroke:none"
         id="path252" /><path
         d="m 409.41,1480.48 c 1.172,-2.37 2.36,-4.75 3.524,-7.11 -1.164,2.36 -2.352,4.74 -3.524,7.11"
         style="fill:#000000;fill-opacity:1;fill-rule:evenodd;stroke:none"
         id="path254" /><path
         d="m 1228.23,1469.82 c 3.53,-1.18 7.06,-2.37 10.59,-3.53 -2.35,-2.38 -4.71,-4.77 -7.06,-7.12 -4.7,-2.36 -9.42,-4.74 -14.12,-7.11 1.18,3.56 2.36,7.11 3.54,10.65 2.34,-1.19 4.7,-2.35 7.05,-3.54 0,3.54 0,7.12 0,10.65"
         style="fill:#000000;fill-opacity:1;fill-rule:evenodd;stroke:none"
         id="path256" /><path
         d="m 2587.06,1413.02 c 2.35,-2.38 4.72,-4.74 7.06,-7.1 -2.34,2.36 -4.71,4.72 -7.06,7.1"
         style="fill:#000000;fill-opacity:1;fill-rule:evenodd;stroke:none"
         id="path258" /><path
         d="m 1905.88,1377.52 c 2.34,0 4.71,0 7.06,0 -2.35,0 -4.72,0 -7.06,0"
         style="fill:#000000;fill-opacity:1;fill-rule:evenodd;stroke:none"
         id="path260" /><path
         d="m 1902.35,1373.96 c 5.87,-1.18 11.77,-2.36 17.65,-3.55 -1.3,-23.87 6.73,-29.16 10.6,-46.14 -11.5,0.27 -28.82,-9.03 -31.77,-3.56 -11.77,5.91 -23.54,11.83 -35.29,17.75 0,3.54 0,7.11 0,10.66 17.4,2.99 28.51,1.59 35.29,10.65 1.17,4.72 2.35,9.47 3.52,14.19"
         style="fill:#000000;fill-opacity:1;fill-rule:evenodd;stroke:none"
         id="path262" /><path
         d="m 2205.89,1363.31 c 23.68,-3.61 20.25,-6.23 38.82,-17.74 -0.23,-21.85 4.49,-23.92 -7.06,-35.51 0,2.36 0,4.74 0,7.1 -16.18,0.44 -29.95,10.18 -31.76,21.3 -7.35,7.18 -4.84,3.54 -7.06,17.75 9.04,4.24 3.31,-2.21 7.06,7.1"
         style="fill:#000000;fill-opacity:1;fill-rule:evenodd;stroke:none"
         id="path264" /><path
         d="m 1923.54,1356.21 c 1.17,-2.36 2.34,-4.73 3.52,-7.09 -1.18,2.36 -2.35,4.73 -3.52,7.09"
         style="fill:#000000;fill-opacity:1;fill-rule:evenodd;stroke:none"
         id="path266" /><path
         d="m 1842.35,1210.64 c 1.18,-2.35 2.36,-4.73 3.53,-7.09 -1.17,2.36 -2.35,4.74 -3.53,7.09"
         style="fill:#000000;fill-opacity:1;fill-rule:evenodd;stroke:none"
         id="path268" /><path
         d="m 81.1758,1100.59 c 1.168,-2.36 2.3555,-4.73 3.5312,-7.1 -1.1757,2.37 -2.3632,4.74 -3.5312,7.1"
         style="fill:#000000;fill-opacity:1;fill-rule:evenodd;stroke:none"
         id="path270" /><path
         d="m 120,1097.04 c 2.348,-11.83 4.703,-23.67 7.063,-35.5 -3.54,-3.54 -7.063,-7.11 -10.598,-10.65 -4.703,1.19 -9.402,2.36 -14.117,3.54 -1.176,7.11 -2.3519,14.2 -3.5277,21.3 -14.2617,-2.92 -14.1133,3.56 -14.1133,3.56 8.7696,21.26 20.508,7.28 35.293,17.75"
         style="fill:#000000;fill-opacity:1;fill-rule:evenodd;stroke:none"
         id="path272" /><path
         d="m 49.4102,1072.2 c 4.6992,-2.39 9.414,-4.74 14.1171,-7.12 -4.7031,-1.17 -9.4179,-2.36 -14.1171,-3.54 0,3.54 0,7.09 0,10.66"
         style="fill:#000000;fill-opacity:1;fill-rule:evenodd;stroke:none"
         id="path274" /><path
         d="m 81.1758,1047.34 c 2.3555,0 4.7031,0 7.0547,0 -3.5235,-2.37 -7.0547,-4.72 -10.5899,-7.11 1.1797,2.39 2.3555,4.74 3.5352,7.11"
         style="fill:#000000;fill-opacity:1;fill-rule:evenodd;stroke:none"
         id="path276" /><path
         d="m 1637.65,1047.34 c 1.18,-2.37 2.35,-4.72 3.53,-7.11 -1.18,2.39 -2.35,4.74 -3.53,7.11"
         style="fill:#000000;fill-opacity:1;fill-rule:evenodd;stroke:none"
         id="path278" /><path
         d="m 35.293,1036.69 c 25.0898,-23.47 19.2656,-73.46 7.0547,-92.319 -3.5235,0 -7.0547,0 -10.5782,0 C 20.0742,954.469 10.4258,988.949 0,983.441 c 9.38672,8.219 3.26953,4.45 17.6406,3.528 -4.0742,13.211 -6.4101,18.691 0,24.871 5.8789,8.28 11.7696,16.56 17.6524,24.85"
         style="fill:#000000;fill-opacity:1;fill-rule:evenodd;stroke:none"
         id="path280" /><path
         d="m 49.4102,1022.48 c 1.1757,-2.35 2.3515,-4.73 3.5234,-7.1 -1.1719,2.37 -2.3477,4.75 -3.5234,7.1"
         style="fill:#000000;fill-opacity:1;fill-rule:evenodd;stroke:none"
         id="path282" /><path
         d="m 2029.41,820.121 c 2.36,0 4.71,0 7.05,0 -2.34,-3.562 -4.69,-7.109 -7.05,-10.652 0,3.543 0,7.09 0,10.652"
         style="fill:#000000;fill-opacity:1;fill-rule:evenodd;stroke:none"
         id="path284" /><path
         d="m 1457.65,816.559 c 1.18,-2.36 2.34,-4.727 3.53,-7.09 -1.19,2.363 -2.35,4.73 -3.53,7.09"
         style="fill:#000000;fill-opacity:1;fill-rule:evenodd;stroke:none"
         id="path286" /><path
         d="m 2022.35,809.469 c 3.53,-2.36 7.06,-4.731 10.6,-7.11 -3.54,2.379 -7.07,4.75 -10.6,7.11"
         style="fill:#000000;fill-opacity:1;fill-rule:evenodd;stroke:none"
         id="path288" /><path
         d="m 441.176,724.262 c 7.051,0 14.117,0 21.179,0 -1.179,-3.563 -2.359,-7.102 -3.539,-10.653 1.18,-4.73 2.36,-9.468 3.539,-14.199 -7.062,0 -14.128,0 -21.179,0 -0.254,12.809 -0.555,-0.351 -7.067,10.641 0,3.558 0,7.109 0,10.648 2.368,-1.187 4.704,-2.347 7.067,-3.539 0,2.352 0,4.731 0,7.102"
         style="fill:#000000;fill-opacity:1;fill-rule:evenodd;stroke:none"
         id="path290" /><path
         d="m 2671.76,678.109 c 4.71,-2.359 9.42,-4.738 14.13,-7.109 -4.57,-14.871 -1.94,-11.121 -14.13,-17.75 1.19,2.371 2.36,4.742 3.53,7.109 -2.34,-1.187 -4.7,-2.367 -7.05,-3.558 1.17,7.109 2.35,14.199 3.52,21.308"
         style="fill:#000000;fill-opacity:1;fill-rule:evenodd;stroke:none"
         id="path292" /><path
         d="m 1443.53,642.602 c 42.54,-3.641 48.78,-31.231 98.81,-31.961 0,-4.719 0,-9.461 0,-14.18 -2.8,-0.563 -7.07,-0.02 -3.52,-3.551 -9.42,1.172 -18.82,2.352 -28.23,3.551 1.87,-16.473 1.73,-32.902 -14.12,-46.172 -20.01,-3.547 -40.01,-7.098 -60.01,-10.629 -1.19,20.102 -19.51,31.461 -24.69,56.801 -11.52,0.027 -9.03,-3.41 -21.18,3.539 7.51,8.629 2.07,-0.359 3.52,14.211 5.88,2.348 11.77,4.73 17.66,7.09 16.16,-22.371 26.54,13.418 31.76,21.301"
         style="fill:#000000;fill-opacity:1;fill-rule:evenodd;stroke:none"
         id="path294" /><path
         d="m 1482.35,635.5 c 2.35,0 4.71,0 7.06,0 -2.35,0 -4.71,0 -7.06,0"
         style="fill:#000000;fill-opacity:1;fill-rule:evenodd;stroke:none"
         id="path296" /><path
         d="m 1334.12,617.738 c 9.39,-8.718 5.39,-4.816 7.05,-14.199 -3.53,2.383 -7.05,4.762 -10.59,7.102 1.19,2.379 2.36,4.738 3.54,7.097"
         style="fill:#000000;fill-opacity:1;fill-rule:evenodd;stroke:none"
         id="path298" /><path
         d="m 1337.64,600 c 2.36,-2.359 4.71,-4.738 7.07,-7.09 -2.36,2.352 -4.71,4.731 -7.07,7.09"
         style="fill:#000000;fill-opacity:1;fill-rule:evenodd;stroke:none"
         id="path300" /><path
         d="m 1076.46,550.289 c 2.36,0 4.72,0 7.06,0 -1.17,-3.547 -2.34,-7.098 -3.53,-10.629 -1.17,3.531 -2.35,7.082 -3.53,10.629"
         style="fill:#000000;fill-opacity:1;fill-rule:evenodd;stroke:none"
         id="path302" /><path
         d="m 1044.7,536.09 c 2.35,-2.36 4.71,-4.731 7.07,-7.102 -3.54,-9.457 -7.07,-18.949 -10.6,-28.386 -7.23,-7.454 -6.22,-5.821 -21.17,-7.102 3.53,3.539 7.06,7.102 10.59,10.641 4.7,10.66 9.41,21.289 14.11,31.949"
         style="fill:#000000;fill-opacity:1;fill-rule:evenodd;stroke:none"
         id="path304" /><path
         d="m 1122.35,525.43 c 2.35,0 4.7,0 7.06,0 -2.36,0 -4.71,0 -7.06,0"
         style="fill:#000000;fill-opacity:1;fill-rule:evenodd;stroke:none"
         id="path306" /><path
         d="m 1069.41,518.34 c -1.49,-3.301 2.83,-2.391 -3.53,-7.102 1.17,2.371 2.35,4.754 3.53,7.102"
         style="fill:#000000;fill-opacity:1;fill-rule:evenodd;stroke:none"
         id="path308" /><path
         d="m 1443.53,518.34 c 2.35,0 4.71,0 7.06,0 -2.35,-4.731 -4.71,-9.461 -7.06,-14.199 -1.18,0 -2.36,0 -3.53,0 1.17,4.738 2.35,9.468 3.53,14.199"
         style="fill:#000000;fill-opacity:1;fill-rule:evenodd;stroke:none"
         id="path310" /><path
         d="m 1062.35,511.238 c 3.14,-6.359 1.96,-13.929 0,-7.097 -1.51,-9.243 3.45,-1.942 -3.53,-10.641 1.18,5.91 2.36,11.82 3.53,17.738"
         style="fill:#000000;fill-opacity:1;fill-rule:evenodd;stroke:none"
         id="path312" /><path
         d="m 1016.46,504.141 c 2.37,0 4.71,0 7.07,0 -6.16,-3.469 -0.78,-3.231 -7.07,0"
         style="fill:#000000;fill-opacity:1;fill-rule:evenodd;stroke:none"
         id="path314" /><path
         d="m 1005.88,475.742 c 3.52,-1.191 7.06,-2.371 10.58,-3.551 -7.27,-7.859 -4.87,-6.679 -17.647,-10.652 0,1.191 0,2.363 0,3.551 2.367,1.191 4.717,2.359 7.067,3.539 0,2.371 0,4.742 0,7.113"
         style="fill:#000000;fill-opacity:1;fill-rule:evenodd;stroke:none"
         id="path316" /><path
         d="m 1394.11,475.742 c 10.9,-2.461 -0.56,-4.094 10.6,-3.551 -2.36,-3.562 -4.72,-7.101 -7.05,-10.652 -2.37,1.191 -4.73,2.363 -7.07,3.551 1.18,3.539 2.34,7.101 3.52,10.652"
         style="fill:#000000;fill-opacity:1;fill-rule:evenodd;stroke:none"
         id="path318" /><path
         d="m 1175.29,450.891 c 9.41,0 18.83,0 28.24,0 19.8,-15.719 13.31,-14.582 35.29,-24.852 4.87,4.891 48.27,13.43 52.95,14.191 0,-1.179 0,-2.359 0,-3.55 -8.24,-4.871 -10.49,-29.328 -10.59,-35.5 -11.78,-4.731 -23.54,-9.469 -35.31,-14.2 -4.7,7.11 -9.4,14.2 -14.11,21.309 -15.29,-5.93 -30.59,-11.84 -45.89,-17.758 -2.34,4.731 -4.7,9.469 -7.05,14.211 -11.76,-4.742 -23.53,-9.48 -35.29,-14.211 -2.63,14.821 -8.31,0.957 -14.12,24.86 10.24,4.55 40.92,22.328 45.88,35.5"
         style="fill:#000000;fill-opacity:1;fill-rule:evenodd;stroke:none"
         id="path320" /><path
         d="m 1383.53,450.891 c 9.34,-5 3.07,-1.871 0,-10.661 0,3.551 0,7.11 0,10.661"
         style="fill:#000000;fill-opacity:1;fill-rule:evenodd;stroke:none"
         id="path322" /><path
         d="m 1390.59,447.34 c 10.25,-8.231 8.03,-6.219 10.59,-14.211 -3.52,4.73 -7.07,9.48 -10.59,14.211"
         style="fill:#000000;fill-opacity:1;fill-rule:evenodd;stroke:none"
         id="path324" /><path
         d="m 1355.29,443.781 c 13.61,-8.301 15.29,-8.41 10.59,-17.742 -12.72,-0.258 0.35,-0.547 -10.59,-7.098 -1.17,1.18 -2.36,2.36 -3.53,3.547 1.17,1.184 2.36,2.364 3.53,3.551 0,5.91 0,11.832 0,17.742"
         style="fill:#000000;fill-opacity:1;fill-rule:evenodd;stroke:none"
         id="path326" /><path
         d="m 1320,440.23 c 2.35,-2.359 4.7,-4.718 7.06,-7.101 -8.68,-6.938 -1.43,-2 -10.59,-3.547 1.18,-2.363 2.34,-4.73 3.53,-7.094 -7.21,6.391 -2.5,0.043 -7.06,10.641 2.35,0 4.71,0 7.06,0 0,2.383 0,4.742 0,7.101"
         style="fill:#000000;fill-opacity:1;fill-rule:evenodd;stroke:none"
         id="path328" /><path
         d="m 1404.71,436.68 c 15.86,-4.129 11.78,3.07 17.63,-10.641 -2.33,1.18 -4.69,2.359 -7.05,3.543 0,-2.363 0,-4.73 0,-7.094 -2.35,2.364 -4.7,4.731 -7.06,7.094 -6.24,4.848 -4.3,-0.793 -3.52,7.098"
         style="fill:#000000;fill-opacity:1;fill-rule:evenodd;stroke:none"
         id="path330" /><path
         d="m 1334.12,418.941 c 1.17,-2.382 2.34,-4.742 3.52,-7.109 -1.18,2.367 -2.35,4.727 -3.52,7.109"
         style="fill:#000000;fill-opacity:1;fill-rule:evenodd;stroke:none"
         id="path332" /><path
         d="m 1323.53,408.289 c 2.35,0 4.71,0 7.05,0 -2.34,0 -4.7,0 -7.05,0"
         style="fill:#000000;fill-opacity:1;fill-rule:evenodd;stroke:none"
         id="path334" /><path
         d="m 2361.18,394.09 c 1.17,-2.379 2.35,-4.738 3.53,-7.11 -1.18,2.372 -2.36,4.731 -3.53,7.11"
         style="fill:#000000;fill-opacity:1;fill-rule:evenodd;stroke:none"
         id="path336" /><path
         d="m 1207.06,383.441 c 12.26,-2.359 19.87,-1.921 28.23,-14.211 0,-1.179 0,-2.359 0,-3.558 -20.98,0.226 -8.63,0.41 -28.23,-7.102 -0.48,14.559 -5.67,9.969 0,24.871"
         style="fill:#000000;fill-opacity:1;fill-rule:evenodd;stroke:none"
         id="path338" /><path
         d="m 1242.36,383.441 c 2.34,0 4.7,0 7.05,0 -2.35,0 -4.71,0 -7.05,0"
         style="fill:#000000;fill-opacity:1;fill-rule:evenodd;stroke:none"
         id="path340" /><path
         d="m 1132.94,355.039 c 3.52,0 7.05,0 10.59,0 1.17,-3.57 2.35,-7.117 3.54,-10.668 0,-1.18 0,-2.359 0,-3.531 -3.54,-1.192 -7.08,-2.379 -10.61,-3.57 -6.71,-8.711 -15.14,-9.372 -21.16,-3.551 -2.37,-1.18 -4.71,-2.348 -7.07,-3.528 8.27,15.438 13.22,9.27 28.23,14.18 -1.17,3.551 -2.34,7.098 -3.52,10.668"
         style="fill:#000000;fill-opacity:1;fill-rule:evenodd;stroke:none"
         id="path342" /><path
         d="m 1168.23,351.469 c 15.56,-13.41 13.35,-11.887 17.64,-28.387 -12.38,0.938 -30.73,0.598 -24.7,10.637 -8.81,4.23 -3.47,-2.258 -7.05,7.121 4.7,3.531 9.41,7.082 14.11,10.629"
         style="fill:#000000;fill-opacity:1;fill-rule:evenodd;stroke:none"
         id="path344" /><path
         d="m 1189.41,337.27 c 1.18,-2.36 2.35,-4.731 3.53,-7.079 -1.18,2.348 -2.35,4.719 -3.53,7.079"
         style="fill:#000000;fill-opacity:1;fill-rule:evenodd;stroke:none"
         id="path346" /><path
         d="m 1125.88,312.422 c 10.58,-9.453 21.19,-18.93 31.77,-28.402 -1.18,-2.36 -2.36,-4.731 -3.53,-7.098 -36.63,0.738 -33.31,-1.102 -38.82,-10.652 -13.45,4.222 -20.66,17.082 -17.65,24.851 -1.18,2.371 -2.36,4.738 -3.54,7.098 18.73,4.929 23.27,-2.18 31.77,14.203"
         style="fill:#000000;fill-opacity:1;fill-rule:evenodd;stroke:none"
         id="path348" /><path
         d="m 2438.84,284.02 c 7.98,-10.938 5.43,-14.231 3.52,-31.95 -5.89,3.551 -11.77,7.09 -17.65,10.66 4.7,7.079 9.41,14.192 14.13,21.29"
         style="fill:#000000;fill-opacity:1;fill-rule:evenodd;stroke:none"
         id="path350" /><path
         d="m 1087.06,276.922 c 2.34,-2.371 4.71,-4.742 7.05,-7.113 -1.17,-1.168 -2.34,-2.348 -3.53,-3.539 -3.52,1.191 -7.06,2.371 -10.59,3.539 2.36,2.371 4.71,4.742 7.07,7.113"
         style="fill:#000000;fill-opacity:1;fill-rule:evenodd;stroke:none"
         id="path352" /><path
         d="m 2414.13,266.27 c 7.5,-8.278 7.37,-6.719 10.58,-21.309 -5.88,1.187 -11.77,2.379 -17.66,3.57 2.35,5.899 4.72,11.821 7.08,17.739"
         style="fill:#000000;fill-opacity:1;fill-rule:evenodd;stroke:none"
         id="path354" /><path
         d="m 2431.76,252.07 c 2.35,0 4.71,0 7.08,0 -2.37,0 -4.73,0 -7.08,0"
         style="fill:#000000;fill-opacity:1;fill-rule:evenodd;stroke:none"
         id="path356" /><path
         d="m 942.348,241.422 c 25.394,-32.512 42.062,-44.16 70.592,-49.711 -5.75,-15.512 -0.16,-10.441 -17.651,-14.199 -1.496,9.238 3.445,1.937 -3.527,10.648 -10.285,-10.808 -15.746,-28.609 -38.824,-31.949 0,2.359 0,4.738 0,7.098 18.742,15.5 4.625,16.863 -7.059,24.851 -0.836,-15.871 3.816,-8.039 -3.531,-17.738 -26.555,8.91 -38.465,2.18 -56.469,10.629 -2.356,-7.09 -4.711,-14.192 -7.055,-21.281 9.184,-1.508 1.922,3.46 10.578,-3.559 -46.312,-1.68 -55.023,-2.992 -77.64,-21.301 -1.176,3.551 -2.352,7.11 -3.535,10.66 29.503,58.571 105.867,40.539 134.121,95.852"
         style="fill:#000000;fill-opacity:1;fill-rule:evenodd;stroke:none"
         id="path358" /><path
         d="m 981.172,216.559 c 2.351,-2.348 4.711,-4.719 7.051,-7.09 -2.34,2.371 -4.7,4.742 -7.051,7.09"
         style="fill:#000000;fill-opacity:1;fill-rule:evenodd;stroke:none"
         id="path360" /><path
         d="m 1016.46,195.27 c 3.54,0 7.07,0 10.6,0 -3.22,-12.969 0.12,-7.258 -7.06,-14.219 1.17,2.379 2.34,4.75 3.53,7.109 -2.36,2.371 -4.7,4.738 -7.07,7.11"
         style="fill:#000000;fill-opacity:1;fill-rule:evenodd;stroke:none"
         id="path362" /><path
         d="m 931.762,149.102 c 3.527,0 7.062,0 10.586,0 -2.348,-2.352 -4.711,-4.731 -7.059,-7.082 -1.18,2.351 -2.351,4.73 -3.527,7.082"
         style="fill:#000000;fill-opacity:1;fill-rule:evenodd;stroke:none"
         id="path364" /><path
         d="m 878.824,145.57 c 2.344,-1.199 4.699,-2.379 7.055,-3.55 0,-8.301 0,-16.571 0,-24.848 -13.469,-5.711 -20.113,-8.34 -21.184,-17.7736 -3.511,1.2036 -7.05,2.3906 -10.574,3.5626 2.348,2.359 4.703,4.738 7.063,7.098 5.879,11.839 11.754,23.66 17.64,35.511"
         style="fill:#000000;fill-opacity:1;fill-rule:evenodd;stroke:none"
         id="path366" /><path
         d="m 917.645,145.57 c 3.527,0 7.05,0 10.593,0 -4.703,-3.55 -9.414,-7.109 -14.129,-10.66 1.172,3.551 2.36,7.11 3.536,10.66"
         style="fill:#000000;fill-opacity:1;fill-rule:evenodd;stroke:none"
         id="path368" /><path
         d="m 928.238,142.02 c 2.348,0 4.7,0 7.051,0 -2.351,0 -4.703,0 -7.051,0"
         style="fill:#000000;fill-opacity:1;fill-rule:evenodd;stroke:none"
         id="path370" /><path
         d="m 723.52,113.602 c 3.535,-4.731 7.066,-9.473 10.589,-14.2036 -2.351,-2.3593 -4.699,-4.7265 -7.054,-7.0976 0,2.3711 0,4.7383 0,7.0976 -1.172,4.7306 -2.36,9.4726 -3.535,14.2036"
         style="fill:#000000;fill-opacity:1;fill-rule:evenodd;stroke:none"
         id="path372" /><path
         d="m 825.879,113.602 c 3.523,-4.731 7.059,-9.473 10.59,-14.2036 -3.531,0 -7.067,0 -10.59,0 -1.176,3.5626 -2.356,7.1136 -3.524,10.6606 1.168,1.191 2.348,2.363 3.524,3.543"
         style="fill:#000000;fill-opacity:1;fill-rule:evenodd;stroke:none"
         id="path374" /><path
         d="m 734.109,95.8594 c 12.524,-23.6992 5.649,-70.6485 -7.054,-81.6602 -1.172,2.3594 -2.36,4.7422 -3.535,7.1016 3.535,24.8398 7.066,49.6992 10.589,74.5586"
         style="fill:#000000;fill-opacity:1;fill-rule:evenodd;stroke:none"
         id="path376" /><path
         d="m 709.414,74.5508 c 2.344,0 4.703,0 7.055,0 -6.16,-3.4688 -0.778,-3.2422 -7.055,0"
         style="fill:#000000;fill-opacity:1;fill-rule:evenodd;stroke:none"
         id="path378" /><path
         d="M 712.93,67.4609 C 711.758,44.9688 710.59,22.4805 709.414,0 704.703,0 700,0 695.289,0 c -3.527,21.3008 -7.051,42.6094 -10.586,63.9102 2.348,-1.1914 4.711,-2.3789 7.059,-3.5704 1.176,-7.0781 2.355,-14.1992 3.527,-21.2812 3.527,0 7.055,0 10.59,0 2.351,9.4727 4.711,18.9336 7.051,28.4023"
         style="fill:#000000;fill-opacity:1;fill-rule:evenodd;stroke:none"
         id="path380" /></g></g></svg>
