<svg width="378" height="444" viewBox="0 0 378 444" fill="none" xmlns="http://www.w3.org/2000/svg">
<path d="M258.361 263.909L251.971 292.775L220.8 433.588C219.545 439.262 216.255 443.039 212.565 443.039H54.6707C51.2867 443.039 48.9325 437.543 50.0836 432.337L80.9767 292.775L87.6407 262.662C88.8959 256.989 92.1863 253.211 95.8754 253.211H253.774C257.158 253.194 259.512 258.69 258.361 263.909Z" fill="#3257FB"/>
<path d="M258.361 263.909L251.971 292.775H80.9803L87.6443 262.662C88.8994 256.989 92.1898 253.211 95.879 253.211H253.774C257.158 253.194 259.512 258.69 258.361 263.909Z" fill="#0A0627"/>
<path d="M91.7063 263.909L98.0964 292.775L129.267 433.588C130.522 439.261 133.812 443.039 137.502 443.039H295.393C298.777 443.039 301.131 437.543 299.98 432.337L269.083 292.757L262.419 262.644C261.164 256.971 257.874 253.193 254.185 253.193H96.29C92.9094 253.193 90.5552 258.69 91.7063 263.909Z" fill="white"/>
<path d="M137.499 443.999H295.394C296.781 443.999 298.064 443.306 299.104 442.021C300.993 439.667 301.728 435.685 300.938 432.109L270.045 292.546L263.381 262.433C262.029 256.32 258.336 252.213 254.189 252.213H96.2946C94.9077 252.213 93.6248 252.906 92.5846 254.192C90.6949 256.545 89.9599 260.527 90.7504 264.104L128.314 433.783C129.66 439.893 133.352 443.999 137.499 443.999ZM254.175 254.174C257.379 254.174 260.302 257.664 261.456 262.859L268.121 292.973L299.014 432.535C299.672 435.515 299.08 438.912 297.564 440.797C297.107 441.366 296.358 442.045 295.383 442.045H137.499C134.295 442.045 131.373 438.555 130.218 433.363L92.6609 263.688C92.0021 260.707 92.595 257.311 94.1102 255.426C94.5678 254.857 95.3168 254.178 96.2911 254.178H254.175V254.174Z" fill="#262424"/>
<path d="M91.707 263.909L98.0971 292.775H269.084L262.42 262.662C261.165 256.989 257.874 253.211 254.185 253.211H96.2907C92.9101 253.194 90.5559 258.69 91.707 263.909Z" fill="#0A0627"/>
<path d="M98.0976 293.738H269.084C269.231 293.738 269.376 293.705 269.508 293.642C269.64 293.578 269.757 293.486 269.849 293.371C269.94 293.257 270.005 293.124 270.039 292.981C270.072 292.838 270.073 292.689 270.041 292.546L263.377 262.433C262.025 256.32 258.333 252.213 254.186 252.213H96.2912C94.9043 252.213 93.6214 252.906 92.5812 254.192C90.6915 256.545 89.9565 260.527 90.7471 264.104L97.1371 292.969C97.1854 293.188 97.307 293.383 97.4817 293.523C97.6564 293.663 97.8737 293.739 98.0976 293.738ZM267.867 291.78H98.8846L92.6644 263.684C92.0057 260.704 92.5985 257.307 94.1137 255.422C94.5714 254.854 95.3203 254.174 96.2946 254.174H254.175C257.379 254.174 260.302 257.664 261.457 262.859L267.867 291.78Z" fill="#0A0627"/>
<path d="M99.3755 299.686C99.5222 299.686 99.667 299.653 99.7992 299.59C99.9314 299.526 100.048 299.434 100.14 299.319C100.231 299.205 100.296 299.071 100.33 298.929C100.363 298.786 100.364 298.637 100.332 298.494L92.6595 263.681C92.5931 263.439 92.4358 263.23 92.2202 263.1C92.0045 262.97 91.7471 262.928 91.5011 262.982C91.2551 263.036 91.0395 263.183 90.8988 263.392C90.7582 263.601 90.7033 263.856 90.7455 264.104L98.422 298.913C98.4693 299.132 98.5895 299.327 98.7629 299.467C98.9362 299.608 99.1523 299.685 99.3755 299.686Z" fill="#262424"/>
<path d="M186.594 427.489C186.741 427.489 186.886 427.456 187.018 427.393C187.15 427.329 187.267 427.237 187.358 427.122C187.45 427.008 187.515 426.875 187.549 426.732C187.582 426.589 187.583 426.44 187.551 426.297L159.591 299.953C159.569 299.822 159.52 299.697 159.448 299.585C159.376 299.474 159.282 299.378 159.172 299.304C159.062 299.23 158.937 299.179 158.807 299.154C158.676 299.129 158.542 299.131 158.412 299.16C158.282 299.188 158.16 299.243 158.052 299.321C157.944 299.398 157.853 299.497 157.784 299.61C157.715 299.724 157.67 299.851 157.652 299.982C157.634 300.114 157.642 300.248 157.677 300.376L185.641 426.703C185.685 426.923 185.804 427.122 185.978 427.265C186.151 427.408 186.369 427.488 186.594 427.489Z" fill="#262424"/>
<path d="M245.288 427.489C245.434 427.489 245.579 427.456 245.711 427.393C245.844 427.329 245.96 427.237 246.052 427.122C246.143 427.008 246.208 426.875 246.242 426.732C246.275 426.589 246.276 426.44 246.245 426.297L218.281 299.953C218.259 299.822 218.21 299.697 218.138 299.585C218.066 299.474 217.972 299.378 217.862 299.304C217.751 299.23 217.627 299.179 217.497 299.154C217.366 299.129 217.232 299.131 217.102 299.16C216.972 299.188 216.85 299.243 216.742 299.321C216.634 299.398 216.543 299.497 216.474 299.61C216.405 299.724 216.36 299.851 216.342 299.982C216.324 300.114 216.332 300.248 216.367 300.376L244.331 426.703C244.375 426.924 244.495 427.123 244.669 427.266C244.843 427.409 245.062 427.488 245.288 427.489Z" fill="#262424"/>
<path d="M120.715 342.272H267.351C267.485 342.28 267.618 342.261 267.744 342.215C267.87 342.17 267.985 342.099 268.082 342.007C268.18 341.915 268.257 341.805 268.31 341.682C268.363 341.559 268.391 341.427 268.391 341.293C268.391 341.16 268.363 341.027 268.31 340.905C268.257 340.782 268.18 340.671 268.082 340.579C267.985 340.488 267.87 340.417 267.744 340.371C267.618 340.326 267.485 340.306 267.351 340.314H120.704C120.571 340.307 120.437 340.327 120.312 340.373C120.186 340.42 120.071 340.491 119.975 340.583C119.878 340.676 119.801 340.787 119.748 340.91C119.696 341.033 119.669 341.165 119.67 341.299C119.671 341.432 119.699 341.565 119.753 341.687C119.806 341.809 119.884 341.92 119.982 342.011C120.08 342.102 120.195 342.172 120.321 342.217C120.447 342.262 120.581 342.281 120.715 342.272Z" fill="#262424"/>
<path d="M132.093 391.675H278.74C278.873 391.683 279.007 391.663 279.133 391.618C279.259 391.572 279.374 391.501 279.471 391.409C279.568 391.318 279.646 391.207 279.699 391.084C279.752 390.962 279.779 390.829 279.779 390.696C279.779 390.562 279.752 390.43 279.699 390.307C279.646 390.184 279.568 390.073 279.471 389.982C279.374 389.89 279.259 389.819 279.133 389.774C279.007 389.728 278.873 389.709 278.74 389.717H132.093C131.959 389.709 131.826 389.728 131.7 389.774C131.574 389.819 131.459 389.89 131.362 389.982C131.264 390.073 131.187 390.184 131.134 390.307C131.081 390.43 131.053 390.562 131.053 390.696C131.053 390.829 131.081 390.962 131.134 391.084C131.187 391.207 131.264 391.318 131.362 391.409C131.459 391.501 131.574 391.572 131.7 391.618C131.826 391.663 131.959 391.683 132.093 391.675Z" fill="#262424"/>
<path d="M31.9562 169.374L42.2331 167.68C44.3403 162.799 48.2337 158.907 53.1168 156.801L54.8088 146.525C54.8803 146.095 55.1021 145.704 55.4348 145.423C55.7676 145.141 56.1895 144.986 56.6256 144.986H66.0323C66.4684 144.986 66.8903 145.141 67.2231 145.423C67.5558 145.704 67.7776 146.095 67.8491 146.525L69.5446 156.801C74.4268 158.906 78.32 162.797 80.4282 167.676L90.7051 169.371C91.136 169.441 91.5277 169.663 91.8103 169.996C92.0929 170.328 92.2481 170.75 92.248 171.187V180.589C92.2481 181.026 92.0929 181.448 91.8103 181.78C91.5277 182.113 91.136 182.334 90.7051 182.405L80.4248 184.1C78.3168 188.978 74.4251 192.868 69.5446 194.975L67.8491 205.251C67.7776 205.681 67.5558 206.072 67.2231 206.353C66.8903 206.635 66.4684 206.79 66.0323 206.79H56.6256C56.1895 206.79 55.7676 206.635 55.4348 206.353C55.1021 206.072 54.8803 205.681 54.8088 205.251L53.1133 194.979C48.2317 192.871 44.3398 188.98 42.2331 184.1L31.9528 182.405C31.5219 182.334 31.1302 182.113 30.8476 181.78C30.565 181.448 30.4098 181.026 30.4098 180.589V171.19C30.41 170.753 30.5656 170.331 30.8489 169.998C31.1322 169.665 31.5247 169.444 31.9562 169.374ZM61.3307 182.291C62.5978 182.291 63.8365 181.915 64.8901 181.212C65.9438 180.508 66.765 179.508 67.2501 178.338C67.7351 177.168 67.8622 175.88 67.6153 174.638C67.3683 173.396 66.7584 172.255 65.8627 171.359C64.9669 170.463 63.8255 169.853 62.5828 169.605C61.3401 169.358 60.0519 169.484 58.8811 169.968C57.7102 170.452 56.7093 171.273 56.0048 172.326C55.3003 173.378 54.9239 174.616 54.9232 175.883C54.9228 176.724 55.0882 177.557 55.41 178.335C55.7318 179.112 56.2037 179.819 56.7987 180.414C57.3937 181.009 58.1002 181.481 58.8779 181.803C59.6555 182.125 60.489 182.291 61.3307 182.291Z" fill="#0A0627"/>
<path d="M62.5056 82.0083L77.8759 81.0864C78.7387 78.0599 79.9487 75.1432 81.4818 72.3945L71.2639 60.8746C70.7717 60.3188 70.5102 59.5963 70.5328 58.8544C70.5553 58.1125 70.8602 57.4071 71.3852 56.8822L81.9083 46.3639C82.4335 45.8391 83.1391 45.5344 83.8814 45.5118C84.6236 45.4893 85.3465 45.7506 85.9026 46.2426L97.4277 56.4559C100.178 54.9234 103.096 53.7139 106.124 52.8516L107.046 37.4918C107.091 36.751 107.417 36.0553 107.957 35.5465C108.498 35.0378 109.212 34.7543 109.955 34.7539H124.847C125.589 34.7543 126.303 35.0378 126.844 35.5465C127.385 36.0553 127.711 36.751 127.756 37.4918L128.661 52.8516C131.689 53.7151 134.607 54.9257 137.356 56.4594L148.882 46.2461C149.438 45.7541 150.16 45.4927 150.903 45.5153C151.645 45.5378 152.351 45.8426 152.876 46.3674L163.399 56.8857C163.924 57.4106 164.229 58.1159 164.251 58.8578C164.274 59.5997 164.012 60.3223 163.52 60.8781L153.302 72.398C154.837 75.1465 156.048 78.0632 156.912 81.0899L172.278 82.0117C173.02 82.0568 173.716 82.3826 174.225 82.9229C174.734 83.4633 175.017 84.1773 175.018 84.9194V99.7941C175.017 100.536 174.734 101.25 174.225 101.791C173.716 102.331 173.02 102.657 172.278 102.702L156.912 103.624C156.048 106.652 154.837 109.569 153.302 112.319L163.52 123.839C164.012 124.395 164.274 125.117 164.251 125.859C164.229 126.601 163.924 127.306 163.399 127.831L152.876 138.35C152.351 138.874 151.645 139.179 150.903 139.202C150.16 139.224 149.438 138.963 148.882 138.471L137.36 128.258C134.609 129.793 131.69 131.004 128.661 131.869L127.738 147.229C127.693 147.969 127.367 148.665 126.827 149.174C126.286 149.683 125.572 149.966 124.829 149.967H109.948C109.205 149.966 108.491 149.683 107.951 149.174C107.41 148.665 107.084 147.969 107.039 147.229L106.124 131.869C103.094 131.006 100.175 129.795 97.4242 128.261L85.9026 138.454C85.3465 138.946 84.6236 139.207 83.8814 139.184C83.1391 139.162 82.4335 138.857 81.9083 138.332L71.3852 127.814C70.8602 127.289 70.5553 126.584 70.5328 125.842C70.5102 125.1 70.7717 124.377 71.2639 123.822L81.4818 112.302C79.9487 109.553 78.7387 106.636 77.8759 103.61L62.5056 102.688C61.7645 102.643 61.0685 102.317 60.5595 101.777C60.0505 101.236 59.7669 100.522 59.7665 99.7802V84.916C59.7669 84.1738 60.0505 83.4598 60.5595 82.9195C61.0685 82.3792 61.7645 82.0533 62.5056 82.0083ZM117.399 107.481C120.393 107.482 123.319 106.595 125.809 104.933C128.298 103.271 130.239 100.908 131.385 98.1432C132.53 95.3786 132.83 92.3365 132.246 89.4016C131.662 86.4667 130.22 83.7709 128.103 81.6552C125.986 79.5395 123.288 78.0989 120.352 77.5157C117.416 76.9325 114.372 77.2329 111.607 78.3788C108.841 79.5248 106.478 81.4648 104.815 83.9535C103.153 86.4422 102.267 89.3678 102.268 92.3602C102.27 96.3702 103.865 100.215 106.702 103.05C109.54 105.885 113.387 107.477 117.399 107.477V107.481Z" fill="#3257FB"/>
<path d="M160.694 217.965C146.361 217.965 134.742 206.351 134.742 192.025C134.742 177.698 146.361 166.084 160.694 166.084C175.027 166.084 186.646 177.698 186.646 192.025C186.646 206.351 175.027 217.965 160.694 217.965Z" fill="#3257FB"/>
<path d="M190.441 164.488L188.532 162.579C187.516 161.564 186.138 160.994 184.702 160.994C183.266 160.994 181.888 161.564 180.872 162.579L178.06 165.39C177.645 165.805 177.411 166.368 177.411 166.956C177.411 167.543 177.645 168.106 178.06 168.522L184.498 174.957C184.914 175.372 185.478 175.606 186.065 175.606C186.653 175.606 187.216 175.372 187.632 174.957L190.444 172.146C190.947 171.643 191.346 171.046 191.618 170.389C191.89 169.732 192.03 169.028 192.03 168.317C192.03 167.605 191.889 166.901 191.617 166.244C191.344 165.587 190.945 164.991 190.441 164.488Z" fill="#0A0627"/>
<path d="M136.887 174.956L143.338 168.509C143.753 168.093 143.987 167.53 143.987 166.943C143.987 166.355 143.753 165.792 143.338 165.377L140.526 162.566C139.51 161.551 138.133 160.98 136.696 160.98C135.26 160.98 133.882 161.551 132.867 162.566L130.957 164.475C129.941 165.49 129.37 166.867 129.37 168.303C129.37 169.738 129.941 171.115 130.957 172.131L133.771 174.944C134.187 175.359 134.75 175.592 135.338 175.592C135.925 175.592 136.489 175.359 136.905 174.944L136.887 174.956Z" fill="#0A0627"/>
<path d="M160.695 208.367C151.666 208.367 144.347 201.051 144.347 192.026C144.347 183.001 151.666 175.686 160.695 175.686C169.724 175.686 177.043 183.001 177.043 192.026C177.043 201.051 169.724 208.367 160.695 208.367Z" fill="white"/>
<path d="M160.695 209.232C164.1 209.232 167.428 208.223 170.259 206.333C173.09 204.442 175.297 201.754 176.6 198.61C177.903 195.466 178.244 192.006 177.579 188.668C176.915 185.331 175.276 182.265 172.868 179.858C170.46 177.452 167.393 175.813 164.054 175.149C160.714 174.485 157.253 174.826 154.107 176.128C150.962 177.431 148.273 179.636 146.382 182.466C144.49 185.295 143.48 188.622 143.48 192.025C143.485 196.588 145.3 200.962 148.528 204.188C151.755 207.413 156.131 209.228 160.695 209.232ZM160.695 176.551C163.757 176.551 166.75 177.459 169.296 179.159C171.842 180.859 173.826 183.276 174.998 186.104C176.17 188.931 176.476 192.043 175.879 195.044C175.282 198.046 173.807 200.803 171.642 202.967C169.477 205.131 166.719 206.605 163.716 207.202C160.712 207.799 157.6 207.493 154.771 206.322C151.942 205.15 149.524 203.167 147.823 200.622C146.122 198.078 145.214 195.086 145.214 192.025C145.219 187.923 146.851 183.99 149.753 181.089C152.656 178.188 156.591 176.556 160.695 176.551Z" fill="#262424"/>
<path d="M158.456 192.024C158.456 192.618 158.692 193.188 159.112 193.607C159.532 194.027 160.102 194.263 160.696 194.263C161.29 194.263 161.859 194.027 162.279 193.607C162.7 193.188 162.936 192.618 162.936 192.024C162.936 191.867 162.919 191.71 162.884 191.556L160.696 179.326L158.508 191.556C158.473 191.71 158.455 191.867 158.456 192.024Z" fill="#0A0627"/>
<path d="M162.292 190.438C161.868 190.043 161.306 189.828 160.726 189.838C160.146 189.849 159.593 190.084 159.182 190.494C158.772 190.904 158.537 191.457 158.527 192.037C158.516 192.617 158.732 193.178 159.127 193.602C159.238 193.714 159.361 193.813 159.494 193.897L169.678 201.005L162.573 190.809C162.494 190.675 162.4 190.551 162.292 190.438Z" fill="#0A0627"/>
<path d="M295.141 349.064L279.354 383.496L291.268 388.518L310.629 358.443L295.141 349.064Z" fill="white"/>
<path d="M291.274 389.498C291.438 389.498 291.6 389.457 291.744 389.378C291.888 389.3 292.01 389.186 292.099 389.048L311.453 358.973C311.524 358.863 311.572 358.739 311.595 358.61C311.617 358.481 311.614 358.349 311.584 358.222C311.555 358.094 311.5 357.974 311.424 357.868C311.347 357.761 311.25 357.672 311.138 357.604L295.65 348.226C295.532 348.156 295.401 348.112 295.265 348.096C295.129 348.081 294.992 348.093 294.861 348.134C294.73 348.174 294.61 348.242 294.507 348.331C294.404 348.421 294.321 348.532 294.263 348.655L278.476 383.087C278.422 383.206 278.392 383.335 278.388 383.466C278.384 383.597 278.407 383.727 278.455 383.849C278.502 383.971 278.574 384.083 278.665 384.177C278.756 384.271 278.865 384.346 278.986 384.397L290.899 389.419C291.018 389.47 291.145 389.497 291.274 389.498ZM309.265 358.758L290.889 387.294L280.668 382.983L295.577 350.471L309.265 358.758Z" fill="#262424"/>
<path d="M292.772 437.917L289.478 441.296L247.933 400.844C247.933 400.844 249.487 399.25 252.07 396.873C258.248 391.186 270.328 381.003 281.129 377.42L296.475 392.35C296.475 392.35 288.847 408.292 295.088 428.046C295.573 429.583 295.676 431.214 295.386 432.799C295.097 434.384 294.424 435.875 293.427 437.14C293.222 437.41 293.003 437.669 292.772 437.917Z" fill="#0A0627"/>
<path d="M292.772 437.917L289.478 441.296L247.934 400.845C247.934 400.845 249.487 399.25 252.07 396.873L293.441 437.155C293.231 437.42 293.008 437.674 292.772 437.917Z" fill="white"/>
<path d="M289.478 442.277C289.607 442.276 289.735 442.25 289.854 442.199C289.973 442.148 290.081 442.075 290.171 441.983L293.465 438.604C293.724 438.338 293.969 438.059 294.2 437.768C294.351 437.578 294.426 437.339 294.41 437.097C294.395 436.855 294.29 436.628 294.117 436.458L252.76 396.177C252.58 396.001 252.34 395.902 252.089 395.899C251.838 395.895 251.595 395.989 251.411 396.16C248.838 398.527 247.302 400.103 247.25 400.169C247.069 400.356 246.969 400.606 246.972 400.866C246.975 401.126 247.081 401.374 247.268 401.556L288.795 441.996C288.977 442.175 289.222 442.276 289.478 442.277ZM292.071 437.235L289.46 439.914L249.341 400.838C249.927 400.259 250.86 399.351 252.066 398.229L292.092 437.193L292.071 437.214V437.235Z" fill="#262424"/>
<path d="M244.491 253.552C248.925 259.71 300.601 295.919 311.062 303.218L295.196 343.801L314.307 363.337C314.307 363.337 333.165 332.42 345.301 312.298C346.376 310.52 347.381 308.832 348.345 307.245C350.415 303.8 351.307 299.776 350.887 295.779C350.466 291.783 348.756 288.032 346.015 285.093C344.455 283.422 342.756 281.603 340.946 279.69C324.158 261.848 298.621 235.329 298.621 235.329L294.936 214.005C293.147 203.701 286.25 194.892 276.514 191.076C272.566 189.509 268.325 188.819 264.084 189.052C245.462 190.092 243.78 204.079 243.78 204.079C243.78 204.079 239.55 246.697 244.491 253.552Z" fill="#3257FB"/>
<path d="M305.052 347.023C305.24 347.023 305.423 346.969 305.581 346.868C305.739 346.767 305.865 346.622 305.943 346.452L326.532 301.779C326.613 301.602 326.64 301.404 326.608 301.212C326.577 301.019 326.488 300.84 326.355 300.698L267.939 238.801C267.852 238.7 267.746 238.617 267.627 238.557C267.508 238.498 267.378 238.464 267.245 238.457C267.112 238.449 266.979 238.469 266.853 238.515C266.728 238.561 266.614 238.631 266.517 238.723C266.42 238.814 266.343 238.924 266.29 239.046C266.237 239.169 266.21 239.3 266.209 239.434C266.209 239.567 266.236 239.698 266.288 239.821C266.34 239.943 266.417 240.054 266.514 240.146L324.475 301.561L304.164 345.634C304.096 345.783 304.066 345.947 304.077 346.11C304.089 346.274 304.141 346.432 304.229 346.57C304.317 346.709 304.439 346.823 304.583 346.902C304.727 346.981 304.888 347.023 305.052 347.023Z" fill="#262424"/>
<path d="M312.077 303.657H312.188L331.705 301.477C331.956 301.439 332.181 301.305 332.335 301.104C332.489 300.903 332.559 300.65 332.531 300.399C332.503 300.147 332.378 299.916 332.184 299.754C331.989 299.592 331.739 299.512 331.487 299.53L311.97 301.71C311.73 301.748 311.514 301.874 311.362 302.063C311.21 302.252 311.134 302.49 311.147 302.732C311.16 302.974 311.263 303.202 311.434 303.373C311.606 303.544 311.835 303.645 312.077 303.657Z" fill="#262424"/>
<path d="M334.819 294.474C334.819 302.445 339.132 309.276 345.311 312.298C346.385 310.52 347.391 308.832 348.355 307.245C350.425 303.8 351.317 299.776 350.897 295.779C350.476 291.783 348.766 288.032 346.025 285.092C344.465 283.422 342.766 281.603 340.956 279.689C337.201 283.263 334.819 288.558 334.819 294.474Z" fill="white"/>
<path d="M321.519 352.978L301.478 333.459C301.065 333.054 300.565 332.748 300.016 332.565C299.467 332.382 298.883 332.328 298.31 332.405C297.736 332.483 297.188 332.691 296.707 333.013C296.226 333.335 295.825 333.763 295.535 334.263L286.798 349.54C286.38 350.27 286.217 351.117 286.333 351.95C286.45 352.782 286.84 353.552 287.443 354.139L306.149 372.386C306.539 372.767 307.008 373.059 307.522 373.243C308.036 373.426 308.583 373.497 309.127 373.449C309.671 373.402 310.198 373.238 310.672 372.968C311.147 372.698 311.558 372.33 311.876 371.887L321.931 357.91C322.465 357.175 322.717 356.272 322.641 355.367C322.565 354.462 322.167 353.614 321.519 352.978Z" fill="#0A0627"/>
<path d="M265.648 235.596C265.839 235.597 266.026 235.542 266.185 235.437L271.285 232.096C272.349 231.403 273.199 230.428 273.741 229.28C274.283 228.132 274.495 226.856 274.354 225.595L272.17 205.563C272.13 205.314 271.996 205.091 271.796 204.938C271.596 204.785 271.345 204.715 271.095 204.742C270.844 204.769 270.614 204.892 270.451 205.084C270.289 205.276 270.206 205.523 270.221 205.774L272.405 225.806C272.506 226.708 272.354 227.62 271.966 228.44C271.579 229.261 270.971 229.958 270.211 230.453L265.11 233.794C264.933 233.91 264.798 234.079 264.725 234.278C264.653 234.476 264.646 234.693 264.706 234.896C264.767 235.098 264.891 235.276 265.061 235.402C265.23 235.529 265.436 235.597 265.648 235.596Z" fill="#262424"/>
<path d="M304.766 374.268L317.501 409.94L329.539 405.226L322.407 370.182L304.766 374.268Z" fill="white"/>
<path d="M317.502 410.92C317.62 410.919 317.738 410.897 317.848 410.854L329.887 406.141C330.102 406.057 330.28 405.899 330.391 405.697C330.501 405.494 330.536 405.258 330.49 405.032L323.358 369.987C323.332 369.859 323.28 369.737 323.206 369.629C323.132 369.521 323.037 369.429 322.927 369.359C322.817 369.288 322.693 369.24 322.564 369.218C322.435 369.195 322.303 369.199 322.176 369.228L304.534 373.318C304.4 373.35 304.274 373.41 304.165 373.494C304.056 373.578 303.966 373.685 303.9 373.806C303.835 373.927 303.796 374.061 303.785 374.198C303.775 374.336 303.794 374.474 303.841 374.604L316.586 410.269C316.654 410.458 316.778 410.622 316.941 410.738C317.105 410.855 317.301 410.918 317.502 410.92ZM328.413 404.616L318.081 408.661L306.056 374.978L321.659 371.367L328.413 404.616Z" fill="#262424"/>
<path d="M364.779 437.997V443.023H303.062C303.062 443.023 303.062 440.652 303.263 436.923C303.749 427.999 305.389 411.277 310.96 400.506H333.74C333.74 400.506 339.787 418.337 359.238 428.755C360.751 429.565 362.043 430.733 363.001 432.157C363.959 433.581 364.554 435.217 364.734 436.923C364.767 437.28 364.782 437.639 364.779 437.997Z" fill="#0A0627"/>
<path d="M364.779 437.998V443.023H303.062C303.062 443.023 303.062 440.653 303.263 436.924H364.734C364.767 437.281 364.782 437.64 364.779 437.998Z" fill="white"/>
<path d="M303.064 444.001H364.78C365.041 444.001 365.29 443.897 365.474 443.713C365.658 443.529 365.762 443.28 365.762 443.02V437.995C365.761 437.602 365.74 437.21 365.699 436.82C365.674 436.579 365.561 436.355 365.381 436.193C365.201 436.03 364.968 435.94 364.725 435.939H303.254C303.004 435.94 302.763 436.036 302.582 436.208C302.4 436.38 302.291 436.615 302.277 436.865C302.075 440.58 302.075 442.919 302.075 443.02C302.075 443.149 302.101 443.277 302.151 443.397C302.201 443.516 302.273 443.625 302.365 443.716C302.457 443.807 302.566 443.879 302.686 443.928C302.806 443.977 302.934 444.001 303.064 444.001ZM363.813 442.046H304.045C304.045 441.166 304.097 439.731 304.187 437.887H363.824C363.824 437.918 363.824 437.953 363.824 437.984V442.046H363.813Z" fill="#262424"/>
<path d="M217.64 202.481C217.64 202.481 220.826 188.761 239.452 189.742C243.691 189.962 247.832 191.101 251.587 193.079C260.852 197.931 266.753 207.43 267.415 217.865L268.778 239.474L303.541 285.321L307.826 290.974C311.214 295.445 313.447 300.683 314.327 306.223L316.754 317.427L328.449 371.124L301.12 370.469L275.463 309.796C275.463 309.796 217.147 259.058 212.983 251.725C208.819 244.392 217.64 202.481 217.64 202.481Z" fill="#3257FB"/>
<path d="M300.874 282.787C301.057 282.786 301.235 282.735 301.39 282.639C301.545 282.543 301.67 282.405 301.751 282.241C301.833 282.078 301.866 281.895 301.849 281.714C301.832 281.532 301.764 281.359 301.654 281.213L269.756 239.119L268.389 217.816C268.388 217.683 268.36 217.551 268.306 217.429C268.252 217.307 268.174 217.197 268.076 217.106C267.979 217.016 267.864 216.946 267.738 216.901C267.612 216.856 267.479 216.837 267.346 216.846C267.213 216.854 267.083 216.89 266.964 216.95C266.845 217.011 266.739 217.095 266.654 217.197C266.569 217.3 266.505 217.418 266.467 217.546C266.429 217.674 266.418 217.808 266.434 217.941L267.797 239.549C267.809 239.741 267.878 239.926 267.994 240.079L300.094 282.399C300.185 282.519 300.303 282.617 300.438 282.684C300.574 282.752 300.723 282.787 300.874 282.787Z" fill="#262424"/>
<path d="M328.46 372.095C328.607 372.094 328.751 372.061 328.883 371.998C329.015 371.935 329.131 371.843 329.223 371.729C329.314 371.615 329.38 371.482 329.413 371.339C329.447 371.197 329.448 371.049 329.417 370.906L318.322 319.909C318.297 319.78 318.247 319.659 318.174 319.55C318.101 319.442 318.008 319.349 317.899 319.277C317.789 319.205 317.667 319.156 317.539 319.132C317.41 319.108 317.278 319.11 317.151 319.138C317.023 319.165 316.902 319.218 316.795 319.293C316.688 319.368 316.598 319.464 316.528 319.574C316.459 319.685 316.412 319.808 316.391 319.937C316.369 320.066 316.374 320.198 316.405 320.324L327.247 370.102L301.166 369.475H301.142C300.892 369.486 300.655 369.593 300.481 369.773C300.307 369.952 300.209 370.192 300.206 370.442C300.202 370.692 300.295 370.934 300.465 371.119C300.634 371.303 300.868 371.415 301.118 371.433L328.446 372.088H328.471L328.46 372.095Z" fill="#262424"/>
<path d="M306.61 363.683C306.763 363.683 306.914 363.647 307.051 363.578C307.188 363.509 307.307 363.409 307.398 363.286C307.49 363.164 307.551 363.021 307.577 362.87C307.604 362.719 307.594 362.564 307.55 362.418L289.888 304.354C289.848 304.227 289.783 304.109 289.697 304.007L237.238 242.533L236.267 204.907C236.247 204.656 236.131 204.423 235.945 204.255C235.758 204.087 235.514 203.998 235.263 204.004C235.011 204.011 234.772 204.114 234.595 204.291C234.417 204.469 234.314 204.708 234.308 204.959L235.289 242.932C235.295 243.156 235.378 243.372 235.525 243.542L288.085 305.12L305.67 362.996C305.733 363.196 305.858 363.37 306.028 363.494C306.197 363.617 306.401 363.683 306.61 363.683Z" fill="#262424"/>
<path d="M303.542 285.32L307.828 290.973C311.216 295.444 313.449 300.682 314.329 306.222L316.756 317.426C310.432 317.177 304.1 312.741 300.963 305.678C297.669 298.22 298.903 290.103 303.542 285.32Z" fill="white"/>
<path d="M326.377 358.658H298.396C297.817 358.658 297.246 358.791 296.726 359.046C296.206 359.301 295.751 359.671 295.397 360.129C295.042 360.586 294.798 361.119 294.681 361.686C294.564 362.253 294.579 362.839 294.724 363.399L299.134 380.433C299.345 381.246 299.82 381.967 300.484 382.481C301.149 382.996 301.966 383.275 302.806 383.275H328.921C329.467 383.275 330.006 383.157 330.502 382.93C330.998 382.703 331.439 382.371 331.796 381.958C332.152 381.545 332.414 381.06 332.566 380.536C332.717 380.012 332.754 379.461 332.673 378.922L330.128 361.888C329.994 360.99 329.541 360.17 328.852 359.577C328.164 358.984 327.285 358.658 326.377 358.658Z" fill="#0A0627"/>
<path d="M236.07 236.184C236.224 236.184 236.376 236.148 236.513 236.077L241.947 233.305C243.08 232.731 244.031 231.854 244.695 230.772C245.359 229.689 245.708 228.443 245.705 227.174V207.014C245.705 206.754 245.602 206.504 245.418 206.32C245.234 206.137 244.984 206.033 244.724 206.033C244.464 206.033 244.214 206.137 244.03 206.32C243.846 206.504 243.743 206.754 243.743 207.014V227.174C243.745 228.082 243.495 228.972 243.02 229.746C242.546 230.52 241.866 231.148 241.055 231.558L235.622 234.33C235.426 234.431 235.269 234.594 235.177 234.794C235.085 234.994 235.063 235.219 235.115 235.434C235.167 235.648 235.289 235.838 235.462 235.974C235.635 236.111 235.849 236.185 236.07 236.184Z" fill="#262424"/>
<path d="M308.85 157.434C308.85 157.434 315.132 192.517 314.574 195.906C313.805 200.571 311.755 206.996 310.857 209.547C310.857 209.547 311.676 216.897 309.876 219.673C308.077 222.449 302.685 223.593 299.093 223.593C295.501 223.593 295.172 218.048 295.172 218.048C295.172 218.048 294.437 223.264 291.985 223.264C289.534 223.264 288.962 211.106 290.557 207.433C292.152 203.759 296.052 205.145 296.052 205.145L296.194 191.952L289.378 162.653L308.85 157.434Z" fill="white"/>
<path d="M299.093 224.575C302.131 224.575 308.455 223.663 310.702 220.208C312.508 217.415 312.002 211.111 311.856 209.666C312.685 207.295 314.758 200.828 315.542 196.066C316.111 192.601 310.459 160.869 309.814 157.251C309.79 157.119 309.739 156.993 309.665 156.882C309.59 156.77 309.494 156.675 309.381 156.602C309.268 156.529 309.141 156.48 309.009 156.459C308.877 156.437 308.741 156.442 308.611 156.475L289.139 161.69C288.895 161.758 288.686 161.917 288.557 162.135C288.428 162.353 288.388 162.612 288.445 162.858L295.234 192.043L295.089 203.93C293.303 203.736 290.876 204.242 289.662 207.049C288.224 210.366 288.341 220.236 290.273 223.178C290.855 224.065 291.528 224.249 292.006 224.249C293.497 224.249 294.482 223.074 295.127 221.754C295.838 223.293 297.089 224.575 299.093 224.575ZM308.07 158.654C310.57 172.701 313.985 193.446 313.618 195.737C312.831 200.506 310.698 207.08 309.942 209.212C309.892 209.351 309.874 209.501 309.89 209.648C310.105 211.596 310.379 217.099 309.062 219.134C307.602 221.39 302.841 222.599 299.1 222.599C296.476 222.599 296.16 218.014 296.157 217.966C296.139 217.725 296.033 217.5 295.86 217.332C295.686 217.165 295.457 217.067 295.216 217.058C294.975 217.048 294.739 217.128 294.553 217.281C294.367 217.435 294.244 217.651 294.208 217.89C293.951 219.685 293.067 222.159 292.055 222.26C291.684 221.958 290.921 220.132 290.699 216.039C290.515 212.646 290.827 209.257 291.458 207.801C292.672 205.001 295.602 206.002 295.723 206.047C295.87 206.1 296.028 206.116 296.182 206.096C296.337 206.075 296.485 206.018 296.613 205.929C296.741 205.84 296.846 205.721 296.919 205.583C296.993 205.445 297.032 205.292 297.034 205.136L297.169 191.959C297.17 191.881 297.162 191.803 297.145 191.727L290.557 163.354L308.07 158.654Z" fill="#262424"/>
<path d="M312.715 165.717L282.359 173.851C276.839 152.408 275.078 128.384 282.089 122.153C301.269 105.078 309.712 142.133 312.715 165.717Z" fill="#0A0627"/>
<path d="M282.703 170.944C282.79 170.944 282.878 170.932 282.963 170.909L309.66 163.597C309.79 163.568 309.913 163.513 310.021 163.435C310.129 163.358 310.22 163.259 310.289 163.145C310.358 163.031 310.402 162.905 310.421 162.773C310.439 162.641 310.43 162.507 310.395 162.379C310.359 162.25 310.298 162.131 310.215 162.027C310.132 161.923 310.029 161.837 309.911 161.774C309.794 161.711 309.665 161.673 309.533 161.662C309.4 161.65 309.267 161.666 309.14 161.708L282.442 169.02C282.216 169.085 282.02 169.23 281.892 169.427C281.763 169.624 281.709 169.861 281.741 170.094C281.772 170.328 281.887 170.542 282.063 170.698C282.24 170.854 282.467 170.941 282.703 170.944Z" fill="#262424"/>
<path d="M261.558 106.035C273.218 106.035 293.227 117.905 293.227 117.905L293.869 125.568C293.869 125.568 299.111 140.04 299.111 145.495C299.111 150.95 289.802 163.461 289.802 163.461C289.802 163.461 296.435 206.321 299.111 227.285C299.111 227.285 267.559 247.386 211.044 229.208L224.854 164.019L226.681 118.726C226.681 118.726 246.08 106.035 261.558 106.035Z" fill="#0A0627"/>
<path d="M291.039 172.504C291.088 172.507 291.138 172.507 291.188 172.504C291.445 172.464 291.676 172.325 291.83 172.116C291.984 171.906 292.048 171.645 292.01 171.388C291.413 167.479 290.987 164.716 290.834 163.729C292.353 161.649 300.092 150.774 300.092 145.51C300.092 140.155 295.38 126.892 294.835 125.371L294.395 120.086C294.386 119.956 294.351 119.83 294.293 119.714C294.234 119.598 294.153 119.494 294.055 119.41C293.956 119.325 293.842 119.261 293.718 119.221C293.595 119.181 293.464 119.166 293.335 119.177C293.205 119.188 293.079 119.224 292.964 119.284C292.849 119.344 292.747 119.426 292.663 119.526C292.58 119.625 292.517 119.741 292.479 119.865C292.441 119.989 292.427 120.119 292.44 120.248L292.89 125.644C292.898 125.731 292.916 125.816 292.946 125.897C292.998 126.04 298.147 140.27 298.147 145.492C298.147 149.7 291.559 159.466 289.031 162.873C288.953 162.977 288.897 163.095 288.866 163.222C288.834 163.348 288.828 163.479 288.848 163.607C288.848 163.607 289.329 166.726 290.082 171.665C290.116 171.896 290.23 172.107 290.406 172.261C290.581 172.414 290.806 172.5 291.039 172.504Z" fill="#262424"/>
<path d="M259.338 231.491C271.238 231.491 284.528 229.814 295.398 224.127C295.521 224.073 295.633 223.994 295.725 223.896C295.817 223.797 295.887 223.68 295.932 223.553C295.977 223.426 295.995 223.291 295.986 223.157C295.976 223.022 295.939 222.891 295.876 222.772C295.814 222.652 295.727 222.547 295.622 222.462C295.517 222.378 295.395 222.316 295.265 222.281C295.135 222.245 294.999 222.237 294.865 222.256C294.732 222.276 294.604 222.323 294.489 222.394C279.514 230.219 259.685 230.219 245.684 228.843C236.503 227.946 227.413 226.291 218.505 223.894C218.259 223.834 217.999 223.87 217.78 223.997C217.56 224.123 217.398 224.33 217.327 224.573C217.257 224.816 217.283 225.077 217.4 225.301C217.517 225.525 217.717 225.696 217.957 225.776C226.97 228.203 236.169 229.881 245.459 230.791C249.668 231.2 254.384 231.491 259.338 231.491Z" fill="#262424"/>
<path d="M260.673 102.524C267.222 102.954 270.943 107.3 271.372 110.866C271.802 114.432 269.233 117.71 266.806 118.424C266.806 118.424 264.379 111.653 262.528 111.653C260.676 111.653 259.317 119.495 259.317 119.495C259.317 119.495 250.545 119.495 248.191 112.009C246.568 106.846 253.041 102.025 260.673 102.524Z" fill="white"/>
<path d="M259.317 120.473C259.549 120.473 259.773 120.392 259.95 120.243C260.127 120.094 260.245 119.887 260.285 119.659C260.857 116.356 261.907 113.154 262.576 112.648C263.27 112.953 264.83 115.809 265.884 118.754C265.969 118.99 266.14 119.184 266.363 119.297C266.586 119.411 266.844 119.435 267.084 119.364C269.962 118.519 272.829 114.772 272.347 110.749C271.851 106.625 267.614 101.994 260.739 101.547C255.774 101.222 250.979 103.031 248.527 106.15C247.054 108.028 246.603 110.212 247.258 112.301C249.796 120.38 259.224 120.473 259.317 120.473ZM262.528 110.673C260.472 110.673 259.224 114.727 258.509 118.467C256.405 118.266 250.857 117.216 249.127 111.716C248.541 109.851 249.314 108.319 250.067 107.363C252.098 104.777 256.335 103.225 260.61 103.506C266.432 103.887 270 107.644 270.398 110.984C270.745 113.729 269.036 116.131 267.365 117.115C266.293 114.35 264.497 110.673 262.528 110.673Z" fill="#262424"/>
<path d="M264.951 106.801C264.951 106.801 264.726 109.05 261.921 110.118C260.477 110.112 259.049 109.815 257.722 109.245C256.396 108.675 255.197 107.844 254.199 106.801L254.979 92.5918L257.642 93.1359L264.126 94.4944L264.819 104.725L264.951 106.801Z" fill="white"/>
<path d="M261.767 111.102H261.968C262.071 111.097 262.173 111.076 262.27 111.04C265.598 109.771 265.914 107.023 265.924 106.905C265.929 106.851 265.929 106.797 265.924 106.742L265.106 94.4392C265.092 94.2259 265.008 94.0232 264.868 93.8618C264.728 93.7004 264.539 93.5892 264.329 93.5451L255.186 91.6286C255.048 91.5994 254.905 91.6004 254.767 91.6316C254.629 91.6628 254.5 91.7235 254.387 91.8094C254.275 91.8953 254.183 92.0044 254.116 92.1293C254.05 92.2543 254.012 92.392 254.004 92.5331L253.224 106.742C253.217 106.875 253.236 107.007 253.281 107.131C253.327 107.256 253.397 107.37 253.487 107.467C254.558 108.591 255.841 109.491 257.262 110.115C258.684 110.739 260.215 111.075 261.767 111.102ZM263.965 106.76C263.903 107.075 263.532 108.389 261.729 109.144C259.297 109.066 256.979 108.098 255.214 106.424L255.907 93.7704L263.189 95.3022L263.965 106.76Z" fill="#262424"/>
<path d="M264.812 104.724C257.049 103.958 256.397 94.0636 256.397 94.0636C256.793 93.7275 257.21 93.4173 257.646 93.1348L264.129 94.4933L264.812 104.724Z" fill="#262424"/>
<path d="M293.5 218.897C293.32 220.949 290.844 220.835 289.776 219.993C289.776 219.993 290.522 222.439 285.706 225.295C280.89 228.151 275.616 227.257 273.57 223.469C271.525 219.681 269.139 219.244 269.139 219.244C269.139 219.244 214.752 211.37 208.15 202.567C205.075 198.467 205.671 183.035 208.39 166.497C211.982 144.663 219.273 120.868 226.679 118.719C251.345 111.562 242.747 148.718 235.985 171.511C233.052 181.395 231.409 188.108 231.409 188.108L273.875 210.386C273.875 210.386 284.381 206.047 285.966 206.016C287.55 205.984 293.68 216.846 293.5 218.897Z" fill="white"/>
<path d="M279.943 227.953C282.155 227.916 284.317 227.287 286.205 226.134C289.201 224.359 290.283 222.647 290.64 221.434C291.385 221.613 292.167 221.559 292.879 221.278C293.335 221.084 293.726 220.766 294.008 220.359C294.29 219.953 294.452 219.475 294.474 218.98C294.672 216.738 289.998 208.493 287.741 206.081C287.048 205.343 286.496 205.042 285.942 205.042C284.381 205.073 276.826 208.119 273.921 209.311L232.543 187.609C233.052 185.603 234.581 179.687 236.922 171.802C245.382 143.28 246.349 126.25 239.879 119.748C236.873 116.726 232.338 116.068 226.402 117.793C217.283 120.438 210.179 149.563 207.419 166.354C205.016 180.986 203.737 198.339 207.364 203.17C210.248 207.014 221.534 211.051 240.913 215.175C254.885 218.149 268.255 220.114 268.966 220.218C269.108 220.252 270.987 220.758 272.704 223.943C273.202 224.846 273.879 225.638 274.693 226.271C275.507 226.903 276.442 227.364 277.44 227.624C278.256 227.846 279.098 227.956 279.943 227.953ZM288.83 220.242C288.854 220.443 288.948 222.214 285.206 224.435C282.804 225.86 280.162 226.328 277.963 225.721C277.22 225.537 276.523 225.201 275.915 224.735C275.307 224.27 274.802 223.684 274.43 223.015C272.229 218.928 269.604 218.346 269.313 218.291H269.278C254.261 216.118 214.149 208.954 208.948 202.002C206.306 198.481 206.476 184.286 209.368 166.677C213.559 141.187 220.959 121.422 226.964 119.682C232.165 118.175 236.045 118.663 238.506 121.138C244.342 127.005 243.184 143.866 235.056 171.255C232.151 181.049 230.483 187.828 230.466 187.89C230.414 188.099 230.434 188.319 230.52 188.517C230.607 188.714 230.756 188.877 230.944 188.982L273.421 211.252C273.548 211.318 273.688 211.356 273.831 211.363C273.975 211.37 274.117 211.345 274.25 211.29C279.139 209.277 284.686 207.18 285.872 207.007C287.405 207.956 292.63 217.189 292.526 218.814C292.532 218.955 292.495 219.095 292.419 219.215C292.344 219.334 292.233 219.428 292.103 219.483C291.813 219.576 291.506 219.602 291.205 219.556C290.905 219.511 290.618 219.397 290.369 219.223C290.201 219.083 289.992 219.002 289.773 218.992C289.555 218.982 289.339 219.044 289.159 219.168C288.995 219.287 288.874 219.456 288.814 219.65C288.755 219.843 288.76 220.051 288.83 220.242Z" fill="#262424"/>
<path d="M237.147 170.932L206.087 166.146C209.679 144.312 217.762 121.605 226.683 118.722C251.12 110.827 243.908 148.156 237.147 170.932Z" fill="#0A0627"/>
<path d="M237.148 171.849C237.345 171.848 237.537 171.785 237.695 171.667C237.853 171.549 237.969 171.383 238.025 171.194C242.633 155.653 249.023 128.278 240.032 119.507C236.936 116.488 232.352 115.933 226.399 117.857C216.75 120.976 208.636 145 205.183 166.002C205.147 166.241 205.207 166.484 205.35 166.679C205.493 166.874 205.707 167.004 205.946 167.042L237.005 171.828C237.052 171.838 237.1 171.845 237.148 171.849ZM232.678 118.571C235.185 118.571 237.213 119.319 238.749 120.817C247.189 129.048 240.181 157.3 236.492 169.908L207.139 165.402C210.689 144.539 218.556 122.328 226.957 119.614C228.799 118.972 230.729 118.62 232.678 118.571Z" fill="#0A0627"/>
<path d="M238.589 166.84C238.805 166.84 239.014 166.769 239.185 166.638C239.356 166.507 239.479 166.323 239.536 166.115C243.96 149.806 247.77 128.606 240.801 120.244C238.579 117.575 235.423 116.39 231.44 116.723C231.183 116.747 230.946 116.872 230.78 117.07C230.615 117.268 230.534 117.523 230.556 117.78C230.577 118.038 230.699 118.276 230.895 118.444C231.091 118.612 231.345 118.696 231.603 118.677C234.976 118.397 237.497 119.322 239.31 121.502C246.078 129.625 241.179 152.62 237.656 165.606C237.618 165.75 237.613 165.901 237.641 166.047C237.67 166.194 237.732 166.331 237.822 166.45C237.911 166.569 238.027 166.666 238.16 166.734C238.293 166.801 238.44 166.837 238.589 166.84Z" fill="#262424"/>
<path d="M235.348 167.768C235.593 167.763 235.826 167.667 236.003 167.499C236.18 167.33 236.288 167.102 236.306 166.859C236.324 166.615 236.25 166.374 236.099 166.182C235.948 165.99 235.731 165.861 235.49 165.82L208.099 161.762C207.849 161.739 207.6 161.812 207.403 161.967C207.206 162.122 207.075 162.347 207.039 162.595C207.002 162.843 207.061 163.095 207.205 163.301C207.349 163.506 207.566 163.649 207.811 163.699L235.203 167.758C235.251 167.765 235.3 167.768 235.348 167.768Z" fill="#262424"/>
<path d="M247.102 56.1465C251.647 59.425 244.893 68.8863 242.247 71.7662C239.602 74.6462 239.758 84.7659 232.539 86.3567C225.32 87.9474 234.176 103.685 214.704 112.845C199.697 119.894 180.031 106.953 185.697 96.7121C191.362 86.471 210.134 85.7121 215.21 76.2647C218.438 70.2621 218.004 60.3226 229.457 59.5879C238.014 59.0472 243.513 53.5437 247.102 56.1465Z" fill="#262424"/>
<path d="M273.422 84.2674C273.422 84.2674 276.498 79.7031 279.798 81.2557C283.099 82.8083 281.99 93.8118 273.859 92.3112L273.422 84.2674Z" fill="white"/>
<path d="M275.324 93.4267C279.021 93.4267 281.219 90.8725 282.054 88.2282C282.997 85.2997 282.564 81.4563 280.224 80.3542C276.209 78.4689 272.762 83.4906 272.617 83.7055C272.497 83.882 272.439 84.0925 272.45 84.3051L272.897 92.3593C272.909 92.579 272.995 92.7883 273.14 92.9536C273.285 93.119 273.482 93.2306 273.698 93.2708C274.235 93.3718 274.779 93.424 275.324 93.4267ZM278.39 81.9172C278.736 81.9168 279.078 81.9937 279.392 82.1425C280.432 82.6277 280.993 85.1334 280.189 87.6425C279.776 88.9283 278.455 91.7459 274.804 91.4547L274.43 84.5719C274.978 83.8545 276.611 81.9138 278.383 81.9138L278.39 81.9172Z" fill="#262424"/>
<path d="M250.527 63.3552L248.644 62.4645C248.349 62.3235 248.022 62.2639 247.697 62.2919C247.371 62.3199 247.059 62.4346 246.793 62.6239C246.02 63.1497 245.378 63.8442 244.913 64.6548C244.496 65.556 244.406 66.5746 244.66 67.5347C244.715 67.7684 244.815 67.989 244.955 68.1835C245.096 68.3781 245.274 68.5428 245.478 68.668L247.5 69.9261C247.73 70.0696 247.99 70.1604 248.26 70.1918C248.529 70.2232 248.803 70.1944 249.06 70.1076C249.317 70.0208 249.552 69.878 249.747 69.6896C249.943 69.5012 250.094 69.2719 250.19 69.018L251.456 65.6737C251.622 65.2413 251.619 64.7622 251.446 64.3323C251.274 63.9023 250.946 63.5533 250.527 63.3552Z" fill="white"/>
<path d="M275.491 86.0787C275.116 92.8853 272.089 100.742 263.851 100.52C257.794 100.357 251.095 93.0689 250.586 83.8849C250.076 74.7009 251.678 66.82 262.745 67.371C263.927 67.4477 265.103 67.6029 266.264 67.8354C272.682 69.2529 275.134 69.8282 275.626 82.4501C275.671 83.5557 275.564 84.7929 275.491 86.0787Z" fill="white"/>
<path d="M264.195 101.506C272.613 101.506 276.059 93.6077 276.469 86.1358L276.496 85.6436C276.566 84.5034 276.628 83.4256 276.59 82.4032C276.108 69.6426 273.615 68.447 266.476 66.8701C265.261 66.6267 264.031 66.4646 262.794 66.3849C258.519 66.1735 255.239 67.182 253.047 69.3827C249.48 72.9697 249.334 79.0415 249.604 83.9385C250.166 94.0825 257.548 101.34 263.82 101.509H264.195V101.506ZM261.66 68.3153C261.998 68.3153 262.344 68.3245 262.7 68.343C263.827 68.4174 264.949 68.5656 266.056 68.7866C272.298 70.1729 274.184 70.5818 274.634 82.4829C274.669 83.4083 274.607 84.441 274.544 85.5327L274.517 86.0283C274.34 89.2237 273.074 99.5444 264.198 99.5444H263.883C258.474 99.3989 252.059 92.6443 251.57 83.8241C251.206 77.2394 252.118 73.1048 254.445 70.7655C256.078 69.1193 258.446 68.3153 261.66 68.3153Z" fill="#262424"/>
<path d="M250.312 61.8616L248.446 60.9779C248.154 60.8384 247.83 60.7796 247.508 60.8076C247.185 60.8356 246.876 60.9495 246.612 61.1373C245.847 61.6577 245.211 62.3451 244.75 63.1474C244.337 64.0401 244.249 65.0488 244.501 65.9996C244.554 66.2309 244.653 66.4492 244.792 66.6419C244.931 66.8347 245.106 66.998 245.308 67.1225L247.313 68.3701C247.541 68.5125 247.798 68.6025 248.066 68.6336C248.333 68.6647 248.604 68.6362 248.859 68.55C249.114 68.4638 249.347 68.3221 249.54 68.1352C249.734 67.9483 249.884 67.7208 249.979 67.4691L251.237 64.1455C251.398 63.7181 251.392 63.2461 251.22 62.823C251.049 62.4 250.725 62.0568 250.312 61.8616Z" fill="white"/>
<path d="M253.263 83.0985C254.361 82.6753 255.324 81.9639 256.051 81.0391C256.778 80.1144 257.241 79.0107 257.393 77.8446C257.511 77.0544 257.587 75.9904 257.816 75.0304C262.458 79.8824 271.227 82.8421 275.044 83.9476C275.642 84.1321 276.283 84.1236 276.875 83.9232C277.468 83.7229 277.982 83.3409 278.345 82.8317C282.804 76.2469 277.489 63.6422 268.945 63.8848C259.237 57.1718 247.917 62.0515 246.301 70.2409C244.508 79.3209 250.528 84.2387 253.263 83.0985Z" fill="#262424"/>
<path d="M253.416 84.2664C253.416 84.2664 248.946 79.6536 244.245 81.1473C239.543 82.641 242.275 93.6029 253.891 92.2375L253.416 84.2664Z" fill="white"/>
<path d="M251.934 93.3331C252.629 93.3327 253.324 93.2911 254.014 93.2083C254.271 93.1755 254.504 93.0427 254.664 92.8387C254.823 92.6348 254.895 92.3762 254.864 92.1193C254.834 91.8625 254.703 91.6281 254.5 91.4673C254.297 91.3064 254.039 91.2322 253.782 91.2606C247.489 92.0057 243.866 88.852 243.162 85.6081C242.874 84.2808 243.065 82.5653 244.549 82.0905C248.626 80.7874 252.676 84.908 252.718 84.9496C252.805 85.0508 252.912 85.1331 253.032 85.1915C253.152 85.2499 253.283 85.2831 253.416 85.2892C253.55 85.2952 253.683 85.2739 253.808 85.2266C253.933 85.1793 254.047 85.107 254.143 85.0141C254.239 84.9212 254.315 84.8097 254.367 84.6863C254.418 84.563 254.444 84.4305 254.442 84.297C254.44 84.1634 254.411 84.0316 254.357 83.9096C254.302 83.7876 254.224 83.6781 254.125 83.5876C253.924 83.3797 249.174 78.5555 243.949 80.2259C241.73 80.9191 240.641 83.2653 241.241 86.0275C242.038 89.7149 245.689 93.3331 251.934 93.3331Z" fill="#262424"/>
<path d="M285.76 228.373H357.553C358.196 228.372 358.819 228.153 359.32 227.75C359.821 227.347 360.169 226.786 360.306 226.158L369.955 182.307C370.046 181.895 370.043 181.468 369.947 181.058C369.851 180.648 369.664 180.264 369.4 179.935C369.136 179.607 368.801 179.342 368.421 179.16C368.041 178.977 367.624 178.883 367.202 178.883H295.41C294.77 178.883 294.149 179.1 293.65 179.5C293.15 179.899 292.801 180.456 292.66 181.08L283.011 224.931C282.917 225.344 282.918 225.772 283.012 226.184C283.107 226.597 283.293 226.983 283.557 227.313C283.821 227.644 284.157 227.911 284.538 228.094C284.919 228.277 285.337 228.373 285.76 228.373Z" fill="white"/>
<path d="M285.762 229.354H357.555C358.421 229.351 359.26 229.055 359.935 228.513C360.61 227.97 361.08 227.215 361.268 226.37L370.914 182.519C371.034 181.964 371.028 181.39 370.898 180.838C370.768 180.287 370.516 179.771 370.161 179.328C369.805 178.886 369.356 178.529 368.845 178.282C368.334 178.035 367.775 177.906 367.208 177.902H295.412C294.546 177.904 293.706 178.201 293.031 178.743C292.357 179.286 291.886 180.041 291.698 180.886L282.052 224.748C281.934 225.302 281.941 225.875 282.073 226.426C282.204 226.976 282.457 227.491 282.812 227.932C283.167 228.373 283.616 228.73 284.127 228.976C284.637 229.221 285.196 229.351 285.762 229.354ZM367.208 179.86C367.483 179.861 367.754 179.923 368.003 180.042C368.251 180.161 368.469 180.334 368.641 180.548C368.813 180.763 368.935 181.013 368.998 181.281C369.061 181.549 369.063 181.827 369.004 182.096L359.354 225.947C359.263 226.355 359.035 226.721 358.709 226.983C358.383 227.245 357.977 227.39 357.558 227.392H285.762C285.487 227.392 285.216 227.33 284.967 227.211C284.719 227.092 284.501 226.919 284.329 226.704C284.157 226.49 284.035 226.239 283.972 225.972C283.909 225.704 283.907 225.425 283.966 225.157L293.616 181.306C293.707 180.897 293.935 180.532 294.261 180.269C294.587 180.007 294.993 179.863 295.412 179.86H367.208Z" fill="#262424"/>
<path d="M290.348 228.373H362.137C362.78 228.372 363.403 228.153 363.904 227.75C364.405 227.347 364.753 226.786 364.89 226.158L374.539 182.307C374.63 181.895 374.627 181.468 374.531 181.058C374.435 180.648 374.248 180.264 373.984 179.935C373.72 179.607 373.385 179.342 373.005 179.16C372.624 178.977 372.208 178.883 371.786 178.883H299.994C299.351 178.883 298.728 179.103 298.227 179.505C297.726 179.908 297.378 180.47 297.241 181.097L287.591 224.948C287.501 225.36 287.503 225.787 287.6 226.198C287.696 226.609 287.883 226.993 288.148 227.321C288.413 227.65 288.748 227.915 289.128 228.097C289.509 228.279 289.926 228.373 290.348 228.373Z" fill="white"/>
<path d="M290.348 229.354H362.137C363.003 229.351 363.843 229.055 364.518 228.513C365.193 227.97 365.663 227.215 365.851 226.37L375.5 182.519C375.62 181.964 375.614 181.389 375.483 180.837C375.353 180.284 375.1 179.768 374.744 179.326C374.388 178.883 373.938 178.526 373.427 178.28C372.915 178.033 372.355 177.905 371.787 177.902H299.994C299.128 177.904 298.289 178.201 297.614 178.743C296.939 179.286 296.469 180.041 296.281 180.886L286.635 224.748C286.517 225.302 286.524 225.875 286.655 226.426C286.787 226.978 287.04 227.492 287.395 227.934C287.751 228.375 288.201 228.731 288.711 228.977C289.222 229.222 289.781 229.351 290.348 229.354ZM371.787 179.86C372.062 179.861 372.333 179.923 372.582 180.042C372.83 180.161 373.048 180.334 373.22 180.548C373.392 180.763 373.514 181.013 373.577 181.281C373.64 181.549 373.642 181.827 373.583 182.096L363.933 225.947C363.842 226.355 363.614 226.721 363.288 226.983C362.962 227.245 362.556 227.39 362.137 227.392H290.348C290.073 227.392 289.801 227.33 289.553 227.211C289.305 227.092 289.087 226.919 288.915 226.704C288.743 226.49 288.621 226.239 288.558 225.972C288.495 225.704 288.493 225.425 288.552 225.157L298.208 181.306C298.3 180.897 298.528 180.532 298.854 180.269C299.18 180.007 299.586 179.863 300.004 179.86H371.787Z" fill="#262424"/>
<path d="M243.666 228.373H291.081C292.404 228.373 293.477 229.445 293.477 230.768V232.75C293.477 234.073 292.404 235.145 291.081 235.145H243.666C242.343 235.145 241.27 234.073 241.27 232.75V230.768C241.27 229.445 242.343 228.373 243.666 228.373Z" fill="white"/>
<path d="M243.665 236.126H291.076C291.971 236.125 292.83 235.769 293.463 235.136C294.096 234.504 294.452 233.645 294.453 232.751V230.768C294.452 229.873 294.096 229.015 293.463 228.382C292.83 227.749 291.971 227.393 291.076 227.393H243.665C242.77 227.393 241.911 227.749 241.278 228.382C240.645 229.015 240.289 229.873 240.288 230.768V232.751C240.289 233.645 240.645 234.504 241.278 235.136C241.911 235.769 242.77 236.125 243.665 236.126ZM291.076 229.354C291.451 229.355 291.81 229.504 292.075 229.769C292.34 230.034 292.49 230.393 292.491 230.768V232.751C292.49 233.125 292.34 233.484 292.075 233.749C291.81 234.014 291.451 234.164 291.076 234.164H243.665C243.29 234.164 242.931 234.014 242.666 233.749C242.401 233.484 242.251 233.125 242.25 232.751V230.768C242.251 230.393 242.401 230.034 242.666 229.769C242.931 229.504 243.29 229.355 243.665 229.354H291.076Z" fill="#262424"/>
<path d="M284.653 228.373H355.159C356.482 228.373 357.555 229.445 357.555 230.768V232.75C357.555 234.073 356.482 235.145 355.159 235.145H284.653C283.329 235.145 282.257 234.073 282.257 232.75V230.768C282.257 229.445 283.329 228.373 284.653 228.373Z" fill="white"/>
<path d="M284.652 236.126H355.158C356.053 236.125 356.912 235.769 357.545 235.136C358.178 234.504 358.534 233.645 358.535 232.751V230.768C358.534 229.873 358.178 229.015 357.545 228.382C356.912 227.749 356.053 227.393 355.158 227.393H284.652C283.756 227.393 282.898 227.749 282.265 228.382C281.632 229.015 281.276 229.873 281.275 230.768V232.751C281.276 233.645 281.632 234.504 282.265 235.136C282.898 235.769 283.756 236.125 284.652 236.126ZM355.158 229.354C355.533 229.355 355.892 229.504 356.157 229.769C356.422 230.034 356.572 230.393 356.573 230.768V232.751C356.572 233.125 356.422 233.484 356.157 233.749C355.892 234.014 355.533 234.164 355.158 234.164H284.652C284.277 234.164 283.918 234.014 283.652 233.749C283.387 233.484 283.238 233.125 283.237 232.751V230.768C283.238 230.393 283.387 230.034 283.652 229.769C283.918 229.504 284.277 229.355 284.652 229.354H355.158Z" fill="#262424"/>
<path d="M206.792 227.977C212.62 228.209 218.169 230.531 222.425 234.518C226.68 238.504 229.357 243.89 229.965 249.688C230.574 255.486 229.073 261.309 225.737 266.091C222.402 270.873 217.455 274.295 211.802 275.731C211.091 275.903 210.349 275.91 209.634 275.754C208.919 275.597 208.25 275.28 207.675 274.826C207.101 274.372 206.638 273.794 206.32 273.135C206.002 272.475 205.839 271.753 205.842 271.021C205.833 269.952 206.18 268.911 206.83 268.063C207.479 267.214 208.393 266.606 209.427 266.335C212.075 265.665 214.481 264.265 216.371 262.296C218.262 260.326 219.561 257.865 220.122 255.194C220.682 252.522 220.481 249.747 219.541 247.184C218.601 244.621 216.961 242.373 214.806 240.696C212.651 239.02 210.068 237.981 207.352 237.699C204.635 237.418 201.894 237.904 199.441 239.102C196.987 240.301 194.92 242.164 193.473 244.479C192.027 246.794 191.259 249.469 191.259 252.199H181.578C181.581 248.935 182.242 245.706 183.523 242.704C184.804 239.702 186.677 236.989 189.031 234.728C191.385 232.466 194.171 230.703 197.223 229.543C200.275 228.383 203.53 227.85 206.792 227.977Z" fill="white"/>
<path d="M210.641 276.855C211.109 276.853 211.574 276.793 212.028 276.678C217.91 275.188 223.059 271.629 226.531 266.654C230.003 261.68 231.567 255.621 230.935 249.588C230.304 243.555 227.519 237.952 223.092 233.803C218.665 229.655 212.891 227.239 206.827 226.998L206.789 227.979L206.827 226.998C203.431 226.865 200.043 227.419 196.867 228.627C193.69 229.834 190.79 231.67 188.341 234.025C185.891 236.38 183.943 239.204 182.611 242.33C181.28 245.455 180.594 248.817 180.594 252.214C180.594 252.474 180.697 252.723 180.881 252.907C181.065 253.091 181.315 253.195 181.575 253.195H191.262C191.523 253.195 191.772 253.091 191.956 252.907C192.14 252.723 192.244 252.474 192.244 252.214C192.232 248.674 193.601 245.27 196.061 242.724C198.521 240.178 201.878 238.691 205.417 238.579C208.957 238.468 212.4 239.741 215.015 242.127C217.631 244.513 219.212 247.825 219.423 251.358C219.62 254.523 218.705 257.657 216.837 260.221C214.969 262.784 212.266 264.616 209.191 265.401C207.829 265.764 206.646 266.609 205.859 267.778C205.072 268.948 204.736 270.362 204.913 271.76C205.09 273.158 205.768 274.445 206.821 275.381C207.874 276.318 209.231 276.842 210.641 276.855ZM205.835 228.942C206.14 228.942 206.447 228.948 206.754 228.959C212.35 229.176 217.68 231.401 221.769 235.226C225.857 239.052 228.429 244.222 229.013 249.789C229.597 255.356 228.155 260.947 224.95 265.537C221.745 270.128 216.992 273.41 211.563 274.782C211.006 274.923 210.425 274.933 209.863 274.813C209.302 274.693 208.775 274.445 208.325 274.089C207.856 273.727 207.477 273.262 207.217 272.73C206.956 272.199 206.822 271.614 206.823 271.022C206.816 270.174 207.092 269.349 207.607 268.675C208.122 268.002 208.846 267.519 209.666 267.303C212.452 266.599 214.987 265.137 216.993 263.081C218.999 261.024 220.396 258.453 221.03 255.653C221.664 252.852 221.51 249.93 220.586 247.211C219.661 244.492 218.002 242.082 215.791 240.247C213.581 238.412 210.906 237.225 208.062 236.816C205.218 236.407 202.316 236.793 199.678 237.931C197.04 239.068 194.769 240.914 193.115 243.262C191.461 245.61 190.49 248.371 190.309 251.237H182.577C182.831 245.24 185.392 239.574 189.726 235.419C194.059 231.265 199.831 228.945 205.835 228.942Z" fill="#262424"/>
<path d="M149.302 227.977C155.13 228.208 160.68 230.528 164.937 234.515C169.193 238.501 171.871 243.886 172.48 249.684C173.09 255.483 171.589 261.306 168.254 266.089C164.919 270.873 159.972 274.295 154.319 275.731C153.607 275.903 152.866 275.91 152.151 275.754C151.436 275.597 150.766 275.28 150.192 274.826C149.618 274.372 149.154 273.794 148.837 273.135C148.519 272.475 148.356 271.753 148.359 271.021C148.349 269.953 148.695 268.913 149.343 268.064C149.991 267.216 150.904 266.607 151.937 266.335C154.584 265.665 156.99 264.265 158.881 262.296C160.771 260.326 162.071 257.865 162.631 255.194C163.192 252.522 162.991 249.747 162.051 247.184C161.111 244.621 159.47 242.373 157.315 240.696C155.16 239.02 152.578 237.981 149.861 237.699C147.145 237.418 144.404 237.904 141.95 239.102C139.497 240.301 137.429 242.164 135.983 244.479C134.536 246.794 133.769 249.469 133.769 252.199H124.088C124.091 248.935 124.752 245.706 126.033 242.704C127.313 239.702 129.187 236.989 131.541 234.728C133.895 232.466 136.681 230.703 139.733 229.543C142.785 228.383 146.039 227.85 149.302 227.977Z" fill="white"/>
<path d="M153.147 276.854C153.614 276.852 154.08 276.793 154.534 276.677C160.416 275.187 165.565 271.629 169.037 266.654C172.509 261.679 174.073 255.621 173.441 249.588C172.809 243.555 170.025 237.951 165.598 233.803C161.171 229.654 155.396 227.238 149.333 226.997C145.938 226.867 142.552 227.422 139.377 228.631C136.202 229.839 133.304 231.675 130.856 234.03C128.408 236.384 126.46 239.208 125.13 242.333C123.8 245.457 123.114 248.818 123.113 252.213C123.113 252.473 123.217 252.723 123.401 252.907C123.585 253.091 123.834 253.194 124.095 253.194H133.775C134.035 253.194 134.285 253.091 134.469 252.907C134.653 252.723 134.756 252.473 134.756 252.213C134.745 248.674 136.114 245.269 138.574 242.723C141.034 240.177 144.391 238.69 147.93 238.579C151.469 238.467 154.913 239.74 157.528 242.126C160.144 244.512 161.725 247.824 161.936 251.357C162.132 254.523 161.218 257.657 159.35 260.22C157.482 262.784 154.778 264.616 151.704 265.4C150.343 265.764 149.159 266.608 148.372 267.776C147.586 268.945 147.249 270.359 147.425 271.756C147.601 273.154 148.278 274.44 149.33 275.378C150.382 276.315 151.738 276.839 153.147 276.854ZM149.263 228.955C154.859 229.172 160.189 231.398 164.277 235.224C168.364 239.05 170.936 244.22 171.519 249.787C172.103 255.353 170.66 260.944 167.455 265.534C164.25 270.124 159.498 273.406 154.069 274.778C153.513 274.918 152.932 274.928 152.371 274.808C151.81 274.688 151.284 274.441 150.834 274.085C150.365 273.723 149.986 273.258 149.726 272.726C149.466 272.195 149.331 271.61 149.333 271.018C149.326 270.171 149.601 269.345 150.116 268.671C150.631 267.998 151.356 267.515 152.176 267.299C154.961 266.595 157.498 265.134 159.504 263.078C161.51 261.022 162.908 258.451 163.542 255.65C164.177 252.849 164.023 249.927 163.099 247.208C162.175 244.488 160.516 242.078 158.305 240.243C156.095 238.408 153.419 237.22 150.575 236.811C147.731 236.402 144.83 236.788 142.192 237.926C139.553 239.064 137.282 240.909 135.628 243.257C133.974 245.606 133.003 248.366 132.822 251.233H125.09C125.349 245.077 128.04 239.275 132.572 235.099C137.104 230.924 143.108 228.714 149.267 228.955H149.263Z" fill="#262424"/>
<path d="M374.61 117.715C373.032 117.715 371.753 116.437 371.753 114.86C371.753 113.282 373.032 112.004 374.61 112.004C376.188 112.004 377.467 113.282 377.467 114.86C377.467 116.437 376.188 117.715 374.61 117.715Z" fill="#0A0627"/>
<path d="M370.022 369.432L368.94 372.384C368.607 373.297 368.078 374.127 367.39 374.814C366.703 375.501 365.873 376.03 364.96 376.363L362.023 377.434L364.96 378.505C365.872 378.836 366.7 379.363 367.388 380.048C368.075 380.733 368.605 381.559 368.94 382.469L370.011 385.405L371.083 382.469C371.416 381.556 371.945 380.727 372.633 380.04C373.32 379.353 374.15 378.824 375.063 378.491L378 377.42L375.063 376.349C374.153 376.016 373.326 375.489 372.641 374.804C371.955 374.12 371.427 373.294 371.093 372.384L370.022 369.432Z" fill="#3257FB"/>
<path d="M342.908 65.4805L341.836 68.4159C341.503 69.3289 340.974 70.1581 340.287 70.8454C339.599 71.5326 338.769 72.0613 337.856 72.3945L334.919 73.4654L337.856 74.5363C338.769 74.8694 339.599 75.3981 340.287 76.0854C340.974 76.7726 341.503 77.6018 341.836 78.5149L342.908 81.4503L343.976 78.5183C344.309 77.6053 344.838 76.7761 345.525 76.0888C346.213 75.4016 347.043 74.8729 347.956 74.5397L350.91 73.4688L347.973 72.3979C347.056 72.0666 346.223 71.5383 345.532 70.8503C344.842 70.1623 344.31 69.3313 343.976 68.4159L342.908 65.4805Z" fill="#3257FB"/>
<path d="M196.209 45L195.137 47.9354C194.804 48.8485 194.275 49.6777 193.587 50.3649C192.9 51.0522 192.07 51.5809 191.157 51.914L188.22 52.9849L191.157 54.0558C192.07 54.3889 192.9 54.9176 193.587 55.6049C194.275 56.2921 194.804 57.1213 195.137 58.0344L196.209 60.9698L197.276 58.0378C197.61 57.1248 198.139 56.2956 198.826 55.6083C199.514 54.9211 200.343 54.3924 201.257 54.0593L204.211 52.9884L201.274 51.9175C200.357 51.5861 199.524 51.0578 198.833 50.3698C198.143 49.6818 197.611 48.8509 197.276 47.9354L196.209 45Z" fill="#3257FB"/>
<path d="M61.2085 0L60.1372 2.93542C59.8039 3.84847 59.2749 4.67766 58.5874 5.36492C57.8998 6.05217 57.0702 6.58088 56.1568 6.91401L53.22 7.9849L56.1568 9.0558C57.0702 9.38892 57.8998 9.91763 58.5874 10.6049C59.2749 11.2921 59.8039 12.1213 60.1372 13.0344L61.2085 15.9698L62.2765 13.0378C62.6097 12.1248 63.1387 11.2956 63.8262 10.6083C64.5138 9.92109 65.3434 9.39239 66.2569 9.05926L69.2109 7.98837L66.2742 6.91747C65.3572 6.58611 64.524 6.05783 63.8333 5.36984C63.1426 4.68185 62.6112 3.85087 62.2765 2.93542L61.2085 0Z" fill="#3257FB"/>
<path d="M8.20855 283L7.13716 285.935C6.80388 286.848 6.27494 287.678 5.58737 288.365C4.8998 289.052 4.07024 289.581 3.15678 289.914L0.220022 290.985L3.15678 292.056C4.07024 292.389 4.8998 292.918 5.58737 293.605C6.27494 294.292 6.80388 295.121 7.13716 296.034L8.20855 298.97L9.27645 296.038C9.60974 295.125 10.1387 294.296 10.8262 293.608C11.5138 292.921 12.3434 292.392 13.2569 292.059L16.2109 290.988L13.2742 289.917C12.3572 289.586 11.524 289.058 10.8333 288.37C10.1426 287.682 9.61115 286.851 9.27645 285.935L8.20855 283Z" fill="#3257FB"/>
<path d="M45.704 281.121L44.1438 285.401C43.6589 286.732 42.8883 287.941 41.8862 288.943C40.8841 289.944 39.6748 290.715 38.3431 291.199L34.0611 292.759L38.3431 294.318C39.6748 294.803 40.8841 295.573 41.8862 296.575C42.8883 297.577 43.6589 298.785 44.1438 300.116L45.704 304.397L47.2643 300.116C47.7507 298.785 48.5231 297.576 49.527 296.575C50.531 295.574 51.7422 294.805 53.0754 294.322L57.3574 292.762L53.0754 291.203C51.7411 290.719 50.5293 289.948 49.5252 288.945C48.5212 287.942 47.7494 286.731 47.2643 285.398L45.704 281.121Z" fill="#0A0627"/>
</svg>
