<svg width="222" height="207" viewBox="0 0 222 207" fill="none" xmlns="http://www.w3.org/2000/svg">
<path d="M212.933 78.2977C217.033 95.1807 196.958 111.668 192.436 127.225C187.747 143.279 195.536 168.03 183.469 179.596C171.824 190.804 147.842 182.057 131.047 186.175C114.252 190.294 97.0085 209.128 81.5331 204.601C65.5708 199.883 61.1639 174.316 49.6598 162.228C38.5144 150.471 13.149 145.167 9.06235 128.284C4.97571 111.401 25.0374 94.9129 29.5596 79.3561C34.2484 63.3019 26.4594 38.5513 38.5272 26.9857C50.1722 15.7771 74.154 24.5247 90.949 20.4059C107.744 16.2872 124.987 -2.54676 140.463 1.98001C156.425 6.69807 160.832 32.2648 172.336 44.3532C183.481 56.1101 208.847 61.4147 212.933 78.2977Z" fill="white"/>
<path d="M186.582 205.304H55.9122L27.7285 177.251V70.1387H194.269V197.654C194.269 199.683 193.459 201.629 192.018 203.064C190.576 204.498 188.621 205.304 186.582 205.304Z" fill="#EDEDED"/>
<path d="M194.269 188.728L63.5987 197.654L55.9122 177.251H27.7285V70.1387H194.269V188.728Z" fill="white"/>
<path d="M186.582 206.58H154.555C154.216 206.58 153.89 206.446 153.65 206.206C153.409 205.967 153.274 205.643 153.274 205.305C153.274 204.967 153.409 204.642 153.65 204.403C153.89 204.164 154.216 204.03 154.555 204.03H186.582C188.281 204.03 189.911 203.358 191.112 202.162C192.313 200.967 192.988 199.345 192.988 197.654V144.098C192.988 143.759 193.123 143.435 193.363 143.196C193.603 142.957 193.929 142.822 194.269 142.822C194.609 142.822 194.935 142.957 195.175 143.196C195.415 143.435 195.55 143.759 195.55 144.098V197.654C195.55 200.021 194.605 202.292 192.923 203.966C191.242 205.64 188.961 206.58 186.582 206.58V206.58Z" fill="#34234D"/>
<path d="M194.272 137.72C193.932 137.72 193.606 137.586 193.366 137.347C193.126 137.108 192.991 136.783 192.991 136.445V71.4126H29.0125V110.942C29.0125 111.28 28.8776 111.605 28.6373 111.844C28.3971 112.083 28.0712 112.217 27.7315 112.217C27.3917 112.217 27.0658 112.083 26.8256 111.844C26.5853 111.605 26.4504 111.28 26.4504 110.942V70.1375C26.4504 69.7993 26.5853 69.4749 26.8256 69.2358C27.0658 68.9966 27.3917 68.8623 27.7315 68.8623H194.272C194.612 68.8623 194.937 68.9966 195.178 69.2358C195.418 69.4749 195.553 69.7993 195.553 70.1375V136.445C195.553 136.783 195.418 137.108 195.178 137.347C194.937 137.586 194.612 137.72 194.272 137.72Z" fill="#34234D"/>
<path d="M146.872 206.58H55.9152C55.7466 206.581 55.5795 206.548 55.4234 206.485C55.2673 206.422 55.1254 206.328 55.0057 206.21L26.8219 178.157C26.7032 178.037 26.6092 177.896 26.5455 177.741C26.4817 177.585 26.4494 177.419 26.4504 177.251V118.594C26.4504 118.256 26.5854 117.932 26.8256 117.693C27.0659 117.454 27.3917 117.319 27.7315 117.319C28.0712 117.319 28.3971 117.454 28.6373 117.693C28.8776 117.932 29.0126 118.256 29.0126 118.594V176.728L56.4405 204.029H146.872C147.212 204.029 147.538 204.164 147.778 204.403C148.018 204.642 148.153 204.966 148.153 205.304C148.153 205.643 148.018 205.967 147.778 206.206C147.538 206.445 147.212 206.58 146.872 206.58Z" fill="#34234D"/>
<path d="M35.4149 49.7383H186.582C188.621 49.7383 190.576 50.5444 192.018 51.9792C193.459 53.414 194.269 55.36 194.269 57.3892V70.1407H27.7285V57.3892C27.7285 55.36 28.5383 53.414 29.9798 51.9792C31.4213 50.5444 33.3764 49.7383 35.4149 49.7383V49.7383Z" fill="#8FBBFD"/>
<path d="M194.269 70.1377H27.7285V61.2117L194.269 54.8359V70.1377Z" fill="#3257FB"/>
<path d="M194.272 71.4138H27.7315C27.3917 71.4138 27.0658 71.2794 26.8256 71.0403C26.5853 70.8012 26.4504 70.4768 26.4504 70.1386V57.3872C26.4504 55.0198 27.3952 52.7495 29.0769 51.0755C30.7587 49.4015 33.0396 48.4611 35.4179 48.4611H186.585C188.964 48.4611 191.245 49.4015 192.926 51.0755C194.608 52.7495 195.553 55.0198 195.553 57.3872V70.1386C195.553 70.4768 195.418 70.8012 195.178 71.0403C194.937 71.2794 194.612 71.4138 194.272 71.4138ZM29.0125 68.8635H192.991V57.3872C192.991 55.6962 192.316 54.0745 191.115 52.8788C189.913 51.6831 188.284 51.0114 186.585 51.0114H35.4179C33.7191 51.0114 32.0899 51.6831 30.8886 52.8788C29.6874 54.0745 29.0125 55.6962 29.0125 57.3872V68.8635Z" fill="#34234D"/>
<path d="M115.382 131.346H106.619C105.501 131.346 104.595 132.248 104.595 133.36V142.082C104.595 143.195 105.501 144.097 106.619 144.097H115.382C116.5 144.097 117.406 143.195 117.406 142.082V133.36C117.406 132.248 116.5 131.346 115.382 131.346Z" fill="#898796"/>
<path d="M93.605 131.346H84.8424C83.7245 131.346 82.8183 132.248 82.8183 133.36V142.082C82.8183 143.195 83.7245 144.097 84.8424 144.097H93.605C94.7229 144.097 95.6291 143.195 95.6291 142.082V133.36C95.6291 132.248 94.7229 131.346 93.605 131.346Z" fill="#898796"/>
<path d="M71.8237 131.346H63.0612C61.9433 131.346 61.037 132.248 61.037 133.36V142.082C61.037 143.195 61.9433 144.097 63.0612 144.097H71.8237C72.9416 144.097 73.8479 143.195 73.8479 142.082V133.36C73.8479 132.248 72.9416 131.346 71.8237 131.346Z" fill="#898796"/>
<path d="M50.0432 131.346H41.2806C40.1627 131.346 39.2565 132.248 39.2565 133.36V142.082C39.2565 143.195 40.1627 144.097 41.2806 144.097H50.0432C51.1611 144.097 52.0673 143.195 52.0673 142.082V133.36C52.0673 132.248 51.1611 131.346 50.0432 131.346Z" fill="#898796"/>
<path d="M180.715 131.346H171.952C170.834 131.346 169.928 132.248 169.928 133.36V142.082C169.928 143.195 170.834 144.097 171.952 144.097H180.715C181.833 144.097 182.739 143.195 182.739 142.082V133.36C182.739 132.248 181.833 131.346 180.715 131.346Z" fill="#898796"/>
<path d="M158.936 131.346H150.174C149.056 131.346 148.15 132.248 148.15 133.36V142.082C148.15 143.195 149.056 144.097 150.174 144.097H158.936C160.054 144.097 160.96 143.195 160.96 142.082V133.36C160.96 132.248 160.054 131.346 158.936 131.346Z" fill="#898796"/>
<path d="M137.156 131.346H128.393C127.275 131.346 126.369 132.248 126.369 133.36V142.082C126.369 143.195 127.275 144.097 128.393 144.097H137.156C138.274 144.097 139.18 143.195 139.18 142.082V133.36C139.18 132.248 138.274 131.346 137.156 131.346Z" fill="#898796"/>
<path d="M115.382 153.025H106.619C105.501 153.025 104.595 153.927 104.595 155.04V163.762C104.595 164.875 105.501 165.777 106.619 165.777H115.382C116.5 165.777 117.406 164.875 117.406 163.762V155.04C117.406 153.927 116.5 153.025 115.382 153.025Z" fill="#898796"/>
<path d="M93.605 153.025H84.8424C83.7245 153.025 82.8183 153.927 82.8183 155.04V163.762C82.8183 164.875 83.7245 165.777 84.8424 165.777H93.605C94.7229 165.777 95.6291 164.875 95.6291 163.762V155.04C95.6291 153.927 94.7229 153.025 93.605 153.025Z" fill="#898796"/>
<path d="M71.8237 153.025H63.0612C61.9433 153.025 61.037 153.927 61.037 155.04V163.762C61.037 164.875 61.9433 165.777 63.0612 165.777H71.8237C72.9416 165.777 73.8479 164.875 73.8479 163.762V155.04C73.8479 153.927 72.9416 153.025 71.8237 153.025Z" fill="#898796"/>
<path d="M50.0432 153.025H41.2806C40.1627 153.025 39.2565 153.927 39.2565 155.04V163.762C39.2565 164.875 40.1627 165.777 41.2806 165.777H50.0432C51.1611 165.777 52.0673 164.875 52.0673 163.762V155.04C52.0673 153.927 51.1611 153.025 50.0432 153.025Z" fill="#898796"/>
<path d="M180.715 153.025H171.952C170.834 153.025 169.928 153.927 169.928 155.04V163.762C169.928 164.875 170.834 165.777 171.952 165.777H180.715C181.833 165.777 182.739 164.875 182.739 163.762V155.04C182.739 153.927 181.833 153.025 180.715 153.025Z" fill="#898796"/>
<path d="M158.936 153.025H150.174C149.056 153.025 148.15 153.927 148.15 155.04V163.762C148.15 164.875 149.056 165.777 150.174 165.777H158.936C160.054 165.777 160.96 164.875 160.96 163.762V155.04C160.96 153.927 160.054 153.025 158.936 153.025Z" fill="#898796"/>
<path d="M137.156 153.025H128.393C127.275 153.025 126.369 153.927 126.369 155.04V163.762C126.369 164.875 127.275 165.777 128.393 165.777H137.156C138.274 165.777 139.18 164.875 139.18 163.762V155.04C139.18 153.927 138.274 153.025 137.156 153.025Z" fill="#898796"/>
<path d="M115.382 174.7H106.619C105.501 174.7 104.595 175.602 104.595 176.715V185.437C104.595 186.55 105.501 187.452 106.619 187.452H115.382C116.5 187.452 117.406 186.55 117.406 185.437V176.715C117.406 175.602 116.5 174.7 115.382 174.7Z" fill="#898796"/>
<path d="M93.605 174.701H84.8424C83.7245 174.701 82.8183 175.603 82.8183 176.716V185.438C82.8183 186.551 83.7245 187.453 84.8424 187.453H93.605C94.7229 187.453 95.6291 186.551 95.6291 185.438V176.716C95.6291 175.603 94.7229 174.701 93.605 174.701Z" fill="#898796"/>
<path d="M71.8237 174.701H63.0612C61.9433 174.701 61.037 175.603 61.037 176.716V185.438C61.037 186.551 61.9433 187.453 63.0612 187.453H71.8237C72.9416 187.453 73.8479 186.551 73.8479 185.438V176.716C73.8479 175.603 72.9416 174.701 71.8237 174.701Z" fill="#898796"/>
<path d="M50.0432 174.7H41.2806C40.1627 174.7 39.2565 175.602 39.2565 176.715V185.437C39.2565 186.55 40.1627 187.452 41.2806 187.452H50.0432C51.1611 187.452 52.0673 186.55 52.0673 185.437V176.715C52.0673 175.602 51.1611 174.7 50.0432 174.7Z" fill="#898796"/>
<path d="M137.156 174.701H128.393C127.275 174.701 126.369 175.603 126.369 176.716V185.438C126.369 186.551 127.275 187.453 128.393 187.453H137.156C138.274 187.453 139.18 186.551 139.18 185.438V176.716C139.18 175.603 138.274 174.701 137.156 174.701Z" fill="#898796"/>
<path d="M115.382 109.667H106.619C105.501 109.667 104.595 110.57 104.595 111.682V120.404C104.595 121.517 105.501 122.419 106.619 122.419H115.382C116.5 122.419 117.406 121.517 117.406 120.404V111.682C117.406 110.57 116.5 109.667 115.382 109.667Z" fill="#898796"/>
<path d="M93.605 109.668H84.8424C83.7245 109.668 82.8183 110.57 82.8183 111.683V120.405C82.8183 121.517 83.7245 122.419 84.8424 122.419H93.605C94.7229 122.419 95.6291 121.517 95.6291 120.405V111.683C95.6291 110.57 94.7229 109.668 93.605 109.668Z" fill="#898796"/>
<path d="M71.8237 109.668H63.0612C61.9433 109.668 61.037 110.57 61.037 111.683V120.405C61.037 121.517 61.9433 122.419 63.0612 122.419H71.8237C72.9416 122.419 73.8479 121.517 73.8479 120.405V111.683C73.8479 110.57 72.9416 109.668 71.8237 109.668Z" fill="#898796"/>
<path d="M50.0432 109.667H41.2806C40.1627 109.667 39.2565 110.57 39.2565 111.682V120.404C39.2565 121.517 40.1627 122.419 41.2806 122.419H50.0432C51.1611 122.419 52.0673 121.517 52.0673 120.404V111.682C52.0673 110.57 51.1611 109.667 50.0432 109.667Z" fill="#898796"/>
<path d="M180.715 109.667H171.952C170.834 109.667 169.928 110.57 169.928 111.682V120.404C169.928 121.517 170.834 122.419 171.952 122.419H180.715C181.833 122.419 182.739 121.517 182.739 120.404V111.682C182.739 110.57 181.833 109.667 180.715 109.667Z" fill="#898796"/>
<path d="M158.936 109.667H150.174C149.056 109.667 148.15 110.57 148.15 111.682V120.404C148.15 121.517 149.056 122.419 150.174 122.419H158.936C160.054 122.419 160.96 121.517 160.96 120.404V111.682C160.96 110.57 160.054 109.667 158.936 109.667Z" fill="#898796"/>
<path d="M137.156 109.668H128.393C127.275 109.668 126.369 110.57 126.369 111.683V120.405C126.369 121.517 127.275 122.419 128.393 122.419H137.156C138.274 122.419 139.18 121.517 139.18 120.405V111.683C139.18 110.57 138.274 109.668 137.156 109.668Z" fill="#898796"/>
<path d="M115.382 109.667H106.619C105.501 109.667 104.595 110.57 104.595 111.682V120.404C104.595 121.517 105.501 122.419 106.619 122.419H115.382C116.5 122.419 117.406 121.517 117.406 120.404V111.682C117.406 110.57 116.5 109.667 115.382 109.667Z" fill="#898796"/>
<path d="M93.605 109.668H84.8424C83.7245 109.668 82.8183 110.57 82.8183 111.683V120.405C82.8183 121.517 83.7245 122.419 84.8424 122.419H93.605C94.7229 122.419 95.6291 121.517 95.6291 120.405V111.683C95.6291 110.57 94.7229 109.668 93.605 109.668Z" fill="#898796"/>
<path d="M71.8237 109.668H63.0612C61.9433 109.668 61.037 110.57 61.037 111.683V120.405C61.037 121.517 61.9433 122.419 63.0612 122.419H71.8237C72.9416 122.419 73.8479 121.517 73.8479 120.405V111.683C73.8479 110.57 72.9416 109.668 71.8237 109.668Z" fill="#898796"/>
<path d="M50.0432 109.667H41.2806C40.1627 109.667 39.2565 110.57 39.2565 111.682V120.404C39.2565 121.517 40.1627 122.419 41.2806 122.419H50.0432C51.1611 122.419 52.0673 121.517 52.0673 120.404V111.682C52.0673 110.57 51.1611 109.667 50.0432 109.667Z" fill="#898796"/>
<path d="M180.715 109.667H171.952C170.834 109.667 169.928 110.57 169.928 111.682V120.404C169.928 121.517 170.834 122.419 171.952 122.419H180.715C181.833 122.419 182.739 121.517 182.739 120.404V111.682C182.739 110.57 181.833 109.667 180.715 109.667Z" fill="#898796"/>
<path d="M158.936 109.667H150.174C149.056 109.667 148.15 110.57 148.15 111.682V120.404C148.15 121.517 149.056 122.419 150.174 122.419H158.936C160.054 122.419 160.96 121.517 160.96 120.404V111.682C160.96 110.57 160.054 109.667 158.936 109.667Z" fill="#898796"/>
<path d="M137.156 109.668H128.393C127.275 109.668 126.369 110.57 126.369 111.683V120.405C126.369 121.517 127.275 122.419 128.393 122.419H137.156C138.274 122.419 139.18 121.517 139.18 120.405V111.683C139.18 110.57 138.274 109.668 137.156 109.668Z" fill="#898796"/>
<path d="M115.382 87.9908H106.619C105.501 87.9908 104.595 88.8928 104.595 90.0055V98.7275C104.595 99.8402 105.501 100.742 106.619 100.742H115.382C116.5 100.742 117.406 99.8402 117.406 98.7275V90.0055C117.406 88.8928 116.5 87.9908 115.382 87.9908Z" fill="#898796"/>
<path d="M93.605 87.9902H84.8424C83.7245 87.9902 82.8183 88.8923 82.8183 90.005V98.727C82.8183 99.8397 83.7245 100.742 84.8424 100.742H93.605C94.7229 100.742 95.6291 99.8397 95.6291 98.727V90.005C95.6291 88.8923 94.7229 87.9902 93.605 87.9902Z" fill="#898796"/>
<path d="M180.715 87.9908H171.952C170.834 87.9908 169.928 88.8928 169.928 90.0055V98.7275C169.928 99.8402 170.834 100.742 171.952 100.742H180.715C181.833 100.742 182.739 99.8402 182.739 98.7275V90.0055C182.739 88.8928 181.833 87.9908 180.715 87.9908Z" fill="#898796"/>
<path d="M158.936 87.9908H150.174C149.056 87.9908 148.15 88.8928 148.15 90.0055V98.7275C148.15 99.8402 149.056 100.742 150.174 100.742H158.936C160.054 100.742 160.96 99.8402 160.96 98.7275V90.0055C160.96 88.8928 160.054 87.9908 158.936 87.9908Z" fill="#898796"/>
<path d="M137.156 87.9902H128.393C127.275 87.9902 126.369 88.8923 126.369 90.005V98.727C126.369 99.8397 127.275 100.742 128.393 100.742H137.156C138.274 100.742 139.18 99.8397 139.18 98.727V90.005C139.18 88.8923 138.274 87.9902 137.156 87.9902Z" fill="#898796"/>
<path d="M115.382 87.9908H106.619C105.501 87.9908 104.595 88.8928 104.595 90.0055V98.7275C104.595 99.8402 105.501 100.742 106.619 100.742H115.382C116.5 100.742 117.406 99.8402 117.406 98.7275V90.0055C117.406 88.8928 116.5 87.9908 115.382 87.9908Z" fill="#898796"/>
<path d="M93.605 87.9902H84.8424C83.7245 87.9902 82.8183 88.8923 82.8183 90.005V98.727C82.8183 99.8397 83.7245 100.742 84.8424 100.742H93.605C94.7229 100.742 95.6291 99.8397 95.6291 98.727V90.005C95.6291 88.8923 94.7229 87.9902 93.605 87.9902Z" fill="#898796"/>
<path d="M180.715 87.9908H171.952C170.834 87.9908 169.928 88.8928 169.928 90.0055V98.7275C169.928 99.8402 170.834 100.742 171.952 100.742H180.715C181.833 100.742 182.739 99.8402 182.739 98.7275V90.0055C182.739 88.8928 181.833 87.9908 180.715 87.9908Z" fill="#898796"/>
<path d="M158.936 87.9908H150.174C149.056 87.9908 148.15 88.8928 148.15 90.0055V98.7275C148.15 99.8402 149.056 100.742 150.174 100.742H158.936C160.054 100.742 160.96 99.8402 160.96 98.7275V90.0055C160.96 88.8928 160.054 87.9908 158.936 87.9908Z" fill="#898796"/>
<path d="M137.156 87.9902H128.393C127.275 87.9902 126.369 88.8923 126.369 90.005V98.727C126.369 99.8397 127.275 100.742 128.393 100.742H137.156C138.274 100.742 139.18 99.8397 139.18 98.727V90.005C139.18 88.8923 138.274 87.9902 137.156 87.9902Z" fill="#898796"/>
<path d="M27.7285 177.252L55.9122 205.305V177.252H27.7285Z" fill="#3257FB"/>
<path d="M55.9129 206.581C55.7443 206.582 55.5772 206.55 55.4211 206.486C55.265 206.423 55.123 206.329 55.0033 206.211L26.8196 178.158C26.6418 177.979 26.5214 177.751 26.4735 177.503C26.4256 177.256 26.4524 177 26.5505 176.768C26.6466 176.535 26.8099 176.336 27.0196 176.195C27.2293 176.054 27.4762 175.979 27.7291 175.977H55.9129C56.2527 175.977 56.5785 176.112 56.8188 176.351C57.059 176.59 57.194 176.914 57.194 177.253V205.306C57.1927 205.557 57.1166 205.803 56.9753 206.012C56.8339 206.221 56.6337 206.383 56.3997 206.479C56.2477 206.55 56.0809 206.585 55.9129 206.581V206.581ZM30.8165 178.528L54.6318 202.233V178.528H30.8165Z" fill="#34234D"/>
<path d="M111.001 61.2144C110.661 61.2144 110.335 61.0801 110.095 60.8409C109.855 60.6018 109.72 60.2774 109.72 59.9392C109.72 59.6011 109.855 59.2767 110.095 59.0376C110.335 58.7984 110.661 58.6641 111.001 58.6641C112.36 58.6641 113.663 58.1267 114.624 57.1702C115.585 56.2136 116.125 54.9163 116.125 53.5635V45.9126C116.125 44.5598 115.585 43.2625 114.624 42.3059C113.663 41.3494 112.36 40.812 111.001 40.812C109.642 40.812 108.338 41.3494 107.377 42.3059C106.416 43.2625 105.877 44.5598 105.877 45.9126V49.7381C105.877 50.0762 105.742 50.4006 105.501 50.6397C105.261 50.8789 104.935 51.0132 104.595 51.0132C104.256 51.0132 103.93 50.8789 103.69 50.6397C103.449 50.4006 103.314 50.0762 103.314 49.7381V45.9126C103.314 43.8835 104.124 41.9374 105.566 40.5026C107.007 39.0678 108.962 38.2617 111.001 38.2617C113.039 38.2617 114.995 39.0678 116.436 40.5026C117.878 41.9374 118.687 43.8835 118.687 45.9126V53.5635C118.687 55.5926 117.878 57.5387 116.436 58.9735C114.995 60.4083 113.039 61.2144 111.001 61.2144Z" fill="#34234D"/>
<path d="M80.2548 61.2144C79.915 61.2144 79.5892 61.0801 79.3489 60.8409C79.1087 60.6018 78.9737 60.2774 78.9737 59.9392C78.9737 59.6011 79.1087 59.2767 79.3489 59.0376C79.5892 58.7984 79.915 58.6641 80.2548 58.6641C81.6138 58.6641 82.9172 58.1267 83.8782 57.1702C84.8392 56.2136 85.3791 54.9163 85.3791 53.5635V45.9126C85.3791 44.5598 84.8392 43.2625 83.8782 42.3059C82.9172 41.3494 81.6138 40.812 80.2548 40.812C78.8957 40.812 77.5923 41.3494 76.6313 42.3059C75.6703 43.2625 75.1305 44.5598 75.1305 45.9126V49.7381C75.1305 50.0762 74.9955 50.4006 74.7552 50.6397C74.515 50.8789 74.1891 51.0132 73.8494 51.0132C73.5096 51.0132 73.1838 50.8789 72.9435 50.6397C72.7033 50.4006 72.5683 50.0762 72.5683 49.7381V45.9126C72.5683 43.8835 73.3781 41.9374 74.8196 40.5026C76.2611 39.0678 78.2162 38.2617 80.2548 38.2617C82.2934 38.2617 84.2484 39.0678 85.6899 40.5026C87.1314 41.9374 87.9413 43.8835 87.9413 45.9126V53.5635C87.9413 55.5926 87.1314 57.5387 85.6899 58.9735C84.2484 60.4083 82.2934 61.2144 80.2548 61.2144V61.2144Z" fill="#34234D"/>
<path d="M49.5053 61.2139C49.1656 61.2139 48.8397 61.0796 48.5995 60.8404C48.3592 60.6013 48.2242 60.2769 48.2242 59.9388C48.2242 59.6006 48.3592 59.2762 48.5995 59.0371C48.8397 58.798 49.1656 58.6636 49.5053 58.6636C50.8644 58.6636 52.1678 58.1262 53.1288 57.1697C54.0898 56.2131 54.6296 54.9158 54.6296 53.563V45.9121C54.6296 44.5594 54.0898 43.262 53.1288 42.3055C52.1678 41.3489 50.8644 40.8115 49.5053 40.8115C48.1463 40.8115 46.8429 41.3489 45.8819 42.3055C44.9209 43.262 44.381 44.5594 44.381 45.9121V49.7376C44.381 50.0758 44.246 50.4001 44.0058 50.6392C43.7655 50.8784 43.4397 51.0127 43.0999 51.0127C42.7602 51.0127 42.4343 50.8784 42.1941 50.6392C41.9538 50.4001 41.8188 50.0758 41.8188 49.7376V45.9121C41.8188 43.883 42.6287 41.9369 44.0702 40.5021C45.5117 39.0673 47.4667 38.2612 49.5053 38.2612C51.5439 38.2612 53.499 39.0673 54.9405 40.5021C56.382 41.9369 57.1918 43.883 57.1918 45.9121V53.563C57.1918 55.5922 56.382 57.5382 54.9405 58.973C53.499 60.4078 51.5439 61.2139 49.5053 61.2139Z" fill="#34234D"/>
<path d="M172.493 61.2139C172.153 61.2139 171.827 61.0796 171.587 60.8404C171.347 60.6013 171.212 60.2769 171.212 59.9388C171.212 59.6006 171.347 59.2762 171.587 59.0371C171.827 58.798 172.153 58.6636 172.493 58.6636C173.852 58.6636 175.155 58.1262 176.116 57.1697C177.077 56.2131 177.617 54.9158 177.617 53.563V45.9121C177.617 44.5594 177.077 43.262 176.116 42.3055C175.155 41.3489 173.852 40.8115 172.493 40.8115C171.134 40.8115 169.83 41.3489 168.869 42.3055C167.908 43.262 167.369 44.5594 167.369 45.9121V49.7376C167.369 50.0758 167.234 50.4001 166.993 50.6392C166.753 50.8784 166.427 51.0127 166.087 51.0127C165.748 51.0127 165.422 50.8784 165.182 50.6392C164.941 50.4001 164.806 50.0758 164.806 49.7376V45.9121C164.806 43.883 165.616 41.9369 167.058 40.5021C168.499 39.0673 170.454 38.2612 172.493 38.2612C174.531 38.2612 176.487 39.0673 177.928 40.5021C179.369 41.9369 180.179 43.883 180.179 45.9121V53.563C180.179 55.5922 179.369 57.5382 177.928 58.973C176.487 60.4078 174.531 61.2139 172.493 61.2139Z" fill="#34234D"/>
<path d="M141.743 61.2144C141.403 61.2144 141.077 61.0801 140.837 60.8409C140.597 60.6018 140.462 60.2774 140.462 59.9392C140.462 59.6011 140.597 59.2767 140.837 59.0376C141.077 58.7984 141.403 58.6641 141.743 58.6641C143.102 58.6641 144.406 58.1267 145.366 57.1702C146.327 56.2136 146.867 54.9163 146.867 53.5635V45.9126C146.867 44.5598 146.327 43.2625 145.366 42.3059C144.406 41.3494 143.102 40.812 141.743 40.812C140.384 40.812 139.081 41.3494 138.12 42.3059C137.159 43.2625 136.619 44.5598 136.619 45.9126V49.7381C136.619 50.0762 136.484 50.4006 136.244 50.6397C136.003 50.8789 135.677 51.0132 135.338 51.0132C134.998 51.0132 134.672 50.8789 134.432 50.6397C134.192 50.4006 134.057 50.0762 134.057 49.7381V45.9126C134.057 43.8835 134.866 41.9374 136.308 40.5026C137.749 39.0678 139.704 38.2617 141.743 38.2617C143.782 38.2617 145.737 39.0678 147.178 40.5026C148.62 41.9374 149.43 43.8835 149.43 45.9126V53.5635C149.43 55.5926 148.62 57.5387 147.178 58.9735C145.737 60.4083 143.782 61.2144 141.743 61.2144Z" fill="#34234D"/>
<path d="M124.886 147.924H140.656C141.625 147.924 142.553 148.307 143.238 148.988C143.923 149.67 144.307 150.594 144.307 151.558V167.255C144.307 168.219 143.923 169.143 143.238 169.825C142.553 170.506 141.625 170.889 140.656 170.889H124.886C124.407 170.889 123.933 170.795 123.491 170.612C123.049 170.43 122.647 170.162 122.309 169.824C121.971 169.486 121.703 169.086 121.521 168.645C121.339 168.204 121.246 167.732 121.248 167.255V151.545C121.248 150.585 121.631 149.664 122.314 148.985C122.996 148.305 123.921 147.924 124.886 147.924V147.924Z" fill="white"/>
<path d="M140.666 172.149H124.883C123.577 172.146 122.326 171.627 121.404 170.707C120.482 169.786 119.964 168.54 119.964 167.24V151.555C119.964 150.256 120.482 149.009 121.404 148.089C122.326 147.168 123.577 146.649 124.883 146.646H140.666C141.972 146.649 143.223 147.168 144.145 148.089C145.067 149.009 145.585 150.256 145.585 151.555V167.24C145.585 168.54 145.067 169.786 144.145 170.707C143.223 171.627 141.972 172.146 140.666 172.149V172.149ZM124.883 149.196C124.257 149.2 123.657 149.45 123.215 149.892C122.774 150.334 122.526 150.932 122.526 151.555V167.24C122.526 167.863 122.774 168.461 123.215 168.903C123.657 169.345 124.257 169.595 124.883 169.599H140.666C141.292 169.595 141.892 169.345 142.334 168.903C142.775 168.461 143.023 167.863 143.023 167.24V151.555C143.023 150.932 142.775 150.334 142.334 149.892C141.892 149.45 141.292 149.2 140.666 149.196H124.883Z" fill="#34234D"/>
<path d="M146.676 104.568H162.446C163.412 104.572 164.338 104.956 165.019 105.637C165.701 106.318 166.084 107.241 166.084 108.202V123.887C166.084 124.851 165.7 125.775 165.015 126.457C164.33 127.138 163.402 127.521 162.433 127.521H146.663C145.698 127.521 144.773 127.139 144.091 126.46C143.408 125.781 143.025 124.86 143.025 123.9V108.202C143.025 107.239 143.41 106.314 144.094 105.633C144.779 104.951 145.708 104.568 146.676 104.568Z" fill="white"/>
<path d="M162.446 128.796H146.663C145.358 128.793 144.106 128.274 143.184 127.354C142.262 126.433 141.744 125.186 141.744 123.887V108.202C141.744 106.902 142.262 105.656 143.184 104.735C144.106 103.815 145.358 103.296 146.663 103.293H162.446C163.752 103.296 165.003 103.815 165.926 104.735C166.848 105.656 167.366 106.902 167.366 108.202V123.887C167.366 125.186 166.848 126.433 165.926 127.354C165.003 128.274 163.752 128.793 162.446 128.796V128.796ZM146.663 105.843C146.037 105.847 145.438 106.097 144.996 106.539C144.554 106.981 144.306 107.579 144.306 108.202V123.887C144.306 124.51 144.554 125.108 144.996 125.55C145.438 125.992 146.037 126.242 146.663 126.246H162.446C163.073 126.242 163.672 125.992 164.114 125.55C164.556 125.108 164.804 124.51 164.804 123.887V108.202C164.804 107.579 164.556 106.981 164.114 106.539C163.672 106.097 163.073 105.847 162.446 105.843H146.663Z" fill="#34234D"/>
<path d="M75.3204 126.244H59.5631C57.5467 126.244 55.912 127.871 55.912 129.878V145.563C55.912 147.57 57.5467 149.197 59.5631 149.197H75.3204C77.3368 149.197 78.9715 147.57 78.9715 145.563V129.878C78.9715 127.871 77.3368 126.244 75.3204 126.244Z" fill="white"/>
<path d="M75.3329 150.474H59.55C58.2441 150.47 56.9929 149.952 56.0707 149.031C55.1485 148.111 54.6306 146.864 54.6306 145.565V129.88C54.6306 128.58 55.1485 127.334 56.0707 126.413C56.9929 125.493 58.2441 124.974 59.55 124.971H75.3329C76.6388 124.974 77.89 125.493 78.8122 126.413C79.7344 127.334 80.2522 128.58 80.2522 129.88V145.565C80.2522 146.864 79.7344 148.111 78.8122 149.031C77.89 149.952 76.6388 150.47 75.3329 150.474V150.474ZM59.55 127.521C58.9237 127.525 58.3241 127.775 57.8824 128.217C57.4407 128.659 57.1928 129.257 57.1928 129.88V145.565C57.1928 146.188 57.4407 146.786 57.8824 147.228C58.3241 147.67 58.9237 147.92 59.55 147.924H75.3329C75.9592 147.92 76.5588 147.67 77.0005 147.228C77.4422 146.786 77.6901 146.188 77.6901 145.565V129.88C77.6901 129.257 77.4422 128.659 77.0005 128.217C76.5588 127.775 75.9592 127.525 75.3329 127.521H59.55Z" fill="#34234D"/>
<path d="M103.122 82.8901H118.879C119.847 82.8901 120.776 83.273 121.461 83.9546C122.145 84.6361 122.53 85.5605 122.53 86.5243V102.209C122.53 103.172 122.145 104.097 121.461 104.778C120.776 105.46 119.847 105.843 118.879 105.843H103.109C102.144 105.843 101.218 105.461 100.536 104.782C99.8538 104.103 99.4705 103.182 99.4705 102.221V86.5243C99.4705 85.5605 99.8552 84.6361 100.54 83.9546C101.225 83.273 102.153 82.8901 103.122 82.8901Z" fill="white"/>
<path d="M118.892 107.118H103.109C101.803 107.115 100.552 106.596 99.6295 105.676C98.7073 104.756 98.1894 103.509 98.1894 102.209V86.5246C98.1894 85.2247 98.7073 83.9779 99.6295 83.0576C100.552 82.1373 101.803 81.6186 103.109 81.6152H118.892C120.197 81.6186 121.449 82.1373 122.371 83.0576C123.293 83.9779 123.811 85.2247 123.811 86.5246V102.209C123.811 103.509 123.293 104.756 122.371 105.676C121.449 106.596 120.197 107.115 118.892 107.118V107.118ZM103.109 84.1655C102.482 84.1689 101.883 84.4189 101.441 84.861C100.999 85.303 100.752 85.9011 100.752 86.5246V102.209C100.752 102.832 100.999 103.43 101.441 103.872C101.883 104.315 102.482 104.565 103.109 104.568H118.892C119.518 104.565 120.117 104.315 120.559 103.872C121.001 103.43 121.249 102.832 121.249 102.209V86.5246C121.249 85.9011 121.001 85.303 120.559 84.861C120.117 84.4189 119.518 84.1689 118.892 84.1655H103.109Z" fill="#34234D"/>
<path d="M134.812 166.411C134.391 166.412 133.974 166.331 133.585 166.171C133.196 166.011 132.842 165.777 132.545 165.48L126.665 159.627C126.063 159.029 125.725 158.217 125.725 157.37C125.725 156.524 126.063 155.712 126.665 155.113C127.266 154.515 128.082 154.178 128.932 154.178C129.783 154.178 130.598 154.515 131.2 155.113L134.812 158.709L144.6 148.967C145.201 148.368 146.017 148.032 146.867 148.032C147.718 148.032 148.533 148.368 149.135 148.967C149.736 149.566 150.074 150.377 150.074 151.224C150.074 152.071 149.736 152.882 149.135 153.481L137.08 165.48C136.782 165.777 136.429 166.011 136.04 166.171C135.65 166.331 135.233 166.412 134.812 166.411V166.411Z" fill="#FE6969"/>
<path d="M156.593 123.057C156.172 123.058 155.755 122.977 155.365 122.817C154.976 122.657 154.623 122.422 154.325 122.126L148.445 116.273C148.147 115.976 147.911 115.625 147.75 115.237C147.589 114.85 147.506 114.435 147.506 114.016C147.506 113.597 147.589 113.182 147.75 112.794C147.911 112.407 148.147 112.055 148.445 111.759C148.743 111.462 149.096 111.227 149.485 111.067C149.874 110.907 150.291 110.824 150.713 110.824C151.134 110.824 151.551 110.907 151.94 111.067C152.329 111.227 152.682 111.462 152.98 111.759L156.593 115.355L166.38 105.613C166.678 105.316 167.031 105.081 167.42 104.921C167.81 104.76 168.227 104.678 168.648 104.678C169.069 104.678 169.486 104.76 169.875 104.921C170.264 105.081 170.617 105.316 170.915 105.613C171.213 105.909 171.449 106.261 171.61 106.648C171.771 107.035 171.854 107.45 171.854 107.87C171.854 108.289 171.771 108.704 171.61 109.091C171.449 109.478 171.213 109.83 170.915 110.127L158.86 122.126C158.563 122.422 158.209 122.657 157.82 122.817C157.431 122.977 157.014 123.058 156.593 123.057Z" fill="#FE6969"/>
<path d="M69.4793 144.734C69.0583 144.736 68.6412 144.654 68.2521 144.494C67.8629 144.335 67.5093 144.1 67.2118 143.803L61.3316 137.951C61.0339 137.654 60.7976 137.302 60.6365 136.915C60.4753 136.528 60.3924 136.113 60.3924 135.694C60.3924 135.274 60.4753 134.859 60.6365 134.472C60.7976 134.085 61.0339 133.733 61.3316 133.436C61.6294 133.14 61.9829 132.905 62.372 132.745C62.761 132.584 63.178 132.502 63.5991 132.502C64.0203 132.502 64.4372 132.584 64.8263 132.745C65.2154 132.905 65.5689 133.14 65.8667 133.436L69.4793 137.032L79.2667 127.29C79.8681 126.692 80.6838 126.355 81.5343 126.355C82.3847 126.355 83.2004 126.692 83.8018 127.29C84.4031 127.889 84.741 128.701 84.741 129.547C84.741 130.394 84.4031 131.206 83.8018 131.804L71.7468 143.803C71.4493 144.1 71.0957 144.335 70.7065 144.494C70.3174 144.654 69.9003 144.736 69.4793 144.734V144.734Z" fill="#FE6969"/>
<path d="M113.038 101.379C112.617 101.38 112.2 101.299 111.811 101.139C111.422 100.979 111.068 100.744 110.771 100.448L104.89 94.5951C104.593 94.2987 104.356 93.9469 104.195 93.5596C104.034 93.1723 103.951 92.7573 103.951 92.3381C103.951 91.919 104.034 91.5039 104.195 91.1166C104.356 90.7294 104.593 90.3775 104.89 90.0811C105.188 89.7847 105.542 89.5496 105.931 89.3892C106.32 89.2288 106.737 89.1462 107.158 89.1462C107.579 89.1462 107.996 89.2288 108.385 89.3892C108.774 89.5496 109.128 89.7847 109.425 90.0811L113.038 93.677L122.825 83.9349C123.427 83.3363 124.243 83 125.093 83C125.943 83 126.759 83.3363 127.36 83.9349C127.962 84.5335 128.3 85.3453 128.3 86.1919C128.3 87.0384 127.962 87.8503 127.36 88.4489L115.306 100.448C115.008 100.744 114.654 100.979 114.265 101.139C113.876 101.299 113.459 101.38 113.038 101.379V101.379Z" fill="#FE6969"/>
<path d="M21.322 197.655C21.1534 197.656 20.9863 197.623 20.8302 197.56C20.6741 197.496 20.5321 197.403 20.4124 197.285L16.5692 193.459C16.328 193.219 16.1924 192.894 16.1924 192.554C16.1924 192.214 16.328 191.889 16.5692 191.649C16.8104 191.409 17.1376 191.274 17.4788 191.274C17.8199 191.274 18.1471 191.409 18.3883 191.649L22.2316 195.474C22.3516 195.593 22.447 195.734 22.512 195.889C22.577 196.044 22.6105 196.211 22.6105 196.379C22.6105 196.548 22.577 196.714 22.512 196.87C22.447 197.025 22.3516 197.166 22.2316 197.285C22.1119 197.403 21.9699 197.496 21.8138 197.56C21.6577 197.623 21.4906 197.656 21.322 197.655V197.655Z" fill="#898796"/>
<path d="M30.2917 206.58C30.1231 206.581 29.9559 206.549 29.7999 206.486C29.6438 206.422 29.5018 206.329 29.3821 206.211L25.5389 202.385C25.2976 202.145 25.1621 201.819 25.1621 201.48C25.1621 201.14 25.2976 200.815 25.5389 200.574C25.7801 200.334 26.1073 200.199 26.4484 200.199C26.7896 200.199 27.1168 200.334 27.358 200.574L31.2012 204.4C31.3213 204.518 31.4166 204.659 31.4817 204.815C31.5467 204.97 31.5802 205.137 31.5802 205.305C31.5802 205.474 31.5467 205.64 31.4817 205.796C31.4166 205.951 31.3213 206.092 31.2012 206.211C31.0815 206.329 30.9396 206.422 30.7835 206.486C30.6274 206.549 30.4603 206.581 30.2917 206.58Z" fill="#898796"/>
<path d="M17.481 206.58C17.3124 206.581 17.1452 206.549 16.9891 206.486C16.8331 206.422 16.6911 206.329 16.5714 206.211C16.4513 206.092 16.356 205.951 16.291 205.796C16.2259 205.64 16.1924 205.474 16.1924 205.305C16.1924 205.137 16.2259 204.97 16.291 204.815C16.356 204.659 16.4513 204.518 16.5714 204.4L20.4146 200.574C20.5341 200.456 20.6759 200.361 20.8319 200.297C20.988 200.233 21.1553 200.199 21.3242 200.199C21.4931 200.199 21.6604 200.233 21.8164 200.297C21.9725 200.361 22.1143 200.456 22.2338 200.574C22.3532 200.693 22.448 200.834 22.5126 200.99C22.5772 201.145 22.6105 201.312 22.6105 201.48C22.6105 201.648 22.5772 201.814 22.5126 201.97C22.448 202.125 22.3532 202.266 22.2338 202.385L18.3905 206.211C18.2708 206.329 18.1289 206.422 17.9728 206.486C17.8167 206.549 17.6496 206.581 17.481 206.58Z" fill="#898796"/>
<path d="M26.4466 197.654C26.2781 197.655 26.1109 197.623 25.9548 197.56C25.7988 197.496 25.6568 197.403 25.5371 197.285C25.417 197.166 25.3217 197.025 25.2567 196.87C25.1916 196.714 25.1581 196.548 25.1581 196.379C25.1581 196.211 25.1916 196.044 25.2567 195.889C25.3217 195.733 25.417 195.592 25.5371 195.474L29.3803 191.648C29.6216 191.408 29.9487 191.273 30.2899 191.273C30.631 191.273 30.9582 191.408 31.1995 191.648C31.4407 191.889 31.5762 192.214 31.5762 192.554C31.5762 192.893 31.4407 193.219 31.1995 193.459L27.3562 197.285C27.2365 197.403 27.0945 197.496 26.9385 197.56C26.7824 197.623 26.6152 197.655 26.4466 197.654Z" fill="#898796"/>
<path d="M5.94786 131.346C5.77926 131.347 5.61213 131.315 5.45605 131.252C5.29996 131.188 5.158 131.095 5.03829 130.976L1.19505 127.151C0.953821 126.911 0.818298 126.585 0.818298 126.246C0.818298 125.906 0.953821 125.58 1.19505 125.34C1.43629 125.1 1.76347 124.965 2.10462 124.965C2.44577 124.965 2.77296 125.1 3.01419 125.34L6.85743 129.166C6.9775 129.284 7.07281 129.425 7.13785 129.581C7.20288 129.736 7.23637 129.903 7.23637 130.071C7.23637 130.239 7.20288 130.406 7.13785 130.561C7.07281 130.717 6.9775 130.858 6.85743 130.976C6.73772 131.095 6.59576 131.188 6.43968 131.252C6.28359 131.315 6.11646 131.347 5.94786 131.346Z" fill="#898796"/>
<path d="M14.9175 140.272C14.7489 140.273 14.5818 140.241 14.4257 140.177C14.2696 140.114 14.1277 140.02 14.008 139.902L10.1647 136.077C10.0453 135.958 9.95052 135.817 9.88588 135.661C9.82124 135.506 9.78796 135.339 9.78796 135.171C9.78796 135.003 9.82124 134.837 9.88588 134.681C9.95052 134.526 10.0453 134.385 10.1647 134.266C10.2842 134.147 10.426 134.053 10.582 133.988C10.7381 133.924 10.9054 133.891 11.0743 133.891C11.2432 133.891 11.4105 133.924 11.5665 133.988C11.7226 134.053 11.8644 134.147 11.9839 134.266L15.8271 138.091C15.9472 138.21 16.0425 138.351 16.1075 138.506C16.1725 138.662 16.206 138.828 16.206 138.997C16.206 139.165 16.1725 139.332 16.1075 139.487C16.0425 139.643 15.9472 139.784 15.8271 139.902C15.7074 140.02 15.5654 140.114 15.4093 140.177C15.2533 140.241 15.0861 140.273 14.9175 140.272Z" fill="#898796"/>
<path d="M2.10681 140.272C1.93821 140.273 1.77108 140.241 1.61499 140.177C1.45891 140.114 1.31694 140.02 1.19724 139.902C1.07717 139.784 0.981861 139.643 0.916822 139.487C0.851784 139.332 0.818298 139.165 0.818298 138.997C0.818298 138.828 0.851784 138.662 0.916822 138.506C0.981861 138.351 1.07717 138.21 1.19724 138.091L5.04048 134.266C5.28171 134.026 5.60889 133.891 5.95005 133.891C6.2912 133.891 6.61838 134.026 6.85961 134.266C7.10085 134.506 7.23637 134.832 7.23637 135.171C7.23637 135.511 7.10085 135.837 6.85961 136.077L3.01637 139.902C2.89667 140.02 2.75471 140.114 2.59862 140.177C2.44254 140.241 2.27541 140.273 2.10681 140.272V140.272Z" fill="#898796"/>
<path d="M11.0765 131.346C10.9079 131.347 10.7407 131.315 10.5847 131.252C10.4286 131.188 10.2866 131.095 10.1669 130.976C10.0468 130.858 9.95153 130.717 9.88649 130.561C9.82145 130.406 9.78796 130.239 9.78796 130.071C9.78796 129.903 9.82145 129.736 9.88649 129.581C9.95153 129.425 10.0468 129.284 10.1669 129.166L14.0101 125.34C14.1296 125.221 14.2714 125.127 14.4275 125.063C14.5835 124.998 14.7508 124.965 14.9197 124.965C15.0886 124.965 15.2559 124.998 15.412 125.063C15.568 125.127 15.7098 125.221 15.8293 125.34C15.9487 125.459 16.0435 125.6 16.1081 125.756C16.1728 125.911 16.206 126.077 16.206 126.246C16.206 126.414 16.1728 126.58 16.1081 126.736C16.0435 126.891 15.9487 127.032 15.8293 127.151L11.986 130.976C11.8663 131.095 11.7244 131.188 11.5683 131.252C11.4122 131.315 11.2451 131.347 11.0765 131.346V131.346Z" fill="#898796"/>
<path d="M210.925 153.023C210.757 153.024 210.589 152.992 210.433 152.928C210.277 152.865 210.135 152.771 210.016 152.653L206.172 148.828C205.931 148.588 205.796 148.262 205.796 147.922C205.796 147.583 205.931 147.257 206.172 147.017C206.414 146.777 206.741 146.642 207.082 146.642C207.423 146.642 207.75 146.777 207.991 147.017L211.835 150.842C211.955 150.961 212.05 151.102 212.115 151.257C212.18 151.413 212.214 151.579 212.214 151.748C212.214 151.916 212.18 152.083 212.115 152.238C212.05 152.394 211.955 152.535 211.835 152.653C211.715 152.771 211.573 152.865 211.417 152.928C211.261 152.992 211.094 153.024 210.925 153.023V153.023Z" fill="#898796"/>
<path d="M219.893 161.949C219.725 161.95 219.557 161.918 219.401 161.855C219.245 161.791 219.103 161.698 218.984 161.58L215.14 157.754C214.899 157.514 214.764 157.188 214.764 156.849C214.764 156.509 214.899 156.183 215.14 155.943C215.382 155.703 215.709 155.568 216.05 155.568C216.391 155.568 216.718 155.703 216.96 155.943L220.803 159.769C220.923 159.887 221.018 160.028 221.083 160.184C221.148 160.339 221.182 160.506 221.182 160.674C221.182 160.842 221.148 161.009 221.083 161.165C221.018 161.32 220.923 161.461 220.803 161.58C220.683 161.698 220.541 161.791 220.385 161.855C220.229 161.918 220.062 161.95 219.893 161.949V161.949Z" fill="#898796"/>
<path d="M207.079 161.949C206.911 161.95 206.744 161.918 206.588 161.855C206.432 161.791 206.29 161.698 206.17 161.58C206.05 161.461 205.955 161.32 205.889 161.165C205.824 161.009 205.791 160.842 205.791 160.674C205.791 160.506 205.824 160.339 205.889 160.184C205.955 160.028 206.05 159.887 206.17 159.769L210.013 155.943C210.254 155.703 210.582 155.568 210.923 155.568C211.264 155.568 211.591 155.703 211.832 155.943C212.073 156.183 212.209 156.509 212.209 156.849C212.209 157.188 212.073 157.514 211.832 157.754L207.989 161.58C207.869 161.698 207.727 161.791 207.571 161.855C207.415 161.918 207.248 161.95 207.079 161.949V161.949Z" fill="#898796"/>
<path d="M216.045 153.023C215.877 153.024 215.71 152.992 215.553 152.928C215.397 152.865 215.255 152.771 215.136 152.653C215.016 152.535 214.92 152.394 214.855 152.238C214.79 152.083 214.757 151.916 214.757 151.748C214.757 151.579 214.79 151.413 214.855 151.257C214.92 151.102 215.016 150.961 215.136 150.842L218.979 147.017C219.098 146.898 219.24 146.804 219.396 146.739C219.552 146.675 219.72 146.642 219.889 146.642C220.057 146.642 220.225 146.675 220.381 146.739C220.537 146.804 220.679 146.898 220.798 147.017C220.918 147.136 221.012 147.277 221.077 147.432C221.142 147.588 221.175 147.754 221.175 147.922C221.175 148.09 221.142 148.257 221.077 148.412C221.012 148.568 220.918 148.709 220.798 148.828L216.955 152.653C216.835 152.771 216.693 152.865 216.537 152.928C216.381 152.992 216.214 153.024 216.045 153.023V153.023Z" fill="#898796"/>
<path d="M176.331 12.756C176.162 12.7569 175.995 12.7248 175.839 12.6613C175.683 12.5979 175.541 12.5044 175.421 12.3862L171.578 8.56072C171.337 8.32061 171.201 7.99494 171.201 7.65537C171.201 7.31579 171.337 6.99013 171.578 6.75001C171.819 6.5099 172.146 6.375 172.487 6.375C172.829 6.375 173.156 6.5099 173.397 6.75001L177.24 10.5755C177.36 10.694 177.456 10.835 177.521 10.9904C177.586 11.1458 177.619 11.3125 177.619 11.4808C177.619 11.6491 177.586 11.8158 177.521 11.9712C177.456 12.1266 177.36 12.2676 177.24 12.3862C177.121 12.5044 176.979 12.5979 176.822 12.6613C176.666 12.7248 176.499 12.7569 176.331 12.756Z" fill="#898796"/>
<path d="M185.303 21.6817C185.135 21.6827 184.968 21.6506 184.812 21.5871C184.655 21.5236 184.513 21.4301 184.394 21.312L180.551 17.4865C180.309 17.2464 180.174 16.9207 180.174 16.5811C180.174 16.2416 180.309 15.9159 180.551 15.6758C180.792 15.4357 181.119 15.3008 181.46 15.3008C181.801 15.3008 182.128 15.4357 182.37 15.6758L186.213 19.5012C186.333 19.6198 186.428 19.7608 186.493 19.9162C186.558 20.0716 186.592 20.2383 186.592 20.4066C186.592 20.5749 186.558 20.7416 186.493 20.897C186.428 21.0524 186.333 21.1934 186.213 21.312C186.093 21.4301 185.951 21.5236 185.795 21.5871C185.639 21.6506 185.472 21.6827 185.303 21.6817Z" fill="#898796"/>
<path d="M172.49 21.6817C172.321 21.6827 172.154 21.6506 171.998 21.5871C171.842 21.5236 171.7 21.4301 171.58 21.312C171.46 21.1934 171.365 21.0524 171.3 20.897C171.235 20.7416 171.201 20.5749 171.201 20.4066C171.201 20.2383 171.235 20.0716 171.3 19.9162C171.365 19.7608 171.46 19.6198 171.58 19.5012L175.423 15.6758C175.543 15.5569 175.685 15.4626 175.841 15.3982C175.997 15.3339 176.164 15.3008 176.333 15.3008C176.502 15.3008 176.669 15.3339 176.825 15.3982C176.981 15.4626 177.123 15.5569 177.242 15.6758C177.362 15.7947 177.457 15.9358 177.521 16.0912C177.586 16.2465 177.619 16.413 177.619 16.5811C177.619 16.7493 177.586 16.9158 177.521 17.0711C177.457 17.2265 177.362 17.3676 177.242 17.4865L173.399 21.312C173.279 21.4301 173.138 21.5236 172.981 21.5871C172.825 21.6506 172.658 21.6827 172.49 21.6817Z" fill="#898796"/>
<path d="M181.458 12.7557C181.289 12.7567 181.122 12.7245 180.966 12.6611C180.81 12.5976 180.668 12.5041 180.548 12.3859C180.428 12.2674 180.333 12.1264 180.268 11.971C180.203 11.8156 180.169 11.6489 180.169 11.4806C180.169 11.3122 180.203 11.1456 180.268 10.9902C180.333 10.8348 180.428 10.6938 180.548 10.5752L184.391 6.74977C184.511 6.63087 184.653 6.53656 184.809 6.47222C184.965 6.40787 185.132 6.37476 185.301 6.37476C185.47 6.37476 185.637 6.40787 185.793 6.47222C185.949 6.53656 186.091 6.63087 186.211 6.74977C186.33 6.86866 186.425 7.00981 186.489 7.16515C186.554 7.32049 186.587 7.48698 186.587 7.65512C186.587 7.82326 186.554 7.98976 186.489 8.1451C186.425 8.30044 186.33 8.44159 186.211 8.56048L182.367 12.3859C182.248 12.5041 182.106 12.5976 181.95 12.6611C181.793 12.7245 181.626 12.7567 181.458 12.7557Z" fill="#898796"/>
<path d="M130.213 21.6817C130.045 21.6827 129.878 21.6506 129.722 21.5871C129.566 21.5236 129.424 21.4301 129.304 21.312L125.461 17.4865C125.219 17.2464 125.084 16.9207 125.084 16.5811C125.084 16.2416 125.219 15.9159 125.461 15.6758C125.702 15.4357 126.029 15.3008 126.37 15.3008C126.711 15.3008 127.039 15.4357 127.28 15.6758L131.123 19.5012C131.243 19.6198 131.338 19.7608 131.403 19.9162C131.468 20.0716 131.502 20.2383 131.502 20.4066C131.502 20.5749 131.468 20.7416 131.403 20.897C131.338 21.0524 131.243 21.1934 131.123 21.312C131.003 21.4301 130.861 21.5236 130.705 21.5871C130.549 21.6506 130.382 21.6827 130.213 21.6817Z" fill="#898796"/>
<path d="M139.186 30.6075C139.018 30.6085 138.85 30.5763 138.694 30.5129C138.538 30.4494 138.396 30.3559 138.277 30.2377L134.433 26.4123C134.192 26.1722 134.057 25.8465 134.057 25.5069C134.057 25.1674 134.192 24.8417 134.433 24.6016C134.675 24.3615 135.002 24.2266 135.343 24.2266C135.684 24.2266 136.011 24.3615 136.252 24.6016L140.096 28.427C140.216 28.5456 140.311 28.6866 140.376 28.842C140.441 28.9974 140.475 29.164 140.475 29.3324C140.475 29.5007 140.441 29.6674 140.376 29.8228C140.311 29.9782 140.216 30.1192 140.096 30.2377C139.976 30.3559 139.834 30.4494 139.678 30.5129C139.522 30.5763 139.355 30.6085 139.186 30.6075Z" fill="#898796"/>
<path d="M126.368 30.6073C126.2 30.6082 126.033 30.5761 125.877 30.5126C125.721 30.4492 125.579 30.3557 125.459 30.2375C125.339 30.1189 125.243 29.9779 125.178 29.8225C125.113 29.6671 125.08 29.5005 125.08 29.3321C125.08 29.1638 125.113 28.9971 125.178 28.8417C125.243 28.6863 125.339 28.5453 125.459 28.4268L129.302 24.6013C129.543 24.3612 129.87 24.2263 130.212 24.2263C130.553 24.2263 130.88 24.3612 131.121 24.6013C131.362 24.8414 131.498 25.1671 131.498 25.5067C131.498 25.8463 131.362 26.1719 131.121 26.412L127.278 30.2375C127.158 30.3557 127.016 30.4492 126.86 30.5126C126.704 30.5761 126.537 30.6082 126.368 30.6073Z" fill="#898796"/>
<path d="M135.338 21.6815C135.169 21.6825 135.002 21.6503 134.846 21.5868C134.69 21.5234 134.548 21.4299 134.429 21.3117C134.308 21.1932 134.213 21.0521 134.148 20.8967C134.083 20.7414 134.05 20.5747 134.05 20.4064C134.05 20.238 134.083 20.0713 134.148 19.916C134.213 19.7606 134.308 19.6195 134.429 19.501L138.272 15.6755C138.513 15.4354 138.84 15.3005 139.181 15.3005C139.522 15.3005 139.85 15.4354 140.091 15.6755C140.332 15.9157 140.468 16.2413 140.468 16.5809C140.468 16.9205 140.332 17.2461 140.091 17.4863L136.248 21.3117C136.128 21.4299 135.986 21.5234 135.83 21.5868C135.674 21.6503 135.507 21.6825 135.338 21.6815Z" fill="#898796"/>
<path d="M77.6901 6.38096C77.5215 6.38193 77.3543 6.34977 77.1982 6.28631C77.0422 6.22285 76.9002 6.12935 76.7805 6.01117L72.9372 2.18572C72.696 1.94561 72.5605 1.61994 72.5605 1.28037C72.5605 0.940792 72.696 0.615126 72.9372 0.375011C73.1785 0.134895 73.5057 8.76427e-09 73.8468 0C74.188 -8.76427e-09 74.5151 0.134895 74.7564 0.375011L78.5996 4.20046C78.7197 4.319 78.815 4.46003 78.88 4.61542C78.9451 4.77081 78.9786 4.93748 78.9786 5.10581C78.9786 5.27415 78.9451 5.44082 78.88 5.59621C78.815 5.7516 78.7197 5.89263 78.5996 6.01117C78.4799 6.12935 78.338 6.22285 78.1819 6.28631C78.0258 6.34977 77.8587 6.38193 77.6901 6.38096Z" fill="#898796"/>
<path d="M86.6579 15.3067C86.4893 15.3077 86.3222 15.2755 86.1661 15.2121C86.01 15.1486 85.868 15.0551 85.7483 14.937L81.9051 11.1115C81.6638 10.8714 81.5283 10.5457 81.5283 10.2061C81.5283 9.86657 81.6638 9.54091 81.9051 9.30079C82.1463 9.06068 82.4735 8.92578 82.8146 8.92578C83.1558 8.92578 83.483 9.06068 83.7242 9.30079L87.5675 13.1262C87.6875 13.2448 87.7828 13.3858 87.8479 13.5412C87.9129 13.6966 87.9464 13.8633 87.9464 14.0316C87.9464 14.1999 87.9129 14.3666 87.8479 14.522C87.7828 14.6774 87.6875 14.8184 87.5675 14.937C87.4478 15.0551 87.3058 15.1486 87.1497 15.2121C86.9936 15.2755 86.8265 15.3077 86.6579 15.3067Z" fill="#898796"/>
<path d="M73.849 15.3067C73.6804 15.3077 73.5133 15.2755 73.3572 15.2121C73.2011 15.1486 73.0591 15.0551 72.9394 14.937C72.8194 14.8184 72.7241 14.6774 72.659 14.522C72.594 14.3666 72.5605 14.1999 72.5605 14.0316C72.5605 13.8633 72.594 13.6966 72.659 13.5412C72.7241 13.3858 72.8194 13.2448 72.9394 13.1262L76.7827 9.30079C76.9021 9.1819 77.0439 9.08759 77.2 9.02324C77.356 8.9589 77.5233 8.92578 77.6922 8.92578C77.8612 8.92578 78.0284 8.9589 78.1845 9.02324C78.3406 9.08759 78.4824 9.1819 78.6018 9.30079C78.7213 9.41969 78.816 9.56083 78.8806 9.71617C78.9453 9.87151 78.9786 10.038 78.9786 10.2061C78.9786 10.3743 78.9453 10.5408 78.8806 10.6961C78.816 10.8515 78.7213 10.9926 78.6018 11.1115L74.7586 14.937C74.6389 15.0551 74.4969 15.1486 74.3408 15.2121C74.1847 15.2755 74.0176 15.3077 73.849 15.3067Z" fill="#898796"/>
<path d="M82.814 6.38096C82.6454 6.38193 82.4783 6.34977 82.3222 6.28631C82.1661 6.22285 82.0241 6.12935 81.9044 6.01117C81.7844 5.89263 81.689 5.7516 81.624 5.59621C81.559 5.44082 81.5255 5.27415 81.5255 5.10581C81.5255 4.93748 81.559 4.77081 81.624 4.61542C81.689 4.46003 81.7844 4.319 81.9044 4.20046L85.7477 0.375011C85.9889 0.134895 86.3161 -8.76427e-09 86.6572 0C86.9984 8.76427e-09 87.3256 0.134895 87.5668 0.375011C87.808 0.615126 87.9436 0.940792 87.9436 1.28037C87.9436 1.61994 87.808 1.94561 87.5668 2.18572L83.7236 6.01117C83.6039 6.12935 83.4619 6.22285 83.3058 6.28631C83.1497 6.34977 82.9826 6.38193 82.814 6.38096Z" fill="#898796"/>
</svg>
