<svg width="220" height="207" viewBox="0 0 220 207" fill="none" xmlns="http://www.w3.org/2000/svg">
<path d="M192.604 86.8877C189.445 71.2349 199.524 47.6216 188.165 34.7927C176.807 21.9638 152.045 28.9405 136.862 23.8677C121.193 18.6288 105.563 -1.62397 89.3573 1.62159C73.6631 4.7777 67.1271 29.1833 54.2597 40.5171C41.3922 51.851 16.2713 55.2499 11.1806 70.3916C5.92361 86.0188 24.1376 103.997 27.3992 120.11C30.5585 135.763 20.4794 159.376 31.8376 172.205C43.1957 185.034 67.9585 178.019 83.1411 183.092C98.8097 188.33 114.44 208.647 130.646 205.338C146.34 202.182 152.876 177.776 165.743 166.442C178.611 155.108 203.732 151.709 208.822 136.568C214.079 120.979 195.865 103 192.604 86.8877Z" fill="white"/>
<path d="M146.285 67.2118L139.148 74.329C175.691 110.784 193.189 154.931 177.367 170.725L184.491 177.842C204.867 157.512 188.021 108.918 146.285 67.2118Z" fill="#FD6969"/>
<path d="M35.4414 29.0689L42.5658 36.1861C58.4007 20.3928 102.682 37.86 139.148 74.3278L146.286 67.2106C104.498 25.555 55.8042 8.73944 35.4414 29.0689Z" fill="#FE6A6A"/>
<path d="M184.492 179.12C184.154 179.115 183.832 178.977 183.596 178.736C183.358 178.497 183.224 178.173 183.224 177.835C183.224 177.498 183.358 177.174 183.596 176.935C194.865 165.69 194.648 144.901 182.995 119.907C182.879 119.605 182.882 119.27 183.004 118.97C183.125 118.669 183.357 118.426 183.651 118.29C183.945 118.154 184.28 118.134 184.588 118.235C184.896 118.336 185.154 118.55 185.31 118.834C197.449 144.85 197.474 166.687 185.4 178.736C185.281 178.857 185.14 178.953 184.984 179.019C184.828 179.085 184.661 179.119 184.492 179.12Z" fill="#34234D"/>
<path d="M94.1755 30.7572C93.988 30.7654 93.8007 30.7349 93.6255 30.6678C68.5174 18.9633 47.6429 18.7205 36.3488 30.0033C36.0977 30.2439 35.7613 30.3751 35.4135 30.3679C35.0657 30.3607 34.735 30.2158 34.4941 29.965C34.2533 29.7142 34.122 29.3781 34.1292 29.0307C34.1364 28.6832 34.2815 28.3528 34.5325 28.1122C46.6325 16.0372 68.5685 16.0883 94.7127 28.2783C94.9718 28.4036 95.181 28.6125 95.3065 28.8713C95.4321 29.13 95.4665 29.4235 95.4044 29.7043C95.3423 29.985 95.1872 30.2367 94.9642 30.4185C94.7412 30.6003 94.4633 30.7016 94.1755 30.7061V30.7572Z" fill="#34234D"/>
<path d="M42.5628 37.4638C42.3098 37.4627 42.0628 37.3867 41.8531 37.2455C41.6433 37.1042 41.4802 36.904 41.3844 36.6701C41.2886 36.4362 41.2643 36.1792 41.3147 35.9316C41.3651 35.6839 41.4878 35.4567 41.6674 35.2788C49.15 27.8166 62.7977 27.0627 80.1035 33.2216C80.2933 33.2433 80.4758 33.3072 80.6376 33.4086C80.7995 33.5101 80.9365 33.6464 81.0387 33.8077C81.1408 33.969 81.2055 34.1511 81.228 34.3406C81.2505 34.5301 81.2302 34.7223 81.1686 34.9029C81.107 35.0836 81.0057 35.2482 80.8721 35.3846C80.7385 35.521 80.576 35.6258 80.3966 35.6913C80.2171 35.7567 80.0253 35.7812 79.8351 35.7629C79.6449 35.7446 79.4613 35.684 79.2977 35.5854C62.9256 29.8227 50.2244 30.3593 43.4837 37.0549C43.3659 37.1818 43.2236 37.2835 43.0652 37.3538C42.9069 37.424 42.736 37.4615 42.5628 37.4638Z" fill="#34234D"/>
<path d="M177.369 172C177.114 172.001 176.866 171.927 176.654 171.787C176.442 171.646 176.277 171.446 176.18 171.212C176.082 170.977 176.057 170.719 176.107 170.47C176.157 170.222 176.28 169.993 176.46 169.815C183.227 163.055 183.751 150.328 177.919 133.96C177.803 133.642 177.819 133.29 177.963 132.984C178.107 132.677 178.367 132.44 178.686 132.325C178.845 132.268 179.013 132.243 179.181 132.252C179.35 132.26 179.515 132.302 179.667 132.374C179.819 132.447 179.955 132.548 180.068 132.674C180.181 132.799 180.267 132.945 180.323 133.104C186.501 150.443 185.772 164.128 178.277 171.616C178.158 171.737 178.017 171.833 177.861 171.899C177.705 171.965 177.538 171.999 177.369 172Z" fill="#34234D"/>
<path d="M110 173.779C148.853 173.779 180.349 142.315 180.349 103.502C180.349 64.6882 148.853 33.2238 110 33.2238C71.1477 33.2238 39.6515 64.6882 39.6515 103.502C39.6515 142.315 71.1477 173.779 110 173.779Z" fill="#3257FB"/>
<path d="M93.002 86.5167C120.464 59.0956 150.292 44.4267 159.68 53.7417C146.457 40.7079 128.61 33.4279 110.035 33.49C91.4586 33.5522 73.6613 40.9515 60.5261 54.0735C47.3909 67.1955 39.984 84.9748 39.9218 103.532C39.8596 122.089 47.147 139.918 60.1939 153.127C50.8695 143.748 65.5532 113.951 93.002 86.5167Z" fill="#8FBBFD"/>
<path d="M59.897 152.771C63.0534 155.986 66.5145 158.887 70.2319 161.434C72.9563 157.409 77.1645 153.435 82.818 154.739C96.7854 157.971 99.4459 127.369 84.7238 128.25C72.7645 128.966 82.1656 116.303 70.0401 119.919C68.7365 120.323 67.3869 120.559 66.0238 120.622C57.6459 135.074 54.9087 147.174 59.897 152.771Z" fill="white"/>
<path d="M63.5041 105.824C67.2518 104.776 77.2157 101.863 79.6843 91.2318C82.2425 79.9873 67.2646 76.6779 70.2832 69.6245C73.5832 61.894 100.418 72.0906 100.418 59.9006C100.418 53.1923 92.4495 55.0706 87.0774 53.7417C80.4134 52.0934 77.5227 46.7523 76.5251 41.7051C66.7679 46.9925 58.399 54.5075 52.0998 63.638C45.8007 72.7686 41.7495 83.2564 40.2762 94.2473L40.1227 95.4101C40.0588 95.9979 39.9948 96.5984 39.9437 97.199L39.8285 98.6684C39.8285 99.2306 39.7518 99.7801 39.7262 100.33C39.7006 100.879 39.7262 101.531 39.7262 102.118C39.7262 103.166 39.7262 104.214 39.7262 105.275C39.7262 105.581 39.7262 105.901 39.7262 106.207C39.7262 107.012 39.803 107.817 39.8669 108.61C39.8669 108.75 39.8669 108.878 39.8669 109.006C40.0204 110.82 40.2251 112.647 40.5192 114.475C41.4688 120.524 43.2105 126.423 45.6995 132.018C46.1599 133.066 46.6588 134.088 47.1704 135.111C47.2312 135.217 47.2826 135.328 47.3239 135.443C47.8099 136.371 48.3088 137.291 48.8204 138.203C48.9099 138.343 48.9867 138.484 49.0634 138.625C49.5751 139.493 50.0867 140.35 50.6367 141.18C50.7262 141.321 50.8158 141.474 50.9181 141.615C51.4681 142.471 52.0309 143.301 52.6192 144.17L52.8751 144.515C53.5018 145.384 54.1541 146.24 54.8064 147.071C54.8502 147.133 54.8972 147.192 54.9471 147.25C56.4905 149.182 58.1387 151.029 59.8844 152.782C54.896 147.186 57.6332 135.085 66.0111 120.633C55.3181 121.093 52.1971 108.929 63.5041 105.824Z" fill="white"/>
<path d="M179.477 92.5499C177.464 79.7156 171.915 67.6944 163.45 57.8326C161.9 59.4569 160.464 61.186 159.152 63.0076C155.801 67.5949 148.843 67.8249 145.083 60.3243C143.745 57.6209 141.682 55.3424 139.122 53.7437C130.839 57.1612 123.018 61.6043 115.843 66.9687C114.475 73.2171 116.342 80.2321 126.997 81.0243C140.836 82.0337 133.699 95.821 125.334 92.7415C116.969 89.6621 112.761 86.6082 105.828 92.1026C98.8955 97.5971 100.098 106.938 108.386 108.279C114.283 109.238 117.34 117.518 114.999 120.099C111.737 122.987 107.12 134.55 113.285 141.361C119.45 148.172 124.106 143.38 125.845 139.38C127.585 135.381 127.662 132.749 130.821 127.42C133.175 123.459 141.348 121.696 141.348 121.696C141.348 121.696 148.088 119.281 143.407 106.823C138.726 94.3643 154.957 96.4087 158.602 104.778C161.595 111.806 154.484 123.357 167.07 121.313C172.711 120.405 174.885 123.242 176.944 125.146C180.353 114.633 181.221 103.463 179.477 92.5499Z" fill="white"/>
<path d="M148.956 138.971C149.391 141.987 145.618 140.53 142.318 143.674C139.018 146.817 138.136 148.606 134.298 146.638C130.781 144.875 136.972 136.595 139.849 135.572C142.727 134.55 148.368 134.678 148.956 138.971Z" fill="white"/>
<path d="M116.09 65.8573C115.987 66.2279 115.898 66.5984 115.808 66.969C122.983 61.6046 130.804 57.1615 139.087 53.744C131.259 48.9268 120.068 51.9551 116.09 65.8573Z" fill="white"/>
<path d="M110.003 175.056C91.0122 175.036 72.8052 167.49 59.3768 154.075C45.9483 140.661 38.3953 122.472 38.375 103.5C38.375 103.162 38.5098 102.837 38.7496 102.597C38.9895 102.357 39.3148 102.223 39.6541 102.223C39.9933 102.223 40.3186 102.357 40.5585 102.597C40.7984 102.837 40.9331 103.162 40.9331 103.5C40.9535 121.794 48.2369 139.333 61.1856 152.268C74.1343 165.204 91.6907 172.48 110.003 172.5C110.342 172.5 110.667 172.635 110.907 172.875C111.147 173.114 111.282 173.439 111.282 173.778C111.282 174.117 111.147 174.442 110.907 174.682C110.667 174.921 110.342 175.056 110.003 175.056Z" fill="#34234D"/>
<path d="M140.213 168.258C139.925 168.256 139.645 168.157 139.42 167.976C139.194 167.795 139.037 167.543 138.973 167.262C138.91 166.98 138.943 166.686 139.068 166.426C139.194 166.166 139.403 165.956 139.663 165.83C149.643 161.076 158.334 153.999 165.007 145.194C171.679 136.388 176.139 126.11 178.01 115.225C179.881 104.34 179.109 93.1656 175.759 82.6404C172.409 72.1152 166.579 62.5471 158.759 54.7403C150.939 46.9335 141.357 41.116 130.819 37.7768C120.281 34.4377 109.094 33.6744 98.1995 35.5511C87.3047 37.4279 77.0201 41.8898 68.21 48.5619C59.3999 55.234 52.3217 63.9214 47.5704 73.8938C47.5209 74.0725 47.4331 74.2384 47.3129 74.3798C47.1928 74.5212 47.0433 74.6349 46.8748 74.7127C46.7063 74.7906 46.5228 74.8309 46.3371 74.8309C46.1515 74.8308 45.968 74.7903 45.7996 74.7123C45.6312 74.6343 45.4817 74.5206 45.3617 74.379C45.2417 74.2375 45.154 74.0716 45.1046 73.8928C45.0553 73.714 45.0455 73.5266 45.0759 73.3436C45.1063 73.1606 45.1763 72.9865 45.2809 72.8332C50.2037 62.4853 57.5418 53.4696 66.678 46.5443C75.8143 39.6189 86.4816 34.9864 97.7829 33.0363C109.084 31.0862 120.689 31.8756 131.621 35.3381C142.554 38.8005 152.494 44.8348 160.606 52.9334C168.718 61.032 174.765 70.9582 178.239 81.8772C181.712 92.7962 182.51 104.389 180.565 115.68C178.621 126.971 173.991 137.631 167.065 146.762C160.138 155.894 151.118 163.231 140.763 168.155C140.591 168.232 140.402 168.267 140.213 168.258Z" fill="#34234D"/>
<path d="M58.1758 122.551C27.5421 84.7288 18.1921 46.2805 35.4468 29.0688L42.5712 36.1861C29.5375 49.2066 39.6549 83.6172 66.0165 116.277L58.1758 122.551Z" fill="#FE6A6A"/>
<path d="M184.495 177.842L177.371 170.724C163.915 184.154 129.674 173.676 96.7893 146.996L103.185 140.019L73.5742 132.353L83.5126 161.409L89.9079 154.42C115.323 175.209 141.02 186.556 160.589 186.556C170.361 186.556 178.599 183.732 184.495 177.842Z" fill="#FD6969"/>
<path d="M58.1724 123.829C57.9813 123.83 57.7925 123.788 57.6199 123.706C57.4472 123.624 57.2951 123.505 57.1747 123.356C26.1189 84.9976 16.8073 45.8593 34.5352 28.111C34.6544 27.9918 34.796 27.8973 34.9518 27.8328C35.1077 27.7684 35.2747 27.7352 35.4433 27.7352C35.612 27.7352 35.779 27.7684 35.9348 27.8328C36.0906 27.8973 36.2322 27.9918 36.3515 28.111C36.4707 28.2301 36.5653 28.3715 36.6299 28.5272C36.6944 28.6829 36.7276 28.8497 36.7276 29.0182C36.7276 29.1867 36.6944 29.3535 36.6299 29.5092C36.5653 29.6648 36.4707 29.8063 36.3515 29.9254C19.7236 46.5365 28.7922 83.7198 58.3643 120.648L64.2224 115.92C38.0015 83.1959 28.2933 48.6321 41.6724 35.2793C41.9162 35.0814 42.2243 34.98 42.5381 34.9945C42.8518 35.009 43.1493 35.1383 43.3738 35.3578C43.5982 35.5773 43.734 35.8717 43.7552 36.1847C43.7764 36.4978 43.6815 36.8077 43.4887 37.0554C30.9154 49.6032 41.0329 83.2854 67.0236 115.383C67.2324 115.647 67.3289 115.982 67.2922 116.316C67.2794 116.483 67.2318 116.645 67.1525 116.793C67.0732 116.94 66.9639 117.069 66.8317 117.172L58.9782 123.561C58.7481 123.739 58.4638 123.834 58.1724 123.829Z" fill="#34234D"/>
<path d="M160.587 187.834C140.595 187.834 114.949 176.334 90.0715 156.196L84.418 162.278C84.2679 162.441 84.0782 162.561 83.8675 162.629C83.6568 162.696 83.4322 162.707 83.2157 162.662C82.9982 162.616 82.7964 162.513 82.6305 162.366C82.4645 162.218 82.3399 162.029 82.2692 161.818L72.3308 132.762C72.2565 132.544 72.2421 132.311 72.2894 132.086C72.3367 131.861 72.4438 131.653 72.5994 131.484C72.758 131.311 72.9613 131.185 73.1869 131.119C73.4125 131.054 73.6518 131.052 73.8785 131.113L103.489 138.78C103.704 138.836 103.901 138.946 104.06 139.101C104.219 139.255 104.335 139.449 104.397 139.662C104.47 139.88 104.482 140.114 104.433 140.339C104.383 140.564 104.274 140.772 104.116 140.94L98.6285 146.907C131.117 172.897 163.708 182.557 176.434 169.907C176.553 169.787 176.695 169.692 176.851 169.627C177.006 169.562 177.174 169.529 177.342 169.529C177.511 169.529 177.678 169.562 177.834 169.627C177.99 169.692 178.132 169.787 178.251 169.907C178.489 170.146 178.623 170.47 178.623 170.808C178.623 171.145 178.489 171.469 178.251 171.708C164.437 185.496 129.825 175.542 95.9552 148.082C95.818 147.972 95.7052 147.834 95.6238 147.678C95.5423 147.522 95.4941 147.351 95.482 147.175C95.469 147.001 95.4918 146.826 95.549 146.662C95.6062 146.497 95.6966 146.345 95.8145 146.217L100.79 140.812L75.5669 134.167L84.0471 158.943L89.0099 153.538C89.2304 153.298 89.5348 153.15 89.8606 153.126C90.1865 153.103 90.509 153.204 90.7622 153.411C115.474 173.676 140.915 185.278 160.587 185.278C170.308 185.278 178.046 182.467 183.61 176.935C183.855 176.725 184.169 176.616 184.491 176.628C184.813 176.641 185.118 176.774 185.346 177.002C185.574 177.229 185.708 177.534 185.72 177.856C185.732 178.177 185.623 178.492 185.413 178.736C179.363 184.78 171.011 187.834 160.587 187.834Z" fill="#34234D"/>
<path d="M122.648 73.2413L114.27 64.8847C112.054 62.6621 110.809 59.6526 110.809 56.5152C110.809 53.3778 112.054 50.3683 114.27 48.1458C116.491 45.929 119.502 44.6838 122.642 44.6838C125.781 44.6838 128.792 45.929 131.013 48.1458C132.114 49.2446 132.987 50.5493 133.583 51.9854C134.179 53.4215 134.485 54.9607 134.485 56.5152C134.485 58.0697 134.179 59.609 133.583 61.045C132.987 62.4811 132.114 63.7858 131.013 64.8847L122.648 73.2413Z" fill="#FE6A6A"/>
<path d="M122.653 74.5185C122.485 74.5195 122.318 74.4872 122.162 74.4236C122.006 74.3601 121.864 74.2664 121.745 74.1479L113.367 65.7785C111.532 63.945 110.282 61.609 109.776 59.066C109.269 56.5229 109.529 53.8869 110.522 51.4914C111.516 49.0959 113.198 47.0484 115.356 45.6079C117.514 44.1673 120.051 43.3984 122.647 43.3984C125.242 43.3984 127.779 44.1673 129.938 45.6079C132.096 47.0484 133.778 49.0959 134.771 51.4914C135.764 53.8869 136.024 56.5229 135.518 59.066C135.011 61.609 133.762 63.945 131.926 65.7785L123.548 74.1096C123.434 74.2335 123.295 74.3334 123.142 74.4036C122.988 74.4737 122.822 74.5128 122.653 74.5185ZM122.653 45.9729C120.564 45.9697 118.52 46.5862 116.782 47.7443C115.044 48.9024 113.689 50.55 112.889 52.4783C112.089 54.4065 111.88 56.5286 112.288 58.5757C112.697 60.6227 113.704 62.5025 115.183 63.9768L122.653 71.4391L130.123 63.9768C131.593 62.5012 132.593 60.6236 132.997 58.5809C133.4 56.5382 133.189 54.4219 132.39 52.4989C131.591 50.576 130.24 48.9324 128.507 47.7755C126.774 46.6187 124.737 46.0003 122.653 45.9985V45.9729Z" fill="#34234D"/>
<path d="M122.653 60.9874C125.125 60.9874 127.129 58.9851 127.129 56.5152C127.129 54.0452 125.125 52.043 122.653 52.043C120.18 52.043 118.176 54.0452 118.176 56.5152C118.176 58.9851 120.18 60.9874 122.653 60.9874Z" fill="white"/>
<path d="M140.812 138.638L132.434 130.332C130.215 128.114 128.969 125.106 128.969 121.969C128.969 118.833 130.215 115.825 132.434 113.606C134.659 111.392 137.672 110.148 140.812 110.148C143.953 110.148 146.965 111.392 149.19 113.606C151.409 115.825 152.656 118.833 152.656 121.969C152.656 125.106 151.409 128.114 149.19 130.332L140.812 138.638Z" fill="#FD6969"/>
<path d="M140.815 139.917C140.476 139.913 140.152 139.78 139.907 139.547L131.541 131.177C129.704 129.345 128.453 127.009 127.945 124.465C127.437 121.922 127.696 119.285 128.689 116.888C129.681 114.492 131.363 112.443 133.522 111.002C135.68 109.56 138.218 108.791 140.815 108.791C143.411 108.791 145.949 109.56 148.107 111.002C150.266 112.443 151.948 114.492 152.941 116.888C153.933 119.285 154.192 121.922 153.684 124.465C153.177 127.009 151.925 129.345 150.088 131.177L141.723 139.547C141.603 139.665 141.462 139.759 141.306 139.823C141.15 139.886 140.983 139.918 140.815 139.917ZM140.815 111.359C138.725 111.359 136.683 111.979 134.946 113.138C133.209 114.298 131.855 115.946 131.055 117.875C130.256 119.803 130.047 121.925 130.454 123.972C130.862 126.019 131.868 127.9 133.345 129.376L140.815 136.838L148.284 129.376C149.762 127.9 150.768 126.019 151.175 123.972C151.583 121.925 151.373 119.803 150.574 117.875C149.774 115.946 148.42 114.298 146.683 113.138C144.946 111.979 142.904 111.359 140.815 111.359Z" fill="#34234D"/>
<path d="M140.809 126.384C143.281 126.384 145.286 124.382 145.286 121.912C145.286 119.442 143.281 117.439 140.809 117.439C138.336 117.439 136.332 119.442 136.332 121.912C136.332 124.382 138.336 126.384 140.809 126.384Z" fill="white"/>
<path d="M169.789 98.1864L161.424 89.817C160.324 88.7193 159.451 87.4156 158.855 85.9806C158.26 84.5456 157.953 83.0074 157.953 81.454C157.953 79.9005 158.26 78.3623 158.855 76.9273C159.451 75.4923 160.324 74.1886 161.424 73.0909C163.645 70.8741 166.656 69.6289 169.795 69.6289C172.935 69.6289 175.946 70.8741 178.167 73.0909C180.386 75.3096 181.632 78.3176 181.632 81.454C181.632 84.5903 180.386 87.5983 178.167 89.817L169.789 98.1864Z" fill="#FD6969"/>
<path d="M169.785 99.4638C169.449 99.4624 169.128 99.3293 168.889 99.0933L160.512 90.7238C158.676 88.8903 157.426 86.5544 156.92 84.0113C156.414 81.4682 156.674 78.8322 157.667 76.4367C158.66 74.0412 160.342 71.9937 162.5 70.5532C164.658 69.1126 167.196 68.3438 169.791 68.3438C172.387 68.3438 174.924 69.1126 177.082 70.5532C179.24 71.9937 180.922 74.0412 181.916 76.4367C182.909 78.8322 183.169 81.4682 182.662 84.0113C182.156 86.5544 180.906 88.8903 179.071 90.7238L170.693 99.0933C170.573 99.2117 170.432 99.3054 170.276 99.369C170.12 99.4326 169.953 99.4648 169.785 99.4638ZM169.785 70.9055C167.696 70.9058 165.653 71.525 163.916 72.6848C162.179 73.8446 160.825 75.4928 160.026 77.4212C159.226 79.3495 159.017 81.4714 159.424 83.5185C159.832 85.5656 160.838 87.4461 162.315 88.9221L169.785 96.3844L177.255 88.9221C178.732 87.4461 179.738 85.5656 180.145 83.5185C180.553 81.4714 180.344 79.3495 179.544 77.4212C178.745 75.4928 177.391 73.8446 175.654 72.6848C173.916 71.525 171.874 70.9058 169.785 70.9055Z" fill="#34234D"/>
<path d="M169.785 85.931C172.257 85.931 174.262 83.9287 174.262 81.4588C174.262 78.9888 172.257 76.9865 169.785 76.9865C167.312 76.9865 165.308 78.9888 165.308 81.4588C165.308 83.9287 167.312 85.931 169.785 85.931Z" fill="white"/>
<path d="M73.5465 92.7805L65.2325 84.411C63.0252 82.1939 61.7861 79.1941 61.7861 76.0672C61.7861 72.9402 63.0252 69.9404 65.2325 67.7233C67.4573 65.5088 70.4698 64.2654 73.6104 64.2654C76.751 64.2654 79.7636 65.5088 81.9883 67.7233C84.2073 69.9419 85.4538 72.95 85.4538 76.0863C85.4538 79.2227 84.2073 82.2307 81.9883 84.4494L73.5465 92.7805Z" fill="#FE6A6A"/>
<path d="M73.5494 94.0577C73.3811 94.0587 73.2142 94.0265 73.0584 93.9629C72.9025 93.8993 72.7608 93.8056 72.6413 93.6872L64.2762 85.3177C62.4391 83.485 61.1874 81.149 60.6796 78.6054C60.1718 76.0619 60.4307 73.425 61.4234 71.0284C62.4161 68.6318 64.0982 66.5833 66.2567 65.1419C68.4152 63.7006 70.9531 62.9313 73.5494 62.9313C76.1457 62.9313 78.6836 63.7006 80.8421 65.1419C83.0006 66.5833 84.6827 68.6318 85.6754 71.0284C86.6682 73.425 86.927 76.0619 86.4192 78.6054C85.9114 81.149 84.6598 83.485 82.8227 85.3177L74.4575 93.6872C74.338 93.8056 74.1963 93.8993 74.0404 93.9629C73.8846 94.0265 73.7177 94.0587 73.5494 94.0577ZM73.5494 65.4994C71.4601 65.4997 69.4178 66.1189 67.6807 67.2787C65.9436 68.4385 64.5897 70.0867 63.7902 72.0151C62.9907 73.9434 62.7815 76.0653 63.189 78.1124C63.5965 80.1595 64.6024 82.04 66.0796 83.5161L73.5494 90.9783L81.0192 83.5161C82.4964 82.04 83.5023 80.1595 83.9098 78.1124C84.3173 76.0653 84.1081 73.9434 83.3086 72.0151C82.5091 70.0867 81.1552 68.4385 79.4181 67.2787C77.681 66.1189 75.6387 65.4997 73.5494 65.4994Z" fill="#34234D"/>
<path d="M73.5466 80.5268C76.0191 80.5268 78.0234 78.5245 78.0234 76.0546C78.0234 73.5846 76.0191 71.5823 73.5466 71.5823C71.0742 71.5823 69.0699 73.5846 69.0699 76.0546C69.0699 78.5245 71.0742 80.5268 73.5466 80.5268Z" fill="white"/>
<path d="M208.486 99.668C214.137 99.668 218.718 95.0913 218.718 89.4457C218.718 83.8002 214.137 79.2235 208.486 79.2235C202.834 79.2235 198.253 83.8002 198.253 89.4457C198.253 95.0913 202.834 99.668 208.486 99.668Z" fill="white"/>
<path d="M208.488 100.943C208.149 100.943 207.824 100.809 207.584 100.569C207.344 100.329 207.209 100.004 207.209 99.6656C207.209 97.2934 206.266 95.0183 204.587 93.3409C202.908 91.6635 200.63 90.7211 198.256 90.7211C197.916 90.7211 197.591 90.5865 197.351 90.3469C197.111 90.1073 196.977 89.7822 196.977 89.4434C196.977 89.1045 197.111 88.7795 197.351 88.5398C197.591 88.3002 197.916 88.1656 198.256 88.1656C200.63 88.1656 202.908 87.2232 204.587 85.5458C206.266 83.8684 207.209 81.5934 207.209 79.2211C207.209 78.8822 207.344 78.5572 207.584 78.3176C207.824 78.078 208.149 77.9434 208.488 77.9434C208.827 77.9434 209.153 78.078 209.393 78.3176C209.633 78.5572 209.767 78.8822 209.767 79.2211C209.767 81.5934 210.711 83.8684 212.39 85.5458C214.069 87.2232 216.346 88.1656 218.721 88.1656C219.06 88.1656 219.385 88.3002 219.625 88.5398C219.865 88.7795 220 89.1045 220 89.4434C220 89.7822 219.865 90.1073 219.625 90.3469C219.385 90.5865 219.06 90.7211 218.721 90.7211C216.346 90.7211 214.069 91.6635 212.39 93.3409C210.711 95.0183 209.767 97.2934 209.767 99.6656C209.767 100.004 209.633 100.329 209.393 100.569C209.153 100.809 208.827 100.943 208.488 100.943ZM203.525 89.4434C205.652 90.5451 207.385 92.2768 208.488 94.4011C209.591 92.2768 211.325 90.5451 213.451 89.4434C211.325 88.3416 209.591 86.6099 208.488 84.4856C207.385 86.6099 205.652 88.3416 203.525 89.4434Z" fill="#898796"/>
<path d="M66.5107 205.723C74.2813 205.723 80.5805 199.43 80.5805 191.667C80.5805 183.905 74.2813 177.612 66.5107 177.612C58.7402 177.612 52.441 183.905 52.441 191.667C52.441 199.43 58.7402 205.723 66.5107 205.723Z" fill="white"/>
<path d="M66.5121 206.999C66.1729 206.999 65.8476 206.864 65.6077 206.625C65.3678 206.385 65.2331 206.06 65.2331 205.721C65.2331 202.332 63.8855 199.082 61.4868 196.686C59.088 194.289 55.8347 192.943 52.4424 192.943C52.1031 192.943 51.7778 192.809 51.5379 192.569C51.2981 192.329 51.1633 192.004 51.1633 191.665C51.1633 191.327 51.2981 191.002 51.5379 190.762C51.7778 190.522 52.1031 190.388 52.4424 190.388C55.8347 190.388 59.088 189.041 61.4868 186.645C63.8855 184.249 65.2331 180.999 65.2331 177.61C65.2331 177.271 65.3678 176.946 65.6077 176.706C65.8476 176.467 66.1729 176.332 66.5121 176.332C66.8514 176.332 67.1767 176.467 67.4166 176.706C67.6564 176.946 67.7912 177.271 67.7912 177.61C67.7912 180.999 69.1388 184.249 71.5375 186.645C73.9362 189.041 77.1896 190.388 80.5819 190.388C80.9211 190.388 81.2465 190.522 81.4863 190.762C81.7262 191.002 81.861 191.327 81.861 191.665C81.861 192.004 81.7262 192.329 81.4863 192.569C81.2465 192.809 80.9211 192.943 80.5819 192.943C77.1896 192.943 73.9362 194.289 71.5375 196.686C69.1388 199.082 67.7912 202.332 67.7912 205.721C67.7912 206.06 67.6564 206.385 67.4166 206.625C67.1767 206.864 66.8514 206.999 66.5121 206.999ZM58.5691 191.665C62.1203 193.22 64.9558 196.053 66.5121 199.6C68.0685 196.053 70.904 193.22 74.4552 191.665C70.904 190.111 68.0685 187.278 66.5121 183.73C64.9558 187.278 62.1203 190.111 58.5691 191.665Z" fill="#898796"/>
<path d="M166.279 33.2235C173.343 33.2235 179.07 27.5027 179.07 20.4457C179.07 13.3888 173.343 7.66797 166.279 7.66797C159.215 7.66797 153.488 13.3888 153.488 20.4457C153.488 27.5027 159.215 33.2235 166.279 33.2235Z" fill="white"/>
<path d="M166.277 34.4994C165.938 34.4994 165.612 34.3647 165.372 34.1251C165.132 33.8855 164.998 33.5605 164.998 33.2216C164.998 30.1716 163.785 27.2465 161.626 25.0899C159.467 22.9332 156.539 21.7216 153.486 21.7216C153.147 21.7216 152.821 21.587 152.582 21.3473C152.342 21.1077 152.207 20.7827 152.207 20.4438C152.207 20.1049 152.342 19.7799 152.582 19.5403C152.821 19.3006 153.147 19.166 153.486 19.166C156.539 19.166 159.467 17.9544 161.626 15.7978C163.785 13.6411 164.998 10.716 164.998 7.66602C164.998 7.32713 165.132 7.00213 165.372 6.7625C165.612 6.52287 165.938 6.38824 166.277 6.38824C166.616 6.38824 166.941 6.52287 167.181 6.7625C167.421 7.00213 167.556 7.32713 167.556 7.66602C167.556 10.716 168.769 13.6411 170.927 15.7978C173.086 17.9544 176.014 19.166 179.067 19.166C179.407 19.166 179.732 19.3006 179.972 19.5403C180.212 19.7799 180.346 20.1049 180.346 20.4438C180.346 20.7827 180.212 21.1077 179.972 21.3473C179.732 21.587 179.407 21.7216 179.067 21.7216C176.014 21.7216 173.086 22.9332 170.927 25.0899C168.769 27.2465 167.556 30.1716 167.556 33.2216C167.556 33.5605 167.421 33.8855 167.181 34.1251C166.941 34.3647 166.616 34.4994 166.277 34.4994ZM159.344 20.4438C162.406 21.8549 164.864 24.3104 166.277 27.3694C167.689 24.3104 170.147 21.8549 173.209 20.4438C170.147 19.0327 167.689 16.5772 166.277 13.5182C164.864 16.5772 162.406 19.0327 159.344 20.4438Z" fill="#898796"/>
<path d="M28.1391 21.7208C33.7904 21.7208 38.3717 17.1442 38.3717 11.4986C38.3717 5.85301 33.7904 1.27637 28.1391 1.27637C22.4879 1.27637 17.9066 5.85301 17.9066 11.4986C17.9066 17.1442 22.4879 21.7208 28.1391 21.7208Z" fill="white"/>
<path d="M28.1405 23C27.8013 23 27.476 22.8654 27.2361 22.6257C26.9962 22.3861 26.8615 22.0611 26.8615 21.7222C26.8615 19.35 25.9182 17.075 24.239 15.3975C22.5599 13.7201 20.2826 12.7778 17.908 12.7778C17.5687 12.7778 17.2434 12.6432 17.0035 12.4035C16.7637 12.1639 16.6289 11.8389 16.6289 11.5C16.6289 11.1611 16.7637 10.8361 17.0035 10.5965C17.2434 10.3568 17.5687 10.2222 17.908 10.2222C20.2826 10.2222 22.5599 9.27986 24.239 7.60246C25.9182 5.92505 26.8615 3.64999 26.8615 1.27778C26.8615 0.93889 26.9962 0.613882 27.2361 0.374252C27.476 0.134623 27.8013 0 28.1405 0C28.4798 0 28.8051 0.134623 29.045 0.374252C29.2848 0.613882 29.4196 0.93889 29.4196 1.27778C29.4196 3.64999 30.3629 5.92505 32.042 7.60246C33.7211 9.27986 35.9985 10.2222 38.3731 10.2222C38.7123 10.2222 39.0377 10.3568 39.2775 10.5965C39.5174 10.8361 39.6522 11.1611 39.6522 11.5C39.6522 11.8389 39.5174 12.1639 39.2775 12.4035C39.0377 12.6432 38.7123 12.7778 38.3731 12.7778C35.9985 12.7778 33.7211 13.7201 32.042 15.3975C30.3629 17.075 29.4196 19.35 29.4196 21.7222C29.4196 22.0611 29.2848 22.3861 29.045 22.6257C28.8051 22.8654 28.4798 23 28.1405 23ZM23.1777 11.5C25.3042 12.6018 27.0377 14.3334 28.1405 16.4578C29.2434 14.3334 30.9768 12.6018 33.1033 11.5C30.9768 10.3982 29.2434 8.66656 28.1405 6.54222C27.0377 8.66656 25.3042 10.3982 23.1777 11.5Z" fill="#898796"/>
<path d="M11.5102 136.721C17.1615 136.721 21.7428 132.144 21.7428 126.499C21.7428 120.853 17.1615 116.276 11.5102 116.276C5.85895 116.276 1.27768 120.853 1.27768 126.499C1.27768 132.144 5.85895 136.721 11.5102 136.721Z" fill="white"/>
<path d="M11.5116 138C11.1724 138 10.8471 137.865 10.6072 137.626C10.3673 137.386 10.2326 137.061 10.2326 136.722C10.2326 134.35 9.28925 132.075 7.61014 130.398C5.93104 128.72 3.65368 127.778 1.27907 127.778C0.939839 127.778 0.614503 127.643 0.374631 127.404C0.134759 127.164 0 126.839 0 126.5C0 126.161 0.134759 125.836 0.374631 125.597C0.614503 125.357 0.939839 125.222 1.27907 125.222C3.65368 125.222 5.93104 124.28 7.61014 122.603C9.28925 120.925 10.2326 118.65 10.2326 116.278C10.2326 115.939 10.3673 115.614 10.6072 115.374C10.8471 115.135 11.1724 115 11.5116 115C11.8509 115 12.1762 115.135 12.4161 115.374C12.6559 115.614 12.7907 115.939 12.7907 116.278C12.7907 118.65 13.734 120.925 15.4131 122.603C17.0922 124.28 19.3696 125.222 21.7442 125.222C22.0834 125.222 22.4088 125.357 22.6486 125.597C22.8885 125.836 23.0233 126.161 23.0233 126.5C23.0233 126.839 22.8885 127.164 22.6486 127.404C22.4088 127.643 22.0834 127.778 21.7442 127.778C19.3696 127.778 17.0922 128.72 15.4131 130.398C13.734 132.075 12.7907 134.35 12.7907 136.722C12.7907 137.061 12.6559 137.386 12.4161 137.626C12.1762 137.865 11.8509 138 11.5116 138ZM6.54884 126.5C8.67532 127.602 10.4088 129.333 11.5116 131.458C12.6145 129.333 14.3479 127.602 16.4744 126.5C14.3479 125.398 12.6145 123.667 11.5116 121.542C10.4088 123.667 8.67532 125.398 6.54884 126.5Z" fill="#898796"/>
</svg>
