<svg width="1440" height="340" viewBox="0 0 1440 340" fill="none" xmlns="http://www.w3.org/2000/svg">
<path fill-rule="evenodd" clip-rule="evenodd" d="M-2 123.672L58.0833 152.516C118.167 181.36 238.333 239.047 358.5 217.414C478.667 195.781 598.833 94.8284 719 44.3519C839.167 -6.12456 959.333 -6.12456 1079.5 8.2973C1199.67 22.7192 1319.83 51.5629 1379.92 65.9847L1440 80.4066V340H1379.92C1319.83 340 1199.67 340 1079.5 340C959.333 340 839.167 340 719 340C598.833 340 478.667 340 358.5 340C238.333 340 118.167 340 58.0833 340H-2V123.672Z" fill="#1BBD90"/>
</svg>
