<svg width="1439" height="520" viewBox="0 0 1439 520" fill="none" xmlns="http://www.w3.org/2000/svg">
<rect width="1440" height="522" fill="#E8ECF2"/>
<g opacity="0.1">
<path d="M178.033 82.5911C178.033 104.322 160.412 121.938 138.676 121.938C116.939 121.938 99.3184 104.322 99.3184 82.5911C99.3184 60.8602 116.939 43.2438 138.676 43.2438C160.412 43.2438 178.033 60.8602 178.033 82.5911Z" fill="#8FBBFD"/>
<path d="M47.8844 33.6313C47.8844 31.0735 45.8103 29 43.2518 29H-157.367C-159.926 29 -162 31.0735 -162 33.6313V133.386C-162 135.944 -159.926 138.018 -157.367 138.018H43.2518C45.8103 138.018 47.8844 135.944 47.8844 133.386V101.016L73.2976 84.5761L47.8844 66.642V33.6313Z" fill="#8FBBFD"/>
<path d="M178.033 434.573C178.033 456.304 160.412 473.92 138.676 473.92C116.939 473.92 99.3184 456.304 99.3184 434.573C99.3184 412.842 116.939 395.226 138.676 395.226C160.412 395.226 178.033 412.842 178.033 434.573Z" fill="#8FBBFD"/>
<path d="M47.8844 385.613C47.8844 383.056 45.8103 380.982 43.2518 380.982H-157.367C-159.926 380.982 -162 383.056 -162 385.613V485.369C-162 487.926 -159.926 490 -157.367 490H43.2518C45.8103 490 47.8844 487.926 47.8844 485.369V452.998L73.2976 436.558L47.8844 418.624V385.613Z" fill="#8FBBFD"/>
<path d="M98.9667 258.582C98.9667 280.313 116.588 297.929 138.324 297.929C160.061 297.929 177.682 280.313 177.682 258.582C177.682 236.851 160.061 219.235 138.324 219.235C116.588 219.235 98.9667 236.851 98.9667 258.582Z" fill="#8FBBFD"/>
<path d="M229.116 209.622C229.116 207.065 231.19 204.991 233.748 204.991H434.367C436.926 204.991 439 207.065 439 209.622V309.378C439 311.935 436.926 314.009 434.367 314.009H233.748C231.19 314.009 229.116 311.935 229.116 309.378V277.007L203.702 260.567L229.116 242.633V209.622Z" fill="#8FBBFD"/>
<path d="M142.345 52.1139H134.474V435.705H142.345V52.1139Z" fill="#8FBBFD"/>
</g>
</svg>